G75*
%MOIN*%
%OFA0B0*%
%FSLAX24Y24*%
%IPPOS*%
%LPD*%
%AMOC8*
5,1,8,0,0,1.08239X$1,22.5*
%
%ADD10R,0.1025X0.1025*%
%ADD11C,0.0820*%
%ADD12R,0.0905X0.0905*%
%ADD13C,0.0905*%
%ADD14C,0.1182*%
%ADD15R,0.0790X0.0710*%
%ADD16R,0.0430X0.0254*%
%ADD17R,0.0741X0.1655*%
%ADD18R,0.0595X0.0595*%
%ADD19C,0.0671*%
%ADD20R,0.2442X0.3623*%
%ADD21C,0.0477*%
%ADD22C,0.2620*%
%ADD23R,0.1580X0.1580*%
%ADD24R,0.0710X0.0789*%
%ADD25R,0.0789X0.0710*%
%ADD26R,0.0631X0.0474*%
%ADD27R,0.0476X0.0476*%
D10*
X033861Y016660D03*
X037861Y016660D03*
X037861Y020660D03*
X033861Y020660D03*
X033986Y009160D03*
X037986Y009160D03*
X037986Y005160D03*
X033986Y005160D03*
D11*
X010910Y021910D03*
X009910Y021910D03*
X008910Y021910D03*
X007910Y021910D03*
X006910Y021910D03*
X005910Y021910D03*
D12*
X020279Y018660D03*
D13*
X020279Y017660D03*
X020279Y016660D03*
D14*
X021660Y012660D03*
X021660Y022660D03*
D15*
X025035Y023100D03*
X025035Y024220D03*
X025035Y021970D03*
X025035Y020850D03*
D16*
X010489Y023151D03*
X010489Y023407D03*
X010489Y023663D03*
X010489Y023919D03*
X008831Y023919D03*
X008831Y023663D03*
X008831Y023407D03*
X008831Y023151D03*
D17*
X009660Y023535D03*
D18*
X003660Y002184D03*
X003660Y005136D03*
X010285Y005136D03*
X010285Y002184D03*
X016910Y002184D03*
X016910Y005136D03*
X029160Y012809D03*
X029160Y015761D03*
X029160Y019559D03*
X029160Y022511D03*
D19*
X021035Y005662D03*
X021035Y004910D03*
X021035Y004158D03*
D20*
X029460Y002941D03*
X029460Y006879D03*
D21*
X028673Y007142D03*
X028673Y007666D03*
X028830Y008138D03*
X029185Y008414D03*
X029736Y008414D03*
X030090Y008138D03*
X030248Y007666D03*
X030248Y007142D03*
X030248Y006615D03*
X030248Y006091D03*
X030090Y005619D03*
X029736Y005343D03*
X029185Y005343D03*
X028830Y005619D03*
X028673Y006091D03*
X028673Y006615D03*
X029185Y004477D03*
X028830Y004201D03*
X028673Y003729D03*
X028673Y003205D03*
X028673Y002678D03*
X028673Y002154D03*
X028830Y001682D03*
X029185Y001406D03*
X029736Y001406D03*
X030090Y001682D03*
X030248Y002154D03*
X030248Y002678D03*
X030248Y003205D03*
X030248Y003729D03*
X030090Y004201D03*
X029736Y004477D03*
D22*
X013995Y016484D02*
X013995Y019024D01*
X005136Y011741D02*
X005136Y009201D01*
D23*
X012910Y025160D03*
X015056Y025160D03*
X017201Y025160D03*
D24*
X009461Y026410D03*
X008359Y026410D03*
D25*
X010410Y025961D03*
X010410Y024859D03*
D26*
X009218Y025160D03*
X008352Y024786D03*
X008352Y025534D03*
D27*
X007660Y025160D03*
X008160Y023410D03*
X011160Y023660D03*
X023035Y023035D03*
X026160Y024160D03*
M02*
