%
M48
M72
T01C0.0197
T02C0.0236
T03C0.0315
T04C0.0400
T05C0.0550
T06C0.0630
T07C0.0787
T08C0.1102
T09C0.1752
%
T01
X28830Y1682
X29185Y1406
X29736Y1406
X30090Y1682
X30248Y2154
X30248Y2678
X30248Y3205
X30248Y3729
X30090Y4201
X29736Y4477
X29185Y4477
X28830Y4201
X28673Y3729
X28673Y3205
X28673Y2678
X28673Y2154
X29185Y5343
X28830Y5619
X28673Y6091
X28673Y6615
X28673Y7142
X28673Y7666
X28830Y8138
X29185Y8414
X29736Y8414
X30090Y8138
X30248Y7666
X30248Y7142
X30248Y6615
X30248Y6091
X30090Y5619
X29736Y5343
T02
X23035Y23035
X26160Y24160
X11160Y23660
X8160Y23410
X7660Y25160
T03
X3660Y2184
X3660Y5136
X10285Y5136
X10285Y2184
X16910Y2184
X16910Y5136
X21035Y4910
X21035Y5662
X21035Y4158
X29160Y12809
X29160Y15761
X29160Y19559
X29160Y22511
T04
X10910Y21910
X9910Y21910
X8910Y21910
X7910Y21910
X6910Y21910
X5910Y21910
T05
X20279Y18660
X20279Y17660
X20279Y16660
T06
X33861Y16660
X37861Y16660
X37861Y20660
X33861Y20660
X33986Y9160
X37986Y9160
X37986Y5160
X33986Y5160
T07
X17201Y25160
X15056Y25160
X12910Y25160
T08
X21660Y22660
X21660Y12660
T09
X13995Y17754
X5136Y10471
M30
