G75*
%MOIN*%
%OFA0B0*%
%FSLAX24Y24*%
%IPPOS*%
%LPD*%
%AMOC8*
5,1,8,0,0,1.08239X$1,22.5*
%
%ADD10C,0.0000*%
%ADD11C,0.0001*%
%ADD12C,0.0050*%
D10*
X029159Y001901D02*
X029119Y001957D01*
X029090Y002019D01*
X029072Y002086D01*
X029066Y002154D01*
X029066Y003729D01*
X029072Y003797D01*
X029090Y003864D01*
X029119Y003926D01*
X029159Y003982D01*
X029207Y004030D01*
X029263Y004070D01*
X029326Y004099D01*
X029392Y004117D01*
X029460Y004123D01*
X029529Y004117D01*
X029595Y004099D01*
X029657Y004070D01*
X029713Y004030D01*
X029762Y003982D01*
X029801Y003926D01*
X029830Y003864D01*
X029848Y003797D01*
X029854Y003729D01*
X029854Y002154D01*
X029848Y002086D01*
X029830Y002019D01*
X029801Y001957D01*
X029762Y001901D01*
X029713Y001853D01*
X029657Y001813D01*
X029595Y001784D01*
X029529Y001766D01*
X029460Y001760D01*
X029392Y001766D01*
X029326Y001784D01*
X029263Y001813D01*
X029207Y001853D01*
X029159Y001901D01*
X029460Y005697D02*
X029392Y005703D01*
X029326Y005721D01*
X029263Y005750D01*
X029207Y005790D01*
X029159Y005838D01*
X029119Y005894D01*
X029090Y005956D01*
X029072Y006023D01*
X029066Y006091D01*
X029066Y007666D01*
X029072Y007734D01*
X029090Y007801D01*
X029119Y007863D01*
X029159Y007919D01*
X029207Y007967D01*
X029263Y008007D01*
X029326Y008036D01*
X029392Y008054D01*
X029460Y008060D01*
X029529Y008054D01*
X029595Y008036D01*
X029657Y008007D01*
X029713Y007967D01*
X029762Y007919D01*
X029801Y007863D01*
X029830Y007801D01*
X029848Y007734D01*
X029854Y007666D01*
X029854Y006091D01*
X029848Y006023D01*
X029830Y005956D01*
X029801Y005894D01*
X029762Y005838D01*
X029713Y005790D01*
X029657Y005750D01*
X029595Y005721D01*
X029529Y005703D01*
X029460Y005697D01*
D11*
X029458Y005698D02*
X029463Y005698D01*
X029474Y005699D02*
X029446Y005699D01*
X029435Y005700D02*
X029486Y005700D01*
X029497Y005701D02*
X029423Y005701D01*
X029412Y005702D02*
X029508Y005702D01*
X029520Y005703D02*
X029401Y005703D01*
X029391Y005704D02*
X029529Y005704D01*
X029533Y005705D02*
X029387Y005705D01*
X029384Y005706D02*
X029537Y005706D01*
X029541Y005707D02*
X029380Y005707D01*
X029376Y005708D02*
X029544Y005708D01*
X029548Y005709D02*
X029372Y005709D01*
X029369Y005710D02*
X029552Y005710D01*
X029556Y005711D02*
X029365Y005711D01*
X029361Y005712D02*
X029559Y005712D01*
X029563Y005713D02*
X029357Y005713D01*
X029354Y005714D02*
X029567Y005714D01*
X029570Y005715D02*
X029350Y005715D01*
X029346Y005716D02*
X029574Y005716D01*
X029578Y005717D02*
X029343Y005717D01*
X029339Y005718D02*
X029582Y005718D01*
X029585Y005719D02*
X029335Y005719D01*
X029331Y005720D02*
X029589Y005720D01*
X029593Y005721D02*
X029328Y005721D01*
X029325Y005722D02*
X029596Y005722D01*
X029598Y005723D02*
X029322Y005723D01*
X029320Y005724D02*
X029600Y005724D01*
X029602Y005725D02*
X029318Y005725D01*
X029316Y005726D02*
X029604Y005726D01*
X029607Y005727D02*
X029314Y005727D01*
X029312Y005728D02*
X029609Y005728D01*
X029611Y005729D02*
X029310Y005729D01*
X029307Y005730D02*
X029613Y005730D01*
X029615Y005731D02*
X029305Y005731D01*
X029303Y005732D02*
X029617Y005732D01*
X029619Y005733D02*
X029301Y005733D01*
X029299Y005734D02*
X029622Y005734D01*
X029624Y005735D02*
X029297Y005735D01*
X029295Y005736D02*
X029626Y005736D01*
X029628Y005737D02*
X029292Y005737D01*
X029290Y005738D02*
X029630Y005738D01*
X029632Y005739D02*
X029288Y005739D01*
X029286Y005740D02*
X029634Y005740D01*
X029637Y005741D02*
X029284Y005741D01*
X029282Y005742D02*
X029639Y005742D01*
X029641Y005743D02*
X029280Y005743D01*
X029277Y005744D02*
X029643Y005744D01*
X029645Y005745D02*
X029275Y005745D01*
X029273Y005746D02*
X029647Y005746D01*
X029649Y005747D02*
X029271Y005747D01*
X029269Y005748D02*
X029652Y005748D01*
X029654Y005749D02*
X029267Y005749D01*
X029265Y005750D02*
X029656Y005750D01*
X029658Y005751D02*
X029263Y005751D01*
X029261Y005752D02*
X029659Y005752D01*
X029660Y005753D02*
X029260Y005753D01*
X029258Y005754D02*
X029662Y005754D01*
X029663Y005755D02*
X029257Y005755D01*
X029256Y005756D02*
X029665Y005756D01*
X029666Y005757D02*
X029254Y005757D01*
X029253Y005758D02*
X029668Y005758D01*
X029669Y005759D02*
X029251Y005759D01*
X029250Y005760D02*
X029670Y005760D01*
X029672Y005761D02*
X029248Y005761D01*
X029247Y005762D02*
X029673Y005762D01*
X029675Y005763D02*
X029246Y005763D01*
X029244Y005764D02*
X029676Y005764D01*
X029678Y005765D02*
X029243Y005765D01*
X029241Y005766D02*
X029679Y005766D01*
X029680Y005767D02*
X029240Y005767D01*
X029238Y005768D02*
X029682Y005768D01*
X029683Y005769D02*
X029237Y005769D01*
X029236Y005770D02*
X029685Y005770D01*
X029686Y005771D02*
X029234Y005771D01*
X029233Y005772D02*
X029688Y005772D01*
X029689Y005773D02*
X029231Y005773D01*
X029230Y005774D02*
X029690Y005774D01*
X029692Y005775D02*
X029229Y005775D01*
X029227Y005776D02*
X029693Y005776D01*
X029695Y005777D02*
X029226Y005777D01*
X029224Y005778D02*
X029696Y005778D01*
X029698Y005779D02*
X029223Y005779D01*
X029221Y005780D02*
X029699Y005780D01*
X029700Y005781D02*
X029220Y005781D01*
X029219Y005782D02*
X029702Y005782D01*
X029703Y005783D02*
X029217Y005783D01*
X029216Y005784D02*
X029705Y005784D01*
X029706Y005785D02*
X029214Y005785D01*
X029213Y005786D02*
X029708Y005786D01*
X029709Y005787D02*
X029211Y005787D01*
X029210Y005788D02*
X029710Y005788D01*
X029712Y005789D02*
X029209Y005789D01*
X029207Y005790D02*
X029713Y005790D01*
X029714Y005791D02*
X029206Y005791D01*
X029205Y005792D02*
X029715Y005792D01*
X029716Y005793D02*
X029204Y005793D01*
X029203Y005794D02*
X029717Y005794D01*
X029718Y005795D02*
X029202Y005795D01*
X029201Y005796D02*
X029719Y005796D01*
X029720Y005797D02*
X029200Y005797D01*
X029199Y005798D02*
X029721Y005798D01*
X029722Y005799D02*
X029198Y005799D01*
X029197Y005800D02*
X029723Y005800D01*
X029724Y005801D02*
X029196Y005801D01*
X029195Y005802D02*
X029725Y005802D01*
X029726Y005803D02*
X029194Y005803D01*
X029193Y005804D02*
X029727Y005804D01*
X029728Y005805D02*
X029192Y005805D01*
X029191Y005806D02*
X029729Y005806D01*
X029730Y005807D02*
X029190Y005807D01*
X029189Y005808D02*
X029731Y005808D01*
X029732Y005809D02*
X029188Y005809D01*
X029187Y005810D02*
X029733Y005810D01*
X029734Y005811D02*
X029186Y005811D01*
X029185Y005812D02*
X029735Y005812D01*
X029736Y005813D02*
X029184Y005813D01*
X029183Y005814D02*
X029737Y005814D01*
X029738Y005815D02*
X029182Y005815D01*
X029181Y005816D02*
X029739Y005816D01*
X029740Y005817D02*
X029180Y005817D01*
X029179Y005818D02*
X029741Y005818D01*
X029742Y005818D02*
X029178Y005818D01*
X029177Y005819D02*
X029743Y005819D01*
X029744Y005820D02*
X029176Y005820D01*
X029175Y005821D02*
X029745Y005821D01*
X029746Y005822D02*
X029174Y005822D01*
X029173Y005823D02*
X029747Y005823D01*
X029748Y005824D02*
X029172Y005824D01*
X029171Y005825D02*
X029749Y005825D01*
X029750Y005826D02*
X029170Y005826D01*
X029169Y005827D02*
X029751Y005827D01*
X029752Y005828D02*
X029168Y005828D01*
X029167Y005829D02*
X029753Y005829D01*
X029754Y005830D02*
X029166Y005830D01*
X029165Y005831D02*
X029755Y005831D01*
X029756Y005832D02*
X029164Y005832D01*
X029163Y005833D02*
X029757Y005833D01*
X029758Y005834D02*
X029162Y005834D01*
X029161Y005835D02*
X029759Y005835D01*
X029760Y005836D02*
X029160Y005836D01*
X029159Y005837D02*
X029761Y005837D01*
X029762Y005838D02*
X029158Y005838D01*
X029158Y005839D02*
X029763Y005839D01*
X029763Y005840D02*
X029157Y005840D01*
X029156Y005841D02*
X029764Y005841D01*
X029765Y005842D02*
X029155Y005842D01*
X029155Y005843D02*
X029766Y005843D01*
X029766Y005844D02*
X029154Y005844D01*
X029153Y005845D02*
X029767Y005845D01*
X029768Y005846D02*
X029153Y005846D01*
X029152Y005847D02*
X029768Y005847D01*
X029769Y005848D02*
X029151Y005848D01*
X029151Y005849D02*
X029770Y005849D01*
X029770Y005850D02*
X029150Y005850D01*
X029149Y005851D02*
X029771Y005851D01*
X029772Y005852D02*
X029149Y005852D01*
X029148Y005853D02*
X029773Y005853D01*
X029773Y005854D02*
X029147Y005854D01*
X029146Y005855D02*
X029774Y005855D01*
X029775Y005856D02*
X029146Y005856D01*
X029145Y005857D02*
X029775Y005857D01*
X029776Y005858D02*
X029144Y005858D01*
X029144Y005859D02*
X029777Y005859D01*
X029777Y005860D02*
X029143Y005860D01*
X029142Y005861D02*
X029778Y005861D01*
X029779Y005862D02*
X029142Y005862D01*
X029141Y005863D02*
X029780Y005863D01*
X029780Y005864D02*
X029140Y005864D01*
X029139Y005865D02*
X029781Y005865D01*
X029782Y005866D02*
X029139Y005866D01*
X029138Y005867D02*
X029782Y005867D01*
X029783Y005868D02*
X029137Y005868D01*
X029137Y005869D02*
X029784Y005869D01*
X029784Y005870D02*
X029136Y005870D01*
X029135Y005871D02*
X029785Y005871D01*
X029786Y005872D02*
X029135Y005872D01*
X029134Y005873D02*
X029787Y005873D01*
X029787Y005874D02*
X029133Y005874D01*
X029132Y005875D02*
X029788Y005875D01*
X029789Y005876D02*
X029132Y005876D01*
X029131Y005877D02*
X029789Y005877D01*
X029790Y005878D02*
X029130Y005878D01*
X029130Y005879D02*
X029791Y005879D01*
X029791Y005880D02*
X029129Y005880D01*
X029128Y005881D02*
X029792Y005881D01*
X029793Y005882D02*
X029128Y005882D01*
X029127Y005883D02*
X029794Y005883D01*
X029794Y005884D02*
X029126Y005884D01*
X029125Y005885D02*
X029795Y005885D01*
X029796Y005886D02*
X029125Y005886D01*
X029124Y005887D02*
X029796Y005887D01*
X029797Y005888D02*
X029123Y005888D01*
X029123Y005889D02*
X029798Y005889D01*
X029798Y005890D02*
X029122Y005890D01*
X029121Y005891D02*
X029799Y005891D01*
X029800Y005892D02*
X029121Y005892D01*
X029120Y005893D02*
X029801Y005893D01*
X029801Y005894D02*
X029119Y005894D01*
X029119Y005895D02*
X029802Y005895D01*
X029802Y005896D02*
X029118Y005896D01*
X029118Y005897D02*
X029803Y005897D01*
X029803Y005898D02*
X029117Y005898D01*
X029117Y005899D02*
X029804Y005899D01*
X029804Y005900D02*
X029116Y005900D01*
X029116Y005901D02*
X029804Y005901D01*
X029805Y005902D02*
X029115Y005902D01*
X029115Y005903D02*
X029805Y005903D01*
X029806Y005904D02*
X029115Y005904D01*
X029114Y005905D02*
X029806Y005905D01*
X029807Y005906D02*
X029114Y005906D01*
X029113Y005907D02*
X029807Y005907D01*
X029808Y005908D02*
X029113Y005908D01*
X029112Y005909D02*
X029808Y005909D01*
X029809Y005910D02*
X029112Y005910D01*
X029111Y005911D02*
X029809Y005911D01*
X029810Y005912D02*
X029111Y005912D01*
X029110Y005913D02*
X029810Y005913D01*
X029811Y005914D02*
X029110Y005914D01*
X029109Y005915D02*
X029811Y005915D01*
X029811Y005916D02*
X029109Y005916D01*
X029108Y005917D02*
X029812Y005917D01*
X029812Y005918D02*
X029108Y005918D01*
X029108Y005919D02*
X029813Y005919D01*
X029813Y005920D02*
X029107Y005920D01*
X029107Y005921D02*
X029814Y005921D01*
X029814Y005922D02*
X029106Y005922D01*
X029106Y005923D02*
X029815Y005923D01*
X029815Y005924D02*
X029105Y005924D01*
X029105Y005925D02*
X029816Y005925D01*
X029816Y005926D02*
X029104Y005926D01*
X029104Y005927D02*
X029817Y005927D01*
X029817Y005928D02*
X029103Y005928D01*
X029103Y005929D02*
X029818Y005929D01*
X029818Y005930D02*
X029102Y005930D01*
X029102Y005931D02*
X029818Y005931D01*
X029819Y005932D02*
X029101Y005932D01*
X029101Y005933D02*
X029819Y005933D01*
X029820Y005934D02*
X029101Y005934D01*
X029100Y005935D02*
X029820Y005935D01*
X029821Y005936D02*
X029100Y005936D01*
X029099Y005937D02*
X029821Y005937D01*
X029822Y005938D02*
X029099Y005938D01*
X029098Y005939D02*
X029822Y005939D01*
X029823Y005940D02*
X029098Y005940D01*
X029097Y005941D02*
X029823Y005941D01*
X029824Y005942D02*
X029097Y005942D01*
X029096Y005943D02*
X029824Y005943D01*
X029825Y005944D02*
X029096Y005944D01*
X029095Y005945D02*
X029825Y005945D01*
X029825Y005946D02*
X029095Y005946D01*
X029094Y005947D02*
X029826Y005947D01*
X029826Y005948D02*
X029094Y005948D01*
X029094Y005949D02*
X029827Y005949D01*
X029827Y005950D02*
X029093Y005950D01*
X029093Y005951D02*
X029828Y005951D01*
X029828Y005952D02*
X029092Y005952D01*
X029092Y005953D02*
X029829Y005953D01*
X029829Y005954D02*
X029091Y005954D01*
X029091Y005955D02*
X029830Y005955D01*
X029830Y005956D02*
X029090Y005956D01*
X029090Y005957D02*
X029830Y005957D01*
X029831Y005958D02*
X029090Y005958D01*
X029089Y005959D02*
X029831Y005959D01*
X029831Y005960D02*
X029089Y005960D01*
X029089Y005961D02*
X029831Y005961D01*
X029832Y005962D02*
X029089Y005962D01*
X029088Y005963D02*
X029832Y005963D01*
X029832Y005964D02*
X029088Y005964D01*
X029088Y005965D02*
X029833Y005965D01*
X029833Y005966D02*
X029088Y005966D01*
X029087Y005967D02*
X029833Y005967D01*
X029833Y005968D02*
X029087Y005968D01*
X029087Y005969D02*
X029834Y005969D01*
X029834Y005970D02*
X029087Y005970D01*
X029086Y005971D02*
X029834Y005971D01*
X029834Y005972D02*
X029086Y005972D01*
X029086Y005973D02*
X029835Y005973D01*
X029835Y005974D02*
X029085Y005974D01*
X029085Y005975D02*
X029835Y005975D01*
X029835Y005976D02*
X029085Y005976D01*
X029085Y005977D02*
X029836Y005977D01*
X029836Y005978D02*
X029084Y005978D01*
X029084Y005979D02*
X029836Y005979D01*
X029837Y005980D02*
X029084Y005980D01*
X029084Y005981D02*
X029837Y005981D01*
X029837Y005982D02*
X029083Y005982D01*
X029083Y005983D02*
X029837Y005983D01*
X029838Y005984D02*
X029083Y005984D01*
X029083Y005985D02*
X029838Y005985D01*
X029838Y005986D02*
X029082Y005986D01*
X029082Y005987D02*
X029838Y005987D01*
X029839Y005988D02*
X029082Y005988D01*
X029081Y005989D02*
X029839Y005989D01*
X029839Y005990D02*
X029081Y005990D01*
X029081Y005991D02*
X029840Y005991D01*
X029840Y005992D02*
X029081Y005992D01*
X029080Y005993D02*
X029840Y005993D01*
X029840Y005994D02*
X029080Y005994D01*
X029080Y005995D02*
X029841Y005995D01*
X029841Y005996D02*
X029080Y005996D01*
X029079Y005997D02*
X029841Y005997D01*
X029841Y005998D02*
X029079Y005998D01*
X029079Y005999D02*
X029842Y005999D01*
X029842Y006000D02*
X029078Y006000D01*
X029078Y006001D02*
X029842Y006001D01*
X029842Y006002D02*
X029078Y006002D01*
X029078Y006003D02*
X029843Y006003D01*
X029843Y006004D02*
X029077Y006004D01*
X029077Y006005D02*
X029843Y006005D01*
X029844Y006006D02*
X029077Y006006D01*
X029077Y006007D02*
X029844Y006007D01*
X029844Y006008D02*
X029076Y006008D01*
X029076Y006009D02*
X029844Y006009D01*
X029845Y006010D02*
X029076Y006010D01*
X029076Y006011D02*
X029845Y006011D01*
X029845Y006012D02*
X029075Y006012D01*
X029075Y006013D02*
X029845Y006013D01*
X029846Y006014D02*
X029075Y006014D01*
X029074Y006015D02*
X029846Y006015D01*
X029846Y006016D02*
X029074Y006016D01*
X029074Y006017D02*
X029846Y006017D01*
X029847Y006018D02*
X029074Y006018D01*
X029073Y006019D02*
X029847Y006019D01*
X029847Y006020D02*
X029073Y006020D01*
X029073Y006021D02*
X029848Y006021D01*
X029848Y006022D02*
X029073Y006022D01*
X029072Y006023D02*
X029848Y006023D01*
X029848Y006024D02*
X029072Y006024D01*
X029072Y006025D02*
X029848Y006025D01*
X029848Y006026D02*
X029072Y006026D01*
X029072Y006027D02*
X029848Y006027D01*
X029848Y006028D02*
X029072Y006028D01*
X029072Y006029D02*
X029848Y006029D01*
X029849Y006030D02*
X029072Y006030D01*
X029072Y006031D02*
X029849Y006031D01*
X029849Y006032D02*
X029072Y006032D01*
X029072Y006033D02*
X029849Y006033D01*
X029849Y006034D02*
X029071Y006034D01*
X029071Y006035D02*
X029849Y006035D01*
X029849Y006036D02*
X029071Y006036D01*
X029071Y006037D02*
X029849Y006037D01*
X029849Y006038D02*
X029071Y006038D01*
X029071Y006039D02*
X029849Y006039D01*
X029849Y006040D02*
X029071Y006040D01*
X029071Y006041D02*
X029850Y006041D01*
X029850Y006042D02*
X029071Y006042D01*
X029071Y006043D02*
X029850Y006043D01*
X029850Y006044D02*
X029071Y006044D01*
X029071Y006045D02*
X029850Y006045D01*
X029850Y006046D02*
X029070Y006046D01*
X029070Y006047D02*
X029850Y006047D01*
X029850Y006048D02*
X029070Y006048D01*
X029070Y006049D02*
X029850Y006049D01*
X029850Y006050D02*
X029070Y006050D01*
X029070Y006051D02*
X029850Y006051D01*
X029851Y006052D02*
X029070Y006052D01*
X029070Y006053D02*
X029851Y006053D01*
X029851Y006054D02*
X029070Y006054D01*
X029070Y006055D02*
X029851Y006055D01*
X029851Y006056D02*
X029070Y006056D01*
X029069Y006057D02*
X029851Y006057D01*
X029851Y006058D02*
X029069Y006058D01*
X029069Y006059D02*
X029851Y006059D01*
X029851Y006060D02*
X029069Y006060D01*
X029069Y006061D02*
X029851Y006061D01*
X029851Y006062D02*
X029069Y006062D01*
X029069Y006063D02*
X029851Y006063D01*
X029852Y006064D02*
X029069Y006064D01*
X029069Y006065D02*
X029852Y006065D01*
X029852Y006066D02*
X029069Y006066D01*
X029069Y006067D02*
X029852Y006067D01*
X029852Y006068D02*
X029068Y006068D01*
X029068Y006069D02*
X029852Y006069D01*
X029852Y006070D02*
X029068Y006070D01*
X029068Y006071D02*
X029852Y006071D01*
X029852Y006072D02*
X029068Y006072D01*
X029068Y006073D02*
X029852Y006073D01*
X029852Y006074D02*
X029068Y006074D01*
X029068Y006075D02*
X029853Y006075D01*
X029853Y006076D02*
X029068Y006076D01*
X029068Y006077D02*
X029853Y006077D01*
X029853Y006078D02*
X029068Y006078D01*
X029068Y006079D02*
X029853Y006079D01*
X029853Y006080D02*
X029067Y006080D01*
X029067Y006081D02*
X029853Y006081D01*
X029853Y006082D02*
X029067Y006082D01*
X029067Y006083D02*
X029853Y006083D01*
X029853Y006084D02*
X029067Y006084D01*
X029067Y006085D02*
X029853Y006085D01*
X029853Y006086D02*
X029067Y006086D01*
X029067Y006087D02*
X029854Y006087D01*
X029854Y006088D02*
X029067Y006088D01*
X029067Y006089D02*
X029854Y006089D01*
X029854Y006090D02*
X029067Y006090D01*
X029066Y006091D02*
X029854Y006091D01*
X029854Y006092D02*
X029066Y006092D01*
X029066Y006093D02*
X029854Y006093D01*
X029854Y006094D02*
X029066Y006094D01*
X029066Y006095D02*
X029854Y006095D01*
X029854Y006096D02*
X029066Y006096D01*
X029066Y006097D02*
X029854Y006097D01*
X029854Y006098D02*
X029066Y006098D01*
X029066Y006099D02*
X029854Y006099D01*
X029854Y006100D02*
X029066Y006100D01*
X029066Y006101D02*
X029854Y006101D01*
X029854Y006102D02*
X029066Y006102D01*
X029066Y006103D02*
X029854Y006103D01*
X029854Y006104D02*
X029066Y006104D01*
X029066Y006105D02*
X029854Y006105D01*
X029854Y006106D02*
X029066Y006106D01*
X029066Y006107D02*
X029854Y006107D01*
X029854Y006108D02*
X029066Y006108D01*
X029066Y006109D02*
X029854Y006109D01*
X029854Y006110D02*
X029066Y006110D01*
X029066Y006111D02*
X029854Y006111D01*
X029854Y006112D02*
X029066Y006112D01*
X029066Y006113D02*
X029854Y006113D01*
X029854Y006114D02*
X029066Y006114D01*
X029066Y006115D02*
X029854Y006115D01*
X029854Y006116D02*
X029066Y006116D01*
X029066Y006117D02*
X029854Y006117D01*
X029854Y006118D02*
X029066Y006118D01*
X029066Y006119D02*
X029854Y006119D01*
X029854Y006120D02*
X029066Y006120D01*
X029066Y006121D02*
X029854Y006121D01*
X029854Y006122D02*
X029066Y006122D01*
X029066Y006123D02*
X029854Y006123D01*
X029854Y006124D02*
X029066Y006124D01*
X029066Y006125D02*
X029854Y006125D01*
X029854Y006126D02*
X029066Y006126D01*
X029066Y006127D02*
X029854Y006127D01*
X029854Y006128D02*
X029066Y006128D01*
X029066Y006129D02*
X029854Y006129D01*
X029854Y006130D02*
X029066Y006130D01*
X029066Y006131D02*
X029854Y006131D01*
X029854Y006132D02*
X029066Y006132D01*
X029066Y006133D02*
X029854Y006133D01*
X029854Y006134D02*
X029066Y006134D01*
X029066Y006135D02*
X029854Y006135D01*
X029854Y006136D02*
X029066Y006136D01*
X029066Y006137D02*
X029854Y006137D01*
X029854Y006138D02*
X029066Y006138D01*
X029066Y006139D02*
X029854Y006139D01*
X029854Y006140D02*
X029066Y006140D01*
X029066Y006141D02*
X029854Y006141D01*
X029854Y006142D02*
X029066Y006142D01*
X029066Y006143D02*
X029854Y006143D01*
X029854Y006144D02*
X029066Y006144D01*
X029066Y006145D02*
X029854Y006145D01*
X029854Y006146D02*
X029066Y006146D01*
X029066Y006147D02*
X029854Y006147D01*
X029854Y006148D02*
X029066Y006148D01*
X029066Y006149D02*
X029854Y006149D01*
X029854Y006150D02*
X029066Y006150D01*
X029066Y006151D02*
X029854Y006151D01*
X029854Y006152D02*
X029066Y006152D01*
X029066Y006153D02*
X029854Y006153D01*
X029854Y006154D02*
X029066Y006154D01*
X029066Y006155D02*
X029854Y006155D01*
X029854Y006156D02*
X029066Y006156D01*
X029066Y006157D02*
X029854Y006157D01*
X029854Y006158D02*
X029066Y006158D01*
X029066Y006159D02*
X029854Y006159D01*
X029854Y006160D02*
X029066Y006160D01*
X029066Y006161D02*
X029854Y006161D01*
X029854Y006162D02*
X029066Y006162D01*
X029066Y006163D02*
X029854Y006163D01*
X029854Y006164D02*
X029066Y006164D01*
X029066Y006165D02*
X029854Y006165D01*
X029854Y006166D02*
X029066Y006166D01*
X029066Y006167D02*
X029854Y006167D01*
X029854Y006168D02*
X029066Y006168D01*
X029066Y006169D02*
X029854Y006169D01*
X029854Y006170D02*
X029066Y006170D01*
X029066Y006171D02*
X029854Y006171D01*
X029854Y006172D02*
X029066Y006172D01*
X029066Y006173D02*
X029854Y006173D01*
X029854Y006174D02*
X029066Y006174D01*
X029066Y006175D02*
X029854Y006175D01*
X029854Y006176D02*
X029066Y006176D01*
X029066Y006177D02*
X029854Y006177D01*
X029854Y006178D02*
X029066Y006178D01*
X029066Y006179D02*
X029854Y006179D01*
X029854Y006180D02*
X029066Y006180D01*
X029066Y006181D02*
X029854Y006181D01*
X029854Y006182D02*
X029066Y006182D01*
X029066Y006183D02*
X029854Y006183D01*
X029854Y006184D02*
X029066Y006184D01*
X029066Y006185D02*
X029854Y006185D01*
X029854Y006186D02*
X029066Y006186D01*
X029066Y006187D02*
X029854Y006187D01*
X029854Y006188D02*
X029066Y006188D01*
X029066Y006189D02*
X029854Y006189D01*
X029854Y006190D02*
X029066Y006190D01*
X029066Y006191D02*
X029854Y006191D01*
X029854Y006192D02*
X029066Y006192D01*
X029066Y006193D02*
X029854Y006193D01*
X029854Y006194D02*
X029066Y006194D01*
X029066Y006195D02*
X029854Y006195D01*
X029854Y006196D02*
X029066Y006196D01*
X029066Y006197D02*
X029854Y006197D01*
X029854Y006198D02*
X029066Y006198D01*
X029066Y006199D02*
X029854Y006199D01*
X029854Y006200D02*
X029066Y006200D01*
X029066Y006201D02*
X029854Y006201D01*
X029854Y006202D02*
X029066Y006202D01*
X029066Y006203D02*
X029854Y006203D01*
X029854Y006204D02*
X029066Y006204D01*
X029066Y006205D02*
X029854Y006205D01*
X029854Y006206D02*
X029066Y006206D01*
X029066Y006207D02*
X029854Y006207D01*
X029854Y006208D02*
X029066Y006208D01*
X029066Y006209D02*
X029854Y006209D01*
X029854Y006210D02*
X029066Y006210D01*
X029066Y006211D02*
X029854Y006211D01*
X029854Y006212D02*
X029066Y006212D01*
X029066Y006213D02*
X029854Y006213D01*
X029854Y006214D02*
X029066Y006214D01*
X029066Y006215D02*
X029854Y006215D01*
X029854Y006216D02*
X029066Y006216D01*
X029066Y006217D02*
X029854Y006217D01*
X029854Y006218D02*
X029066Y006218D01*
X029066Y006219D02*
X029854Y006219D01*
X029854Y006220D02*
X029066Y006220D01*
X029066Y006221D02*
X029854Y006221D01*
X029854Y006222D02*
X029066Y006222D01*
X029066Y006223D02*
X029854Y006223D01*
X029854Y006224D02*
X029066Y006224D01*
X029066Y006225D02*
X029854Y006225D01*
X029854Y006226D02*
X029066Y006226D01*
X029066Y006227D02*
X029854Y006227D01*
X029854Y006228D02*
X029066Y006228D01*
X029066Y006229D02*
X029854Y006229D01*
X029854Y006230D02*
X029066Y006230D01*
X029066Y006231D02*
X029854Y006231D01*
X029854Y006232D02*
X029066Y006232D01*
X029066Y006233D02*
X029854Y006233D01*
X029854Y006234D02*
X029066Y006234D01*
X029066Y006235D02*
X029854Y006235D01*
X029854Y006236D02*
X029066Y006236D01*
X029066Y006237D02*
X029854Y006237D01*
X029854Y006238D02*
X029066Y006238D01*
X029066Y006239D02*
X029854Y006239D01*
X029854Y006240D02*
X029066Y006240D01*
X029066Y006241D02*
X029854Y006241D01*
X029854Y006242D02*
X029066Y006242D01*
X029066Y006243D02*
X029854Y006243D01*
X029854Y006244D02*
X029066Y006244D01*
X029066Y006245D02*
X029854Y006245D01*
X029854Y006246D02*
X029066Y006246D01*
X029066Y006247D02*
X029854Y006247D01*
X029854Y006248D02*
X029066Y006248D01*
X029066Y006249D02*
X029854Y006249D01*
X029854Y006250D02*
X029066Y006250D01*
X029066Y006251D02*
X029854Y006251D01*
X029854Y006252D02*
X029066Y006252D01*
X029066Y006253D02*
X029854Y006253D01*
X029854Y006254D02*
X029066Y006254D01*
X029066Y006255D02*
X029854Y006255D01*
X029854Y006256D02*
X029066Y006256D01*
X029066Y006257D02*
X029854Y006257D01*
X029854Y006258D02*
X029066Y006258D01*
X029066Y006259D02*
X029854Y006259D01*
X029854Y006260D02*
X029066Y006260D01*
X029066Y006261D02*
X029854Y006261D01*
X029854Y006262D02*
X029066Y006262D01*
X029066Y006263D02*
X029854Y006263D01*
X029854Y006264D02*
X029066Y006264D01*
X029066Y006265D02*
X029854Y006265D01*
X029854Y006266D02*
X029066Y006266D01*
X029066Y006267D02*
X029854Y006267D01*
X029854Y006268D02*
X029066Y006268D01*
X029066Y006269D02*
X029854Y006269D01*
X029854Y006270D02*
X029066Y006270D01*
X029066Y006271D02*
X029854Y006271D01*
X029854Y006272D02*
X029066Y006272D01*
X029066Y006273D02*
X029854Y006273D01*
X029854Y006274D02*
X029066Y006274D01*
X029066Y006275D02*
X029854Y006275D01*
X029854Y006276D02*
X029066Y006276D01*
X029066Y006277D02*
X029854Y006277D01*
X029854Y006278D02*
X029066Y006278D01*
X029066Y006279D02*
X029854Y006279D01*
X029854Y006280D02*
X029066Y006280D01*
X029066Y006281D02*
X029854Y006281D01*
X029854Y006282D02*
X029066Y006282D01*
X029066Y006283D02*
X029854Y006283D01*
X029854Y006284D02*
X029066Y006284D01*
X029066Y006285D02*
X029854Y006285D01*
X029854Y006286D02*
X029066Y006286D01*
X029066Y006287D02*
X029854Y006287D01*
X029854Y006288D02*
X029066Y006288D01*
X029066Y006289D02*
X029854Y006289D01*
X029854Y006290D02*
X029066Y006290D01*
X029066Y006291D02*
X029854Y006291D01*
X029854Y006292D02*
X029066Y006292D01*
X029066Y006293D02*
X029854Y006293D01*
X029854Y006294D02*
X029066Y006294D01*
X029066Y006295D02*
X029854Y006295D01*
X029854Y006296D02*
X029066Y006296D01*
X029066Y006297D02*
X029854Y006297D01*
X029854Y006298D02*
X029066Y006298D01*
X029066Y006299D02*
X029854Y006299D01*
X029854Y006300D02*
X029066Y006300D01*
X029066Y006301D02*
X029854Y006301D01*
X029854Y006302D02*
X029066Y006302D01*
X029066Y006303D02*
X029854Y006303D01*
X029854Y006304D02*
X029066Y006304D01*
X029066Y006305D02*
X029854Y006305D01*
X029854Y006306D02*
X029066Y006306D01*
X029066Y006307D02*
X029854Y006307D01*
X029854Y006308D02*
X029066Y006308D01*
X029066Y006309D02*
X029854Y006309D01*
X029854Y006310D02*
X029066Y006310D01*
X029066Y006311D02*
X029854Y006311D01*
X029854Y006312D02*
X029066Y006312D01*
X029066Y006313D02*
X029854Y006313D01*
X029854Y006314D02*
X029066Y006314D01*
X029066Y006315D02*
X029854Y006315D01*
X029854Y006316D02*
X029066Y006316D01*
X029066Y006317D02*
X029854Y006317D01*
X029854Y006318D02*
X029066Y006318D01*
X029066Y006319D02*
X029854Y006319D01*
X029854Y006320D02*
X029066Y006320D01*
X029066Y006321D02*
X029854Y006321D01*
X029854Y006322D02*
X029066Y006322D01*
X029066Y006323D02*
X029854Y006323D01*
X029854Y006324D02*
X029066Y006324D01*
X029066Y006325D02*
X029854Y006325D01*
X029854Y006326D02*
X029066Y006326D01*
X029066Y006327D02*
X029854Y006327D01*
X029854Y006328D02*
X029066Y006328D01*
X029066Y006329D02*
X029854Y006329D01*
X029854Y006330D02*
X029066Y006330D01*
X029066Y006331D02*
X029854Y006331D01*
X029854Y006332D02*
X029066Y006332D01*
X029066Y006333D02*
X029854Y006333D01*
X029854Y006334D02*
X029066Y006334D01*
X029066Y006335D02*
X029854Y006335D01*
X029854Y006336D02*
X029066Y006336D01*
X029066Y006337D02*
X029854Y006337D01*
X029854Y006338D02*
X029066Y006338D01*
X029066Y006339D02*
X029854Y006339D01*
X029854Y006340D02*
X029066Y006340D01*
X029066Y006341D02*
X029854Y006341D01*
X029854Y006342D02*
X029066Y006342D01*
X029066Y006343D02*
X029854Y006343D01*
X029854Y006344D02*
X029066Y006344D01*
X029066Y006345D02*
X029854Y006345D01*
X029854Y006346D02*
X029066Y006346D01*
X029066Y006347D02*
X029854Y006347D01*
X029854Y006348D02*
X029066Y006348D01*
X029066Y006349D02*
X029854Y006349D01*
X029854Y006350D02*
X029066Y006350D01*
X029066Y006351D02*
X029854Y006351D01*
X029854Y006352D02*
X029066Y006352D01*
X029066Y006353D02*
X029854Y006353D01*
X029854Y006354D02*
X029066Y006354D01*
X029066Y006355D02*
X029854Y006355D01*
X029854Y006356D02*
X029066Y006356D01*
X029066Y006357D02*
X029854Y006357D01*
X029854Y006358D02*
X029066Y006358D01*
X029066Y006359D02*
X029854Y006359D01*
X029854Y006360D02*
X029066Y006360D01*
X029066Y006361D02*
X029854Y006361D01*
X029854Y006362D02*
X029066Y006362D01*
X029066Y006363D02*
X029854Y006363D01*
X029854Y006364D02*
X029066Y006364D01*
X029066Y006365D02*
X029854Y006365D01*
X029854Y006366D02*
X029066Y006366D01*
X029066Y006367D02*
X029854Y006367D01*
X029854Y006368D02*
X029066Y006368D01*
X029066Y006369D02*
X029854Y006369D01*
X029854Y006370D02*
X029066Y006370D01*
X029066Y006371D02*
X029854Y006371D01*
X029854Y006372D02*
X029066Y006372D01*
X029066Y006373D02*
X029854Y006373D01*
X029854Y006374D02*
X029066Y006374D01*
X029066Y006375D02*
X029854Y006375D01*
X029854Y006376D02*
X029066Y006376D01*
X029066Y006377D02*
X029854Y006377D01*
X029854Y006378D02*
X029066Y006378D01*
X029066Y006379D02*
X029854Y006379D01*
X029854Y006380D02*
X029066Y006380D01*
X029066Y006381D02*
X029854Y006381D01*
X029854Y006382D02*
X029066Y006382D01*
X029066Y006383D02*
X029854Y006383D01*
X029854Y006384D02*
X029066Y006384D01*
X029066Y006385D02*
X029854Y006385D01*
X029854Y006386D02*
X029066Y006386D01*
X029066Y006387D02*
X029854Y006387D01*
X029854Y006388D02*
X029066Y006388D01*
X029066Y006389D02*
X029854Y006389D01*
X029854Y006390D02*
X029066Y006390D01*
X029066Y006391D02*
X029854Y006391D01*
X029854Y006392D02*
X029066Y006392D01*
X029066Y006393D02*
X029854Y006393D01*
X029854Y006394D02*
X029066Y006394D01*
X029066Y006395D02*
X029854Y006395D01*
X029854Y006396D02*
X029066Y006396D01*
X029066Y006397D02*
X029854Y006397D01*
X029854Y006398D02*
X029066Y006398D01*
X029066Y006399D02*
X029854Y006399D01*
X029854Y006400D02*
X029066Y006400D01*
X029066Y006401D02*
X029854Y006401D01*
X029854Y006402D02*
X029066Y006402D01*
X029066Y006403D02*
X029854Y006403D01*
X029854Y006404D02*
X029066Y006404D01*
X029066Y006405D02*
X029854Y006405D01*
X029854Y006406D02*
X029066Y006406D01*
X029066Y006407D02*
X029854Y006407D01*
X029854Y006408D02*
X029066Y006408D01*
X029066Y006409D02*
X029854Y006409D01*
X029854Y006410D02*
X029066Y006410D01*
X029066Y006411D02*
X029854Y006411D01*
X029854Y006412D02*
X029066Y006412D01*
X029066Y006413D02*
X029854Y006413D01*
X029854Y006414D02*
X029066Y006414D01*
X029066Y006415D02*
X029854Y006415D01*
X029854Y006416D02*
X029066Y006416D01*
X029066Y006417D02*
X029854Y006417D01*
X029854Y006418D02*
X029066Y006418D01*
X029066Y006419D02*
X029854Y006419D01*
X029854Y006420D02*
X029066Y006420D01*
X029066Y006421D02*
X029854Y006421D01*
X029854Y006422D02*
X029066Y006422D01*
X029066Y006423D02*
X029854Y006423D01*
X029854Y006424D02*
X029066Y006424D01*
X029066Y006425D02*
X029854Y006425D01*
X029854Y006426D02*
X029066Y006426D01*
X029066Y006427D02*
X029854Y006427D01*
X029854Y006428D02*
X029066Y006428D01*
X029066Y006429D02*
X029854Y006429D01*
X029854Y006430D02*
X029066Y006430D01*
X029066Y006431D02*
X029854Y006431D01*
X029854Y006432D02*
X029066Y006432D01*
X029066Y006433D02*
X029854Y006433D01*
X029854Y006434D02*
X029066Y006434D01*
X029066Y006435D02*
X029854Y006435D01*
X029854Y006436D02*
X029066Y006436D01*
X029066Y006437D02*
X029854Y006437D01*
X029854Y006438D02*
X029066Y006438D01*
X029066Y006439D02*
X029854Y006439D01*
X029854Y006440D02*
X029066Y006440D01*
X029066Y006441D02*
X029854Y006441D01*
X029854Y006442D02*
X029066Y006442D01*
X029066Y006443D02*
X029854Y006443D01*
X029854Y006444D02*
X029066Y006444D01*
X029066Y006445D02*
X029854Y006445D01*
X029854Y006446D02*
X029066Y006446D01*
X029066Y006447D02*
X029854Y006447D01*
X029854Y006448D02*
X029066Y006448D01*
X029066Y006449D02*
X029854Y006449D01*
X029854Y006450D02*
X029066Y006450D01*
X029066Y006451D02*
X029854Y006451D01*
X029854Y006452D02*
X029066Y006452D01*
X029066Y006453D02*
X029854Y006453D01*
X029854Y006454D02*
X029066Y006454D01*
X029066Y006455D02*
X029854Y006455D01*
X029854Y006456D02*
X029066Y006456D01*
X029066Y006457D02*
X029854Y006457D01*
X029854Y006458D02*
X029066Y006458D01*
X029066Y006459D02*
X029854Y006459D01*
X029854Y006460D02*
X029066Y006460D01*
X029066Y006461D02*
X029854Y006461D01*
X029854Y006462D02*
X029066Y006462D01*
X029066Y006463D02*
X029854Y006463D01*
X029854Y006464D02*
X029066Y006464D01*
X029066Y006465D02*
X029854Y006465D01*
X029854Y006466D02*
X029066Y006466D01*
X029066Y006467D02*
X029854Y006467D01*
X029854Y006468D02*
X029066Y006468D01*
X029066Y006469D02*
X029854Y006469D01*
X029854Y006470D02*
X029066Y006470D01*
X029066Y006471D02*
X029854Y006471D01*
X029854Y006472D02*
X029066Y006472D01*
X029066Y006473D02*
X029854Y006473D01*
X029854Y006474D02*
X029066Y006474D01*
X029066Y006475D02*
X029854Y006475D01*
X029854Y006476D02*
X029066Y006476D01*
X029066Y006477D02*
X029854Y006477D01*
X029854Y006478D02*
X029066Y006478D01*
X029066Y006479D02*
X029854Y006479D01*
X029854Y006480D02*
X029066Y006480D01*
X029066Y006481D02*
X029854Y006481D01*
X029854Y006482D02*
X029066Y006482D01*
X029066Y006483D02*
X029854Y006483D01*
X029854Y006484D02*
X029066Y006484D01*
X029066Y006485D02*
X029854Y006485D01*
X029854Y006486D02*
X029066Y006486D01*
X029066Y006487D02*
X029854Y006487D01*
X029854Y006488D02*
X029066Y006488D01*
X029066Y006489D02*
X029854Y006489D01*
X029854Y006490D02*
X029066Y006490D01*
X029066Y006491D02*
X029854Y006491D01*
X029854Y006492D02*
X029066Y006492D01*
X029066Y006493D02*
X029854Y006493D01*
X029854Y006494D02*
X029066Y006494D01*
X029066Y006495D02*
X029854Y006495D01*
X029854Y006496D02*
X029066Y006496D01*
X029066Y006497D02*
X029854Y006497D01*
X029854Y006498D02*
X029066Y006498D01*
X029066Y006499D02*
X029854Y006499D01*
X029854Y006500D02*
X029066Y006500D01*
X029066Y006501D02*
X029854Y006501D01*
X029854Y006502D02*
X029066Y006502D01*
X029066Y006503D02*
X029854Y006503D01*
X029854Y006504D02*
X029066Y006504D01*
X029066Y006505D02*
X029854Y006505D01*
X029854Y006506D02*
X029066Y006506D01*
X029066Y006507D02*
X029854Y006507D01*
X029854Y006508D02*
X029066Y006508D01*
X029066Y006509D02*
X029854Y006509D01*
X029854Y006510D02*
X029066Y006510D01*
X029066Y006511D02*
X029854Y006511D01*
X029854Y006512D02*
X029066Y006512D01*
X029066Y006513D02*
X029854Y006513D01*
X029854Y006514D02*
X029066Y006514D01*
X029066Y006515D02*
X029854Y006515D01*
X029854Y006516D02*
X029066Y006516D01*
X029066Y006517D02*
X029854Y006517D01*
X029854Y006518D02*
X029066Y006518D01*
X029066Y006519D02*
X029854Y006519D01*
X029854Y006520D02*
X029066Y006520D01*
X029066Y006521D02*
X029854Y006521D01*
X029854Y006522D02*
X029066Y006522D01*
X029066Y006523D02*
X029854Y006523D01*
X029854Y006524D02*
X029066Y006524D01*
X029066Y006525D02*
X029854Y006525D01*
X029854Y006526D02*
X029066Y006526D01*
X029066Y006527D02*
X029854Y006527D01*
X029854Y006528D02*
X029066Y006528D01*
X029066Y006529D02*
X029854Y006529D01*
X029854Y006530D02*
X029066Y006530D01*
X029066Y006531D02*
X029854Y006531D01*
X029854Y006532D02*
X029066Y006532D01*
X029066Y006533D02*
X029854Y006533D01*
X029854Y006534D02*
X029066Y006534D01*
X029066Y006535D02*
X029854Y006535D01*
X029854Y006536D02*
X029066Y006536D01*
X029066Y006537D02*
X029854Y006537D01*
X029854Y006538D02*
X029066Y006538D01*
X029066Y006539D02*
X029854Y006539D01*
X029854Y006540D02*
X029066Y006540D01*
X029066Y006541D02*
X029854Y006541D01*
X029854Y006542D02*
X029066Y006542D01*
X029066Y006543D02*
X029854Y006543D01*
X029854Y006544D02*
X029066Y006544D01*
X029066Y006545D02*
X029854Y006545D01*
X029854Y006546D02*
X029066Y006546D01*
X029066Y006547D02*
X029854Y006547D01*
X029854Y006548D02*
X029066Y006548D01*
X029066Y006549D02*
X029854Y006549D01*
X029854Y006550D02*
X029066Y006550D01*
X029066Y006551D02*
X029854Y006551D01*
X029854Y006552D02*
X029066Y006552D01*
X029066Y006553D02*
X029854Y006553D01*
X029854Y006554D02*
X029066Y006554D01*
X029066Y006555D02*
X029854Y006555D01*
X029854Y006556D02*
X029066Y006556D01*
X029066Y006557D02*
X029854Y006557D01*
X029854Y006558D02*
X029066Y006558D01*
X029066Y006559D02*
X029854Y006559D01*
X029854Y006560D02*
X029066Y006560D01*
X029066Y006561D02*
X029854Y006561D01*
X029854Y006562D02*
X029066Y006562D01*
X029066Y006563D02*
X029854Y006563D01*
X029854Y006564D02*
X029066Y006564D01*
X029066Y006565D02*
X029854Y006565D01*
X029854Y006566D02*
X029066Y006566D01*
X029066Y006567D02*
X029854Y006567D01*
X029854Y006568D02*
X029066Y006568D01*
X029066Y006569D02*
X029854Y006569D01*
X029854Y006570D02*
X029066Y006570D01*
X029066Y006571D02*
X029854Y006571D01*
X029854Y006572D02*
X029066Y006572D01*
X029066Y006573D02*
X029854Y006573D01*
X029854Y006574D02*
X029066Y006574D01*
X029066Y006575D02*
X029854Y006575D01*
X029854Y006576D02*
X029066Y006576D01*
X029066Y006577D02*
X029854Y006577D01*
X029854Y006578D02*
X029066Y006578D01*
X029066Y006579D02*
X029854Y006579D01*
X029854Y006580D02*
X029066Y006580D01*
X029066Y006581D02*
X029854Y006581D01*
X029854Y006582D02*
X029066Y006582D01*
X029066Y006583D02*
X029854Y006583D01*
X029854Y006584D02*
X029066Y006584D01*
X029066Y006585D02*
X029854Y006585D01*
X029854Y006586D02*
X029066Y006586D01*
X029066Y006587D02*
X029854Y006587D01*
X029854Y006588D02*
X029066Y006588D01*
X029066Y006589D02*
X029854Y006589D01*
X029854Y006590D02*
X029066Y006590D01*
X029066Y006591D02*
X029854Y006591D01*
X029854Y006592D02*
X029066Y006592D01*
X029066Y006593D02*
X029854Y006593D01*
X029854Y006594D02*
X029066Y006594D01*
X029066Y006595D02*
X029854Y006595D01*
X029854Y006596D02*
X029066Y006596D01*
X029066Y006597D02*
X029854Y006597D01*
X029854Y006598D02*
X029066Y006598D01*
X029066Y006599D02*
X029854Y006599D01*
X029854Y006600D02*
X029066Y006600D01*
X029066Y006601D02*
X029854Y006601D01*
X029854Y006602D02*
X029066Y006602D01*
X029066Y006603D02*
X029854Y006603D01*
X029854Y006604D02*
X029066Y006604D01*
X029066Y006605D02*
X029854Y006605D01*
X029854Y006606D02*
X029066Y006606D01*
X029066Y006607D02*
X029854Y006607D01*
X029854Y006608D02*
X029066Y006608D01*
X029066Y006609D02*
X029854Y006609D01*
X029854Y006610D02*
X029066Y006610D01*
X029066Y006611D02*
X029854Y006611D01*
X029854Y006612D02*
X029066Y006612D01*
X029066Y006613D02*
X029854Y006613D01*
X029854Y006614D02*
X029066Y006614D01*
X029066Y006615D02*
X029854Y006615D01*
X029854Y006616D02*
X029066Y006616D01*
X029066Y006617D02*
X029854Y006617D01*
X029854Y006618D02*
X029066Y006618D01*
X029066Y006619D02*
X029854Y006619D01*
X029854Y006620D02*
X029066Y006620D01*
X029066Y006621D02*
X029854Y006621D01*
X029854Y006622D02*
X029066Y006622D01*
X029066Y006623D02*
X029854Y006623D01*
X029854Y006624D02*
X029066Y006624D01*
X029066Y006625D02*
X029854Y006625D01*
X029854Y006626D02*
X029066Y006626D01*
X029066Y006627D02*
X029854Y006627D01*
X029854Y006628D02*
X029066Y006628D01*
X029066Y006629D02*
X029854Y006629D01*
X029854Y006630D02*
X029066Y006630D01*
X029066Y006631D02*
X029854Y006631D01*
X029854Y006632D02*
X029066Y006632D01*
X029066Y006633D02*
X029854Y006633D01*
X029854Y006634D02*
X029066Y006634D01*
X029066Y006635D02*
X029854Y006635D01*
X029854Y006636D02*
X029066Y006636D01*
X029066Y006637D02*
X029854Y006637D01*
X029854Y006638D02*
X029066Y006638D01*
X029066Y006639D02*
X029854Y006639D01*
X029854Y006640D02*
X029066Y006640D01*
X029066Y006641D02*
X029854Y006641D01*
X029854Y006642D02*
X029066Y006642D01*
X029066Y006643D02*
X029854Y006643D01*
X029854Y006644D02*
X029066Y006644D01*
X029066Y006645D02*
X029854Y006645D01*
X029854Y006646D02*
X029066Y006646D01*
X029066Y006647D02*
X029854Y006647D01*
X029854Y006648D02*
X029066Y006648D01*
X029066Y006649D02*
X029854Y006649D01*
X029854Y006650D02*
X029066Y006650D01*
X029066Y006651D02*
X029854Y006651D01*
X029854Y006652D02*
X029066Y006652D01*
X029066Y006653D02*
X029854Y006653D01*
X029854Y006654D02*
X029066Y006654D01*
X029066Y006655D02*
X029854Y006655D01*
X029854Y006656D02*
X029066Y006656D01*
X029066Y006657D02*
X029854Y006657D01*
X029854Y006658D02*
X029066Y006658D01*
X029066Y006659D02*
X029854Y006659D01*
X029854Y006660D02*
X029066Y006660D01*
X029066Y006661D02*
X029854Y006661D01*
X029854Y006662D02*
X029066Y006662D01*
X029066Y006663D02*
X029854Y006663D01*
X029854Y006664D02*
X029066Y006664D01*
X029066Y006665D02*
X029854Y006665D01*
X029854Y006666D02*
X029066Y006666D01*
X029066Y006667D02*
X029854Y006667D01*
X029854Y006668D02*
X029066Y006668D01*
X029066Y006669D02*
X029854Y006669D01*
X029854Y006670D02*
X029066Y006670D01*
X029066Y006671D02*
X029854Y006671D01*
X029854Y006672D02*
X029066Y006672D01*
X029066Y006673D02*
X029854Y006673D01*
X029854Y006674D02*
X029066Y006674D01*
X029066Y006675D02*
X029854Y006675D01*
X029854Y006676D02*
X029066Y006676D01*
X029066Y006677D02*
X029854Y006677D01*
X029854Y006678D02*
X029066Y006678D01*
X029066Y006679D02*
X029854Y006679D01*
X029854Y006680D02*
X029066Y006680D01*
X029066Y006681D02*
X029854Y006681D01*
X029854Y006682D02*
X029066Y006682D01*
X029066Y006683D02*
X029854Y006683D01*
X029854Y006684D02*
X029066Y006684D01*
X029066Y006685D02*
X029854Y006685D01*
X029854Y006686D02*
X029066Y006686D01*
X029066Y006687D02*
X029854Y006687D01*
X029854Y006688D02*
X029066Y006688D01*
X029066Y006689D02*
X029854Y006689D01*
X029854Y006690D02*
X029066Y006690D01*
X029066Y006691D02*
X029854Y006691D01*
X029854Y006692D02*
X029066Y006692D01*
X029066Y006693D02*
X029854Y006693D01*
X029854Y006694D02*
X029066Y006694D01*
X029066Y006695D02*
X029854Y006695D01*
X029854Y006696D02*
X029066Y006696D01*
X029066Y006697D02*
X029854Y006697D01*
X029854Y006698D02*
X029066Y006698D01*
X029066Y006699D02*
X029854Y006699D01*
X029854Y006700D02*
X029066Y006700D01*
X029066Y006701D02*
X029854Y006701D01*
X029854Y006702D02*
X029066Y006702D01*
X029066Y006703D02*
X029854Y006703D01*
X029854Y006704D02*
X029066Y006704D01*
X029066Y006705D02*
X029854Y006705D01*
X029854Y006706D02*
X029066Y006706D01*
X029066Y006707D02*
X029854Y006707D01*
X029854Y006708D02*
X029066Y006708D01*
X029066Y006709D02*
X029854Y006709D01*
X029854Y006710D02*
X029066Y006710D01*
X029066Y006711D02*
X029854Y006711D01*
X029854Y006712D02*
X029066Y006712D01*
X029066Y006713D02*
X029854Y006713D01*
X029854Y006714D02*
X029066Y006714D01*
X029066Y006715D02*
X029854Y006715D01*
X029854Y006716D02*
X029066Y006716D01*
X029066Y006717D02*
X029854Y006717D01*
X029854Y006718D02*
X029066Y006718D01*
X029066Y006719D02*
X029854Y006719D01*
X029854Y006720D02*
X029066Y006720D01*
X029066Y006721D02*
X029854Y006721D01*
X029854Y006722D02*
X029066Y006722D01*
X029066Y006723D02*
X029854Y006723D01*
X029854Y006724D02*
X029066Y006724D01*
X029066Y006725D02*
X029854Y006725D01*
X029854Y006726D02*
X029066Y006726D01*
X029066Y006727D02*
X029854Y006727D01*
X029854Y006728D02*
X029066Y006728D01*
X029066Y006729D02*
X029854Y006729D01*
X029854Y006730D02*
X029066Y006730D01*
X029066Y006731D02*
X029854Y006731D01*
X029854Y006732D02*
X029066Y006732D01*
X029066Y006733D02*
X029854Y006733D01*
X029854Y006734D02*
X029066Y006734D01*
X029066Y006735D02*
X029854Y006735D01*
X029854Y006736D02*
X029066Y006736D01*
X029066Y006737D02*
X029854Y006737D01*
X029854Y006738D02*
X029066Y006738D01*
X029066Y006739D02*
X029854Y006739D01*
X029854Y006740D02*
X029066Y006740D01*
X029066Y006741D02*
X029854Y006741D01*
X029854Y006742D02*
X029066Y006742D01*
X029066Y006743D02*
X029854Y006743D01*
X029854Y006744D02*
X029066Y006744D01*
X029066Y006745D02*
X029854Y006745D01*
X029854Y006746D02*
X029066Y006746D01*
X029066Y006747D02*
X029854Y006747D01*
X029854Y006748D02*
X029066Y006748D01*
X029066Y006749D02*
X029854Y006749D01*
X029854Y006750D02*
X029066Y006750D01*
X029066Y006751D02*
X029854Y006751D01*
X029854Y006752D02*
X029066Y006752D01*
X029066Y006753D02*
X029854Y006753D01*
X029854Y006754D02*
X029066Y006754D01*
X029066Y006755D02*
X029854Y006755D01*
X029854Y006756D02*
X029066Y006756D01*
X029066Y006757D02*
X029854Y006757D01*
X029854Y006758D02*
X029066Y006758D01*
X029066Y006759D02*
X029854Y006759D01*
X029854Y006760D02*
X029066Y006760D01*
X029066Y006761D02*
X029854Y006761D01*
X029854Y006762D02*
X029066Y006762D01*
X029066Y006763D02*
X029854Y006763D01*
X029854Y006764D02*
X029066Y006764D01*
X029066Y006765D02*
X029854Y006765D01*
X029854Y006766D02*
X029066Y006766D01*
X029066Y006767D02*
X029854Y006767D01*
X029854Y006768D02*
X029066Y006768D01*
X029066Y006769D02*
X029854Y006769D01*
X029854Y006770D02*
X029066Y006770D01*
X029066Y006771D02*
X029854Y006771D01*
X029854Y006772D02*
X029066Y006772D01*
X029066Y006773D02*
X029854Y006773D01*
X029854Y006774D02*
X029066Y006774D01*
X029066Y006775D02*
X029854Y006775D01*
X029854Y006776D02*
X029066Y006776D01*
X029066Y006777D02*
X029854Y006777D01*
X029854Y006778D02*
X029066Y006778D01*
X029066Y006779D02*
X029854Y006779D01*
X029854Y006780D02*
X029066Y006780D01*
X029066Y006781D02*
X029854Y006781D01*
X029854Y006782D02*
X029066Y006782D01*
X029066Y006783D02*
X029854Y006783D01*
X029854Y006784D02*
X029066Y006784D01*
X029066Y006785D02*
X029854Y006785D01*
X029854Y006786D02*
X029066Y006786D01*
X029066Y006787D02*
X029854Y006787D01*
X029854Y006788D02*
X029066Y006788D01*
X029066Y006789D02*
X029854Y006789D01*
X029854Y006790D02*
X029066Y006790D01*
X029066Y006791D02*
X029854Y006791D01*
X029854Y006792D02*
X029066Y006792D01*
X029066Y006793D02*
X029854Y006793D01*
X029854Y006794D02*
X029066Y006794D01*
X029066Y006795D02*
X029854Y006795D01*
X029854Y006796D02*
X029066Y006796D01*
X029066Y006797D02*
X029854Y006797D01*
X029854Y006798D02*
X029066Y006798D01*
X029066Y006799D02*
X029854Y006799D01*
X029854Y006800D02*
X029066Y006800D01*
X029066Y006801D02*
X029854Y006801D01*
X029854Y006802D02*
X029066Y006802D01*
X029066Y006803D02*
X029854Y006803D01*
X029854Y006804D02*
X029066Y006804D01*
X029066Y006805D02*
X029854Y006805D01*
X029854Y006806D02*
X029066Y006806D01*
X029066Y006807D02*
X029854Y006807D01*
X029854Y006808D02*
X029066Y006808D01*
X029066Y006809D02*
X029854Y006809D01*
X029854Y006810D02*
X029066Y006810D01*
X029066Y006811D02*
X029854Y006811D01*
X029854Y006812D02*
X029066Y006812D01*
X029066Y006813D02*
X029854Y006813D01*
X029854Y006814D02*
X029066Y006814D01*
X029066Y006815D02*
X029854Y006815D01*
X029854Y006816D02*
X029066Y006816D01*
X029066Y006817D02*
X029854Y006817D01*
X029854Y006818D02*
X029066Y006818D01*
X029066Y006819D02*
X029854Y006819D01*
X029854Y006820D02*
X029066Y006820D01*
X029066Y006821D02*
X029854Y006821D01*
X029854Y006822D02*
X029066Y006822D01*
X029066Y006823D02*
X029854Y006823D01*
X029854Y006824D02*
X029066Y006824D01*
X029066Y006825D02*
X029854Y006825D01*
X029854Y006826D02*
X029066Y006826D01*
X029066Y006827D02*
X029854Y006827D01*
X029854Y006828D02*
X029066Y006828D01*
X029066Y006829D02*
X029854Y006829D01*
X029854Y006830D02*
X029066Y006830D01*
X029066Y006831D02*
X029854Y006831D01*
X029854Y006832D02*
X029066Y006832D01*
X029066Y006833D02*
X029854Y006833D01*
X029066Y006833D01*
X029066Y006834D02*
X029854Y006834D01*
X029854Y006835D02*
X029066Y006835D01*
X029066Y006836D02*
X029854Y006836D01*
X029854Y006837D02*
X029066Y006837D01*
X029066Y006838D02*
X029854Y006838D01*
X029854Y006839D02*
X029066Y006839D01*
X029066Y006840D02*
X029854Y006840D01*
X029854Y006841D02*
X029066Y006841D01*
X029066Y006842D02*
X029854Y006842D01*
X029854Y006843D02*
X029066Y006843D01*
X029066Y006844D02*
X029854Y006844D01*
X029854Y006845D02*
X029066Y006845D01*
X029066Y006846D02*
X029854Y006846D01*
X029854Y006847D02*
X029066Y006847D01*
X029066Y006848D02*
X029854Y006848D01*
X029854Y006849D02*
X029066Y006849D01*
X029066Y006850D02*
X029854Y006850D01*
X029854Y006851D02*
X029066Y006851D01*
X029066Y006852D02*
X029854Y006852D01*
X029854Y006853D02*
X029066Y006853D01*
X029066Y006854D02*
X029854Y006854D01*
X029854Y006855D02*
X029066Y006855D01*
X029066Y006856D02*
X029854Y006856D01*
X029854Y006857D02*
X029066Y006857D01*
X029066Y006858D02*
X029854Y006858D01*
X029854Y006859D02*
X029066Y006859D01*
X029066Y006860D02*
X029854Y006860D01*
X029854Y006861D02*
X029066Y006861D01*
X029066Y006862D02*
X029854Y006862D01*
X029854Y006863D02*
X029066Y006863D01*
X029066Y006864D02*
X029854Y006864D01*
X029854Y006865D02*
X029066Y006865D01*
X029066Y006866D02*
X029854Y006866D01*
X029854Y006867D02*
X029066Y006867D01*
X029066Y006868D02*
X029854Y006868D01*
X029854Y006869D02*
X029066Y006869D01*
X029066Y006870D02*
X029854Y006870D01*
X029854Y006871D02*
X029066Y006871D01*
X029066Y006872D02*
X029854Y006872D01*
X029854Y006873D02*
X029066Y006873D01*
X029066Y006874D02*
X029854Y006874D01*
X029854Y006875D02*
X029066Y006875D01*
X029066Y006876D02*
X029854Y006876D01*
X029854Y006877D02*
X029066Y006877D01*
X029066Y006878D02*
X029854Y006878D01*
X029854Y006879D02*
X029066Y006879D01*
X029066Y006880D02*
X029854Y006880D01*
X029854Y006881D02*
X029066Y006881D01*
X029066Y006882D02*
X029854Y006882D01*
X029854Y006883D02*
X029066Y006883D01*
X029066Y006884D02*
X029854Y006884D01*
X029854Y006885D02*
X029066Y006885D01*
X029066Y006886D02*
X029854Y006886D01*
X029854Y006887D02*
X029066Y006887D01*
X029066Y006888D02*
X029854Y006888D01*
X029854Y006889D02*
X029066Y006889D01*
X029066Y006890D02*
X029854Y006890D01*
X029854Y006891D02*
X029066Y006891D01*
X029066Y006892D02*
X029854Y006892D01*
X029854Y006893D02*
X029066Y006893D01*
X029066Y006894D02*
X029854Y006894D01*
X029854Y006895D02*
X029066Y006895D01*
X029066Y006896D02*
X029854Y006896D01*
X029854Y006897D02*
X029066Y006897D01*
X029066Y006898D02*
X029854Y006898D01*
X029854Y006899D02*
X029066Y006899D01*
X029066Y006900D02*
X029854Y006900D01*
X029854Y006901D02*
X029066Y006901D01*
X029066Y006902D02*
X029854Y006902D01*
X029854Y006903D02*
X029066Y006903D01*
X029066Y006904D02*
X029854Y006904D01*
X029854Y006905D02*
X029066Y006905D01*
X029066Y006906D02*
X029854Y006906D01*
X029854Y006907D02*
X029066Y006907D01*
X029066Y006908D02*
X029854Y006908D01*
X029854Y006909D02*
X029066Y006909D01*
X029066Y006910D02*
X029854Y006910D01*
X029854Y006911D02*
X029066Y006911D01*
X029066Y006912D02*
X029854Y006912D01*
X029854Y006913D02*
X029066Y006913D01*
X029066Y006914D02*
X029854Y006914D01*
X029854Y006915D02*
X029066Y006915D01*
X029066Y006916D02*
X029854Y006916D01*
X029854Y006917D02*
X029066Y006917D01*
X029066Y006918D02*
X029854Y006918D01*
X029854Y006919D02*
X029066Y006919D01*
X029066Y006920D02*
X029854Y006920D01*
X029854Y006921D02*
X029066Y006921D01*
X029066Y006922D02*
X029854Y006922D01*
X029854Y006923D02*
X029066Y006923D01*
X029066Y006924D02*
X029854Y006924D01*
X029854Y006925D02*
X029066Y006925D01*
X029066Y006926D02*
X029854Y006926D01*
X029854Y006927D02*
X029066Y006927D01*
X029066Y006928D02*
X029854Y006928D01*
X029854Y006929D02*
X029066Y006929D01*
X029066Y006930D02*
X029854Y006930D01*
X029854Y006931D02*
X029066Y006931D01*
X029066Y006932D02*
X029854Y006932D01*
X029854Y006933D02*
X029066Y006933D01*
X029066Y006934D02*
X029854Y006934D01*
X029854Y006935D02*
X029066Y006935D01*
X029066Y006936D02*
X029854Y006936D01*
X029854Y006937D02*
X029066Y006937D01*
X029066Y006938D02*
X029854Y006938D01*
X029854Y006939D02*
X029066Y006939D01*
X029066Y006940D02*
X029854Y006940D01*
X029854Y006941D02*
X029066Y006941D01*
X029066Y006942D02*
X029854Y006942D01*
X029854Y006943D02*
X029066Y006943D01*
X029066Y006944D02*
X029854Y006944D01*
X029854Y006945D02*
X029066Y006945D01*
X029066Y006946D02*
X029854Y006946D01*
X029854Y006947D02*
X029066Y006947D01*
X029066Y006948D02*
X029854Y006948D01*
X029854Y006949D02*
X029066Y006949D01*
X029066Y006950D02*
X029854Y006950D01*
X029854Y006951D02*
X029066Y006951D01*
X029066Y006952D02*
X029854Y006952D01*
X029854Y006953D02*
X029066Y006953D01*
X029066Y006954D02*
X029854Y006954D01*
X029854Y006955D02*
X029066Y006955D01*
X029066Y006956D02*
X029854Y006956D01*
X029854Y006957D02*
X029066Y006957D01*
X029066Y006958D02*
X029854Y006958D01*
X029854Y006959D02*
X029066Y006959D01*
X029066Y006960D02*
X029854Y006960D01*
X029854Y006961D02*
X029066Y006961D01*
X029066Y006962D02*
X029854Y006962D01*
X029854Y006963D02*
X029066Y006963D01*
X029066Y006964D02*
X029854Y006964D01*
X029854Y006965D02*
X029066Y006965D01*
X029066Y006966D02*
X029854Y006966D01*
X029854Y006967D02*
X029066Y006967D01*
X029066Y006968D02*
X029854Y006968D01*
X029854Y006969D02*
X029066Y006969D01*
X029066Y006970D02*
X029854Y006970D01*
X029854Y006971D02*
X029066Y006971D01*
X029066Y006972D02*
X029854Y006972D01*
X029854Y006973D02*
X029066Y006973D01*
X029066Y006974D02*
X029854Y006974D01*
X029854Y006975D02*
X029066Y006975D01*
X029066Y006976D02*
X029854Y006976D01*
X029854Y006977D02*
X029066Y006977D01*
X029066Y006978D02*
X029854Y006978D01*
X029854Y006979D02*
X029066Y006979D01*
X029066Y006980D02*
X029854Y006980D01*
X029854Y006981D02*
X029066Y006981D01*
X029066Y006982D02*
X029854Y006982D01*
X029854Y006983D02*
X029066Y006983D01*
X029066Y006984D02*
X029854Y006984D01*
X029854Y006985D02*
X029066Y006985D01*
X029066Y006986D02*
X029854Y006986D01*
X029854Y006987D02*
X029066Y006987D01*
X029066Y006988D02*
X029854Y006988D01*
X029854Y006989D02*
X029066Y006989D01*
X029066Y006990D02*
X029854Y006990D01*
X029854Y006991D02*
X029066Y006991D01*
X029066Y006992D02*
X029854Y006992D01*
X029854Y006993D02*
X029066Y006993D01*
X029066Y006994D02*
X029854Y006994D01*
X029854Y006995D02*
X029066Y006995D01*
X029066Y006996D02*
X029854Y006996D01*
X029854Y006997D02*
X029066Y006997D01*
X029066Y006998D02*
X029854Y006998D01*
X029854Y006999D02*
X029066Y006999D01*
X029066Y007000D02*
X029854Y007000D01*
X029854Y007001D02*
X029066Y007001D01*
X029066Y007002D02*
X029854Y007002D01*
X029854Y007003D02*
X029066Y007003D01*
X029066Y007004D02*
X029854Y007004D01*
X029854Y007005D02*
X029066Y007005D01*
X029066Y007006D02*
X029854Y007006D01*
X029854Y007007D02*
X029066Y007007D01*
X029066Y007008D02*
X029854Y007008D01*
X029854Y007009D02*
X029066Y007009D01*
X029066Y007010D02*
X029854Y007010D01*
X029854Y007011D02*
X029066Y007011D01*
X029066Y007012D02*
X029854Y007012D01*
X029854Y007013D02*
X029066Y007013D01*
X029066Y007014D02*
X029854Y007014D01*
X029854Y007015D02*
X029066Y007015D01*
X029066Y007016D02*
X029854Y007016D01*
X029854Y007017D02*
X029066Y007017D01*
X029066Y007018D02*
X029854Y007018D01*
X029854Y007019D02*
X029066Y007019D01*
X029066Y007020D02*
X029854Y007020D01*
X029854Y007021D02*
X029066Y007021D01*
X029066Y007022D02*
X029854Y007022D01*
X029854Y007023D02*
X029066Y007023D01*
X029066Y007024D02*
X029854Y007024D01*
X029854Y007025D02*
X029066Y007025D01*
X029066Y007026D02*
X029854Y007026D01*
X029854Y007027D02*
X029066Y007027D01*
X029066Y007028D02*
X029854Y007028D01*
X029854Y007029D02*
X029066Y007029D01*
X029066Y007030D02*
X029854Y007030D01*
X029854Y007031D02*
X029066Y007031D01*
X029066Y007032D02*
X029854Y007032D01*
X029854Y007033D02*
X029066Y007033D01*
X029066Y007034D02*
X029854Y007034D01*
X029854Y007035D02*
X029066Y007035D01*
X029066Y007036D02*
X029854Y007036D01*
X029854Y007037D02*
X029066Y007037D01*
X029066Y007038D02*
X029854Y007038D01*
X029854Y007039D02*
X029066Y007039D01*
X029066Y007040D02*
X029854Y007040D01*
X029854Y007041D02*
X029066Y007041D01*
X029066Y007042D02*
X029854Y007042D01*
X029854Y007043D02*
X029066Y007043D01*
X029066Y007044D02*
X029854Y007044D01*
X029854Y007045D02*
X029066Y007045D01*
X029066Y007046D02*
X029854Y007046D01*
X029854Y007047D02*
X029066Y007047D01*
X029066Y007048D02*
X029854Y007048D01*
X029854Y007049D02*
X029066Y007049D01*
X029066Y007050D02*
X029854Y007050D01*
X029854Y007051D02*
X029066Y007051D01*
X029066Y007052D02*
X029854Y007052D01*
X029854Y007053D02*
X029066Y007053D01*
X029066Y007054D02*
X029854Y007054D01*
X029854Y007055D02*
X029066Y007055D01*
X029066Y007056D02*
X029854Y007056D01*
X029854Y007057D02*
X029066Y007057D01*
X029066Y007058D02*
X029854Y007058D01*
X029854Y007059D02*
X029066Y007059D01*
X029066Y007060D02*
X029854Y007060D01*
X029854Y007061D02*
X029066Y007061D01*
X029066Y007062D02*
X029854Y007062D01*
X029854Y007063D02*
X029066Y007063D01*
X029066Y007064D02*
X029854Y007064D01*
X029854Y007065D02*
X029066Y007065D01*
X029066Y007066D02*
X029854Y007066D01*
X029854Y007067D02*
X029066Y007067D01*
X029066Y007068D02*
X029854Y007068D01*
X029854Y007069D02*
X029066Y007069D01*
X029066Y007070D02*
X029854Y007070D01*
X029854Y007071D02*
X029066Y007071D01*
X029066Y007072D02*
X029854Y007072D01*
X029854Y007073D02*
X029066Y007073D01*
X029066Y007074D02*
X029854Y007074D01*
X029854Y007075D02*
X029066Y007075D01*
X029066Y007076D02*
X029854Y007076D01*
X029854Y007077D02*
X029066Y007077D01*
X029066Y007078D02*
X029854Y007078D01*
X029854Y007079D02*
X029066Y007079D01*
X029066Y007080D02*
X029854Y007080D01*
X029854Y007081D02*
X029066Y007081D01*
X029066Y007082D02*
X029854Y007082D01*
X029854Y007083D02*
X029066Y007083D01*
X029066Y007084D02*
X029854Y007084D01*
X029854Y007085D02*
X029066Y007085D01*
X029066Y007086D02*
X029854Y007086D01*
X029854Y007087D02*
X029066Y007087D01*
X029066Y007088D02*
X029854Y007088D01*
X029854Y007089D02*
X029066Y007089D01*
X029066Y007090D02*
X029854Y007090D01*
X029854Y007091D02*
X029066Y007091D01*
X029066Y007092D02*
X029854Y007092D01*
X029854Y007093D02*
X029066Y007093D01*
X029066Y007094D02*
X029854Y007094D01*
X029854Y007095D02*
X029066Y007095D01*
X029066Y007096D02*
X029854Y007096D01*
X029854Y007097D02*
X029066Y007097D01*
X029066Y007098D02*
X029854Y007098D01*
X029854Y007099D02*
X029066Y007099D01*
X029066Y007100D02*
X029854Y007100D01*
X029854Y007101D02*
X029066Y007101D01*
X029066Y007102D02*
X029854Y007102D01*
X029854Y007103D02*
X029066Y007103D01*
X029066Y007104D02*
X029854Y007104D01*
X029854Y007105D02*
X029066Y007105D01*
X029066Y007106D02*
X029854Y007106D01*
X029854Y007107D02*
X029066Y007107D01*
X029066Y007108D02*
X029854Y007108D01*
X029854Y007109D02*
X029066Y007109D01*
X029066Y007110D02*
X029854Y007110D01*
X029854Y007111D02*
X029066Y007111D01*
X029066Y007112D02*
X029854Y007112D01*
X029854Y007113D02*
X029066Y007113D01*
X029066Y007114D02*
X029854Y007114D01*
X029854Y007115D02*
X029066Y007115D01*
X029066Y007116D02*
X029854Y007116D01*
X029854Y007117D02*
X029066Y007117D01*
X029066Y007118D02*
X029854Y007118D01*
X029854Y007119D02*
X029066Y007119D01*
X029066Y007120D02*
X029854Y007120D01*
X029854Y007121D02*
X029066Y007121D01*
X029066Y007122D02*
X029854Y007122D01*
X029854Y007123D02*
X029066Y007123D01*
X029066Y007124D02*
X029854Y007124D01*
X029854Y007125D02*
X029066Y007125D01*
X029066Y007126D02*
X029854Y007126D01*
X029854Y007127D02*
X029066Y007127D01*
X029066Y007128D02*
X029854Y007128D01*
X029854Y007129D02*
X029066Y007129D01*
X029066Y007130D02*
X029854Y007130D01*
X029854Y007131D02*
X029066Y007131D01*
X029066Y007132D02*
X029854Y007132D01*
X029854Y007133D02*
X029066Y007133D01*
X029066Y007134D02*
X029854Y007134D01*
X029854Y007135D02*
X029066Y007135D01*
X029066Y007136D02*
X029854Y007136D01*
X029854Y007137D02*
X029066Y007137D01*
X029066Y007138D02*
X029854Y007138D01*
X029854Y007139D02*
X029066Y007139D01*
X029066Y007140D02*
X029854Y007140D01*
X029854Y007141D02*
X029066Y007141D01*
X029066Y007142D02*
X029854Y007142D01*
X029854Y007143D02*
X029066Y007143D01*
X029066Y007144D02*
X029854Y007144D01*
X029854Y007145D02*
X029066Y007145D01*
X029066Y007146D02*
X029854Y007146D01*
X029854Y007147D02*
X029066Y007147D01*
X029066Y007148D02*
X029854Y007148D01*
X029854Y007149D02*
X029066Y007149D01*
X029066Y007150D02*
X029854Y007150D01*
X029854Y007151D02*
X029066Y007151D01*
X029066Y007152D02*
X029854Y007152D01*
X029854Y007153D02*
X029066Y007153D01*
X029066Y007154D02*
X029854Y007154D01*
X029854Y007155D02*
X029066Y007155D01*
X029066Y007156D02*
X029854Y007156D01*
X029854Y007157D02*
X029066Y007157D01*
X029066Y007158D02*
X029854Y007158D01*
X029854Y007159D02*
X029066Y007159D01*
X029066Y007160D02*
X029854Y007160D01*
X029854Y007161D02*
X029066Y007161D01*
X029066Y007162D02*
X029854Y007162D01*
X029854Y007163D02*
X029066Y007163D01*
X029066Y007164D02*
X029854Y007164D01*
X029854Y007165D02*
X029066Y007165D01*
X029066Y007166D02*
X029854Y007166D01*
X029854Y007167D02*
X029066Y007167D01*
X029066Y007168D02*
X029854Y007168D01*
X029854Y007169D02*
X029066Y007169D01*
X029066Y007170D02*
X029854Y007170D01*
X029854Y007171D02*
X029066Y007171D01*
X029066Y007172D02*
X029854Y007172D01*
X029854Y007173D02*
X029066Y007173D01*
X029066Y007174D02*
X029854Y007174D01*
X029854Y007175D02*
X029066Y007175D01*
X029066Y007176D02*
X029854Y007176D01*
X029854Y007177D02*
X029066Y007177D01*
X029066Y007178D02*
X029854Y007178D01*
X029854Y007179D02*
X029066Y007179D01*
X029066Y007180D02*
X029854Y007180D01*
X029854Y007181D02*
X029066Y007181D01*
X029066Y007182D02*
X029854Y007182D01*
X029854Y007183D02*
X029066Y007183D01*
X029066Y007184D02*
X029854Y007184D01*
X029854Y007185D02*
X029066Y007185D01*
X029066Y007186D02*
X029854Y007186D01*
X029854Y007187D02*
X029066Y007187D01*
X029066Y007188D02*
X029854Y007188D01*
X029854Y007189D02*
X029066Y007189D01*
X029066Y007190D02*
X029854Y007190D01*
X029854Y007191D02*
X029066Y007191D01*
X029066Y007192D02*
X029854Y007192D01*
X029854Y007193D02*
X029066Y007193D01*
X029066Y007194D02*
X029854Y007194D01*
X029854Y007195D02*
X029066Y007195D01*
X029066Y007196D02*
X029854Y007196D01*
X029854Y007197D02*
X029066Y007197D01*
X029066Y007198D02*
X029854Y007198D01*
X029854Y007199D02*
X029066Y007199D01*
X029066Y007200D02*
X029854Y007200D01*
X029854Y007201D02*
X029066Y007201D01*
X029066Y007202D02*
X029854Y007202D01*
X029854Y007203D02*
X029066Y007203D01*
X029066Y007204D02*
X029854Y007204D01*
X029854Y007205D02*
X029066Y007205D01*
X029066Y007206D02*
X029854Y007206D01*
X029854Y007207D02*
X029066Y007207D01*
X029066Y007208D02*
X029854Y007208D01*
X029854Y007209D02*
X029066Y007209D01*
X029066Y007210D02*
X029854Y007210D01*
X029854Y007211D02*
X029066Y007211D01*
X029066Y007212D02*
X029854Y007212D01*
X029854Y007213D02*
X029066Y007213D01*
X029066Y007214D02*
X029854Y007214D01*
X029854Y007215D02*
X029066Y007215D01*
X029066Y007216D02*
X029854Y007216D01*
X029854Y007217D02*
X029066Y007217D01*
X029066Y007218D02*
X029854Y007218D01*
X029854Y007219D02*
X029066Y007219D01*
X029066Y007220D02*
X029854Y007220D01*
X029854Y007221D02*
X029066Y007221D01*
X029066Y007222D02*
X029854Y007222D01*
X029854Y007223D02*
X029066Y007223D01*
X029066Y007224D02*
X029854Y007224D01*
X029854Y007225D02*
X029066Y007225D01*
X029066Y007226D02*
X029854Y007226D01*
X029854Y007227D02*
X029066Y007227D01*
X029066Y007228D02*
X029854Y007228D01*
X029854Y007229D02*
X029066Y007229D01*
X029066Y007230D02*
X029854Y007230D01*
X029854Y007231D02*
X029066Y007231D01*
X029066Y007232D02*
X029854Y007232D01*
X029854Y007233D02*
X029066Y007233D01*
X029066Y007234D02*
X029854Y007234D01*
X029854Y007235D02*
X029066Y007235D01*
X029066Y007236D02*
X029854Y007236D01*
X029854Y007237D02*
X029066Y007237D01*
X029066Y007238D02*
X029854Y007238D01*
X029854Y007239D02*
X029066Y007239D01*
X029066Y007240D02*
X029854Y007240D01*
X029854Y007241D02*
X029066Y007241D01*
X029066Y007242D02*
X029854Y007242D01*
X029854Y007243D02*
X029066Y007243D01*
X029066Y007244D02*
X029854Y007244D01*
X029854Y007245D02*
X029066Y007245D01*
X029066Y007246D02*
X029854Y007246D01*
X029854Y007247D02*
X029066Y007247D01*
X029066Y007248D02*
X029854Y007248D01*
X029854Y007249D02*
X029066Y007249D01*
X029066Y007250D02*
X029854Y007250D01*
X029854Y007251D02*
X029066Y007251D01*
X029066Y007252D02*
X029854Y007252D01*
X029854Y007253D02*
X029066Y007253D01*
X029066Y007254D02*
X029854Y007254D01*
X029854Y007255D02*
X029066Y007255D01*
X029066Y007256D02*
X029854Y007256D01*
X029854Y007257D02*
X029066Y007257D01*
X029066Y007258D02*
X029854Y007258D01*
X029854Y007259D02*
X029066Y007259D01*
X029066Y007260D02*
X029854Y007260D01*
X029854Y007261D02*
X029066Y007261D01*
X029066Y007262D02*
X029854Y007262D01*
X029854Y007263D02*
X029066Y007263D01*
X029066Y007264D02*
X029854Y007264D01*
X029854Y007265D02*
X029066Y007265D01*
X029066Y007266D02*
X029854Y007266D01*
X029854Y007267D02*
X029066Y007267D01*
X029066Y007268D02*
X029854Y007268D01*
X029854Y007269D02*
X029066Y007269D01*
X029066Y007270D02*
X029854Y007270D01*
X029854Y007271D02*
X029066Y007271D01*
X029066Y007272D02*
X029854Y007272D01*
X029854Y007273D02*
X029066Y007273D01*
X029066Y007274D02*
X029854Y007274D01*
X029854Y007275D02*
X029066Y007275D01*
X029066Y007276D02*
X029854Y007276D01*
X029854Y007277D02*
X029066Y007277D01*
X029066Y007278D02*
X029854Y007278D01*
X029854Y007279D02*
X029066Y007279D01*
X029066Y007280D02*
X029854Y007280D01*
X029854Y007281D02*
X029066Y007281D01*
X029066Y007282D02*
X029854Y007282D01*
X029854Y007283D02*
X029066Y007283D01*
X029066Y007284D02*
X029854Y007284D01*
X029854Y007285D02*
X029066Y007285D01*
X029066Y007286D02*
X029854Y007286D01*
X029854Y007287D02*
X029066Y007287D01*
X029066Y007288D02*
X029854Y007288D01*
X029854Y007289D02*
X029066Y007289D01*
X029066Y007290D02*
X029854Y007290D01*
X029854Y007291D02*
X029066Y007291D01*
X029066Y007292D02*
X029854Y007292D01*
X029854Y007293D02*
X029066Y007293D01*
X029066Y007294D02*
X029854Y007294D01*
X029854Y007295D02*
X029066Y007295D01*
X029066Y007296D02*
X029854Y007296D01*
X029854Y007297D02*
X029066Y007297D01*
X029066Y007298D02*
X029854Y007298D01*
X029854Y007299D02*
X029066Y007299D01*
X029066Y007300D02*
X029854Y007300D01*
X029854Y007301D02*
X029066Y007301D01*
X029066Y007302D02*
X029854Y007302D01*
X029854Y007303D02*
X029066Y007303D01*
X029066Y007304D02*
X029854Y007304D01*
X029854Y007305D02*
X029066Y007305D01*
X029066Y007306D02*
X029854Y007306D01*
X029854Y007307D02*
X029066Y007307D01*
X029066Y007308D02*
X029854Y007308D01*
X029854Y007309D02*
X029066Y007309D01*
X029066Y007310D02*
X029854Y007310D01*
X029854Y007311D02*
X029066Y007311D01*
X029066Y007312D02*
X029854Y007312D01*
X029854Y007313D02*
X029066Y007313D01*
X029066Y007314D02*
X029854Y007314D01*
X029854Y007315D02*
X029066Y007315D01*
X029066Y007316D02*
X029854Y007316D01*
X029854Y007317D02*
X029066Y007317D01*
X029066Y007318D02*
X029854Y007318D01*
X029854Y007319D02*
X029066Y007319D01*
X029066Y007320D02*
X029854Y007320D01*
X029854Y007321D02*
X029066Y007321D01*
X029066Y007322D02*
X029854Y007322D01*
X029854Y007323D02*
X029066Y007323D01*
X029066Y007324D02*
X029854Y007324D01*
X029854Y007325D02*
X029066Y007325D01*
X029066Y007326D02*
X029854Y007326D01*
X029854Y007327D02*
X029066Y007327D01*
X029066Y007328D02*
X029854Y007328D01*
X029854Y007329D02*
X029066Y007329D01*
X029066Y007330D02*
X029854Y007330D01*
X029854Y007331D02*
X029066Y007331D01*
X029066Y007332D02*
X029854Y007332D01*
X029854Y007333D02*
X029066Y007333D01*
X029066Y007334D02*
X029854Y007334D01*
X029854Y007335D02*
X029066Y007335D01*
X029066Y007336D02*
X029854Y007336D01*
X029854Y007337D02*
X029066Y007337D01*
X029066Y007338D02*
X029854Y007338D01*
X029854Y007339D02*
X029066Y007339D01*
X029066Y007340D02*
X029854Y007340D01*
X029854Y007341D02*
X029066Y007341D01*
X029066Y007342D02*
X029854Y007342D01*
X029854Y007343D02*
X029066Y007343D01*
X029066Y007344D02*
X029854Y007344D01*
X029854Y007345D02*
X029066Y007345D01*
X029066Y007346D02*
X029854Y007346D01*
X029854Y007347D02*
X029066Y007347D01*
X029066Y007348D02*
X029854Y007348D01*
X029854Y007349D02*
X029066Y007349D01*
X029066Y007350D02*
X029854Y007350D01*
X029854Y007351D02*
X029066Y007351D01*
X029066Y007352D02*
X029854Y007352D01*
X029854Y007353D02*
X029066Y007353D01*
X029066Y007354D02*
X029854Y007354D01*
X029854Y007355D02*
X029066Y007355D01*
X029066Y007356D02*
X029854Y007356D01*
X029854Y007357D02*
X029066Y007357D01*
X029066Y007358D02*
X029854Y007358D01*
X029854Y007359D02*
X029066Y007359D01*
X029066Y007360D02*
X029854Y007360D01*
X029854Y007361D02*
X029066Y007361D01*
X029066Y007362D02*
X029854Y007362D01*
X029854Y007363D02*
X029066Y007363D01*
X029066Y007364D02*
X029854Y007364D01*
X029854Y007365D02*
X029066Y007365D01*
X029066Y007366D02*
X029854Y007366D01*
X029854Y007367D02*
X029066Y007367D01*
X029066Y007368D02*
X029854Y007368D01*
X029854Y007369D02*
X029066Y007369D01*
X029066Y007370D02*
X029854Y007370D01*
X029854Y007371D02*
X029066Y007371D01*
X029066Y007372D02*
X029854Y007372D01*
X029854Y007373D02*
X029066Y007373D01*
X029066Y007374D02*
X029854Y007374D01*
X029854Y007375D02*
X029066Y007375D01*
X029066Y007376D02*
X029854Y007376D01*
X029854Y007377D02*
X029066Y007377D01*
X029066Y007378D02*
X029854Y007378D01*
X029854Y007379D02*
X029066Y007379D01*
X029066Y007380D02*
X029854Y007380D01*
X029854Y007381D02*
X029066Y007381D01*
X029066Y007382D02*
X029854Y007382D01*
X029854Y007383D02*
X029066Y007383D01*
X029066Y007384D02*
X029854Y007384D01*
X029854Y007385D02*
X029066Y007385D01*
X029066Y007386D02*
X029854Y007386D01*
X029854Y007387D02*
X029066Y007387D01*
X029066Y007388D02*
X029854Y007388D01*
X029854Y007389D02*
X029066Y007389D01*
X029066Y007390D02*
X029854Y007390D01*
X029854Y007391D02*
X029066Y007391D01*
X029066Y007392D02*
X029854Y007392D01*
X029854Y007393D02*
X029066Y007393D01*
X029066Y007394D02*
X029854Y007394D01*
X029854Y007395D02*
X029066Y007395D01*
X029066Y007396D02*
X029854Y007396D01*
X029854Y007397D02*
X029066Y007397D01*
X029066Y007398D02*
X029854Y007398D01*
X029854Y007399D02*
X029066Y007399D01*
X029066Y007400D02*
X029854Y007400D01*
X029854Y007401D02*
X029066Y007401D01*
X029066Y007402D02*
X029854Y007402D01*
X029854Y007403D02*
X029066Y007403D01*
X029066Y007404D02*
X029854Y007404D01*
X029854Y007405D02*
X029066Y007405D01*
X029066Y007406D02*
X029854Y007406D01*
X029854Y007407D02*
X029066Y007407D01*
X029066Y007408D02*
X029854Y007408D01*
X029854Y007409D02*
X029066Y007409D01*
X029066Y007410D02*
X029854Y007410D01*
X029854Y007411D02*
X029066Y007411D01*
X029066Y007412D02*
X029854Y007412D01*
X029854Y007413D02*
X029066Y007413D01*
X029066Y007414D02*
X029854Y007414D01*
X029854Y007415D02*
X029066Y007415D01*
X029066Y007416D02*
X029854Y007416D01*
X029854Y007417D02*
X029066Y007417D01*
X029066Y007418D02*
X029854Y007418D01*
X029854Y007419D02*
X029066Y007419D01*
X029066Y007420D02*
X029854Y007420D01*
X029854Y007421D02*
X029066Y007421D01*
X029066Y007422D02*
X029854Y007422D01*
X029854Y007423D02*
X029066Y007423D01*
X029066Y007424D02*
X029854Y007424D01*
X029854Y007425D02*
X029066Y007425D01*
X029066Y007426D02*
X029854Y007426D01*
X029854Y007427D02*
X029066Y007427D01*
X029066Y007428D02*
X029854Y007428D01*
X029854Y007429D02*
X029066Y007429D01*
X029066Y007430D02*
X029854Y007430D01*
X029854Y007431D02*
X029066Y007431D01*
X029066Y007432D02*
X029854Y007432D01*
X029854Y007433D02*
X029066Y007433D01*
X029066Y007434D02*
X029854Y007434D01*
X029854Y007435D02*
X029066Y007435D01*
X029066Y007436D02*
X029854Y007436D01*
X029854Y007437D02*
X029066Y007437D01*
X029066Y007438D02*
X029854Y007438D01*
X029854Y007439D02*
X029066Y007439D01*
X029066Y007440D02*
X029854Y007440D01*
X029854Y007441D02*
X029066Y007441D01*
X029066Y007442D02*
X029854Y007442D01*
X029854Y007443D02*
X029066Y007443D01*
X029066Y007444D02*
X029854Y007444D01*
X029854Y007445D02*
X029066Y007445D01*
X029066Y007446D02*
X029854Y007446D01*
X029854Y007447D02*
X029066Y007447D01*
X029066Y007448D02*
X029854Y007448D01*
X029854Y007449D02*
X029066Y007449D01*
X029066Y007450D02*
X029854Y007450D01*
X029854Y007451D02*
X029066Y007451D01*
X029066Y007452D02*
X029854Y007452D01*
X029854Y007453D02*
X029066Y007453D01*
X029066Y007454D02*
X029854Y007454D01*
X029854Y007455D02*
X029066Y007455D01*
X029066Y007456D02*
X029854Y007456D01*
X029854Y007457D02*
X029066Y007457D01*
X029066Y007458D02*
X029854Y007458D01*
X029854Y007459D02*
X029066Y007459D01*
X029066Y007460D02*
X029854Y007460D01*
X029854Y007461D02*
X029066Y007461D01*
X029066Y007462D02*
X029854Y007462D01*
X029854Y007463D02*
X029066Y007463D01*
X029066Y007464D02*
X029854Y007464D01*
X029854Y007465D02*
X029066Y007465D01*
X029066Y007466D02*
X029854Y007466D01*
X029854Y007467D02*
X029066Y007467D01*
X029066Y007468D02*
X029854Y007468D01*
X029854Y007469D02*
X029066Y007469D01*
X029066Y007470D02*
X029854Y007470D01*
X029854Y007471D02*
X029066Y007471D01*
X029066Y007472D02*
X029854Y007472D01*
X029854Y007473D02*
X029066Y007473D01*
X029066Y007474D02*
X029854Y007474D01*
X029854Y007475D02*
X029066Y007475D01*
X029066Y007476D02*
X029854Y007476D01*
X029854Y007477D02*
X029066Y007477D01*
X029066Y007478D02*
X029854Y007478D01*
X029854Y007479D02*
X029066Y007479D01*
X029066Y007480D02*
X029854Y007480D01*
X029854Y007481D02*
X029066Y007481D01*
X029066Y007482D02*
X029854Y007482D01*
X029854Y007483D02*
X029066Y007483D01*
X029066Y007484D02*
X029854Y007484D01*
X029854Y007485D02*
X029066Y007485D01*
X029066Y007486D02*
X029854Y007486D01*
X029854Y007487D02*
X029066Y007487D01*
X029066Y007488D02*
X029854Y007488D01*
X029854Y007489D02*
X029066Y007489D01*
X029066Y007490D02*
X029854Y007490D01*
X029854Y007491D02*
X029066Y007491D01*
X029066Y007492D02*
X029854Y007492D01*
X029854Y007493D02*
X029066Y007493D01*
X029066Y007494D02*
X029854Y007494D01*
X029854Y007495D02*
X029066Y007495D01*
X029066Y007496D02*
X029854Y007496D01*
X029854Y007497D02*
X029066Y007497D01*
X029066Y007498D02*
X029854Y007498D01*
X029854Y007499D02*
X029066Y007499D01*
X029066Y007500D02*
X029854Y007500D01*
X029854Y007501D02*
X029066Y007501D01*
X029066Y007502D02*
X029854Y007502D01*
X029854Y007503D02*
X029066Y007503D01*
X029066Y007504D02*
X029854Y007504D01*
X029854Y007505D02*
X029066Y007505D01*
X029066Y007506D02*
X029854Y007506D01*
X029854Y007507D02*
X029066Y007507D01*
X029066Y007508D02*
X029854Y007508D01*
X029854Y007509D02*
X029066Y007509D01*
X029066Y007510D02*
X029854Y007510D01*
X029854Y007511D02*
X029066Y007511D01*
X029066Y007512D02*
X029854Y007512D01*
X029854Y007513D02*
X029066Y007513D01*
X029066Y007514D02*
X029854Y007514D01*
X029854Y007515D02*
X029066Y007515D01*
X029066Y007516D02*
X029854Y007516D01*
X029854Y007517D02*
X029066Y007517D01*
X029066Y007518D02*
X029854Y007518D01*
X029854Y007519D02*
X029066Y007519D01*
X029066Y007520D02*
X029854Y007520D01*
X029854Y007521D02*
X029066Y007521D01*
X029066Y007522D02*
X029854Y007522D01*
X029854Y007523D02*
X029066Y007523D01*
X029066Y007524D02*
X029854Y007524D01*
X029854Y007525D02*
X029066Y007525D01*
X029066Y007526D02*
X029854Y007526D01*
X029854Y007527D02*
X029066Y007527D01*
X029066Y007528D02*
X029854Y007528D01*
X029854Y007529D02*
X029066Y007529D01*
X029066Y007530D02*
X029854Y007530D01*
X029854Y007531D02*
X029066Y007531D01*
X029066Y007532D02*
X029854Y007532D01*
X029854Y007533D02*
X029066Y007533D01*
X029066Y007534D02*
X029854Y007534D01*
X029854Y007535D02*
X029066Y007535D01*
X029066Y007536D02*
X029854Y007536D01*
X029854Y007537D02*
X029066Y007537D01*
X029066Y007538D02*
X029854Y007538D01*
X029854Y007539D02*
X029066Y007539D01*
X029066Y007540D02*
X029854Y007540D01*
X029854Y007541D02*
X029066Y007541D01*
X029066Y007542D02*
X029854Y007542D01*
X029854Y007543D02*
X029066Y007543D01*
X029066Y007544D02*
X029854Y007544D01*
X029854Y007545D02*
X029066Y007545D01*
X029066Y007546D02*
X029854Y007546D01*
X029854Y007547D02*
X029066Y007547D01*
X029066Y007548D02*
X029854Y007548D01*
X029854Y007549D02*
X029066Y007549D01*
X029066Y007550D02*
X029854Y007550D01*
X029854Y007551D02*
X029066Y007551D01*
X029066Y007552D02*
X029854Y007552D01*
X029854Y007553D02*
X029066Y007553D01*
X029066Y007554D02*
X029854Y007554D01*
X029854Y007555D02*
X029066Y007555D01*
X029066Y007556D02*
X029854Y007556D01*
X029854Y007557D02*
X029066Y007557D01*
X029066Y007558D02*
X029854Y007558D01*
X029854Y007559D02*
X029066Y007559D01*
X029066Y007560D02*
X029854Y007560D01*
X029854Y007561D02*
X029066Y007561D01*
X029066Y007562D02*
X029854Y007562D01*
X029854Y007563D02*
X029066Y007563D01*
X029066Y007564D02*
X029854Y007564D01*
X029854Y007565D02*
X029066Y007565D01*
X029066Y007566D02*
X029854Y007566D01*
X029854Y007567D02*
X029066Y007567D01*
X029066Y007568D02*
X029854Y007568D01*
X029854Y007569D02*
X029066Y007569D01*
X029066Y007570D02*
X029854Y007570D01*
X029854Y007571D02*
X029066Y007571D01*
X029066Y007572D02*
X029854Y007572D01*
X029854Y007573D02*
X029066Y007573D01*
X029066Y007574D02*
X029854Y007574D01*
X029854Y007575D02*
X029066Y007575D01*
X029066Y007576D02*
X029854Y007576D01*
X029854Y007577D02*
X029066Y007577D01*
X029066Y007578D02*
X029854Y007578D01*
X029854Y007579D02*
X029066Y007579D01*
X029066Y007580D02*
X029854Y007580D01*
X029854Y007581D02*
X029066Y007581D01*
X029066Y007582D02*
X029854Y007582D01*
X029854Y007583D02*
X029066Y007583D01*
X029066Y007584D02*
X029854Y007584D01*
X029854Y007585D02*
X029066Y007585D01*
X029066Y007586D02*
X029854Y007586D01*
X029854Y007587D02*
X029066Y007587D01*
X029066Y007588D02*
X029854Y007588D01*
X029854Y007589D02*
X029066Y007589D01*
X029066Y007590D02*
X029854Y007590D01*
X029854Y007591D02*
X029066Y007591D01*
X029066Y007592D02*
X029854Y007592D01*
X029854Y007593D02*
X029066Y007593D01*
X029066Y007594D02*
X029854Y007594D01*
X029854Y007595D02*
X029066Y007595D01*
X029066Y007596D02*
X029854Y007596D01*
X029854Y007597D02*
X029066Y007597D01*
X029066Y007598D02*
X029854Y007598D01*
X029854Y007599D02*
X029066Y007599D01*
X029066Y007600D02*
X029854Y007600D01*
X029854Y007601D02*
X029066Y007601D01*
X029066Y007602D02*
X029854Y007602D01*
X029854Y007603D02*
X029066Y007603D01*
X029066Y007604D02*
X029854Y007604D01*
X029854Y007605D02*
X029066Y007605D01*
X029066Y007606D02*
X029854Y007606D01*
X029854Y007607D02*
X029066Y007607D01*
X029066Y007608D02*
X029854Y007608D01*
X029854Y007609D02*
X029066Y007609D01*
X029066Y007610D02*
X029854Y007610D01*
X029854Y007611D02*
X029066Y007611D01*
X029066Y007612D02*
X029854Y007612D01*
X029854Y007613D02*
X029066Y007613D01*
X029066Y007614D02*
X029854Y007614D01*
X029854Y007615D02*
X029066Y007615D01*
X029066Y007616D02*
X029854Y007616D01*
X029854Y007617D02*
X029066Y007617D01*
X029066Y007618D02*
X029854Y007618D01*
X029854Y007619D02*
X029066Y007619D01*
X029066Y007620D02*
X029854Y007620D01*
X029854Y007621D02*
X029066Y007621D01*
X029066Y007622D02*
X029854Y007622D01*
X029854Y007623D02*
X029066Y007623D01*
X029066Y007624D02*
X029854Y007624D01*
X029854Y007625D02*
X029066Y007625D01*
X029066Y007626D02*
X029854Y007626D01*
X029854Y007627D02*
X029066Y007627D01*
X029066Y007628D02*
X029854Y007628D01*
X029854Y007629D02*
X029066Y007629D01*
X029066Y007630D02*
X029854Y007630D01*
X029854Y007631D02*
X029066Y007631D01*
X029066Y007632D02*
X029854Y007632D01*
X029854Y007633D02*
X029066Y007633D01*
X029066Y007634D02*
X029854Y007634D01*
X029854Y007635D02*
X029066Y007635D01*
X029066Y007636D02*
X029854Y007636D01*
X029854Y007637D02*
X029066Y007637D01*
X029066Y007638D02*
X029854Y007638D01*
X029854Y007639D02*
X029066Y007639D01*
X029066Y007640D02*
X029854Y007640D01*
X029854Y007641D02*
X029066Y007641D01*
X029066Y007642D02*
X029854Y007642D01*
X029854Y007643D02*
X029066Y007643D01*
X029066Y007644D02*
X029854Y007644D01*
X029854Y007645D02*
X029066Y007645D01*
X029066Y007646D02*
X029854Y007646D01*
X029854Y007647D02*
X029066Y007647D01*
X029066Y007648D02*
X029854Y007648D01*
X029854Y007649D02*
X029066Y007649D01*
X029066Y007650D02*
X029854Y007650D01*
X029854Y007651D02*
X029066Y007651D01*
X029066Y007652D02*
X029854Y007652D01*
X029854Y007653D02*
X029066Y007653D01*
X029066Y007654D02*
X029854Y007654D01*
X029854Y007655D02*
X029066Y007655D01*
X029066Y007656D02*
X029854Y007656D01*
X029854Y007657D02*
X029066Y007657D01*
X029066Y007658D02*
X029854Y007658D01*
X029854Y007659D02*
X029066Y007659D01*
X029066Y007660D02*
X029854Y007660D01*
X029854Y007661D02*
X029066Y007661D01*
X029066Y007662D02*
X029854Y007662D01*
X029854Y007663D02*
X029066Y007663D01*
X029066Y007664D02*
X029854Y007664D01*
X029854Y007665D02*
X029066Y007665D01*
X029066Y007666D02*
X029854Y007666D01*
X029854Y007667D02*
X029067Y007667D01*
X029067Y007668D02*
X029854Y007668D01*
X029854Y007669D02*
X029067Y007669D01*
X029067Y007670D02*
X029854Y007670D01*
X029853Y007671D02*
X029067Y007671D01*
X029067Y007672D02*
X029853Y007672D01*
X029853Y007673D02*
X029067Y007673D01*
X029067Y007674D02*
X029853Y007674D01*
X029853Y007675D02*
X029067Y007675D01*
X029067Y007676D02*
X029853Y007676D01*
X029853Y007677D02*
X029067Y007677D01*
X029068Y007678D02*
X029853Y007678D01*
X029853Y007679D02*
X029068Y007679D01*
X029068Y007680D02*
X029853Y007680D01*
X029853Y007681D02*
X029068Y007681D01*
X029068Y007682D02*
X029853Y007682D01*
X029852Y007683D02*
X029068Y007683D01*
X029068Y007684D02*
X029852Y007684D01*
X029852Y007685D02*
X029068Y007685D01*
X029068Y007686D02*
X029852Y007686D01*
X029852Y007687D02*
X029068Y007687D01*
X029068Y007688D02*
X029852Y007688D01*
X029852Y007689D02*
X029068Y007689D01*
X029069Y007690D02*
X029852Y007690D01*
X029852Y007691D02*
X029069Y007691D01*
X029069Y007692D02*
X029852Y007692D01*
X029852Y007693D02*
X029069Y007693D01*
X029069Y007694D02*
X029851Y007694D01*
X029851Y007695D02*
X029069Y007695D01*
X029069Y007696D02*
X029851Y007696D01*
X029851Y007697D02*
X029069Y007697D01*
X029069Y007698D02*
X029851Y007698D01*
X029851Y007699D02*
X029069Y007699D01*
X029069Y007700D02*
X029851Y007700D01*
X029851Y007701D02*
X029070Y007701D01*
X029070Y007702D02*
X029851Y007702D01*
X029851Y007703D02*
X029070Y007703D01*
X029070Y007704D02*
X029851Y007704D01*
X029851Y007705D02*
X029070Y007705D01*
X029070Y007706D02*
X029850Y007706D01*
X029850Y007707D02*
X029070Y007707D01*
X029070Y007708D02*
X029850Y007708D01*
X029850Y007709D02*
X029070Y007709D01*
X029070Y007710D02*
X029850Y007710D01*
X029850Y007711D02*
X029070Y007711D01*
X029070Y007712D02*
X029850Y007712D01*
X029850Y007713D02*
X029071Y007713D01*
X029071Y007714D02*
X029850Y007714D01*
X029850Y007715D02*
X029071Y007715D01*
X029071Y007716D02*
X029850Y007716D01*
X029849Y007717D02*
X029071Y007717D01*
X029071Y007718D02*
X029849Y007718D01*
X029849Y007719D02*
X029071Y007719D01*
X029071Y007720D02*
X029849Y007720D01*
X029849Y007721D02*
X029071Y007721D01*
X029071Y007722D02*
X029849Y007722D01*
X029849Y007723D02*
X029071Y007723D01*
X029072Y007724D02*
X029849Y007724D01*
X029849Y007725D02*
X029072Y007725D01*
X029072Y007726D02*
X029849Y007726D01*
X029849Y007727D02*
X029072Y007727D01*
X029072Y007728D02*
X029848Y007728D01*
X029848Y007729D02*
X029072Y007729D01*
X029072Y007730D02*
X029848Y007730D01*
X029848Y007731D02*
X029072Y007731D01*
X029072Y007732D02*
X029848Y007732D01*
X029848Y007733D02*
X029072Y007733D01*
X029072Y007734D02*
X029848Y007734D01*
X029848Y007735D02*
X029073Y007735D01*
X029073Y007736D02*
X029848Y007736D01*
X029847Y007737D02*
X029073Y007737D01*
X029073Y007738D02*
X029847Y007738D01*
X029847Y007739D02*
X029074Y007739D01*
X029074Y007740D02*
X029846Y007740D01*
X029846Y007741D02*
X029074Y007741D01*
X029074Y007742D02*
X029846Y007742D01*
X029846Y007743D02*
X029075Y007743D01*
X029075Y007744D02*
X029845Y007744D01*
X029845Y007745D02*
X029075Y007745D01*
X029076Y007746D02*
X029845Y007746D01*
X029845Y007747D02*
X029076Y007747D01*
X029076Y007748D02*
X029844Y007748D01*
X029844Y007749D02*
X029076Y007749D01*
X029077Y007750D02*
X029844Y007750D01*
X029844Y007751D02*
X029077Y007751D01*
X029077Y007752D02*
X029843Y007752D01*
X029843Y007753D02*
X029077Y007753D01*
X029078Y007754D02*
X029843Y007754D01*
X029842Y007755D02*
X029078Y007755D01*
X029078Y007756D02*
X029842Y007756D01*
X029842Y007757D02*
X029078Y007757D01*
X029079Y007758D02*
X029842Y007758D01*
X029841Y007759D02*
X029079Y007759D01*
X029079Y007760D02*
X029841Y007760D01*
X029841Y007761D02*
X029080Y007761D01*
X029080Y007762D02*
X029841Y007762D01*
X029840Y007763D02*
X029080Y007763D01*
X029080Y007764D02*
X029840Y007764D01*
X029840Y007765D02*
X029081Y007765D01*
X029081Y007766D02*
X029840Y007766D01*
X029839Y007767D02*
X029081Y007767D01*
X029081Y007768D02*
X029839Y007768D01*
X029839Y007769D02*
X029082Y007769D01*
X029082Y007770D02*
X029838Y007770D01*
X029838Y007771D02*
X029082Y007771D01*
X029082Y007772D02*
X029838Y007772D01*
X029838Y007773D02*
X029083Y007773D01*
X029083Y007774D02*
X029837Y007774D01*
X029837Y007775D02*
X029083Y007775D01*
X029084Y007776D02*
X029837Y007776D01*
X029837Y007777D02*
X029084Y007777D01*
X029084Y007778D02*
X029836Y007778D01*
X029836Y007779D02*
X029084Y007779D01*
X029085Y007780D02*
X029836Y007780D01*
X029836Y007781D02*
X029085Y007781D01*
X029085Y007782D02*
X029835Y007782D01*
X029835Y007783D02*
X029085Y007783D01*
X029086Y007784D02*
X029835Y007784D01*
X029834Y007785D02*
X029086Y007785D01*
X029086Y007786D02*
X029834Y007786D01*
X029834Y007787D02*
X029086Y007787D01*
X029087Y007788D02*
X029834Y007788D01*
X029833Y007789D02*
X029087Y007789D01*
X029087Y007790D02*
X029833Y007790D01*
X029833Y007791D02*
X029088Y007791D01*
X029088Y007792D02*
X029833Y007792D01*
X029832Y007793D02*
X029088Y007793D01*
X029088Y007794D02*
X029832Y007794D01*
X029832Y007795D02*
X029089Y007795D01*
X029089Y007796D02*
X029831Y007796D01*
X029831Y007797D02*
X029089Y007797D01*
X029089Y007798D02*
X029831Y007798D01*
X029831Y007799D02*
X029090Y007799D01*
X029090Y007800D02*
X029830Y007800D01*
X029830Y007801D02*
X029090Y007801D01*
X029091Y007802D02*
X029830Y007802D01*
X029829Y007803D02*
X029091Y007803D01*
X029092Y007804D02*
X029829Y007804D01*
X029828Y007805D02*
X029092Y007805D01*
X029093Y007806D02*
X029828Y007806D01*
X029827Y007807D02*
X029093Y007807D01*
X029093Y007808D02*
X029827Y007808D01*
X029826Y007809D02*
X029094Y007809D01*
X029094Y007810D02*
X029826Y007810D01*
X029826Y007811D02*
X029095Y007811D01*
X029095Y007812D02*
X029825Y007812D01*
X029825Y007813D02*
X029096Y007813D01*
X029096Y007814D02*
X029824Y007814D01*
X029824Y007815D02*
X029097Y007815D01*
X029097Y007816D02*
X029823Y007816D01*
X029823Y007817D02*
X029098Y007817D01*
X029098Y007818D02*
X029822Y007818D01*
X029822Y007819D02*
X029099Y007819D01*
X029099Y007820D02*
X029821Y007820D01*
X029821Y007821D02*
X029100Y007821D01*
X029100Y007822D02*
X029820Y007822D01*
X029820Y007823D02*
X029100Y007823D01*
X029101Y007824D02*
X029819Y007824D01*
X029819Y007825D02*
X029101Y007825D01*
X029102Y007826D02*
X029819Y007826D01*
X029818Y007827D02*
X029102Y007827D01*
X029103Y007828D02*
X029818Y007828D01*
X029817Y007829D02*
X029103Y007829D01*
X029104Y007830D02*
X029817Y007830D01*
X029816Y007831D02*
X029104Y007831D01*
X029105Y007832D02*
X029816Y007832D01*
X029815Y007833D02*
X029105Y007833D01*
X029106Y007834D02*
X029815Y007834D01*
X029814Y007835D02*
X029106Y007835D01*
X029107Y007836D02*
X029814Y007836D01*
X029813Y007837D02*
X029107Y007837D01*
X029107Y007838D02*
X029813Y007838D01*
X029812Y007839D02*
X029108Y007839D01*
X029108Y007840D02*
X029812Y007840D01*
X029812Y007841D02*
X029109Y007841D01*
X029109Y007842D02*
X029811Y007842D01*
X029811Y007843D02*
X029110Y007843D01*
X029110Y007844D02*
X029810Y007844D01*
X029810Y007845D02*
X029111Y007845D01*
X029111Y007846D02*
X029809Y007846D01*
X029809Y007847D02*
X029112Y007847D01*
X029112Y007848D02*
X029808Y007848D01*
X029113Y007848D01*
X029113Y007849D02*
X029807Y007849D01*
X029807Y007850D02*
X029114Y007850D01*
X029114Y007851D02*
X029806Y007851D01*
X029806Y007852D02*
X029114Y007852D01*
X029115Y007853D02*
X029805Y007853D01*
X029805Y007854D02*
X029115Y007854D01*
X029116Y007855D02*
X029805Y007855D01*
X029804Y007856D02*
X029116Y007856D01*
X029117Y007857D02*
X029804Y007857D01*
X029803Y007858D02*
X029117Y007858D01*
X029118Y007859D02*
X029803Y007859D01*
X029802Y007860D02*
X029118Y007860D01*
X029119Y007861D02*
X029802Y007861D01*
X029801Y007862D02*
X029119Y007862D01*
X029120Y007863D02*
X029801Y007863D01*
X029800Y007864D02*
X029120Y007864D01*
X029121Y007865D02*
X029799Y007865D01*
X029799Y007866D02*
X029122Y007866D01*
X029123Y007867D02*
X029798Y007867D01*
X029797Y007868D02*
X029123Y007868D01*
X029124Y007869D02*
X029796Y007869D01*
X029796Y007870D02*
X029125Y007870D01*
X029125Y007871D02*
X029795Y007871D01*
X029794Y007872D02*
X029126Y007872D01*
X029127Y007873D02*
X029794Y007873D01*
X029793Y007874D02*
X029127Y007874D01*
X029128Y007875D02*
X029792Y007875D01*
X029792Y007876D02*
X029129Y007876D01*
X029130Y007877D02*
X029791Y007877D01*
X029790Y007878D02*
X029130Y007878D01*
X029131Y007879D02*
X029789Y007879D01*
X029789Y007880D02*
X029132Y007880D01*
X029132Y007881D02*
X029788Y007881D01*
X029787Y007882D02*
X029133Y007882D01*
X029134Y007883D02*
X029787Y007883D01*
X029786Y007884D02*
X029134Y007884D01*
X029135Y007885D02*
X029785Y007885D01*
X029785Y007886D02*
X029136Y007886D01*
X029137Y007887D02*
X029784Y007887D01*
X029783Y007888D02*
X029137Y007888D01*
X029138Y007889D02*
X029782Y007889D01*
X029782Y007890D02*
X029139Y007890D01*
X029139Y007891D02*
X029781Y007891D01*
X029780Y007892D02*
X029140Y007892D01*
X029141Y007893D02*
X029780Y007893D01*
X029779Y007894D02*
X029141Y007894D01*
X029142Y007895D02*
X029778Y007895D01*
X029778Y007896D02*
X029143Y007896D01*
X029144Y007897D02*
X029777Y007897D01*
X029776Y007898D02*
X029144Y007898D01*
X029145Y007899D02*
X029775Y007899D01*
X029775Y007900D02*
X029146Y007900D01*
X029146Y007901D02*
X029774Y007901D01*
X029773Y007902D02*
X029147Y007902D01*
X029148Y007903D02*
X029773Y007903D01*
X029772Y007904D02*
X029148Y007904D01*
X029149Y007905D02*
X029771Y007905D01*
X029771Y007906D02*
X029150Y007906D01*
X029151Y007907D02*
X029770Y007907D01*
X029769Y007908D02*
X029151Y007908D01*
X029152Y007909D02*
X029768Y007909D01*
X029768Y007910D02*
X029153Y007910D01*
X029153Y007911D02*
X029767Y007911D01*
X029766Y007912D02*
X029154Y007912D01*
X029155Y007913D02*
X029766Y007913D01*
X029765Y007914D02*
X029155Y007914D01*
X029156Y007915D02*
X029764Y007915D01*
X029764Y007916D02*
X029157Y007916D01*
X029158Y007917D02*
X029763Y007917D01*
X029762Y007918D02*
X029158Y007918D01*
X029159Y007919D02*
X029761Y007919D01*
X029760Y007920D02*
X029160Y007920D01*
X029161Y007921D02*
X029759Y007921D01*
X029758Y007922D02*
X029162Y007922D01*
X029163Y007923D02*
X029757Y007923D01*
X029756Y007924D02*
X029164Y007924D01*
X029165Y007925D02*
X029755Y007925D01*
X029754Y007926D02*
X029166Y007926D01*
X029167Y007927D02*
X029753Y007927D01*
X029752Y007928D02*
X029168Y007928D01*
X029169Y007929D02*
X029751Y007929D01*
X029750Y007930D02*
X029170Y007930D01*
X029171Y007931D02*
X029749Y007931D01*
X029748Y007932D02*
X029172Y007932D01*
X029173Y007933D02*
X029747Y007933D01*
X029746Y007934D02*
X029174Y007934D01*
X029175Y007935D02*
X029745Y007935D01*
X029744Y007936D02*
X029176Y007936D01*
X029177Y007937D02*
X029743Y007937D01*
X029742Y007938D02*
X029178Y007938D01*
X029179Y007939D02*
X029741Y007939D01*
X029740Y007940D02*
X029180Y007940D01*
X029181Y007941D02*
X029739Y007941D01*
X029738Y007942D02*
X029182Y007942D01*
X029183Y007943D02*
X029737Y007943D01*
X029736Y007944D02*
X029184Y007944D01*
X029185Y007945D02*
X029735Y007945D01*
X029734Y007946D02*
X029186Y007946D01*
X029187Y007947D02*
X029733Y007947D01*
X029732Y007948D02*
X029188Y007948D01*
X029189Y007949D02*
X029731Y007949D01*
X029730Y007950D02*
X029190Y007950D01*
X029191Y007951D02*
X029729Y007951D01*
X029728Y007952D02*
X029192Y007952D01*
X029193Y007953D02*
X029727Y007953D01*
X029726Y007954D02*
X029194Y007954D01*
X029195Y007955D02*
X029725Y007955D01*
X029724Y007956D02*
X029196Y007956D01*
X029197Y007957D02*
X029723Y007957D01*
X029722Y007958D02*
X029198Y007958D01*
X029199Y007959D02*
X029721Y007959D01*
X029720Y007960D02*
X029200Y007960D01*
X029201Y007961D02*
X029719Y007961D01*
X029718Y007962D02*
X029202Y007962D01*
X029203Y007963D02*
X029717Y007963D01*
X029716Y007964D02*
X029204Y007964D01*
X029205Y007965D02*
X029715Y007965D01*
X029714Y007966D02*
X029206Y007966D01*
X029207Y007967D02*
X029713Y007967D01*
X029712Y007968D02*
X029208Y007968D01*
X029210Y007969D02*
X029711Y007969D01*
X029709Y007970D02*
X029211Y007970D01*
X029213Y007971D02*
X029708Y007971D01*
X029706Y007972D02*
X029214Y007972D01*
X029216Y007973D02*
X029705Y007973D01*
X029703Y007974D02*
X029217Y007974D01*
X029218Y007975D02*
X029702Y007975D01*
X029701Y007976D02*
X029220Y007976D01*
X029221Y007977D02*
X029699Y007977D01*
X029698Y007978D02*
X029223Y007978D01*
X029224Y007979D02*
X029696Y007979D01*
X029695Y007980D02*
X029226Y007980D01*
X029227Y007981D02*
X029693Y007981D01*
X029692Y007982D02*
X029228Y007982D01*
X029230Y007983D02*
X029691Y007983D01*
X029689Y007984D02*
X029231Y007984D01*
X029233Y007985D02*
X029688Y007985D01*
X029686Y007986D02*
X029234Y007986D01*
X029235Y007987D02*
X029685Y007987D01*
X029683Y007988D02*
X029237Y007988D01*
X029238Y007989D02*
X029682Y007989D01*
X029681Y007990D02*
X029240Y007990D01*
X029241Y007991D02*
X029679Y007991D01*
X029678Y007992D02*
X029243Y007992D01*
X029244Y007993D02*
X029676Y007993D01*
X029675Y007994D02*
X029245Y007994D01*
X029247Y007995D02*
X029673Y007995D01*
X029672Y007996D02*
X029248Y007996D01*
X029250Y007997D02*
X029671Y007997D01*
X029669Y007998D02*
X029251Y007998D01*
X029253Y007999D02*
X029668Y007999D01*
X029666Y008000D02*
X029254Y008000D01*
X029255Y008001D02*
X029665Y008001D01*
X029663Y008002D02*
X029257Y008002D01*
X029258Y008003D02*
X029662Y008003D01*
X029661Y008004D02*
X029260Y008004D01*
X029261Y008005D02*
X029659Y008005D01*
X029658Y008006D02*
X029263Y008006D01*
X029264Y008007D02*
X029656Y008007D01*
X029654Y008008D02*
X029267Y008008D01*
X029269Y008009D02*
X029652Y008009D01*
X029650Y008010D02*
X029271Y008010D01*
X029273Y008011D02*
X029647Y008011D01*
X029645Y008012D02*
X029275Y008012D01*
X029277Y008013D02*
X029643Y008013D01*
X029641Y008014D02*
X029279Y008014D01*
X029282Y008015D02*
X029639Y008015D01*
X029637Y008016D02*
X029284Y008016D01*
X029286Y008017D02*
X029635Y008017D01*
X029632Y008018D02*
X029288Y008018D01*
X029290Y008019D02*
X029630Y008019D01*
X029628Y008020D02*
X029292Y008020D01*
X029294Y008021D02*
X029626Y008021D01*
X029624Y008022D02*
X029297Y008022D01*
X029299Y008023D02*
X029622Y008023D01*
X029620Y008024D02*
X029301Y008024D01*
X029303Y008025D02*
X029617Y008025D01*
X029615Y008026D02*
X029305Y008026D01*
X029307Y008027D02*
X029613Y008027D01*
X029611Y008028D02*
X029309Y008028D01*
X029312Y008029D02*
X029609Y008029D01*
X029607Y008030D02*
X029314Y008030D01*
X029316Y008031D02*
X029605Y008031D01*
X029602Y008032D02*
X029318Y008032D01*
X029320Y008033D02*
X029600Y008033D01*
X029598Y008034D02*
X029322Y008034D01*
X029324Y008035D02*
X029596Y008035D01*
X029593Y008036D02*
X029327Y008036D01*
X029331Y008037D02*
X029589Y008037D01*
X029586Y008038D02*
X029335Y008038D01*
X029338Y008039D02*
X029582Y008039D01*
X029578Y008040D02*
X029342Y008040D01*
X029346Y008041D02*
X029575Y008041D01*
X029571Y008042D02*
X029350Y008042D01*
X029353Y008043D02*
X029567Y008043D01*
X029563Y008044D02*
X029357Y008044D01*
X029361Y008045D02*
X029560Y008045D01*
X029556Y008046D02*
X029365Y008046D01*
X029368Y008047D02*
X029552Y008047D01*
X029548Y008048D02*
X029372Y008048D01*
X029376Y008049D02*
X029545Y008049D01*
X029541Y008050D02*
X029379Y008050D01*
X029383Y008051D02*
X029537Y008051D01*
X029534Y008052D02*
X029387Y008052D01*
X029391Y008053D02*
X029530Y008053D01*
X029521Y008054D02*
X029400Y008054D01*
X029411Y008055D02*
X029509Y008055D01*
X029498Y008056D02*
X029422Y008056D01*
X029434Y008057D02*
X029487Y008057D01*
X029475Y008058D02*
X029445Y008058D01*
X029457Y008059D02*
X029464Y008059D01*
X029455Y004122D02*
X029465Y004122D01*
X029477Y004121D02*
X029444Y004121D01*
X029432Y004120D02*
X029488Y004120D01*
X029499Y004119D02*
X029421Y004119D01*
X029410Y004118D02*
X029511Y004118D01*
X029522Y004117D02*
X029398Y004117D01*
X029390Y004116D02*
X029530Y004116D01*
X029534Y004115D02*
X029386Y004115D01*
X029383Y004114D02*
X029538Y004114D01*
X029541Y004113D02*
X029379Y004113D01*
X029375Y004112D02*
X029545Y004112D01*
X029549Y004111D02*
X029372Y004111D01*
X029368Y004110D02*
X029553Y004110D01*
X029556Y004109D02*
X029364Y004109D01*
X029360Y004108D02*
X029560Y004108D01*
X029564Y004107D02*
X029357Y004107D01*
X029353Y004106D02*
X029567Y004106D01*
X029571Y004105D02*
X029349Y004105D01*
X029345Y004104D02*
X029575Y004104D01*
X029579Y004103D02*
X029342Y004103D01*
X029338Y004102D02*
X029582Y004102D01*
X029586Y004101D02*
X029334Y004101D01*
X029331Y004100D02*
X029590Y004100D01*
X029594Y004099D02*
X029327Y004099D01*
X029324Y004098D02*
X029596Y004098D01*
X029598Y004097D02*
X029322Y004097D01*
X029320Y004096D02*
X029601Y004096D01*
X029603Y004095D02*
X029318Y004095D01*
X029316Y004094D02*
X029605Y004094D01*
X029607Y004093D02*
X029313Y004093D01*
X029311Y004092D02*
X029609Y004092D01*
X029611Y004091D02*
X029309Y004091D01*
X029307Y004090D02*
X029613Y004090D01*
X029616Y004089D02*
X029305Y004089D01*
X029303Y004088D02*
X029618Y004088D01*
X029620Y004087D02*
X029301Y004087D01*
X029298Y004086D02*
X029622Y004086D01*
X029624Y004085D02*
X029296Y004085D01*
X029294Y004084D02*
X029626Y004084D01*
X029628Y004083D02*
X029292Y004083D01*
X029290Y004082D02*
X029631Y004082D01*
X029633Y004081D02*
X029288Y004081D01*
X029286Y004080D02*
X029635Y004080D01*
X029637Y004079D02*
X029283Y004079D01*
X029281Y004078D02*
X029639Y004078D01*
X029641Y004077D02*
X029279Y004077D01*
X029277Y004076D02*
X029643Y004076D01*
X029646Y004075D02*
X029275Y004075D01*
X029273Y004074D02*
X029648Y004074D01*
X029650Y004073D02*
X029271Y004073D01*
X029268Y004072D02*
X029652Y004072D01*
X029654Y004071D02*
X029266Y004071D01*
X029264Y004070D02*
X029656Y004070D01*
X029658Y004069D02*
X029262Y004069D01*
X029261Y004068D02*
X029659Y004068D01*
X029661Y004067D02*
X029260Y004067D01*
X029258Y004066D02*
X029662Y004066D01*
X029664Y004065D02*
X029257Y004065D01*
X029255Y004064D02*
X029665Y004064D01*
X029667Y004063D02*
X029254Y004063D01*
X029252Y004062D02*
X029668Y004062D01*
X029669Y004061D02*
X029251Y004061D01*
X029250Y004060D02*
X029671Y004060D01*
X029672Y004059D02*
X029248Y004059D01*
X029247Y004058D02*
X029674Y004058D01*
X029675Y004057D02*
X029245Y004057D01*
X029244Y004056D02*
X029676Y004056D01*
X029678Y004055D02*
X029242Y004055D01*
X029241Y004054D02*
X029679Y004054D01*
X029681Y004053D02*
X029240Y004053D01*
X029238Y004052D02*
X029682Y004052D01*
X029684Y004051D02*
X029237Y004051D01*
X029235Y004050D02*
X029685Y004050D01*
X029686Y004049D02*
X029234Y004049D01*
X029232Y004048D02*
X029688Y004048D01*
X029689Y004047D02*
X029231Y004047D01*
X029230Y004046D02*
X029691Y004046D01*
X029692Y004045D02*
X029228Y004045D01*
X029227Y004044D02*
X029694Y004044D01*
X029695Y004043D02*
X029225Y004043D01*
X029224Y004042D02*
X029696Y004042D01*
X029698Y004041D02*
X029222Y004041D01*
X029221Y004040D02*
X029699Y004040D01*
X029701Y004039D02*
X029220Y004039D01*
X029218Y004038D02*
X029702Y004038D01*
X029704Y004037D02*
X029217Y004037D01*
X029215Y004036D02*
X029705Y004036D01*
X029706Y004035D02*
X029214Y004035D01*
X029213Y004034D02*
X029708Y004034D01*
X029709Y004033D02*
X029211Y004033D01*
X029210Y004032D02*
X029711Y004032D01*
X029712Y004031D02*
X029208Y004031D01*
X029207Y004030D02*
X029713Y004030D01*
X029714Y004029D02*
X029206Y004029D01*
X029205Y004028D02*
X029715Y004028D01*
X029716Y004027D02*
X029204Y004027D01*
X029203Y004026D02*
X029717Y004026D01*
X029718Y004025D02*
X029202Y004025D01*
X029201Y004024D02*
X029719Y004024D01*
X029720Y004023D02*
X029200Y004023D01*
X029199Y004022D02*
X029721Y004022D01*
X029722Y004021D02*
X029198Y004021D01*
X029197Y004020D02*
X029723Y004020D01*
X029724Y004019D02*
X029196Y004019D01*
X029195Y004018D02*
X029725Y004018D01*
X029726Y004017D02*
X029194Y004017D01*
X029193Y004016D02*
X029727Y004016D01*
X029728Y004015D02*
X029192Y004015D01*
X029191Y004014D02*
X029729Y004014D01*
X029730Y004013D02*
X029190Y004013D01*
X029189Y004012D02*
X029731Y004012D01*
X029732Y004011D02*
X029188Y004011D01*
X029187Y004010D02*
X029733Y004010D01*
X029734Y004009D02*
X029186Y004009D01*
X029185Y004008D02*
X029735Y004008D01*
X029736Y004007D02*
X029184Y004007D01*
X029183Y004006D02*
X029737Y004006D01*
X029738Y004005D02*
X029182Y004005D01*
X029181Y004004D02*
X029739Y004004D01*
X029740Y004003D02*
X029180Y004003D01*
X029179Y004002D02*
X029741Y004002D01*
X029742Y004001D02*
X029178Y004001D01*
X029177Y004000D02*
X029743Y004000D01*
X029744Y003999D02*
X029176Y003999D01*
X029175Y003998D02*
X029745Y003998D01*
X029746Y003997D02*
X029174Y003997D01*
X029173Y003996D02*
X029747Y003996D01*
X029748Y003995D02*
X029172Y003995D01*
X029171Y003994D02*
X029749Y003994D01*
X029750Y003993D02*
X029170Y003993D01*
X029169Y003992D02*
X029751Y003992D01*
X029752Y003991D02*
X029168Y003991D01*
X029167Y003990D02*
X029753Y003990D01*
X029754Y003989D02*
X029166Y003989D01*
X029165Y003988D02*
X029755Y003988D01*
X029756Y003987D02*
X029164Y003987D01*
X029163Y003986D02*
X029757Y003986D01*
X029758Y003985D02*
X029162Y003985D01*
X029161Y003984D02*
X029759Y003984D01*
X029760Y003983D02*
X029160Y003983D01*
X029159Y003982D02*
X029761Y003982D01*
X029762Y003981D02*
X029158Y003981D01*
X029157Y003980D02*
X029763Y003980D01*
X029764Y003979D02*
X029157Y003979D01*
X029156Y003978D02*
X029764Y003978D01*
X029765Y003977D02*
X029155Y003977D01*
X029155Y003976D02*
X029766Y003976D01*
X029766Y003975D02*
X029154Y003975D01*
X029153Y003974D02*
X029767Y003974D01*
X029768Y003973D02*
X029153Y003973D01*
X029152Y003972D02*
X029769Y003972D01*
X029769Y003971D02*
X029151Y003971D01*
X029150Y003970D02*
X029770Y003970D01*
X029771Y003969D02*
X029150Y003969D01*
X029149Y003968D02*
X029771Y003968D01*
X029772Y003967D02*
X029148Y003967D01*
X029148Y003966D02*
X029773Y003966D01*
X029773Y003965D02*
X029147Y003965D01*
X029146Y003964D02*
X029774Y003964D01*
X029775Y003963D02*
X029146Y003963D01*
X029145Y003962D02*
X029776Y003962D01*
X029776Y003961D02*
X029144Y003961D01*
X029143Y003960D02*
X029777Y003960D01*
X029778Y003959D02*
X029143Y003959D01*
X029142Y003958D02*
X029778Y003958D01*
X029779Y003957D02*
X029141Y003957D01*
X029141Y003956D02*
X029780Y003956D01*
X029780Y003955D02*
X029140Y003955D01*
X029139Y003954D02*
X029781Y003954D01*
X029782Y003953D02*
X029139Y003953D01*
X029138Y003952D02*
X029783Y003952D01*
X029783Y003951D02*
X029137Y003951D01*
X029136Y003950D02*
X029784Y003950D01*
X029785Y003949D02*
X029136Y003949D01*
X029135Y003948D02*
X029785Y003948D01*
X029786Y003947D02*
X029134Y003947D01*
X029134Y003946D02*
X029787Y003946D01*
X029787Y003945D02*
X029133Y003945D01*
X029132Y003944D02*
X029788Y003944D01*
X029789Y003943D02*
X029132Y003943D01*
X029131Y003942D02*
X029790Y003942D01*
X029790Y003941D02*
X029130Y003941D01*
X029129Y003940D02*
X029791Y003940D01*
X029792Y003939D02*
X029129Y003939D01*
X029128Y003938D02*
X029792Y003938D01*
X029793Y003937D02*
X029127Y003937D01*
X029127Y003936D02*
X029794Y003936D01*
X029794Y003935D02*
X029126Y003935D01*
X029125Y003934D02*
X029795Y003934D01*
X029796Y003933D02*
X029125Y003933D01*
X029124Y003932D02*
X029797Y003932D01*
X029797Y003931D02*
X029123Y003931D01*
X029122Y003930D02*
X029798Y003930D01*
X029799Y003929D02*
X029122Y003929D01*
X029121Y003928D02*
X029799Y003928D01*
X029800Y003927D02*
X029120Y003927D01*
X029120Y003926D02*
X029801Y003926D01*
X029801Y003925D02*
X029119Y003925D01*
X029119Y003924D02*
X029802Y003924D01*
X029802Y003923D02*
X029118Y003923D01*
X029118Y003922D02*
X029803Y003922D01*
X029803Y003921D02*
X029117Y003921D01*
X029117Y003920D02*
X029804Y003920D01*
X029804Y003919D02*
X029116Y003919D01*
X029116Y003918D02*
X029805Y003918D01*
X029805Y003917D02*
X029115Y003917D01*
X029115Y003916D02*
X029806Y003916D01*
X029806Y003915D02*
X029114Y003915D01*
X029114Y003914D02*
X029806Y003914D01*
X029807Y003913D02*
X029113Y003913D01*
X029113Y003912D02*
X029807Y003912D01*
X029808Y003911D02*
X029113Y003911D01*
X029112Y003910D02*
X029808Y003910D01*
X029809Y003909D02*
X029112Y003909D01*
X029111Y003908D02*
X029809Y003908D01*
X029810Y003907D02*
X029111Y003907D01*
X029110Y003906D02*
X029810Y003906D01*
X029811Y003905D02*
X029110Y003905D01*
X029109Y003904D02*
X029811Y003904D01*
X029812Y003903D02*
X029109Y003903D01*
X029108Y003902D02*
X029812Y003902D01*
X029813Y003901D02*
X029108Y003901D01*
X029107Y003900D02*
X029813Y003900D01*
X029813Y003899D02*
X029107Y003899D01*
X029106Y003898D02*
X029814Y003898D01*
X029814Y003897D02*
X029106Y003897D01*
X029106Y003896D02*
X029815Y003896D01*
X029815Y003895D02*
X029105Y003895D01*
X029105Y003894D02*
X029816Y003894D01*
X029816Y003893D02*
X029104Y003893D01*
X029104Y003892D02*
X029817Y003892D01*
X029817Y003891D02*
X029103Y003891D01*
X029103Y003890D02*
X029818Y003890D01*
X029818Y003889D02*
X029102Y003889D01*
X029102Y003888D02*
X029819Y003888D01*
X029819Y003887D02*
X029101Y003887D01*
X029101Y003886D02*
X029819Y003886D01*
X029820Y003885D02*
X029100Y003885D01*
X029100Y003884D02*
X029820Y003884D01*
X029821Y003883D02*
X029099Y003883D01*
X029099Y003882D02*
X029821Y003882D01*
X029822Y003881D02*
X029099Y003881D01*
X029098Y003880D02*
X029822Y003880D01*
X029823Y003879D02*
X029098Y003879D01*
X029097Y003878D02*
X029823Y003878D01*
X029824Y003877D02*
X029097Y003877D01*
X029096Y003876D02*
X029824Y003876D01*
X029825Y003875D02*
X029096Y003875D01*
X029095Y003874D02*
X029825Y003874D01*
X029826Y003873D02*
X029095Y003873D01*
X029094Y003872D02*
X029826Y003872D01*
X029826Y003871D02*
X029094Y003871D01*
X029093Y003870D02*
X029827Y003870D01*
X029827Y003869D02*
X029093Y003869D01*
X029093Y003868D02*
X029828Y003868D01*
X029828Y003867D02*
X029092Y003867D01*
X029092Y003866D02*
X029829Y003866D01*
X029829Y003865D02*
X029091Y003865D01*
X029091Y003864D02*
X029830Y003864D01*
X029830Y003863D02*
X029090Y003863D01*
X029090Y003862D02*
X029830Y003862D01*
X029831Y003861D02*
X029090Y003861D01*
X029089Y003860D02*
X029831Y003860D01*
X029831Y003859D02*
X029089Y003859D01*
X029089Y003858D02*
X029832Y003858D01*
X029832Y003857D02*
X029089Y003857D01*
X029088Y003856D02*
X029832Y003856D01*
X029832Y003855D02*
X029088Y003855D01*
X029088Y003854D02*
X029833Y003854D01*
X029833Y003853D02*
X029088Y003853D01*
X029087Y003852D02*
X029833Y003852D01*
X029833Y003851D02*
X029087Y003851D01*
X029087Y003850D02*
X029834Y003850D01*
X029834Y003849D02*
X029086Y003849D01*
X029086Y003848D02*
X029834Y003848D01*
X029834Y003847D02*
X029086Y003847D01*
X029086Y003846D02*
X029835Y003846D01*
X029835Y003845D02*
X029085Y003845D01*
X029085Y003844D02*
X029835Y003844D01*
X029836Y003843D02*
X029085Y003843D01*
X029085Y003842D02*
X029836Y003842D01*
X029836Y003841D02*
X029084Y003841D01*
X029084Y003840D02*
X029836Y003840D01*
X029837Y003839D02*
X029084Y003839D01*
X029084Y003838D02*
X029837Y003838D01*
X029837Y003837D02*
X029083Y003837D01*
X029083Y003836D02*
X029837Y003836D01*
X029838Y003835D02*
X029083Y003835D01*
X029082Y003834D02*
X029838Y003834D01*
X029838Y003833D02*
X029082Y003833D01*
X029082Y003832D02*
X029838Y003832D01*
X029839Y003831D02*
X029082Y003831D01*
X029081Y003830D02*
X029839Y003830D01*
X029839Y003829D02*
X029081Y003829D01*
X029081Y003828D02*
X029840Y003828D01*
X029840Y003827D02*
X029081Y003827D01*
X029080Y003826D02*
X029840Y003826D01*
X029840Y003825D02*
X029080Y003825D01*
X029080Y003824D02*
X029841Y003824D01*
X029841Y003823D02*
X029079Y003823D01*
X029079Y003822D02*
X029841Y003822D01*
X029841Y003821D02*
X029079Y003821D01*
X029079Y003820D02*
X029842Y003820D01*
X029842Y003819D02*
X029078Y003819D01*
X029078Y003818D02*
X029842Y003818D01*
X029843Y003817D02*
X029078Y003817D01*
X029078Y003816D02*
X029843Y003816D01*
X029843Y003815D02*
X029077Y003815D01*
X029077Y003814D02*
X029843Y003814D01*
X029844Y003813D02*
X029077Y003813D01*
X029077Y003812D02*
X029844Y003812D01*
X029844Y003811D02*
X029076Y003811D01*
X029076Y003810D02*
X029844Y003810D01*
X029845Y003809D02*
X029076Y003809D01*
X029075Y003808D02*
X029845Y003808D01*
X029845Y003807D02*
X029075Y003807D01*
X029075Y003806D02*
X029845Y003806D01*
X029846Y003805D02*
X029075Y003805D01*
X029074Y003804D02*
X029846Y003804D01*
X029846Y003803D02*
X029074Y003803D01*
X029074Y003802D02*
X029847Y003802D01*
X029847Y003801D02*
X029074Y003801D01*
X029073Y003800D02*
X029847Y003800D01*
X029847Y003799D02*
X029073Y003799D01*
X029073Y003798D02*
X029848Y003798D01*
X029848Y003797D02*
X029073Y003797D01*
X029072Y003796D02*
X029848Y003796D01*
X029848Y003795D02*
X029072Y003795D01*
X029072Y003794D02*
X029848Y003794D01*
X029848Y003793D02*
X029072Y003793D01*
X029072Y003792D02*
X029848Y003792D01*
X029848Y003791D02*
X029072Y003791D01*
X029072Y003790D02*
X029849Y003790D01*
X029849Y003789D02*
X029072Y003789D01*
X029072Y003788D02*
X029849Y003788D01*
X029072Y003788D01*
X029072Y003787D02*
X029849Y003787D01*
X029849Y003786D02*
X029071Y003786D01*
X029071Y003785D02*
X029849Y003785D01*
X029849Y003784D02*
X029071Y003784D01*
X029071Y003783D02*
X029849Y003783D01*
X029849Y003782D02*
X029071Y003782D01*
X029071Y003781D02*
X029849Y003781D01*
X029849Y003780D02*
X029071Y003780D01*
X029071Y003779D02*
X029850Y003779D01*
X029850Y003778D02*
X029071Y003778D01*
X029071Y003777D02*
X029850Y003777D01*
X029850Y003776D02*
X029071Y003776D01*
X029070Y003775D02*
X029850Y003775D01*
X029850Y003774D02*
X029070Y003774D01*
X029070Y003773D02*
X029850Y003773D01*
X029850Y003772D02*
X029070Y003772D01*
X029070Y003771D02*
X029850Y003771D01*
X029850Y003770D02*
X029070Y003770D01*
X029070Y003769D02*
X029850Y003769D01*
X029851Y003768D02*
X029070Y003768D01*
X029070Y003767D02*
X029851Y003767D01*
X029851Y003766D02*
X029070Y003766D01*
X029070Y003765D02*
X029851Y003765D01*
X029851Y003764D02*
X029070Y003764D01*
X029069Y003763D02*
X029851Y003763D01*
X029851Y003762D02*
X029069Y003762D01*
X029069Y003761D02*
X029851Y003761D01*
X029851Y003760D02*
X029069Y003760D01*
X029069Y003759D02*
X029851Y003759D01*
X029851Y003758D02*
X029069Y003758D01*
X029069Y003757D02*
X029851Y003757D01*
X029852Y003756D02*
X029069Y003756D01*
X029069Y003755D02*
X029852Y003755D01*
X029852Y003754D02*
X029069Y003754D01*
X029069Y003753D02*
X029852Y003753D01*
X029852Y003752D02*
X029068Y003752D01*
X029068Y003751D02*
X029852Y003751D01*
X029852Y003750D02*
X029068Y003750D01*
X029068Y003749D02*
X029852Y003749D01*
X029852Y003748D02*
X029068Y003748D01*
X029068Y003747D02*
X029852Y003747D01*
X029852Y003746D02*
X029068Y003746D01*
X029068Y003745D02*
X029853Y003745D01*
X029853Y003744D02*
X029068Y003744D01*
X029068Y003743D02*
X029853Y003743D01*
X029853Y003742D02*
X029068Y003742D01*
X029068Y003741D02*
X029853Y003741D01*
X029853Y003740D02*
X029067Y003740D01*
X029067Y003739D02*
X029853Y003739D01*
X029853Y003738D02*
X029067Y003738D01*
X029067Y003737D02*
X029853Y003737D01*
X029853Y003736D02*
X029067Y003736D01*
X029067Y003735D02*
X029853Y003735D01*
X029853Y003734D02*
X029067Y003734D01*
X029067Y003733D02*
X029854Y003733D01*
X029854Y003732D02*
X029067Y003732D01*
X029067Y003731D02*
X029854Y003731D01*
X029854Y003730D02*
X029067Y003730D01*
X029066Y003729D02*
X029854Y003729D01*
X029854Y003728D02*
X029066Y003728D01*
X029066Y003727D02*
X029854Y003727D01*
X029854Y003726D02*
X029066Y003726D01*
X029066Y003725D02*
X029854Y003725D01*
X029854Y003724D02*
X029066Y003724D01*
X029066Y003723D02*
X029854Y003723D01*
X029854Y003722D02*
X029066Y003722D01*
X029066Y003721D02*
X029854Y003721D01*
X029854Y003720D02*
X029066Y003720D01*
X029066Y003719D02*
X029854Y003719D01*
X029854Y003718D02*
X029066Y003718D01*
X029066Y003717D02*
X029854Y003717D01*
X029854Y003716D02*
X029066Y003716D01*
X029066Y003715D02*
X029854Y003715D01*
X029854Y003714D02*
X029066Y003714D01*
X029066Y003713D02*
X029854Y003713D01*
X029854Y003712D02*
X029066Y003712D01*
X029066Y003711D02*
X029854Y003711D01*
X029854Y003710D02*
X029066Y003710D01*
X029066Y003709D02*
X029854Y003709D01*
X029854Y003708D02*
X029066Y003708D01*
X029066Y003707D02*
X029854Y003707D01*
X029854Y003706D02*
X029066Y003706D01*
X029066Y003705D02*
X029854Y003705D01*
X029854Y003704D02*
X029066Y003704D01*
X029066Y003703D02*
X029854Y003703D01*
X029854Y003702D02*
X029066Y003702D01*
X029066Y003701D02*
X029854Y003701D01*
X029854Y003700D02*
X029066Y003700D01*
X029066Y003699D02*
X029854Y003699D01*
X029854Y003698D02*
X029066Y003698D01*
X029066Y003697D02*
X029854Y003697D01*
X029854Y003696D02*
X029066Y003696D01*
X029066Y003695D02*
X029854Y003695D01*
X029854Y003694D02*
X029066Y003694D01*
X029066Y003693D02*
X029854Y003693D01*
X029854Y003692D02*
X029066Y003692D01*
X029066Y003691D02*
X029854Y003691D01*
X029854Y003690D02*
X029066Y003690D01*
X029066Y003689D02*
X029854Y003689D01*
X029854Y003688D02*
X029066Y003688D01*
X029066Y003687D02*
X029854Y003687D01*
X029854Y003686D02*
X029066Y003686D01*
X029066Y003685D02*
X029854Y003685D01*
X029854Y003684D02*
X029066Y003684D01*
X029066Y003683D02*
X029854Y003683D01*
X029854Y003682D02*
X029066Y003682D01*
X029066Y003681D02*
X029854Y003681D01*
X029854Y003680D02*
X029066Y003680D01*
X029066Y003679D02*
X029854Y003679D01*
X029854Y003678D02*
X029066Y003678D01*
X029066Y003677D02*
X029854Y003677D01*
X029854Y003676D02*
X029066Y003676D01*
X029066Y003675D02*
X029854Y003675D01*
X029854Y003674D02*
X029066Y003674D01*
X029066Y003673D02*
X029854Y003673D01*
X029854Y003672D02*
X029066Y003672D01*
X029066Y003671D02*
X029854Y003671D01*
X029854Y003670D02*
X029066Y003670D01*
X029066Y003669D02*
X029854Y003669D01*
X029854Y003668D02*
X029066Y003668D01*
X029066Y003667D02*
X029854Y003667D01*
X029854Y003666D02*
X029066Y003666D01*
X029066Y003665D02*
X029854Y003665D01*
X029854Y003664D02*
X029066Y003664D01*
X029066Y003663D02*
X029854Y003663D01*
X029854Y003662D02*
X029066Y003662D01*
X029066Y003661D02*
X029854Y003661D01*
X029854Y003660D02*
X029066Y003660D01*
X029066Y003659D02*
X029854Y003659D01*
X029854Y003658D02*
X029066Y003658D01*
X029066Y003657D02*
X029854Y003657D01*
X029854Y003656D02*
X029066Y003656D01*
X029066Y003655D02*
X029854Y003655D01*
X029854Y003654D02*
X029066Y003654D01*
X029066Y003653D02*
X029854Y003653D01*
X029854Y003652D02*
X029066Y003652D01*
X029066Y003651D02*
X029854Y003651D01*
X029854Y003650D02*
X029066Y003650D01*
X029066Y003649D02*
X029854Y003649D01*
X029854Y003648D02*
X029066Y003648D01*
X029066Y003647D02*
X029854Y003647D01*
X029854Y003646D02*
X029066Y003646D01*
X029066Y003645D02*
X029854Y003645D01*
X029854Y003644D02*
X029066Y003644D01*
X029066Y003643D02*
X029854Y003643D01*
X029854Y003642D02*
X029066Y003642D01*
X029066Y003641D02*
X029854Y003641D01*
X029854Y003640D02*
X029066Y003640D01*
X029066Y003639D02*
X029854Y003639D01*
X029854Y003638D02*
X029066Y003638D01*
X029066Y003637D02*
X029854Y003637D01*
X029854Y003636D02*
X029066Y003636D01*
X029066Y003635D02*
X029854Y003635D01*
X029854Y003634D02*
X029066Y003634D01*
X029066Y003633D02*
X029854Y003633D01*
X029854Y003632D02*
X029066Y003632D01*
X029066Y003631D02*
X029854Y003631D01*
X029854Y003630D02*
X029066Y003630D01*
X029066Y003629D02*
X029854Y003629D01*
X029854Y003628D02*
X029066Y003628D01*
X029066Y003627D02*
X029854Y003627D01*
X029854Y003626D02*
X029066Y003626D01*
X029066Y003625D02*
X029854Y003625D01*
X029854Y003624D02*
X029066Y003624D01*
X029066Y003623D02*
X029854Y003623D01*
X029854Y003622D02*
X029066Y003622D01*
X029066Y003621D02*
X029854Y003621D01*
X029854Y003620D02*
X029066Y003620D01*
X029066Y003619D02*
X029854Y003619D01*
X029854Y003618D02*
X029066Y003618D01*
X029066Y003617D02*
X029854Y003617D01*
X029854Y003616D02*
X029066Y003616D01*
X029066Y003615D02*
X029854Y003615D01*
X029854Y003614D02*
X029066Y003614D01*
X029066Y003613D02*
X029854Y003613D01*
X029854Y003612D02*
X029066Y003612D01*
X029066Y003611D02*
X029854Y003611D01*
X029854Y003610D02*
X029066Y003610D01*
X029066Y003609D02*
X029854Y003609D01*
X029854Y003608D02*
X029066Y003608D01*
X029066Y003607D02*
X029854Y003607D01*
X029854Y003606D02*
X029066Y003606D01*
X029066Y003605D02*
X029854Y003605D01*
X029854Y003604D02*
X029066Y003604D01*
X029066Y003603D02*
X029854Y003603D01*
X029854Y003602D02*
X029066Y003602D01*
X029066Y003601D02*
X029854Y003601D01*
X029854Y003600D02*
X029066Y003600D01*
X029066Y003599D02*
X029854Y003599D01*
X029854Y003598D02*
X029066Y003598D01*
X029066Y003597D02*
X029854Y003597D01*
X029854Y003596D02*
X029066Y003596D01*
X029066Y003595D02*
X029854Y003595D01*
X029854Y003594D02*
X029066Y003594D01*
X029066Y003593D02*
X029854Y003593D01*
X029854Y003592D02*
X029066Y003592D01*
X029066Y003591D02*
X029854Y003591D01*
X029854Y003590D02*
X029066Y003590D01*
X029066Y003589D02*
X029854Y003589D01*
X029854Y003588D02*
X029066Y003588D01*
X029066Y003587D02*
X029854Y003587D01*
X029854Y003586D02*
X029066Y003586D01*
X029066Y003585D02*
X029854Y003585D01*
X029854Y003584D02*
X029066Y003584D01*
X029066Y003583D02*
X029854Y003583D01*
X029854Y003582D02*
X029066Y003582D01*
X029066Y003581D02*
X029854Y003581D01*
X029854Y003580D02*
X029066Y003580D01*
X029066Y003579D02*
X029854Y003579D01*
X029854Y003578D02*
X029066Y003578D01*
X029066Y003577D02*
X029854Y003577D01*
X029854Y003576D02*
X029066Y003576D01*
X029066Y003575D02*
X029854Y003575D01*
X029854Y003574D02*
X029066Y003574D01*
X029066Y003573D02*
X029854Y003573D01*
X029854Y003572D02*
X029066Y003572D01*
X029066Y003571D02*
X029854Y003571D01*
X029854Y003570D02*
X029066Y003570D01*
X029066Y003569D02*
X029854Y003569D01*
X029854Y003568D02*
X029066Y003568D01*
X029066Y003567D02*
X029854Y003567D01*
X029854Y003566D02*
X029066Y003566D01*
X029066Y003565D02*
X029854Y003565D01*
X029854Y003564D02*
X029066Y003564D01*
X029066Y003563D02*
X029854Y003563D01*
X029854Y003562D02*
X029066Y003562D01*
X029066Y003561D02*
X029854Y003561D01*
X029854Y003560D02*
X029066Y003560D01*
X029066Y003559D02*
X029854Y003559D01*
X029854Y003558D02*
X029066Y003558D01*
X029066Y003557D02*
X029854Y003557D01*
X029854Y003556D02*
X029066Y003556D01*
X029066Y003555D02*
X029854Y003555D01*
X029854Y003554D02*
X029066Y003554D01*
X029066Y003553D02*
X029854Y003553D01*
X029854Y003552D02*
X029066Y003552D01*
X029066Y003551D02*
X029854Y003551D01*
X029854Y003550D02*
X029066Y003550D01*
X029066Y003549D02*
X029854Y003549D01*
X029854Y003548D02*
X029066Y003548D01*
X029066Y003547D02*
X029854Y003547D01*
X029854Y003546D02*
X029066Y003546D01*
X029066Y003545D02*
X029854Y003545D01*
X029854Y003544D02*
X029066Y003544D01*
X029066Y003543D02*
X029854Y003543D01*
X029854Y003542D02*
X029066Y003542D01*
X029066Y003541D02*
X029854Y003541D01*
X029854Y003540D02*
X029066Y003540D01*
X029066Y003539D02*
X029854Y003539D01*
X029854Y003538D02*
X029066Y003538D01*
X029066Y003537D02*
X029854Y003537D01*
X029854Y003536D02*
X029066Y003536D01*
X029066Y003535D02*
X029854Y003535D01*
X029854Y003534D02*
X029066Y003534D01*
X029066Y003533D02*
X029854Y003533D01*
X029854Y003532D02*
X029066Y003532D01*
X029066Y003531D02*
X029854Y003531D01*
X029854Y003530D02*
X029066Y003530D01*
X029066Y003529D02*
X029854Y003529D01*
X029854Y003528D02*
X029066Y003528D01*
X029066Y003527D02*
X029854Y003527D01*
X029854Y003526D02*
X029066Y003526D01*
X029066Y003525D02*
X029854Y003525D01*
X029854Y003524D02*
X029066Y003524D01*
X029066Y003523D02*
X029854Y003523D01*
X029854Y003522D02*
X029066Y003522D01*
X029066Y003521D02*
X029854Y003521D01*
X029854Y003520D02*
X029066Y003520D01*
X029066Y003519D02*
X029854Y003519D01*
X029854Y003518D02*
X029066Y003518D01*
X029066Y003517D02*
X029854Y003517D01*
X029854Y003516D02*
X029066Y003516D01*
X029066Y003515D02*
X029854Y003515D01*
X029854Y003514D02*
X029066Y003514D01*
X029066Y003513D02*
X029854Y003513D01*
X029854Y003512D02*
X029066Y003512D01*
X029066Y003511D02*
X029854Y003511D01*
X029854Y003510D02*
X029066Y003510D01*
X029066Y003509D02*
X029854Y003509D01*
X029854Y003508D02*
X029066Y003508D01*
X029066Y003507D02*
X029854Y003507D01*
X029854Y003506D02*
X029066Y003506D01*
X029066Y003505D02*
X029854Y003505D01*
X029854Y003504D02*
X029066Y003504D01*
X029066Y003503D02*
X029854Y003503D01*
X029854Y003502D02*
X029066Y003502D01*
X029066Y003501D02*
X029854Y003501D01*
X029854Y003500D02*
X029066Y003500D01*
X029066Y003499D02*
X029854Y003499D01*
X029854Y003498D02*
X029066Y003498D01*
X029066Y003497D02*
X029854Y003497D01*
X029854Y003496D02*
X029066Y003496D01*
X029066Y003495D02*
X029854Y003495D01*
X029854Y003494D02*
X029066Y003494D01*
X029066Y003493D02*
X029854Y003493D01*
X029854Y003492D02*
X029066Y003492D01*
X029066Y003491D02*
X029854Y003491D01*
X029854Y003490D02*
X029066Y003490D01*
X029066Y003489D02*
X029854Y003489D01*
X029854Y003488D02*
X029066Y003488D01*
X029066Y003487D02*
X029854Y003487D01*
X029854Y003486D02*
X029066Y003486D01*
X029066Y003485D02*
X029854Y003485D01*
X029854Y003484D02*
X029066Y003484D01*
X029066Y003483D02*
X029854Y003483D01*
X029854Y003482D02*
X029066Y003482D01*
X029066Y003481D02*
X029854Y003481D01*
X029854Y003480D02*
X029066Y003480D01*
X029066Y003479D02*
X029854Y003479D01*
X029854Y003478D02*
X029066Y003478D01*
X029066Y003477D02*
X029854Y003477D01*
X029854Y003476D02*
X029066Y003476D01*
X029066Y003475D02*
X029854Y003475D01*
X029854Y003474D02*
X029066Y003474D01*
X029066Y003473D02*
X029854Y003473D01*
X029854Y003472D02*
X029066Y003472D01*
X029066Y003471D02*
X029854Y003471D01*
X029854Y003470D02*
X029066Y003470D01*
X029066Y003469D02*
X029854Y003469D01*
X029854Y003468D02*
X029066Y003468D01*
X029066Y003467D02*
X029854Y003467D01*
X029854Y003466D02*
X029066Y003466D01*
X029066Y003465D02*
X029854Y003465D01*
X029854Y003464D02*
X029066Y003464D01*
X029066Y003463D02*
X029854Y003463D01*
X029854Y003462D02*
X029066Y003462D01*
X029066Y003461D02*
X029854Y003461D01*
X029854Y003460D02*
X029066Y003460D01*
X029066Y003459D02*
X029854Y003459D01*
X029854Y003458D02*
X029066Y003458D01*
X029066Y003457D02*
X029854Y003457D01*
X029854Y003456D02*
X029066Y003456D01*
X029066Y003455D02*
X029854Y003455D01*
X029854Y003454D02*
X029066Y003454D01*
X029066Y003453D02*
X029854Y003453D01*
X029854Y003452D02*
X029066Y003452D01*
X029066Y003451D02*
X029854Y003451D01*
X029854Y003450D02*
X029066Y003450D01*
X029066Y003449D02*
X029854Y003449D01*
X029854Y003448D02*
X029066Y003448D01*
X029066Y003447D02*
X029854Y003447D01*
X029854Y003446D02*
X029066Y003446D01*
X029066Y003445D02*
X029854Y003445D01*
X029854Y003444D02*
X029066Y003444D01*
X029066Y003443D02*
X029854Y003443D01*
X029854Y003442D02*
X029066Y003442D01*
X029066Y003441D02*
X029854Y003441D01*
X029854Y003440D02*
X029066Y003440D01*
X029066Y003439D02*
X029854Y003439D01*
X029854Y003438D02*
X029066Y003438D01*
X029066Y003437D02*
X029854Y003437D01*
X029854Y003436D02*
X029066Y003436D01*
X029066Y003435D02*
X029854Y003435D01*
X029854Y003434D02*
X029066Y003434D01*
X029066Y003433D02*
X029854Y003433D01*
X029854Y003432D02*
X029066Y003432D01*
X029066Y003431D02*
X029854Y003431D01*
X029854Y003430D02*
X029066Y003430D01*
X029066Y003429D02*
X029854Y003429D01*
X029854Y003428D02*
X029066Y003428D01*
X029066Y003427D02*
X029854Y003427D01*
X029854Y003426D02*
X029066Y003426D01*
X029066Y003425D02*
X029854Y003425D01*
X029854Y003424D02*
X029066Y003424D01*
X029066Y003423D02*
X029854Y003423D01*
X029854Y003422D02*
X029066Y003422D01*
X029066Y003421D02*
X029854Y003421D01*
X029854Y003420D02*
X029066Y003420D01*
X029066Y003419D02*
X029854Y003419D01*
X029854Y003418D02*
X029066Y003418D01*
X029066Y003417D02*
X029854Y003417D01*
X029854Y003416D02*
X029066Y003416D01*
X029066Y003415D02*
X029854Y003415D01*
X029854Y003414D02*
X029066Y003414D01*
X029066Y003413D02*
X029854Y003413D01*
X029854Y003412D02*
X029066Y003412D01*
X029066Y003411D02*
X029854Y003411D01*
X029854Y003410D02*
X029066Y003410D01*
X029066Y003409D02*
X029854Y003409D01*
X029854Y003408D02*
X029066Y003408D01*
X029066Y003407D02*
X029854Y003407D01*
X029854Y003406D02*
X029066Y003406D01*
X029066Y003405D02*
X029854Y003405D01*
X029854Y003404D02*
X029066Y003404D01*
X029066Y003403D02*
X029854Y003403D01*
X029854Y003402D02*
X029066Y003402D01*
X029066Y003401D02*
X029854Y003401D01*
X029854Y003400D02*
X029066Y003400D01*
X029066Y003399D02*
X029854Y003399D01*
X029854Y003398D02*
X029066Y003398D01*
X029066Y003397D02*
X029854Y003397D01*
X029854Y003396D02*
X029066Y003396D01*
X029066Y003395D02*
X029854Y003395D01*
X029854Y003394D02*
X029066Y003394D01*
X029066Y003393D02*
X029854Y003393D01*
X029854Y003392D02*
X029066Y003392D01*
X029066Y003391D02*
X029854Y003391D01*
X029854Y003390D02*
X029066Y003390D01*
X029066Y003389D02*
X029854Y003389D01*
X029854Y003388D02*
X029066Y003388D01*
X029066Y003387D02*
X029854Y003387D01*
X029854Y003386D02*
X029066Y003386D01*
X029066Y003385D02*
X029854Y003385D01*
X029854Y003384D02*
X029066Y003384D01*
X029066Y003383D02*
X029854Y003383D01*
X029854Y003382D02*
X029066Y003382D01*
X029066Y003381D02*
X029854Y003381D01*
X029854Y003380D02*
X029066Y003380D01*
X029066Y003379D02*
X029854Y003379D01*
X029854Y003378D02*
X029066Y003378D01*
X029066Y003377D02*
X029854Y003377D01*
X029854Y003376D02*
X029066Y003376D01*
X029066Y003375D02*
X029854Y003375D01*
X029854Y003374D02*
X029066Y003374D01*
X029066Y003373D02*
X029854Y003373D01*
X029854Y003372D02*
X029066Y003372D01*
X029066Y003371D02*
X029854Y003371D01*
X029854Y003370D02*
X029066Y003370D01*
X029066Y003369D02*
X029854Y003369D01*
X029854Y003368D02*
X029066Y003368D01*
X029066Y003367D02*
X029854Y003367D01*
X029854Y003366D02*
X029066Y003366D01*
X029066Y003365D02*
X029854Y003365D01*
X029854Y003364D02*
X029066Y003364D01*
X029066Y003363D02*
X029854Y003363D01*
X029854Y003362D02*
X029066Y003362D01*
X029066Y003361D02*
X029854Y003361D01*
X029854Y003360D02*
X029066Y003360D01*
X029066Y003359D02*
X029854Y003359D01*
X029854Y003358D02*
X029066Y003358D01*
X029066Y003357D02*
X029854Y003357D01*
X029854Y003356D02*
X029066Y003356D01*
X029066Y003355D02*
X029854Y003355D01*
X029854Y003354D02*
X029066Y003354D01*
X029066Y003353D02*
X029854Y003353D01*
X029854Y003352D02*
X029066Y003352D01*
X029066Y003351D02*
X029854Y003351D01*
X029854Y003350D02*
X029066Y003350D01*
X029066Y003349D02*
X029854Y003349D01*
X029854Y003348D02*
X029066Y003348D01*
X029066Y003347D02*
X029854Y003347D01*
X029854Y003346D02*
X029066Y003346D01*
X029066Y003345D02*
X029854Y003345D01*
X029854Y003344D02*
X029066Y003344D01*
X029066Y003343D02*
X029854Y003343D01*
X029854Y003342D02*
X029066Y003342D01*
X029066Y003341D02*
X029854Y003341D01*
X029854Y003340D02*
X029066Y003340D01*
X029066Y003339D02*
X029854Y003339D01*
X029854Y003338D02*
X029066Y003338D01*
X029066Y003337D02*
X029854Y003337D01*
X029854Y003336D02*
X029066Y003336D01*
X029066Y003335D02*
X029854Y003335D01*
X029854Y003334D02*
X029066Y003334D01*
X029066Y003333D02*
X029854Y003333D01*
X029854Y003332D02*
X029066Y003332D01*
X029066Y003331D02*
X029854Y003331D01*
X029854Y003330D02*
X029066Y003330D01*
X029066Y003329D02*
X029854Y003329D01*
X029854Y003328D02*
X029066Y003328D01*
X029066Y003327D02*
X029854Y003327D01*
X029854Y003326D02*
X029066Y003326D01*
X029066Y003325D02*
X029854Y003325D01*
X029854Y003324D02*
X029066Y003324D01*
X029066Y003323D02*
X029854Y003323D01*
X029854Y003322D02*
X029066Y003322D01*
X029066Y003321D02*
X029854Y003321D01*
X029854Y003320D02*
X029066Y003320D01*
X029066Y003319D02*
X029854Y003319D01*
X029854Y003318D02*
X029066Y003318D01*
X029066Y003317D02*
X029854Y003317D01*
X029854Y003316D02*
X029066Y003316D01*
X029066Y003315D02*
X029854Y003315D01*
X029854Y003314D02*
X029066Y003314D01*
X029066Y003313D02*
X029854Y003313D01*
X029854Y003312D02*
X029066Y003312D01*
X029066Y003311D02*
X029854Y003311D01*
X029854Y003310D02*
X029066Y003310D01*
X029066Y003309D02*
X029854Y003309D01*
X029854Y003308D02*
X029066Y003308D01*
X029066Y003307D02*
X029854Y003307D01*
X029854Y003306D02*
X029066Y003306D01*
X029066Y003305D02*
X029854Y003305D01*
X029854Y003304D02*
X029066Y003304D01*
X029066Y003303D02*
X029854Y003303D01*
X029854Y003302D02*
X029066Y003302D01*
X029066Y003301D02*
X029854Y003301D01*
X029854Y003300D02*
X029066Y003300D01*
X029066Y003299D02*
X029854Y003299D01*
X029854Y003298D02*
X029066Y003298D01*
X029066Y003297D02*
X029854Y003297D01*
X029854Y003296D02*
X029066Y003296D01*
X029066Y003295D02*
X029854Y003295D01*
X029854Y003294D02*
X029066Y003294D01*
X029066Y003293D02*
X029854Y003293D01*
X029854Y003292D02*
X029066Y003292D01*
X029066Y003291D02*
X029854Y003291D01*
X029854Y003290D02*
X029066Y003290D01*
X029066Y003289D02*
X029854Y003289D01*
X029854Y003288D02*
X029066Y003288D01*
X029066Y003287D02*
X029854Y003287D01*
X029854Y003286D02*
X029066Y003286D01*
X029066Y003285D02*
X029854Y003285D01*
X029854Y003284D02*
X029066Y003284D01*
X029066Y003283D02*
X029854Y003283D01*
X029854Y003282D02*
X029066Y003282D01*
X029066Y003281D02*
X029854Y003281D01*
X029854Y003280D02*
X029066Y003280D01*
X029066Y003279D02*
X029854Y003279D01*
X029854Y003278D02*
X029066Y003278D01*
X029066Y003277D02*
X029854Y003277D01*
X029854Y003276D02*
X029066Y003276D01*
X029066Y003275D02*
X029854Y003275D01*
X029854Y003274D02*
X029066Y003274D01*
X029066Y003273D02*
X029854Y003273D01*
X029854Y003272D02*
X029066Y003272D01*
X029066Y003271D02*
X029854Y003271D01*
X029854Y003270D02*
X029066Y003270D01*
X029066Y003269D02*
X029854Y003269D01*
X029854Y003268D02*
X029066Y003268D01*
X029066Y003267D02*
X029854Y003267D01*
X029854Y003266D02*
X029066Y003266D01*
X029066Y003265D02*
X029854Y003265D01*
X029854Y003264D02*
X029066Y003264D01*
X029066Y003263D02*
X029854Y003263D01*
X029854Y003262D02*
X029066Y003262D01*
X029066Y003261D02*
X029854Y003261D01*
X029854Y003260D02*
X029066Y003260D01*
X029066Y003259D02*
X029854Y003259D01*
X029854Y003258D02*
X029066Y003258D01*
X029066Y003257D02*
X029854Y003257D01*
X029854Y003256D02*
X029066Y003256D01*
X029066Y003255D02*
X029854Y003255D01*
X029854Y003254D02*
X029066Y003254D01*
X029066Y003253D02*
X029854Y003253D01*
X029854Y003252D02*
X029066Y003252D01*
X029066Y003251D02*
X029854Y003251D01*
X029854Y003250D02*
X029066Y003250D01*
X029066Y003249D02*
X029854Y003249D01*
X029854Y003248D02*
X029066Y003248D01*
X029066Y003247D02*
X029854Y003247D01*
X029854Y003246D02*
X029066Y003246D01*
X029066Y003245D02*
X029854Y003245D01*
X029854Y003244D02*
X029066Y003244D01*
X029066Y003243D02*
X029854Y003243D01*
X029854Y003242D02*
X029066Y003242D01*
X029066Y003241D02*
X029854Y003241D01*
X029854Y003240D02*
X029066Y003240D01*
X029066Y003239D02*
X029854Y003239D01*
X029854Y003238D02*
X029066Y003238D01*
X029066Y003237D02*
X029854Y003237D01*
X029854Y003236D02*
X029066Y003236D01*
X029066Y003235D02*
X029854Y003235D01*
X029854Y003234D02*
X029066Y003234D01*
X029066Y003233D02*
X029854Y003233D01*
X029854Y003232D02*
X029066Y003232D01*
X029066Y003231D02*
X029854Y003231D01*
X029854Y003230D02*
X029066Y003230D01*
X029066Y003229D02*
X029854Y003229D01*
X029854Y003228D02*
X029066Y003228D01*
X029066Y003227D02*
X029854Y003227D01*
X029854Y003226D02*
X029066Y003226D01*
X029066Y003225D02*
X029854Y003225D01*
X029854Y003224D02*
X029066Y003224D01*
X029066Y003223D02*
X029854Y003223D01*
X029854Y003222D02*
X029066Y003222D01*
X029066Y003221D02*
X029854Y003221D01*
X029854Y003220D02*
X029066Y003220D01*
X029066Y003219D02*
X029854Y003219D01*
X029854Y003218D02*
X029066Y003218D01*
X029066Y003217D02*
X029854Y003217D01*
X029854Y003216D02*
X029066Y003216D01*
X029066Y003215D02*
X029854Y003215D01*
X029854Y003214D02*
X029066Y003214D01*
X029066Y003213D02*
X029854Y003213D01*
X029854Y003212D02*
X029066Y003212D01*
X029066Y003211D02*
X029854Y003211D01*
X029854Y003210D02*
X029066Y003210D01*
X029066Y003209D02*
X029854Y003209D01*
X029854Y003208D02*
X029066Y003208D01*
X029066Y003207D02*
X029854Y003207D01*
X029854Y003206D02*
X029066Y003206D01*
X029066Y003205D02*
X029854Y003205D01*
X029854Y003204D02*
X029066Y003204D01*
X029066Y003203D02*
X029854Y003203D01*
X029854Y003202D02*
X029066Y003202D01*
X029066Y003201D02*
X029854Y003201D01*
X029854Y003200D02*
X029066Y003200D01*
X029066Y003199D02*
X029854Y003199D01*
X029854Y003198D02*
X029066Y003198D01*
X029066Y003197D02*
X029854Y003197D01*
X029854Y003196D02*
X029066Y003196D01*
X029066Y003195D02*
X029854Y003195D01*
X029854Y003194D02*
X029066Y003194D01*
X029066Y003193D02*
X029854Y003193D01*
X029854Y003192D02*
X029066Y003192D01*
X029066Y003191D02*
X029854Y003191D01*
X029854Y003190D02*
X029066Y003190D01*
X029066Y003189D02*
X029854Y003189D01*
X029854Y003188D02*
X029066Y003188D01*
X029066Y003187D02*
X029854Y003187D01*
X029854Y003186D02*
X029066Y003186D01*
X029066Y003185D02*
X029854Y003185D01*
X029854Y003184D02*
X029066Y003184D01*
X029066Y003183D02*
X029854Y003183D01*
X029854Y003182D02*
X029066Y003182D01*
X029066Y003181D02*
X029854Y003181D01*
X029854Y003180D02*
X029066Y003180D01*
X029066Y003179D02*
X029854Y003179D01*
X029854Y003178D02*
X029066Y003178D01*
X029066Y003177D02*
X029854Y003177D01*
X029854Y003176D02*
X029066Y003176D01*
X029066Y003175D02*
X029854Y003175D01*
X029854Y003174D02*
X029066Y003174D01*
X029066Y003173D02*
X029854Y003173D01*
X029854Y003172D02*
X029066Y003172D01*
X029066Y003171D02*
X029854Y003171D01*
X029854Y003170D02*
X029066Y003170D01*
X029066Y003169D02*
X029854Y003169D01*
X029854Y003168D02*
X029066Y003168D01*
X029066Y003167D02*
X029854Y003167D01*
X029854Y003166D02*
X029066Y003166D01*
X029066Y003165D02*
X029854Y003165D01*
X029854Y003164D02*
X029066Y003164D01*
X029066Y003163D02*
X029854Y003163D01*
X029854Y003162D02*
X029066Y003162D01*
X029066Y003161D02*
X029854Y003161D01*
X029854Y003160D02*
X029066Y003160D01*
X029066Y003159D02*
X029854Y003159D01*
X029854Y003158D02*
X029066Y003158D01*
X029066Y003157D02*
X029854Y003157D01*
X029854Y003156D02*
X029066Y003156D01*
X029066Y003155D02*
X029854Y003155D01*
X029854Y003154D02*
X029066Y003154D01*
X029066Y003153D02*
X029854Y003153D01*
X029854Y003152D02*
X029066Y003152D01*
X029066Y003151D02*
X029854Y003151D01*
X029854Y003150D02*
X029066Y003150D01*
X029066Y003149D02*
X029854Y003149D01*
X029854Y003148D02*
X029066Y003148D01*
X029066Y003147D02*
X029854Y003147D01*
X029854Y003146D02*
X029066Y003146D01*
X029066Y003145D02*
X029854Y003145D01*
X029854Y003144D02*
X029066Y003144D01*
X029066Y003143D02*
X029854Y003143D01*
X029854Y003142D02*
X029066Y003142D01*
X029066Y003141D02*
X029854Y003141D01*
X029854Y003140D02*
X029066Y003140D01*
X029066Y003139D02*
X029854Y003139D01*
X029854Y003138D02*
X029066Y003138D01*
X029066Y003137D02*
X029854Y003137D01*
X029854Y003136D02*
X029066Y003136D01*
X029066Y003135D02*
X029854Y003135D01*
X029854Y003134D02*
X029066Y003134D01*
X029066Y003133D02*
X029854Y003133D01*
X029854Y003132D02*
X029066Y003132D01*
X029066Y003131D02*
X029854Y003131D01*
X029854Y003130D02*
X029066Y003130D01*
X029066Y003129D02*
X029854Y003129D01*
X029854Y003128D02*
X029066Y003128D01*
X029066Y003127D02*
X029854Y003127D01*
X029854Y003126D02*
X029066Y003126D01*
X029066Y003125D02*
X029854Y003125D01*
X029854Y003124D02*
X029066Y003124D01*
X029066Y003123D02*
X029854Y003123D01*
X029854Y003122D02*
X029066Y003122D01*
X029066Y003121D02*
X029854Y003121D01*
X029854Y003120D02*
X029066Y003120D01*
X029066Y003119D02*
X029854Y003119D01*
X029854Y003118D02*
X029066Y003118D01*
X029066Y003117D02*
X029854Y003117D01*
X029854Y003116D02*
X029066Y003116D01*
X029066Y003115D02*
X029854Y003115D01*
X029854Y003114D02*
X029066Y003114D01*
X029066Y003113D02*
X029854Y003113D01*
X029854Y003112D02*
X029066Y003112D01*
X029066Y003111D02*
X029854Y003111D01*
X029854Y003110D02*
X029066Y003110D01*
X029066Y003109D02*
X029854Y003109D01*
X029854Y003108D02*
X029066Y003108D01*
X029066Y003107D02*
X029854Y003107D01*
X029854Y003106D02*
X029066Y003106D01*
X029066Y003105D02*
X029854Y003105D01*
X029854Y003104D02*
X029066Y003104D01*
X029066Y003103D02*
X029854Y003103D01*
X029854Y003102D02*
X029066Y003102D01*
X029066Y003101D02*
X029854Y003101D01*
X029854Y003100D02*
X029066Y003100D01*
X029066Y003099D02*
X029854Y003099D01*
X029854Y003098D02*
X029066Y003098D01*
X029066Y003097D02*
X029854Y003097D01*
X029854Y003096D02*
X029066Y003096D01*
X029066Y003095D02*
X029854Y003095D01*
X029854Y003094D02*
X029066Y003094D01*
X029066Y003093D02*
X029854Y003093D01*
X029854Y003092D02*
X029066Y003092D01*
X029066Y003091D02*
X029854Y003091D01*
X029854Y003090D02*
X029066Y003090D01*
X029066Y003089D02*
X029854Y003089D01*
X029854Y003088D02*
X029066Y003088D01*
X029066Y003087D02*
X029854Y003087D01*
X029854Y003086D02*
X029066Y003086D01*
X029066Y003085D02*
X029854Y003085D01*
X029854Y003084D02*
X029066Y003084D01*
X029066Y003083D02*
X029854Y003083D01*
X029854Y003082D02*
X029066Y003082D01*
X029066Y003081D02*
X029854Y003081D01*
X029854Y003080D02*
X029066Y003080D01*
X029066Y003079D02*
X029854Y003079D01*
X029854Y003078D02*
X029066Y003078D01*
X029066Y003077D02*
X029854Y003077D01*
X029854Y003076D02*
X029066Y003076D01*
X029066Y003075D02*
X029854Y003075D01*
X029854Y003074D02*
X029066Y003074D01*
X029066Y003073D02*
X029854Y003073D01*
X029854Y003072D02*
X029066Y003072D01*
X029066Y003071D02*
X029854Y003071D01*
X029854Y003070D02*
X029066Y003070D01*
X029066Y003069D02*
X029854Y003069D01*
X029854Y003068D02*
X029066Y003068D01*
X029066Y003067D02*
X029854Y003067D01*
X029854Y003066D02*
X029066Y003066D01*
X029066Y003065D02*
X029854Y003065D01*
X029854Y003064D02*
X029066Y003064D01*
X029066Y003063D02*
X029854Y003063D01*
X029854Y003062D02*
X029066Y003062D01*
X029066Y003061D02*
X029854Y003061D01*
X029854Y003060D02*
X029066Y003060D01*
X029066Y003059D02*
X029854Y003059D01*
X029854Y003058D02*
X029066Y003058D01*
X029066Y003057D02*
X029854Y003057D01*
X029854Y003056D02*
X029066Y003056D01*
X029066Y003055D02*
X029854Y003055D01*
X029854Y003054D02*
X029066Y003054D01*
X029066Y003053D02*
X029854Y003053D01*
X029854Y003052D02*
X029066Y003052D01*
X029066Y003051D02*
X029854Y003051D01*
X029854Y003050D02*
X029066Y003050D01*
X029066Y003049D02*
X029854Y003049D01*
X029854Y003048D02*
X029066Y003048D01*
X029066Y003047D02*
X029854Y003047D01*
X029854Y003046D02*
X029066Y003046D01*
X029066Y003045D02*
X029854Y003045D01*
X029854Y003044D02*
X029066Y003044D01*
X029066Y003043D02*
X029854Y003043D01*
X029854Y003042D02*
X029066Y003042D01*
X029066Y003041D02*
X029854Y003041D01*
X029854Y003040D02*
X029066Y003040D01*
X029066Y003039D02*
X029854Y003039D01*
X029854Y003038D02*
X029066Y003038D01*
X029066Y003037D02*
X029854Y003037D01*
X029854Y003036D02*
X029066Y003036D01*
X029066Y003035D02*
X029854Y003035D01*
X029854Y003034D02*
X029066Y003034D01*
X029066Y003033D02*
X029854Y003033D01*
X029854Y003032D02*
X029066Y003032D01*
X029066Y003031D02*
X029854Y003031D01*
X029854Y003030D02*
X029066Y003030D01*
X029066Y003029D02*
X029854Y003029D01*
X029854Y003028D02*
X029066Y003028D01*
X029066Y003027D02*
X029854Y003027D01*
X029854Y003026D02*
X029066Y003026D01*
X029066Y003025D02*
X029854Y003025D01*
X029854Y003024D02*
X029066Y003024D01*
X029066Y003023D02*
X029854Y003023D01*
X029854Y003022D02*
X029066Y003022D01*
X029066Y003021D02*
X029854Y003021D01*
X029854Y003020D02*
X029066Y003020D01*
X029066Y003019D02*
X029854Y003019D01*
X029854Y003018D02*
X029066Y003018D01*
X029066Y003017D02*
X029854Y003017D01*
X029854Y003016D02*
X029066Y003016D01*
X029066Y003015D02*
X029854Y003015D01*
X029854Y003014D02*
X029066Y003014D01*
X029066Y003013D02*
X029854Y003013D01*
X029854Y003012D02*
X029066Y003012D01*
X029066Y003011D02*
X029854Y003011D01*
X029854Y003010D02*
X029066Y003010D01*
X029066Y003009D02*
X029854Y003009D01*
X029854Y003008D02*
X029066Y003008D01*
X029066Y003007D02*
X029854Y003007D01*
X029854Y003006D02*
X029066Y003006D01*
X029066Y003005D02*
X029854Y003005D01*
X029854Y003004D02*
X029066Y003004D01*
X029066Y003003D02*
X029854Y003003D01*
X029854Y003002D02*
X029066Y003002D01*
X029066Y003001D02*
X029854Y003001D01*
X029854Y003000D02*
X029066Y003000D01*
X029066Y002999D02*
X029854Y002999D01*
X029854Y002998D02*
X029066Y002998D01*
X029066Y002997D02*
X029854Y002997D01*
X029854Y002996D02*
X029066Y002996D01*
X029066Y002995D02*
X029854Y002995D01*
X029854Y002994D02*
X029066Y002994D01*
X029066Y002993D02*
X029854Y002993D01*
X029854Y002992D02*
X029066Y002992D01*
X029066Y002991D02*
X029854Y002991D01*
X029854Y002990D02*
X029066Y002990D01*
X029066Y002989D02*
X029854Y002989D01*
X029854Y002988D02*
X029066Y002988D01*
X029066Y002987D02*
X029854Y002987D01*
X029854Y002986D02*
X029066Y002986D01*
X029066Y002985D02*
X029854Y002985D01*
X029854Y002984D02*
X029066Y002984D01*
X029066Y002983D02*
X029854Y002983D01*
X029854Y002982D02*
X029066Y002982D01*
X029066Y002981D02*
X029854Y002981D01*
X029854Y002980D02*
X029066Y002980D01*
X029066Y002979D02*
X029854Y002979D01*
X029854Y002978D02*
X029066Y002978D01*
X029066Y002977D02*
X029854Y002977D01*
X029854Y002976D02*
X029066Y002976D01*
X029066Y002975D02*
X029854Y002975D01*
X029854Y002974D02*
X029066Y002974D01*
X029066Y002973D02*
X029854Y002973D01*
X029854Y002972D02*
X029066Y002972D01*
X029066Y002971D02*
X029854Y002971D01*
X029854Y002970D02*
X029066Y002970D01*
X029066Y002969D02*
X029854Y002969D01*
X029854Y002968D02*
X029066Y002968D01*
X029066Y002967D02*
X029854Y002967D01*
X029854Y002966D02*
X029066Y002966D01*
X029066Y002965D02*
X029854Y002965D01*
X029854Y002964D02*
X029066Y002964D01*
X029066Y002963D02*
X029854Y002963D01*
X029854Y002962D02*
X029066Y002962D01*
X029066Y002961D02*
X029854Y002961D01*
X029854Y002960D02*
X029066Y002960D01*
X029066Y002959D02*
X029854Y002959D01*
X029854Y002958D02*
X029066Y002958D01*
X029066Y002957D02*
X029854Y002957D01*
X029854Y002956D02*
X029066Y002956D01*
X029066Y002955D02*
X029854Y002955D01*
X029854Y002954D02*
X029066Y002954D01*
X029066Y002953D02*
X029854Y002953D01*
X029854Y002952D02*
X029066Y002952D01*
X029066Y002951D02*
X029854Y002951D01*
X029854Y002950D02*
X029066Y002950D01*
X029066Y002949D02*
X029854Y002949D01*
X029854Y002948D02*
X029066Y002948D01*
X029066Y002947D02*
X029854Y002947D01*
X029854Y002946D02*
X029066Y002946D01*
X029066Y002945D02*
X029854Y002945D01*
X029854Y002944D02*
X029066Y002944D01*
X029066Y002943D02*
X029854Y002943D01*
X029854Y002942D02*
X029066Y002942D01*
X029066Y002941D02*
X029854Y002941D01*
X029854Y002940D02*
X029066Y002940D01*
X029066Y002939D02*
X029854Y002939D01*
X029854Y002938D02*
X029066Y002938D01*
X029066Y002937D02*
X029854Y002937D01*
X029854Y002936D02*
X029066Y002936D01*
X029066Y002935D02*
X029854Y002935D01*
X029854Y002934D02*
X029066Y002934D01*
X029066Y002933D02*
X029854Y002933D01*
X029854Y002932D02*
X029066Y002932D01*
X029066Y002931D02*
X029854Y002931D01*
X029854Y002930D02*
X029066Y002930D01*
X029066Y002929D02*
X029854Y002929D01*
X029854Y002928D02*
X029066Y002928D01*
X029066Y002927D02*
X029854Y002927D01*
X029854Y002926D02*
X029066Y002926D01*
X029066Y002925D02*
X029854Y002925D01*
X029854Y002924D02*
X029066Y002924D01*
X029066Y002923D02*
X029854Y002923D01*
X029854Y002922D02*
X029066Y002922D01*
X029066Y002921D02*
X029854Y002921D01*
X029854Y002920D02*
X029066Y002920D01*
X029066Y002919D02*
X029854Y002919D01*
X029854Y002918D02*
X029066Y002918D01*
X029066Y002917D02*
X029854Y002917D01*
X029854Y002916D02*
X029066Y002916D01*
X029066Y002915D02*
X029854Y002915D01*
X029854Y002914D02*
X029066Y002914D01*
X029066Y002913D02*
X029854Y002913D01*
X029854Y002912D02*
X029066Y002912D01*
X029066Y002911D02*
X029854Y002911D01*
X029854Y002910D02*
X029066Y002910D01*
X029066Y002909D02*
X029854Y002909D01*
X029854Y002908D02*
X029066Y002908D01*
X029066Y002907D02*
X029854Y002907D01*
X029854Y002906D02*
X029066Y002906D01*
X029066Y002905D02*
X029854Y002905D01*
X029854Y002904D02*
X029066Y002904D01*
X029066Y002903D02*
X029854Y002903D01*
X029854Y002902D02*
X029066Y002902D01*
X029066Y002901D02*
X029854Y002901D01*
X029854Y002900D02*
X029066Y002900D01*
X029066Y002899D02*
X029854Y002899D01*
X029854Y002898D02*
X029066Y002898D01*
X029066Y002897D02*
X029854Y002897D01*
X029854Y002896D02*
X029066Y002896D01*
X029066Y002895D02*
X029854Y002895D01*
X029854Y002894D02*
X029066Y002894D01*
X029066Y002893D02*
X029854Y002893D01*
X029854Y002892D02*
X029066Y002892D01*
X029066Y002891D02*
X029854Y002891D01*
X029854Y002890D02*
X029066Y002890D01*
X029066Y002889D02*
X029854Y002889D01*
X029854Y002888D02*
X029066Y002888D01*
X029066Y002887D02*
X029854Y002887D01*
X029854Y002886D02*
X029066Y002886D01*
X029066Y002885D02*
X029854Y002885D01*
X029854Y002884D02*
X029066Y002884D01*
X029066Y002883D02*
X029854Y002883D01*
X029854Y002882D02*
X029066Y002882D01*
X029066Y002881D02*
X029854Y002881D01*
X029854Y002880D02*
X029066Y002880D01*
X029066Y002879D02*
X029854Y002879D01*
X029854Y002878D02*
X029066Y002878D01*
X029066Y002877D02*
X029854Y002877D01*
X029854Y002876D02*
X029066Y002876D01*
X029066Y002875D02*
X029854Y002875D01*
X029854Y002874D02*
X029066Y002874D01*
X029066Y002873D02*
X029854Y002873D01*
X029854Y002872D02*
X029066Y002872D01*
X029066Y002871D02*
X029854Y002871D01*
X029854Y002870D02*
X029066Y002870D01*
X029066Y002869D02*
X029854Y002869D01*
X029854Y002868D02*
X029066Y002868D01*
X029066Y002867D02*
X029854Y002867D01*
X029854Y002866D02*
X029066Y002866D01*
X029066Y002865D02*
X029854Y002865D01*
X029854Y002864D02*
X029066Y002864D01*
X029066Y002863D02*
X029854Y002863D01*
X029854Y002862D02*
X029066Y002862D01*
X029066Y002861D02*
X029854Y002861D01*
X029854Y002860D02*
X029066Y002860D01*
X029066Y002859D02*
X029854Y002859D01*
X029854Y002858D02*
X029066Y002858D01*
X029066Y002857D02*
X029854Y002857D01*
X029854Y002856D02*
X029066Y002856D01*
X029066Y002855D02*
X029854Y002855D01*
X029854Y002854D02*
X029066Y002854D01*
X029066Y002853D02*
X029854Y002853D01*
X029854Y002852D02*
X029066Y002852D01*
X029066Y002851D02*
X029854Y002851D01*
X029854Y002850D02*
X029066Y002850D01*
X029066Y002849D02*
X029854Y002849D01*
X029854Y002848D02*
X029066Y002848D01*
X029066Y002847D02*
X029854Y002847D01*
X029854Y002846D02*
X029066Y002846D01*
X029066Y002845D02*
X029854Y002845D01*
X029854Y002844D02*
X029066Y002844D01*
X029066Y002843D02*
X029854Y002843D01*
X029854Y002842D02*
X029066Y002842D01*
X029066Y002841D02*
X029854Y002841D01*
X029854Y002840D02*
X029066Y002840D01*
X029066Y002839D02*
X029854Y002839D01*
X029854Y002838D02*
X029066Y002838D01*
X029066Y002837D02*
X029854Y002837D01*
X029854Y002836D02*
X029066Y002836D01*
X029066Y002835D02*
X029854Y002835D01*
X029854Y002834D02*
X029066Y002834D01*
X029066Y002833D02*
X029854Y002833D01*
X029854Y002832D02*
X029066Y002832D01*
X029066Y002831D02*
X029854Y002831D01*
X029854Y002830D02*
X029066Y002830D01*
X029066Y002829D02*
X029854Y002829D01*
X029854Y002828D02*
X029066Y002828D01*
X029066Y002827D02*
X029854Y002827D01*
X029854Y002826D02*
X029066Y002826D01*
X029066Y002825D02*
X029854Y002825D01*
X029854Y002824D02*
X029066Y002824D01*
X029066Y002823D02*
X029854Y002823D01*
X029854Y002822D02*
X029066Y002822D01*
X029066Y002821D02*
X029854Y002821D01*
X029854Y002820D02*
X029066Y002820D01*
X029066Y002819D02*
X029854Y002819D01*
X029854Y002818D02*
X029066Y002818D01*
X029066Y002817D02*
X029854Y002817D01*
X029854Y002816D02*
X029066Y002816D01*
X029066Y002815D02*
X029854Y002815D01*
X029854Y002814D02*
X029066Y002814D01*
X029066Y002813D02*
X029854Y002813D01*
X029854Y002812D02*
X029066Y002812D01*
X029066Y002811D02*
X029854Y002811D01*
X029854Y002810D02*
X029066Y002810D01*
X029066Y002809D02*
X029854Y002809D01*
X029854Y002808D02*
X029066Y002808D01*
X029066Y002807D02*
X029854Y002807D01*
X029854Y002806D02*
X029066Y002806D01*
X029066Y002805D02*
X029854Y002805D01*
X029854Y002804D02*
X029066Y002804D01*
X029066Y002803D02*
X029854Y002803D01*
X029854Y002802D02*
X029066Y002802D01*
X029066Y002801D02*
X029854Y002801D01*
X029854Y002800D02*
X029066Y002800D01*
X029066Y002799D02*
X029854Y002799D01*
X029854Y002798D02*
X029066Y002798D01*
X029066Y002797D02*
X029854Y002797D01*
X029854Y002796D02*
X029066Y002796D01*
X029066Y002795D02*
X029854Y002795D01*
X029854Y002794D02*
X029066Y002794D01*
X029066Y002793D02*
X029854Y002793D01*
X029854Y002792D02*
X029066Y002792D01*
X029066Y002791D02*
X029854Y002791D01*
X029854Y002790D02*
X029066Y002790D01*
X029066Y002789D02*
X029854Y002789D01*
X029854Y002788D02*
X029066Y002788D01*
X029066Y002787D02*
X029854Y002787D01*
X029854Y002786D02*
X029066Y002786D01*
X029066Y002785D02*
X029854Y002785D01*
X029854Y002784D02*
X029066Y002784D01*
X029066Y002783D02*
X029854Y002783D01*
X029854Y002782D02*
X029066Y002782D01*
X029066Y002781D02*
X029854Y002781D01*
X029854Y002780D02*
X029066Y002780D01*
X029066Y002779D02*
X029854Y002779D01*
X029854Y002778D02*
X029066Y002778D01*
X029066Y002777D02*
X029854Y002777D01*
X029854Y002776D02*
X029066Y002776D01*
X029066Y002775D02*
X029854Y002775D01*
X029854Y002774D02*
X029066Y002774D01*
X029066Y002773D02*
X029854Y002773D01*
X029066Y002773D01*
X029066Y002772D02*
X029854Y002772D01*
X029854Y002771D02*
X029066Y002771D01*
X029066Y002770D02*
X029854Y002770D01*
X029854Y002769D02*
X029066Y002769D01*
X029066Y002768D02*
X029854Y002768D01*
X029854Y002767D02*
X029066Y002767D01*
X029066Y002766D02*
X029854Y002766D01*
X029854Y002765D02*
X029066Y002765D01*
X029066Y002764D02*
X029854Y002764D01*
X029854Y002763D02*
X029066Y002763D01*
X029066Y002762D02*
X029854Y002762D01*
X029854Y002761D02*
X029066Y002761D01*
X029066Y002760D02*
X029854Y002760D01*
X029854Y002759D02*
X029066Y002759D01*
X029066Y002758D02*
X029854Y002758D01*
X029854Y002757D02*
X029066Y002757D01*
X029066Y002756D02*
X029854Y002756D01*
X029854Y002755D02*
X029066Y002755D01*
X029066Y002754D02*
X029854Y002754D01*
X029854Y002753D02*
X029066Y002753D01*
X029066Y002752D02*
X029854Y002752D01*
X029854Y002751D02*
X029066Y002751D01*
X029066Y002750D02*
X029854Y002750D01*
X029854Y002749D02*
X029066Y002749D01*
X029066Y002748D02*
X029854Y002748D01*
X029854Y002747D02*
X029066Y002747D01*
X029066Y002746D02*
X029854Y002746D01*
X029854Y002745D02*
X029066Y002745D01*
X029066Y002744D02*
X029854Y002744D01*
X029854Y002743D02*
X029066Y002743D01*
X029066Y002742D02*
X029854Y002742D01*
X029854Y002741D02*
X029066Y002741D01*
X029066Y002740D02*
X029854Y002740D01*
X029854Y002739D02*
X029066Y002739D01*
X029066Y002738D02*
X029854Y002738D01*
X029854Y002737D02*
X029066Y002737D01*
X029066Y002736D02*
X029854Y002736D01*
X029854Y002735D02*
X029066Y002735D01*
X029066Y002734D02*
X029854Y002734D01*
X029854Y002733D02*
X029066Y002733D01*
X029066Y002732D02*
X029854Y002732D01*
X029854Y002731D02*
X029066Y002731D01*
X029066Y002730D02*
X029854Y002730D01*
X029854Y002729D02*
X029066Y002729D01*
X029066Y002728D02*
X029854Y002728D01*
X029854Y002727D02*
X029066Y002727D01*
X029066Y002726D02*
X029854Y002726D01*
X029854Y002725D02*
X029066Y002725D01*
X029066Y002724D02*
X029854Y002724D01*
X029854Y002723D02*
X029066Y002723D01*
X029066Y002722D02*
X029854Y002722D01*
X029854Y002721D02*
X029066Y002721D01*
X029066Y002720D02*
X029854Y002720D01*
X029854Y002719D02*
X029066Y002719D01*
X029066Y002718D02*
X029854Y002718D01*
X029854Y002717D02*
X029066Y002717D01*
X029066Y002716D02*
X029854Y002716D01*
X029854Y002715D02*
X029066Y002715D01*
X029066Y002714D02*
X029854Y002714D01*
X029854Y002713D02*
X029066Y002713D01*
X029066Y002712D02*
X029854Y002712D01*
X029854Y002711D02*
X029066Y002711D01*
X029066Y002710D02*
X029854Y002710D01*
X029854Y002709D02*
X029066Y002709D01*
X029066Y002708D02*
X029854Y002708D01*
X029854Y002707D02*
X029066Y002707D01*
X029066Y002706D02*
X029854Y002706D01*
X029854Y002705D02*
X029066Y002705D01*
X029066Y002704D02*
X029854Y002704D01*
X029854Y002703D02*
X029066Y002703D01*
X029066Y002702D02*
X029854Y002702D01*
X029854Y002701D02*
X029066Y002701D01*
X029066Y002700D02*
X029854Y002700D01*
X029854Y002699D02*
X029066Y002699D01*
X029066Y002698D02*
X029854Y002698D01*
X029854Y002697D02*
X029066Y002697D01*
X029066Y002696D02*
X029854Y002696D01*
X029854Y002695D02*
X029066Y002695D01*
X029066Y002694D02*
X029854Y002694D01*
X029854Y002693D02*
X029066Y002693D01*
X029066Y002692D02*
X029854Y002692D01*
X029854Y002691D02*
X029066Y002691D01*
X029066Y002690D02*
X029854Y002690D01*
X029854Y002689D02*
X029066Y002689D01*
X029066Y002688D02*
X029854Y002688D01*
X029854Y002687D02*
X029066Y002687D01*
X029066Y002686D02*
X029854Y002686D01*
X029854Y002685D02*
X029066Y002685D01*
X029066Y002684D02*
X029854Y002684D01*
X029854Y002683D02*
X029066Y002683D01*
X029066Y002682D02*
X029854Y002682D01*
X029854Y002681D02*
X029066Y002681D01*
X029066Y002680D02*
X029854Y002680D01*
X029854Y002679D02*
X029066Y002679D01*
X029066Y002678D02*
X029854Y002678D01*
X029854Y002677D02*
X029066Y002677D01*
X029066Y002676D02*
X029854Y002676D01*
X029854Y002675D02*
X029066Y002675D01*
X029066Y002674D02*
X029854Y002674D01*
X029854Y002673D02*
X029066Y002673D01*
X029066Y002672D02*
X029854Y002672D01*
X029854Y002671D02*
X029066Y002671D01*
X029066Y002670D02*
X029854Y002670D01*
X029854Y002669D02*
X029066Y002669D01*
X029066Y002668D02*
X029854Y002668D01*
X029854Y002667D02*
X029066Y002667D01*
X029066Y002666D02*
X029854Y002666D01*
X029854Y002665D02*
X029066Y002665D01*
X029066Y002664D02*
X029854Y002664D01*
X029854Y002663D02*
X029066Y002663D01*
X029066Y002662D02*
X029854Y002662D01*
X029854Y002661D02*
X029066Y002661D01*
X029066Y002660D02*
X029854Y002660D01*
X029854Y002659D02*
X029066Y002659D01*
X029066Y002658D02*
X029854Y002658D01*
X029854Y002657D02*
X029066Y002657D01*
X029066Y002656D02*
X029854Y002656D01*
X029854Y002655D02*
X029066Y002655D01*
X029066Y002654D02*
X029854Y002654D01*
X029854Y002653D02*
X029066Y002653D01*
X029066Y002652D02*
X029854Y002652D01*
X029854Y002651D02*
X029066Y002651D01*
X029066Y002650D02*
X029854Y002650D01*
X029854Y002649D02*
X029066Y002649D01*
X029066Y002648D02*
X029854Y002648D01*
X029854Y002647D02*
X029066Y002647D01*
X029066Y002646D02*
X029854Y002646D01*
X029854Y002645D02*
X029066Y002645D01*
X029066Y002644D02*
X029854Y002644D01*
X029854Y002643D02*
X029066Y002643D01*
X029066Y002642D02*
X029854Y002642D01*
X029854Y002641D02*
X029066Y002641D01*
X029066Y002640D02*
X029854Y002640D01*
X029854Y002639D02*
X029066Y002639D01*
X029066Y002638D02*
X029854Y002638D01*
X029854Y002637D02*
X029066Y002637D01*
X029066Y002636D02*
X029854Y002636D01*
X029854Y002635D02*
X029066Y002635D01*
X029066Y002634D02*
X029854Y002634D01*
X029854Y002633D02*
X029066Y002633D01*
X029066Y002632D02*
X029854Y002632D01*
X029854Y002631D02*
X029066Y002631D01*
X029066Y002630D02*
X029854Y002630D01*
X029854Y002629D02*
X029066Y002629D01*
X029066Y002628D02*
X029854Y002628D01*
X029854Y002627D02*
X029066Y002627D01*
X029066Y002626D02*
X029854Y002626D01*
X029854Y002625D02*
X029066Y002625D01*
X029066Y002624D02*
X029854Y002624D01*
X029854Y002623D02*
X029066Y002623D01*
X029066Y002622D02*
X029854Y002622D01*
X029854Y002621D02*
X029066Y002621D01*
X029066Y002620D02*
X029854Y002620D01*
X029854Y002619D02*
X029066Y002619D01*
X029066Y002618D02*
X029854Y002618D01*
X029854Y002617D02*
X029066Y002617D01*
X029066Y002616D02*
X029854Y002616D01*
X029854Y002615D02*
X029066Y002615D01*
X029066Y002614D02*
X029854Y002614D01*
X029854Y002613D02*
X029066Y002613D01*
X029066Y002612D02*
X029854Y002612D01*
X029854Y002611D02*
X029066Y002611D01*
X029066Y002610D02*
X029854Y002610D01*
X029854Y002609D02*
X029066Y002609D01*
X029066Y002608D02*
X029854Y002608D01*
X029854Y002607D02*
X029066Y002607D01*
X029066Y002606D02*
X029854Y002606D01*
X029854Y002605D02*
X029066Y002605D01*
X029066Y002604D02*
X029854Y002604D01*
X029854Y002603D02*
X029066Y002603D01*
X029066Y002602D02*
X029854Y002602D01*
X029854Y002601D02*
X029066Y002601D01*
X029066Y002600D02*
X029854Y002600D01*
X029854Y002599D02*
X029066Y002599D01*
X029066Y002598D02*
X029854Y002598D01*
X029854Y002597D02*
X029066Y002597D01*
X029066Y002596D02*
X029854Y002596D01*
X029854Y002595D02*
X029066Y002595D01*
X029066Y002594D02*
X029854Y002594D01*
X029854Y002593D02*
X029066Y002593D01*
X029066Y002592D02*
X029854Y002592D01*
X029854Y002591D02*
X029066Y002591D01*
X029066Y002590D02*
X029854Y002590D01*
X029854Y002589D02*
X029066Y002589D01*
X029066Y002588D02*
X029854Y002588D01*
X029854Y002587D02*
X029066Y002587D01*
X029066Y002586D02*
X029854Y002586D01*
X029854Y002585D02*
X029066Y002585D01*
X029066Y002584D02*
X029854Y002584D01*
X029854Y002583D02*
X029066Y002583D01*
X029066Y002582D02*
X029854Y002582D01*
X029854Y002581D02*
X029066Y002581D01*
X029066Y002580D02*
X029854Y002580D01*
X029854Y002579D02*
X029066Y002579D01*
X029066Y002578D02*
X029854Y002578D01*
X029854Y002577D02*
X029066Y002577D01*
X029066Y002576D02*
X029854Y002576D01*
X029854Y002575D02*
X029066Y002575D01*
X029066Y002574D02*
X029854Y002574D01*
X029854Y002573D02*
X029066Y002573D01*
X029066Y002572D02*
X029854Y002572D01*
X029854Y002571D02*
X029066Y002571D01*
X029066Y002570D02*
X029854Y002570D01*
X029854Y002569D02*
X029066Y002569D01*
X029066Y002568D02*
X029854Y002568D01*
X029854Y002567D02*
X029066Y002567D01*
X029066Y002566D02*
X029854Y002566D01*
X029854Y002565D02*
X029066Y002565D01*
X029066Y002564D02*
X029854Y002564D01*
X029854Y002563D02*
X029066Y002563D01*
X029066Y002562D02*
X029854Y002562D01*
X029854Y002561D02*
X029066Y002561D01*
X029066Y002560D02*
X029854Y002560D01*
X029854Y002559D02*
X029066Y002559D01*
X029066Y002558D02*
X029854Y002558D01*
X029854Y002557D02*
X029066Y002557D01*
X029066Y002556D02*
X029854Y002556D01*
X029854Y002555D02*
X029066Y002555D01*
X029066Y002554D02*
X029854Y002554D01*
X029854Y002553D02*
X029066Y002553D01*
X029066Y002552D02*
X029854Y002552D01*
X029854Y002551D02*
X029066Y002551D01*
X029066Y002550D02*
X029854Y002550D01*
X029854Y002549D02*
X029066Y002549D01*
X029066Y002548D02*
X029854Y002548D01*
X029854Y002547D02*
X029066Y002547D01*
X029066Y002546D02*
X029854Y002546D01*
X029854Y002545D02*
X029066Y002545D01*
X029066Y002544D02*
X029854Y002544D01*
X029854Y002543D02*
X029066Y002543D01*
X029066Y002542D02*
X029854Y002542D01*
X029854Y002541D02*
X029066Y002541D01*
X029066Y002540D02*
X029854Y002540D01*
X029854Y002539D02*
X029066Y002539D01*
X029066Y002538D02*
X029854Y002538D01*
X029854Y002537D02*
X029066Y002537D01*
X029066Y002536D02*
X029854Y002536D01*
X029854Y002535D02*
X029066Y002535D01*
X029066Y002534D02*
X029854Y002534D01*
X029854Y002533D02*
X029066Y002533D01*
X029066Y002532D02*
X029854Y002532D01*
X029854Y002531D02*
X029066Y002531D01*
X029066Y002530D02*
X029854Y002530D01*
X029854Y002529D02*
X029066Y002529D01*
X029066Y002528D02*
X029854Y002528D01*
X029854Y002527D02*
X029066Y002527D01*
X029066Y002526D02*
X029854Y002526D01*
X029854Y002525D02*
X029066Y002525D01*
X029066Y002524D02*
X029854Y002524D01*
X029854Y002523D02*
X029066Y002523D01*
X029066Y002522D02*
X029854Y002522D01*
X029854Y002521D02*
X029066Y002521D01*
X029066Y002520D02*
X029854Y002520D01*
X029854Y002519D02*
X029066Y002519D01*
X029066Y002518D02*
X029854Y002518D01*
X029854Y002517D02*
X029066Y002517D01*
X029066Y002516D02*
X029854Y002516D01*
X029854Y002515D02*
X029066Y002515D01*
X029066Y002514D02*
X029854Y002514D01*
X029854Y002513D02*
X029066Y002513D01*
X029066Y002512D02*
X029854Y002512D01*
X029854Y002511D02*
X029066Y002511D01*
X029066Y002510D02*
X029854Y002510D01*
X029854Y002509D02*
X029066Y002509D01*
X029066Y002508D02*
X029854Y002508D01*
X029854Y002507D02*
X029066Y002507D01*
X029066Y002506D02*
X029854Y002506D01*
X029854Y002505D02*
X029066Y002505D01*
X029066Y002504D02*
X029854Y002504D01*
X029854Y002503D02*
X029066Y002503D01*
X029066Y002502D02*
X029854Y002502D01*
X029854Y002501D02*
X029066Y002501D01*
X029066Y002500D02*
X029854Y002500D01*
X029854Y002499D02*
X029066Y002499D01*
X029066Y002498D02*
X029854Y002498D01*
X029854Y002497D02*
X029066Y002497D01*
X029066Y002496D02*
X029854Y002496D01*
X029854Y002495D02*
X029066Y002495D01*
X029066Y002494D02*
X029854Y002494D01*
X029854Y002493D02*
X029066Y002493D01*
X029066Y002492D02*
X029854Y002492D01*
X029854Y002491D02*
X029066Y002491D01*
X029066Y002490D02*
X029854Y002490D01*
X029854Y002489D02*
X029066Y002489D01*
X029066Y002488D02*
X029854Y002488D01*
X029854Y002487D02*
X029066Y002487D01*
X029066Y002486D02*
X029854Y002486D01*
X029854Y002485D02*
X029066Y002485D01*
X029066Y002484D02*
X029854Y002484D01*
X029854Y002483D02*
X029066Y002483D01*
X029066Y002482D02*
X029854Y002482D01*
X029854Y002481D02*
X029066Y002481D01*
X029066Y002480D02*
X029854Y002480D01*
X029854Y002479D02*
X029066Y002479D01*
X029066Y002478D02*
X029854Y002478D01*
X029854Y002477D02*
X029066Y002477D01*
X029066Y002476D02*
X029854Y002476D01*
X029854Y002475D02*
X029066Y002475D01*
X029066Y002474D02*
X029854Y002474D01*
X029854Y002473D02*
X029066Y002473D01*
X029066Y002472D02*
X029854Y002472D01*
X029854Y002471D02*
X029066Y002471D01*
X029066Y002470D02*
X029854Y002470D01*
X029854Y002469D02*
X029066Y002469D01*
X029066Y002468D02*
X029854Y002468D01*
X029854Y002467D02*
X029066Y002467D01*
X029066Y002466D02*
X029854Y002466D01*
X029854Y002465D02*
X029066Y002465D01*
X029066Y002464D02*
X029854Y002464D01*
X029854Y002463D02*
X029066Y002463D01*
X029066Y002462D02*
X029854Y002462D01*
X029854Y002461D02*
X029066Y002461D01*
X029066Y002460D02*
X029854Y002460D01*
X029854Y002459D02*
X029066Y002459D01*
X029066Y002458D02*
X029854Y002458D01*
X029854Y002457D02*
X029066Y002457D01*
X029066Y002456D02*
X029854Y002456D01*
X029854Y002455D02*
X029066Y002455D01*
X029066Y002454D02*
X029854Y002454D01*
X029854Y002453D02*
X029066Y002453D01*
X029066Y002452D02*
X029854Y002452D01*
X029854Y002451D02*
X029066Y002451D01*
X029066Y002450D02*
X029854Y002450D01*
X029854Y002449D02*
X029066Y002449D01*
X029066Y002448D02*
X029854Y002448D01*
X029854Y002447D02*
X029066Y002447D01*
X029066Y002446D02*
X029854Y002446D01*
X029854Y002445D02*
X029066Y002445D01*
X029066Y002444D02*
X029854Y002444D01*
X029854Y002443D02*
X029066Y002443D01*
X029066Y002442D02*
X029854Y002442D01*
X029854Y002441D02*
X029066Y002441D01*
X029066Y002440D02*
X029854Y002440D01*
X029854Y002439D02*
X029066Y002439D01*
X029066Y002438D02*
X029854Y002438D01*
X029854Y002437D02*
X029066Y002437D01*
X029066Y002436D02*
X029854Y002436D01*
X029854Y002435D02*
X029066Y002435D01*
X029066Y002434D02*
X029854Y002434D01*
X029854Y002433D02*
X029066Y002433D01*
X029066Y002432D02*
X029854Y002432D01*
X029854Y002431D02*
X029066Y002431D01*
X029066Y002430D02*
X029854Y002430D01*
X029854Y002429D02*
X029066Y002429D01*
X029066Y002428D02*
X029854Y002428D01*
X029854Y002427D02*
X029066Y002427D01*
X029066Y002426D02*
X029854Y002426D01*
X029854Y002425D02*
X029066Y002425D01*
X029066Y002424D02*
X029854Y002424D01*
X029854Y002423D02*
X029066Y002423D01*
X029066Y002422D02*
X029854Y002422D01*
X029854Y002421D02*
X029066Y002421D01*
X029066Y002420D02*
X029854Y002420D01*
X029854Y002419D02*
X029066Y002419D01*
X029066Y002418D02*
X029854Y002418D01*
X029854Y002417D02*
X029066Y002417D01*
X029066Y002416D02*
X029854Y002416D01*
X029854Y002415D02*
X029066Y002415D01*
X029066Y002414D02*
X029854Y002414D01*
X029854Y002413D02*
X029066Y002413D01*
X029066Y002412D02*
X029854Y002412D01*
X029854Y002411D02*
X029066Y002411D01*
X029066Y002410D02*
X029854Y002410D01*
X029854Y002409D02*
X029066Y002409D01*
X029066Y002408D02*
X029854Y002408D01*
X029854Y002407D02*
X029066Y002407D01*
X029066Y002406D02*
X029854Y002406D01*
X029854Y002405D02*
X029066Y002405D01*
X029066Y002404D02*
X029854Y002404D01*
X029854Y002403D02*
X029066Y002403D01*
X029066Y002402D02*
X029854Y002402D01*
X029854Y002401D02*
X029066Y002401D01*
X029066Y002400D02*
X029854Y002400D01*
X029854Y002399D02*
X029066Y002399D01*
X029066Y002398D02*
X029854Y002398D01*
X029854Y002397D02*
X029066Y002397D01*
X029066Y002396D02*
X029854Y002396D01*
X029854Y002395D02*
X029066Y002395D01*
X029066Y002394D02*
X029854Y002394D01*
X029854Y002393D02*
X029066Y002393D01*
X029066Y002392D02*
X029854Y002392D01*
X029854Y002391D02*
X029066Y002391D01*
X029066Y002390D02*
X029854Y002390D01*
X029854Y002389D02*
X029066Y002389D01*
X029066Y002388D02*
X029854Y002388D01*
X029854Y002387D02*
X029066Y002387D01*
X029066Y002386D02*
X029854Y002386D01*
X029854Y002385D02*
X029066Y002385D01*
X029066Y002384D02*
X029854Y002384D01*
X029854Y002383D02*
X029066Y002383D01*
X029066Y002382D02*
X029854Y002382D01*
X029854Y002381D02*
X029066Y002381D01*
X029066Y002380D02*
X029854Y002380D01*
X029854Y002379D02*
X029066Y002379D01*
X029066Y002378D02*
X029854Y002378D01*
X029854Y002377D02*
X029066Y002377D01*
X029066Y002376D02*
X029854Y002376D01*
X029854Y002375D02*
X029066Y002375D01*
X029066Y002374D02*
X029854Y002374D01*
X029854Y002373D02*
X029066Y002373D01*
X029066Y002372D02*
X029854Y002372D01*
X029854Y002371D02*
X029066Y002371D01*
X029066Y002370D02*
X029854Y002370D01*
X029854Y002369D02*
X029066Y002369D01*
X029066Y002368D02*
X029854Y002368D01*
X029854Y002367D02*
X029066Y002367D01*
X029066Y002366D02*
X029854Y002366D01*
X029854Y002365D02*
X029066Y002365D01*
X029066Y002364D02*
X029854Y002364D01*
X029854Y002363D02*
X029066Y002363D01*
X029066Y002362D02*
X029854Y002362D01*
X029854Y002361D02*
X029066Y002361D01*
X029066Y002360D02*
X029854Y002360D01*
X029854Y002359D02*
X029066Y002359D01*
X029066Y002358D02*
X029854Y002358D01*
X029854Y002357D02*
X029066Y002357D01*
X029066Y002356D02*
X029854Y002356D01*
X029854Y002355D02*
X029066Y002355D01*
X029066Y002354D02*
X029854Y002354D01*
X029854Y002353D02*
X029066Y002353D01*
X029066Y002352D02*
X029854Y002352D01*
X029854Y002351D02*
X029066Y002351D01*
X029066Y002350D02*
X029854Y002350D01*
X029854Y002349D02*
X029066Y002349D01*
X029066Y002348D02*
X029854Y002348D01*
X029854Y002347D02*
X029066Y002347D01*
X029066Y002346D02*
X029854Y002346D01*
X029854Y002345D02*
X029066Y002345D01*
X029066Y002344D02*
X029854Y002344D01*
X029854Y002343D02*
X029066Y002343D01*
X029066Y002342D02*
X029854Y002342D01*
X029854Y002341D02*
X029066Y002341D01*
X029066Y002340D02*
X029854Y002340D01*
X029854Y002339D02*
X029066Y002339D01*
X029066Y002338D02*
X029854Y002338D01*
X029854Y002337D02*
X029066Y002337D01*
X029066Y002336D02*
X029854Y002336D01*
X029854Y002335D02*
X029066Y002335D01*
X029066Y002334D02*
X029854Y002334D01*
X029854Y002333D02*
X029066Y002333D01*
X029066Y002332D02*
X029854Y002332D01*
X029854Y002331D02*
X029066Y002331D01*
X029066Y002330D02*
X029854Y002330D01*
X029854Y002329D02*
X029066Y002329D01*
X029066Y002328D02*
X029854Y002328D01*
X029854Y002327D02*
X029066Y002327D01*
X029066Y002326D02*
X029854Y002326D01*
X029854Y002325D02*
X029066Y002325D01*
X029066Y002324D02*
X029854Y002324D01*
X029854Y002323D02*
X029066Y002323D01*
X029066Y002322D02*
X029854Y002322D01*
X029854Y002321D02*
X029066Y002321D01*
X029066Y002320D02*
X029854Y002320D01*
X029854Y002319D02*
X029066Y002319D01*
X029066Y002318D02*
X029854Y002318D01*
X029854Y002317D02*
X029066Y002317D01*
X029066Y002316D02*
X029854Y002316D01*
X029854Y002315D02*
X029066Y002315D01*
X029066Y002314D02*
X029854Y002314D01*
X029854Y002313D02*
X029066Y002313D01*
X029066Y002312D02*
X029854Y002312D01*
X029854Y002311D02*
X029066Y002311D01*
X029066Y002310D02*
X029854Y002310D01*
X029854Y002309D02*
X029066Y002309D01*
X029066Y002308D02*
X029854Y002308D01*
X029854Y002307D02*
X029066Y002307D01*
X029066Y002306D02*
X029854Y002306D01*
X029854Y002305D02*
X029066Y002305D01*
X029066Y002304D02*
X029854Y002304D01*
X029854Y002303D02*
X029066Y002303D01*
X029066Y002302D02*
X029854Y002302D01*
X029854Y002301D02*
X029066Y002301D01*
X029066Y002300D02*
X029854Y002300D01*
X029854Y002299D02*
X029066Y002299D01*
X029066Y002298D02*
X029854Y002298D01*
X029854Y002297D02*
X029066Y002297D01*
X029066Y002296D02*
X029854Y002296D01*
X029854Y002295D02*
X029066Y002295D01*
X029066Y002294D02*
X029854Y002294D01*
X029854Y002293D02*
X029066Y002293D01*
X029066Y002292D02*
X029854Y002292D01*
X029854Y002291D02*
X029066Y002291D01*
X029066Y002290D02*
X029854Y002290D01*
X029854Y002289D02*
X029066Y002289D01*
X029066Y002288D02*
X029854Y002288D01*
X029854Y002287D02*
X029066Y002287D01*
X029066Y002286D02*
X029854Y002286D01*
X029854Y002285D02*
X029066Y002285D01*
X029066Y002284D02*
X029854Y002284D01*
X029854Y002283D02*
X029066Y002283D01*
X029066Y002282D02*
X029854Y002282D01*
X029854Y002281D02*
X029066Y002281D01*
X029066Y002280D02*
X029854Y002280D01*
X029854Y002279D02*
X029066Y002279D01*
X029066Y002278D02*
X029854Y002278D01*
X029854Y002277D02*
X029066Y002277D01*
X029066Y002276D02*
X029854Y002276D01*
X029854Y002275D02*
X029066Y002275D01*
X029066Y002274D02*
X029854Y002274D01*
X029854Y002273D02*
X029066Y002273D01*
X029066Y002272D02*
X029854Y002272D01*
X029854Y002271D02*
X029066Y002271D01*
X029066Y002270D02*
X029854Y002270D01*
X029854Y002269D02*
X029066Y002269D01*
X029066Y002268D02*
X029854Y002268D01*
X029854Y002267D02*
X029066Y002267D01*
X029066Y002266D02*
X029854Y002266D01*
X029854Y002265D02*
X029066Y002265D01*
X029066Y002264D02*
X029854Y002264D01*
X029854Y002263D02*
X029066Y002263D01*
X029066Y002262D02*
X029854Y002262D01*
X029854Y002261D02*
X029066Y002261D01*
X029066Y002260D02*
X029854Y002260D01*
X029854Y002259D02*
X029066Y002259D01*
X029066Y002258D02*
X029854Y002258D01*
X029854Y002257D02*
X029066Y002257D01*
X029066Y002256D02*
X029854Y002256D01*
X029854Y002255D02*
X029066Y002255D01*
X029066Y002254D02*
X029854Y002254D01*
X029854Y002253D02*
X029066Y002253D01*
X029066Y002252D02*
X029854Y002252D01*
X029854Y002251D02*
X029066Y002251D01*
X029066Y002250D02*
X029854Y002250D01*
X029854Y002249D02*
X029066Y002249D01*
X029066Y002248D02*
X029854Y002248D01*
X029854Y002247D02*
X029066Y002247D01*
X029066Y002246D02*
X029854Y002246D01*
X029854Y002245D02*
X029066Y002245D01*
X029066Y002244D02*
X029854Y002244D01*
X029854Y002243D02*
X029066Y002243D01*
X029066Y002242D02*
X029854Y002242D01*
X029854Y002241D02*
X029066Y002241D01*
X029066Y002240D02*
X029854Y002240D01*
X029854Y002239D02*
X029066Y002239D01*
X029066Y002238D02*
X029854Y002238D01*
X029854Y002237D02*
X029066Y002237D01*
X029066Y002236D02*
X029854Y002236D01*
X029854Y002235D02*
X029066Y002235D01*
X029066Y002234D02*
X029854Y002234D01*
X029854Y002233D02*
X029066Y002233D01*
X029066Y002232D02*
X029854Y002232D01*
X029854Y002231D02*
X029066Y002231D01*
X029066Y002230D02*
X029854Y002230D01*
X029854Y002229D02*
X029066Y002229D01*
X029066Y002228D02*
X029854Y002228D01*
X029854Y002227D02*
X029066Y002227D01*
X029066Y002226D02*
X029854Y002226D01*
X029854Y002225D02*
X029066Y002225D01*
X029066Y002224D02*
X029854Y002224D01*
X029854Y002223D02*
X029066Y002223D01*
X029066Y002222D02*
X029854Y002222D01*
X029854Y002221D02*
X029066Y002221D01*
X029066Y002220D02*
X029854Y002220D01*
X029854Y002219D02*
X029066Y002219D01*
X029066Y002218D02*
X029854Y002218D01*
X029854Y002217D02*
X029066Y002217D01*
X029066Y002216D02*
X029854Y002216D01*
X029854Y002215D02*
X029066Y002215D01*
X029066Y002214D02*
X029854Y002214D01*
X029854Y002213D02*
X029066Y002213D01*
X029066Y002212D02*
X029854Y002212D01*
X029854Y002211D02*
X029066Y002211D01*
X029066Y002210D02*
X029854Y002210D01*
X029854Y002209D02*
X029066Y002209D01*
X029066Y002208D02*
X029854Y002208D01*
X029854Y002207D02*
X029066Y002207D01*
X029066Y002206D02*
X029854Y002206D01*
X029854Y002205D02*
X029066Y002205D01*
X029066Y002204D02*
X029854Y002204D01*
X029854Y002203D02*
X029066Y002203D01*
X029066Y002202D02*
X029854Y002202D01*
X029854Y002201D02*
X029066Y002201D01*
X029066Y002200D02*
X029854Y002200D01*
X029854Y002199D02*
X029066Y002199D01*
X029066Y002198D02*
X029854Y002198D01*
X029854Y002197D02*
X029066Y002197D01*
X029066Y002196D02*
X029854Y002196D01*
X029854Y002195D02*
X029066Y002195D01*
X029066Y002194D02*
X029854Y002194D01*
X029854Y002193D02*
X029066Y002193D01*
X029066Y002192D02*
X029854Y002192D01*
X029854Y002191D02*
X029066Y002191D01*
X029066Y002190D02*
X029854Y002190D01*
X029854Y002189D02*
X029066Y002189D01*
X029066Y002188D02*
X029854Y002188D01*
X029854Y002187D02*
X029066Y002187D01*
X029066Y002186D02*
X029854Y002186D01*
X029854Y002185D02*
X029066Y002185D01*
X029066Y002184D02*
X029854Y002184D01*
X029854Y002183D02*
X029066Y002183D01*
X029066Y002182D02*
X029854Y002182D01*
X029854Y002181D02*
X029066Y002181D01*
X029066Y002180D02*
X029854Y002180D01*
X029854Y002179D02*
X029066Y002179D01*
X029066Y002178D02*
X029854Y002178D01*
X029854Y002177D02*
X029066Y002177D01*
X029066Y002176D02*
X029854Y002176D01*
X029854Y002175D02*
X029066Y002175D01*
X029066Y002174D02*
X029854Y002174D01*
X029854Y002173D02*
X029066Y002173D01*
X029066Y002172D02*
X029854Y002172D01*
X029854Y002171D02*
X029066Y002171D01*
X029066Y002170D02*
X029854Y002170D01*
X029854Y002169D02*
X029066Y002169D01*
X029066Y002168D02*
X029854Y002168D01*
X029854Y002167D02*
X029066Y002167D01*
X029066Y002166D02*
X029854Y002166D01*
X029854Y002165D02*
X029066Y002165D01*
X029066Y002164D02*
X029854Y002164D01*
X029854Y002163D02*
X029066Y002163D01*
X029066Y002162D02*
X029854Y002162D01*
X029854Y002161D02*
X029066Y002161D01*
X029066Y002160D02*
X029854Y002160D01*
X029854Y002159D02*
X029066Y002159D01*
X029066Y002158D02*
X029854Y002158D01*
X029854Y002157D02*
X029066Y002157D01*
X029066Y002156D02*
X029854Y002156D01*
X029854Y002155D02*
X029066Y002155D01*
X029066Y002154D02*
X029854Y002154D01*
X029854Y002153D02*
X029067Y002153D01*
X029067Y002152D02*
X029854Y002152D01*
X029854Y002151D02*
X029067Y002151D01*
X029067Y002150D02*
X029854Y002150D01*
X029853Y002149D02*
X029067Y002149D01*
X029067Y002148D02*
X029853Y002148D01*
X029853Y002147D02*
X029067Y002147D01*
X029067Y002146D02*
X029853Y002146D01*
X029853Y002145D02*
X029067Y002145D01*
X029067Y002144D02*
X029853Y002144D01*
X029853Y002143D02*
X029067Y002143D01*
X029068Y002142D02*
X029853Y002142D01*
X029853Y002141D02*
X029068Y002141D01*
X029068Y002140D02*
X029853Y002140D01*
X029853Y002139D02*
X029068Y002139D01*
X029068Y002138D02*
X029853Y002138D01*
X029852Y002137D02*
X029068Y002137D01*
X029068Y002136D02*
X029852Y002136D01*
X029852Y002135D02*
X029068Y002135D01*
X029068Y002134D02*
X029852Y002134D01*
X029852Y002133D02*
X029068Y002133D01*
X029068Y002132D02*
X029852Y002132D01*
X029852Y002131D02*
X029069Y002131D01*
X029069Y002130D02*
X029852Y002130D01*
X029852Y002129D02*
X029069Y002129D01*
X029069Y002128D02*
X029852Y002128D01*
X029852Y002127D02*
X029069Y002127D01*
X029069Y002126D02*
X029851Y002126D01*
X029851Y002125D02*
X029069Y002125D01*
X029069Y002124D02*
X029851Y002124D01*
X029851Y002123D02*
X029069Y002123D01*
X029069Y002122D02*
X029851Y002122D01*
X029851Y002121D02*
X029069Y002121D01*
X029069Y002120D02*
X029851Y002120D01*
X029851Y002119D02*
X029070Y002119D01*
X029070Y002118D02*
X029851Y002118D01*
X029851Y002117D02*
X029070Y002117D01*
X029070Y002116D02*
X029851Y002116D01*
X029850Y002115D02*
X029070Y002115D01*
X029070Y002114D02*
X029850Y002114D01*
X029850Y002113D02*
X029070Y002113D01*
X029070Y002112D02*
X029850Y002112D01*
X029850Y002111D02*
X029070Y002111D01*
X029070Y002110D02*
X029850Y002110D01*
X029850Y002109D02*
X029070Y002109D01*
X029071Y002108D02*
X029850Y002108D01*
X029850Y002107D02*
X029071Y002107D01*
X029071Y002106D02*
X029850Y002106D01*
X029850Y002105D02*
X029071Y002105D01*
X029071Y002104D02*
X029850Y002104D01*
X029849Y002103D02*
X029071Y002103D01*
X029071Y002102D02*
X029849Y002102D01*
X029849Y002101D02*
X029071Y002101D01*
X029071Y002100D02*
X029849Y002100D01*
X029849Y002099D02*
X029071Y002099D01*
X029071Y002098D02*
X029849Y002098D01*
X029849Y002097D02*
X029071Y002097D01*
X029072Y002096D02*
X029849Y002096D01*
X029849Y002095D02*
X029072Y002095D01*
X029072Y002094D02*
X029849Y002094D01*
X029849Y002093D02*
X029072Y002093D01*
X029072Y002092D02*
X029848Y002092D01*
X029848Y002091D02*
X029072Y002091D01*
X029072Y002090D02*
X029848Y002090D01*
X029848Y002089D02*
X029072Y002089D01*
X029072Y002088D02*
X029848Y002088D01*
X029848Y002087D02*
X029072Y002087D01*
X029072Y002086D02*
X029848Y002086D01*
X029848Y002085D02*
X029073Y002085D01*
X029073Y002084D02*
X029848Y002084D01*
X029847Y002083D02*
X029073Y002083D01*
X029073Y002082D02*
X029847Y002082D01*
X029847Y002081D02*
X029074Y002081D01*
X029074Y002080D02*
X029846Y002080D01*
X029846Y002079D02*
X029074Y002079D01*
X029075Y002078D02*
X029846Y002078D01*
X029846Y002077D02*
X029075Y002077D01*
X029075Y002076D02*
X029845Y002076D01*
X029845Y002075D02*
X029075Y002075D01*
X029076Y002074D02*
X029845Y002074D01*
X029845Y002073D02*
X029076Y002073D01*
X029076Y002072D02*
X029844Y002072D01*
X029844Y002071D02*
X029076Y002071D01*
X029077Y002070D02*
X029844Y002070D01*
X029843Y002069D02*
X029077Y002069D01*
X029077Y002068D02*
X029843Y002068D01*
X029843Y002067D02*
X029077Y002067D01*
X029078Y002066D02*
X029843Y002066D01*
X029842Y002065D02*
X029078Y002065D01*
X029078Y002064D02*
X029842Y002064D01*
X029842Y002063D02*
X029079Y002063D01*
X029079Y002062D02*
X029842Y002062D01*
X029841Y002061D02*
X029079Y002061D01*
X029079Y002060D02*
X029841Y002060D01*
X029841Y002059D02*
X029080Y002059D01*
X029080Y002058D02*
X029841Y002058D01*
X029840Y002057D02*
X029080Y002057D01*
X029080Y002056D02*
X029840Y002056D01*
X029840Y002055D02*
X029081Y002055D01*
X029081Y002054D02*
X029839Y002054D01*
X029839Y002053D02*
X029081Y002053D01*
X029081Y002052D02*
X029839Y002052D01*
X029839Y002051D02*
X029082Y002051D01*
X029082Y002050D02*
X029838Y002050D01*
X029838Y002049D02*
X029082Y002049D01*
X029083Y002048D02*
X029838Y002048D01*
X029838Y002047D02*
X029083Y002047D01*
X029083Y002046D02*
X029837Y002046D01*
X029837Y002045D02*
X029083Y002045D01*
X029084Y002044D02*
X029837Y002044D01*
X029837Y002043D02*
X029084Y002043D01*
X029084Y002042D02*
X029836Y002042D01*
X029836Y002041D02*
X029084Y002041D01*
X029085Y002040D02*
X029836Y002040D01*
X029835Y002039D02*
X029085Y002039D01*
X029085Y002038D02*
X029835Y002038D01*
X029835Y002037D02*
X029085Y002037D01*
X029086Y002036D02*
X029835Y002036D01*
X029834Y002035D02*
X029086Y002035D01*
X029086Y002034D02*
X029834Y002034D01*
X029834Y002033D02*
X029087Y002033D01*
X029087Y002032D02*
X029834Y002032D01*
X029833Y002031D02*
X029087Y002031D01*
X029087Y002030D02*
X029833Y002030D01*
X029833Y002029D02*
X029088Y002029D01*
X029088Y002028D02*
X029833Y002028D01*
X029832Y002027D02*
X029088Y002027D01*
X029088Y002026D02*
X029832Y002026D01*
X029832Y002025D02*
X029089Y002025D01*
X029089Y002024D02*
X029831Y002024D01*
X029831Y002023D02*
X029089Y002023D01*
X029089Y002022D02*
X029831Y002022D01*
X029831Y002021D02*
X029090Y002021D01*
X029090Y002020D02*
X029830Y002020D01*
X029830Y002019D02*
X029090Y002019D01*
X029091Y002018D02*
X029830Y002018D01*
X029829Y002017D02*
X029091Y002017D01*
X029092Y002016D02*
X029829Y002016D01*
X029828Y002015D02*
X029092Y002015D01*
X029093Y002014D02*
X029828Y002014D01*
X029827Y002013D02*
X029093Y002013D01*
X029094Y002012D02*
X029827Y002012D01*
X029826Y002011D02*
X029094Y002011D01*
X029095Y002010D02*
X029826Y002010D01*
X029825Y002009D02*
X029095Y002009D01*
X029095Y002008D02*
X029825Y002008D01*
X029824Y002007D02*
X029096Y002007D01*
X029096Y002006D02*
X029824Y002006D01*
X029824Y002005D02*
X029097Y002005D01*
X029097Y002004D02*
X029823Y002004D01*
X029823Y002003D02*
X029098Y002003D01*
X029098Y002002D02*
X029822Y002002D01*
X029822Y002001D02*
X029099Y002001D01*
X029099Y002000D02*
X029821Y002000D01*
X029821Y001999D02*
X029100Y001999D01*
X029100Y001998D02*
X029820Y001998D01*
X029820Y001997D02*
X029101Y001997D01*
X029101Y001996D02*
X029819Y001996D01*
X029819Y001995D02*
X029102Y001995D01*
X029102Y001994D02*
X029818Y001994D01*
X029818Y001993D02*
X029102Y001993D01*
X029103Y001992D02*
X029817Y001992D01*
X029817Y001991D02*
X029103Y001991D01*
X029104Y001990D02*
X029817Y001990D01*
X029816Y001989D02*
X029104Y001989D01*
X029105Y001988D02*
X029816Y001988D01*
X029815Y001987D02*
X029105Y001987D01*
X029106Y001986D02*
X029815Y001986D01*
X029814Y001985D02*
X029106Y001985D01*
X029107Y001984D02*
X029814Y001984D01*
X029813Y001983D02*
X029107Y001983D01*
X029108Y001982D02*
X029813Y001982D01*
X029812Y001981D02*
X029108Y001981D01*
X029109Y001980D02*
X029812Y001980D01*
X029811Y001979D02*
X029109Y001979D01*
X029109Y001978D02*
X029811Y001978D01*
X029810Y001977D02*
X029110Y001977D01*
X029110Y001976D02*
X029810Y001976D01*
X029810Y001975D02*
X029111Y001975D01*
X029111Y001974D02*
X029809Y001974D01*
X029809Y001973D02*
X029112Y001973D01*
X029112Y001972D02*
X029808Y001972D01*
X029808Y001971D02*
X029113Y001971D01*
X029113Y001970D02*
X029807Y001970D01*
X029807Y001969D02*
X029114Y001969D01*
X029114Y001968D02*
X029806Y001968D01*
X029806Y001967D02*
X029115Y001967D01*
X029115Y001966D02*
X029805Y001966D01*
X029805Y001965D02*
X029115Y001965D01*
X029116Y001964D02*
X029804Y001964D01*
X029804Y001963D02*
X029116Y001963D01*
X029117Y001962D02*
X029804Y001962D01*
X029803Y001961D02*
X029117Y001961D01*
X029118Y001960D02*
X029803Y001960D01*
X029802Y001959D02*
X029118Y001959D01*
X029119Y001958D02*
X029802Y001958D01*
X029801Y001957D02*
X029119Y001957D01*
X029120Y001956D02*
X029800Y001956D01*
X029800Y001955D02*
X029121Y001955D01*
X029121Y001954D02*
X029799Y001954D01*
X029798Y001953D02*
X029122Y001953D01*
X029123Y001952D02*
X029798Y001952D01*
X029797Y001951D02*
X029123Y001951D01*
X029124Y001950D02*
X029796Y001950D01*
X029796Y001949D02*
X029125Y001949D01*
X029125Y001948D02*
X029795Y001948D01*
X029794Y001947D02*
X029126Y001947D01*
X029127Y001946D02*
X029793Y001946D01*
X029793Y001945D02*
X029128Y001945D01*
X029128Y001944D02*
X029792Y001944D01*
X029791Y001943D02*
X029129Y001943D01*
X029130Y001942D02*
X029791Y001942D01*
X029790Y001941D02*
X029130Y001941D01*
X029131Y001940D02*
X029789Y001940D01*
X029789Y001939D02*
X029132Y001939D01*
X029132Y001938D02*
X029788Y001938D01*
X029787Y001937D02*
X029133Y001937D01*
X029134Y001936D02*
X029787Y001936D01*
X029786Y001935D02*
X029135Y001935D01*
X029135Y001934D02*
X029785Y001934D01*
X029784Y001933D02*
X029136Y001933D01*
X029137Y001932D02*
X029784Y001932D01*
X029783Y001931D02*
X029137Y001931D01*
X029138Y001930D02*
X029782Y001930D01*
X029782Y001929D02*
X029139Y001929D01*
X029139Y001928D02*
X029781Y001928D01*
X029780Y001927D02*
X029140Y001927D01*
X029141Y001926D02*
X029780Y001926D01*
X029779Y001925D02*
X029142Y001925D01*
X029142Y001924D02*
X029778Y001924D01*
X029777Y001923D02*
X029143Y001923D01*
X029144Y001922D02*
X029777Y001922D01*
X029776Y001921D02*
X029144Y001921D01*
X029145Y001920D02*
X029775Y001920D01*
X029775Y001919D02*
X029146Y001919D01*
X029146Y001918D02*
X029774Y001918D01*
X029773Y001917D02*
X029147Y001917D01*
X029148Y001916D02*
X029773Y001916D01*
X029772Y001915D02*
X029149Y001915D01*
X029149Y001914D02*
X029771Y001914D01*
X029770Y001913D02*
X029150Y001913D01*
X029151Y001912D02*
X029770Y001912D01*
X029769Y001911D02*
X029151Y001911D01*
X029152Y001910D02*
X029768Y001910D01*
X029768Y001909D02*
X029153Y001909D01*
X029153Y001908D02*
X029767Y001908D01*
X029766Y001907D02*
X029154Y001907D01*
X029155Y001906D02*
X029766Y001906D01*
X029765Y001905D02*
X029156Y001905D01*
X029156Y001904D02*
X029764Y001904D01*
X029763Y001903D02*
X029157Y001903D01*
X029158Y001902D02*
X029763Y001902D01*
X029762Y001901D02*
X029158Y001901D01*
X029159Y001900D02*
X029761Y001900D01*
X029760Y001899D02*
X029160Y001899D01*
X029161Y001898D02*
X029759Y001898D01*
X029758Y001897D02*
X029162Y001897D01*
X029163Y001896D02*
X029757Y001896D01*
X029756Y001895D02*
X029164Y001895D01*
X029165Y001894D02*
X029755Y001894D01*
X029754Y001893D02*
X029166Y001893D01*
X029167Y001892D02*
X029753Y001892D01*
X029752Y001891D02*
X029168Y001891D01*
X029169Y001890D02*
X029751Y001890D01*
X029750Y001889D02*
X029170Y001889D01*
X029171Y001888D02*
X029749Y001888D01*
X029748Y001887D02*
X029172Y001887D01*
X029173Y001886D02*
X029747Y001886D01*
X029746Y001885D02*
X029174Y001885D01*
X029175Y001884D02*
X029745Y001884D01*
X029744Y001883D02*
X029176Y001883D01*
X029177Y001882D02*
X029743Y001882D01*
X029742Y001881D02*
X029178Y001881D01*
X029179Y001880D02*
X029741Y001880D01*
X029740Y001879D02*
X029180Y001879D01*
X029181Y001878D02*
X029739Y001878D01*
X029738Y001877D02*
X029182Y001877D01*
X029183Y001876D02*
X029737Y001876D01*
X029736Y001875D02*
X029184Y001875D01*
X029185Y001874D02*
X029735Y001874D01*
X029734Y001873D02*
X029186Y001873D01*
X029187Y001872D02*
X029733Y001872D01*
X029732Y001871D02*
X029188Y001871D01*
X029189Y001870D02*
X029731Y001870D01*
X029730Y001869D02*
X029190Y001869D01*
X029191Y001868D02*
X029729Y001868D01*
X029728Y001867D02*
X029192Y001867D01*
X029193Y001866D02*
X029727Y001866D01*
X029726Y001865D02*
X029194Y001865D01*
X029195Y001864D02*
X029725Y001864D01*
X029724Y001863D02*
X029196Y001863D01*
X029197Y001862D02*
X029723Y001862D01*
X029722Y001861D02*
X029198Y001861D01*
X029199Y001860D02*
X029721Y001860D01*
X029720Y001859D02*
X029200Y001859D01*
X029201Y001858D02*
X029719Y001858D01*
X029718Y001857D02*
X029202Y001857D01*
X029203Y001856D02*
X029717Y001856D01*
X029716Y001855D02*
X029204Y001855D01*
X029205Y001854D02*
X029715Y001854D01*
X029714Y001853D02*
X029206Y001853D01*
X029207Y001852D02*
X029713Y001852D01*
X029712Y001851D02*
X029209Y001851D01*
X029210Y001850D02*
X029710Y001850D01*
X029709Y001849D02*
X029212Y001849D01*
X029213Y001848D02*
X029707Y001848D01*
X029706Y001847D02*
X029214Y001847D01*
X029216Y001846D02*
X029705Y001846D01*
X029703Y001845D02*
X029217Y001845D01*
X029219Y001844D02*
X029702Y001844D01*
X029700Y001843D02*
X029220Y001843D01*
X029222Y001842D02*
X029699Y001842D01*
X029697Y001841D02*
X029223Y001841D01*
X029224Y001840D02*
X029696Y001840D01*
X029695Y001839D02*
X029226Y001839D01*
X029227Y001838D02*
X029693Y001838D01*
X029692Y001837D02*
X029229Y001837D01*
X029230Y001836D02*
X029690Y001836D01*
X029689Y001835D02*
X029232Y001835D01*
X029233Y001834D02*
X029687Y001834D01*
X029686Y001833D02*
X029234Y001833D01*
X029236Y001832D02*
X029685Y001832D01*
X029683Y001831D02*
X029237Y001831D01*
X029239Y001830D02*
X029682Y001830D01*
X029680Y001829D02*
X029240Y001829D01*
X029242Y001828D02*
X029679Y001828D01*
X029677Y001827D02*
X029243Y001827D01*
X029244Y001826D02*
X029676Y001826D01*
X029675Y001825D02*
X029246Y001825D01*
X029247Y001824D02*
X029673Y001824D01*
X029672Y001823D02*
X029249Y001823D01*
X029250Y001822D02*
X029670Y001822D01*
X029669Y001821D02*
X029251Y001821D01*
X029253Y001820D02*
X029667Y001820D01*
X029666Y001819D02*
X029254Y001819D01*
X029256Y001818D02*
X029665Y001818D01*
X029663Y001817D02*
X029257Y001817D01*
X029259Y001816D02*
X029662Y001816D01*
X029660Y001815D02*
X029260Y001815D01*
X029261Y001814D02*
X029659Y001814D01*
X029657Y001813D02*
X029263Y001813D01*
X029265Y001812D02*
X029656Y001812D01*
X029653Y001811D02*
X029267Y001811D01*
X029269Y001810D02*
X029651Y001810D01*
X029649Y001809D02*
X029271Y001809D01*
X029273Y001808D02*
X029647Y001808D01*
X029645Y001807D02*
X029276Y001807D01*
X029278Y001806D02*
X029643Y001806D01*
X029641Y001805D02*
X029280Y001805D01*
X029282Y001804D02*
X029638Y001804D01*
X029636Y001803D02*
X029284Y001803D01*
X029286Y001802D02*
X029634Y001802D01*
X029632Y001801D02*
X029288Y001801D01*
X029291Y001800D02*
X029630Y001800D01*
X029628Y001799D02*
X029293Y001799D01*
X029295Y001798D02*
X029626Y001798D01*
X029623Y001797D02*
X029297Y001797D01*
X029299Y001796D02*
X029621Y001796D01*
X029619Y001795D02*
X029301Y001795D01*
X029303Y001794D02*
X029617Y001794D01*
X029615Y001793D02*
X029306Y001793D01*
X029308Y001792D02*
X029613Y001792D01*
X029611Y001791D02*
X029310Y001791D01*
X029312Y001790D02*
X029608Y001790D01*
X029606Y001789D02*
X029314Y001789D01*
X029316Y001788D02*
X029604Y001788D01*
X029602Y001787D02*
X029318Y001787D01*
X029321Y001786D02*
X029600Y001786D01*
X029598Y001785D02*
X029323Y001785D01*
X029325Y001784D02*
X029596Y001784D01*
X029592Y001783D02*
X029328Y001783D01*
X029332Y001782D02*
X029589Y001782D01*
X029585Y001781D02*
X029335Y001781D01*
X029339Y001780D02*
X029581Y001780D01*
X029577Y001779D02*
X029343Y001779D01*
X029347Y001778D02*
X029574Y001778D01*
X029570Y001777D02*
X029350Y001777D01*
X029354Y001776D02*
X029566Y001776D01*
X029563Y001775D02*
X029358Y001775D01*
X029362Y001774D02*
X029559Y001774D01*
X029555Y001773D02*
X029365Y001773D01*
X029369Y001772D02*
X029551Y001772D01*
X029548Y001771D02*
X029373Y001771D01*
X029376Y001770D02*
X029544Y001770D01*
X029540Y001769D02*
X029380Y001769D01*
X029384Y001768D02*
X029536Y001768D01*
X029533Y001767D02*
X029388Y001767D01*
X029391Y001766D02*
X029529Y001766D01*
X029518Y001765D02*
X029402Y001765D01*
X029413Y001764D02*
X029507Y001764D01*
X029496Y001763D02*
X029425Y001763D01*
X029436Y001762D02*
X029484Y001762D01*
X029473Y001761D02*
X029448Y001761D01*
X029459Y001760D02*
X029461Y001760D01*
D12*
X002873Y012784D02*
X002479Y012784D01*
X002479Y015441D01*
X002873Y015441D01*
X002873Y012784D01*
X002873Y012814D02*
X002479Y012814D01*
X002479Y012863D02*
X002873Y012863D01*
X002873Y012911D02*
X002479Y012911D01*
X002479Y012960D02*
X002873Y012960D01*
X002873Y013008D02*
X002479Y013008D01*
X002479Y013057D02*
X002873Y013057D01*
X002873Y013105D02*
X002479Y013105D01*
X002479Y013154D02*
X002873Y013154D01*
X002873Y013202D02*
X002479Y013202D01*
X002479Y013251D02*
X002873Y013251D01*
X002873Y013299D02*
X002479Y013299D01*
X002479Y013348D02*
X002873Y013348D01*
X002873Y013396D02*
X002479Y013396D01*
X002479Y013445D02*
X002873Y013445D01*
X002873Y013493D02*
X002479Y013493D01*
X002479Y013542D02*
X002873Y013542D01*
X002873Y013590D02*
X002479Y013590D01*
X002479Y013639D02*
X002873Y013639D01*
X002873Y013687D02*
X002479Y013687D01*
X002479Y013736D02*
X002873Y013736D01*
X002873Y013784D02*
X002479Y013784D01*
X002479Y013833D02*
X002873Y013833D01*
X002873Y013881D02*
X002479Y013881D01*
X002479Y013930D02*
X002873Y013930D01*
X002873Y013978D02*
X002479Y013978D01*
X002479Y014027D02*
X002873Y014027D01*
X002873Y014075D02*
X002479Y014075D01*
X002479Y014124D02*
X002873Y014124D01*
X002873Y014172D02*
X002479Y014172D01*
X002479Y014221D02*
X002873Y014221D01*
X002873Y014269D02*
X002479Y014269D01*
X002479Y014318D02*
X002873Y014318D01*
X002873Y014366D02*
X002479Y014366D01*
X002479Y014415D02*
X002873Y014415D01*
X002873Y014463D02*
X002479Y014463D01*
X002479Y014512D02*
X002873Y014512D01*
X002873Y014560D02*
X002479Y014560D01*
X002479Y014609D02*
X002873Y014609D01*
X002873Y014657D02*
X002479Y014657D01*
X002479Y014706D02*
X002873Y014706D01*
X002873Y014754D02*
X002479Y014754D01*
X002479Y014803D02*
X002873Y014803D01*
X002873Y014851D02*
X002479Y014851D01*
X002479Y014900D02*
X002873Y014900D01*
X002873Y014948D02*
X002479Y014948D01*
X002479Y014997D02*
X002873Y014997D01*
X002873Y015045D02*
X002479Y015045D01*
X002479Y015094D02*
X002873Y015094D01*
X002873Y015142D02*
X002479Y015142D01*
X002479Y015191D02*
X002873Y015191D01*
X002873Y015239D02*
X002479Y015239D01*
X002479Y015288D02*
X002873Y015288D01*
X002873Y015336D02*
X002479Y015336D01*
X002479Y015385D02*
X002873Y015385D01*
X002873Y015433D02*
X002479Y015433D01*
X016258Y015433D02*
X016652Y015433D01*
X016652Y015441D02*
X016258Y015441D01*
X016258Y012784D01*
X016652Y012784D01*
X016652Y015441D01*
X016652Y015385D02*
X016258Y015385D01*
X016258Y015336D02*
X016652Y015336D01*
X016652Y015288D02*
X016258Y015288D01*
X016258Y015239D02*
X016652Y015239D01*
X016652Y015191D02*
X016258Y015191D01*
X016258Y015142D02*
X016652Y015142D01*
X016652Y015094D02*
X016258Y015094D01*
X016258Y015045D02*
X016652Y015045D01*
X016652Y014997D02*
X016258Y014997D01*
X016258Y014948D02*
X016652Y014948D01*
X016652Y014900D02*
X016258Y014900D01*
X016258Y014851D02*
X016652Y014851D01*
X016652Y014803D02*
X016258Y014803D01*
X016258Y014754D02*
X016652Y014754D01*
X016652Y014706D02*
X016258Y014706D01*
X016258Y014657D02*
X016652Y014657D01*
X016652Y014609D02*
X016258Y014609D01*
X016258Y014560D02*
X016652Y014560D01*
X016652Y014512D02*
X016258Y014512D01*
X016258Y014463D02*
X016652Y014463D01*
X016652Y014415D02*
X016258Y014415D01*
X016258Y014366D02*
X016652Y014366D01*
X016652Y014318D02*
X016258Y014318D01*
X016258Y014269D02*
X016652Y014269D01*
X016652Y014221D02*
X016258Y014221D01*
X016258Y014172D02*
X016652Y014172D01*
X016652Y014124D02*
X016258Y014124D01*
X016258Y014075D02*
X016652Y014075D01*
X016652Y014027D02*
X016258Y014027D01*
X016258Y013978D02*
X016652Y013978D01*
X016652Y013930D02*
X016258Y013930D01*
X016258Y013881D02*
X016652Y013881D01*
X016652Y013833D02*
X016258Y013833D01*
X016258Y013784D02*
X016652Y013784D01*
X016652Y013736D02*
X016258Y013736D01*
X016258Y013687D02*
X016652Y013687D01*
X016652Y013639D02*
X016258Y013639D01*
X016258Y013590D02*
X016652Y013590D01*
X016652Y013542D02*
X016258Y013542D01*
X016258Y013493D02*
X016652Y013493D01*
X016652Y013445D02*
X016258Y013445D01*
X016258Y013396D02*
X016652Y013396D01*
X016652Y013348D02*
X016258Y013348D01*
X016258Y013299D02*
X016652Y013299D01*
X016652Y013251D02*
X016258Y013251D01*
X016258Y013202D02*
X016652Y013202D01*
X016652Y013154D02*
X016258Y013154D01*
X016258Y013105D02*
X016652Y013105D01*
X016652Y013057D02*
X016258Y013057D01*
X016258Y013008D02*
X016652Y013008D01*
X016652Y012960D02*
X016258Y012960D01*
X016258Y012911D02*
X016652Y012911D01*
X016652Y012863D02*
X016258Y012863D01*
X016258Y012814D02*
X016652Y012814D01*
M02*
