%
M48
M72
T01C0.01378
T02C0.02362
T03C0.03150
T04C0.03543
T05C0.04000
T06C0.04331
T07C0.12850
T08C0.17717
T09C0.36000
%
T01
X241800Y466800
X156800Y400800
X149800Y395800
X151800Y341800
X157800Y325800
X189800Y299800
X121800Y292800
X111800Y281800
X111800Y261800
X81800Y261800
X81800Y281800
X91800Y301800
T02
X21800Y29800
X21800Y501800
X451800Y501800
X426800Y31800
X401800Y31800
X377800Y45800
X351800Y51800
X351800Y71800
X377800Y85800
X376800Y126800
X406800Y131800
X431800Y156800
X451800Y146800
X451800Y121800
X451800Y96800
X451800Y71800
X451800Y56800
X376800Y166800
X451800Y171800
X451800Y196800
X451800Y221800
X451800Y246800
X431800Y286800
X411800Y286800
X391800Y286800
X371800Y286800
X351800Y291800
X336800Y306800
X336800Y326800
X336800Y346800
X321800Y351800
X321800Y376800
X286800Y369800
X286800Y386800
X286800Y406800
X273800Y407800
X286800Y426800
X286800Y446800
X286800Y466800
X271800Y466800
X265800Y451800
X254800Y466800
X294800Y481800
X296800Y501800
X356800Y466800
X356800Y461800
X356800Y456800
X356800Y446800
X356800Y441800
X356800Y421800
X356800Y416800
X356800Y411800
X356800Y401800
X356800Y396800
X365800Y391800
X366800Y376800
X391800Y376800
X391800Y391800
X411800Y391800
X411800Y376800
X431800Y376800
X431800Y391800
X451800Y391800
X451800Y376800
X451800Y356800
X451800Y336800
X451800Y316800
X451800Y296800
X451800Y286800
X451800Y415800
X451800Y437800
X451800Y457800
X451800Y479800
X431800Y501800
X411800Y501800
X384800Y482800
X375800Y474800
X252800Y414800
X252800Y401800
X252800Y381800
X227800Y407800
X207800Y409800
X193800Y409800
X178800Y409800
X163800Y409800
X148800Y409800
X133800Y409800
X118800Y409800
X103800Y409800
X91800Y441800
X96800Y501800
X71800Y501800
X46800Y501800
X21800Y481800
X21800Y456800
X21927Y430945
X21800Y406800
X21800Y381800
X21800Y356800
X21800Y331800
X21800Y306800
X21800Y281800
X21800Y256800
X21800Y231800
X42800Y221800
X21800Y206800
X21800Y181800
X21800Y156800
X21800Y131800
X21800Y106800
X21800Y81800
X21800Y56800
X46800Y29800
X76800Y29800
X106800Y29800
X135800Y29800
X164800Y29800
X194800Y29800
X224800Y29800
X254800Y29800
X284800Y29800
X314800Y29800
X344800Y29800
X272800Y178800
X281800Y251800
X281800Y291800
X311800Y291800
X286800Y351800
X216800Y296800
X216800Y291800
X221800Y261800
X167300Y312300
X167800Y350800
X177800Y350800
X202300Y367300
X211800Y326800
X146800Y361800
X162800Y236800
X116800Y200800
X108800Y224800
T03
X322320Y278800
X329800Y278800
X337280Y278800
T04
X326800Y39300
X326800Y49300
X316800Y49300
X316800Y39300
X306800Y39300
X306800Y49300
X296800Y49300
X296800Y39300
X286800Y39300
X286800Y49300
X276800Y49300
X276800Y39300
X266800Y39300
X266800Y49300
X256800Y49300
X256800Y39300
X246800Y39300
X246800Y49300
X236800Y49300
X236800Y39300
X226800Y39300
X226800Y49300
X216800Y49300
X216800Y39300
X206800Y39300
X206800Y49300
X196800Y49300
X196800Y39300
X186800Y39300
X186800Y49300
X176800Y49300
X176800Y39300
X166800Y39300
X166800Y49300
X156800Y49300
X156800Y39300
X146800Y39300
X146800Y49300
X146800Y79300
X146800Y89300
X146800Y99300
X146800Y119300
X146800Y129300
X146800Y139300
X146800Y149300
X146800Y159300
X146800Y169300
X146800Y179300
X146800Y189300
X146800Y199300
X146800Y209300
X156800Y209300
X156800Y199300
X156800Y189300
X156800Y179300
X156800Y169300
X156800Y159300
X156800Y149300
X156800Y139300
X156800Y129300
X156800Y119300
X326800Y209300
X326800Y199300
X326800Y189300
X326800Y179300
X326800Y169300
X326800Y159300
X326800Y149300
X326800Y139300
X326800Y129300
X326800Y119300
X316800Y119300
X316800Y129300
X316800Y139300
X316800Y149300
X316800Y159300
X316800Y169300
X316800Y179300
X316800Y189300
X316800Y199300
X316800Y209300
X326800Y99300
X326800Y89300
X326800Y79300
T05
X256800Y269800
X246800Y269800
X236800Y269800
X236800Y315800
X246800Y315800
X256800Y315800
T06
X82300Y151800
X92300Y151800
X102300Y151800
X101800Y240800
X91800Y240800
X81800Y240800
X136800Y474300
X146800Y474300
X156800Y474300
X166800Y474300
X176800Y474300
X186800Y474300
X196800Y474300
X206800Y474300
X216800Y474300
X216800Y498800
X206800Y498800
X196800Y498800
X186800Y498800
X176800Y498800
X166800Y498800
X156800Y498800
X146800Y498800
X136800Y498800
X231800Y436800
X241800Y436800
X251800Y436800
X261800Y436800
X396800Y261800
X386800Y261800
X385800Y233800
X375800Y233800
X395800Y233800
X405800Y233800
X391800Y210800
X381800Y210800
X371800Y210800
X371300Y174800
X381300Y174800
X381300Y134800
X371300Y134800
X371300Y94800
X381300Y94800
X381300Y54800
X371300Y54800
T07
X441800Y41800
X436800Y266800
X363800Y491800
X111800Y491800
X31800Y266800
X31800Y41800
T08
X310115Y365414
X349485Y365414
T09
X411800Y331800
X411800Y451800
X61800Y331800
M30
