G75*
%MOIN*%
%OFA0B0*%
%FSLAX25Y25*%
%IPPOS*%
%LPD*%
%AMOC8*
5,1,8,0,0,1.08239X$1,22.5*
%
%ADD10C,0.00000*%
D10*
X0021800Y0021800D02*
X0451800Y0021800D01*
X0452042Y0021803D01*
X0452283Y0021812D01*
X0452524Y0021826D01*
X0452765Y0021847D01*
X0453005Y0021873D01*
X0453245Y0021905D01*
X0453484Y0021943D01*
X0453721Y0021986D01*
X0453958Y0022036D01*
X0454193Y0022091D01*
X0454427Y0022151D01*
X0454659Y0022218D01*
X0454890Y0022289D01*
X0455119Y0022367D01*
X0455346Y0022450D01*
X0455571Y0022538D01*
X0455794Y0022632D01*
X0456014Y0022731D01*
X0456232Y0022836D01*
X0456447Y0022945D01*
X0456660Y0023060D01*
X0456870Y0023180D01*
X0457076Y0023305D01*
X0457280Y0023435D01*
X0457481Y0023570D01*
X0457678Y0023710D01*
X0457872Y0023854D01*
X0458062Y0024003D01*
X0458248Y0024157D01*
X0458431Y0024315D01*
X0458610Y0024477D01*
X0458785Y0024644D01*
X0458956Y0024815D01*
X0459123Y0024990D01*
X0459285Y0025169D01*
X0459443Y0025352D01*
X0459597Y0025538D01*
X0459746Y0025728D01*
X0459890Y0025922D01*
X0460030Y0026119D01*
X0460165Y0026320D01*
X0460295Y0026524D01*
X0460420Y0026730D01*
X0460540Y0026940D01*
X0460655Y0027153D01*
X0460764Y0027368D01*
X0460869Y0027586D01*
X0460968Y0027806D01*
X0461062Y0028029D01*
X0461150Y0028254D01*
X0461233Y0028481D01*
X0461311Y0028710D01*
X0461382Y0028941D01*
X0461449Y0029173D01*
X0461509Y0029407D01*
X0461564Y0029642D01*
X0461614Y0029879D01*
X0461657Y0030116D01*
X0461695Y0030355D01*
X0461727Y0030595D01*
X0461753Y0030835D01*
X0461774Y0031076D01*
X0461788Y0031317D01*
X0461797Y0031558D01*
X0461800Y0031800D01*
X0461800Y0501800D01*
X0461797Y0502042D01*
X0461788Y0502283D01*
X0461774Y0502524D01*
X0461753Y0502765D01*
X0461727Y0503005D01*
X0461695Y0503245D01*
X0461657Y0503484D01*
X0461614Y0503721D01*
X0461564Y0503958D01*
X0461509Y0504193D01*
X0461449Y0504427D01*
X0461382Y0504659D01*
X0461311Y0504890D01*
X0461233Y0505119D01*
X0461150Y0505346D01*
X0461062Y0505571D01*
X0460968Y0505794D01*
X0460869Y0506014D01*
X0460764Y0506232D01*
X0460655Y0506447D01*
X0460540Y0506660D01*
X0460420Y0506870D01*
X0460295Y0507076D01*
X0460165Y0507280D01*
X0460030Y0507481D01*
X0459890Y0507678D01*
X0459746Y0507872D01*
X0459597Y0508062D01*
X0459443Y0508248D01*
X0459285Y0508431D01*
X0459123Y0508610D01*
X0458956Y0508785D01*
X0458785Y0508956D01*
X0458610Y0509123D01*
X0458431Y0509285D01*
X0458248Y0509443D01*
X0458062Y0509597D01*
X0457872Y0509746D01*
X0457678Y0509890D01*
X0457481Y0510030D01*
X0457280Y0510165D01*
X0457076Y0510295D01*
X0456870Y0510420D01*
X0456660Y0510540D01*
X0456447Y0510655D01*
X0456232Y0510764D01*
X0456014Y0510869D01*
X0455794Y0510968D01*
X0455571Y0511062D01*
X0455346Y0511150D01*
X0455119Y0511233D01*
X0454890Y0511311D01*
X0454659Y0511382D01*
X0454427Y0511449D01*
X0454193Y0511509D01*
X0453958Y0511564D01*
X0453721Y0511614D01*
X0453484Y0511657D01*
X0453245Y0511695D01*
X0453005Y0511727D01*
X0452765Y0511753D01*
X0452524Y0511774D01*
X0452283Y0511788D01*
X0452042Y0511797D01*
X0451800Y0511800D01*
X0021800Y0511800D01*
X0021558Y0511797D01*
X0021317Y0511788D01*
X0021076Y0511774D01*
X0020835Y0511753D01*
X0020595Y0511727D01*
X0020355Y0511695D01*
X0020116Y0511657D01*
X0019879Y0511614D01*
X0019642Y0511564D01*
X0019407Y0511509D01*
X0019173Y0511449D01*
X0018941Y0511382D01*
X0018710Y0511311D01*
X0018481Y0511233D01*
X0018254Y0511150D01*
X0018029Y0511062D01*
X0017806Y0510968D01*
X0017586Y0510869D01*
X0017368Y0510764D01*
X0017153Y0510655D01*
X0016940Y0510540D01*
X0016730Y0510420D01*
X0016524Y0510295D01*
X0016320Y0510165D01*
X0016119Y0510030D01*
X0015922Y0509890D01*
X0015728Y0509746D01*
X0015538Y0509597D01*
X0015352Y0509443D01*
X0015169Y0509285D01*
X0014990Y0509123D01*
X0014815Y0508956D01*
X0014644Y0508785D01*
X0014477Y0508610D01*
X0014315Y0508431D01*
X0014157Y0508248D01*
X0014003Y0508062D01*
X0013854Y0507872D01*
X0013710Y0507678D01*
X0013570Y0507481D01*
X0013435Y0507280D01*
X0013305Y0507076D01*
X0013180Y0506870D01*
X0013060Y0506660D01*
X0012945Y0506447D01*
X0012836Y0506232D01*
X0012731Y0506014D01*
X0012632Y0505794D01*
X0012538Y0505571D01*
X0012450Y0505346D01*
X0012367Y0505119D01*
X0012289Y0504890D01*
X0012218Y0504659D01*
X0012151Y0504427D01*
X0012091Y0504193D01*
X0012036Y0503958D01*
X0011986Y0503721D01*
X0011943Y0503484D01*
X0011905Y0503245D01*
X0011873Y0503005D01*
X0011847Y0502765D01*
X0011826Y0502524D01*
X0011812Y0502283D01*
X0011803Y0502042D01*
X0011800Y0501800D01*
X0011800Y0031800D01*
X0011803Y0031558D01*
X0011812Y0031317D01*
X0011826Y0031076D01*
X0011847Y0030835D01*
X0011873Y0030595D01*
X0011905Y0030355D01*
X0011943Y0030116D01*
X0011986Y0029879D01*
X0012036Y0029642D01*
X0012091Y0029407D01*
X0012151Y0029173D01*
X0012218Y0028941D01*
X0012289Y0028710D01*
X0012367Y0028481D01*
X0012450Y0028254D01*
X0012538Y0028029D01*
X0012632Y0027806D01*
X0012731Y0027586D01*
X0012836Y0027368D01*
X0012945Y0027153D01*
X0013060Y0026940D01*
X0013180Y0026730D01*
X0013305Y0026524D01*
X0013435Y0026320D01*
X0013570Y0026119D01*
X0013710Y0025922D01*
X0013854Y0025728D01*
X0014003Y0025538D01*
X0014157Y0025352D01*
X0014315Y0025169D01*
X0014477Y0024990D01*
X0014644Y0024815D01*
X0014815Y0024644D01*
X0014990Y0024477D01*
X0015169Y0024315D01*
X0015352Y0024157D01*
X0015538Y0024003D01*
X0015728Y0023854D01*
X0015922Y0023710D01*
X0016119Y0023570D01*
X0016320Y0023435D01*
X0016524Y0023305D01*
X0016730Y0023180D01*
X0016940Y0023060D01*
X0017153Y0022945D01*
X0017368Y0022836D01*
X0017586Y0022731D01*
X0017806Y0022632D01*
X0018029Y0022538D01*
X0018254Y0022450D01*
X0018481Y0022367D01*
X0018710Y0022289D01*
X0018941Y0022218D01*
X0019173Y0022151D01*
X0019407Y0022091D01*
X0019642Y0022036D01*
X0019879Y0021986D01*
X0020116Y0021943D01*
X0020355Y0021905D01*
X0020595Y0021873D01*
X0020835Y0021847D01*
X0021076Y0021826D01*
X0021317Y0021812D01*
X0021558Y0021803D01*
X0021800Y0021800D01*
X0025375Y0041800D02*
X0025377Y0041960D01*
X0025383Y0042120D01*
X0025393Y0042280D01*
X0025407Y0042440D01*
X0025425Y0042599D01*
X0025447Y0042758D01*
X0025473Y0042916D01*
X0025502Y0043073D01*
X0025536Y0043230D01*
X0025574Y0043385D01*
X0025615Y0043540D01*
X0025660Y0043694D01*
X0025710Y0043846D01*
X0025762Y0043997D01*
X0025819Y0044147D01*
X0025880Y0044296D01*
X0025944Y0044443D01*
X0026011Y0044588D01*
X0026083Y0044731D01*
X0026157Y0044873D01*
X0026236Y0045013D01*
X0026318Y0045150D01*
X0026403Y0045286D01*
X0026491Y0045419D01*
X0026583Y0045551D01*
X0026678Y0045679D01*
X0026777Y0045806D01*
X0026878Y0045930D01*
X0026983Y0046051D01*
X0027090Y0046170D01*
X0027201Y0046286D01*
X0027314Y0046399D01*
X0027430Y0046510D01*
X0027549Y0046617D01*
X0027670Y0046722D01*
X0027794Y0046823D01*
X0027921Y0046922D01*
X0028049Y0047017D01*
X0028181Y0047109D01*
X0028314Y0047197D01*
X0028450Y0047282D01*
X0028588Y0047364D01*
X0028727Y0047443D01*
X0028869Y0047517D01*
X0029012Y0047589D01*
X0029157Y0047656D01*
X0029304Y0047720D01*
X0029453Y0047781D01*
X0029603Y0047838D01*
X0029754Y0047890D01*
X0029906Y0047940D01*
X0030060Y0047985D01*
X0030215Y0048026D01*
X0030370Y0048064D01*
X0030527Y0048098D01*
X0030684Y0048127D01*
X0030842Y0048153D01*
X0031001Y0048175D01*
X0031160Y0048193D01*
X0031320Y0048207D01*
X0031480Y0048217D01*
X0031640Y0048223D01*
X0031800Y0048225D01*
X0031960Y0048223D01*
X0032120Y0048217D01*
X0032280Y0048207D01*
X0032440Y0048193D01*
X0032599Y0048175D01*
X0032758Y0048153D01*
X0032916Y0048127D01*
X0033073Y0048098D01*
X0033230Y0048064D01*
X0033385Y0048026D01*
X0033540Y0047985D01*
X0033694Y0047940D01*
X0033846Y0047890D01*
X0033997Y0047838D01*
X0034147Y0047781D01*
X0034296Y0047720D01*
X0034443Y0047656D01*
X0034588Y0047589D01*
X0034731Y0047517D01*
X0034873Y0047443D01*
X0035013Y0047364D01*
X0035150Y0047282D01*
X0035286Y0047197D01*
X0035419Y0047109D01*
X0035551Y0047017D01*
X0035679Y0046922D01*
X0035806Y0046823D01*
X0035930Y0046722D01*
X0036051Y0046617D01*
X0036170Y0046510D01*
X0036286Y0046399D01*
X0036399Y0046286D01*
X0036510Y0046170D01*
X0036617Y0046051D01*
X0036722Y0045930D01*
X0036823Y0045806D01*
X0036922Y0045679D01*
X0037017Y0045551D01*
X0037109Y0045419D01*
X0037197Y0045286D01*
X0037282Y0045150D01*
X0037364Y0045012D01*
X0037443Y0044873D01*
X0037517Y0044731D01*
X0037589Y0044588D01*
X0037656Y0044443D01*
X0037720Y0044296D01*
X0037781Y0044147D01*
X0037838Y0043997D01*
X0037890Y0043846D01*
X0037940Y0043694D01*
X0037985Y0043540D01*
X0038026Y0043385D01*
X0038064Y0043230D01*
X0038098Y0043073D01*
X0038127Y0042916D01*
X0038153Y0042758D01*
X0038175Y0042599D01*
X0038193Y0042440D01*
X0038207Y0042280D01*
X0038217Y0042120D01*
X0038223Y0041960D01*
X0038225Y0041800D01*
X0038223Y0041640D01*
X0038217Y0041480D01*
X0038207Y0041320D01*
X0038193Y0041160D01*
X0038175Y0041001D01*
X0038153Y0040842D01*
X0038127Y0040684D01*
X0038098Y0040527D01*
X0038064Y0040370D01*
X0038026Y0040215D01*
X0037985Y0040060D01*
X0037940Y0039906D01*
X0037890Y0039754D01*
X0037838Y0039603D01*
X0037781Y0039453D01*
X0037720Y0039304D01*
X0037656Y0039157D01*
X0037589Y0039012D01*
X0037517Y0038869D01*
X0037443Y0038727D01*
X0037364Y0038587D01*
X0037282Y0038450D01*
X0037197Y0038314D01*
X0037109Y0038181D01*
X0037017Y0038049D01*
X0036922Y0037921D01*
X0036823Y0037794D01*
X0036722Y0037670D01*
X0036617Y0037549D01*
X0036510Y0037430D01*
X0036399Y0037314D01*
X0036286Y0037201D01*
X0036170Y0037090D01*
X0036051Y0036983D01*
X0035930Y0036878D01*
X0035806Y0036777D01*
X0035679Y0036678D01*
X0035551Y0036583D01*
X0035419Y0036491D01*
X0035286Y0036403D01*
X0035150Y0036318D01*
X0035012Y0036236D01*
X0034873Y0036157D01*
X0034731Y0036083D01*
X0034588Y0036011D01*
X0034443Y0035944D01*
X0034296Y0035880D01*
X0034147Y0035819D01*
X0033997Y0035762D01*
X0033846Y0035710D01*
X0033694Y0035660D01*
X0033540Y0035615D01*
X0033385Y0035574D01*
X0033230Y0035536D01*
X0033073Y0035502D01*
X0032916Y0035473D01*
X0032758Y0035447D01*
X0032599Y0035425D01*
X0032440Y0035407D01*
X0032280Y0035393D01*
X0032120Y0035383D01*
X0031960Y0035377D01*
X0031800Y0035375D01*
X0031640Y0035377D01*
X0031480Y0035383D01*
X0031320Y0035393D01*
X0031160Y0035407D01*
X0031001Y0035425D01*
X0030842Y0035447D01*
X0030684Y0035473D01*
X0030527Y0035502D01*
X0030370Y0035536D01*
X0030215Y0035574D01*
X0030060Y0035615D01*
X0029906Y0035660D01*
X0029754Y0035710D01*
X0029603Y0035762D01*
X0029453Y0035819D01*
X0029304Y0035880D01*
X0029157Y0035944D01*
X0029012Y0036011D01*
X0028869Y0036083D01*
X0028727Y0036157D01*
X0028587Y0036236D01*
X0028450Y0036318D01*
X0028314Y0036403D01*
X0028181Y0036491D01*
X0028049Y0036583D01*
X0027921Y0036678D01*
X0027794Y0036777D01*
X0027670Y0036878D01*
X0027549Y0036983D01*
X0027430Y0037090D01*
X0027314Y0037201D01*
X0027201Y0037314D01*
X0027090Y0037430D01*
X0026983Y0037549D01*
X0026878Y0037670D01*
X0026777Y0037794D01*
X0026678Y0037921D01*
X0026583Y0038049D01*
X0026491Y0038181D01*
X0026403Y0038314D01*
X0026318Y0038450D01*
X0026236Y0038588D01*
X0026157Y0038727D01*
X0026083Y0038869D01*
X0026011Y0039012D01*
X0025944Y0039157D01*
X0025880Y0039304D01*
X0025819Y0039453D01*
X0025762Y0039603D01*
X0025710Y0039754D01*
X0025660Y0039906D01*
X0025615Y0040060D01*
X0025574Y0040215D01*
X0025536Y0040370D01*
X0025502Y0040527D01*
X0025473Y0040684D01*
X0025447Y0040842D01*
X0025425Y0041001D01*
X0025407Y0041160D01*
X0025393Y0041320D01*
X0025383Y0041480D01*
X0025377Y0041640D01*
X0025375Y0041800D01*
X0025375Y0266800D02*
X0025377Y0266960D01*
X0025383Y0267120D01*
X0025393Y0267280D01*
X0025407Y0267440D01*
X0025425Y0267599D01*
X0025447Y0267758D01*
X0025473Y0267916D01*
X0025502Y0268073D01*
X0025536Y0268230D01*
X0025574Y0268385D01*
X0025615Y0268540D01*
X0025660Y0268694D01*
X0025710Y0268846D01*
X0025762Y0268997D01*
X0025819Y0269147D01*
X0025880Y0269296D01*
X0025944Y0269443D01*
X0026011Y0269588D01*
X0026083Y0269731D01*
X0026157Y0269873D01*
X0026236Y0270013D01*
X0026318Y0270150D01*
X0026403Y0270286D01*
X0026491Y0270419D01*
X0026583Y0270551D01*
X0026678Y0270679D01*
X0026777Y0270806D01*
X0026878Y0270930D01*
X0026983Y0271051D01*
X0027090Y0271170D01*
X0027201Y0271286D01*
X0027314Y0271399D01*
X0027430Y0271510D01*
X0027549Y0271617D01*
X0027670Y0271722D01*
X0027794Y0271823D01*
X0027921Y0271922D01*
X0028049Y0272017D01*
X0028181Y0272109D01*
X0028314Y0272197D01*
X0028450Y0272282D01*
X0028588Y0272364D01*
X0028727Y0272443D01*
X0028869Y0272517D01*
X0029012Y0272589D01*
X0029157Y0272656D01*
X0029304Y0272720D01*
X0029453Y0272781D01*
X0029603Y0272838D01*
X0029754Y0272890D01*
X0029906Y0272940D01*
X0030060Y0272985D01*
X0030215Y0273026D01*
X0030370Y0273064D01*
X0030527Y0273098D01*
X0030684Y0273127D01*
X0030842Y0273153D01*
X0031001Y0273175D01*
X0031160Y0273193D01*
X0031320Y0273207D01*
X0031480Y0273217D01*
X0031640Y0273223D01*
X0031800Y0273225D01*
X0031960Y0273223D01*
X0032120Y0273217D01*
X0032280Y0273207D01*
X0032440Y0273193D01*
X0032599Y0273175D01*
X0032758Y0273153D01*
X0032916Y0273127D01*
X0033073Y0273098D01*
X0033230Y0273064D01*
X0033385Y0273026D01*
X0033540Y0272985D01*
X0033694Y0272940D01*
X0033846Y0272890D01*
X0033997Y0272838D01*
X0034147Y0272781D01*
X0034296Y0272720D01*
X0034443Y0272656D01*
X0034588Y0272589D01*
X0034731Y0272517D01*
X0034873Y0272443D01*
X0035013Y0272364D01*
X0035150Y0272282D01*
X0035286Y0272197D01*
X0035419Y0272109D01*
X0035551Y0272017D01*
X0035679Y0271922D01*
X0035806Y0271823D01*
X0035930Y0271722D01*
X0036051Y0271617D01*
X0036170Y0271510D01*
X0036286Y0271399D01*
X0036399Y0271286D01*
X0036510Y0271170D01*
X0036617Y0271051D01*
X0036722Y0270930D01*
X0036823Y0270806D01*
X0036922Y0270679D01*
X0037017Y0270551D01*
X0037109Y0270419D01*
X0037197Y0270286D01*
X0037282Y0270150D01*
X0037364Y0270012D01*
X0037443Y0269873D01*
X0037517Y0269731D01*
X0037589Y0269588D01*
X0037656Y0269443D01*
X0037720Y0269296D01*
X0037781Y0269147D01*
X0037838Y0268997D01*
X0037890Y0268846D01*
X0037940Y0268694D01*
X0037985Y0268540D01*
X0038026Y0268385D01*
X0038064Y0268230D01*
X0038098Y0268073D01*
X0038127Y0267916D01*
X0038153Y0267758D01*
X0038175Y0267599D01*
X0038193Y0267440D01*
X0038207Y0267280D01*
X0038217Y0267120D01*
X0038223Y0266960D01*
X0038225Y0266800D01*
X0038223Y0266640D01*
X0038217Y0266480D01*
X0038207Y0266320D01*
X0038193Y0266160D01*
X0038175Y0266001D01*
X0038153Y0265842D01*
X0038127Y0265684D01*
X0038098Y0265527D01*
X0038064Y0265370D01*
X0038026Y0265215D01*
X0037985Y0265060D01*
X0037940Y0264906D01*
X0037890Y0264754D01*
X0037838Y0264603D01*
X0037781Y0264453D01*
X0037720Y0264304D01*
X0037656Y0264157D01*
X0037589Y0264012D01*
X0037517Y0263869D01*
X0037443Y0263727D01*
X0037364Y0263587D01*
X0037282Y0263450D01*
X0037197Y0263314D01*
X0037109Y0263181D01*
X0037017Y0263049D01*
X0036922Y0262921D01*
X0036823Y0262794D01*
X0036722Y0262670D01*
X0036617Y0262549D01*
X0036510Y0262430D01*
X0036399Y0262314D01*
X0036286Y0262201D01*
X0036170Y0262090D01*
X0036051Y0261983D01*
X0035930Y0261878D01*
X0035806Y0261777D01*
X0035679Y0261678D01*
X0035551Y0261583D01*
X0035419Y0261491D01*
X0035286Y0261403D01*
X0035150Y0261318D01*
X0035012Y0261236D01*
X0034873Y0261157D01*
X0034731Y0261083D01*
X0034588Y0261011D01*
X0034443Y0260944D01*
X0034296Y0260880D01*
X0034147Y0260819D01*
X0033997Y0260762D01*
X0033846Y0260710D01*
X0033694Y0260660D01*
X0033540Y0260615D01*
X0033385Y0260574D01*
X0033230Y0260536D01*
X0033073Y0260502D01*
X0032916Y0260473D01*
X0032758Y0260447D01*
X0032599Y0260425D01*
X0032440Y0260407D01*
X0032280Y0260393D01*
X0032120Y0260383D01*
X0031960Y0260377D01*
X0031800Y0260375D01*
X0031640Y0260377D01*
X0031480Y0260383D01*
X0031320Y0260393D01*
X0031160Y0260407D01*
X0031001Y0260425D01*
X0030842Y0260447D01*
X0030684Y0260473D01*
X0030527Y0260502D01*
X0030370Y0260536D01*
X0030215Y0260574D01*
X0030060Y0260615D01*
X0029906Y0260660D01*
X0029754Y0260710D01*
X0029603Y0260762D01*
X0029453Y0260819D01*
X0029304Y0260880D01*
X0029157Y0260944D01*
X0029012Y0261011D01*
X0028869Y0261083D01*
X0028727Y0261157D01*
X0028587Y0261236D01*
X0028450Y0261318D01*
X0028314Y0261403D01*
X0028181Y0261491D01*
X0028049Y0261583D01*
X0027921Y0261678D01*
X0027794Y0261777D01*
X0027670Y0261878D01*
X0027549Y0261983D01*
X0027430Y0262090D01*
X0027314Y0262201D01*
X0027201Y0262314D01*
X0027090Y0262430D01*
X0026983Y0262549D01*
X0026878Y0262670D01*
X0026777Y0262794D01*
X0026678Y0262921D01*
X0026583Y0263049D01*
X0026491Y0263181D01*
X0026403Y0263314D01*
X0026318Y0263450D01*
X0026236Y0263588D01*
X0026157Y0263727D01*
X0026083Y0263869D01*
X0026011Y0264012D01*
X0025944Y0264157D01*
X0025880Y0264304D01*
X0025819Y0264453D01*
X0025762Y0264603D01*
X0025710Y0264754D01*
X0025660Y0264906D01*
X0025615Y0265060D01*
X0025574Y0265215D01*
X0025536Y0265370D01*
X0025502Y0265527D01*
X0025473Y0265684D01*
X0025447Y0265842D01*
X0025425Y0266001D01*
X0025407Y0266160D01*
X0025393Y0266320D01*
X0025383Y0266480D01*
X0025377Y0266640D01*
X0025375Y0266800D01*
X0105375Y0491800D02*
X0105377Y0491960D01*
X0105383Y0492120D01*
X0105393Y0492280D01*
X0105407Y0492440D01*
X0105425Y0492599D01*
X0105447Y0492758D01*
X0105473Y0492916D01*
X0105502Y0493073D01*
X0105536Y0493230D01*
X0105574Y0493385D01*
X0105615Y0493540D01*
X0105660Y0493694D01*
X0105710Y0493846D01*
X0105762Y0493997D01*
X0105819Y0494147D01*
X0105880Y0494296D01*
X0105944Y0494443D01*
X0106011Y0494588D01*
X0106083Y0494731D01*
X0106157Y0494873D01*
X0106236Y0495013D01*
X0106318Y0495150D01*
X0106403Y0495286D01*
X0106491Y0495419D01*
X0106583Y0495551D01*
X0106678Y0495679D01*
X0106777Y0495806D01*
X0106878Y0495930D01*
X0106983Y0496051D01*
X0107090Y0496170D01*
X0107201Y0496286D01*
X0107314Y0496399D01*
X0107430Y0496510D01*
X0107549Y0496617D01*
X0107670Y0496722D01*
X0107794Y0496823D01*
X0107921Y0496922D01*
X0108049Y0497017D01*
X0108181Y0497109D01*
X0108314Y0497197D01*
X0108450Y0497282D01*
X0108588Y0497364D01*
X0108727Y0497443D01*
X0108869Y0497517D01*
X0109012Y0497589D01*
X0109157Y0497656D01*
X0109304Y0497720D01*
X0109453Y0497781D01*
X0109603Y0497838D01*
X0109754Y0497890D01*
X0109906Y0497940D01*
X0110060Y0497985D01*
X0110215Y0498026D01*
X0110370Y0498064D01*
X0110527Y0498098D01*
X0110684Y0498127D01*
X0110842Y0498153D01*
X0111001Y0498175D01*
X0111160Y0498193D01*
X0111320Y0498207D01*
X0111480Y0498217D01*
X0111640Y0498223D01*
X0111800Y0498225D01*
X0111960Y0498223D01*
X0112120Y0498217D01*
X0112280Y0498207D01*
X0112440Y0498193D01*
X0112599Y0498175D01*
X0112758Y0498153D01*
X0112916Y0498127D01*
X0113073Y0498098D01*
X0113230Y0498064D01*
X0113385Y0498026D01*
X0113540Y0497985D01*
X0113694Y0497940D01*
X0113846Y0497890D01*
X0113997Y0497838D01*
X0114147Y0497781D01*
X0114296Y0497720D01*
X0114443Y0497656D01*
X0114588Y0497589D01*
X0114731Y0497517D01*
X0114873Y0497443D01*
X0115013Y0497364D01*
X0115150Y0497282D01*
X0115286Y0497197D01*
X0115419Y0497109D01*
X0115551Y0497017D01*
X0115679Y0496922D01*
X0115806Y0496823D01*
X0115930Y0496722D01*
X0116051Y0496617D01*
X0116170Y0496510D01*
X0116286Y0496399D01*
X0116399Y0496286D01*
X0116510Y0496170D01*
X0116617Y0496051D01*
X0116722Y0495930D01*
X0116823Y0495806D01*
X0116922Y0495679D01*
X0117017Y0495551D01*
X0117109Y0495419D01*
X0117197Y0495286D01*
X0117282Y0495150D01*
X0117364Y0495012D01*
X0117443Y0494873D01*
X0117517Y0494731D01*
X0117589Y0494588D01*
X0117656Y0494443D01*
X0117720Y0494296D01*
X0117781Y0494147D01*
X0117838Y0493997D01*
X0117890Y0493846D01*
X0117940Y0493694D01*
X0117985Y0493540D01*
X0118026Y0493385D01*
X0118064Y0493230D01*
X0118098Y0493073D01*
X0118127Y0492916D01*
X0118153Y0492758D01*
X0118175Y0492599D01*
X0118193Y0492440D01*
X0118207Y0492280D01*
X0118217Y0492120D01*
X0118223Y0491960D01*
X0118225Y0491800D01*
X0118223Y0491640D01*
X0118217Y0491480D01*
X0118207Y0491320D01*
X0118193Y0491160D01*
X0118175Y0491001D01*
X0118153Y0490842D01*
X0118127Y0490684D01*
X0118098Y0490527D01*
X0118064Y0490370D01*
X0118026Y0490215D01*
X0117985Y0490060D01*
X0117940Y0489906D01*
X0117890Y0489754D01*
X0117838Y0489603D01*
X0117781Y0489453D01*
X0117720Y0489304D01*
X0117656Y0489157D01*
X0117589Y0489012D01*
X0117517Y0488869D01*
X0117443Y0488727D01*
X0117364Y0488587D01*
X0117282Y0488450D01*
X0117197Y0488314D01*
X0117109Y0488181D01*
X0117017Y0488049D01*
X0116922Y0487921D01*
X0116823Y0487794D01*
X0116722Y0487670D01*
X0116617Y0487549D01*
X0116510Y0487430D01*
X0116399Y0487314D01*
X0116286Y0487201D01*
X0116170Y0487090D01*
X0116051Y0486983D01*
X0115930Y0486878D01*
X0115806Y0486777D01*
X0115679Y0486678D01*
X0115551Y0486583D01*
X0115419Y0486491D01*
X0115286Y0486403D01*
X0115150Y0486318D01*
X0115012Y0486236D01*
X0114873Y0486157D01*
X0114731Y0486083D01*
X0114588Y0486011D01*
X0114443Y0485944D01*
X0114296Y0485880D01*
X0114147Y0485819D01*
X0113997Y0485762D01*
X0113846Y0485710D01*
X0113694Y0485660D01*
X0113540Y0485615D01*
X0113385Y0485574D01*
X0113230Y0485536D01*
X0113073Y0485502D01*
X0112916Y0485473D01*
X0112758Y0485447D01*
X0112599Y0485425D01*
X0112440Y0485407D01*
X0112280Y0485393D01*
X0112120Y0485383D01*
X0111960Y0485377D01*
X0111800Y0485375D01*
X0111640Y0485377D01*
X0111480Y0485383D01*
X0111320Y0485393D01*
X0111160Y0485407D01*
X0111001Y0485425D01*
X0110842Y0485447D01*
X0110684Y0485473D01*
X0110527Y0485502D01*
X0110370Y0485536D01*
X0110215Y0485574D01*
X0110060Y0485615D01*
X0109906Y0485660D01*
X0109754Y0485710D01*
X0109603Y0485762D01*
X0109453Y0485819D01*
X0109304Y0485880D01*
X0109157Y0485944D01*
X0109012Y0486011D01*
X0108869Y0486083D01*
X0108727Y0486157D01*
X0108587Y0486236D01*
X0108450Y0486318D01*
X0108314Y0486403D01*
X0108181Y0486491D01*
X0108049Y0486583D01*
X0107921Y0486678D01*
X0107794Y0486777D01*
X0107670Y0486878D01*
X0107549Y0486983D01*
X0107430Y0487090D01*
X0107314Y0487201D01*
X0107201Y0487314D01*
X0107090Y0487430D01*
X0106983Y0487549D01*
X0106878Y0487670D01*
X0106777Y0487794D01*
X0106678Y0487921D01*
X0106583Y0488049D01*
X0106491Y0488181D01*
X0106403Y0488314D01*
X0106318Y0488450D01*
X0106236Y0488588D01*
X0106157Y0488727D01*
X0106083Y0488869D01*
X0106011Y0489012D01*
X0105944Y0489157D01*
X0105880Y0489304D01*
X0105819Y0489453D01*
X0105762Y0489603D01*
X0105710Y0489754D01*
X0105660Y0489906D01*
X0105615Y0490060D01*
X0105574Y0490215D01*
X0105536Y0490370D01*
X0105502Y0490527D01*
X0105473Y0490684D01*
X0105447Y0490842D01*
X0105425Y0491001D01*
X0105407Y0491160D01*
X0105393Y0491320D01*
X0105383Y0491480D01*
X0105377Y0491640D01*
X0105375Y0491800D01*
X0357375Y0491800D02*
X0357377Y0491960D01*
X0357383Y0492120D01*
X0357393Y0492280D01*
X0357407Y0492440D01*
X0357425Y0492599D01*
X0357447Y0492758D01*
X0357473Y0492916D01*
X0357502Y0493073D01*
X0357536Y0493230D01*
X0357574Y0493385D01*
X0357615Y0493540D01*
X0357660Y0493694D01*
X0357710Y0493846D01*
X0357762Y0493997D01*
X0357819Y0494147D01*
X0357880Y0494296D01*
X0357944Y0494443D01*
X0358011Y0494588D01*
X0358083Y0494731D01*
X0358157Y0494873D01*
X0358236Y0495013D01*
X0358318Y0495150D01*
X0358403Y0495286D01*
X0358491Y0495419D01*
X0358583Y0495551D01*
X0358678Y0495679D01*
X0358777Y0495806D01*
X0358878Y0495930D01*
X0358983Y0496051D01*
X0359090Y0496170D01*
X0359201Y0496286D01*
X0359314Y0496399D01*
X0359430Y0496510D01*
X0359549Y0496617D01*
X0359670Y0496722D01*
X0359794Y0496823D01*
X0359921Y0496922D01*
X0360049Y0497017D01*
X0360181Y0497109D01*
X0360314Y0497197D01*
X0360450Y0497282D01*
X0360588Y0497364D01*
X0360727Y0497443D01*
X0360869Y0497517D01*
X0361012Y0497589D01*
X0361157Y0497656D01*
X0361304Y0497720D01*
X0361453Y0497781D01*
X0361603Y0497838D01*
X0361754Y0497890D01*
X0361906Y0497940D01*
X0362060Y0497985D01*
X0362215Y0498026D01*
X0362370Y0498064D01*
X0362527Y0498098D01*
X0362684Y0498127D01*
X0362842Y0498153D01*
X0363001Y0498175D01*
X0363160Y0498193D01*
X0363320Y0498207D01*
X0363480Y0498217D01*
X0363640Y0498223D01*
X0363800Y0498225D01*
X0363960Y0498223D01*
X0364120Y0498217D01*
X0364280Y0498207D01*
X0364440Y0498193D01*
X0364599Y0498175D01*
X0364758Y0498153D01*
X0364916Y0498127D01*
X0365073Y0498098D01*
X0365230Y0498064D01*
X0365385Y0498026D01*
X0365540Y0497985D01*
X0365694Y0497940D01*
X0365846Y0497890D01*
X0365997Y0497838D01*
X0366147Y0497781D01*
X0366296Y0497720D01*
X0366443Y0497656D01*
X0366588Y0497589D01*
X0366731Y0497517D01*
X0366873Y0497443D01*
X0367013Y0497364D01*
X0367150Y0497282D01*
X0367286Y0497197D01*
X0367419Y0497109D01*
X0367551Y0497017D01*
X0367679Y0496922D01*
X0367806Y0496823D01*
X0367930Y0496722D01*
X0368051Y0496617D01*
X0368170Y0496510D01*
X0368286Y0496399D01*
X0368399Y0496286D01*
X0368510Y0496170D01*
X0368617Y0496051D01*
X0368722Y0495930D01*
X0368823Y0495806D01*
X0368922Y0495679D01*
X0369017Y0495551D01*
X0369109Y0495419D01*
X0369197Y0495286D01*
X0369282Y0495150D01*
X0369364Y0495012D01*
X0369443Y0494873D01*
X0369517Y0494731D01*
X0369589Y0494588D01*
X0369656Y0494443D01*
X0369720Y0494296D01*
X0369781Y0494147D01*
X0369838Y0493997D01*
X0369890Y0493846D01*
X0369940Y0493694D01*
X0369985Y0493540D01*
X0370026Y0493385D01*
X0370064Y0493230D01*
X0370098Y0493073D01*
X0370127Y0492916D01*
X0370153Y0492758D01*
X0370175Y0492599D01*
X0370193Y0492440D01*
X0370207Y0492280D01*
X0370217Y0492120D01*
X0370223Y0491960D01*
X0370225Y0491800D01*
X0370223Y0491640D01*
X0370217Y0491480D01*
X0370207Y0491320D01*
X0370193Y0491160D01*
X0370175Y0491001D01*
X0370153Y0490842D01*
X0370127Y0490684D01*
X0370098Y0490527D01*
X0370064Y0490370D01*
X0370026Y0490215D01*
X0369985Y0490060D01*
X0369940Y0489906D01*
X0369890Y0489754D01*
X0369838Y0489603D01*
X0369781Y0489453D01*
X0369720Y0489304D01*
X0369656Y0489157D01*
X0369589Y0489012D01*
X0369517Y0488869D01*
X0369443Y0488727D01*
X0369364Y0488587D01*
X0369282Y0488450D01*
X0369197Y0488314D01*
X0369109Y0488181D01*
X0369017Y0488049D01*
X0368922Y0487921D01*
X0368823Y0487794D01*
X0368722Y0487670D01*
X0368617Y0487549D01*
X0368510Y0487430D01*
X0368399Y0487314D01*
X0368286Y0487201D01*
X0368170Y0487090D01*
X0368051Y0486983D01*
X0367930Y0486878D01*
X0367806Y0486777D01*
X0367679Y0486678D01*
X0367551Y0486583D01*
X0367419Y0486491D01*
X0367286Y0486403D01*
X0367150Y0486318D01*
X0367012Y0486236D01*
X0366873Y0486157D01*
X0366731Y0486083D01*
X0366588Y0486011D01*
X0366443Y0485944D01*
X0366296Y0485880D01*
X0366147Y0485819D01*
X0365997Y0485762D01*
X0365846Y0485710D01*
X0365694Y0485660D01*
X0365540Y0485615D01*
X0365385Y0485574D01*
X0365230Y0485536D01*
X0365073Y0485502D01*
X0364916Y0485473D01*
X0364758Y0485447D01*
X0364599Y0485425D01*
X0364440Y0485407D01*
X0364280Y0485393D01*
X0364120Y0485383D01*
X0363960Y0485377D01*
X0363800Y0485375D01*
X0363640Y0485377D01*
X0363480Y0485383D01*
X0363320Y0485393D01*
X0363160Y0485407D01*
X0363001Y0485425D01*
X0362842Y0485447D01*
X0362684Y0485473D01*
X0362527Y0485502D01*
X0362370Y0485536D01*
X0362215Y0485574D01*
X0362060Y0485615D01*
X0361906Y0485660D01*
X0361754Y0485710D01*
X0361603Y0485762D01*
X0361453Y0485819D01*
X0361304Y0485880D01*
X0361157Y0485944D01*
X0361012Y0486011D01*
X0360869Y0486083D01*
X0360727Y0486157D01*
X0360587Y0486236D01*
X0360450Y0486318D01*
X0360314Y0486403D01*
X0360181Y0486491D01*
X0360049Y0486583D01*
X0359921Y0486678D01*
X0359794Y0486777D01*
X0359670Y0486878D01*
X0359549Y0486983D01*
X0359430Y0487090D01*
X0359314Y0487201D01*
X0359201Y0487314D01*
X0359090Y0487430D01*
X0358983Y0487549D01*
X0358878Y0487670D01*
X0358777Y0487794D01*
X0358678Y0487921D01*
X0358583Y0488049D01*
X0358491Y0488181D01*
X0358403Y0488314D01*
X0358318Y0488450D01*
X0358236Y0488588D01*
X0358157Y0488727D01*
X0358083Y0488869D01*
X0358011Y0489012D01*
X0357944Y0489157D01*
X0357880Y0489304D01*
X0357819Y0489453D01*
X0357762Y0489603D01*
X0357710Y0489754D01*
X0357660Y0489906D01*
X0357615Y0490060D01*
X0357574Y0490215D01*
X0357536Y0490370D01*
X0357502Y0490527D01*
X0357473Y0490684D01*
X0357447Y0490842D01*
X0357425Y0491001D01*
X0357407Y0491160D01*
X0357393Y0491320D01*
X0357383Y0491480D01*
X0357377Y0491640D01*
X0357375Y0491800D01*
X0430375Y0266800D02*
X0430377Y0266960D01*
X0430383Y0267120D01*
X0430393Y0267280D01*
X0430407Y0267440D01*
X0430425Y0267599D01*
X0430447Y0267758D01*
X0430473Y0267916D01*
X0430502Y0268073D01*
X0430536Y0268230D01*
X0430574Y0268385D01*
X0430615Y0268540D01*
X0430660Y0268694D01*
X0430710Y0268846D01*
X0430762Y0268997D01*
X0430819Y0269147D01*
X0430880Y0269296D01*
X0430944Y0269443D01*
X0431011Y0269588D01*
X0431083Y0269731D01*
X0431157Y0269873D01*
X0431236Y0270013D01*
X0431318Y0270150D01*
X0431403Y0270286D01*
X0431491Y0270419D01*
X0431583Y0270551D01*
X0431678Y0270679D01*
X0431777Y0270806D01*
X0431878Y0270930D01*
X0431983Y0271051D01*
X0432090Y0271170D01*
X0432201Y0271286D01*
X0432314Y0271399D01*
X0432430Y0271510D01*
X0432549Y0271617D01*
X0432670Y0271722D01*
X0432794Y0271823D01*
X0432921Y0271922D01*
X0433049Y0272017D01*
X0433181Y0272109D01*
X0433314Y0272197D01*
X0433450Y0272282D01*
X0433588Y0272364D01*
X0433727Y0272443D01*
X0433869Y0272517D01*
X0434012Y0272589D01*
X0434157Y0272656D01*
X0434304Y0272720D01*
X0434453Y0272781D01*
X0434603Y0272838D01*
X0434754Y0272890D01*
X0434906Y0272940D01*
X0435060Y0272985D01*
X0435215Y0273026D01*
X0435370Y0273064D01*
X0435527Y0273098D01*
X0435684Y0273127D01*
X0435842Y0273153D01*
X0436001Y0273175D01*
X0436160Y0273193D01*
X0436320Y0273207D01*
X0436480Y0273217D01*
X0436640Y0273223D01*
X0436800Y0273225D01*
X0436960Y0273223D01*
X0437120Y0273217D01*
X0437280Y0273207D01*
X0437440Y0273193D01*
X0437599Y0273175D01*
X0437758Y0273153D01*
X0437916Y0273127D01*
X0438073Y0273098D01*
X0438230Y0273064D01*
X0438385Y0273026D01*
X0438540Y0272985D01*
X0438694Y0272940D01*
X0438846Y0272890D01*
X0438997Y0272838D01*
X0439147Y0272781D01*
X0439296Y0272720D01*
X0439443Y0272656D01*
X0439588Y0272589D01*
X0439731Y0272517D01*
X0439873Y0272443D01*
X0440013Y0272364D01*
X0440150Y0272282D01*
X0440286Y0272197D01*
X0440419Y0272109D01*
X0440551Y0272017D01*
X0440679Y0271922D01*
X0440806Y0271823D01*
X0440930Y0271722D01*
X0441051Y0271617D01*
X0441170Y0271510D01*
X0441286Y0271399D01*
X0441399Y0271286D01*
X0441510Y0271170D01*
X0441617Y0271051D01*
X0441722Y0270930D01*
X0441823Y0270806D01*
X0441922Y0270679D01*
X0442017Y0270551D01*
X0442109Y0270419D01*
X0442197Y0270286D01*
X0442282Y0270150D01*
X0442364Y0270012D01*
X0442443Y0269873D01*
X0442517Y0269731D01*
X0442589Y0269588D01*
X0442656Y0269443D01*
X0442720Y0269296D01*
X0442781Y0269147D01*
X0442838Y0268997D01*
X0442890Y0268846D01*
X0442940Y0268694D01*
X0442985Y0268540D01*
X0443026Y0268385D01*
X0443064Y0268230D01*
X0443098Y0268073D01*
X0443127Y0267916D01*
X0443153Y0267758D01*
X0443175Y0267599D01*
X0443193Y0267440D01*
X0443207Y0267280D01*
X0443217Y0267120D01*
X0443223Y0266960D01*
X0443225Y0266800D01*
X0443223Y0266640D01*
X0443217Y0266480D01*
X0443207Y0266320D01*
X0443193Y0266160D01*
X0443175Y0266001D01*
X0443153Y0265842D01*
X0443127Y0265684D01*
X0443098Y0265527D01*
X0443064Y0265370D01*
X0443026Y0265215D01*
X0442985Y0265060D01*
X0442940Y0264906D01*
X0442890Y0264754D01*
X0442838Y0264603D01*
X0442781Y0264453D01*
X0442720Y0264304D01*
X0442656Y0264157D01*
X0442589Y0264012D01*
X0442517Y0263869D01*
X0442443Y0263727D01*
X0442364Y0263587D01*
X0442282Y0263450D01*
X0442197Y0263314D01*
X0442109Y0263181D01*
X0442017Y0263049D01*
X0441922Y0262921D01*
X0441823Y0262794D01*
X0441722Y0262670D01*
X0441617Y0262549D01*
X0441510Y0262430D01*
X0441399Y0262314D01*
X0441286Y0262201D01*
X0441170Y0262090D01*
X0441051Y0261983D01*
X0440930Y0261878D01*
X0440806Y0261777D01*
X0440679Y0261678D01*
X0440551Y0261583D01*
X0440419Y0261491D01*
X0440286Y0261403D01*
X0440150Y0261318D01*
X0440012Y0261236D01*
X0439873Y0261157D01*
X0439731Y0261083D01*
X0439588Y0261011D01*
X0439443Y0260944D01*
X0439296Y0260880D01*
X0439147Y0260819D01*
X0438997Y0260762D01*
X0438846Y0260710D01*
X0438694Y0260660D01*
X0438540Y0260615D01*
X0438385Y0260574D01*
X0438230Y0260536D01*
X0438073Y0260502D01*
X0437916Y0260473D01*
X0437758Y0260447D01*
X0437599Y0260425D01*
X0437440Y0260407D01*
X0437280Y0260393D01*
X0437120Y0260383D01*
X0436960Y0260377D01*
X0436800Y0260375D01*
X0436640Y0260377D01*
X0436480Y0260383D01*
X0436320Y0260393D01*
X0436160Y0260407D01*
X0436001Y0260425D01*
X0435842Y0260447D01*
X0435684Y0260473D01*
X0435527Y0260502D01*
X0435370Y0260536D01*
X0435215Y0260574D01*
X0435060Y0260615D01*
X0434906Y0260660D01*
X0434754Y0260710D01*
X0434603Y0260762D01*
X0434453Y0260819D01*
X0434304Y0260880D01*
X0434157Y0260944D01*
X0434012Y0261011D01*
X0433869Y0261083D01*
X0433727Y0261157D01*
X0433587Y0261236D01*
X0433450Y0261318D01*
X0433314Y0261403D01*
X0433181Y0261491D01*
X0433049Y0261583D01*
X0432921Y0261678D01*
X0432794Y0261777D01*
X0432670Y0261878D01*
X0432549Y0261983D01*
X0432430Y0262090D01*
X0432314Y0262201D01*
X0432201Y0262314D01*
X0432090Y0262430D01*
X0431983Y0262549D01*
X0431878Y0262670D01*
X0431777Y0262794D01*
X0431678Y0262921D01*
X0431583Y0263049D01*
X0431491Y0263181D01*
X0431403Y0263314D01*
X0431318Y0263450D01*
X0431236Y0263588D01*
X0431157Y0263727D01*
X0431083Y0263869D01*
X0431011Y0264012D01*
X0430944Y0264157D01*
X0430880Y0264304D01*
X0430819Y0264453D01*
X0430762Y0264603D01*
X0430710Y0264754D01*
X0430660Y0264906D01*
X0430615Y0265060D01*
X0430574Y0265215D01*
X0430536Y0265370D01*
X0430502Y0265527D01*
X0430473Y0265684D01*
X0430447Y0265842D01*
X0430425Y0266001D01*
X0430407Y0266160D01*
X0430393Y0266320D01*
X0430383Y0266480D01*
X0430377Y0266640D01*
X0430375Y0266800D01*
X0435375Y0041800D02*
X0435377Y0041960D01*
X0435383Y0042120D01*
X0435393Y0042280D01*
X0435407Y0042440D01*
X0435425Y0042599D01*
X0435447Y0042758D01*
X0435473Y0042916D01*
X0435502Y0043073D01*
X0435536Y0043230D01*
X0435574Y0043385D01*
X0435615Y0043540D01*
X0435660Y0043694D01*
X0435710Y0043846D01*
X0435762Y0043997D01*
X0435819Y0044147D01*
X0435880Y0044296D01*
X0435944Y0044443D01*
X0436011Y0044588D01*
X0436083Y0044731D01*
X0436157Y0044873D01*
X0436236Y0045013D01*
X0436318Y0045150D01*
X0436403Y0045286D01*
X0436491Y0045419D01*
X0436583Y0045551D01*
X0436678Y0045679D01*
X0436777Y0045806D01*
X0436878Y0045930D01*
X0436983Y0046051D01*
X0437090Y0046170D01*
X0437201Y0046286D01*
X0437314Y0046399D01*
X0437430Y0046510D01*
X0437549Y0046617D01*
X0437670Y0046722D01*
X0437794Y0046823D01*
X0437921Y0046922D01*
X0438049Y0047017D01*
X0438181Y0047109D01*
X0438314Y0047197D01*
X0438450Y0047282D01*
X0438588Y0047364D01*
X0438727Y0047443D01*
X0438869Y0047517D01*
X0439012Y0047589D01*
X0439157Y0047656D01*
X0439304Y0047720D01*
X0439453Y0047781D01*
X0439603Y0047838D01*
X0439754Y0047890D01*
X0439906Y0047940D01*
X0440060Y0047985D01*
X0440215Y0048026D01*
X0440370Y0048064D01*
X0440527Y0048098D01*
X0440684Y0048127D01*
X0440842Y0048153D01*
X0441001Y0048175D01*
X0441160Y0048193D01*
X0441320Y0048207D01*
X0441480Y0048217D01*
X0441640Y0048223D01*
X0441800Y0048225D01*
X0441960Y0048223D01*
X0442120Y0048217D01*
X0442280Y0048207D01*
X0442440Y0048193D01*
X0442599Y0048175D01*
X0442758Y0048153D01*
X0442916Y0048127D01*
X0443073Y0048098D01*
X0443230Y0048064D01*
X0443385Y0048026D01*
X0443540Y0047985D01*
X0443694Y0047940D01*
X0443846Y0047890D01*
X0443997Y0047838D01*
X0444147Y0047781D01*
X0444296Y0047720D01*
X0444443Y0047656D01*
X0444588Y0047589D01*
X0444731Y0047517D01*
X0444873Y0047443D01*
X0445013Y0047364D01*
X0445150Y0047282D01*
X0445286Y0047197D01*
X0445419Y0047109D01*
X0445551Y0047017D01*
X0445679Y0046922D01*
X0445806Y0046823D01*
X0445930Y0046722D01*
X0446051Y0046617D01*
X0446170Y0046510D01*
X0446286Y0046399D01*
X0446399Y0046286D01*
X0446510Y0046170D01*
X0446617Y0046051D01*
X0446722Y0045930D01*
X0446823Y0045806D01*
X0446922Y0045679D01*
X0447017Y0045551D01*
X0447109Y0045419D01*
X0447197Y0045286D01*
X0447282Y0045150D01*
X0447364Y0045012D01*
X0447443Y0044873D01*
X0447517Y0044731D01*
X0447589Y0044588D01*
X0447656Y0044443D01*
X0447720Y0044296D01*
X0447781Y0044147D01*
X0447838Y0043997D01*
X0447890Y0043846D01*
X0447940Y0043694D01*
X0447985Y0043540D01*
X0448026Y0043385D01*
X0448064Y0043230D01*
X0448098Y0043073D01*
X0448127Y0042916D01*
X0448153Y0042758D01*
X0448175Y0042599D01*
X0448193Y0042440D01*
X0448207Y0042280D01*
X0448217Y0042120D01*
X0448223Y0041960D01*
X0448225Y0041800D01*
X0448223Y0041640D01*
X0448217Y0041480D01*
X0448207Y0041320D01*
X0448193Y0041160D01*
X0448175Y0041001D01*
X0448153Y0040842D01*
X0448127Y0040684D01*
X0448098Y0040527D01*
X0448064Y0040370D01*
X0448026Y0040215D01*
X0447985Y0040060D01*
X0447940Y0039906D01*
X0447890Y0039754D01*
X0447838Y0039603D01*
X0447781Y0039453D01*
X0447720Y0039304D01*
X0447656Y0039157D01*
X0447589Y0039012D01*
X0447517Y0038869D01*
X0447443Y0038727D01*
X0447364Y0038587D01*
X0447282Y0038450D01*
X0447197Y0038314D01*
X0447109Y0038181D01*
X0447017Y0038049D01*
X0446922Y0037921D01*
X0446823Y0037794D01*
X0446722Y0037670D01*
X0446617Y0037549D01*
X0446510Y0037430D01*
X0446399Y0037314D01*
X0446286Y0037201D01*
X0446170Y0037090D01*
X0446051Y0036983D01*
X0445930Y0036878D01*
X0445806Y0036777D01*
X0445679Y0036678D01*
X0445551Y0036583D01*
X0445419Y0036491D01*
X0445286Y0036403D01*
X0445150Y0036318D01*
X0445012Y0036236D01*
X0444873Y0036157D01*
X0444731Y0036083D01*
X0444588Y0036011D01*
X0444443Y0035944D01*
X0444296Y0035880D01*
X0444147Y0035819D01*
X0443997Y0035762D01*
X0443846Y0035710D01*
X0443694Y0035660D01*
X0443540Y0035615D01*
X0443385Y0035574D01*
X0443230Y0035536D01*
X0443073Y0035502D01*
X0442916Y0035473D01*
X0442758Y0035447D01*
X0442599Y0035425D01*
X0442440Y0035407D01*
X0442280Y0035393D01*
X0442120Y0035383D01*
X0441960Y0035377D01*
X0441800Y0035375D01*
X0441640Y0035377D01*
X0441480Y0035383D01*
X0441320Y0035393D01*
X0441160Y0035407D01*
X0441001Y0035425D01*
X0440842Y0035447D01*
X0440684Y0035473D01*
X0440527Y0035502D01*
X0440370Y0035536D01*
X0440215Y0035574D01*
X0440060Y0035615D01*
X0439906Y0035660D01*
X0439754Y0035710D01*
X0439603Y0035762D01*
X0439453Y0035819D01*
X0439304Y0035880D01*
X0439157Y0035944D01*
X0439012Y0036011D01*
X0438869Y0036083D01*
X0438727Y0036157D01*
X0438587Y0036236D01*
X0438450Y0036318D01*
X0438314Y0036403D01*
X0438181Y0036491D01*
X0438049Y0036583D01*
X0437921Y0036678D01*
X0437794Y0036777D01*
X0437670Y0036878D01*
X0437549Y0036983D01*
X0437430Y0037090D01*
X0437314Y0037201D01*
X0437201Y0037314D01*
X0437090Y0037430D01*
X0436983Y0037549D01*
X0436878Y0037670D01*
X0436777Y0037794D01*
X0436678Y0037921D01*
X0436583Y0038049D01*
X0436491Y0038181D01*
X0436403Y0038314D01*
X0436318Y0038450D01*
X0436236Y0038588D01*
X0436157Y0038727D01*
X0436083Y0038869D01*
X0436011Y0039012D01*
X0435944Y0039157D01*
X0435880Y0039304D01*
X0435819Y0039453D01*
X0435762Y0039603D01*
X0435710Y0039754D01*
X0435660Y0039906D01*
X0435615Y0040060D01*
X0435574Y0040215D01*
X0435536Y0040370D01*
X0435502Y0040527D01*
X0435473Y0040684D01*
X0435447Y0040842D01*
X0435425Y0041001D01*
X0435407Y0041160D01*
X0435393Y0041320D01*
X0435383Y0041480D01*
X0435377Y0041640D01*
X0435375Y0041800D01*
M02*
