%TF.GenerationSoftware,KiCad,Pcbnew,(5.1.10)-1*%
%TF.CreationDate,2022-03-19T12:48:15-05:00*%
%TF.ProjectId,BMS_2022_Rev1,424d535f-3230-4323-925f-526576312e6b,rev?*%
%TF.SameCoordinates,Original*%
%TF.FileFunction,Legend,Bot*%
%TF.FilePolarity,Positive*%
%FSLAX46Y46*%
G04 Gerber Fmt 4.6, Leading zero omitted, Abs format (unit mm)*
G04 Created by KiCad (PCBNEW (5.1.10)-1) date 2022-03-19 12:48:15*
%MOMM*%
%LPD*%
G01*
G04 APERTURE LIST*
%ADD10C,0.150000*%
G04 APERTURE END LIST*
D10*
%TO.C,U4*%
X-99314000Y175768000D02*
X-99314000Y192278000D01*
X-109474000Y192278000D02*
X-109474000Y175768000D01*
X-99314000Y192278000D02*
X-109474000Y192278000D01*
X-99314000Y175768000D02*
X-109474000Y175768000D01*
X-101854000Y188468000D02*
X-106934000Y188468000D01*
X-99314000Y185928000D02*
X-101854000Y188468000D01*
X-99314000Y180848000D02*
X-99314000Y185928000D01*
X-101854000Y178308000D02*
X-99314000Y180848000D01*
X-106934000Y178308000D02*
X-101854000Y178308000D01*
X-109474000Y180848000D02*
X-106934000Y178308000D01*
X-109474000Y185928000D02*
X-109474000Y180848000D01*
X-106934000Y188468000D02*
X-109474000Y185928000D01*
X-104830666Y194095619D02*
X-105021142Y194095619D01*
X-105116380Y194048000D01*
X-105211619Y193952761D01*
X-105259238Y193762285D01*
X-105259238Y193428952D01*
X-105211619Y193238476D01*
X-105116380Y193143238D01*
X-105021142Y193095619D01*
X-104830666Y193095619D01*
X-104735428Y193143238D01*
X-104640190Y193238476D01*
X-104592571Y193428952D01*
X-104592571Y193762285D01*
X-104640190Y193952761D01*
X-104735428Y194048000D01*
X-104830666Y194095619D01*
X-105687809Y193095619D02*
X-105687809Y194095619D01*
X-106259238Y193095619D02*
X-105830666Y193667047D01*
X-106259238Y194095619D02*
X-105687809Y193524190D01*
X-106687809Y193095619D02*
X-106687809Y194095619D01*
%TD*%
M02*
