%TF.GenerationSoftware,KiCad,Pcbnew,(5.1.10)-1*%
%TF.CreationDate,2022-03-15T00:09:18-05:00*%
%TF.ProjectId,BMS_2022_Rev1,424d535f-3230-4323-925f-526576312e6b,rev?*%
%TF.SameCoordinates,Original*%
%TF.FileFunction,Legend,Top*%
%TF.FilePolarity,Positive*%
%FSLAX46Y46*%
G04 Gerber Fmt 4.6, Leading zero omitted, Abs format (unit mm)*
G04 Created by KiCad (PCBNEW (5.1.10)-1) date 2022-03-15 00:09:18*
%MOMM*%
%LPD*%
G01*
G04 APERTURE LIST*
%ADD10C,0.150000*%
%ADD11C,0.508000*%
%ADD12C,0.254000*%
%ADD13C,0.120000*%
%ADD14C,0.200000*%
%ADD15C,0.300000*%
%ADD16C,0.127000*%
G04 APERTURE END LIST*
D10*
X-117546428Y269692857D02*
X-117498809Y269835714D01*
X-117451190Y269883333D01*
X-117355952Y269930952D01*
X-117213095Y269930952D01*
X-117117857Y269883333D01*
X-117070238Y269835714D01*
X-117022619Y269740476D01*
X-117022619Y269359523D01*
X-118022619Y269359523D01*
X-118022619Y269692857D01*
X-117975000Y269788095D01*
X-117927380Y269835714D01*
X-117832142Y269883333D01*
X-117736904Y269883333D01*
X-117641666Y269835714D01*
X-117594047Y269788095D01*
X-117546428Y269692857D01*
X-117546428Y269359523D01*
X-117689285Y270788095D02*
X-117022619Y270788095D01*
X-117689285Y270359523D02*
X-117165476Y270359523D01*
X-117070238Y270407142D01*
X-117022619Y270502380D01*
X-117022619Y270645238D01*
X-117070238Y270740476D01*
X-117117857Y270788095D01*
X-117689285Y271169047D02*
X-117689285Y271692857D01*
X-117022619Y271169047D01*
X-117022619Y271692857D01*
X-117689285Y271978571D02*
X-117689285Y272502380D01*
X-117022619Y271978571D01*
X-117022619Y272502380D01*
X-117070238Y273264285D02*
X-117022619Y273169047D01*
X-117022619Y272978571D01*
X-117070238Y272883333D01*
X-117165476Y272835714D01*
X-117546428Y272835714D01*
X-117641666Y272883333D01*
X-117689285Y272978571D01*
X-117689285Y273169047D01*
X-117641666Y273264285D01*
X-117546428Y273311904D01*
X-117451190Y273311904D01*
X-117355952Y272835714D01*
X-117022619Y273740476D02*
X-117689285Y273740476D01*
X-117498809Y273740476D02*
X-117594047Y273788095D01*
X-117641666Y273835714D01*
X-117689285Y273930952D01*
X-117689285Y274026190D01*
X-116927380Y274121428D02*
X-116927380Y274883333D01*
X-117070238Y275073809D02*
X-117022619Y275216666D01*
X-117022619Y275454761D01*
X-117070238Y275550000D01*
X-117117857Y275597619D01*
X-117213095Y275645238D01*
X-117308333Y275645238D01*
X-117403571Y275597619D01*
X-117451190Y275550000D01*
X-117498809Y275454761D01*
X-117546428Y275264285D01*
X-117594047Y275169047D01*
X-117641666Y275121428D01*
X-117736904Y275073809D01*
X-117832142Y275073809D01*
X-117927380Y275121428D01*
X-117975000Y275169047D01*
X-118022619Y275264285D01*
X-118022619Y275502380D01*
X-117975000Y275645238D01*
X-118022619Y275978571D02*
X-117022619Y276216666D01*
X-117736904Y276407142D01*
X-117022619Y276597619D01*
X-118022619Y276835714D01*
D11*
X-97185238Y255905000D02*
X-97427142Y256025952D01*
X-97790000Y256025952D01*
X-98152857Y255905000D01*
X-98394761Y255663095D01*
X-98515714Y255421190D01*
X-98636666Y254937380D01*
X-98636666Y254574523D01*
X-98515714Y254090714D01*
X-98394761Y253848809D01*
X-98152857Y253606904D01*
X-97790000Y253485952D01*
X-97548095Y253485952D01*
X-97185238Y253606904D01*
X-97064285Y253727857D01*
X-97064285Y254574523D01*
X-97548095Y254574523D01*
X-95975714Y253485952D02*
X-95975714Y256025952D01*
X-94524285Y253485952D01*
X-94524285Y256025952D01*
X-93314761Y253485952D02*
X-93314761Y256025952D01*
X-92710000Y256025952D01*
X-92347142Y255905000D01*
X-92105238Y255663095D01*
X-91984285Y255421190D01*
X-91863333Y254937380D01*
X-91863333Y254574523D01*
X-91984285Y254090714D01*
X-92105238Y253848809D01*
X-92347142Y253606904D01*
X-92710000Y253485952D01*
X-93314761Y253485952D01*
X-36134523Y264915952D02*
X-35287857Y262375952D01*
X-34441190Y264915952D01*
X-34199285Y262134047D02*
X-32264047Y262134047D01*
X-31659285Y262375952D02*
X-31659285Y264915952D01*
X-30449761Y262375952D02*
X-30449761Y264915952D01*
X-28998333Y262375952D01*
X-28998333Y264915952D01*
X-37827857Y276345952D02*
X-36981190Y273805952D01*
X-36134523Y276345952D01*
X-35892619Y273564047D02*
X-33957380Y273564047D01*
X-32868809Y276345952D02*
X-32385000Y276345952D01*
X-32143095Y276225000D01*
X-31901190Y275983095D01*
X-31780238Y275499285D01*
X-31780238Y274652619D01*
X-31901190Y274168809D01*
X-32143095Y273926904D01*
X-32385000Y273805952D01*
X-32868809Y273805952D01*
X-33110714Y273926904D01*
X-33352619Y274168809D01*
X-33473571Y274652619D01*
X-33473571Y275499285D01*
X-33352619Y275983095D01*
X-33110714Y276225000D01*
X-32868809Y276345952D01*
X-30691666Y276345952D02*
X-30691666Y274289761D01*
X-30570714Y274047857D01*
X-30449761Y273926904D01*
X-30207857Y273805952D01*
X-29724047Y273805952D01*
X-29482142Y273926904D01*
X-29361190Y274047857D01*
X-29240238Y274289761D01*
X-29240238Y276345952D01*
X-28393571Y276345952D02*
X-26942142Y276345952D01*
X-27667857Y273805952D02*
X-27667857Y276345952D01*
D10*
X-90241190Y279947619D02*
X-89907857Y278947619D01*
X-89574523Y279947619D01*
X-89479285Y278852380D02*
X-88717380Y278852380D01*
X-88288809Y279947619D02*
X-88098333Y279947619D01*
X-88003095Y279900000D01*
X-87907857Y279804761D01*
X-87860238Y279614285D01*
X-87860238Y279280952D01*
X-87907857Y279090476D01*
X-88003095Y278995238D01*
X-88098333Y278947619D01*
X-88288809Y278947619D01*
X-88384047Y278995238D01*
X-88479285Y279090476D01*
X-88526904Y279280952D01*
X-88526904Y279614285D01*
X-88479285Y279804761D01*
X-88384047Y279900000D01*
X-88288809Y279947619D01*
X-87003095Y279614285D02*
X-87003095Y278947619D01*
X-87431666Y279614285D02*
X-87431666Y279090476D01*
X-87384047Y278995238D01*
X-87288809Y278947619D01*
X-87145952Y278947619D01*
X-87050714Y278995238D01*
X-87003095Y279042857D01*
X-86669761Y279614285D02*
X-86288809Y279614285D01*
X-86526904Y279947619D02*
X-86526904Y279090476D01*
X-86479285Y278995238D01*
X-86384047Y278947619D01*
X-86288809Y278947619D01*
X-113220476Y193587619D02*
X-113696666Y193587619D01*
X-113744285Y193111428D01*
X-113696666Y193159047D01*
X-113601428Y193206666D01*
X-113363333Y193206666D01*
X-113268095Y193159047D01*
X-113220476Y193111428D01*
X-113172857Y193016190D01*
X-113172857Y192778095D01*
X-113220476Y192682857D01*
X-113268095Y192635238D01*
X-113363333Y192587619D01*
X-113601428Y192587619D01*
X-113696666Y192635238D01*
X-113744285Y192682857D01*
X-112887142Y193587619D02*
X-112553809Y192587619D01*
X-112220476Y193587619D01*
X-109180000Y240260238D02*
X-109037142Y240212619D01*
X-108799047Y240212619D01*
X-108703809Y240260238D01*
X-108656190Y240307857D01*
X-108608571Y240403095D01*
X-108608571Y240498333D01*
X-108656190Y240593571D01*
X-108703809Y240641190D01*
X-108799047Y240688809D01*
X-108989523Y240736428D01*
X-109084761Y240784047D01*
X-109132380Y240831666D01*
X-109180000Y240926904D01*
X-109180000Y241022142D01*
X-109132380Y241117380D01*
X-109084761Y241165000D01*
X-108989523Y241212619D01*
X-108751428Y241212619D01*
X-108608571Y241165000D01*
X-108275238Y241212619D02*
X-108037142Y240212619D01*
X-107846666Y240926904D01*
X-107656190Y240212619D01*
X-107418095Y241212619D01*
X-107275238Y240117380D02*
X-106513333Y240117380D01*
X-106275238Y240212619D02*
X-106275238Y241212619D01*
X-105799047Y240212619D02*
X-105799047Y241212619D01*
X-105227619Y240212619D01*
X-105227619Y241212619D01*
X-104751428Y240212619D02*
X-104751428Y241212619D01*
X-104513333Y241212619D01*
X-104370476Y241165000D01*
X-104275238Y241069761D01*
X-104227619Y240974523D01*
X-104180000Y240784047D01*
X-104180000Y240641190D01*
X-104227619Y240450714D01*
X-104275238Y240355476D01*
X-104370476Y240260238D01*
X-104513333Y240212619D01*
X-104751428Y240212619D01*
X-109370476Y237085238D02*
X-109227619Y237037619D01*
X-108989523Y237037619D01*
X-108894285Y237085238D01*
X-108846666Y237132857D01*
X-108799047Y237228095D01*
X-108799047Y237323333D01*
X-108846666Y237418571D01*
X-108894285Y237466190D01*
X-108989523Y237513809D01*
X-109180000Y237561428D01*
X-109275238Y237609047D01*
X-109322857Y237656666D01*
X-109370476Y237751904D01*
X-109370476Y237847142D01*
X-109322857Y237942380D01*
X-109275238Y237990000D01*
X-109180000Y238037619D01*
X-108941904Y238037619D01*
X-108799047Y237990000D01*
X-108465714Y238037619D02*
X-108227619Y237037619D01*
X-108037142Y237751904D01*
X-107846666Y237037619D01*
X-107608571Y238037619D01*
X-107465714Y236942380D02*
X-106703809Y236942380D01*
X-106465714Y237561428D02*
X-106132380Y237561428D01*
X-105989523Y237037619D02*
X-106465714Y237037619D01*
X-106465714Y238037619D01*
X-105989523Y238037619D01*
X-104989523Y237037619D02*
X-105322857Y237513809D01*
X-105560952Y237037619D02*
X-105560952Y238037619D01*
X-105180000Y238037619D01*
X-105084761Y237990000D01*
X-105037142Y237942380D01*
X-104989523Y237847142D01*
X-104989523Y237704285D01*
X-105037142Y237609047D01*
X-105084761Y237561428D01*
X-105180000Y237513809D01*
X-105560952Y237513809D01*
X-103989523Y237037619D02*
X-104322857Y237513809D01*
X-104560952Y237037619D02*
X-104560952Y238037619D01*
X-104180000Y238037619D01*
X-104084761Y237990000D01*
X-104037142Y237942380D01*
X-103989523Y237847142D01*
X-103989523Y237704285D01*
X-104037142Y237609047D01*
X-104084761Y237561428D01*
X-104180000Y237513809D01*
X-104560952Y237513809D01*
D12*
X-44114357Y193139785D02*
X-44168785Y193085357D01*
X-44332071Y193030928D01*
X-44440928Y193030928D01*
X-44604214Y193085357D01*
X-44713071Y193194214D01*
X-44767500Y193303071D01*
X-44821928Y193520785D01*
X-44821928Y193684071D01*
X-44767500Y193901785D01*
X-44713071Y194010642D01*
X-44604214Y194119500D01*
X-44440928Y194173928D01*
X-44332071Y194173928D01*
X-44168785Y194119500D01*
X-44114357Y194065071D01*
X-43189071Y193085357D02*
X-43297928Y193030928D01*
X-43515642Y193030928D01*
X-43624500Y193085357D01*
X-43678928Y193194214D01*
X-43678928Y193629642D01*
X-43624500Y193738500D01*
X-43515642Y193792928D01*
X-43297928Y193792928D01*
X-43189071Y193738500D01*
X-43134642Y193629642D01*
X-43134642Y193520785D01*
X-43678928Y193411928D01*
X-42481500Y193030928D02*
X-42590357Y193085357D01*
X-42644785Y193194214D01*
X-42644785Y194173928D01*
X-41882785Y193030928D02*
X-41991642Y193085357D01*
X-42046071Y193194214D01*
X-42046071Y194173928D01*
X-40739785Y194173928D02*
X-40358785Y193030928D01*
X-39977785Y194173928D01*
X-39433500Y193030928D02*
X-39542357Y193085357D01*
X-39596785Y193139785D01*
X-39651214Y193248642D01*
X-39651214Y193575214D01*
X-39596785Y193684071D01*
X-39542357Y193738500D01*
X-39433500Y193792928D01*
X-39270214Y193792928D01*
X-39161357Y193738500D01*
X-39106928Y193684071D01*
X-39052500Y193575214D01*
X-39052500Y193248642D01*
X-39106928Y193139785D01*
X-39161357Y193085357D01*
X-39270214Y193030928D01*
X-39433500Y193030928D01*
X-38399357Y193030928D02*
X-38508214Y193085357D01*
X-38562642Y193194214D01*
X-38562642Y194173928D01*
X-38127214Y193792928D02*
X-37691785Y193792928D01*
X-37963928Y194173928D02*
X-37963928Y193194214D01*
X-37909500Y193085357D01*
X-37800642Y193030928D01*
X-37691785Y193030928D01*
X-36820928Y193030928D02*
X-36820928Y193629642D01*
X-36875357Y193738500D01*
X-36984214Y193792928D01*
X-37201928Y193792928D01*
X-37310785Y193738500D01*
X-36820928Y193085357D02*
X-36929785Y193030928D01*
X-37201928Y193030928D01*
X-37310785Y193085357D01*
X-37365214Y193194214D01*
X-37365214Y193303071D01*
X-37310785Y193411928D01*
X-37201928Y193466357D01*
X-36929785Y193466357D01*
X-36820928Y193520785D01*
X-35786785Y193792928D02*
X-35786785Y192867642D01*
X-35841214Y192758785D01*
X-35895642Y192704357D01*
X-36004500Y192649928D01*
X-36167785Y192649928D01*
X-36276642Y192704357D01*
X-35786785Y193085357D02*
X-35895642Y193030928D01*
X-36113357Y193030928D01*
X-36222214Y193085357D01*
X-36276642Y193139785D01*
X-36331071Y193248642D01*
X-36331071Y193575214D01*
X-36276642Y193684071D01*
X-36222214Y193738500D01*
X-36113357Y193792928D01*
X-35895642Y193792928D01*
X-35786785Y193738500D01*
X-34807071Y193085357D02*
X-34915928Y193030928D01*
X-35133642Y193030928D01*
X-35242500Y193085357D01*
X-35296928Y193194214D01*
X-35296928Y193629642D01*
X-35242500Y193738500D01*
X-35133642Y193792928D01*
X-34915928Y193792928D01*
X-34807071Y193738500D01*
X-34752642Y193629642D01*
X-34752642Y193520785D01*
X-35296928Y193411928D01*
X-32738785Y193139785D02*
X-32793214Y193085357D01*
X-32956500Y193030928D01*
X-33065357Y193030928D01*
X-33228642Y193085357D01*
X-33337500Y193194214D01*
X-33391928Y193303071D01*
X-33446357Y193520785D01*
X-33446357Y193684071D01*
X-33391928Y193901785D01*
X-33337500Y194010642D01*
X-33228642Y194119500D01*
X-33065357Y194173928D01*
X-32956500Y194173928D01*
X-32793214Y194119500D01*
X-32738785Y194065071D01*
X-32085642Y193030928D02*
X-32194500Y193085357D01*
X-32248928Y193139785D01*
X-32303357Y193248642D01*
X-32303357Y193575214D01*
X-32248928Y193684071D01*
X-32194500Y193738500D01*
X-32085642Y193792928D01*
X-31922357Y193792928D01*
X-31813500Y193738500D01*
X-31759071Y193684071D01*
X-31704642Y193575214D01*
X-31704642Y193248642D01*
X-31759071Y193139785D01*
X-31813500Y193085357D01*
X-31922357Y193030928D01*
X-32085642Y193030928D01*
X-31214785Y193792928D02*
X-31214785Y193030928D01*
X-31214785Y193684071D02*
X-31160357Y193738500D01*
X-31051500Y193792928D01*
X-30888214Y193792928D01*
X-30779357Y193738500D01*
X-30724928Y193629642D01*
X-30724928Y193030928D01*
X-30180642Y193792928D02*
X-30180642Y193030928D01*
X-30180642Y193684071D02*
X-30126214Y193738500D01*
X-30017357Y193792928D01*
X-29854071Y193792928D01*
X-29745214Y193738500D01*
X-29690785Y193629642D01*
X-29690785Y193030928D01*
X-28711071Y193085357D02*
X-28819928Y193030928D01*
X-29037642Y193030928D01*
X-29146500Y193085357D01*
X-29200928Y193194214D01*
X-29200928Y193629642D01*
X-29146500Y193738500D01*
X-29037642Y193792928D01*
X-28819928Y193792928D01*
X-28711071Y193738500D01*
X-28656642Y193629642D01*
X-28656642Y193520785D01*
X-29200928Y193411928D01*
X-27676928Y193085357D02*
X-27785785Y193030928D01*
X-28003500Y193030928D01*
X-28112357Y193085357D01*
X-28166785Y193139785D01*
X-28221214Y193248642D01*
X-28221214Y193575214D01*
X-28166785Y193684071D01*
X-28112357Y193738500D01*
X-28003500Y193792928D01*
X-27785785Y193792928D01*
X-27676928Y193738500D01*
X-27350357Y193792928D02*
X-26914928Y193792928D01*
X-27187071Y194173928D02*
X-27187071Y193194214D01*
X-27132642Y193085357D01*
X-27023785Y193030928D01*
X-26914928Y193030928D01*
X-26370642Y193030928D02*
X-26479500Y193085357D01*
X-26533928Y193139785D01*
X-26588357Y193248642D01*
X-26588357Y193575214D01*
X-26533928Y193684071D01*
X-26479500Y193738500D01*
X-26370642Y193792928D01*
X-26207357Y193792928D01*
X-26098500Y193738500D01*
X-26044071Y193684071D01*
X-25989642Y193575214D01*
X-25989642Y193248642D01*
X-26044071Y193139785D01*
X-26098500Y193085357D01*
X-26207357Y193030928D01*
X-26370642Y193030928D01*
X-25499785Y193030928D02*
X-25499785Y193792928D01*
X-25499785Y193575214D02*
X-25445357Y193684071D01*
X-25390928Y193738500D01*
X-25282071Y193792928D01*
X-25173214Y193792928D01*
X-63944500Y266799785D02*
X-63998928Y266745357D01*
X-64162214Y266690928D01*
X-64271071Y266690928D01*
X-64434357Y266745357D01*
X-64543214Y266854214D01*
X-64597642Y266963071D01*
X-64652071Y267180785D01*
X-64652071Y267344071D01*
X-64597642Y267561785D01*
X-64543214Y267670642D01*
X-64434357Y267779500D01*
X-64271071Y267833928D01*
X-64162214Y267833928D01*
X-63998928Y267779500D01*
X-63944500Y267725071D01*
X-62964785Y267452928D02*
X-62964785Y266690928D01*
X-63454642Y267452928D02*
X-63454642Y266854214D01*
X-63400214Y266745357D01*
X-63291357Y266690928D01*
X-63128071Y266690928D01*
X-63019214Y266745357D01*
X-62964785Y266799785D01*
X-62420500Y266690928D02*
X-62420500Y267452928D01*
X-62420500Y267235214D02*
X-62366071Y267344071D01*
X-62311642Y267398500D01*
X-62202785Y267452928D01*
X-62093928Y267452928D01*
X-61712928Y266690928D02*
X-61712928Y267452928D01*
X-61712928Y267235214D02*
X-61658500Y267344071D01*
X-61604071Y267398500D01*
X-61495214Y267452928D01*
X-61386357Y267452928D01*
X-60569928Y266745357D02*
X-60678785Y266690928D01*
X-60896500Y266690928D01*
X-61005357Y266745357D01*
X-61059785Y266854214D01*
X-61059785Y267289642D01*
X-61005357Y267398500D01*
X-60896500Y267452928D01*
X-60678785Y267452928D01*
X-60569928Y267398500D01*
X-60515500Y267289642D01*
X-60515500Y267180785D01*
X-61059785Y267071928D01*
X-60025642Y267452928D02*
X-60025642Y266690928D01*
X-60025642Y267344071D02*
X-59971214Y267398500D01*
X-59862357Y267452928D01*
X-59699071Y267452928D01*
X-59590214Y267398500D01*
X-59535785Y267289642D01*
X-59535785Y266690928D01*
X-59154785Y267452928D02*
X-58719357Y267452928D01*
X-58991500Y267833928D02*
X-58991500Y266854214D01*
X-58937071Y266745357D01*
X-58828214Y266690928D01*
X-58719357Y266690928D01*
X-57521928Y266745357D02*
X-57358642Y266690928D01*
X-57086500Y266690928D01*
X-56977642Y266745357D01*
X-56923214Y266799785D01*
X-56868785Y266908642D01*
X-56868785Y267017500D01*
X-56923214Y267126357D01*
X-56977642Y267180785D01*
X-57086500Y267235214D01*
X-57304214Y267289642D01*
X-57413071Y267344071D01*
X-57467500Y267398500D01*
X-57521928Y267507357D01*
X-57521928Y267616214D01*
X-57467500Y267725071D01*
X-57413071Y267779500D01*
X-57304214Y267833928D01*
X-57032071Y267833928D01*
X-56868785Y267779500D01*
X-55943500Y266745357D02*
X-56052357Y266690928D01*
X-56270071Y266690928D01*
X-56378928Y266745357D01*
X-56433357Y266854214D01*
X-56433357Y267289642D01*
X-56378928Y267398500D01*
X-56270071Y267452928D01*
X-56052357Y267452928D01*
X-55943500Y267398500D01*
X-55889071Y267289642D01*
X-55889071Y267180785D01*
X-56433357Y267071928D01*
X-55399214Y267452928D02*
X-55399214Y266690928D01*
X-55399214Y267344071D02*
X-55344785Y267398500D01*
X-55235928Y267452928D01*
X-55072642Y267452928D01*
X-54963785Y267398500D01*
X-54909357Y267289642D01*
X-54909357Y266690928D01*
X-54419500Y266745357D02*
X-54310642Y266690928D01*
X-54092928Y266690928D01*
X-53984071Y266745357D01*
X-53929642Y266854214D01*
X-53929642Y266908642D01*
X-53984071Y267017500D01*
X-54092928Y267071928D01*
X-54256214Y267071928D01*
X-54365071Y267126357D01*
X-54419500Y267235214D01*
X-54419500Y267289642D01*
X-54365071Y267398500D01*
X-54256214Y267452928D01*
X-54092928Y267452928D01*
X-53984071Y267398500D01*
X-53276500Y266690928D02*
X-53385357Y266745357D01*
X-53439785Y266799785D01*
X-53494214Y266908642D01*
X-53494214Y267235214D01*
X-53439785Y267344071D01*
X-53385357Y267398500D01*
X-53276500Y267452928D01*
X-53113214Y267452928D01*
X-53004357Y267398500D01*
X-52949928Y267344071D01*
X-52895500Y267235214D01*
X-52895500Y266908642D01*
X-52949928Y266799785D01*
X-53004357Y266745357D01*
X-53113214Y266690928D01*
X-53276500Y266690928D01*
X-52405642Y266690928D02*
X-52405642Y267452928D01*
X-52405642Y267235214D02*
X-52351214Y267344071D01*
X-52296785Y267398500D01*
X-52187928Y267452928D01*
X-52079071Y267452928D01*
X-85380285Y238877928D02*
X-85162571Y238877928D01*
X-85053714Y238823500D01*
X-84944857Y238714642D01*
X-84890428Y238496928D01*
X-84890428Y238115928D01*
X-84944857Y237898214D01*
X-85053714Y237789357D01*
X-85162571Y237734928D01*
X-85380285Y237734928D01*
X-85489142Y237789357D01*
X-85598000Y237898214D01*
X-85652428Y238115928D01*
X-85652428Y238496928D01*
X-85598000Y238714642D01*
X-85489142Y238823500D01*
X-85380285Y238877928D01*
X-84400571Y237734928D02*
X-84400571Y238877928D01*
X-83747428Y237734928D01*
X-83747428Y238877928D01*
X-81515857Y238932357D02*
X-82495571Y237462785D01*
X-80046285Y238877928D02*
X-79828571Y238877928D01*
X-79719714Y238823500D01*
X-79610857Y238714642D01*
X-79556428Y238496928D01*
X-79556428Y238115928D01*
X-79610857Y237898214D01*
X-79719714Y237789357D01*
X-79828571Y237734928D01*
X-80046285Y237734928D01*
X-80155142Y237789357D01*
X-80264000Y237898214D01*
X-80318428Y238115928D01*
X-80318428Y238496928D01*
X-80264000Y238714642D01*
X-80155142Y238823500D01*
X-80046285Y238877928D01*
X-78685571Y238333642D02*
X-79066571Y238333642D01*
X-79066571Y237734928D02*
X-79066571Y238877928D01*
X-78522285Y238877928D01*
X-78250142Y238496928D02*
X-77814714Y238496928D01*
X-78086857Y237734928D02*
X-78086857Y238714642D01*
X-78032428Y238823500D01*
X-77923571Y238877928D01*
X-77814714Y238877928D01*
X-67509571Y239186357D02*
X-66638714Y239186357D01*
X-67074142Y238750928D02*
X-67074142Y239621785D01*
X-66040000Y238750928D02*
X-65822285Y238750928D01*
X-65713428Y238805357D01*
X-65659000Y238859785D01*
X-65550142Y239023071D01*
X-65495714Y239240785D01*
X-65495714Y239676214D01*
X-65550142Y239785071D01*
X-65604571Y239839500D01*
X-65713428Y239893928D01*
X-65931142Y239893928D01*
X-66040000Y239839500D01*
X-66094428Y239785071D01*
X-66148857Y239676214D01*
X-66148857Y239404071D01*
X-66094428Y239295214D01*
X-66040000Y239240785D01*
X-65931142Y239186357D01*
X-65713428Y239186357D01*
X-65604571Y239240785D01*
X-65550142Y239295214D01*
X-65495714Y239404071D01*
X-65169142Y239893928D02*
X-64788142Y238750928D01*
X-64407142Y239893928D01*
X-100393500Y281005642D02*
X-100012500Y281005642D01*
X-99849214Y280406928D02*
X-100393500Y280406928D01*
X-100393500Y281549928D01*
X-99849214Y281549928D01*
X-99359357Y280842357D02*
X-98488500Y280842357D01*
X-97998642Y280461357D02*
X-97835357Y280406928D01*
X-97563214Y280406928D01*
X-97454357Y280461357D01*
X-97399928Y280515785D01*
X-97345500Y280624642D01*
X-97345500Y280733500D01*
X-97399928Y280842357D01*
X-97454357Y280896785D01*
X-97563214Y280951214D01*
X-97780928Y281005642D01*
X-97889785Y281060071D01*
X-97944214Y281114500D01*
X-97998642Y281223357D01*
X-97998642Y281332214D01*
X-97944214Y281441071D01*
X-97889785Y281495500D01*
X-97780928Y281549928D01*
X-97508785Y281549928D01*
X-97345500Y281495500D01*
X-97018928Y281168928D02*
X-96583500Y281168928D01*
X-96855642Y281549928D02*
X-96855642Y280570214D01*
X-96801214Y280461357D01*
X-96692357Y280406928D01*
X-96583500Y280406928D01*
X-96039214Y280406928D02*
X-96148071Y280461357D01*
X-96202500Y280515785D01*
X-96256928Y280624642D01*
X-96256928Y280951214D01*
X-96202500Y281060071D01*
X-96148071Y281114500D01*
X-96039214Y281168928D01*
X-95875928Y281168928D01*
X-95767071Y281114500D01*
X-95712642Y281060071D01*
X-95658214Y280951214D01*
X-95658214Y280624642D01*
X-95712642Y280515785D01*
X-95767071Y280461357D01*
X-95875928Y280406928D01*
X-96039214Y280406928D01*
X-95168357Y281168928D02*
X-95168357Y280025928D01*
X-95168357Y281114500D02*
X-95059500Y281168928D01*
X-94841785Y281168928D01*
X-94732928Y281114500D01*
X-94678500Y281060071D01*
X-94624071Y280951214D01*
X-94624071Y280624642D01*
X-94678500Y280515785D01*
X-94732928Y280461357D01*
X-94841785Y280406928D01*
X-95059500Y280406928D01*
X-95168357Y280461357D01*
X-87983785Y207889928D02*
X-87330642Y207889928D01*
X-87657214Y206746928D02*
X-87657214Y207889928D01*
X-86514214Y206801357D02*
X-86623071Y206746928D01*
X-86840785Y206746928D01*
X-86949642Y206801357D01*
X-87004071Y206910214D01*
X-87004071Y207345642D01*
X-86949642Y207454500D01*
X-86840785Y207508928D01*
X-86623071Y207508928D01*
X-86514214Y207454500D01*
X-86459785Y207345642D01*
X-86459785Y207236785D01*
X-87004071Y207127928D01*
X-85969928Y206746928D02*
X-85969928Y207508928D01*
X-85969928Y207400071D02*
X-85915500Y207454500D01*
X-85806642Y207508928D01*
X-85643357Y207508928D01*
X-85534500Y207454500D01*
X-85480071Y207345642D01*
X-85480071Y206746928D01*
X-85480071Y207345642D02*
X-85425642Y207454500D01*
X-85316785Y207508928D01*
X-85153500Y207508928D01*
X-85044642Y207454500D01*
X-84990214Y207345642D01*
X-84990214Y206746928D01*
X-84445928Y207508928D02*
X-84445928Y206365928D01*
X-84445928Y207454500D02*
X-84337071Y207508928D01*
X-84119357Y207508928D01*
X-84010500Y207454500D01*
X-83956071Y207400071D01*
X-83901642Y207291214D01*
X-83901642Y206964642D01*
X-83956071Y206855785D01*
X-84010500Y206801357D01*
X-84119357Y206746928D01*
X-84337071Y206746928D01*
X-84445928Y206801357D01*
X-83411785Y206855785D02*
X-83357357Y206801357D01*
X-83411785Y206746928D01*
X-83466214Y206801357D01*
X-83411785Y206855785D01*
X-83411785Y206746928D01*
X-82051071Y206801357D02*
X-81887785Y206746928D01*
X-81615642Y206746928D01*
X-81506785Y206801357D01*
X-81452357Y206855785D01*
X-81397928Y206964642D01*
X-81397928Y207073500D01*
X-81452357Y207182357D01*
X-81506785Y207236785D01*
X-81615642Y207291214D01*
X-81833357Y207345642D01*
X-81942214Y207400071D01*
X-81996642Y207454500D01*
X-82051071Y207563357D01*
X-82051071Y207672214D01*
X-81996642Y207781071D01*
X-81942214Y207835500D01*
X-81833357Y207889928D01*
X-81561214Y207889928D01*
X-81397928Y207835500D01*
X-80472642Y206801357D02*
X-80581500Y206746928D01*
X-80799214Y206746928D01*
X-80908071Y206801357D01*
X-80962500Y206910214D01*
X-80962500Y207345642D01*
X-80908071Y207454500D01*
X-80799214Y207508928D01*
X-80581500Y207508928D01*
X-80472642Y207454500D01*
X-80418214Y207345642D01*
X-80418214Y207236785D01*
X-80962500Y207127928D01*
X-79928357Y207508928D02*
X-79928357Y206746928D01*
X-79928357Y207400071D02*
X-79873928Y207454500D01*
X-79765071Y207508928D01*
X-79601785Y207508928D01*
X-79492928Y207454500D01*
X-79438500Y207345642D01*
X-79438500Y206746928D01*
X-78948642Y206801357D02*
X-78839785Y206746928D01*
X-78622071Y206746928D01*
X-78513214Y206801357D01*
X-78458785Y206910214D01*
X-78458785Y206964642D01*
X-78513214Y207073500D01*
X-78622071Y207127928D01*
X-78785357Y207127928D01*
X-78894214Y207182357D01*
X-78948642Y207291214D01*
X-78948642Y207345642D01*
X-78894214Y207454500D01*
X-78785357Y207508928D01*
X-78622071Y207508928D01*
X-78513214Y207454500D01*
X-77805642Y206746928D02*
X-77914500Y206801357D01*
X-77968928Y206855785D01*
X-78023357Y206964642D01*
X-78023357Y207291214D01*
X-77968928Y207400071D01*
X-77914500Y207454500D01*
X-77805642Y207508928D01*
X-77642357Y207508928D01*
X-77533500Y207454500D01*
X-77479071Y207400071D01*
X-77424642Y207291214D01*
X-77424642Y206964642D01*
X-77479071Y206855785D01*
X-77533500Y206801357D01*
X-77642357Y206746928D01*
X-77805642Y206746928D01*
X-76934785Y206746928D02*
X-76934785Y207508928D01*
X-76934785Y207291214D02*
X-76880357Y207400071D01*
X-76825928Y207454500D01*
X-76717071Y207508928D01*
X-76608214Y207508928D01*
X-78132214Y186680928D02*
X-78676500Y186680928D01*
X-78676500Y187823928D01*
X-77098071Y186789785D02*
X-77152500Y186735357D01*
X-77315785Y186680928D01*
X-77424642Y186680928D01*
X-77587928Y186735357D01*
X-77696785Y186844214D01*
X-77751214Y186953071D01*
X-77805642Y187170785D01*
X-77805642Y187334071D01*
X-77751214Y187551785D01*
X-77696785Y187660642D01*
X-77587928Y187769500D01*
X-77424642Y187823928D01*
X-77315785Y187823928D01*
X-77152500Y187769500D01*
X-77098071Y187715071D01*
X-76608214Y186680928D02*
X-76608214Y187823928D01*
X-76336071Y187823928D01*
X-76172785Y187769500D01*
X-76063928Y187660642D01*
X-76009500Y187551785D01*
X-75955071Y187334071D01*
X-75955071Y187170785D01*
X-76009500Y186953071D01*
X-76063928Y186844214D01*
X-76172785Y186735357D01*
X-76336071Y186680928D01*
X-76608214Y186680928D01*
X-109927571Y205894214D02*
X-110350904Y205894214D01*
X-110350904Y205228976D02*
X-110350904Y206498976D01*
X-109746142Y206498976D01*
X-108718047Y205228976D02*
X-108718047Y205894214D01*
X-108778523Y206015166D01*
X-108899476Y206075642D01*
X-109141380Y206075642D01*
X-109262333Y206015166D01*
X-108718047Y205289452D02*
X-108839000Y205228976D01*
X-109141380Y205228976D01*
X-109262333Y205289452D01*
X-109322809Y205410404D01*
X-109322809Y205531357D01*
X-109262333Y205652309D01*
X-109141380Y205712785D01*
X-108839000Y205712785D01*
X-108718047Y205773261D01*
X-108113285Y206075642D02*
X-108113285Y205228976D01*
X-108113285Y205954690D02*
X-108052809Y206015166D01*
X-107931857Y206075642D01*
X-107750428Y206075642D01*
X-107629476Y206015166D01*
X-107569000Y205894214D01*
X-107569000Y205228976D01*
X-105996619Y205228976D02*
X-105996619Y206498976D01*
X-105512809Y206498976D01*
X-105391857Y206438500D01*
X-105331380Y206378023D01*
X-105270904Y206257071D01*
X-105270904Y206075642D01*
X-105331380Y205954690D01*
X-105391857Y205894214D01*
X-105512809Y205833738D01*
X-105996619Y205833738D01*
X-104545190Y205228976D02*
X-104666142Y205289452D01*
X-104726619Y205349928D01*
X-104787095Y205470880D01*
X-104787095Y205833738D01*
X-104726619Y205954690D01*
X-104666142Y206015166D01*
X-104545190Y206075642D01*
X-104363761Y206075642D01*
X-104242809Y206015166D01*
X-104182333Y205954690D01*
X-104121857Y205833738D01*
X-104121857Y205470880D01*
X-104182333Y205349928D01*
X-104242809Y205289452D01*
X-104363761Y205228976D01*
X-104545190Y205228976D01*
X-103698523Y206075642D02*
X-103456619Y205228976D01*
X-103214714Y205833738D01*
X-102972809Y205228976D01*
X-102730904Y206075642D01*
X-101763285Y205289452D02*
X-101884238Y205228976D01*
X-102126142Y205228976D01*
X-102247095Y205289452D01*
X-102307571Y205410404D01*
X-102307571Y205894214D01*
X-102247095Y206015166D01*
X-102126142Y206075642D01*
X-101884238Y206075642D01*
X-101763285Y206015166D01*
X-101702809Y205894214D01*
X-101702809Y205773261D01*
X-102307571Y205652309D01*
X-101158523Y205228976D02*
X-101158523Y206075642D01*
X-101158523Y205833738D02*
X-101098047Y205954690D01*
X-101037571Y206015166D01*
X-100916619Y206075642D01*
X-100795666Y206075642D01*
X-108083047Y203190928D02*
X-108143523Y203130452D01*
X-108324952Y203069976D01*
X-108445904Y203069976D01*
X-108627333Y203130452D01*
X-108748285Y203251404D01*
X-108808761Y203372357D01*
X-108869238Y203614261D01*
X-108869238Y203795690D01*
X-108808761Y204037595D01*
X-108748285Y204158547D01*
X-108627333Y204279500D01*
X-108445904Y204339976D01*
X-108324952Y204339976D01*
X-108143523Y204279500D01*
X-108083047Y204219023D01*
X-107357333Y203069976D02*
X-107478285Y203130452D01*
X-107538761Y203190928D01*
X-107599238Y203311880D01*
X-107599238Y203674738D01*
X-107538761Y203795690D01*
X-107478285Y203856166D01*
X-107357333Y203916642D01*
X-107175904Y203916642D01*
X-107054952Y203856166D01*
X-106994476Y203795690D01*
X-106934000Y203674738D01*
X-106934000Y203311880D01*
X-106994476Y203190928D01*
X-107054952Y203130452D01*
X-107175904Y203069976D01*
X-107357333Y203069976D01*
X-106389714Y203916642D02*
X-106389714Y203069976D01*
X-106389714Y203795690D02*
X-106329238Y203856166D01*
X-106208285Y203916642D01*
X-106026857Y203916642D01*
X-105905904Y203856166D01*
X-105845428Y203735214D01*
X-105845428Y203069976D01*
X-105422095Y203916642D02*
X-104938285Y203916642D01*
X-105240666Y204339976D02*
X-105240666Y203251404D01*
X-105180190Y203130452D01*
X-105059238Y203069976D01*
X-104938285Y203069976D01*
X-104514952Y203069976D02*
X-104514952Y203916642D01*
X-104514952Y203674738D02*
X-104454476Y203795690D01*
X-104394000Y203856166D01*
X-104273047Y203916642D01*
X-104152095Y203916642D01*
X-103547333Y203069976D02*
X-103668285Y203130452D01*
X-103728761Y203190928D01*
X-103789238Y203311880D01*
X-103789238Y203674738D01*
X-103728761Y203795690D01*
X-103668285Y203856166D01*
X-103547333Y203916642D01*
X-103365904Y203916642D01*
X-103244952Y203856166D01*
X-103184476Y203795690D01*
X-103124000Y203674738D01*
X-103124000Y203311880D01*
X-103184476Y203190928D01*
X-103244952Y203130452D01*
X-103365904Y203069976D01*
X-103547333Y203069976D01*
X-102398285Y203069976D02*
X-102519238Y203130452D01*
X-102579714Y203251404D01*
X-102579714Y204339976D01*
D10*
X-46808571Y183443619D02*
X-47505257Y183443619D01*
X-47156914Y183443619D02*
X-47156914Y184443619D01*
X-47273028Y184300761D01*
X-47389142Y184205523D01*
X-47505257Y184157904D01*
X-44486285Y184348380D02*
X-44428228Y184396000D01*
X-44312114Y184443619D01*
X-44021828Y184443619D01*
X-43905714Y184396000D01*
X-43847657Y184348380D01*
X-43789600Y184253142D01*
X-43789600Y184157904D01*
X-43847657Y184015047D01*
X-44544342Y183443619D01*
X-43789600Y183443619D01*
X-41525371Y184443619D02*
X-40770628Y184443619D01*
X-41177028Y184062666D01*
X-41002857Y184062666D01*
X-40886742Y184015047D01*
X-40828685Y183967428D01*
X-40770628Y183872190D01*
X-40770628Y183634095D01*
X-40828685Y183538857D01*
X-40886742Y183491238D01*
X-41002857Y183443619D01*
X-41351200Y183443619D01*
X-41467314Y183491238D01*
X-41525371Y183538857D01*
X-37867771Y184110285D02*
X-37867771Y183443619D01*
X-38158057Y184491238D02*
X-38448342Y183776952D01*
X-37693600Y183776952D01*
X-34790742Y184443619D02*
X-35371314Y184443619D01*
X-35429371Y183967428D01*
X-35371314Y184015047D01*
X-35255200Y184062666D01*
X-34964914Y184062666D01*
X-34848800Y184015047D01*
X-34790742Y183967428D01*
X-34732685Y183872190D01*
X-34732685Y183634095D01*
X-34790742Y183538857D01*
X-34848800Y183491238D01*
X-34964914Y183443619D01*
X-35255200Y183443619D01*
X-35371314Y183491238D01*
X-35429371Y183538857D01*
X-31829828Y184443619D02*
X-32062057Y184443619D01*
X-32178171Y184396000D01*
X-32236228Y184348380D01*
X-32352342Y184205523D01*
X-32410400Y184015047D01*
X-32410400Y183634095D01*
X-32352342Y183538857D01*
X-32294285Y183491238D01*
X-32178171Y183443619D01*
X-31945942Y183443619D01*
X-31829828Y183491238D01*
X-31771771Y183538857D01*
X-31713714Y183634095D01*
X-31713714Y183872190D01*
X-31771771Y183967428D01*
X-31829828Y184015047D01*
X-31945942Y184062666D01*
X-32178171Y184062666D01*
X-32294285Y184015047D01*
X-32352342Y183967428D01*
X-32410400Y183872190D01*
X-29449485Y184443619D02*
X-28636685Y184443619D01*
X-29159200Y183443619D01*
X-26140228Y184015047D02*
X-26256342Y184062666D01*
X-26314400Y184110285D01*
X-26372457Y184205523D01*
X-26372457Y184253142D01*
X-26314400Y184348380D01*
X-26256342Y184396000D01*
X-26140228Y184443619D01*
X-25908000Y184443619D01*
X-25791885Y184396000D01*
X-25733828Y184348380D01*
X-25675771Y184253142D01*
X-25675771Y184205523D01*
X-25733828Y184110285D01*
X-25791885Y184062666D01*
X-25908000Y184015047D01*
X-26140228Y184015047D01*
X-26256342Y183967428D01*
X-26314400Y183919809D01*
X-26372457Y183824571D01*
X-26372457Y183634095D01*
X-26314400Y183538857D01*
X-26256342Y183491238D01*
X-26140228Y183443619D01*
X-25908000Y183443619D01*
X-25791885Y183491238D01*
X-25733828Y183538857D01*
X-25675771Y183634095D01*
X-25675771Y183824571D01*
X-25733828Y183919809D01*
X-25791885Y183967428D01*
X-25908000Y184015047D01*
X-22656799Y184396000D02*
X-22772914Y184443619D01*
X-22947085Y184443619D01*
X-23121257Y184396000D01*
X-23237371Y184300761D01*
X-23295428Y184205523D01*
X-23353485Y184015047D01*
X-23353485Y183872190D01*
X-23295428Y183681714D01*
X-23237371Y183586476D01*
X-23121257Y183491238D01*
X-22947085Y183443619D01*
X-22830971Y183443619D01*
X-22656799Y183491238D01*
X-22598742Y183538857D01*
X-22598742Y183872190D01*
X-22830971Y183872190D01*
D13*
%TO.C,R17*%
X-11454224Y209437500D02*
X-10944776Y209437500D01*
X-11454224Y208392500D02*
X-10944776Y208392500D01*
%TO.C,R40*%
X-59839776Y208802500D02*
X-60349224Y208802500D01*
X-59839776Y207757500D02*
X-60349224Y207757500D01*
%TO.C,D13*%
X-35510500Y210114000D02*
X-35510500Y209184000D01*
X-35510500Y206954000D02*
X-35510500Y207884000D01*
X-35510500Y206954000D02*
X-33350500Y206954000D01*
X-35510500Y210114000D02*
X-34050500Y210114000D01*
%TO.C,D19*%
X-59358500Y210573500D02*
X-59358500Y211503500D01*
X-59358500Y213733500D02*
X-59358500Y212803500D01*
X-59358500Y213733500D02*
X-61518500Y213733500D01*
X-59358500Y210573500D02*
X-60818500Y210573500D01*
%TO.C,D17*%
X-55735000Y210111500D02*
X-55735000Y209181500D01*
X-55735000Y206951500D02*
X-55735000Y207881500D01*
X-55735000Y206951500D02*
X-53575000Y206951500D01*
X-55735000Y210111500D02*
X-54275000Y210111500D01*
%TO.C,D12*%
X-32260000Y195905000D02*
X-33720000Y195905000D01*
X-32260000Y199065000D02*
X-34420000Y199065000D01*
X-32260000Y199065000D02*
X-32260000Y198135000D01*
X-32260000Y195905000D02*
X-32260000Y196835000D01*
%TO.C,U7*%
X-34590500Y200735000D02*
X-32938000Y200735000D01*
X-34590500Y200452500D02*
X-34590500Y200735000D01*
X-37338000Y200452500D02*
X-34590500Y200452500D01*
X-40085500Y200452500D02*
X-40085500Y200735000D01*
X-37338000Y200452500D02*
X-40085500Y200452500D01*
X-34590500Y205947500D02*
X-34590500Y205665000D01*
X-37338000Y205947500D02*
X-34590500Y205947500D01*
X-40085500Y205947500D02*
X-40085500Y205665000D01*
X-37338000Y205947500D02*
X-40085500Y205947500D01*
%TO.C,R18*%
X-9764500Y204701224D02*
X-9764500Y204191776D01*
X-10809500Y204701224D02*
X-10809500Y204191776D01*
%TO.C,D15*%
X-38848000Y210256000D02*
X-38848000Y211186000D01*
X-38848000Y213416000D02*
X-38848000Y212486000D01*
X-38848000Y213416000D02*
X-41008000Y213416000D01*
X-38848000Y210256000D02*
X-40308000Y210256000D01*
%TO.C,R39*%
X-71261500Y196999776D02*
X-71261500Y197509224D01*
X-70216500Y196999776D02*
X-70216500Y197509224D01*
%TO.C,D18*%
X-67455000Y199268000D02*
X-68915000Y199268000D01*
X-67455000Y202428000D02*
X-69615000Y202428000D01*
X-67455000Y202428000D02*
X-67455000Y201498000D01*
X-67455000Y199268000D02*
X-67455000Y200198000D01*
%TO.C,R21*%
X-25805224Y205627500D02*
X-25295776Y205627500D01*
X-25805224Y204582500D02*
X-25295776Y204582500D01*
%TO.C,R26*%
X-29986500Y206098224D02*
X-29986500Y205588776D01*
X-28941500Y206098224D02*
X-28941500Y205588776D01*
%TO.C,R23*%
X-27163500Y198652224D02*
X-27163500Y198142776D01*
X-28208500Y198652224D02*
X-28208500Y198142776D01*
%TO.C,R30*%
X-40400500Y197589224D02*
X-40400500Y197079776D01*
X-39355500Y197589224D02*
X-39355500Y197079776D01*
%TO.C,D8*%
X-11162000Y195209000D02*
X-12622000Y195209000D01*
X-11162000Y198369000D02*
X-13322000Y198369000D01*
X-11162000Y198369000D02*
X-11162000Y197439000D01*
X-11162000Y195209000D02*
X-11162000Y196139000D01*
%TO.C,D11*%
X-18528000Y210256000D02*
X-18528000Y211186000D01*
X-18528000Y213416000D02*
X-18528000Y212486000D01*
X-18528000Y213416000D02*
X-20688000Y213416000D01*
X-18528000Y210256000D02*
X-19988000Y210256000D01*
%TO.C,D10*%
X-23100000Y195143000D02*
X-24560000Y195143000D01*
X-23100000Y198303000D02*
X-25260000Y198303000D01*
X-23100000Y198303000D02*
X-23100000Y197373000D01*
X-23100000Y195143000D02*
X-23100000Y196073000D01*
%TO.C,R38*%
X-61165000Y197255224D02*
X-61165000Y196745776D01*
X-60120000Y197255224D02*
X-60120000Y196745776D01*
%TO.C,U8*%
X-54827500Y200735000D02*
X-53175000Y200735000D01*
X-54827500Y200452500D02*
X-54827500Y200735000D01*
X-57575000Y200452500D02*
X-54827500Y200452500D01*
X-60322500Y200452500D02*
X-60322500Y200735000D01*
X-57575000Y200452500D02*
X-60322500Y200452500D01*
X-54827500Y205947500D02*
X-54827500Y205665000D01*
X-57575000Y205947500D02*
X-54827500Y205947500D01*
X-60322500Y205947500D02*
X-60322500Y205665000D01*
X-57575000Y205947500D02*
X-60322500Y205947500D01*
%TO.C,U6*%
X-15242500Y200735000D02*
X-13590000Y200735000D01*
X-15242500Y200452500D02*
X-15242500Y200735000D01*
X-17990000Y200452500D02*
X-15242500Y200452500D01*
X-20737500Y200452500D02*
X-20737500Y200735000D01*
X-17990000Y200452500D02*
X-20737500Y200452500D01*
X-15242500Y205947500D02*
X-15242500Y205665000D01*
X-17990000Y205947500D02*
X-15242500Y205947500D01*
X-20737500Y205947500D02*
X-20737500Y205665000D01*
X-17990000Y205947500D02*
X-20737500Y205947500D01*
%TO.C,D9*%
X-15762000Y211511000D02*
X-15762000Y210581000D01*
X-15762000Y208351000D02*
X-15762000Y209281000D01*
X-15762000Y208351000D02*
X-13602000Y208351000D01*
X-15762000Y211511000D02*
X-14302000Y211511000D01*
%TO.C,D14*%
X-42420000Y194955000D02*
X-42420000Y195885000D01*
X-42420000Y198115000D02*
X-42420000Y197185000D01*
X-42420000Y198115000D02*
X-44580000Y198115000D01*
X-42420000Y194955000D02*
X-43880000Y194955000D01*
%TO.C,R20*%
X-11534224Y201817500D02*
X-11024776Y201817500D01*
X-11534224Y200772500D02*
X-11024776Y200772500D01*
%TO.C,R31*%
X-47258500Y198605224D02*
X-47258500Y198095776D01*
X-46213500Y198605224D02*
X-46213500Y198095776D01*
%TO.C,R35*%
X-57135500Y197255224D02*
X-57135500Y196745776D01*
X-58180500Y197255224D02*
X-58180500Y196745776D01*
%TO.C,R22*%
X-20588500Y196827224D02*
X-20588500Y196317776D01*
X-19543500Y196827224D02*
X-19543500Y196317776D01*
%TO.C,R32*%
X-39265776Y208929500D02*
X-39775224Y208929500D01*
X-39265776Y207884500D02*
X-39775224Y207884500D01*
%TO.C,R19*%
X-16241500Y196827224D02*
X-16241500Y196317776D01*
X-17286500Y196827224D02*
X-17286500Y196317776D01*
%TO.C,D16*%
X-50294000Y195905000D02*
X-51754000Y195905000D01*
X-50294000Y199065000D02*
X-52454000Y199065000D01*
X-50294000Y199065000D02*
X-50294000Y198135000D01*
X-50294000Y195905000D02*
X-50294000Y196835000D01*
%TO.C,R33*%
X-49681224Y209154500D02*
X-49171776Y209154500D01*
X-49681224Y210199500D02*
X-49171776Y210199500D01*
%TO.C,R34*%
X-49036500Y205891224D02*
X-49036500Y205381776D01*
X-47991500Y205891224D02*
X-47991500Y205381776D01*
%TO.C,R27*%
X-36307500Y197589224D02*
X-36307500Y197079776D01*
X-37352500Y197589224D02*
X-37352500Y197079776D01*
%TO.C,R25*%
X-30631224Y208345500D02*
X-30121776Y208345500D01*
X-30631224Y209390500D02*
X-30121776Y209390500D01*
%TO.C,R24*%
X-18945776Y208929500D02*
X-19455224Y208929500D01*
X-18945776Y207884500D02*
X-19455224Y207884500D01*
%TO.C,R29*%
X-44855224Y205627500D02*
X-44345776Y205627500D01*
X-44855224Y204582500D02*
X-44345776Y204582500D01*
%TO.C,R28*%
X-30885224Y201817500D02*
X-30375776Y201817500D01*
X-30885224Y200772500D02*
X-30375776Y200772500D01*
%TO.C,R37*%
X-64921224Y205627500D02*
X-64411776Y205627500D01*
X-64921224Y204582500D02*
X-64411776Y204582500D01*
%TO.C,R36*%
X-51158224Y201817500D02*
X-50648776Y201817500D01*
X-51158224Y200772500D02*
X-50648776Y200772500D01*
%TO.C,Conn5*%
X-67106800Y244322600D02*
X-68199000Y244322600D01*
X-67106800Y241274600D02*
X-67106800Y244322600D01*
X-68199000Y241274600D02*
X-67106800Y241274600D01*
D14*
X-68300600Y237972600D02*
X-68300600Y247624600D01*
X-68300600Y237972600D02*
X-71501000Y237972600D01*
X-72669400Y239242600D02*
X-72669400Y246354600D01*
X-68293000Y247624600D02*
X-71501000Y247624600D01*
D15*
X-73679000Y242918600D02*
G75*
G03*
X-73679000Y242918600I-200000J0D01*
G01*
D16*
%TO.C,U1*%
X-39116000Y217424000D02*
X-100076000Y217424000D01*
X-100076000Y217424000D02*
X-100076000Y235204000D01*
X-100076000Y235204000D02*
X-39116000Y235204000D01*
X-39116000Y230344000D02*
X-38416000Y230344000D01*
X-39116000Y222284000D02*
X-38416000Y222284000D01*
X-38416000Y230344000D02*
X-38416000Y222284000D01*
X-39116000Y235204000D02*
X-39116000Y230344000D01*
X-39116000Y217424000D02*
X-39116000Y222284000D01*
D14*
X-45366000Y235814000D02*
G75*
G03*
X-45366000Y235814000I-100000J0D01*
G01*
D13*
%TO.C,Conn2*%
X-50559010Y189738000D02*
X-52083010Y189103000D01*
X-52083010Y189103000D02*
X-52083010Y190373000D01*
X-52083010Y190373000D02*
X-50559010Y189738000D01*
X-19674998Y186638001D02*
X-19674998Y190799116D01*
X-20794521Y192208000D02*
X-49185539Y192208000D01*
X-50305010Y190799098D02*
X-50305010Y186638001D01*
X-50305010Y186638001D02*
X-19674998Y186638001D01*
%TO.C,D20*%
X-55316000Y190006000D02*
X-56246000Y190006000D01*
X-58476000Y190006000D02*
X-57546000Y190006000D01*
X-58476000Y190006000D02*
X-58476000Y187846000D01*
X-55316000Y190006000D02*
X-55316000Y188546000D01*
%TO.C,D22*%
X-54554000Y179639500D02*
X-54554000Y178179500D01*
X-57714000Y179639500D02*
X-57714000Y177479500D01*
X-57714000Y179639500D02*
X-56784000Y179639500D01*
X-54554000Y179639500D02*
X-55484000Y179639500D01*
%TO.C,D21*%
X-73208000Y188390500D02*
X-73208000Y189850500D01*
X-70048000Y188390500D02*
X-70048000Y190550500D01*
X-70048000Y188390500D02*
X-70978000Y188390500D01*
X-73208000Y188390500D02*
X-72278000Y188390500D01*
%TO.C,D23*%
X-72080000Y184656000D02*
X-72080000Y183196000D01*
X-75240000Y184656000D02*
X-75240000Y182496000D01*
X-75240000Y184656000D02*
X-74310000Y184656000D01*
X-72080000Y184656000D02*
X-73010000Y184656000D01*
%TO.C,R47*%
X-68565500Y179070724D02*
X-68565500Y178561276D01*
X-69610500Y179070724D02*
X-69610500Y178561276D01*
%TO.C,R48*%
X-71134500Y184127224D02*
X-71134500Y183617776D01*
X-70089500Y184127224D02*
X-70089500Y183617776D01*
%TO.C,R41*%
X-66040724Y194578500D02*
X-65531276Y194578500D01*
X-66040724Y193533500D02*
X-65531276Y193533500D01*
%TO.C,U9*%
X-66819000Y186074500D02*
X-66819000Y183327000D01*
X-66819000Y183327000D02*
X-66536500Y183327000D01*
X-66819000Y186074500D02*
X-66819000Y188822000D01*
X-66819000Y188822000D02*
X-66536500Y188822000D01*
X-61324000Y186074500D02*
X-61324000Y183327000D01*
X-61324000Y183327000D02*
X-61606500Y183327000D01*
X-61324000Y186074500D02*
X-61324000Y188822000D01*
X-61324000Y188822000D02*
X-61606500Y188822000D01*
X-61606500Y188822000D02*
X-61606500Y190474500D01*
%TO.C,R44*%
X-62078776Y191501500D02*
X-62588224Y191501500D01*
X-62078776Y192546500D02*
X-62588224Y192546500D01*
%TO.C,R43*%
X-58434500Y184911276D02*
X-58434500Y185420724D01*
X-57389500Y184911276D02*
X-57389500Y185420724D01*
%TO.C,R46*%
X-65517500Y178664776D02*
X-65517500Y179174224D01*
X-66562500Y178664776D02*
X-66562500Y179174224D01*
%TO.C,R42*%
X-57286000Y192785276D02*
X-57286000Y193294724D01*
X-58331000Y192785276D02*
X-58331000Y193294724D01*
%TO.C,R45*%
X-60705276Y178397000D02*
X-61214724Y178397000D01*
X-60705276Y179442000D02*
X-61214724Y179442000D01*
D10*
%TO.C,BZ1*%
X-105895000Y292710000D02*
X-109395000Y296210000D01*
X-118895000Y283210000D02*
X-118895000Y296210000D01*
X-105895000Y283210000D02*
X-118895000Y283210000D01*
X-109395000Y296210000D02*
X-118895000Y296210000D01*
X-105895000Y283210000D02*
X-105895000Y292710000D01*
D13*
%TO.C,C2*%
X-88042000Y197866000D02*
G75*
G03*
X-88042000Y197866000I-2620000J0D01*
G01*
X-90662000Y198906000D02*
X-90662000Y200446000D01*
X-90662000Y195286000D02*
X-90662000Y196826000D01*
X-90702000Y198906000D02*
X-90702000Y200446000D01*
X-90702000Y195286000D02*
X-90702000Y196826000D01*
X-90742000Y195287000D02*
X-90742000Y196826000D01*
X-90742000Y198906000D02*
X-90742000Y200445000D01*
X-90782000Y195288000D02*
X-90782000Y196826000D01*
X-90782000Y198906000D02*
X-90782000Y200444000D01*
X-90822000Y195290000D02*
X-90822000Y196826000D01*
X-90822000Y198906000D02*
X-90822000Y200442000D01*
X-90862000Y195293000D02*
X-90862000Y196826000D01*
X-90862000Y198906000D02*
X-90862000Y200439000D01*
X-90902000Y195297000D02*
X-90902000Y196826000D01*
X-90902000Y198906000D02*
X-90902000Y200435000D01*
X-90942000Y195301000D02*
X-90942000Y196826000D01*
X-90942000Y198906000D02*
X-90942000Y200431000D01*
X-90982000Y195305000D02*
X-90982000Y196826000D01*
X-90982000Y198906000D02*
X-90982000Y200427000D01*
X-91022000Y195310000D02*
X-91022000Y196826000D01*
X-91022000Y198906000D02*
X-91022000Y200422000D01*
X-91062000Y195316000D02*
X-91062000Y196826000D01*
X-91062000Y198906000D02*
X-91062000Y200416000D01*
X-91102000Y195323000D02*
X-91102000Y196826000D01*
X-91102000Y198906000D02*
X-91102000Y200409000D01*
X-91142000Y195330000D02*
X-91142000Y196826000D01*
X-91142000Y198906000D02*
X-91142000Y200402000D01*
X-91182000Y195338000D02*
X-91182000Y196826000D01*
X-91182000Y198906000D02*
X-91182000Y200394000D01*
X-91222000Y195346000D02*
X-91222000Y196826000D01*
X-91222000Y198906000D02*
X-91222000Y200386000D01*
X-91262000Y195355000D02*
X-91262000Y196826000D01*
X-91262000Y198906000D02*
X-91262000Y200377000D01*
X-91302000Y195365000D02*
X-91302000Y196826000D01*
X-91302000Y198906000D02*
X-91302000Y200367000D01*
X-91342000Y195375000D02*
X-91342000Y196826000D01*
X-91342000Y198906000D02*
X-91342000Y200357000D01*
X-91383000Y195386000D02*
X-91383000Y196826000D01*
X-91383000Y198906000D02*
X-91383000Y200346000D01*
X-91423000Y195398000D02*
X-91423000Y196826000D01*
X-91423000Y198906000D02*
X-91423000Y200334000D01*
X-91463000Y195411000D02*
X-91463000Y196826000D01*
X-91463000Y198906000D02*
X-91463000Y200321000D01*
X-91503000Y195424000D02*
X-91503000Y196826000D01*
X-91503000Y198906000D02*
X-91503000Y200308000D01*
X-91543000Y195438000D02*
X-91543000Y196826000D01*
X-91543000Y198906000D02*
X-91543000Y200294000D01*
X-91583000Y195452000D02*
X-91583000Y196826000D01*
X-91583000Y198906000D02*
X-91583000Y200280000D01*
X-91623000Y195468000D02*
X-91623000Y196826000D01*
X-91623000Y198906000D02*
X-91623000Y200264000D01*
X-91663000Y195484000D02*
X-91663000Y196826000D01*
X-91663000Y198906000D02*
X-91663000Y200248000D01*
X-91703000Y195501000D02*
X-91703000Y196826000D01*
X-91703000Y198906000D02*
X-91703000Y200231000D01*
X-91743000Y195518000D02*
X-91743000Y196826000D01*
X-91743000Y198906000D02*
X-91743000Y200214000D01*
X-91783000Y195537000D02*
X-91783000Y196826000D01*
X-91783000Y198906000D02*
X-91783000Y200195000D01*
X-91823000Y195556000D02*
X-91823000Y196826000D01*
X-91823000Y198906000D02*
X-91823000Y200176000D01*
X-91863000Y195576000D02*
X-91863000Y196826000D01*
X-91863000Y198906000D02*
X-91863000Y200156000D01*
X-91903000Y195598000D02*
X-91903000Y196826000D01*
X-91903000Y198906000D02*
X-91903000Y200134000D01*
X-91943000Y195619000D02*
X-91943000Y196826000D01*
X-91943000Y198906000D02*
X-91943000Y200113000D01*
X-91983000Y195642000D02*
X-91983000Y196826000D01*
X-91983000Y198906000D02*
X-91983000Y200090000D01*
X-92023000Y195666000D02*
X-92023000Y196826000D01*
X-92023000Y198906000D02*
X-92023000Y200066000D01*
X-92063000Y195691000D02*
X-92063000Y196826000D01*
X-92063000Y198906000D02*
X-92063000Y200041000D01*
X-92103000Y195717000D02*
X-92103000Y196826000D01*
X-92103000Y198906000D02*
X-92103000Y200015000D01*
X-92143000Y195744000D02*
X-92143000Y196826000D01*
X-92143000Y198906000D02*
X-92143000Y199988000D01*
X-92183000Y195771000D02*
X-92183000Y196826000D01*
X-92183000Y198906000D02*
X-92183000Y199961000D01*
X-92223000Y195801000D02*
X-92223000Y196826000D01*
X-92223000Y198906000D02*
X-92223000Y199931000D01*
X-92263000Y195831000D02*
X-92263000Y196826000D01*
X-92263000Y198906000D02*
X-92263000Y199901000D01*
X-92303000Y195862000D02*
X-92303000Y196826000D01*
X-92303000Y198906000D02*
X-92303000Y199870000D01*
X-92343000Y195895000D02*
X-92343000Y196826000D01*
X-92343000Y198906000D02*
X-92343000Y199837000D01*
X-92383000Y195929000D02*
X-92383000Y196826000D01*
X-92383000Y198906000D02*
X-92383000Y199803000D01*
X-92423000Y195965000D02*
X-92423000Y196826000D01*
X-92423000Y198906000D02*
X-92423000Y199767000D01*
X-92463000Y196002000D02*
X-92463000Y196826000D01*
X-92463000Y198906000D02*
X-92463000Y199730000D01*
X-92503000Y196040000D02*
X-92503000Y196826000D01*
X-92503000Y198906000D02*
X-92503000Y199692000D01*
X-92543000Y196081000D02*
X-92543000Y196826000D01*
X-92543000Y198906000D02*
X-92543000Y199651000D01*
X-92583000Y196123000D02*
X-92583000Y196826000D01*
X-92583000Y198906000D02*
X-92583000Y199609000D01*
X-92623000Y196167000D02*
X-92623000Y196826000D01*
X-92623000Y198906000D02*
X-92623000Y199565000D01*
X-92663000Y196213000D02*
X-92663000Y196826000D01*
X-92663000Y198906000D02*
X-92663000Y199519000D01*
X-92703000Y196261000D02*
X-92703000Y199471000D01*
X-92743000Y196312000D02*
X-92743000Y199420000D01*
X-92783000Y196366000D02*
X-92783000Y199366000D01*
X-92823000Y196423000D02*
X-92823000Y199309000D01*
X-92863000Y196483000D02*
X-92863000Y199249000D01*
X-92903000Y196547000D02*
X-92903000Y199185000D01*
X-92943000Y196615000D02*
X-92943000Y199117000D01*
X-92983000Y196688000D02*
X-92983000Y199044000D01*
X-93023000Y196768000D02*
X-93023000Y198964000D01*
X-93063000Y196855000D02*
X-93063000Y198877000D01*
X-93103000Y196951000D02*
X-93103000Y198781000D01*
X-93143000Y197061000D02*
X-93143000Y198671000D01*
X-93183000Y197189000D02*
X-93183000Y198543000D01*
X-93223000Y197348000D02*
X-93223000Y198384000D01*
X-93263000Y197582000D02*
X-93263000Y198150000D01*
X-87857225Y196391000D02*
X-88357225Y196391000D01*
X-88107225Y196141000D02*
X-88107225Y196641000D01*
%TO.C,C5*%
X-100234000Y197358000D02*
G75*
G03*
X-100234000Y197358000I-2620000J0D01*
G01*
X-102854000Y198398000D02*
X-102854000Y199938000D01*
X-102854000Y194778000D02*
X-102854000Y196318000D01*
X-102894000Y198398000D02*
X-102894000Y199938000D01*
X-102894000Y194778000D02*
X-102894000Y196318000D01*
X-102934000Y194779000D02*
X-102934000Y196318000D01*
X-102934000Y198398000D02*
X-102934000Y199937000D01*
X-102974000Y194780000D02*
X-102974000Y196318000D01*
X-102974000Y198398000D02*
X-102974000Y199936000D01*
X-103014000Y194782000D02*
X-103014000Y196318000D01*
X-103014000Y198398000D02*
X-103014000Y199934000D01*
X-103054000Y194785000D02*
X-103054000Y196318000D01*
X-103054000Y198398000D02*
X-103054000Y199931000D01*
X-103094000Y194789000D02*
X-103094000Y196318000D01*
X-103094000Y198398000D02*
X-103094000Y199927000D01*
X-103134000Y194793000D02*
X-103134000Y196318000D01*
X-103134000Y198398000D02*
X-103134000Y199923000D01*
X-103174000Y194797000D02*
X-103174000Y196318000D01*
X-103174000Y198398000D02*
X-103174000Y199919000D01*
X-103214000Y194802000D02*
X-103214000Y196318000D01*
X-103214000Y198398000D02*
X-103214000Y199914000D01*
X-103254000Y194808000D02*
X-103254000Y196318000D01*
X-103254000Y198398000D02*
X-103254000Y199908000D01*
X-103294000Y194815000D02*
X-103294000Y196318000D01*
X-103294000Y198398000D02*
X-103294000Y199901000D01*
X-103334000Y194822000D02*
X-103334000Y196318000D01*
X-103334000Y198398000D02*
X-103334000Y199894000D01*
X-103374000Y194830000D02*
X-103374000Y196318000D01*
X-103374000Y198398000D02*
X-103374000Y199886000D01*
X-103414000Y194838000D02*
X-103414000Y196318000D01*
X-103414000Y198398000D02*
X-103414000Y199878000D01*
X-103454000Y194847000D02*
X-103454000Y196318000D01*
X-103454000Y198398000D02*
X-103454000Y199869000D01*
X-103494000Y194857000D02*
X-103494000Y196318000D01*
X-103494000Y198398000D02*
X-103494000Y199859000D01*
X-103534000Y194867000D02*
X-103534000Y196318000D01*
X-103534000Y198398000D02*
X-103534000Y199849000D01*
X-103575000Y194878000D02*
X-103575000Y196318000D01*
X-103575000Y198398000D02*
X-103575000Y199838000D01*
X-103615000Y194890000D02*
X-103615000Y196318000D01*
X-103615000Y198398000D02*
X-103615000Y199826000D01*
X-103655000Y194903000D02*
X-103655000Y196318000D01*
X-103655000Y198398000D02*
X-103655000Y199813000D01*
X-103695000Y194916000D02*
X-103695000Y196318000D01*
X-103695000Y198398000D02*
X-103695000Y199800000D01*
X-103735000Y194930000D02*
X-103735000Y196318000D01*
X-103735000Y198398000D02*
X-103735000Y199786000D01*
X-103775000Y194944000D02*
X-103775000Y196318000D01*
X-103775000Y198398000D02*
X-103775000Y199772000D01*
X-103815000Y194960000D02*
X-103815000Y196318000D01*
X-103815000Y198398000D02*
X-103815000Y199756000D01*
X-103855000Y194976000D02*
X-103855000Y196318000D01*
X-103855000Y198398000D02*
X-103855000Y199740000D01*
X-103895000Y194993000D02*
X-103895000Y196318000D01*
X-103895000Y198398000D02*
X-103895000Y199723000D01*
X-103935000Y195010000D02*
X-103935000Y196318000D01*
X-103935000Y198398000D02*
X-103935000Y199706000D01*
X-103975000Y195029000D02*
X-103975000Y196318000D01*
X-103975000Y198398000D02*
X-103975000Y199687000D01*
X-104015000Y195048000D02*
X-104015000Y196318000D01*
X-104015000Y198398000D02*
X-104015000Y199668000D01*
X-104055000Y195068000D02*
X-104055000Y196318000D01*
X-104055000Y198398000D02*
X-104055000Y199648000D01*
X-104095000Y195090000D02*
X-104095000Y196318000D01*
X-104095000Y198398000D02*
X-104095000Y199626000D01*
X-104135000Y195111000D02*
X-104135000Y196318000D01*
X-104135000Y198398000D02*
X-104135000Y199605000D01*
X-104175000Y195134000D02*
X-104175000Y196318000D01*
X-104175000Y198398000D02*
X-104175000Y199582000D01*
X-104215000Y195158000D02*
X-104215000Y196318000D01*
X-104215000Y198398000D02*
X-104215000Y199558000D01*
X-104255000Y195183000D02*
X-104255000Y196318000D01*
X-104255000Y198398000D02*
X-104255000Y199533000D01*
X-104295000Y195209000D02*
X-104295000Y196318000D01*
X-104295000Y198398000D02*
X-104295000Y199507000D01*
X-104335000Y195236000D02*
X-104335000Y196318000D01*
X-104335000Y198398000D02*
X-104335000Y199480000D01*
X-104375000Y195263000D02*
X-104375000Y196318000D01*
X-104375000Y198398000D02*
X-104375000Y199453000D01*
X-104415000Y195293000D02*
X-104415000Y196318000D01*
X-104415000Y198398000D02*
X-104415000Y199423000D01*
X-104455000Y195323000D02*
X-104455000Y196318000D01*
X-104455000Y198398000D02*
X-104455000Y199393000D01*
X-104495000Y195354000D02*
X-104495000Y196318000D01*
X-104495000Y198398000D02*
X-104495000Y199362000D01*
X-104535000Y195387000D02*
X-104535000Y196318000D01*
X-104535000Y198398000D02*
X-104535000Y199329000D01*
X-104575000Y195421000D02*
X-104575000Y196318000D01*
X-104575000Y198398000D02*
X-104575000Y199295000D01*
X-104615000Y195457000D02*
X-104615000Y196318000D01*
X-104615000Y198398000D02*
X-104615000Y199259000D01*
X-104655000Y195494000D02*
X-104655000Y196318000D01*
X-104655000Y198398000D02*
X-104655000Y199222000D01*
X-104695000Y195532000D02*
X-104695000Y196318000D01*
X-104695000Y198398000D02*
X-104695000Y199184000D01*
X-104735000Y195573000D02*
X-104735000Y196318000D01*
X-104735000Y198398000D02*
X-104735000Y199143000D01*
X-104775000Y195615000D02*
X-104775000Y196318000D01*
X-104775000Y198398000D02*
X-104775000Y199101000D01*
X-104815000Y195659000D02*
X-104815000Y196318000D01*
X-104815000Y198398000D02*
X-104815000Y199057000D01*
X-104855000Y195705000D02*
X-104855000Y196318000D01*
X-104855000Y198398000D02*
X-104855000Y199011000D01*
X-104895000Y195753000D02*
X-104895000Y198963000D01*
X-104935000Y195804000D02*
X-104935000Y198912000D01*
X-104975000Y195858000D02*
X-104975000Y198858000D01*
X-105015000Y195915000D02*
X-105015000Y198801000D01*
X-105055000Y195975000D02*
X-105055000Y198741000D01*
X-105095000Y196039000D02*
X-105095000Y198677000D01*
X-105135000Y196107000D02*
X-105135000Y198609000D01*
X-105175000Y196180000D02*
X-105175000Y198536000D01*
X-105215000Y196260000D02*
X-105215000Y198456000D01*
X-105255000Y196347000D02*
X-105255000Y198369000D01*
X-105295000Y196443000D02*
X-105295000Y198273000D01*
X-105335000Y196553000D02*
X-105335000Y198163000D01*
X-105375000Y196681000D02*
X-105375000Y198035000D01*
X-105415000Y196840000D02*
X-105415000Y197876000D01*
X-105455000Y197074000D02*
X-105455000Y197642000D01*
X-100049225Y195883000D02*
X-100549225Y195883000D01*
X-100299225Y195633000D02*
X-100299225Y196133000D01*
%TO.C,Conn1*%
X-118161999Y226332004D02*
X-118161999Y198692002D01*
X-113999136Y226332004D02*
X-118161999Y226332004D01*
X-112592000Y199816513D02*
X-112592000Y225207539D01*
X-118161999Y198692002D02*
X-113999120Y198692002D01*
X-114427000Y228110004D02*
X-115062000Y226586004D01*
X-115697000Y228110004D02*
X-114427000Y228110004D01*
X-115062000Y226586004D02*
X-115697000Y228110004D01*
%TO.C,Conn3*%
X-50305010Y176478001D02*
X-19674998Y176478001D01*
X-50305010Y180639098D02*
X-50305010Y176478001D01*
X-20794521Y182048000D02*
X-49185539Y182048000D01*
X-19674998Y176478001D02*
X-19674998Y180639116D01*
X-52083010Y180213000D02*
X-50559010Y179578000D01*
X-52083010Y178943000D02*
X-52083010Y180213000D01*
X-50559010Y179578000D02*
X-52083010Y178943000D01*
D10*
%TO.C,Conn4*%
X-34062000Y244462000D02*
X-34062000Y236562000D01*
X-41962000Y244462000D02*
X-41962000Y236562000D01*
X-40412000Y236562000D02*
X-40412000Y236054000D01*
X-35840000Y236054000D02*
X-35840000Y236562000D01*
X-40412000Y236054000D02*
X-35840000Y236054000D01*
X-34062000Y238213000D02*
X-33554000Y238213000D01*
X-33554000Y238213000D02*
X-33554000Y242785000D01*
X-33554000Y242785000D02*
X-34062000Y242785000D01*
X-34062000Y236562000D02*
X-41962000Y236562000D01*
X-40412000Y243953400D02*
X-35840000Y243953400D01*
X-34062000Y244462000D02*
X-41962000Y244462000D01*
X-35840000Y243953400D02*
X-35840000Y244461400D01*
X-40412000Y244461400D02*
X-40412000Y243953400D01*
X-34062000Y246090000D02*
X-33554000Y246090000D01*
X-41962000Y252362000D02*
X-41962000Y244462000D01*
X-33554000Y246090000D02*
X-33554000Y250662000D01*
X-33554000Y250662000D02*
X-34062000Y250662000D01*
X-35840000Y251854000D02*
X-35840000Y252362000D01*
X-40412000Y252362000D02*
X-40412000Y251854000D01*
X-34062000Y252362000D02*
X-34062000Y244462000D01*
X-34062000Y252362000D02*
X-41962000Y252362000D01*
X-40412000Y251854000D02*
X-35840000Y251854000D01*
D13*
%TO.C,F1*%
X-81785000Y248960748D02*
X-81785000Y253368252D01*
X-87125000Y248960748D02*
X-87125000Y253368252D01*
%TO.C,J1*%
X-85420200Y197104000D02*
X-84328000Y197104000D01*
X-85420200Y200152000D02*
X-85420200Y197104000D01*
X-84328000Y200152000D02*
X-85420200Y200152000D01*
D14*
X-84226400Y204952600D02*
X-84234000Y192303400D01*
X-84226400Y204952600D02*
X-81026000Y204952600D01*
X-79857600Y203708000D02*
X-79857600Y193548000D01*
X-84234000Y192303400D02*
X-81026000Y192303400D01*
%TO.C,J2*%
X-84234000Y177063400D02*
X-81026000Y177063400D01*
X-79857600Y188468000D02*
X-79857600Y178308000D01*
X-84226400Y189712600D02*
X-81026000Y189712600D01*
X-84226400Y189712600D02*
X-84234000Y177063400D01*
D13*
X-84328000Y184912000D02*
X-85420200Y184912000D01*
X-85420200Y184912000D02*
X-85420200Y181864000D01*
X-85420200Y181864000D02*
X-84328000Y181864000D01*
D14*
%TO.C,J3*%
X-99982000Y261823200D02*
X-96774000Y261823200D01*
X-95605600Y276250400D02*
X-95605600Y263042400D01*
X-99974400Y277469600D02*
X-96774000Y277469600D01*
X-99974400Y277469600D02*
X-99982000Y261823200D01*
D13*
X-100076000Y271170400D02*
X-101168200Y271170400D01*
X-101168200Y271170400D02*
X-101168200Y268122400D01*
X-101168200Y268122400D02*
X-100076000Y268122400D01*
%TO.C,Q1*%
X-110545000Y271885000D02*
X-110545000Y275485000D01*
X-110556522Y275523478D02*
G75*
G03*
X-114995000Y273685000I-1838478J-1838478D01*
G01*
X-110556522Y271846522D02*
G75*
G02*
X-114995000Y273685000I-1838478J1838478D01*
G01*
%TO.C,Q3*%
X-107210000Y220908000D02*
X-103610000Y220908000D01*
X-103571522Y220919522D02*
G75*
G03*
X-105410000Y225358000I-1838478J1838478D01*
G01*
X-107248478Y220919522D02*
G75*
G02*
X-105410000Y225358000I1838478J1838478D01*
G01*
%TO.C,Q4*%
X-57248000Y285942000D02*
X-56148000Y285942000D01*
X-57248000Y286632000D02*
X-57248000Y285942000D01*
X-58748000Y286632000D02*
X-57248000Y286632000D01*
X-57248000Y276922000D02*
X-52123000Y276922000D01*
X-57248000Y276232000D02*
X-57248000Y276922000D01*
X-58748000Y276232000D02*
X-57248000Y276232000D01*
D14*
%TO.C,SW2*%
X-88417400Y244127000D02*
X-88417400Y240919000D01*
X-77012800Y239750600D02*
X-87172800Y239750600D01*
X-75768200Y244119400D02*
X-75768200Y240919000D01*
X-75768200Y244119400D02*
X-88417400Y244127000D01*
D13*
X-80568800Y244221000D02*
X-80568800Y245313200D01*
X-80568800Y245313200D02*
X-83616800Y245313200D01*
X-83616800Y245313200D02*
X-83616800Y244221000D01*
D10*
%TO.C,U5*%
X-61341000Y242544600D02*
X-61640720Y242643660D01*
X-61640720Y242643660D02*
X-61940440Y242544600D01*
X-61940440Y242544600D02*
X-62141100Y242143280D01*
X-62141100Y242143280D02*
X-61940440Y241744500D01*
X-61940440Y241744500D02*
X-61739780Y241543840D01*
X-61739780Y241543840D02*
X-61440060Y241744500D01*
X-62641480Y242643660D02*
X-62941200Y242643660D01*
X-62941200Y242643660D02*
X-63339980Y242544600D01*
X-63339980Y242544600D02*
X-63441580Y242044220D01*
X-63441580Y242044220D02*
X-63240920Y241642900D01*
X-63240920Y241642900D02*
X-62941200Y241642900D01*
X-62941200Y241642900D02*
X-62740540Y241744500D01*
X-64841120Y243144040D02*
X-64340740Y241843560D01*
X-64340740Y241843560D02*
X-63840360Y243144040D01*
X-51239420Y242443000D02*
X-51841400Y242443000D01*
X-51640740Y243044980D02*
X-51640740Y241543840D01*
X-51640740Y241543840D02*
X-51440080Y241444780D01*
X-51440080Y241444780D02*
X-51239420Y241444780D01*
X-52941220Y242443000D02*
X-52941220Y241543840D01*
X-52941220Y241543840D02*
X-52641500Y241444780D01*
X-52641500Y241444780D02*
X-52341780Y241543840D01*
X-52341780Y241543840D02*
X-52341780Y242443000D01*
X-54140100Y242943380D02*
X-54340760Y242943380D01*
X-54340760Y242943380D02*
X-54640480Y242745260D01*
X-54640480Y242745260D02*
X-54739540Y242143280D01*
X-54739540Y242143280D02*
X-54640480Y241744500D01*
X-54640480Y241744500D02*
X-54340760Y241444780D01*
X-54340760Y241444780D02*
X-53939440Y241444780D01*
X-53939440Y241444780D02*
X-53741320Y241744500D01*
X-53741320Y241744500D02*
X-53639720Y242343940D01*
X-53639720Y242343940D02*
X-53741320Y242745260D01*
X-53741320Y242745260D02*
X-54140100Y242943380D01*
X-49039780Y247444260D02*
X-49039780Y246242840D01*
X-48440340Y246844820D02*
X-49641760Y246844820D01*
X-51041300Y247243600D02*
X-50639980Y247243600D01*
X-50639980Y247243600D02*
X-50340260Y247042940D01*
X-50340260Y247042940D02*
X-50340260Y246545100D01*
X-50340260Y246545100D02*
X-50540920Y246242840D01*
X-50540920Y246242840D02*
X-50939700Y246242840D01*
X-51041300Y247243600D02*
X-51041300Y245745000D01*
X-51739800Y247843040D02*
X-51739800Y246242840D01*
X-56941720Y247243600D02*
X-56941720Y245745000D01*
X-56941720Y245745000D02*
X-56441340Y245844060D01*
X-56441340Y245844060D02*
X-56141620Y246344440D01*
X-56141620Y246344440D02*
X-56141620Y246844820D01*
X-56141620Y246844820D02*
X-56441340Y247144540D01*
X-56441340Y247144540D02*
X-56941720Y247243600D01*
X-58539380Y245745000D02*
X-58539380Y247243600D01*
X-58539380Y247243600D02*
X-57741820Y245745000D01*
X-57741820Y245745000D02*
X-57741820Y247243600D01*
X-59339480Y247144540D02*
X-59441080Y247243600D01*
X-59441080Y247243600D02*
X-59839860Y247243600D01*
X-59839860Y247243600D02*
X-60139580Y246844820D01*
X-60139580Y246844820D02*
X-60241180Y246344440D01*
X-60241180Y246344440D02*
X-59941460Y245943120D01*
X-59941460Y245943120D02*
X-59540140Y245745000D01*
X-59540140Y245745000D02*
X-59339480Y245844060D01*
X-59339480Y245844060D02*
X-59339480Y246443500D01*
X-59339480Y246443500D02*
X-59641740Y246443500D01*
X-64340740Y247042940D02*
X-65440560Y247042940D01*
X-66840100Y247444260D02*
X-66441320Y247444260D01*
X-66441320Y247444260D02*
X-66240660Y247345200D01*
X-66240660Y247345200D02*
X-66141600Y247144540D01*
X-66141600Y247144540D02*
X-66141600Y246644160D01*
X-66141600Y246644160D02*
X-66339720Y246443500D01*
X-66339720Y246443500D02*
X-66840100Y246443500D01*
X-66840100Y247444260D02*
X-66840100Y245943120D01*
X-67541140Y247944640D02*
X-67541140Y246443500D01*
X-63240920Y248544080D02*
X-65641220Y248544080D01*
X-65641220Y248544080D02*
X-65641220Y257543300D01*
X-53040280Y248544080D02*
X-50639980Y248544080D01*
X-50639980Y248544080D02*
X-50639980Y257743960D01*
X-56240680Y244243860D02*
X-56240680Y241244120D01*
X-60040520Y244243860D02*
X-60040520Y241244120D01*
X-58140600Y244243860D02*
X-58140600Y241244120D01*
X-63240920Y257042920D02*
X-53040280Y257042920D01*
X-53040280Y257042920D02*
X-53040280Y244243860D01*
X-53040280Y244243860D02*
X-63240920Y244243860D01*
X-63240920Y244243860D02*
X-63240920Y257042920D01*
D13*
%TO.C,J5*%
X-31484000Y217888000D02*
X-33544000Y217888000D01*
X-31484000Y217888000D02*
X-31484000Y224008000D01*
X-31484000Y224008000D02*
X-35604000Y224008000D01*
X-35604000Y219948000D02*
X-35604000Y224008000D01*
X-33544000Y219948000D02*
X-35604000Y219948000D01*
X-33544000Y217888000D02*
X-33544000Y219948000D01*
X-35604000Y217888000D02*
X-35604000Y218948000D01*
X-34544000Y217888000D02*
X-35604000Y217888000D01*
%TO.C,C1*%
X-87838233Y258316000D02*
X-88130767Y258316000D01*
X-87838233Y259336000D02*
X-88130767Y259336000D01*
%TO.C,C3*%
X-115060000Y190291767D02*
X-115060000Y189999233D01*
X-116080000Y190291767D02*
X-116080000Y189999233D01*
%TO.C,C4*%
X-118874000Y190291767D02*
X-118874000Y189999233D01*
X-117854000Y190291767D02*
X-117854000Y189999233D01*
%TO.C,C6*%
X-95458233Y202186000D02*
X-95750767Y202186000D01*
X-95458233Y201166000D02*
X-95750767Y201166000D01*
%TO.C,C7*%
X-95458233Y198118000D02*
X-95750767Y198118000D01*
X-95458233Y199138000D02*
X-95750767Y199138000D01*
%TO.C,C8*%
X-33928267Y230630000D02*
X-33635733Y230630000D01*
X-33928267Y231650000D02*
X-33635733Y231650000D01*
%TO.C,D2*%
X-104240000Y213525000D02*
X-104240000Y211065000D01*
X-104240000Y211065000D02*
X-102770000Y211065000D01*
X-102770000Y211065000D02*
X-102770000Y213525000D01*
%TO.C,D3*%
X-91204000Y264485000D02*
X-91204000Y265415000D01*
X-91204000Y267645000D02*
X-91204000Y266715000D01*
X-91204000Y267645000D02*
X-93364000Y267645000D01*
X-91204000Y264485000D02*
X-92664000Y264485000D01*
%TO.C,D4*%
X-113511000Y190933000D02*
X-113511000Y188473000D01*
X-113511000Y188473000D02*
X-112041000Y188473000D01*
X-112041000Y188473000D02*
X-112041000Y190933000D01*
%TO.C,D5*%
X-96750000Y241654000D02*
X-99210000Y241654000D01*
X-99210000Y241654000D02*
X-99210000Y240184000D01*
X-99210000Y240184000D02*
X-96750000Y240184000D01*
%TO.C,D6*%
X-96722000Y238352000D02*
X-99182000Y238352000D01*
X-99182000Y238352000D02*
X-99182000Y236882000D01*
X-99182000Y236882000D02*
X-96722000Y236882000D01*
%TO.C,D7*%
X-89530000Y276252000D02*
X-87070000Y276252000D01*
X-89530000Y277722000D02*
X-89530000Y276252000D01*
X-87070000Y277722000D02*
X-89530000Y277722000D01*
%TO.C,R1*%
X-94727500Y286511276D02*
X-94727500Y287020724D01*
X-95772500Y286511276D02*
X-95772500Y287020724D01*
%TO.C,R2*%
X-88162224Y273162500D02*
X-87652776Y273162500D01*
X-88162224Y274207500D02*
X-87652776Y274207500D01*
%TO.C,R4*%
X-91589776Y273162500D02*
X-92099224Y273162500D01*
X-91589776Y274207500D02*
X-92099224Y274207500D01*
%TO.C,R5*%
X-105932500Y272947224D02*
X-105932500Y272437776D01*
X-104887500Y272947224D02*
X-104887500Y272437776D01*
%TO.C,R8*%
X-107314276Y211313500D02*
X-107823724Y211313500D01*
X-107314276Y212358500D02*
X-107823724Y212358500D01*
%TO.C,R9*%
X-107800224Y208265500D02*
X-107290776Y208265500D01*
X-107800224Y209310500D02*
X-107290776Y209310500D01*
%TO.C,R10*%
X-87652776Y265542500D02*
X-88162224Y265542500D01*
X-87652776Y266587500D02*
X-88162224Y266587500D01*
%TO.C,R11*%
X-88795776Y269762500D02*
X-89305224Y269762500D01*
X-88795776Y268717500D02*
X-89305224Y268717500D01*
%TO.C,R12*%
X-112253500Y185778224D02*
X-112253500Y185268776D01*
X-113298500Y185778224D02*
X-113298500Y185268776D01*
%TO.C,R13*%
X-101622776Y240396500D02*
X-102132224Y240396500D01*
X-101622776Y241441500D02*
X-102132224Y241441500D01*
%TO.C,R14*%
X-101622776Y237094500D02*
X-102132224Y237094500D01*
X-101622776Y238139500D02*
X-102132224Y238139500D01*
%TO.C,R15*%
X-91462776Y277509500D02*
X-91972224Y277509500D01*
X-91462776Y276464500D02*
X-91972224Y276464500D01*
%TO.C,R16*%
X-92732776Y268717500D02*
X-93242224Y268717500D01*
X-92732776Y269762500D02*
X-93242224Y269762500D01*
%TO.C,U3*%
X-87630000Y285034500D02*
X-84882500Y285034500D01*
X-84882500Y285034500D02*
X-84882500Y285317000D01*
X-87630000Y285034500D02*
X-90377500Y285034500D01*
X-90377500Y285034500D02*
X-90377500Y285317000D01*
X-87630000Y290529500D02*
X-84882500Y290529500D01*
X-84882500Y290529500D02*
X-84882500Y290247000D01*
X-87630000Y290529500D02*
X-90377500Y290529500D01*
X-90377500Y290529500D02*
X-90377500Y290247000D01*
X-90377500Y290247000D02*
X-92030000Y290247000D01*
%TO.C,J4*%
X-9620000Y216794000D02*
X-31170000Y216794000D01*
X-31170000Y216794000D02*
X-31170000Y233044000D01*
X-9620000Y233044000D02*
X-31170000Y233044000D01*
X-9620000Y216794000D02*
X-9620000Y233044000D01*
%TO.C,R17*%
D10*
X-11945857Y206938619D02*
X-12279190Y207414809D01*
X-12517285Y206938619D02*
X-12517285Y207938619D01*
X-12136333Y207938619D01*
X-12041095Y207891000D01*
X-11993476Y207843380D01*
X-11945857Y207748142D01*
X-11945857Y207605285D01*
X-11993476Y207510047D01*
X-12041095Y207462428D01*
X-12136333Y207414809D01*
X-12517285Y207414809D01*
X-10993476Y206938619D02*
X-11564904Y206938619D01*
X-11279190Y206938619D02*
X-11279190Y207938619D01*
X-11374428Y207795761D01*
X-11469666Y207700523D01*
X-11564904Y207652904D01*
X-10660142Y207938619D02*
X-9993476Y207938619D01*
X-10422047Y206938619D01*
%TO.C,R40*%
X-60737357Y206397619D02*
X-61070690Y206873809D01*
X-61308785Y206397619D02*
X-61308785Y207397619D01*
X-60927833Y207397619D01*
X-60832595Y207350000D01*
X-60784976Y207302380D01*
X-60737357Y207207142D01*
X-60737357Y207064285D01*
X-60784976Y206969047D01*
X-60832595Y206921428D01*
X-60927833Y206873809D01*
X-61308785Y206873809D01*
X-59880214Y207064285D02*
X-59880214Y206397619D01*
X-60118309Y207445238D02*
X-60356404Y206730952D01*
X-59737357Y206730952D01*
X-59165928Y207397619D02*
X-59070690Y207397619D01*
X-58975452Y207350000D01*
X-58927833Y207302380D01*
X-58880214Y207207142D01*
X-58832595Y207016666D01*
X-58832595Y206778571D01*
X-58880214Y206588095D01*
X-58927833Y206492857D01*
X-58975452Y206445238D01*
X-59070690Y206397619D01*
X-59165928Y206397619D01*
X-59261166Y206445238D01*
X-59308785Y206492857D01*
X-59356404Y206588095D01*
X-59404023Y206778571D01*
X-59404023Y207016666D01*
X-59356404Y207207142D01*
X-59308785Y207302380D01*
X-59261166Y207350000D01*
X-59165928Y207397619D01*
%TO.C,D13*%
X-35948785Y210621619D02*
X-35948785Y211621619D01*
X-35710690Y211621619D01*
X-35567833Y211574000D01*
X-35472595Y211478761D01*
X-35424976Y211383523D01*
X-35377357Y211193047D01*
X-35377357Y211050190D01*
X-35424976Y210859714D01*
X-35472595Y210764476D01*
X-35567833Y210669238D01*
X-35710690Y210621619D01*
X-35948785Y210621619D01*
X-34424976Y210621619D02*
X-34996404Y210621619D01*
X-34710690Y210621619D02*
X-34710690Y211621619D01*
X-34805928Y211478761D01*
X-34901166Y211383523D01*
X-34996404Y211335904D01*
X-34091642Y211621619D02*
X-33472595Y211621619D01*
X-33805928Y211240666D01*
X-33663071Y211240666D01*
X-33567833Y211193047D01*
X-33520214Y211145428D01*
X-33472595Y211050190D01*
X-33472595Y210812095D01*
X-33520214Y210716857D01*
X-33567833Y210669238D01*
X-33663071Y210621619D01*
X-33948785Y210621619D01*
X-34044023Y210669238D01*
X-34091642Y210716857D01*
%TO.C,D19*%
X-61332785Y214201119D02*
X-61332785Y215201119D01*
X-61094690Y215201119D01*
X-60951833Y215153500D01*
X-60856595Y215058261D01*
X-60808976Y214963023D01*
X-60761357Y214772547D01*
X-60761357Y214629690D01*
X-60808976Y214439214D01*
X-60856595Y214343976D01*
X-60951833Y214248738D01*
X-61094690Y214201119D01*
X-61332785Y214201119D01*
X-59808976Y214201119D02*
X-60380404Y214201119D01*
X-60094690Y214201119D02*
X-60094690Y215201119D01*
X-60189928Y215058261D01*
X-60285166Y214963023D01*
X-60380404Y214915404D01*
X-59332785Y214201119D02*
X-59142309Y214201119D01*
X-59047071Y214248738D01*
X-58999452Y214296357D01*
X-58904214Y214439214D01*
X-58856595Y214629690D01*
X-58856595Y215010642D01*
X-58904214Y215105880D01*
X-58951833Y215153500D01*
X-59047071Y215201119D01*
X-59237547Y215201119D01*
X-59332785Y215153500D01*
X-59380404Y215105880D01*
X-59428023Y215010642D01*
X-59428023Y214772547D01*
X-59380404Y214677309D01*
X-59332785Y214629690D01*
X-59237547Y214582071D01*
X-59047071Y214582071D01*
X-58951833Y214629690D01*
X-58904214Y214677309D01*
X-58856595Y214772547D01*
%TO.C,D17*%
X-56189285Y210619119D02*
X-56189285Y211619119D01*
X-55951190Y211619119D01*
X-55808333Y211571500D01*
X-55713095Y211476261D01*
X-55665476Y211381023D01*
X-55617857Y211190547D01*
X-55617857Y211047690D01*
X-55665476Y210857214D01*
X-55713095Y210761976D01*
X-55808333Y210666738D01*
X-55951190Y210619119D01*
X-56189285Y210619119D01*
X-54665476Y210619119D02*
X-55236904Y210619119D01*
X-54951190Y210619119D02*
X-54951190Y211619119D01*
X-55046428Y211476261D01*
X-55141666Y211381023D01*
X-55236904Y211333404D01*
X-54332142Y211619119D02*
X-53665476Y211619119D01*
X-54094047Y210619119D01*
%TO.C,D12*%
X-30551285Y195127619D02*
X-30551285Y196127619D01*
X-30313190Y196127619D01*
X-30170333Y196080000D01*
X-30075095Y195984761D01*
X-30027476Y195889523D01*
X-29979857Y195699047D01*
X-29979857Y195556190D01*
X-30027476Y195365714D01*
X-30075095Y195270476D01*
X-30170333Y195175238D01*
X-30313190Y195127619D01*
X-30551285Y195127619D01*
X-29027476Y195127619D02*
X-29598904Y195127619D01*
X-29313190Y195127619D02*
X-29313190Y196127619D01*
X-29408428Y195984761D01*
X-29503666Y195889523D01*
X-29598904Y195841904D01*
X-28646523Y196032380D02*
X-28598904Y196080000D01*
X-28503666Y196127619D01*
X-28265571Y196127619D01*
X-28170333Y196080000D01*
X-28122714Y196032380D01*
X-28075095Y195937142D01*
X-28075095Y195841904D01*
X-28122714Y195699047D01*
X-28694142Y195127619D01*
X-28075095Y195127619D01*
%TO.C,U7*%
X-38099904Y200157619D02*
X-38099904Y199348095D01*
X-38052285Y199252857D01*
X-38004666Y199205238D01*
X-37909428Y199157619D01*
X-37718952Y199157619D01*
X-37623714Y199205238D01*
X-37576095Y199252857D01*
X-37528476Y199348095D01*
X-37528476Y200157619D01*
X-37147523Y200157619D02*
X-36480857Y200157619D01*
X-36909428Y199157619D01*
%TO.C,R18*%
X-8404619Y203803642D02*
X-8880809Y203470309D01*
X-8404619Y203232214D02*
X-9404619Y203232214D01*
X-9404619Y203613166D01*
X-9357000Y203708404D01*
X-9309380Y203756023D01*
X-9214142Y203803642D01*
X-9071285Y203803642D01*
X-8976047Y203756023D01*
X-8928428Y203708404D01*
X-8880809Y203613166D01*
X-8880809Y203232214D01*
X-8404619Y204756023D02*
X-8404619Y204184595D01*
X-8404619Y204470309D02*
X-9404619Y204470309D01*
X-9261761Y204375071D01*
X-9166523Y204279833D01*
X-9118904Y204184595D01*
X-8976047Y205327452D02*
X-9023666Y205232214D01*
X-9071285Y205184595D01*
X-9166523Y205136976D01*
X-9214142Y205136976D01*
X-9309380Y205184595D01*
X-9357000Y205232214D01*
X-9404619Y205327452D01*
X-9404619Y205517928D01*
X-9357000Y205613166D01*
X-9309380Y205660785D01*
X-9214142Y205708404D01*
X-9166523Y205708404D01*
X-9071285Y205660785D01*
X-9023666Y205613166D01*
X-8976047Y205517928D01*
X-8976047Y205327452D01*
X-8928428Y205232214D01*
X-8880809Y205184595D01*
X-8785571Y205136976D01*
X-8595095Y205136976D01*
X-8499857Y205184595D01*
X-8452238Y205232214D01*
X-8404619Y205327452D01*
X-8404619Y205517928D01*
X-8452238Y205613166D01*
X-8499857Y205660785D01*
X-8595095Y205708404D01*
X-8785571Y205708404D01*
X-8880809Y205660785D01*
X-8928428Y205613166D01*
X-8976047Y205517928D01*
%TO.C,D15*%
X-40822285Y213883619D02*
X-40822285Y214883619D01*
X-40584190Y214883619D01*
X-40441333Y214836000D01*
X-40346095Y214740761D01*
X-40298476Y214645523D01*
X-40250857Y214455047D01*
X-40250857Y214312190D01*
X-40298476Y214121714D01*
X-40346095Y214026476D01*
X-40441333Y213931238D01*
X-40584190Y213883619D01*
X-40822285Y213883619D01*
X-39298476Y213883619D02*
X-39869904Y213883619D01*
X-39584190Y213883619D02*
X-39584190Y214883619D01*
X-39679428Y214740761D01*
X-39774666Y214645523D01*
X-39869904Y214597904D01*
X-38393714Y214883619D02*
X-38869904Y214883619D01*
X-38917523Y214407428D01*
X-38869904Y214455047D01*
X-38774666Y214502666D01*
X-38536571Y214502666D01*
X-38441333Y214455047D01*
X-38393714Y214407428D01*
X-38346095Y214312190D01*
X-38346095Y214074095D01*
X-38393714Y213978857D01*
X-38441333Y213931238D01*
X-38536571Y213883619D01*
X-38774666Y213883619D01*
X-38869904Y213931238D01*
X-38917523Y213978857D01*
%TO.C,R39*%
X-71716619Y196611642D02*
X-72192809Y196278309D01*
X-71716619Y196040214D02*
X-72716619Y196040214D01*
X-72716619Y196421166D01*
X-72669000Y196516404D01*
X-72621380Y196564023D01*
X-72526142Y196611642D01*
X-72383285Y196611642D01*
X-72288047Y196564023D01*
X-72240428Y196516404D01*
X-72192809Y196421166D01*
X-72192809Y196040214D01*
X-72716619Y196944976D02*
X-72716619Y197564023D01*
X-72335666Y197230690D01*
X-72335666Y197373547D01*
X-72288047Y197468785D01*
X-72240428Y197516404D01*
X-72145190Y197564023D01*
X-71907095Y197564023D01*
X-71811857Y197516404D01*
X-71764238Y197468785D01*
X-71716619Y197373547D01*
X-71716619Y197087833D01*
X-71764238Y196992595D01*
X-71811857Y196944976D01*
X-71716619Y198040214D02*
X-71716619Y198230690D01*
X-71764238Y198325928D01*
X-71811857Y198373547D01*
X-71954714Y198468785D01*
X-72145190Y198516404D01*
X-72526142Y198516404D01*
X-72621380Y198468785D01*
X-72669000Y198421166D01*
X-72716619Y198325928D01*
X-72716619Y198135452D01*
X-72669000Y198040214D01*
X-72621380Y197992595D01*
X-72526142Y197944976D01*
X-72288047Y197944976D01*
X-72192809Y197992595D01*
X-72145190Y198040214D01*
X-72097571Y198135452D01*
X-72097571Y198325928D01*
X-72145190Y198421166D01*
X-72192809Y198468785D01*
X-72288047Y198516404D01*
%TO.C,D18*%
X-69429285Y202895619D02*
X-69429285Y203895619D01*
X-69191190Y203895619D01*
X-69048333Y203848000D01*
X-68953095Y203752761D01*
X-68905476Y203657523D01*
X-68857857Y203467047D01*
X-68857857Y203324190D01*
X-68905476Y203133714D01*
X-68953095Y203038476D01*
X-69048333Y202943238D01*
X-69191190Y202895619D01*
X-69429285Y202895619D01*
X-67905476Y202895619D02*
X-68476904Y202895619D01*
X-68191190Y202895619D02*
X-68191190Y203895619D01*
X-68286428Y203752761D01*
X-68381666Y203657523D01*
X-68476904Y203609904D01*
X-67334047Y203467047D02*
X-67429285Y203514666D01*
X-67476904Y203562285D01*
X-67524523Y203657523D01*
X-67524523Y203705142D01*
X-67476904Y203800380D01*
X-67429285Y203848000D01*
X-67334047Y203895619D01*
X-67143571Y203895619D01*
X-67048333Y203848000D01*
X-67000714Y203800380D01*
X-66953095Y203705142D01*
X-66953095Y203657523D01*
X-67000714Y203562285D01*
X-67048333Y203514666D01*
X-67143571Y203467047D01*
X-67334047Y203467047D01*
X-67429285Y203419428D01*
X-67476904Y203371809D01*
X-67524523Y203276571D01*
X-67524523Y203086095D01*
X-67476904Y202990857D01*
X-67429285Y202943238D01*
X-67334047Y202895619D01*
X-67143571Y202895619D01*
X-67048333Y202943238D01*
X-67000714Y202990857D01*
X-66953095Y203086095D01*
X-66953095Y203276571D01*
X-67000714Y203371809D01*
X-67048333Y203419428D01*
X-67143571Y203467047D01*
%TO.C,R21*%
X-25962857Y203255619D02*
X-26296190Y203731809D01*
X-26534285Y203255619D02*
X-26534285Y204255619D01*
X-26153333Y204255619D01*
X-26058095Y204208000D01*
X-26010476Y204160380D01*
X-25962857Y204065142D01*
X-25962857Y203922285D01*
X-26010476Y203827047D01*
X-26058095Y203779428D01*
X-26153333Y203731809D01*
X-26534285Y203731809D01*
X-25581904Y204160380D02*
X-25534285Y204208000D01*
X-25439047Y204255619D01*
X-25200952Y204255619D01*
X-25105714Y204208000D01*
X-25058095Y204160380D01*
X-25010476Y204065142D01*
X-25010476Y203969904D01*
X-25058095Y203827047D01*
X-25629523Y203255619D01*
X-25010476Y203255619D01*
X-24058095Y203255619D02*
X-24629523Y203255619D01*
X-24343809Y203255619D02*
X-24343809Y204255619D01*
X-24439047Y204112761D01*
X-24534285Y204017523D01*
X-24629523Y203969904D01*
%TO.C,R26*%
X-27581619Y205200642D02*
X-28057809Y204867309D01*
X-27581619Y204629214D02*
X-28581619Y204629214D01*
X-28581619Y205010166D01*
X-28534000Y205105404D01*
X-28486380Y205153023D01*
X-28391142Y205200642D01*
X-28248285Y205200642D01*
X-28153047Y205153023D01*
X-28105428Y205105404D01*
X-28057809Y205010166D01*
X-28057809Y204629214D01*
X-28486380Y205581595D02*
X-28534000Y205629214D01*
X-28581619Y205724452D01*
X-28581619Y205962547D01*
X-28534000Y206057785D01*
X-28486380Y206105404D01*
X-28391142Y206153023D01*
X-28295904Y206153023D01*
X-28153047Y206105404D01*
X-27581619Y205533976D01*
X-27581619Y206153023D01*
X-28581619Y207010166D02*
X-28581619Y206819690D01*
X-28534000Y206724452D01*
X-28486380Y206676833D01*
X-28343523Y206581595D01*
X-28153047Y206533976D01*
X-27772095Y206533976D01*
X-27676857Y206581595D01*
X-27629238Y206629214D01*
X-27581619Y206724452D01*
X-27581619Y206914928D01*
X-27629238Y207010166D01*
X-27676857Y207057785D01*
X-27772095Y207105404D01*
X-28010190Y207105404D01*
X-28105428Y207057785D01*
X-28153047Y207010166D01*
X-28200666Y206914928D01*
X-28200666Y206724452D01*
X-28153047Y206629214D01*
X-28105428Y206581595D01*
X-28010190Y206533976D01*
%TO.C,R23*%
X-25803619Y197754642D02*
X-26279809Y197421309D01*
X-25803619Y197183214D02*
X-26803619Y197183214D01*
X-26803619Y197564166D01*
X-26756000Y197659404D01*
X-26708380Y197707023D01*
X-26613142Y197754642D01*
X-26470285Y197754642D01*
X-26375047Y197707023D01*
X-26327428Y197659404D01*
X-26279809Y197564166D01*
X-26279809Y197183214D01*
X-26708380Y198135595D02*
X-26756000Y198183214D01*
X-26803619Y198278452D01*
X-26803619Y198516547D01*
X-26756000Y198611785D01*
X-26708380Y198659404D01*
X-26613142Y198707023D01*
X-26517904Y198707023D01*
X-26375047Y198659404D01*
X-25803619Y198087976D01*
X-25803619Y198707023D01*
X-26803619Y199040357D02*
X-26803619Y199659404D01*
X-26422666Y199326071D01*
X-26422666Y199468928D01*
X-26375047Y199564166D01*
X-26327428Y199611785D01*
X-26232190Y199659404D01*
X-25994095Y199659404D01*
X-25898857Y199611785D01*
X-25851238Y199564166D01*
X-25803619Y199468928D01*
X-25803619Y199183214D01*
X-25851238Y199087976D01*
X-25898857Y199040357D01*
%TO.C,R30*%
X-37995619Y196691642D02*
X-38471809Y196358309D01*
X-37995619Y196120214D02*
X-38995619Y196120214D01*
X-38995619Y196501166D01*
X-38948000Y196596404D01*
X-38900380Y196644023D01*
X-38805142Y196691642D01*
X-38662285Y196691642D01*
X-38567047Y196644023D01*
X-38519428Y196596404D01*
X-38471809Y196501166D01*
X-38471809Y196120214D01*
X-38995619Y197024976D02*
X-38995619Y197644023D01*
X-38614666Y197310690D01*
X-38614666Y197453547D01*
X-38567047Y197548785D01*
X-38519428Y197596404D01*
X-38424190Y197644023D01*
X-38186095Y197644023D01*
X-38090857Y197596404D01*
X-38043238Y197548785D01*
X-37995619Y197453547D01*
X-37995619Y197167833D01*
X-38043238Y197072595D01*
X-38090857Y197024976D01*
X-38995619Y198263071D02*
X-38995619Y198358309D01*
X-38948000Y198453547D01*
X-38900380Y198501166D01*
X-38805142Y198548785D01*
X-38614666Y198596404D01*
X-38376571Y198596404D01*
X-38186095Y198548785D01*
X-38090857Y198501166D01*
X-38043238Y198453547D01*
X-37995619Y198358309D01*
X-37995619Y198263071D01*
X-38043238Y198167833D01*
X-38090857Y198120214D01*
X-38186095Y198072595D01*
X-38376571Y198024976D01*
X-38614666Y198024976D01*
X-38805142Y198072595D01*
X-38900380Y198120214D01*
X-38948000Y198167833D01*
X-38995619Y198263071D01*
%TO.C,D8*%
X-12803095Y193857619D02*
X-12803095Y194857619D01*
X-12565000Y194857619D01*
X-12422142Y194810000D01*
X-12326904Y194714761D01*
X-12279285Y194619523D01*
X-12231666Y194429047D01*
X-12231666Y194286190D01*
X-12279285Y194095714D01*
X-12326904Y194000476D01*
X-12422142Y193905238D01*
X-12565000Y193857619D01*
X-12803095Y193857619D01*
X-11660238Y194429047D02*
X-11755476Y194476666D01*
X-11803095Y194524285D01*
X-11850714Y194619523D01*
X-11850714Y194667142D01*
X-11803095Y194762380D01*
X-11755476Y194810000D01*
X-11660238Y194857619D01*
X-11469761Y194857619D01*
X-11374523Y194810000D01*
X-11326904Y194762380D01*
X-11279285Y194667142D01*
X-11279285Y194619523D01*
X-11326904Y194524285D01*
X-11374523Y194476666D01*
X-11469761Y194429047D01*
X-11660238Y194429047D01*
X-11755476Y194381428D01*
X-11803095Y194333809D01*
X-11850714Y194238571D01*
X-11850714Y194048095D01*
X-11803095Y193952857D01*
X-11755476Y193905238D01*
X-11660238Y193857619D01*
X-11469761Y193857619D01*
X-11374523Y193905238D01*
X-11326904Y193952857D01*
X-11279285Y194048095D01*
X-11279285Y194238571D01*
X-11326904Y194333809D01*
X-11374523Y194381428D01*
X-11469761Y194429047D01*
%TO.C,D11*%
X-23693285Y211510619D02*
X-23693285Y212510619D01*
X-23455190Y212510619D01*
X-23312333Y212463000D01*
X-23217095Y212367761D01*
X-23169476Y212272523D01*
X-23121857Y212082047D01*
X-23121857Y211939190D01*
X-23169476Y211748714D01*
X-23217095Y211653476D01*
X-23312333Y211558238D01*
X-23455190Y211510619D01*
X-23693285Y211510619D01*
X-22169476Y211510619D02*
X-22740904Y211510619D01*
X-22455190Y211510619D02*
X-22455190Y212510619D01*
X-22550428Y212367761D01*
X-22645666Y212272523D01*
X-22740904Y212224904D01*
X-21217095Y211510619D02*
X-21788523Y211510619D01*
X-21502809Y211510619D02*
X-21502809Y212510619D01*
X-21598047Y212367761D01*
X-21693285Y212272523D01*
X-21788523Y212224904D01*
%TO.C,D10*%
X-25074285Y198770619D02*
X-25074285Y199770619D01*
X-24836190Y199770619D01*
X-24693333Y199723000D01*
X-24598095Y199627761D01*
X-24550476Y199532523D01*
X-24502857Y199342047D01*
X-24502857Y199199190D01*
X-24550476Y199008714D01*
X-24598095Y198913476D01*
X-24693333Y198818238D01*
X-24836190Y198770619D01*
X-25074285Y198770619D01*
X-23550476Y198770619D02*
X-24121904Y198770619D01*
X-23836190Y198770619D02*
X-23836190Y199770619D01*
X-23931428Y199627761D01*
X-24026666Y199532523D01*
X-24121904Y199484904D01*
X-22931428Y199770619D02*
X-22836190Y199770619D01*
X-22740952Y199723000D01*
X-22693333Y199675380D01*
X-22645714Y199580142D01*
X-22598095Y199389666D01*
X-22598095Y199151571D01*
X-22645714Y198961095D01*
X-22693333Y198865857D01*
X-22740952Y198818238D01*
X-22836190Y198770619D01*
X-22931428Y198770619D01*
X-23026666Y198818238D01*
X-23074285Y198865857D01*
X-23121904Y198961095D01*
X-23169523Y199151571D01*
X-23169523Y199389666D01*
X-23121904Y199580142D01*
X-23074285Y199675380D01*
X-23026666Y199723000D01*
X-22931428Y199770619D01*
%TO.C,R38*%
X-58760119Y196357642D02*
X-59236309Y196024309D01*
X-58760119Y195786214D02*
X-59760119Y195786214D01*
X-59760119Y196167166D01*
X-59712500Y196262404D01*
X-59664880Y196310023D01*
X-59569642Y196357642D01*
X-59426785Y196357642D01*
X-59331547Y196310023D01*
X-59283928Y196262404D01*
X-59236309Y196167166D01*
X-59236309Y195786214D01*
X-59760119Y196690976D02*
X-59760119Y197310023D01*
X-59379166Y196976690D01*
X-59379166Y197119547D01*
X-59331547Y197214785D01*
X-59283928Y197262404D01*
X-59188690Y197310023D01*
X-58950595Y197310023D01*
X-58855357Y197262404D01*
X-58807738Y197214785D01*
X-58760119Y197119547D01*
X-58760119Y196833833D01*
X-58807738Y196738595D01*
X-58855357Y196690976D01*
X-59331547Y197881452D02*
X-59379166Y197786214D01*
X-59426785Y197738595D01*
X-59522023Y197690976D01*
X-59569642Y197690976D01*
X-59664880Y197738595D01*
X-59712500Y197786214D01*
X-59760119Y197881452D01*
X-59760119Y198071928D01*
X-59712500Y198167166D01*
X-59664880Y198214785D01*
X-59569642Y198262404D01*
X-59522023Y198262404D01*
X-59426785Y198214785D01*
X-59379166Y198167166D01*
X-59331547Y198071928D01*
X-59331547Y197881452D01*
X-59283928Y197786214D01*
X-59236309Y197738595D01*
X-59141071Y197690976D01*
X-58950595Y197690976D01*
X-58855357Y197738595D01*
X-58807738Y197786214D01*
X-58760119Y197881452D01*
X-58760119Y198071928D01*
X-58807738Y198167166D01*
X-58855357Y198214785D01*
X-58950595Y198262404D01*
X-59141071Y198262404D01*
X-59236309Y198214785D01*
X-59283928Y198167166D01*
X-59331547Y198071928D01*
%TO.C,U8*%
X-58336904Y200157619D02*
X-58336904Y199348095D01*
X-58289285Y199252857D01*
X-58241666Y199205238D01*
X-58146428Y199157619D01*
X-57955952Y199157619D01*
X-57860714Y199205238D01*
X-57813095Y199252857D01*
X-57765476Y199348095D01*
X-57765476Y200157619D01*
X-57146428Y199729047D02*
X-57241666Y199776666D01*
X-57289285Y199824285D01*
X-57336904Y199919523D01*
X-57336904Y199967142D01*
X-57289285Y200062380D01*
X-57241666Y200110000D01*
X-57146428Y200157619D01*
X-56955952Y200157619D01*
X-56860714Y200110000D01*
X-56813095Y200062380D01*
X-56765476Y199967142D01*
X-56765476Y199919523D01*
X-56813095Y199824285D01*
X-56860714Y199776666D01*
X-56955952Y199729047D01*
X-57146428Y199729047D01*
X-57241666Y199681428D01*
X-57289285Y199633809D01*
X-57336904Y199538571D01*
X-57336904Y199348095D01*
X-57289285Y199252857D01*
X-57241666Y199205238D01*
X-57146428Y199157619D01*
X-56955952Y199157619D01*
X-56860714Y199205238D01*
X-56813095Y199252857D01*
X-56765476Y199348095D01*
X-56765476Y199538571D01*
X-56813095Y199633809D01*
X-56860714Y199681428D01*
X-56955952Y199729047D01*
%TO.C,U6*%
X-18751904Y200157619D02*
X-18751904Y199348095D01*
X-18704285Y199252857D01*
X-18656666Y199205238D01*
X-18561428Y199157619D01*
X-18370952Y199157619D01*
X-18275714Y199205238D01*
X-18228095Y199252857D01*
X-18180476Y199348095D01*
X-18180476Y200157619D01*
X-17275714Y200157619D02*
X-17466190Y200157619D01*
X-17561428Y200110000D01*
X-17609047Y200062380D01*
X-17704285Y199919523D01*
X-17751904Y199729047D01*
X-17751904Y199348095D01*
X-17704285Y199252857D01*
X-17656666Y199205238D01*
X-17561428Y199157619D01*
X-17370952Y199157619D01*
X-17275714Y199205238D01*
X-17228095Y199252857D01*
X-17180476Y199348095D01*
X-17180476Y199586190D01*
X-17228095Y199681428D01*
X-17275714Y199729047D01*
X-17370952Y199776666D01*
X-17561428Y199776666D01*
X-17656666Y199729047D01*
X-17704285Y199681428D01*
X-17751904Y199586190D01*
%TO.C,D9*%
X-15740095Y212018619D02*
X-15740095Y213018619D01*
X-15502000Y213018619D01*
X-15359142Y212971000D01*
X-15263904Y212875761D01*
X-15216285Y212780523D01*
X-15168666Y212590047D01*
X-15168666Y212447190D01*
X-15216285Y212256714D01*
X-15263904Y212161476D01*
X-15359142Y212066238D01*
X-15502000Y212018619D01*
X-15740095Y212018619D01*
X-14692476Y212018619D02*
X-14502000Y212018619D01*
X-14406761Y212066238D01*
X-14359142Y212113857D01*
X-14263904Y212256714D01*
X-14216285Y212447190D01*
X-14216285Y212828142D01*
X-14263904Y212923380D01*
X-14311523Y212971000D01*
X-14406761Y213018619D01*
X-14597238Y213018619D01*
X-14692476Y212971000D01*
X-14740095Y212923380D01*
X-14787714Y212828142D01*
X-14787714Y212590047D01*
X-14740095Y212494809D01*
X-14692476Y212447190D01*
X-14597238Y212399571D01*
X-14406761Y212399571D01*
X-14311523Y212447190D01*
X-14263904Y212494809D01*
X-14216285Y212590047D01*
%TO.C,D14*%
X-44394285Y198582619D02*
X-44394285Y199582619D01*
X-44156190Y199582619D01*
X-44013333Y199535000D01*
X-43918095Y199439761D01*
X-43870476Y199344523D01*
X-43822857Y199154047D01*
X-43822857Y199011190D01*
X-43870476Y198820714D01*
X-43918095Y198725476D01*
X-44013333Y198630238D01*
X-44156190Y198582619D01*
X-44394285Y198582619D01*
X-42870476Y198582619D02*
X-43441904Y198582619D01*
X-43156190Y198582619D02*
X-43156190Y199582619D01*
X-43251428Y199439761D01*
X-43346666Y199344523D01*
X-43441904Y199296904D01*
X-42013333Y199249285D02*
X-42013333Y198582619D01*
X-42251428Y199630238D02*
X-42489523Y198915952D01*
X-41870476Y198915952D01*
%TO.C,R20*%
X-12025857Y199318619D02*
X-12359190Y199794809D01*
X-12597285Y199318619D02*
X-12597285Y200318619D01*
X-12216333Y200318619D01*
X-12121095Y200271000D01*
X-12073476Y200223380D01*
X-12025857Y200128142D01*
X-12025857Y199985285D01*
X-12073476Y199890047D01*
X-12121095Y199842428D01*
X-12216333Y199794809D01*
X-12597285Y199794809D01*
X-11644904Y200223380D02*
X-11597285Y200271000D01*
X-11502047Y200318619D01*
X-11263952Y200318619D01*
X-11168714Y200271000D01*
X-11121095Y200223380D01*
X-11073476Y200128142D01*
X-11073476Y200032904D01*
X-11121095Y199890047D01*
X-11692523Y199318619D01*
X-11073476Y199318619D01*
X-10454428Y200318619D02*
X-10359190Y200318619D01*
X-10263952Y200271000D01*
X-10216333Y200223380D01*
X-10168714Y200128142D01*
X-10121095Y199937666D01*
X-10121095Y199699571D01*
X-10168714Y199509095D01*
X-10216333Y199413857D01*
X-10263952Y199366238D01*
X-10359190Y199318619D01*
X-10454428Y199318619D01*
X-10549666Y199366238D01*
X-10597285Y199413857D01*
X-10644904Y199509095D01*
X-10692523Y199699571D01*
X-10692523Y199937666D01*
X-10644904Y200128142D01*
X-10597285Y200223380D01*
X-10549666Y200271000D01*
X-10454428Y200318619D01*
%TO.C,R31*%
X-47807619Y197707642D02*
X-48283809Y197374309D01*
X-47807619Y197136214D02*
X-48807619Y197136214D01*
X-48807619Y197517166D01*
X-48760000Y197612404D01*
X-48712380Y197660023D01*
X-48617142Y197707642D01*
X-48474285Y197707642D01*
X-48379047Y197660023D01*
X-48331428Y197612404D01*
X-48283809Y197517166D01*
X-48283809Y197136214D01*
X-48807619Y198040976D02*
X-48807619Y198660023D01*
X-48426666Y198326690D01*
X-48426666Y198469547D01*
X-48379047Y198564785D01*
X-48331428Y198612404D01*
X-48236190Y198660023D01*
X-47998095Y198660023D01*
X-47902857Y198612404D01*
X-47855238Y198564785D01*
X-47807619Y198469547D01*
X-47807619Y198183833D01*
X-47855238Y198088595D01*
X-47902857Y198040976D01*
X-47807619Y199612404D02*
X-47807619Y199040976D01*
X-47807619Y199326690D02*
X-48807619Y199326690D01*
X-48664761Y199231452D01*
X-48569523Y199136214D01*
X-48521904Y199040976D01*
%TO.C,R35*%
X-55775619Y196357642D02*
X-56251809Y196024309D01*
X-55775619Y195786214D02*
X-56775619Y195786214D01*
X-56775619Y196167166D01*
X-56728000Y196262404D01*
X-56680380Y196310023D01*
X-56585142Y196357642D01*
X-56442285Y196357642D01*
X-56347047Y196310023D01*
X-56299428Y196262404D01*
X-56251809Y196167166D01*
X-56251809Y195786214D01*
X-56775619Y196690976D02*
X-56775619Y197310023D01*
X-56394666Y196976690D01*
X-56394666Y197119547D01*
X-56347047Y197214785D01*
X-56299428Y197262404D01*
X-56204190Y197310023D01*
X-55966095Y197310023D01*
X-55870857Y197262404D01*
X-55823238Y197214785D01*
X-55775619Y197119547D01*
X-55775619Y196833833D01*
X-55823238Y196738595D01*
X-55870857Y196690976D01*
X-56775619Y198214785D02*
X-56775619Y197738595D01*
X-56299428Y197690976D01*
X-56347047Y197738595D01*
X-56394666Y197833833D01*
X-56394666Y198071928D01*
X-56347047Y198167166D01*
X-56299428Y198214785D01*
X-56204190Y198262404D01*
X-55966095Y198262404D01*
X-55870857Y198214785D01*
X-55823238Y198167166D01*
X-55775619Y198071928D01*
X-55775619Y197833833D01*
X-55823238Y197738595D01*
X-55870857Y197690976D01*
%TO.C,R22*%
X-20883619Y195675642D02*
X-21359809Y195342309D01*
X-20883619Y195104214D02*
X-21883619Y195104214D01*
X-21883619Y195485166D01*
X-21836000Y195580404D01*
X-21788380Y195628023D01*
X-21693142Y195675642D01*
X-21550285Y195675642D01*
X-21455047Y195628023D01*
X-21407428Y195580404D01*
X-21359809Y195485166D01*
X-21359809Y195104214D01*
X-21788380Y196056595D02*
X-21836000Y196104214D01*
X-21883619Y196199452D01*
X-21883619Y196437547D01*
X-21836000Y196532785D01*
X-21788380Y196580404D01*
X-21693142Y196628023D01*
X-21597904Y196628023D01*
X-21455047Y196580404D01*
X-20883619Y196008976D01*
X-20883619Y196628023D01*
X-21788380Y197008976D02*
X-21836000Y197056595D01*
X-21883619Y197151833D01*
X-21883619Y197389928D01*
X-21836000Y197485166D01*
X-21788380Y197532785D01*
X-21693142Y197580404D01*
X-21597904Y197580404D01*
X-21455047Y197532785D01*
X-20883619Y196961357D01*
X-20883619Y197580404D01*
%TO.C,R32*%
X-40163357Y206524619D02*
X-40496690Y207000809D01*
X-40734785Y206524619D02*
X-40734785Y207524619D01*
X-40353833Y207524619D01*
X-40258595Y207477000D01*
X-40210976Y207429380D01*
X-40163357Y207334142D01*
X-40163357Y207191285D01*
X-40210976Y207096047D01*
X-40258595Y207048428D01*
X-40353833Y207000809D01*
X-40734785Y207000809D01*
X-39830023Y207524619D02*
X-39210976Y207524619D01*
X-39544309Y207143666D01*
X-39401452Y207143666D01*
X-39306214Y207096047D01*
X-39258595Y207048428D01*
X-39210976Y206953190D01*
X-39210976Y206715095D01*
X-39258595Y206619857D01*
X-39306214Y206572238D01*
X-39401452Y206524619D01*
X-39687166Y206524619D01*
X-39782404Y206572238D01*
X-39830023Y206619857D01*
X-38830023Y207429380D02*
X-38782404Y207477000D01*
X-38687166Y207524619D01*
X-38449071Y207524619D01*
X-38353833Y207477000D01*
X-38306214Y207429380D01*
X-38258595Y207334142D01*
X-38258595Y207238904D01*
X-38306214Y207096047D01*
X-38877642Y206524619D01*
X-38258595Y206524619D01*
%TO.C,R19*%
X-14881619Y195929642D02*
X-15357809Y195596309D01*
X-14881619Y195358214D02*
X-15881619Y195358214D01*
X-15881619Y195739166D01*
X-15834000Y195834404D01*
X-15786380Y195882023D01*
X-15691142Y195929642D01*
X-15548285Y195929642D01*
X-15453047Y195882023D01*
X-15405428Y195834404D01*
X-15357809Y195739166D01*
X-15357809Y195358214D01*
X-14881619Y196882023D02*
X-14881619Y196310595D01*
X-14881619Y196596309D02*
X-15881619Y196596309D01*
X-15738761Y196501071D01*
X-15643523Y196405833D01*
X-15595904Y196310595D01*
X-14881619Y197358214D02*
X-14881619Y197548690D01*
X-14929238Y197643928D01*
X-14976857Y197691547D01*
X-15119714Y197786785D01*
X-15310190Y197834404D01*
X-15691142Y197834404D01*
X-15786380Y197786785D01*
X-15834000Y197739166D01*
X-15881619Y197643928D01*
X-15881619Y197453452D01*
X-15834000Y197358214D01*
X-15786380Y197310595D01*
X-15691142Y197262976D01*
X-15453047Y197262976D01*
X-15357809Y197310595D01*
X-15310190Y197358214D01*
X-15262571Y197453452D01*
X-15262571Y197643928D01*
X-15310190Y197739166D01*
X-15357809Y197786785D01*
X-15453047Y197834404D01*
%TO.C,D16*%
X-52268285Y199532619D02*
X-52268285Y200532619D01*
X-52030190Y200532619D01*
X-51887333Y200485000D01*
X-51792095Y200389761D01*
X-51744476Y200294523D01*
X-51696857Y200104047D01*
X-51696857Y199961190D01*
X-51744476Y199770714D01*
X-51792095Y199675476D01*
X-51887333Y199580238D01*
X-52030190Y199532619D01*
X-52268285Y199532619D01*
X-50744476Y199532619D02*
X-51315904Y199532619D01*
X-51030190Y199532619D02*
X-51030190Y200532619D01*
X-51125428Y200389761D01*
X-51220666Y200294523D01*
X-51315904Y200246904D01*
X-49887333Y200532619D02*
X-50077809Y200532619D01*
X-50173047Y200485000D01*
X-50220666Y200437380D01*
X-50315904Y200294523D01*
X-50363523Y200104047D01*
X-50363523Y199723095D01*
X-50315904Y199627857D01*
X-50268285Y199580238D01*
X-50173047Y199532619D01*
X-49982571Y199532619D01*
X-49887333Y199580238D01*
X-49839714Y199627857D01*
X-49792095Y199723095D01*
X-49792095Y199961190D01*
X-49839714Y200056428D01*
X-49887333Y200104047D01*
X-49982571Y200151666D01*
X-50173047Y200151666D01*
X-50268285Y200104047D01*
X-50315904Y200056428D01*
X-50363523Y199961190D01*
%TO.C,R33*%
X-50109357Y207764119D02*
X-50442690Y208240309D01*
X-50680785Y207764119D02*
X-50680785Y208764119D01*
X-50299833Y208764119D01*
X-50204595Y208716500D01*
X-50156976Y208668880D01*
X-50109357Y208573642D01*
X-50109357Y208430785D01*
X-50156976Y208335547D01*
X-50204595Y208287928D01*
X-50299833Y208240309D01*
X-50680785Y208240309D01*
X-49776023Y208764119D02*
X-49156976Y208764119D01*
X-49490309Y208383166D01*
X-49347452Y208383166D01*
X-49252214Y208335547D01*
X-49204595Y208287928D01*
X-49156976Y208192690D01*
X-49156976Y207954595D01*
X-49204595Y207859357D01*
X-49252214Y207811738D01*
X-49347452Y207764119D01*
X-49633166Y207764119D01*
X-49728404Y207811738D01*
X-49776023Y207859357D01*
X-48823642Y208764119D02*
X-48204595Y208764119D01*
X-48537928Y208383166D01*
X-48395071Y208383166D01*
X-48299833Y208335547D01*
X-48252214Y208287928D01*
X-48204595Y208192690D01*
X-48204595Y207954595D01*
X-48252214Y207859357D01*
X-48299833Y207811738D01*
X-48395071Y207764119D01*
X-48680785Y207764119D01*
X-48776023Y207811738D01*
X-48823642Y207859357D01*
%TO.C,R34*%
X-46631619Y204993642D02*
X-47107809Y204660309D01*
X-46631619Y204422214D02*
X-47631619Y204422214D01*
X-47631619Y204803166D01*
X-47584000Y204898404D01*
X-47536380Y204946023D01*
X-47441142Y204993642D01*
X-47298285Y204993642D01*
X-47203047Y204946023D01*
X-47155428Y204898404D01*
X-47107809Y204803166D01*
X-47107809Y204422214D01*
X-47631619Y205326976D02*
X-47631619Y205946023D01*
X-47250666Y205612690D01*
X-47250666Y205755547D01*
X-47203047Y205850785D01*
X-47155428Y205898404D01*
X-47060190Y205946023D01*
X-46822095Y205946023D01*
X-46726857Y205898404D01*
X-46679238Y205850785D01*
X-46631619Y205755547D01*
X-46631619Y205469833D01*
X-46679238Y205374595D01*
X-46726857Y205326976D01*
X-47298285Y206803166D02*
X-46631619Y206803166D01*
X-47679238Y206565071D02*
X-46964952Y206326976D01*
X-46964952Y206946023D01*
%TO.C,R27*%
X-34947619Y196691642D02*
X-35423809Y196358309D01*
X-34947619Y196120214D02*
X-35947619Y196120214D01*
X-35947619Y196501166D01*
X-35900000Y196596404D01*
X-35852380Y196644023D01*
X-35757142Y196691642D01*
X-35614285Y196691642D01*
X-35519047Y196644023D01*
X-35471428Y196596404D01*
X-35423809Y196501166D01*
X-35423809Y196120214D01*
X-35852380Y197072595D02*
X-35900000Y197120214D01*
X-35947619Y197215452D01*
X-35947619Y197453547D01*
X-35900000Y197548785D01*
X-35852380Y197596404D01*
X-35757142Y197644023D01*
X-35661904Y197644023D01*
X-35519047Y197596404D01*
X-34947619Y197024976D01*
X-34947619Y197644023D01*
X-35947619Y197977357D02*
X-35947619Y198644023D01*
X-34947619Y198215452D01*
%TO.C,R25*%
X-31122857Y207145619D02*
X-31456190Y207621809D01*
X-31694285Y207145619D02*
X-31694285Y208145619D01*
X-31313333Y208145619D01*
X-31218095Y208098000D01*
X-31170476Y208050380D01*
X-31122857Y207955142D01*
X-31122857Y207812285D01*
X-31170476Y207717047D01*
X-31218095Y207669428D01*
X-31313333Y207621809D01*
X-31694285Y207621809D01*
X-30741904Y208050380D02*
X-30694285Y208098000D01*
X-30599047Y208145619D01*
X-30360952Y208145619D01*
X-30265714Y208098000D01*
X-30218095Y208050380D01*
X-30170476Y207955142D01*
X-30170476Y207859904D01*
X-30218095Y207717047D01*
X-30789523Y207145619D01*
X-30170476Y207145619D01*
X-29265714Y208145619D02*
X-29741904Y208145619D01*
X-29789523Y207669428D01*
X-29741904Y207717047D01*
X-29646666Y207764666D01*
X-29408571Y207764666D01*
X-29313333Y207717047D01*
X-29265714Y207669428D01*
X-29218095Y207574190D01*
X-29218095Y207336095D01*
X-29265714Y207240857D01*
X-29313333Y207193238D01*
X-29408571Y207145619D01*
X-29646666Y207145619D01*
X-29741904Y207193238D01*
X-29789523Y207240857D01*
%TO.C,R24*%
X-19843357Y206524619D02*
X-20176690Y207000809D01*
X-20414785Y206524619D02*
X-20414785Y207524619D01*
X-20033833Y207524619D01*
X-19938595Y207477000D01*
X-19890976Y207429380D01*
X-19843357Y207334142D01*
X-19843357Y207191285D01*
X-19890976Y207096047D01*
X-19938595Y207048428D01*
X-20033833Y207000809D01*
X-20414785Y207000809D01*
X-19462404Y207429380D02*
X-19414785Y207477000D01*
X-19319547Y207524619D01*
X-19081452Y207524619D01*
X-18986214Y207477000D01*
X-18938595Y207429380D01*
X-18890976Y207334142D01*
X-18890976Y207238904D01*
X-18938595Y207096047D01*
X-19510023Y206524619D01*
X-18890976Y206524619D01*
X-18033833Y207191285D02*
X-18033833Y206524619D01*
X-18271928Y207572238D02*
X-18510023Y206857952D01*
X-17890976Y206857952D01*
%TO.C,R29*%
X-45243357Y206082619D02*
X-45576690Y206558809D01*
X-45814785Y206082619D02*
X-45814785Y207082619D01*
X-45433833Y207082619D01*
X-45338595Y207035000D01*
X-45290976Y206987380D01*
X-45243357Y206892142D01*
X-45243357Y206749285D01*
X-45290976Y206654047D01*
X-45338595Y206606428D01*
X-45433833Y206558809D01*
X-45814785Y206558809D01*
X-44862404Y206987380D02*
X-44814785Y207035000D01*
X-44719547Y207082619D01*
X-44481452Y207082619D01*
X-44386214Y207035000D01*
X-44338595Y206987380D01*
X-44290976Y206892142D01*
X-44290976Y206796904D01*
X-44338595Y206654047D01*
X-44910023Y206082619D01*
X-44290976Y206082619D01*
X-43814785Y206082619D02*
X-43624309Y206082619D01*
X-43529071Y206130238D01*
X-43481452Y206177857D01*
X-43386214Y206320714D01*
X-43338595Y206511190D01*
X-43338595Y206892142D01*
X-43386214Y206987380D01*
X-43433833Y207035000D01*
X-43529071Y207082619D01*
X-43719547Y207082619D01*
X-43814785Y207035000D01*
X-43862404Y206987380D01*
X-43910023Y206892142D01*
X-43910023Y206654047D01*
X-43862404Y206558809D01*
X-43814785Y206511190D01*
X-43719547Y206463571D01*
X-43529071Y206463571D01*
X-43433833Y206511190D01*
X-43386214Y206558809D01*
X-43338595Y206654047D01*
%TO.C,R28*%
X-31169857Y202112619D02*
X-31503190Y202588809D01*
X-31741285Y202112619D02*
X-31741285Y203112619D01*
X-31360333Y203112619D01*
X-31265095Y203065000D01*
X-31217476Y203017380D01*
X-31169857Y202922142D01*
X-31169857Y202779285D01*
X-31217476Y202684047D01*
X-31265095Y202636428D01*
X-31360333Y202588809D01*
X-31741285Y202588809D01*
X-30788904Y203017380D02*
X-30741285Y203065000D01*
X-30646047Y203112619D01*
X-30407952Y203112619D01*
X-30312714Y203065000D01*
X-30265095Y203017380D01*
X-30217476Y202922142D01*
X-30217476Y202826904D01*
X-30265095Y202684047D01*
X-30836523Y202112619D01*
X-30217476Y202112619D01*
X-29646047Y202684047D02*
X-29741285Y202731666D01*
X-29788904Y202779285D01*
X-29836523Y202874523D01*
X-29836523Y202922142D01*
X-29788904Y203017380D01*
X-29741285Y203065000D01*
X-29646047Y203112619D01*
X-29455571Y203112619D01*
X-29360333Y203065000D01*
X-29312714Y203017380D01*
X-29265095Y202922142D01*
X-29265095Y202874523D01*
X-29312714Y202779285D01*
X-29360333Y202731666D01*
X-29455571Y202684047D01*
X-29646047Y202684047D01*
X-29741285Y202636428D01*
X-29788904Y202588809D01*
X-29836523Y202493571D01*
X-29836523Y202303095D01*
X-29788904Y202207857D01*
X-29741285Y202160238D01*
X-29646047Y202112619D01*
X-29455571Y202112619D01*
X-29360333Y202160238D01*
X-29312714Y202207857D01*
X-29265095Y202303095D01*
X-29265095Y202493571D01*
X-29312714Y202588809D01*
X-29360333Y202636428D01*
X-29455571Y202684047D01*
%TO.C,R37*%
X-65309357Y206082619D02*
X-65642690Y206558809D01*
X-65880785Y206082619D02*
X-65880785Y207082619D01*
X-65499833Y207082619D01*
X-65404595Y207035000D01*
X-65356976Y206987380D01*
X-65309357Y206892142D01*
X-65309357Y206749285D01*
X-65356976Y206654047D01*
X-65404595Y206606428D01*
X-65499833Y206558809D01*
X-65880785Y206558809D01*
X-64976023Y207082619D02*
X-64356976Y207082619D01*
X-64690309Y206701666D01*
X-64547452Y206701666D01*
X-64452214Y206654047D01*
X-64404595Y206606428D01*
X-64356976Y206511190D01*
X-64356976Y206273095D01*
X-64404595Y206177857D01*
X-64452214Y206130238D01*
X-64547452Y206082619D01*
X-64833166Y206082619D01*
X-64928404Y206130238D01*
X-64976023Y206177857D01*
X-64023642Y207082619D02*
X-63356976Y207082619D01*
X-63785547Y206082619D01*
%TO.C,R36*%
X-51696857Y202366619D02*
X-52030190Y202842809D01*
X-52268285Y202366619D02*
X-52268285Y203366619D01*
X-51887333Y203366619D01*
X-51792095Y203319000D01*
X-51744476Y203271380D01*
X-51696857Y203176142D01*
X-51696857Y203033285D01*
X-51744476Y202938047D01*
X-51792095Y202890428D01*
X-51887333Y202842809D01*
X-52268285Y202842809D01*
X-51363523Y203366619D02*
X-50744476Y203366619D01*
X-51077809Y202985666D01*
X-50934952Y202985666D01*
X-50839714Y202938047D01*
X-50792095Y202890428D01*
X-50744476Y202795190D01*
X-50744476Y202557095D01*
X-50792095Y202461857D01*
X-50839714Y202414238D01*
X-50934952Y202366619D01*
X-51220666Y202366619D01*
X-51315904Y202414238D01*
X-51363523Y202461857D01*
X-49887333Y203366619D02*
X-50077809Y203366619D01*
X-50173047Y203319000D01*
X-50220666Y203271380D01*
X-50315904Y203128523D01*
X-50363523Y202938047D01*
X-50363523Y202557095D01*
X-50315904Y202461857D01*
X-50268285Y202414238D01*
X-50173047Y202366619D01*
X-49982571Y202366619D01*
X-49887333Y202414238D01*
X-49839714Y202461857D01*
X-49792095Y202557095D01*
X-49792095Y202795190D01*
X-49839714Y202890428D01*
X-49887333Y202938047D01*
X-49982571Y202985666D01*
X-50173047Y202985666D01*
X-50268285Y202938047D01*
X-50315904Y202890428D01*
X-50363523Y202795190D01*
%TO.C,Conn5*%
X-73685250Y245027215D02*
X-73654722Y244996687D01*
X-73624194Y244905103D01*
X-73624194Y244844047D01*
X-73654722Y244752463D01*
X-73715778Y244691408D01*
X-73776834Y244660880D01*
X-73898946Y244630352D01*
X-73990529Y244630352D01*
X-74112641Y244660880D01*
X-74173697Y244691408D01*
X-74234753Y244752463D01*
X-74265281Y244844047D01*
X-74265281Y244905103D01*
X-74234753Y244996687D01*
X-74204225Y245027215D01*
X-73624194Y245393550D02*
X-73654722Y245332495D01*
X-73685250Y245301967D01*
X-73746306Y245271439D01*
X-73929473Y245271439D01*
X-73990529Y245301967D01*
X-74021057Y245332495D01*
X-74051585Y245393550D01*
X-74051585Y245485134D01*
X-74021057Y245546190D01*
X-73990529Y245576718D01*
X-73929473Y245607246D01*
X-73746306Y245607246D01*
X-73685250Y245576718D01*
X-73654722Y245546190D01*
X-73624194Y245485134D01*
X-73624194Y245393550D01*
X-74051585Y245881998D02*
X-73624194Y245881998D01*
X-73990529Y245881998D02*
X-74021057Y245912526D01*
X-74051585Y245973582D01*
X-74051585Y246065165D01*
X-74021057Y246126221D01*
X-73960001Y246156749D01*
X-73624194Y246156749D01*
X-74051585Y246462029D02*
X-73624194Y246462029D01*
X-73990529Y246462029D02*
X-74021057Y246492557D01*
X-74051585Y246553613D01*
X-74051585Y246645197D01*
X-74021057Y246706252D01*
X-73960001Y246736780D01*
X-73624194Y246736780D01*
X-74265281Y247347339D02*
X-74265281Y247042060D01*
X-73960001Y247011532D01*
X-73990529Y247042060D01*
X-74021057Y247103116D01*
X-74021057Y247255756D01*
X-73990529Y247316811D01*
X-73960001Y247347339D01*
X-73898946Y247377867D01*
X-73746306Y247377867D01*
X-73685250Y247347339D01*
X-73654722Y247316811D01*
X-73624194Y247255756D01*
X-73624194Y247103116D01*
X-73654722Y247042060D01*
X-73685250Y247011532D01*
%TO.C,U1*%
X-43052904Y216566619D02*
X-43052904Y215757095D01*
X-43005285Y215661857D01*
X-42957666Y215614238D01*
X-42862428Y215566619D01*
X-42671952Y215566619D01*
X-42576714Y215614238D01*
X-42529095Y215661857D01*
X-42481476Y215757095D01*
X-42481476Y216566619D01*
X-41481476Y215566619D02*
X-42052904Y215566619D01*
X-41767190Y215566619D02*
X-41767190Y216566619D01*
X-41862428Y216423761D01*
X-41957666Y216328523D01*
X-42052904Y216280904D01*
%TO.C,Conn2*%
X-44703809Y187602857D02*
X-44751428Y187555238D01*
X-44894285Y187507619D01*
X-44989523Y187507619D01*
X-45132380Y187555238D01*
X-45227619Y187650476D01*
X-45275238Y187745714D01*
X-45322857Y187936190D01*
X-45322857Y188079047D01*
X-45275238Y188269523D01*
X-45227619Y188364761D01*
X-45132380Y188460000D01*
X-44989523Y188507619D01*
X-44894285Y188507619D01*
X-44751428Y188460000D01*
X-44703809Y188412380D01*
X-44132380Y187507619D02*
X-44227619Y187555238D01*
X-44275238Y187602857D01*
X-44322857Y187698095D01*
X-44322857Y187983809D01*
X-44275238Y188079047D01*
X-44227619Y188126666D01*
X-44132380Y188174285D01*
X-43989523Y188174285D01*
X-43894285Y188126666D01*
X-43846666Y188079047D01*
X-43799047Y187983809D01*
X-43799047Y187698095D01*
X-43846666Y187602857D01*
X-43894285Y187555238D01*
X-43989523Y187507619D01*
X-44132380Y187507619D01*
X-43370476Y188174285D02*
X-43370476Y187507619D01*
X-43370476Y188079047D02*
X-43322857Y188126666D01*
X-43227619Y188174285D01*
X-43084761Y188174285D01*
X-42989523Y188126666D01*
X-42941904Y188031428D01*
X-42941904Y187507619D01*
X-42465714Y188174285D02*
X-42465714Y187507619D01*
X-42465714Y188079047D02*
X-42418095Y188126666D01*
X-42322857Y188174285D01*
X-42180000Y188174285D01*
X-42084761Y188126666D01*
X-42037142Y188031428D01*
X-42037142Y187507619D01*
X-41608571Y188412380D02*
X-41560952Y188460000D01*
X-41465714Y188507619D01*
X-41227619Y188507619D01*
X-41132380Y188460000D01*
X-41084761Y188412380D01*
X-41037142Y188317142D01*
X-41037142Y188221904D01*
X-41084761Y188079047D01*
X-41656190Y187507619D01*
X-41037142Y187507619D01*
X-40258333Y187507619D02*
X-40258333Y188507619D01*
X-39924999Y187793333D01*
X-39591666Y188507619D01*
X-39591666Y187507619D01*
X-38972619Y187507619D02*
X-39067857Y187555238D01*
X-39115476Y187602857D01*
X-39163095Y187698095D01*
X-39163095Y187983809D01*
X-39115476Y188079047D01*
X-39067857Y188126666D01*
X-38972619Y188174285D01*
X-38829761Y188174285D01*
X-38734523Y188126666D01*
X-38686904Y188079047D01*
X-38639285Y187983809D01*
X-38639285Y187698095D01*
X-38686904Y187602857D01*
X-38734523Y187555238D01*
X-38829761Y187507619D01*
X-38972619Y187507619D01*
X-38067857Y187507619D02*
X-38163095Y187555238D01*
X-38210714Y187650476D01*
X-38210714Y188507619D01*
X-37305952Y187555238D02*
X-37401190Y187507619D01*
X-37591666Y187507619D01*
X-37686904Y187555238D01*
X-37734523Y187650476D01*
X-37734523Y188031428D01*
X-37686904Y188126666D01*
X-37591666Y188174285D01*
X-37401190Y188174285D01*
X-37305952Y188126666D01*
X-37258333Y188031428D01*
X-37258333Y187936190D01*
X-37734523Y187840952D01*
X-36925000Y187507619D02*
X-36401190Y188174285D01*
X-36925000Y188174285D02*
X-36401190Y187507619D01*
X-36258333Y187412380D02*
X-35496428Y187412380D01*
X-34829761Y188174285D02*
X-34829761Y187507619D01*
X-35258333Y188174285D02*
X-35258333Y187650476D01*
X-35210714Y187555238D01*
X-35115476Y187507619D01*
X-34972619Y187507619D01*
X-34877380Y187555238D01*
X-34829761Y187602857D01*
X-34020238Y188031428D02*
X-34353571Y188031428D01*
X-34353571Y187507619D02*
X-34353571Y188507619D01*
X-33877380Y188507619D01*
X-33734523Y187412380D02*
X-32972619Y187412380D01*
X-32782142Y187555238D02*
X-32639285Y187507619D01*
X-32401190Y187507619D01*
X-32305952Y187555238D01*
X-32258333Y187602857D01*
X-32210714Y187698095D01*
X-32210714Y187793333D01*
X-32258333Y187888571D01*
X-32305952Y187936190D01*
X-32401190Y187983809D01*
X-32591666Y188031428D01*
X-32686904Y188079047D01*
X-32734523Y188126666D01*
X-32782142Y188221904D01*
X-32782142Y188317142D01*
X-32734523Y188412380D01*
X-32686904Y188460000D01*
X-32591666Y188507619D01*
X-32353571Y188507619D01*
X-32210714Y188460000D01*
X-32020238Y187412380D02*
X-31258333Y187412380D01*
X-30829761Y188507619D02*
X-30734523Y188507619D01*
X-30639285Y188460000D01*
X-30591666Y188412380D01*
X-30544047Y188317142D01*
X-30496428Y188126666D01*
X-30496428Y187888571D01*
X-30544047Y187698095D01*
X-30591666Y187602857D01*
X-30639285Y187555238D01*
X-30734523Y187507619D01*
X-30829761Y187507619D01*
X-30924999Y187555238D01*
X-30972619Y187602857D01*
X-31020238Y187698095D01*
X-31067857Y187888571D01*
X-31067857Y188126666D01*
X-31020238Y188317142D01*
X-30972619Y188412380D01*
X-30924999Y188460000D01*
X-30829761Y188507619D01*
X-30020238Y187507619D02*
X-29829761Y187507619D01*
X-29734523Y187555238D01*
X-29686904Y187602857D01*
X-29591666Y187745714D01*
X-29544047Y187936190D01*
X-29544047Y188317142D01*
X-29591666Y188412380D01*
X-29639285Y188460000D01*
X-29734523Y188507619D01*
X-29925000Y188507619D01*
X-30020238Y188460000D01*
X-30067857Y188412380D01*
X-30115476Y188317142D01*
X-30115476Y188079047D01*
X-30067857Y187983809D01*
X-30020238Y187936190D01*
X-29925000Y187888571D01*
X-29734523Y187888571D01*
X-29639285Y187936190D01*
X-29591666Y187983809D01*
X-29544047Y188079047D01*
X-46990000Y190285619D02*
X-46990000Y190047523D01*
X-47228095Y190142761D02*
X-46990000Y190047523D01*
X-46751904Y190142761D01*
X-47132857Y189857047D02*
X-46990000Y190047523D01*
X-46847142Y189857047D01*
%TO.C,D20*%
X-58943619Y188031714D02*
X-59943619Y188031714D01*
X-59943619Y188269809D01*
X-59896000Y188412666D01*
X-59800761Y188507904D01*
X-59705523Y188555523D01*
X-59515047Y188603142D01*
X-59372190Y188603142D01*
X-59181714Y188555523D01*
X-59086476Y188507904D01*
X-58991238Y188412666D01*
X-58943619Y188269809D01*
X-58943619Y188031714D01*
X-59848380Y188984095D02*
X-59896000Y189031714D01*
X-59943619Y189126952D01*
X-59943619Y189365047D01*
X-59896000Y189460285D01*
X-59848380Y189507904D01*
X-59753142Y189555523D01*
X-59657904Y189555523D01*
X-59515047Y189507904D01*
X-58943619Y188936476D01*
X-58943619Y189555523D01*
X-59943619Y190174571D02*
X-59943619Y190269809D01*
X-59896000Y190365047D01*
X-59848380Y190412666D01*
X-59753142Y190460285D01*
X-59562666Y190507904D01*
X-59324571Y190507904D01*
X-59134095Y190460285D01*
X-59038857Y190412666D01*
X-58991238Y190365047D01*
X-58943619Y190269809D01*
X-58943619Y190174571D01*
X-58991238Y190079333D01*
X-59038857Y190031714D01*
X-59134095Y189984095D01*
X-59324571Y189936476D01*
X-59562666Y189936476D01*
X-59753142Y189984095D01*
X-59848380Y190031714D01*
X-59896000Y190079333D01*
X-59943619Y190174571D01*
%TO.C,D22*%
X-57094285Y180903619D02*
X-57094285Y181903619D01*
X-56856190Y181903619D01*
X-56713333Y181856000D01*
X-56618095Y181760761D01*
X-56570476Y181665523D01*
X-56522857Y181475047D01*
X-56522857Y181332190D01*
X-56570476Y181141714D01*
X-56618095Y181046476D01*
X-56713333Y180951238D01*
X-56856190Y180903619D01*
X-57094285Y180903619D01*
X-56141904Y181808380D02*
X-56094285Y181856000D01*
X-55999047Y181903619D01*
X-55760952Y181903619D01*
X-55665714Y181856000D01*
X-55618095Y181808380D01*
X-55570476Y181713142D01*
X-55570476Y181617904D01*
X-55618095Y181475047D01*
X-56189523Y180903619D01*
X-55570476Y180903619D01*
X-55189523Y181808380D02*
X-55141904Y181856000D01*
X-55046666Y181903619D01*
X-54808571Y181903619D01*
X-54713333Y181856000D01*
X-54665714Y181808380D01*
X-54618095Y181713142D01*
X-54618095Y181617904D01*
X-54665714Y181475047D01*
X-55237142Y180903619D01*
X-54618095Y180903619D01*
%TO.C,D21*%
X-73588619Y187888714D02*
X-74588619Y187888714D01*
X-74588619Y188126809D01*
X-74541000Y188269666D01*
X-74445761Y188364904D01*
X-74350523Y188412523D01*
X-74160047Y188460142D01*
X-74017190Y188460142D01*
X-73826714Y188412523D01*
X-73731476Y188364904D01*
X-73636238Y188269666D01*
X-73588619Y188126809D01*
X-73588619Y187888714D01*
X-74493380Y188841095D02*
X-74541000Y188888714D01*
X-74588619Y188983952D01*
X-74588619Y189222047D01*
X-74541000Y189317285D01*
X-74493380Y189364904D01*
X-74398142Y189412523D01*
X-74302904Y189412523D01*
X-74160047Y189364904D01*
X-73588619Y188793476D01*
X-73588619Y189412523D01*
X-73588619Y190364904D02*
X-73588619Y189793476D01*
X-73588619Y190079190D02*
X-74588619Y190079190D01*
X-74445761Y189983952D01*
X-74350523Y189888714D01*
X-74302904Y189793476D01*
%TO.C,D23*%
X-74874285Y180903619D02*
X-74874285Y181903619D01*
X-74636190Y181903619D01*
X-74493333Y181856000D01*
X-74398095Y181760761D01*
X-74350476Y181665523D01*
X-74302857Y181475047D01*
X-74302857Y181332190D01*
X-74350476Y181141714D01*
X-74398095Y181046476D01*
X-74493333Y180951238D01*
X-74636190Y180903619D01*
X-74874285Y180903619D01*
X-73921904Y181808380D02*
X-73874285Y181856000D01*
X-73779047Y181903619D01*
X-73540952Y181903619D01*
X-73445714Y181856000D01*
X-73398095Y181808380D01*
X-73350476Y181713142D01*
X-73350476Y181617904D01*
X-73398095Y181475047D01*
X-73969523Y180903619D01*
X-73350476Y180903619D01*
X-73017142Y181903619D02*
X-72398095Y181903619D01*
X-72731428Y181522666D01*
X-72588571Y181522666D01*
X-72493333Y181475047D01*
X-72445714Y181427428D01*
X-72398095Y181332190D01*
X-72398095Y181094095D01*
X-72445714Y180998857D01*
X-72493333Y180951238D01*
X-72588571Y180903619D01*
X-72874285Y180903619D01*
X-72969523Y180951238D01*
X-73017142Y180998857D01*
%TO.C,R47*%
X-67205619Y178173142D02*
X-67681809Y177839809D01*
X-67205619Y177601714D02*
X-68205619Y177601714D01*
X-68205619Y177982666D01*
X-68158000Y178077904D01*
X-68110380Y178125523D01*
X-68015142Y178173142D01*
X-67872285Y178173142D01*
X-67777047Y178125523D01*
X-67729428Y178077904D01*
X-67681809Y177982666D01*
X-67681809Y177601714D01*
X-67872285Y179030285D02*
X-67205619Y179030285D01*
X-68253238Y178792190D02*
X-67538952Y178554095D01*
X-67538952Y179173142D01*
X-68205619Y179458857D02*
X-68205619Y180125523D01*
X-67205619Y179696952D01*
%TO.C,R48*%
X-68729619Y183229642D02*
X-69205809Y182896309D01*
X-68729619Y182658214D02*
X-69729619Y182658214D01*
X-69729619Y183039166D01*
X-69682000Y183134404D01*
X-69634380Y183182023D01*
X-69539142Y183229642D01*
X-69396285Y183229642D01*
X-69301047Y183182023D01*
X-69253428Y183134404D01*
X-69205809Y183039166D01*
X-69205809Y182658214D01*
X-69396285Y184086785D02*
X-68729619Y184086785D01*
X-69777238Y183848690D02*
X-69062952Y183610595D01*
X-69062952Y184229642D01*
X-69301047Y184753452D02*
X-69348666Y184658214D01*
X-69396285Y184610595D01*
X-69491523Y184562976D01*
X-69539142Y184562976D01*
X-69634380Y184610595D01*
X-69682000Y184658214D01*
X-69729619Y184753452D01*
X-69729619Y184943928D01*
X-69682000Y185039166D01*
X-69634380Y185086785D01*
X-69539142Y185134404D01*
X-69491523Y185134404D01*
X-69396285Y185086785D01*
X-69348666Y185039166D01*
X-69301047Y184943928D01*
X-69301047Y184753452D01*
X-69253428Y184658214D01*
X-69205809Y184610595D01*
X-69110571Y184562976D01*
X-68920095Y184562976D01*
X-68824857Y184610595D01*
X-68777238Y184658214D01*
X-68729619Y184753452D01*
X-68729619Y184943928D01*
X-68777238Y185039166D01*
X-68824857Y185086785D01*
X-68920095Y185134404D01*
X-69110571Y185134404D01*
X-69205809Y185086785D01*
X-69253428Y185039166D01*
X-69301047Y184943928D01*
%TO.C,R41*%
X-66682857Y195127619D02*
X-67016190Y195603809D01*
X-67254285Y195127619D02*
X-67254285Y196127619D01*
X-66873333Y196127619D01*
X-66778095Y196080000D01*
X-66730476Y196032380D01*
X-66682857Y195937142D01*
X-66682857Y195794285D01*
X-66730476Y195699047D01*
X-66778095Y195651428D01*
X-66873333Y195603809D01*
X-67254285Y195603809D01*
X-65825714Y195794285D02*
X-65825714Y195127619D01*
X-66063809Y196175238D02*
X-66301904Y195460952D01*
X-65682857Y195460952D01*
X-64778095Y195127619D02*
X-65349523Y195127619D01*
X-65063809Y195127619D02*
X-65063809Y196127619D01*
X-65159047Y195984761D01*
X-65254285Y195889523D01*
X-65349523Y195841904D01*
%TO.C,U9*%
X-68619619Y186182095D02*
X-67810095Y186182095D01*
X-67714857Y186229714D01*
X-67667238Y186277333D01*
X-67619619Y186372571D01*
X-67619619Y186563047D01*
X-67667238Y186658285D01*
X-67714857Y186705904D01*
X-67810095Y186753523D01*
X-68619619Y186753523D01*
X-67619619Y187277333D02*
X-67619619Y187467809D01*
X-67667238Y187563047D01*
X-67714857Y187610666D01*
X-67857714Y187705904D01*
X-68048190Y187753523D01*
X-68429142Y187753523D01*
X-68524380Y187705904D01*
X-68572000Y187658285D01*
X-68619619Y187563047D01*
X-68619619Y187372571D01*
X-68572000Y187277333D01*
X-68524380Y187229714D01*
X-68429142Y187182095D01*
X-68191047Y187182095D01*
X-68095809Y187229714D01*
X-68048190Y187277333D01*
X-68000571Y187372571D01*
X-68000571Y187563047D01*
X-68048190Y187658285D01*
X-68095809Y187705904D01*
X-68191047Y187753523D01*
%TO.C,R44*%
X-63016357Y192905119D02*
X-63349690Y193381309D01*
X-63587785Y192905119D02*
X-63587785Y193905119D01*
X-63206833Y193905119D01*
X-63111595Y193857500D01*
X-63063976Y193809880D01*
X-63016357Y193714642D01*
X-63016357Y193571785D01*
X-63063976Y193476547D01*
X-63111595Y193428928D01*
X-63206833Y193381309D01*
X-63587785Y193381309D01*
X-62159214Y193571785D02*
X-62159214Y192905119D01*
X-62397309Y193952738D02*
X-62635404Y193238452D01*
X-62016357Y193238452D01*
X-61206833Y193571785D02*
X-61206833Y192905119D01*
X-61444928Y193952738D02*
X-61683023Y193238452D01*
X-61063976Y193238452D01*
%TO.C,R43*%
X-58889619Y184523142D02*
X-59365809Y184189809D01*
X-58889619Y183951714D02*
X-59889619Y183951714D01*
X-59889619Y184332666D01*
X-59842000Y184427904D01*
X-59794380Y184475523D01*
X-59699142Y184523142D01*
X-59556285Y184523142D01*
X-59461047Y184475523D01*
X-59413428Y184427904D01*
X-59365809Y184332666D01*
X-59365809Y183951714D01*
X-59556285Y185380285D02*
X-58889619Y185380285D01*
X-59937238Y185142190D02*
X-59222952Y184904095D01*
X-59222952Y185523142D01*
X-59889619Y185808857D02*
X-59889619Y186427904D01*
X-59508666Y186094571D01*
X-59508666Y186237428D01*
X-59461047Y186332666D01*
X-59413428Y186380285D01*
X-59318190Y186427904D01*
X-59080095Y186427904D01*
X-58984857Y186380285D01*
X-58937238Y186332666D01*
X-58889619Y186237428D01*
X-58889619Y185951714D01*
X-58937238Y185856476D01*
X-58984857Y185808857D01*
%TO.C,R46*%
X-64063619Y178276642D02*
X-64539809Y177943309D01*
X-64063619Y177705214D02*
X-65063619Y177705214D01*
X-65063619Y178086166D01*
X-65016000Y178181404D01*
X-64968380Y178229023D01*
X-64873142Y178276642D01*
X-64730285Y178276642D01*
X-64635047Y178229023D01*
X-64587428Y178181404D01*
X-64539809Y178086166D01*
X-64539809Y177705214D01*
X-64730285Y179133785D02*
X-64063619Y179133785D01*
X-65111238Y178895690D02*
X-64396952Y178657595D01*
X-64396952Y179276642D01*
X-65063619Y180086166D02*
X-65063619Y179895690D01*
X-65016000Y179800452D01*
X-64968380Y179752833D01*
X-64825523Y179657595D01*
X-64635047Y179609976D01*
X-64254095Y179609976D01*
X-64158857Y179657595D01*
X-64111238Y179705214D01*
X-64063619Y179800452D01*
X-64063619Y179990928D01*
X-64111238Y180086166D01*
X-64158857Y180133785D01*
X-64254095Y180181404D01*
X-64492190Y180181404D01*
X-64587428Y180133785D01*
X-64635047Y180086166D01*
X-64682666Y179990928D01*
X-64682666Y179800452D01*
X-64635047Y179705214D01*
X-64587428Y179657595D01*
X-64492190Y179609976D01*
%TO.C,R42*%
X-58786119Y192397142D02*
X-59262309Y192063809D01*
X-58786119Y191825714D02*
X-59786119Y191825714D01*
X-59786119Y192206666D01*
X-59738500Y192301904D01*
X-59690880Y192349523D01*
X-59595642Y192397142D01*
X-59452785Y192397142D01*
X-59357547Y192349523D01*
X-59309928Y192301904D01*
X-59262309Y192206666D01*
X-59262309Y191825714D01*
X-59452785Y193254285D02*
X-58786119Y193254285D01*
X-59833738Y193016190D02*
X-59119452Y192778095D01*
X-59119452Y193397142D01*
X-59690880Y193730476D02*
X-59738500Y193778095D01*
X-59786119Y193873333D01*
X-59786119Y194111428D01*
X-59738500Y194206666D01*
X-59690880Y194254285D01*
X-59595642Y194301904D01*
X-59500404Y194301904D01*
X-59357547Y194254285D01*
X-58786119Y193682857D01*
X-58786119Y194301904D01*
%TO.C,R45*%
X-61602857Y177037119D02*
X-61936190Y177513309D01*
X-62174285Y177037119D02*
X-62174285Y178037119D01*
X-61793333Y178037119D01*
X-61698095Y177989500D01*
X-61650476Y177941880D01*
X-61602857Y177846642D01*
X-61602857Y177703785D01*
X-61650476Y177608547D01*
X-61698095Y177560928D01*
X-61793333Y177513309D01*
X-62174285Y177513309D01*
X-60745714Y177703785D02*
X-60745714Y177037119D01*
X-60983809Y178084738D02*
X-61221904Y177370452D01*
X-60602857Y177370452D01*
X-59745714Y178037119D02*
X-60221904Y178037119D01*
X-60269523Y177560928D01*
X-60221904Y177608547D01*
X-60126666Y177656166D01*
X-59888571Y177656166D01*
X-59793333Y177608547D01*
X-59745714Y177560928D01*
X-59698095Y177465690D01*
X-59698095Y177227595D01*
X-59745714Y177132357D01*
X-59793333Y177084738D01*
X-59888571Y177037119D01*
X-60126666Y177037119D01*
X-60221904Y177084738D01*
X-60269523Y177132357D01*
%TO.C,BZ1*%
X-104966428Y284629047D02*
X-104918809Y284771904D01*
X-104871190Y284819523D01*
X-104775952Y284867142D01*
X-104633095Y284867142D01*
X-104537857Y284819523D01*
X-104490238Y284771904D01*
X-104442619Y284676666D01*
X-104442619Y284295714D01*
X-105442619Y284295714D01*
X-105442619Y284629047D01*
X-105395000Y284724285D01*
X-105347380Y284771904D01*
X-105252142Y284819523D01*
X-105156904Y284819523D01*
X-105061666Y284771904D01*
X-105014047Y284724285D01*
X-104966428Y284629047D01*
X-104966428Y284295714D01*
X-105442619Y285200476D02*
X-105442619Y285867142D01*
X-104442619Y285200476D01*
X-104442619Y285867142D01*
X-104442619Y286771904D02*
X-104442619Y286200476D01*
X-104442619Y286486190D02*
X-105442619Y286486190D01*
X-105299761Y286390952D01*
X-105204523Y286295714D01*
X-105156904Y286200476D01*
%TO.C,C2*%
X-90828666Y193758857D02*
X-90876285Y193711238D01*
X-91019142Y193663619D01*
X-91114380Y193663619D01*
X-91257238Y193711238D01*
X-91352476Y193806476D01*
X-91400095Y193901714D01*
X-91447714Y194092190D01*
X-91447714Y194235047D01*
X-91400095Y194425523D01*
X-91352476Y194520761D01*
X-91257238Y194616000D01*
X-91114380Y194663619D01*
X-91019142Y194663619D01*
X-90876285Y194616000D01*
X-90828666Y194568380D01*
X-90447714Y194568380D02*
X-90400095Y194616000D01*
X-90304857Y194663619D01*
X-90066761Y194663619D01*
X-89971523Y194616000D01*
X-89923904Y194568380D01*
X-89876285Y194473142D01*
X-89876285Y194377904D01*
X-89923904Y194235047D01*
X-90495333Y193663619D01*
X-89876285Y193663619D01*
%TO.C,C5*%
X-103020666Y193250857D02*
X-103068285Y193203238D01*
X-103211142Y193155619D01*
X-103306380Y193155619D01*
X-103449238Y193203238D01*
X-103544476Y193298476D01*
X-103592095Y193393714D01*
X-103639714Y193584190D01*
X-103639714Y193727047D01*
X-103592095Y193917523D01*
X-103544476Y194012761D01*
X-103449238Y194108000D01*
X-103306380Y194155619D01*
X-103211142Y194155619D01*
X-103068285Y194108000D01*
X-103020666Y194060380D01*
X-102115904Y194155619D02*
X-102592095Y194155619D01*
X-102639714Y193679428D01*
X-102592095Y193727047D01*
X-102496857Y193774666D01*
X-102258761Y193774666D01*
X-102163523Y193727047D01*
X-102115904Y193679428D01*
X-102068285Y193584190D01*
X-102068285Y193346095D01*
X-102115904Y193250857D01*
X-102163523Y193203238D01*
X-102258761Y193155619D01*
X-102496857Y193155619D01*
X-102592095Y193203238D01*
X-102639714Y193250857D01*
%TO.C,Conn1*%
X-119784857Y210988193D02*
X-119737238Y210940574D01*
X-119689619Y210797717D01*
X-119689619Y210702479D01*
X-119737238Y210559622D01*
X-119832476Y210464383D01*
X-119927714Y210416764D01*
X-120118190Y210369145D01*
X-120261047Y210369145D01*
X-120451523Y210416764D01*
X-120546761Y210464383D01*
X-120642000Y210559622D01*
X-120689619Y210702479D01*
X-120689619Y210797717D01*
X-120642000Y210940574D01*
X-120594380Y210988193D01*
X-119689619Y211559622D02*
X-119737238Y211464383D01*
X-119784857Y211416764D01*
X-119880095Y211369145D01*
X-120165809Y211369145D01*
X-120261047Y211416764D01*
X-120308666Y211464383D01*
X-120356285Y211559622D01*
X-120356285Y211702479D01*
X-120308666Y211797717D01*
X-120261047Y211845336D01*
X-120165809Y211892955D01*
X-119880095Y211892955D01*
X-119784857Y211845336D01*
X-119737238Y211797717D01*
X-119689619Y211702479D01*
X-119689619Y211559622D01*
X-120356285Y212321526D02*
X-119689619Y212321526D01*
X-120261047Y212321526D02*
X-120308666Y212369145D01*
X-120356285Y212464383D01*
X-120356285Y212607241D01*
X-120308666Y212702479D01*
X-120213428Y212750098D01*
X-119689619Y212750098D01*
X-120356285Y213226288D02*
X-119689619Y213226288D01*
X-120261047Y213226288D02*
X-120308666Y213273907D01*
X-120356285Y213369145D01*
X-120356285Y213512003D01*
X-120308666Y213607241D01*
X-120213428Y213654860D01*
X-119689619Y213654860D01*
X-119689619Y214654860D02*
X-119689619Y214083431D01*
X-119689619Y214369145D02*
X-120689619Y214369145D01*
X-120546761Y214273907D01*
X-120451523Y214178669D01*
X-120403904Y214083431D01*
%TO.C,Conn3*%
X-44703809Y176807857D02*
X-44751428Y176760238D01*
X-44894285Y176712619D01*
X-44989523Y176712619D01*
X-45132380Y176760238D01*
X-45227619Y176855476D01*
X-45275238Y176950714D01*
X-45322857Y177141190D01*
X-45322857Y177284047D01*
X-45275238Y177474523D01*
X-45227619Y177569761D01*
X-45132380Y177665000D01*
X-44989523Y177712619D01*
X-44894285Y177712619D01*
X-44751428Y177665000D01*
X-44703809Y177617380D01*
X-44132380Y176712619D02*
X-44227619Y176760238D01*
X-44275238Y176807857D01*
X-44322857Y176903095D01*
X-44322857Y177188809D01*
X-44275238Y177284047D01*
X-44227619Y177331666D01*
X-44132380Y177379285D01*
X-43989523Y177379285D01*
X-43894285Y177331666D01*
X-43846666Y177284047D01*
X-43799047Y177188809D01*
X-43799047Y176903095D01*
X-43846666Y176807857D01*
X-43894285Y176760238D01*
X-43989523Y176712619D01*
X-44132380Y176712619D01*
X-43370476Y177379285D02*
X-43370476Y176712619D01*
X-43370476Y177284047D02*
X-43322857Y177331666D01*
X-43227619Y177379285D01*
X-43084761Y177379285D01*
X-42989523Y177331666D01*
X-42941904Y177236428D01*
X-42941904Y176712619D01*
X-42465714Y177379285D02*
X-42465714Y176712619D01*
X-42465714Y177284047D02*
X-42418095Y177331666D01*
X-42322857Y177379285D01*
X-42180000Y177379285D01*
X-42084761Y177331666D01*
X-42037142Y177236428D01*
X-42037142Y176712619D01*
X-41656190Y177712619D02*
X-41037142Y177712619D01*
X-41370476Y177331666D01*
X-41227619Y177331666D01*
X-41132380Y177284047D01*
X-41084761Y177236428D01*
X-41037142Y177141190D01*
X-41037142Y176903095D01*
X-41084761Y176807857D01*
X-41132380Y176760238D01*
X-41227619Y176712619D01*
X-41513333Y176712619D01*
X-41608571Y176760238D01*
X-41656190Y176807857D01*
X-40323337Y176712619D02*
X-40323337Y177712619D01*
X-39990003Y176998333D01*
X-39656670Y177712619D01*
X-39656670Y176712619D01*
X-39037623Y176712619D02*
X-39132861Y176760238D01*
X-39180480Y176807857D01*
X-39228099Y176903095D01*
X-39228099Y177188809D01*
X-39180480Y177284047D01*
X-39132861Y177331666D01*
X-39037623Y177379285D01*
X-38894765Y177379285D01*
X-38799527Y177331666D01*
X-38751908Y177284047D01*
X-38704289Y177188809D01*
X-38704289Y176903095D01*
X-38751908Y176807857D01*
X-38799527Y176760238D01*
X-38894765Y176712619D01*
X-39037623Y176712619D01*
X-38132861Y176712619D02*
X-38228099Y176760238D01*
X-38275718Y176855476D01*
X-38275718Y177712619D01*
X-37370956Y176760238D02*
X-37466194Y176712619D01*
X-37656670Y176712619D01*
X-37751908Y176760238D01*
X-37799527Y176855476D01*
X-37799527Y177236428D01*
X-37751908Y177331666D01*
X-37656670Y177379285D01*
X-37466194Y177379285D01*
X-37370956Y177331666D01*
X-37323337Y177236428D01*
X-37323337Y177141190D01*
X-37799527Y177045952D01*
X-36990004Y176712619D02*
X-36466194Y177379285D01*
X-36990004Y177379285D02*
X-36466194Y176712619D01*
X-36323337Y176617380D02*
X-35561432Y176617380D01*
X-34894765Y177379285D02*
X-34894765Y176712619D01*
X-35323337Y177379285D02*
X-35323337Y176855476D01*
X-35275718Y176760238D01*
X-35180480Y176712619D01*
X-35037623Y176712619D01*
X-34942384Y176760238D01*
X-34894765Y176807857D01*
X-34085242Y177236428D02*
X-34418575Y177236428D01*
X-34418575Y176712619D02*
X-34418575Y177712619D01*
X-33942384Y177712619D01*
X-33799527Y176617380D02*
X-33037623Y176617380D01*
X-32847146Y176760238D02*
X-32704289Y176712619D01*
X-32466194Y176712619D01*
X-32370956Y176760238D01*
X-32323337Y176807857D01*
X-32275718Y176903095D01*
X-32275718Y176998333D01*
X-32323337Y177093571D01*
X-32370956Y177141190D01*
X-32466194Y177188809D01*
X-32656670Y177236428D01*
X-32751908Y177284047D01*
X-32799527Y177331666D01*
X-32847146Y177426904D01*
X-32847146Y177522142D01*
X-32799527Y177617380D01*
X-32751908Y177665000D01*
X-32656670Y177712619D01*
X-32418575Y177712619D01*
X-32275718Y177665000D01*
X-32085242Y176617380D02*
X-31323337Y176617380D01*
X-30894765Y177712619D02*
X-30799527Y177712619D01*
X-30704289Y177665000D01*
X-30656670Y177617380D01*
X-30609051Y177522142D01*
X-30561432Y177331666D01*
X-30561432Y177093571D01*
X-30609051Y176903095D01*
X-30656670Y176807857D01*
X-30704289Y176760238D01*
X-30799527Y176712619D01*
X-30894765Y176712619D01*
X-30990003Y176760238D01*
X-31037623Y176807857D01*
X-31085242Y176903095D01*
X-31132861Y177093571D01*
X-31132861Y177331666D01*
X-31085242Y177522142D01*
X-31037623Y177617380D01*
X-30990003Y177665000D01*
X-30894765Y177712619D01*
X-30085242Y176712619D02*
X-29894765Y176712619D01*
X-29799527Y176760238D01*
X-29751908Y176807857D01*
X-29656670Y176950714D01*
X-29609051Y177141190D01*
X-29609051Y177522142D01*
X-29656670Y177617380D01*
X-29704289Y177665000D01*
X-29799527Y177712619D01*
X-29990004Y177712619D01*
X-30085242Y177665000D01*
X-30132861Y177617380D01*
X-30180480Y177522142D01*
X-30180480Y177284047D01*
X-30132861Y177188809D01*
X-30085242Y177141190D01*
X-29990004Y177093571D01*
X-29799527Y177093571D01*
X-29704289Y177141190D01*
X-29656670Y177188809D01*
X-29609051Y177284047D01*
X-46990000Y180125619D02*
X-46990000Y179887523D01*
X-47228095Y179982761D02*
X-46990000Y179887523D01*
X-46751904Y179982761D01*
X-47132857Y179697047D02*
X-46990000Y179887523D01*
X-46847142Y179697047D01*
%TO.C,Conn4*%
X-32104857Y248738190D02*
X-32057238Y248690571D01*
X-32009619Y248547714D01*
X-32009619Y248452476D01*
X-32057238Y248309619D01*
X-32152476Y248214380D01*
X-32247714Y248166761D01*
X-32438190Y248119142D01*
X-32581047Y248119142D01*
X-32771523Y248166761D01*
X-32866761Y248214380D01*
X-32962000Y248309619D01*
X-33009619Y248452476D01*
X-33009619Y248547714D01*
X-32962000Y248690571D01*
X-32914380Y248738190D01*
X-32009619Y249309619D02*
X-32057238Y249214380D01*
X-32104857Y249166761D01*
X-32200095Y249119142D01*
X-32485809Y249119142D01*
X-32581047Y249166761D01*
X-32628666Y249214380D01*
X-32676285Y249309619D01*
X-32676285Y249452476D01*
X-32628666Y249547714D01*
X-32581047Y249595333D01*
X-32485809Y249642952D01*
X-32200095Y249642952D01*
X-32104857Y249595333D01*
X-32057238Y249547714D01*
X-32009619Y249452476D01*
X-32009619Y249309619D01*
X-32676285Y250071523D02*
X-32009619Y250071523D01*
X-32581047Y250071523D02*
X-32628666Y250119142D01*
X-32676285Y250214380D01*
X-32676285Y250357238D01*
X-32628666Y250452476D01*
X-32533428Y250500095D01*
X-32009619Y250500095D01*
X-32676285Y250976285D02*
X-32009619Y250976285D01*
X-32581047Y250976285D02*
X-32628666Y251023904D01*
X-32676285Y251119142D01*
X-32676285Y251262000D01*
X-32628666Y251357238D01*
X-32533428Y251404857D01*
X-32009619Y251404857D01*
X-32676285Y252309619D02*
X-32009619Y252309619D01*
X-33057238Y252071523D02*
X-32342952Y251833428D01*
X-32342952Y252452476D01*
%TO.C,F1*%
X-88206428Y250831166D02*
X-88206428Y250497833D01*
X-87682619Y250497833D02*
X-88682619Y250497833D01*
X-88682619Y250974023D01*
X-87682619Y251878785D02*
X-87682619Y251307357D01*
X-87682619Y251593071D02*
X-88682619Y251593071D01*
X-88539761Y251497833D01*
X-88444523Y251402595D01*
X-88396904Y251307357D01*
%TO.C,J1*%
X-78963861Y195208794D02*
X-78505942Y195208794D01*
X-78414358Y195178266D01*
X-78353302Y195117210D01*
X-78322774Y195025626D01*
X-78322774Y194964570D01*
X-78322774Y195849881D02*
X-78322774Y195483545D01*
X-78322774Y195666713D02*
X-78963861Y195666713D01*
X-78872277Y195605657D01*
X-78811221Y195544601D01*
X-78780693Y195483545D01*
%TO.C,J2*%
X-78963861Y179968794D02*
X-78505942Y179968794D01*
X-78414358Y179938266D01*
X-78353302Y179877210D01*
X-78322774Y179785626D01*
X-78322774Y179724570D01*
X-78902805Y180243545D02*
X-78933333Y180274073D01*
X-78963861Y180335129D01*
X-78963861Y180487769D01*
X-78933333Y180548825D01*
X-78902805Y180579353D01*
X-78841749Y180609881D01*
X-78780693Y180609881D01*
X-78689109Y180579353D01*
X-78322774Y180213017D01*
X-78322774Y180609881D01*
%TO.C,J3*%
X-94711861Y266227194D02*
X-94253942Y266227194D01*
X-94162358Y266196666D01*
X-94101302Y266135610D01*
X-94070774Y266044026D01*
X-94070774Y265982970D01*
X-94711861Y266471417D02*
X-94711861Y266868281D01*
X-94467637Y266654585D01*
X-94467637Y266746169D01*
X-94437109Y266807225D01*
X-94406581Y266837753D01*
X-94345526Y266868281D01*
X-94192886Y266868281D01*
X-94131830Y266837753D01*
X-94101302Y266807225D01*
X-94070774Y266746169D01*
X-94070774Y266563001D01*
X-94101302Y266501945D01*
X-94131830Y266471417D01*
%TO.C,Q1*%
X-115407380Y273589761D02*
X-115455000Y273494523D01*
X-115550238Y273399285D01*
X-115693095Y273256428D01*
X-115740714Y273161190D01*
X-115740714Y273065952D01*
X-115502619Y273113571D02*
X-115550238Y273018333D01*
X-115645476Y272923095D01*
X-115835952Y272875476D01*
X-116169285Y272875476D01*
X-116359761Y272923095D01*
X-116455000Y273018333D01*
X-116502619Y273113571D01*
X-116502619Y273304047D01*
X-116455000Y273399285D01*
X-116359761Y273494523D01*
X-116169285Y273542142D01*
X-115835952Y273542142D01*
X-115645476Y273494523D01*
X-115550238Y273399285D01*
X-115502619Y273304047D01*
X-115502619Y273113571D01*
X-115502619Y274494523D02*
X-115502619Y273923095D01*
X-115502619Y274208809D02*
X-116502619Y274208809D01*
X-116359761Y274113571D01*
X-116264523Y274018333D01*
X-116216904Y273923095D01*
%TO.C,Q3*%
X-105505238Y225770380D02*
X-105600476Y225818000D01*
X-105695714Y225913238D01*
X-105838571Y226056095D01*
X-105933809Y226103714D01*
X-106029047Y226103714D01*
X-105981428Y225865619D02*
X-106076666Y225913238D01*
X-106171904Y226008476D01*
X-106219523Y226198952D01*
X-106219523Y226532285D01*
X-106171904Y226722761D01*
X-106076666Y226818000D01*
X-105981428Y226865619D01*
X-105790952Y226865619D01*
X-105695714Y226818000D01*
X-105600476Y226722761D01*
X-105552857Y226532285D01*
X-105552857Y226198952D01*
X-105600476Y226008476D01*
X-105695714Y225913238D01*
X-105790952Y225865619D01*
X-105981428Y225865619D01*
X-105219523Y226865619D02*
X-104600476Y226865619D01*
X-104933809Y226484666D01*
X-104790952Y226484666D01*
X-104695714Y226437047D01*
X-104648095Y226389428D01*
X-104600476Y226294190D01*
X-104600476Y226056095D01*
X-104648095Y225960857D01*
X-104695714Y225913238D01*
X-104790952Y225865619D01*
X-105076666Y225865619D01*
X-105171904Y225913238D01*
X-105219523Y225960857D01*
%TO.C,Q4*%
X-60293238Y274234380D02*
X-60388476Y274282000D01*
X-60483714Y274377238D01*
X-60626571Y274520095D01*
X-60721809Y274567714D01*
X-60817047Y274567714D01*
X-60769428Y274329619D02*
X-60864666Y274377238D01*
X-60959904Y274472476D01*
X-61007523Y274662952D01*
X-61007523Y274996285D01*
X-60959904Y275186761D01*
X-60864666Y275282000D01*
X-60769428Y275329619D01*
X-60578952Y275329619D01*
X-60483714Y275282000D01*
X-60388476Y275186761D01*
X-60340857Y274996285D01*
X-60340857Y274662952D01*
X-60388476Y274472476D01*
X-60483714Y274377238D01*
X-60578952Y274329619D01*
X-60769428Y274329619D01*
X-59483714Y274996285D02*
X-59483714Y274329619D01*
X-59721809Y275377238D02*
X-59959904Y274662952D01*
X-59340857Y274662952D01*
%TO.C,SW2*%
X-86153092Y244596512D02*
X-86061508Y244565984D01*
X-85908869Y244565984D01*
X-85847813Y244596512D01*
X-85817285Y244627040D01*
X-85786757Y244688096D01*
X-85786757Y244749152D01*
X-85817285Y244810208D01*
X-85847813Y244840736D01*
X-85908869Y244871263D01*
X-86030980Y244901791D01*
X-86092036Y244932319D01*
X-86122564Y244962847D01*
X-86153092Y245023903D01*
X-86153092Y245084959D01*
X-86122564Y245146015D01*
X-86092036Y245176543D01*
X-86030980Y245207071D01*
X-85878341Y245207071D01*
X-85786757Y245176543D01*
X-85573061Y245207071D02*
X-85420421Y244565984D01*
X-85298310Y245023903D01*
X-85176198Y244565984D01*
X-85023558Y245207071D01*
X-84809862Y245146015D02*
X-84779334Y245176543D01*
X-84718278Y245207071D01*
X-84565639Y245207071D01*
X-84504583Y245176543D01*
X-84474055Y245146015D01*
X-84443527Y245084959D01*
X-84443527Y245023903D01*
X-84474055Y244932319D01*
X-84840390Y244565984D01*
X-84443527Y244565984D01*
%TO.C,U5*%
X-58701844Y265891259D02*
X-58701844Y265081735D01*
X-58654225Y264986497D01*
X-58606606Y264938878D01*
X-58511368Y264891259D01*
X-58320892Y264891259D01*
X-58225654Y264938878D01*
X-58178035Y264986497D01*
X-58130416Y265081735D01*
X-58130416Y265891259D01*
X-57178035Y265891259D02*
X-57654225Y265891259D01*
X-57701844Y265415068D01*
X-57654225Y265462687D01*
X-57558987Y265510306D01*
X-57320892Y265510306D01*
X-57225654Y265462687D01*
X-57178035Y265415068D01*
X-57130416Y265319830D01*
X-57130416Y265081735D01*
X-57178035Y264986497D01*
X-57225654Y264938878D01*
X-57320892Y264891259D01*
X-57558987Y264891259D01*
X-57654225Y264938878D01*
X-57701844Y264986497D01*
%TO.C,J5*%
X-33877333Y216995619D02*
X-33877333Y216281333D01*
X-33924952Y216138476D01*
X-34020190Y216043238D01*
X-34163047Y215995619D01*
X-34258285Y215995619D01*
X-32924952Y216995619D02*
X-33401142Y216995619D01*
X-33448761Y216519428D01*
X-33401142Y216567047D01*
X-33305904Y216614666D01*
X-33067809Y216614666D01*
X-32972571Y216567047D01*
X-32924952Y216519428D01*
X-32877333Y216424190D01*
X-32877333Y216186095D01*
X-32924952Y216090857D01*
X-32972571Y216043238D01*
X-33067809Y215995619D01*
X-33305904Y215995619D01*
X-33401142Y216043238D01*
X-33448761Y216090857D01*
%TO.C,C1*%
X-88151166Y257038857D02*
X-88198785Y256991238D01*
X-88341642Y256943619D01*
X-88436880Y256943619D01*
X-88579738Y256991238D01*
X-88674976Y257086476D01*
X-88722595Y257181714D01*
X-88770214Y257372190D01*
X-88770214Y257515047D01*
X-88722595Y257705523D01*
X-88674976Y257800761D01*
X-88579738Y257896000D01*
X-88436880Y257943619D01*
X-88341642Y257943619D01*
X-88198785Y257896000D01*
X-88151166Y257848380D01*
X-87198785Y256943619D02*
X-87770214Y256943619D01*
X-87484500Y256943619D02*
X-87484500Y257943619D01*
X-87579738Y257800761D01*
X-87674976Y257705523D01*
X-87770214Y257657904D01*
%TO.C,C3*%
X-113782857Y189978833D02*
X-113735238Y189931214D01*
X-113687619Y189788357D01*
X-113687619Y189693119D01*
X-113735238Y189550261D01*
X-113830476Y189455023D01*
X-113925714Y189407404D01*
X-114116190Y189359785D01*
X-114259047Y189359785D01*
X-114449523Y189407404D01*
X-114544761Y189455023D01*
X-114640000Y189550261D01*
X-114687619Y189693119D01*
X-114687619Y189788357D01*
X-114640000Y189931214D01*
X-114592380Y189978833D01*
X-114687619Y190312166D02*
X-114687619Y190931214D01*
X-114306666Y190597880D01*
X-114306666Y190740738D01*
X-114259047Y190835976D01*
X-114211428Y190883595D01*
X-114116190Y190931214D01*
X-113878095Y190931214D01*
X-113782857Y190883595D01*
X-113735238Y190835976D01*
X-113687619Y190740738D01*
X-113687619Y190455023D01*
X-113735238Y190359785D01*
X-113782857Y190312166D01*
%TO.C,C4*%
X-116576857Y189978833D02*
X-116529238Y189931214D01*
X-116481619Y189788357D01*
X-116481619Y189693119D01*
X-116529238Y189550261D01*
X-116624476Y189455023D01*
X-116719714Y189407404D01*
X-116910190Y189359785D01*
X-117053047Y189359785D01*
X-117243523Y189407404D01*
X-117338761Y189455023D01*
X-117434000Y189550261D01*
X-117481619Y189693119D01*
X-117481619Y189788357D01*
X-117434000Y189931214D01*
X-117386380Y189978833D01*
X-117148285Y190835976D02*
X-116481619Y190835976D01*
X-117529238Y190597880D02*
X-116814952Y190359785D01*
X-116814952Y190978833D01*
%TO.C,C6*%
X-95771166Y199888857D02*
X-95818785Y199841238D01*
X-95961642Y199793619D01*
X-96056880Y199793619D01*
X-96199738Y199841238D01*
X-96294976Y199936476D01*
X-96342595Y200031714D01*
X-96390214Y200222190D01*
X-96390214Y200365047D01*
X-96342595Y200555523D01*
X-96294976Y200650761D01*
X-96199738Y200746000D01*
X-96056880Y200793619D01*
X-95961642Y200793619D01*
X-95818785Y200746000D01*
X-95771166Y200698380D01*
X-94914023Y200793619D02*
X-95104500Y200793619D01*
X-95199738Y200746000D01*
X-95247357Y200698380D01*
X-95342595Y200555523D01*
X-95390214Y200365047D01*
X-95390214Y199984095D01*
X-95342595Y199888857D01*
X-95294976Y199841238D01*
X-95199738Y199793619D01*
X-95009261Y199793619D01*
X-94914023Y199841238D01*
X-94866404Y199888857D01*
X-94818785Y199984095D01*
X-94818785Y200222190D01*
X-94866404Y200317428D01*
X-94914023Y200365047D01*
X-95009261Y200412666D01*
X-95199738Y200412666D01*
X-95294976Y200365047D01*
X-95342595Y200317428D01*
X-95390214Y200222190D01*
%TO.C,C7*%
X-95771166Y196840857D02*
X-95818785Y196793238D01*
X-95961642Y196745619D01*
X-96056880Y196745619D01*
X-96199738Y196793238D01*
X-96294976Y196888476D01*
X-96342595Y196983714D01*
X-96390214Y197174190D01*
X-96390214Y197317047D01*
X-96342595Y197507523D01*
X-96294976Y197602761D01*
X-96199738Y197698000D01*
X-96056880Y197745619D01*
X-95961642Y197745619D01*
X-95818785Y197698000D01*
X-95771166Y197650380D01*
X-95437833Y197745619D02*
X-94771166Y197745619D01*
X-95199738Y196745619D01*
%TO.C,C8*%
X-33948666Y232212857D02*
X-33996285Y232165238D01*
X-34139142Y232117619D01*
X-34234380Y232117619D01*
X-34377238Y232165238D01*
X-34472476Y232260476D01*
X-34520095Y232355714D01*
X-34567714Y232546190D01*
X-34567714Y232689047D01*
X-34520095Y232879523D01*
X-34472476Y232974761D01*
X-34377238Y233070000D01*
X-34234380Y233117619D01*
X-34139142Y233117619D01*
X-33996285Y233070000D01*
X-33948666Y233022380D01*
X-33377238Y232689047D02*
X-33472476Y232736666D01*
X-33520095Y232784285D01*
X-33567714Y232879523D01*
X-33567714Y232927142D01*
X-33520095Y233022380D01*
X-33472476Y233070000D01*
X-33377238Y233117619D01*
X-33186761Y233117619D01*
X-33091523Y233070000D01*
X-33043904Y233022380D01*
X-32996285Y232927142D01*
X-32996285Y232879523D01*
X-33043904Y232784285D01*
X-33091523Y232736666D01*
X-33186761Y232689047D01*
X-33377238Y232689047D01*
X-33472476Y232641428D01*
X-33520095Y232593809D01*
X-33567714Y232498571D01*
X-33567714Y232308095D01*
X-33520095Y232212857D01*
X-33472476Y232165238D01*
X-33377238Y232117619D01*
X-33186761Y232117619D01*
X-33091523Y232165238D01*
X-33043904Y232212857D01*
X-32996285Y232308095D01*
X-32996285Y232498571D01*
X-33043904Y232593809D01*
X-33091523Y232641428D01*
X-33186761Y232689047D01*
%TO.C,D2*%
X-104482619Y211986904D02*
X-105482619Y211986904D01*
X-105482619Y212225000D01*
X-105435000Y212367857D01*
X-105339761Y212463095D01*
X-105244523Y212510714D01*
X-105054047Y212558333D01*
X-104911190Y212558333D01*
X-104720714Y212510714D01*
X-104625476Y212463095D01*
X-104530238Y212367857D01*
X-104482619Y212225000D01*
X-104482619Y211986904D01*
X-105387380Y212939285D02*
X-105435000Y212986904D01*
X-105482619Y213082142D01*
X-105482619Y213320238D01*
X-105435000Y213415476D01*
X-105387380Y213463095D01*
X-105292142Y213510714D01*
X-105196904Y213510714D01*
X-105054047Y213463095D01*
X-104482619Y212891666D01*
X-104482619Y213510714D01*
%TO.C,D3*%
X-95480095Y265424619D02*
X-95480095Y266424619D01*
X-95242000Y266424619D01*
X-95099142Y266377000D01*
X-95003904Y266281761D01*
X-94956285Y266186523D01*
X-94908666Y265996047D01*
X-94908666Y265853190D01*
X-94956285Y265662714D01*
X-95003904Y265567476D01*
X-95099142Y265472238D01*
X-95242000Y265424619D01*
X-95480095Y265424619D01*
X-94575333Y266424619D02*
X-93956285Y266424619D01*
X-94289619Y266043666D01*
X-94146761Y266043666D01*
X-94051523Y265996047D01*
X-94003904Y265948428D01*
X-93956285Y265853190D01*
X-93956285Y265615095D01*
X-94003904Y265519857D01*
X-94051523Y265472238D01*
X-94146761Y265424619D01*
X-94432476Y265424619D01*
X-94527714Y265472238D01*
X-94575333Y265519857D01*
%TO.C,D4*%
X-110799619Y189253904D02*
X-111799619Y189253904D01*
X-111799619Y189492000D01*
X-111752000Y189634857D01*
X-111656761Y189730095D01*
X-111561523Y189777714D01*
X-111371047Y189825333D01*
X-111228190Y189825333D01*
X-111037714Y189777714D01*
X-110942476Y189730095D01*
X-110847238Y189634857D01*
X-110799619Y189492000D01*
X-110799619Y189253904D01*
X-111466285Y190682476D02*
X-110799619Y190682476D01*
X-111847238Y190444380D02*
X-111132952Y190206285D01*
X-111132952Y190825333D01*
%TO.C,D5*%
X-98288095Y241896619D02*
X-98288095Y242896619D01*
X-98050000Y242896619D01*
X-97907142Y242849000D01*
X-97811904Y242753761D01*
X-97764285Y242658523D01*
X-97716666Y242468047D01*
X-97716666Y242325190D01*
X-97764285Y242134714D01*
X-97811904Y242039476D01*
X-97907142Y241944238D01*
X-98050000Y241896619D01*
X-98288095Y241896619D01*
X-96811904Y242896619D02*
X-97288095Y242896619D01*
X-97335714Y242420428D01*
X-97288095Y242468047D01*
X-97192857Y242515666D01*
X-96954761Y242515666D01*
X-96859523Y242468047D01*
X-96811904Y242420428D01*
X-96764285Y242325190D01*
X-96764285Y242087095D01*
X-96811904Y241991857D01*
X-96859523Y241944238D01*
X-96954761Y241896619D01*
X-97192857Y241896619D01*
X-97288095Y241944238D01*
X-97335714Y241991857D01*
%TO.C,D6*%
X-98260095Y238594619D02*
X-98260095Y239594619D01*
X-98022000Y239594619D01*
X-97879142Y239547000D01*
X-97783904Y239451761D01*
X-97736285Y239356523D01*
X-97688666Y239166047D01*
X-97688666Y239023190D01*
X-97736285Y238832714D01*
X-97783904Y238737476D01*
X-97879142Y238642238D01*
X-98022000Y238594619D01*
X-98260095Y238594619D01*
X-96831523Y239594619D02*
X-97022000Y239594619D01*
X-97117238Y239547000D01*
X-97164857Y239499380D01*
X-97260095Y239356523D01*
X-97307714Y239166047D01*
X-97307714Y238785095D01*
X-97260095Y238689857D01*
X-97212476Y238642238D01*
X-97117238Y238594619D01*
X-96926761Y238594619D01*
X-96831523Y238642238D01*
X-96783904Y238689857D01*
X-96736285Y238785095D01*
X-96736285Y239023190D01*
X-96783904Y239118428D01*
X-96831523Y239166047D01*
X-96926761Y239213666D01*
X-97117238Y239213666D01*
X-97212476Y239166047D01*
X-97260095Y239118428D01*
X-97307714Y239023190D01*
%TO.C,D7*%
X-88975095Y275264619D02*
X-88975095Y276264619D01*
X-88737000Y276264619D01*
X-88594142Y276217000D01*
X-88498904Y276121761D01*
X-88451285Y276026523D01*
X-88403666Y275836047D01*
X-88403666Y275693190D01*
X-88451285Y275502714D01*
X-88498904Y275407476D01*
X-88594142Y275312238D01*
X-88737000Y275264619D01*
X-88975095Y275264619D01*
X-88070333Y276264619D02*
X-87403666Y276264619D01*
X-87832238Y275264619D01*
%TO.C,R1*%
X-96227619Y286599333D02*
X-96703809Y286266000D01*
X-96227619Y286027904D02*
X-97227619Y286027904D01*
X-97227619Y286408857D01*
X-97180000Y286504095D01*
X-97132380Y286551714D01*
X-97037142Y286599333D01*
X-96894285Y286599333D01*
X-96799047Y286551714D01*
X-96751428Y286504095D01*
X-96703809Y286408857D01*
X-96703809Y286027904D01*
X-96227619Y287551714D02*
X-96227619Y286980285D01*
X-96227619Y287266000D02*
X-97227619Y287266000D01*
X-97084761Y287170761D01*
X-96989523Y287075523D01*
X-96941904Y286980285D01*
%TO.C,R2*%
X-88074166Y271708619D02*
X-88407500Y272184809D01*
X-88645595Y271708619D02*
X-88645595Y272708619D01*
X-88264642Y272708619D01*
X-88169404Y272661000D01*
X-88121785Y272613380D01*
X-88074166Y272518142D01*
X-88074166Y272375285D01*
X-88121785Y272280047D01*
X-88169404Y272232428D01*
X-88264642Y272184809D01*
X-88645595Y272184809D01*
X-87693214Y272613380D02*
X-87645595Y272661000D01*
X-87550357Y272708619D01*
X-87312261Y272708619D01*
X-87217023Y272661000D01*
X-87169404Y272613380D01*
X-87121785Y272518142D01*
X-87121785Y272422904D01*
X-87169404Y272280047D01*
X-87740833Y271708619D01*
X-87121785Y271708619D01*
%TO.C,R4*%
X-92011166Y271802619D02*
X-92344500Y272278809D01*
X-92582595Y271802619D02*
X-92582595Y272802619D01*
X-92201642Y272802619D01*
X-92106404Y272755000D01*
X-92058785Y272707380D01*
X-92011166Y272612142D01*
X-92011166Y272469285D01*
X-92058785Y272374047D01*
X-92106404Y272326428D01*
X-92201642Y272278809D01*
X-92582595Y272278809D01*
X-91154023Y272469285D02*
X-91154023Y271802619D01*
X-91392119Y272850238D02*
X-91630214Y272135952D01*
X-91011166Y272135952D01*
%TO.C,R5*%
X-103527619Y272525833D02*
X-104003809Y272192500D01*
X-103527619Y271954404D02*
X-104527619Y271954404D01*
X-104527619Y272335357D01*
X-104480000Y272430595D01*
X-104432380Y272478214D01*
X-104337142Y272525833D01*
X-104194285Y272525833D01*
X-104099047Y272478214D01*
X-104051428Y272430595D01*
X-104003809Y272335357D01*
X-104003809Y271954404D01*
X-104527619Y273430595D02*
X-104527619Y272954404D01*
X-104051428Y272906785D01*
X-104099047Y272954404D01*
X-104146666Y273049642D01*
X-104146666Y273287738D01*
X-104099047Y273382976D01*
X-104051428Y273430595D01*
X-103956190Y273478214D01*
X-103718095Y273478214D01*
X-103622857Y273430595D01*
X-103575238Y273382976D01*
X-103527619Y273287738D01*
X-103527619Y273049642D01*
X-103575238Y272954404D01*
X-103622857Y272906785D01*
%TO.C,R8*%
X-107735666Y209953619D02*
X-108069000Y210429809D01*
X-108307095Y209953619D02*
X-108307095Y210953619D01*
X-107926142Y210953619D01*
X-107830904Y210906000D01*
X-107783285Y210858380D01*
X-107735666Y210763142D01*
X-107735666Y210620285D01*
X-107783285Y210525047D01*
X-107830904Y210477428D01*
X-107926142Y210429809D01*
X-108307095Y210429809D01*
X-107164238Y210525047D02*
X-107259476Y210572666D01*
X-107307095Y210620285D01*
X-107354714Y210715523D01*
X-107354714Y210763142D01*
X-107307095Y210858380D01*
X-107259476Y210906000D01*
X-107164238Y210953619D01*
X-106973761Y210953619D01*
X-106878523Y210906000D01*
X-106830904Y210858380D01*
X-106783285Y210763142D01*
X-106783285Y210715523D01*
X-106830904Y210620285D01*
X-106878523Y210572666D01*
X-106973761Y210525047D01*
X-107164238Y210525047D01*
X-107259476Y210477428D01*
X-107307095Y210429809D01*
X-107354714Y210334571D01*
X-107354714Y210144095D01*
X-107307095Y210048857D01*
X-107259476Y210001238D01*
X-107164238Y209953619D01*
X-106973761Y209953619D01*
X-106878523Y210001238D01*
X-106830904Y210048857D01*
X-106783285Y210144095D01*
X-106783285Y210334571D01*
X-106830904Y210429809D01*
X-106878523Y210477428D01*
X-106973761Y210525047D01*
%TO.C,R9*%
X-107712166Y206811619D02*
X-108045500Y207287809D01*
X-108283595Y206811619D02*
X-108283595Y207811619D01*
X-107902642Y207811619D01*
X-107807404Y207764000D01*
X-107759785Y207716380D01*
X-107712166Y207621142D01*
X-107712166Y207478285D01*
X-107759785Y207383047D01*
X-107807404Y207335428D01*
X-107902642Y207287809D01*
X-108283595Y207287809D01*
X-107235976Y206811619D02*
X-107045500Y206811619D01*
X-106950261Y206859238D01*
X-106902642Y206906857D01*
X-106807404Y207049714D01*
X-106759785Y207240190D01*
X-106759785Y207621142D01*
X-106807404Y207716380D01*
X-106855023Y207764000D01*
X-106950261Y207811619D01*
X-107140738Y207811619D01*
X-107235976Y207764000D01*
X-107283595Y207716380D01*
X-107331214Y207621142D01*
X-107331214Y207383047D01*
X-107283595Y207287809D01*
X-107235976Y207240190D01*
X-107140738Y207192571D01*
X-106950261Y207192571D01*
X-106855023Y207240190D01*
X-106807404Y207287809D01*
X-106759785Y207383047D01*
%TO.C,R10*%
X-88550357Y264182619D02*
X-88883690Y264658809D01*
X-89121785Y264182619D02*
X-89121785Y265182619D01*
X-88740833Y265182619D01*
X-88645595Y265135000D01*
X-88597976Y265087380D01*
X-88550357Y264992142D01*
X-88550357Y264849285D01*
X-88597976Y264754047D01*
X-88645595Y264706428D01*
X-88740833Y264658809D01*
X-89121785Y264658809D01*
X-87597976Y264182619D02*
X-88169404Y264182619D01*
X-87883690Y264182619D02*
X-87883690Y265182619D01*
X-87978928Y265039761D01*
X-88074166Y264944523D01*
X-88169404Y264896904D01*
X-86978928Y265182619D02*
X-86883690Y265182619D01*
X-86788452Y265135000D01*
X-86740833Y265087380D01*
X-86693214Y264992142D01*
X-86645595Y264801666D01*
X-86645595Y264563571D01*
X-86693214Y264373095D01*
X-86740833Y264277857D01*
X-86788452Y264230238D01*
X-86883690Y264182619D01*
X-86978928Y264182619D01*
X-87074166Y264230238D01*
X-87121785Y264277857D01*
X-87169404Y264373095D01*
X-87217023Y264563571D01*
X-87217023Y264801666D01*
X-87169404Y264992142D01*
X-87121785Y265087380D01*
X-87074166Y265135000D01*
X-86978928Y265182619D01*
%TO.C,R11*%
X-89693357Y270311619D02*
X-90026690Y270787809D01*
X-90264785Y270311619D02*
X-90264785Y271311619D01*
X-89883833Y271311619D01*
X-89788595Y271264000D01*
X-89740976Y271216380D01*
X-89693357Y271121142D01*
X-89693357Y270978285D01*
X-89740976Y270883047D01*
X-89788595Y270835428D01*
X-89883833Y270787809D01*
X-90264785Y270787809D01*
X-88740976Y270311619D02*
X-89312404Y270311619D01*
X-89026690Y270311619D02*
X-89026690Y271311619D01*
X-89121928Y271168761D01*
X-89217166Y271073523D01*
X-89312404Y271025904D01*
X-87788595Y270311619D02*
X-88360023Y270311619D01*
X-88074309Y270311619D02*
X-88074309Y271311619D01*
X-88169547Y271168761D01*
X-88264785Y271073523D01*
X-88360023Y271025904D01*
%TO.C,R12*%
X-110893619Y184880642D02*
X-111369809Y184547309D01*
X-110893619Y184309214D02*
X-111893619Y184309214D01*
X-111893619Y184690166D01*
X-111846000Y184785404D01*
X-111798380Y184833023D01*
X-111703142Y184880642D01*
X-111560285Y184880642D01*
X-111465047Y184833023D01*
X-111417428Y184785404D01*
X-111369809Y184690166D01*
X-111369809Y184309214D01*
X-110893619Y185833023D02*
X-110893619Y185261595D01*
X-110893619Y185547309D02*
X-111893619Y185547309D01*
X-111750761Y185452071D01*
X-111655523Y185356833D01*
X-111607904Y185261595D01*
X-111798380Y186213976D02*
X-111846000Y186261595D01*
X-111893619Y186356833D01*
X-111893619Y186594928D01*
X-111846000Y186690166D01*
X-111798380Y186737785D01*
X-111703142Y186785404D01*
X-111607904Y186785404D01*
X-111465047Y186737785D01*
X-110893619Y186166357D01*
X-110893619Y186785404D01*
%TO.C,R13*%
X-102520357Y241990619D02*
X-102853690Y242466809D01*
X-103091785Y241990619D02*
X-103091785Y242990619D01*
X-102710833Y242990619D01*
X-102615595Y242943000D01*
X-102567976Y242895380D01*
X-102520357Y242800142D01*
X-102520357Y242657285D01*
X-102567976Y242562047D01*
X-102615595Y242514428D01*
X-102710833Y242466809D01*
X-103091785Y242466809D01*
X-101567976Y241990619D02*
X-102139404Y241990619D01*
X-101853690Y241990619D02*
X-101853690Y242990619D01*
X-101948928Y242847761D01*
X-102044166Y242752523D01*
X-102139404Y242704904D01*
X-101234642Y242990619D02*
X-100615595Y242990619D01*
X-100948928Y242609666D01*
X-100806071Y242609666D01*
X-100710833Y242562047D01*
X-100663214Y242514428D01*
X-100615595Y242419190D01*
X-100615595Y242181095D01*
X-100663214Y242085857D01*
X-100710833Y242038238D01*
X-100806071Y241990619D01*
X-101091785Y241990619D01*
X-101187023Y242038238D01*
X-101234642Y242085857D01*
%TO.C,R14*%
X-102520357Y235734619D02*
X-102853690Y236210809D01*
X-103091785Y235734619D02*
X-103091785Y236734619D01*
X-102710833Y236734619D01*
X-102615595Y236687000D01*
X-102567976Y236639380D01*
X-102520357Y236544142D01*
X-102520357Y236401285D01*
X-102567976Y236306047D01*
X-102615595Y236258428D01*
X-102710833Y236210809D01*
X-103091785Y236210809D01*
X-101567976Y235734619D02*
X-102139404Y235734619D01*
X-101853690Y235734619D02*
X-101853690Y236734619D01*
X-101948928Y236591761D01*
X-102044166Y236496523D01*
X-102139404Y236448904D01*
X-100710833Y236401285D02*
X-100710833Y235734619D01*
X-100948928Y236782238D02*
X-101187023Y236067952D01*
X-100567976Y236067952D01*
%TO.C,R15*%
X-92360357Y275104619D02*
X-92693690Y275580809D01*
X-92931785Y275104619D02*
X-92931785Y276104619D01*
X-92550833Y276104619D01*
X-92455595Y276057000D01*
X-92407976Y276009380D01*
X-92360357Y275914142D01*
X-92360357Y275771285D01*
X-92407976Y275676047D01*
X-92455595Y275628428D01*
X-92550833Y275580809D01*
X-92931785Y275580809D01*
X-91407976Y275104619D02*
X-91979404Y275104619D01*
X-91693690Y275104619D02*
X-91693690Y276104619D01*
X-91788928Y275961761D01*
X-91884166Y275866523D01*
X-91979404Y275818904D01*
X-90503214Y276104619D02*
X-90979404Y276104619D01*
X-91027023Y275628428D01*
X-90979404Y275676047D01*
X-90884166Y275723666D01*
X-90646071Y275723666D01*
X-90550833Y275676047D01*
X-90503214Y275628428D01*
X-90455595Y275533190D01*
X-90455595Y275295095D01*
X-90503214Y275199857D01*
X-90550833Y275152238D01*
X-90646071Y275104619D01*
X-90884166Y275104619D01*
X-90979404Y275152238D01*
X-91027023Y275199857D01*
%TO.C,R16*%
X-93630357Y270311619D02*
X-93963690Y270787809D01*
X-94201785Y270311619D02*
X-94201785Y271311619D01*
X-93820833Y271311619D01*
X-93725595Y271264000D01*
X-93677976Y271216380D01*
X-93630357Y271121142D01*
X-93630357Y270978285D01*
X-93677976Y270883047D01*
X-93725595Y270835428D01*
X-93820833Y270787809D01*
X-94201785Y270787809D01*
X-92677976Y270311619D02*
X-93249404Y270311619D01*
X-92963690Y270311619D02*
X-92963690Y271311619D01*
X-93058928Y271168761D01*
X-93154166Y271073523D01*
X-93249404Y271025904D01*
X-91820833Y271311619D02*
X-92011309Y271311619D01*
X-92106547Y271264000D01*
X-92154166Y271216380D01*
X-92249404Y271073523D01*
X-92297023Y270883047D01*
X-92297023Y270502095D01*
X-92249404Y270406857D01*
X-92201785Y270359238D01*
X-92106547Y270311619D01*
X-91916071Y270311619D01*
X-91820833Y270359238D01*
X-91773214Y270406857D01*
X-91725595Y270502095D01*
X-91725595Y270740190D01*
X-91773214Y270835428D01*
X-91820833Y270883047D01*
X-91916071Y270930666D01*
X-92106547Y270930666D01*
X-92201785Y270883047D01*
X-92249404Y270835428D01*
X-92297023Y270740190D01*
%TO.C,U3*%
X-88391904Y291919619D02*
X-88391904Y291110095D01*
X-88344285Y291014857D01*
X-88296666Y290967238D01*
X-88201428Y290919619D01*
X-88010952Y290919619D01*
X-87915714Y290967238D01*
X-87868095Y291014857D01*
X-87820476Y291110095D01*
X-87820476Y291919619D01*
X-87439523Y291919619D02*
X-86820476Y291919619D01*
X-87153809Y291538666D01*
X-87010952Y291538666D01*
X-86915714Y291491047D01*
X-86868095Y291443428D01*
X-86820476Y291348190D01*
X-86820476Y291110095D01*
X-86868095Y291014857D01*
X-86915714Y290967238D01*
X-87010952Y290919619D01*
X-87296666Y290919619D01*
X-87391904Y290967238D01*
X-87439523Y291014857D01*
%TO.C,J4*%
X-7667619Y224710666D02*
X-6953333Y224710666D01*
X-6810476Y224663047D01*
X-6715238Y224567809D01*
X-6667619Y224424952D01*
X-6667619Y224329714D01*
X-7334285Y225615428D02*
X-6667619Y225615428D01*
X-7715238Y225377333D02*
X-7000952Y225139238D01*
X-7000952Y225758285D01*
%TD*%
M02*
