%TF.GenerationSoftware,KiCad,Pcbnew,(5.1.10)-1*%
%TF.CreationDate,2022-03-19T12:48:15-05:00*%
%TF.ProjectId,BMS_2022_Rev1,424d535f-3230-4323-925f-526576312e6b,rev?*%
%TF.SameCoordinates,Original*%
%TF.FileFunction,Paste,Top*%
%TF.FilePolarity,Positive*%
%FSLAX46Y46*%
G04 Gerber Fmt 4.6, Leading zero omitted, Abs format (unit mm)*
G04 Created by KiCad (PCBNEW (5.1.10)-1) date 2022-03-19 12:48:15*
%MOMM*%
%LPD*%
G01*
G04 APERTURE LIST*
%ADD10R,0.900000X0.800000*%
%ADD11R,0.800000X0.900000*%
%ADD12R,2.500000X6.000000*%
%ADD13R,4.600000X0.800000*%
%ADD14R,4.550000X5.250000*%
G04 APERTURE END LIST*
%TO.C,R17*%
G36*
G01*
X-12599500Y207534500D02*
X-12599500Y208009500D01*
G75*
G02*
X-12362000Y208247000I237500J0D01*
G01*
X-11862000Y208247000D01*
G75*
G02*
X-11624500Y208009500I0J-237500D01*
G01*
X-11624500Y207534500D01*
G75*
G02*
X-11862000Y207297000I-237500J0D01*
G01*
X-12362000Y207297000D01*
G75*
G02*
X-12599500Y207534500I0J237500D01*
G01*
G37*
G36*
G01*
X-10774500Y207534500D02*
X-10774500Y208009500D01*
G75*
G02*
X-10537000Y208247000I237500J0D01*
G01*
X-10037000Y208247000D01*
G75*
G02*
X-9799500Y208009500I0J-237500D01*
G01*
X-9799500Y207534500D01*
G75*
G02*
X-10037000Y207297000I-237500J0D01*
G01*
X-10537000Y207297000D01*
G75*
G02*
X-10774500Y207534500I0J237500D01*
G01*
G37*
%TD*%
%TO.C,R40*%
G36*
G01*
X-60519500Y208517500D02*
X-60519500Y208042500D01*
G75*
G02*
X-60757000Y207805000I-237500J0D01*
G01*
X-61257000Y207805000D01*
G75*
G02*
X-61494500Y208042500I0J237500D01*
G01*
X-61494500Y208517500D01*
G75*
G02*
X-61257000Y208755000I237500J0D01*
G01*
X-60757000Y208755000D01*
G75*
G02*
X-60519500Y208517500I0J-237500D01*
G01*
G37*
G36*
G01*
X-58694500Y208517500D02*
X-58694500Y208042500D01*
G75*
G02*
X-58932000Y207805000I-237500J0D01*
G01*
X-59432000Y207805000D01*
G75*
G02*
X-59669500Y208042500I0J237500D01*
G01*
X-59669500Y208517500D01*
G75*
G02*
X-59432000Y208755000I237500J0D01*
G01*
X-58932000Y208755000D01*
G75*
G02*
X-58694500Y208517500I0J-237500D01*
G01*
G37*
%TD*%
D10*
%TO.C,D13*%
X-33750500Y206441000D03*
X-33750500Y208341000D03*
X-35750500Y207391000D03*
%TD*%
%TO.C,D19*%
X-61118500Y213103500D03*
X-61118500Y211203500D03*
X-59118500Y212153500D03*
%TD*%
%TO.C,D17*%
X-53975000Y207581500D03*
X-53975000Y209481500D03*
X-55975000Y208531500D03*
%TD*%
%TO.C,D12*%
X-32020000Y196342000D03*
X-34020000Y195392000D03*
X-34020000Y197292000D03*
%TD*%
%TO.C,U7*%
G36*
G01*
X-32938000Y200302000D02*
X-32938000Y200002000D01*
G75*
G02*
X-33088000Y199852000I-150000J0D01*
G01*
X-34388000Y199852000D01*
G75*
G02*
X-34538000Y200002000I0J150000D01*
G01*
X-34538000Y200302000D01*
G75*
G02*
X-34388000Y200452000I150000J0D01*
G01*
X-33088000Y200452000D01*
G75*
G02*
X-32938000Y200302000I0J-150000D01*
G01*
G37*
G36*
G01*
X-32938000Y201572000D02*
X-32938000Y201272000D01*
G75*
G02*
X-33088000Y201122000I-150000J0D01*
G01*
X-34388000Y201122000D01*
G75*
G02*
X-34538000Y201272000I0J150000D01*
G01*
X-34538000Y201572000D01*
G75*
G02*
X-34388000Y201722000I150000J0D01*
G01*
X-33088000Y201722000D01*
G75*
G02*
X-32938000Y201572000I0J-150000D01*
G01*
G37*
G36*
G01*
X-32938000Y202842000D02*
X-32938000Y202542000D01*
G75*
G02*
X-33088000Y202392000I-150000J0D01*
G01*
X-34388000Y202392000D01*
G75*
G02*
X-34538000Y202542000I0J150000D01*
G01*
X-34538000Y202842000D01*
G75*
G02*
X-34388000Y202992000I150000J0D01*
G01*
X-33088000Y202992000D01*
G75*
G02*
X-32938000Y202842000I0J-150000D01*
G01*
G37*
G36*
G01*
X-32938000Y204112000D02*
X-32938000Y203812000D01*
G75*
G02*
X-33088000Y203662000I-150000J0D01*
G01*
X-34388000Y203662000D01*
G75*
G02*
X-34538000Y203812000I0J150000D01*
G01*
X-34538000Y204112000D01*
G75*
G02*
X-34388000Y204262000I150000J0D01*
G01*
X-33088000Y204262000D01*
G75*
G02*
X-32938000Y204112000I0J-150000D01*
G01*
G37*
G36*
G01*
X-40138000Y204112000D02*
X-40138000Y203812000D01*
G75*
G02*
X-40288000Y203662000I-150000J0D01*
G01*
X-41588000Y203662000D01*
G75*
G02*
X-41738000Y203812000I0J150000D01*
G01*
X-41738000Y204112000D01*
G75*
G02*
X-41588000Y204262000I150000J0D01*
G01*
X-40288000Y204262000D01*
G75*
G02*
X-40138000Y204112000I0J-150000D01*
G01*
G37*
G36*
G01*
X-40138000Y202842000D02*
X-40138000Y202542000D01*
G75*
G02*
X-40288000Y202392000I-150000J0D01*
G01*
X-41588000Y202392000D01*
G75*
G02*
X-41738000Y202542000I0J150000D01*
G01*
X-41738000Y202842000D01*
G75*
G02*
X-41588000Y202992000I150000J0D01*
G01*
X-40288000Y202992000D01*
G75*
G02*
X-40138000Y202842000I0J-150000D01*
G01*
G37*
G36*
G01*
X-40138000Y201572000D02*
X-40138000Y201272000D01*
G75*
G02*
X-40288000Y201122000I-150000J0D01*
G01*
X-41588000Y201122000D01*
G75*
G02*
X-41738000Y201272000I0J150000D01*
G01*
X-41738000Y201572000D01*
G75*
G02*
X-41588000Y201722000I150000J0D01*
G01*
X-40288000Y201722000D01*
G75*
G02*
X-40138000Y201572000I0J-150000D01*
G01*
G37*
G36*
G01*
X-40138000Y200302000D02*
X-40138000Y200002000D01*
G75*
G02*
X-40288000Y199852000I-150000J0D01*
G01*
X-41588000Y199852000D01*
G75*
G02*
X-41738000Y200002000I0J150000D01*
G01*
X-41738000Y200302000D01*
G75*
G02*
X-41588000Y200452000I150000J0D01*
G01*
X-40288000Y200452000D01*
G75*
G02*
X-40138000Y200302000I0J-150000D01*
G01*
G37*
%TD*%
%TO.C,R18*%
G36*
G01*
X-10524500Y204703500D02*
X-10049500Y204703500D01*
G75*
G02*
X-9812000Y204466000I0J-237500D01*
G01*
X-9812000Y203966000D01*
G75*
G02*
X-10049500Y203728500I-237500J0D01*
G01*
X-10524500Y203728500D01*
G75*
G02*
X-10762000Y203966000I0J237500D01*
G01*
X-10762000Y204466000D01*
G75*
G02*
X-10524500Y204703500I237500J0D01*
G01*
G37*
G36*
G01*
X-10524500Y202878500D02*
X-10049500Y202878500D01*
G75*
G02*
X-9812000Y202641000I0J-237500D01*
G01*
X-9812000Y202141000D01*
G75*
G02*
X-10049500Y201903500I-237500J0D01*
G01*
X-10524500Y201903500D01*
G75*
G02*
X-10762000Y202141000I0J237500D01*
G01*
X-10762000Y202641000D01*
G75*
G02*
X-10524500Y202878500I237500J0D01*
G01*
G37*
%TD*%
%TO.C,D15*%
X-40608000Y211643000D03*
X-40608000Y209743000D03*
X-38608000Y210693000D03*
%TD*%
%TO.C,R39*%
G36*
G01*
X-70501500Y195854500D02*
X-70976500Y195854500D01*
G75*
G02*
X-71214000Y196092000I0J237500D01*
G01*
X-71214000Y196592000D01*
G75*
G02*
X-70976500Y196829500I237500J0D01*
G01*
X-70501500Y196829500D01*
G75*
G02*
X-70264000Y196592000I0J-237500D01*
G01*
X-70264000Y196092000D01*
G75*
G02*
X-70501500Y195854500I-237500J0D01*
G01*
G37*
G36*
G01*
X-70501500Y197679500D02*
X-70976500Y197679500D01*
G75*
G02*
X-71214000Y197917000I0J237500D01*
G01*
X-71214000Y198417000D01*
G75*
G02*
X-70976500Y198654500I237500J0D01*
G01*
X-70501500Y198654500D01*
G75*
G02*
X-70264000Y198417000I0J-237500D01*
G01*
X-70264000Y197917000D01*
G75*
G02*
X-70501500Y197679500I-237500J0D01*
G01*
G37*
%TD*%
%TO.C,D18*%
X-67215000Y200848000D03*
X-69215000Y199898000D03*
X-69215000Y201798000D03*
%TD*%
%TO.C,R21*%
G36*
G01*
X-26950500Y203724500D02*
X-26950500Y204199500D01*
G75*
G02*
X-26713000Y204437000I237500J0D01*
G01*
X-26213000Y204437000D01*
G75*
G02*
X-25975500Y204199500I0J-237500D01*
G01*
X-25975500Y203724500D01*
G75*
G02*
X-26213000Y203487000I-237500J0D01*
G01*
X-26713000Y203487000D01*
G75*
G02*
X-26950500Y203724500I0J237500D01*
G01*
G37*
G36*
G01*
X-25125500Y203724500D02*
X-25125500Y204199500D01*
G75*
G02*
X-24888000Y204437000I237500J0D01*
G01*
X-24388000Y204437000D01*
G75*
G02*
X-24150500Y204199500I0J-237500D01*
G01*
X-24150500Y203724500D01*
G75*
G02*
X-24388000Y203487000I-237500J0D01*
G01*
X-24888000Y203487000D01*
G75*
G02*
X-25125500Y203724500I0J237500D01*
G01*
G37*
%TD*%
%TO.C,R26*%
G36*
G01*
X-29701500Y204275500D02*
X-29226500Y204275500D01*
G75*
G02*
X-28989000Y204038000I0J-237500D01*
G01*
X-28989000Y203538000D01*
G75*
G02*
X-29226500Y203300500I-237500J0D01*
G01*
X-29701500Y203300500D01*
G75*
G02*
X-29939000Y203538000I0J237500D01*
G01*
X-29939000Y204038000D01*
G75*
G02*
X-29701500Y204275500I237500J0D01*
G01*
G37*
G36*
G01*
X-29701500Y206100500D02*
X-29226500Y206100500D01*
G75*
G02*
X-28989000Y205863000I0J-237500D01*
G01*
X-28989000Y205363000D01*
G75*
G02*
X-29226500Y205125500I-237500J0D01*
G01*
X-29701500Y205125500D01*
G75*
G02*
X-29939000Y205363000I0J237500D01*
G01*
X-29939000Y205863000D01*
G75*
G02*
X-29701500Y206100500I237500J0D01*
G01*
G37*
%TD*%
%TO.C,R23*%
G36*
G01*
X-27923500Y198654500D02*
X-27448500Y198654500D01*
G75*
G02*
X-27211000Y198417000I0J-237500D01*
G01*
X-27211000Y197917000D01*
G75*
G02*
X-27448500Y197679500I-237500J0D01*
G01*
X-27923500Y197679500D01*
G75*
G02*
X-28161000Y197917000I0J237500D01*
G01*
X-28161000Y198417000D01*
G75*
G02*
X-27923500Y198654500I237500J0D01*
G01*
G37*
G36*
G01*
X-27923500Y196829500D02*
X-27448500Y196829500D01*
G75*
G02*
X-27211000Y196592000I0J-237500D01*
G01*
X-27211000Y196092000D01*
G75*
G02*
X-27448500Y195854500I-237500J0D01*
G01*
X-27923500Y195854500D01*
G75*
G02*
X-28161000Y196092000I0J237500D01*
G01*
X-28161000Y196592000D01*
G75*
G02*
X-27923500Y196829500I237500J0D01*
G01*
G37*
%TD*%
%TO.C,R30*%
G36*
G01*
X-40115500Y195766500D02*
X-39640500Y195766500D01*
G75*
G02*
X-39403000Y195529000I0J-237500D01*
G01*
X-39403000Y195029000D01*
G75*
G02*
X-39640500Y194791500I-237500J0D01*
G01*
X-40115500Y194791500D01*
G75*
G02*
X-40353000Y195029000I0J237500D01*
G01*
X-40353000Y195529000D01*
G75*
G02*
X-40115500Y195766500I237500J0D01*
G01*
G37*
G36*
G01*
X-40115500Y197591500D02*
X-39640500Y197591500D01*
G75*
G02*
X-39403000Y197354000I0J-237500D01*
G01*
X-39403000Y196854000D01*
G75*
G02*
X-39640500Y196616500I-237500J0D01*
G01*
X-40115500Y196616500D01*
G75*
G02*
X-40353000Y196854000I0J237500D01*
G01*
X-40353000Y197354000D01*
G75*
G02*
X-40115500Y197591500I237500J0D01*
G01*
G37*
%TD*%
%TO.C,D8*%
X-10922000Y195646000D03*
X-12922000Y194696000D03*
X-12922000Y196596000D03*
%TD*%
%TO.C,D11*%
X-20288000Y211643000D03*
X-20288000Y209743000D03*
X-18288000Y210693000D03*
%TD*%
%TO.C,D10*%
X-22860000Y195580000D03*
X-24860000Y194630000D03*
X-24860000Y196530000D03*
%TD*%
%TO.C,R38*%
G36*
G01*
X-60880000Y196575500D02*
X-60405000Y196575500D01*
G75*
G02*
X-60167500Y196338000I0J-237500D01*
G01*
X-60167500Y195838000D01*
G75*
G02*
X-60405000Y195600500I-237500J0D01*
G01*
X-60880000Y195600500D01*
G75*
G02*
X-61117500Y195838000I0J237500D01*
G01*
X-61117500Y196338000D01*
G75*
G02*
X-60880000Y196575500I237500J0D01*
G01*
G37*
G36*
G01*
X-60880000Y198400500D02*
X-60405000Y198400500D01*
G75*
G02*
X-60167500Y198163000I0J-237500D01*
G01*
X-60167500Y197663000D01*
G75*
G02*
X-60405000Y197425500I-237500J0D01*
G01*
X-60880000Y197425500D01*
G75*
G02*
X-61117500Y197663000I0J237500D01*
G01*
X-61117500Y198163000D01*
G75*
G02*
X-60880000Y198400500I237500J0D01*
G01*
G37*
%TD*%
%TO.C,U8*%
G36*
G01*
X-60375000Y201445000D02*
X-60375000Y201145000D01*
G75*
G02*
X-60525000Y200995000I-150000J0D01*
G01*
X-61825000Y200995000D01*
G75*
G02*
X-61975000Y201145000I0J150000D01*
G01*
X-61975000Y201445000D01*
G75*
G02*
X-61825000Y201595000I150000J0D01*
G01*
X-60525000Y201595000D01*
G75*
G02*
X-60375000Y201445000I0J-150000D01*
G01*
G37*
G36*
G01*
X-60375000Y202715000D02*
X-60375000Y202415000D01*
G75*
G02*
X-60525000Y202265000I-150000J0D01*
G01*
X-61825000Y202265000D01*
G75*
G02*
X-61975000Y202415000I0J150000D01*
G01*
X-61975000Y202715000D01*
G75*
G02*
X-61825000Y202865000I150000J0D01*
G01*
X-60525000Y202865000D01*
G75*
G02*
X-60375000Y202715000I0J-150000D01*
G01*
G37*
G36*
G01*
X-60375000Y203985000D02*
X-60375000Y203685000D01*
G75*
G02*
X-60525000Y203535000I-150000J0D01*
G01*
X-61825000Y203535000D01*
G75*
G02*
X-61975000Y203685000I0J150000D01*
G01*
X-61975000Y203985000D01*
G75*
G02*
X-61825000Y204135000I150000J0D01*
G01*
X-60525000Y204135000D01*
G75*
G02*
X-60375000Y203985000I0J-150000D01*
G01*
G37*
G36*
G01*
X-60375000Y205255000D02*
X-60375000Y204955000D01*
G75*
G02*
X-60525000Y204805000I-150000J0D01*
G01*
X-61825000Y204805000D01*
G75*
G02*
X-61975000Y204955000I0J150000D01*
G01*
X-61975000Y205255000D01*
G75*
G02*
X-61825000Y205405000I150000J0D01*
G01*
X-60525000Y205405000D01*
G75*
G02*
X-60375000Y205255000I0J-150000D01*
G01*
G37*
G36*
G01*
X-53175000Y205255000D02*
X-53175000Y204955000D01*
G75*
G02*
X-53325000Y204805000I-150000J0D01*
G01*
X-54625000Y204805000D01*
G75*
G02*
X-54775000Y204955000I0J150000D01*
G01*
X-54775000Y205255000D01*
G75*
G02*
X-54625000Y205405000I150000J0D01*
G01*
X-53325000Y205405000D01*
G75*
G02*
X-53175000Y205255000I0J-150000D01*
G01*
G37*
G36*
G01*
X-53175000Y203985000D02*
X-53175000Y203685000D01*
G75*
G02*
X-53325000Y203535000I-150000J0D01*
G01*
X-54625000Y203535000D01*
G75*
G02*
X-54775000Y203685000I0J150000D01*
G01*
X-54775000Y203985000D01*
G75*
G02*
X-54625000Y204135000I150000J0D01*
G01*
X-53325000Y204135000D01*
G75*
G02*
X-53175000Y203985000I0J-150000D01*
G01*
G37*
G36*
G01*
X-53175000Y202715000D02*
X-53175000Y202415000D01*
G75*
G02*
X-53325000Y202265000I-150000J0D01*
G01*
X-54625000Y202265000D01*
G75*
G02*
X-54775000Y202415000I0J150000D01*
G01*
X-54775000Y202715000D01*
G75*
G02*
X-54625000Y202865000I150000J0D01*
G01*
X-53325000Y202865000D01*
G75*
G02*
X-53175000Y202715000I0J-150000D01*
G01*
G37*
G36*
G01*
X-53175000Y201445000D02*
X-53175000Y201145000D01*
G75*
G02*
X-53325000Y200995000I-150000J0D01*
G01*
X-54625000Y200995000D01*
G75*
G02*
X-54775000Y201145000I0J150000D01*
G01*
X-54775000Y201445000D01*
G75*
G02*
X-54625000Y201595000I150000J0D01*
G01*
X-53325000Y201595000D01*
G75*
G02*
X-53175000Y201445000I0J-150000D01*
G01*
G37*
%TD*%
%TO.C,U6*%
G36*
G01*
X-13590000Y200302000D02*
X-13590000Y200002000D01*
G75*
G02*
X-13740000Y199852000I-150000J0D01*
G01*
X-15040000Y199852000D01*
G75*
G02*
X-15190000Y200002000I0J150000D01*
G01*
X-15190000Y200302000D01*
G75*
G02*
X-15040000Y200452000I150000J0D01*
G01*
X-13740000Y200452000D01*
G75*
G02*
X-13590000Y200302000I0J-150000D01*
G01*
G37*
G36*
G01*
X-13590000Y201572000D02*
X-13590000Y201272000D01*
G75*
G02*
X-13740000Y201122000I-150000J0D01*
G01*
X-15040000Y201122000D01*
G75*
G02*
X-15190000Y201272000I0J150000D01*
G01*
X-15190000Y201572000D01*
G75*
G02*
X-15040000Y201722000I150000J0D01*
G01*
X-13740000Y201722000D01*
G75*
G02*
X-13590000Y201572000I0J-150000D01*
G01*
G37*
G36*
G01*
X-13590000Y202842000D02*
X-13590000Y202542000D01*
G75*
G02*
X-13740000Y202392000I-150000J0D01*
G01*
X-15040000Y202392000D01*
G75*
G02*
X-15190000Y202542000I0J150000D01*
G01*
X-15190000Y202842000D01*
G75*
G02*
X-15040000Y202992000I150000J0D01*
G01*
X-13740000Y202992000D01*
G75*
G02*
X-13590000Y202842000I0J-150000D01*
G01*
G37*
G36*
G01*
X-13590000Y204112000D02*
X-13590000Y203812000D01*
G75*
G02*
X-13740000Y203662000I-150000J0D01*
G01*
X-15040000Y203662000D01*
G75*
G02*
X-15190000Y203812000I0J150000D01*
G01*
X-15190000Y204112000D01*
G75*
G02*
X-15040000Y204262000I150000J0D01*
G01*
X-13740000Y204262000D01*
G75*
G02*
X-13590000Y204112000I0J-150000D01*
G01*
G37*
G36*
G01*
X-20790000Y204112000D02*
X-20790000Y203812000D01*
G75*
G02*
X-20940000Y203662000I-150000J0D01*
G01*
X-22240000Y203662000D01*
G75*
G02*
X-22390000Y203812000I0J150000D01*
G01*
X-22390000Y204112000D01*
G75*
G02*
X-22240000Y204262000I150000J0D01*
G01*
X-20940000Y204262000D01*
G75*
G02*
X-20790000Y204112000I0J-150000D01*
G01*
G37*
G36*
G01*
X-20790000Y202842000D02*
X-20790000Y202542000D01*
G75*
G02*
X-20940000Y202392000I-150000J0D01*
G01*
X-22240000Y202392000D01*
G75*
G02*
X-22390000Y202542000I0J150000D01*
G01*
X-22390000Y202842000D01*
G75*
G02*
X-22240000Y202992000I150000J0D01*
G01*
X-20940000Y202992000D01*
G75*
G02*
X-20790000Y202842000I0J-150000D01*
G01*
G37*
G36*
G01*
X-20790000Y201572000D02*
X-20790000Y201272000D01*
G75*
G02*
X-20940000Y201122000I-150000J0D01*
G01*
X-22240000Y201122000D01*
G75*
G02*
X-22390000Y201272000I0J150000D01*
G01*
X-22390000Y201572000D01*
G75*
G02*
X-22240000Y201722000I150000J0D01*
G01*
X-20940000Y201722000D01*
G75*
G02*
X-20790000Y201572000I0J-150000D01*
G01*
G37*
G36*
G01*
X-20790000Y200302000D02*
X-20790000Y200002000D01*
G75*
G02*
X-20940000Y199852000I-150000J0D01*
G01*
X-22240000Y199852000D01*
G75*
G02*
X-22390000Y200002000I0J150000D01*
G01*
X-22390000Y200302000D01*
G75*
G02*
X-22240000Y200452000I150000J0D01*
G01*
X-20940000Y200452000D01*
G75*
G02*
X-20790000Y200302000I0J-150000D01*
G01*
G37*
%TD*%
%TO.C,D9*%
X-14002000Y207838000D03*
X-14002000Y209738000D03*
X-16002000Y208788000D03*
%TD*%
%TO.C,D14*%
X-44180000Y196342000D03*
X-44180000Y194442000D03*
X-42180000Y195392000D03*
%TD*%
%TO.C,R20*%
G36*
G01*
X-12679500Y199914500D02*
X-12679500Y200389500D01*
G75*
G02*
X-12442000Y200627000I237500J0D01*
G01*
X-11942000Y200627000D01*
G75*
G02*
X-11704500Y200389500I0J-237500D01*
G01*
X-11704500Y199914500D01*
G75*
G02*
X-11942000Y199677000I-237500J0D01*
G01*
X-12442000Y199677000D01*
G75*
G02*
X-12679500Y199914500I0J237500D01*
G01*
G37*
G36*
G01*
X-10854500Y199914500D02*
X-10854500Y200389500D01*
G75*
G02*
X-10617000Y200627000I237500J0D01*
G01*
X-10117000Y200627000D01*
G75*
G02*
X-9879500Y200389500I0J-237500D01*
G01*
X-9879500Y199914500D01*
G75*
G02*
X-10117000Y199677000I-237500J0D01*
G01*
X-10617000Y199677000D01*
G75*
G02*
X-10854500Y199914500I0J237500D01*
G01*
G37*
%TD*%
%TO.C,R31*%
G36*
G01*
X-46973500Y196782500D02*
X-46498500Y196782500D01*
G75*
G02*
X-46261000Y196545000I0J-237500D01*
G01*
X-46261000Y196045000D01*
G75*
G02*
X-46498500Y195807500I-237500J0D01*
G01*
X-46973500Y195807500D01*
G75*
G02*
X-47211000Y196045000I0J237500D01*
G01*
X-47211000Y196545000D01*
G75*
G02*
X-46973500Y196782500I237500J0D01*
G01*
G37*
G36*
G01*
X-46973500Y198607500D02*
X-46498500Y198607500D01*
G75*
G02*
X-46261000Y198370000I0J-237500D01*
G01*
X-46261000Y197870000D01*
G75*
G02*
X-46498500Y197632500I-237500J0D01*
G01*
X-46973500Y197632500D01*
G75*
G02*
X-47211000Y197870000I0J237500D01*
G01*
X-47211000Y198370000D01*
G75*
G02*
X-46973500Y198607500I237500J0D01*
G01*
G37*
%TD*%
%TO.C,R35*%
G36*
G01*
X-57895500Y198400500D02*
X-57420500Y198400500D01*
G75*
G02*
X-57183000Y198163000I0J-237500D01*
G01*
X-57183000Y197663000D01*
G75*
G02*
X-57420500Y197425500I-237500J0D01*
G01*
X-57895500Y197425500D01*
G75*
G02*
X-58133000Y197663000I0J237500D01*
G01*
X-58133000Y198163000D01*
G75*
G02*
X-57895500Y198400500I237500J0D01*
G01*
G37*
G36*
G01*
X-57895500Y196575500D02*
X-57420500Y196575500D01*
G75*
G02*
X-57183000Y196338000I0J-237500D01*
G01*
X-57183000Y195838000D01*
G75*
G02*
X-57420500Y195600500I-237500J0D01*
G01*
X-57895500Y195600500D01*
G75*
G02*
X-58133000Y195838000I0J237500D01*
G01*
X-58133000Y196338000D01*
G75*
G02*
X-57895500Y196575500I237500J0D01*
G01*
G37*
%TD*%
%TO.C,R22*%
G36*
G01*
X-20303500Y195004500D02*
X-19828500Y195004500D01*
G75*
G02*
X-19591000Y194767000I0J-237500D01*
G01*
X-19591000Y194267000D01*
G75*
G02*
X-19828500Y194029500I-237500J0D01*
G01*
X-20303500Y194029500D01*
G75*
G02*
X-20541000Y194267000I0J237500D01*
G01*
X-20541000Y194767000D01*
G75*
G02*
X-20303500Y195004500I237500J0D01*
G01*
G37*
G36*
G01*
X-20303500Y196829500D02*
X-19828500Y196829500D01*
G75*
G02*
X-19591000Y196592000I0J-237500D01*
G01*
X-19591000Y196092000D01*
G75*
G02*
X-19828500Y195854500I-237500J0D01*
G01*
X-20303500Y195854500D01*
G75*
G02*
X-20541000Y196092000I0J237500D01*
G01*
X-20541000Y196592000D01*
G75*
G02*
X-20303500Y196829500I237500J0D01*
G01*
G37*
%TD*%
%TO.C,R32*%
G36*
G01*
X-39945500Y207501500D02*
X-39945500Y207026500D01*
G75*
G02*
X-40183000Y206789000I-237500J0D01*
G01*
X-40683000Y206789000D01*
G75*
G02*
X-40920500Y207026500I0J237500D01*
G01*
X-40920500Y207501500D01*
G75*
G02*
X-40683000Y207739000I237500J0D01*
G01*
X-40183000Y207739000D01*
G75*
G02*
X-39945500Y207501500I0J-237500D01*
G01*
G37*
G36*
G01*
X-38120500Y207501500D02*
X-38120500Y207026500D01*
G75*
G02*
X-38358000Y206789000I-237500J0D01*
G01*
X-38858000Y206789000D01*
G75*
G02*
X-39095500Y207026500I0J237500D01*
G01*
X-39095500Y207501500D01*
G75*
G02*
X-38858000Y207739000I237500J0D01*
G01*
X-38358000Y207739000D01*
G75*
G02*
X-38120500Y207501500I0J-237500D01*
G01*
G37*
%TD*%
%TO.C,R19*%
G36*
G01*
X-17001500Y196829500D02*
X-16526500Y196829500D01*
G75*
G02*
X-16289000Y196592000I0J-237500D01*
G01*
X-16289000Y196092000D01*
G75*
G02*
X-16526500Y195854500I-237500J0D01*
G01*
X-17001500Y195854500D01*
G75*
G02*
X-17239000Y196092000I0J237500D01*
G01*
X-17239000Y196592000D01*
G75*
G02*
X-17001500Y196829500I237500J0D01*
G01*
G37*
G36*
G01*
X-17001500Y195004500D02*
X-16526500Y195004500D01*
G75*
G02*
X-16289000Y194767000I0J-237500D01*
G01*
X-16289000Y194267000D01*
G75*
G02*
X-16526500Y194029500I-237500J0D01*
G01*
X-17001500Y194029500D01*
G75*
G02*
X-17239000Y194267000I0J237500D01*
G01*
X-17239000Y194767000D01*
G75*
G02*
X-17001500Y195004500I237500J0D01*
G01*
G37*
%TD*%
%TO.C,D16*%
X-50054000Y197485000D03*
X-52054000Y196535000D03*
X-52054000Y198435000D03*
%TD*%
%TO.C,R33*%
G36*
G01*
X-49001500Y209439500D02*
X-49001500Y209914500D01*
G75*
G02*
X-48764000Y210152000I237500J0D01*
G01*
X-48264000Y210152000D01*
G75*
G02*
X-48026500Y209914500I0J-237500D01*
G01*
X-48026500Y209439500D01*
G75*
G02*
X-48264000Y209202000I-237500J0D01*
G01*
X-48764000Y209202000D01*
G75*
G02*
X-49001500Y209439500I0J237500D01*
G01*
G37*
G36*
G01*
X-50826500Y209439500D02*
X-50826500Y209914500D01*
G75*
G02*
X-50589000Y210152000I237500J0D01*
G01*
X-50089000Y210152000D01*
G75*
G02*
X-49851500Y209914500I0J-237500D01*
G01*
X-49851500Y209439500D01*
G75*
G02*
X-50089000Y209202000I-237500J0D01*
G01*
X-50589000Y209202000D01*
G75*
G02*
X-50826500Y209439500I0J237500D01*
G01*
G37*
%TD*%
%TO.C,R34*%
G36*
G01*
X-48751500Y205211500D02*
X-48276500Y205211500D01*
G75*
G02*
X-48039000Y204974000I0J-237500D01*
G01*
X-48039000Y204474000D01*
G75*
G02*
X-48276500Y204236500I-237500J0D01*
G01*
X-48751500Y204236500D01*
G75*
G02*
X-48989000Y204474000I0J237500D01*
G01*
X-48989000Y204974000D01*
G75*
G02*
X-48751500Y205211500I237500J0D01*
G01*
G37*
G36*
G01*
X-48751500Y207036500D02*
X-48276500Y207036500D01*
G75*
G02*
X-48039000Y206799000I0J-237500D01*
G01*
X-48039000Y206299000D01*
G75*
G02*
X-48276500Y206061500I-237500J0D01*
G01*
X-48751500Y206061500D01*
G75*
G02*
X-48989000Y206299000I0J237500D01*
G01*
X-48989000Y206799000D01*
G75*
G02*
X-48751500Y207036500I237500J0D01*
G01*
G37*
%TD*%
%TO.C,R27*%
G36*
G01*
X-37067500Y197591500D02*
X-36592500Y197591500D01*
G75*
G02*
X-36355000Y197354000I0J-237500D01*
G01*
X-36355000Y196854000D01*
G75*
G02*
X-36592500Y196616500I-237500J0D01*
G01*
X-37067500Y196616500D01*
G75*
G02*
X-37305000Y196854000I0J237500D01*
G01*
X-37305000Y197354000D01*
G75*
G02*
X-37067500Y197591500I237500J0D01*
G01*
G37*
G36*
G01*
X-37067500Y195766500D02*
X-36592500Y195766500D01*
G75*
G02*
X-36355000Y195529000I0J-237500D01*
G01*
X-36355000Y195029000D01*
G75*
G02*
X-36592500Y194791500I-237500J0D01*
G01*
X-37067500Y194791500D01*
G75*
G02*
X-37305000Y195029000I0J237500D01*
G01*
X-37305000Y195529000D01*
G75*
G02*
X-37067500Y195766500I237500J0D01*
G01*
G37*
%TD*%
%TO.C,R25*%
G36*
G01*
X-29951500Y207487500D02*
X-29951500Y207962500D01*
G75*
G02*
X-29714000Y208200000I237500J0D01*
G01*
X-29214000Y208200000D01*
G75*
G02*
X-28976500Y207962500I0J-237500D01*
G01*
X-28976500Y207487500D01*
G75*
G02*
X-29214000Y207250000I-237500J0D01*
G01*
X-29714000Y207250000D01*
G75*
G02*
X-29951500Y207487500I0J237500D01*
G01*
G37*
G36*
G01*
X-31776500Y207487500D02*
X-31776500Y207962500D01*
G75*
G02*
X-31539000Y208200000I237500J0D01*
G01*
X-31039000Y208200000D01*
G75*
G02*
X-30801500Y207962500I0J-237500D01*
G01*
X-30801500Y207487500D01*
G75*
G02*
X-31039000Y207250000I-237500J0D01*
G01*
X-31539000Y207250000D01*
G75*
G02*
X-31776500Y207487500I0J237500D01*
G01*
G37*
%TD*%
%TO.C,R24*%
G36*
G01*
X-19625500Y207501500D02*
X-19625500Y207026500D01*
G75*
G02*
X-19863000Y206789000I-237500J0D01*
G01*
X-20363000Y206789000D01*
G75*
G02*
X-20600500Y207026500I0J237500D01*
G01*
X-20600500Y207501500D01*
G75*
G02*
X-20363000Y207739000I237500J0D01*
G01*
X-19863000Y207739000D01*
G75*
G02*
X-19625500Y207501500I0J-237500D01*
G01*
G37*
G36*
G01*
X-17800500Y207501500D02*
X-17800500Y207026500D01*
G75*
G02*
X-18038000Y206789000I-237500J0D01*
G01*
X-18538000Y206789000D01*
G75*
G02*
X-18775500Y207026500I0J237500D01*
G01*
X-18775500Y207501500D01*
G75*
G02*
X-18538000Y207739000I237500J0D01*
G01*
X-18038000Y207739000D01*
G75*
G02*
X-17800500Y207501500I0J-237500D01*
G01*
G37*
%TD*%
%TO.C,R29*%
G36*
G01*
X-46000500Y203724500D02*
X-46000500Y204199500D01*
G75*
G02*
X-45763000Y204437000I237500J0D01*
G01*
X-45263000Y204437000D01*
G75*
G02*
X-45025500Y204199500I0J-237500D01*
G01*
X-45025500Y203724500D01*
G75*
G02*
X-45263000Y203487000I-237500J0D01*
G01*
X-45763000Y203487000D01*
G75*
G02*
X-46000500Y203724500I0J237500D01*
G01*
G37*
G36*
G01*
X-44175500Y203724500D02*
X-44175500Y204199500D01*
G75*
G02*
X-43938000Y204437000I237500J0D01*
G01*
X-43438000Y204437000D01*
G75*
G02*
X-43200500Y204199500I0J-237500D01*
G01*
X-43200500Y203724500D01*
G75*
G02*
X-43438000Y203487000I-237500J0D01*
G01*
X-43938000Y203487000D01*
G75*
G02*
X-44175500Y203724500I0J237500D01*
G01*
G37*
%TD*%
%TO.C,R28*%
G36*
G01*
X-32030500Y199914500D02*
X-32030500Y200389500D01*
G75*
G02*
X-31793000Y200627000I237500J0D01*
G01*
X-31293000Y200627000D01*
G75*
G02*
X-31055500Y200389500I0J-237500D01*
G01*
X-31055500Y199914500D01*
G75*
G02*
X-31293000Y199677000I-237500J0D01*
G01*
X-31793000Y199677000D01*
G75*
G02*
X-32030500Y199914500I0J237500D01*
G01*
G37*
G36*
G01*
X-30205500Y199914500D02*
X-30205500Y200389500D01*
G75*
G02*
X-29968000Y200627000I237500J0D01*
G01*
X-29468000Y200627000D01*
G75*
G02*
X-29230500Y200389500I0J-237500D01*
G01*
X-29230500Y199914500D01*
G75*
G02*
X-29468000Y199677000I-237500J0D01*
G01*
X-29968000Y199677000D01*
G75*
G02*
X-30205500Y199914500I0J237500D01*
G01*
G37*
%TD*%
%TO.C,R37*%
G36*
G01*
X-66066500Y204867500D02*
X-66066500Y205342500D01*
G75*
G02*
X-65829000Y205580000I237500J0D01*
G01*
X-65329000Y205580000D01*
G75*
G02*
X-65091500Y205342500I0J-237500D01*
G01*
X-65091500Y204867500D01*
G75*
G02*
X-65329000Y204630000I-237500J0D01*
G01*
X-65829000Y204630000D01*
G75*
G02*
X-66066500Y204867500I0J237500D01*
G01*
G37*
G36*
G01*
X-64241500Y204867500D02*
X-64241500Y205342500D01*
G75*
G02*
X-64004000Y205580000I237500J0D01*
G01*
X-63504000Y205580000D01*
G75*
G02*
X-63266500Y205342500I0J-237500D01*
G01*
X-63266500Y204867500D01*
G75*
G02*
X-63504000Y204630000I-237500J0D01*
G01*
X-64004000Y204630000D01*
G75*
G02*
X-64241500Y204867500I0J237500D01*
G01*
G37*
%TD*%
%TO.C,R36*%
G36*
G01*
X-52303500Y201057500D02*
X-52303500Y201532500D01*
G75*
G02*
X-52066000Y201770000I237500J0D01*
G01*
X-51566000Y201770000D01*
G75*
G02*
X-51328500Y201532500I0J-237500D01*
G01*
X-51328500Y201057500D01*
G75*
G02*
X-51566000Y200820000I-237500J0D01*
G01*
X-52066000Y200820000D01*
G75*
G02*
X-52303500Y201057500I0J237500D01*
G01*
G37*
G36*
G01*
X-50478500Y201057500D02*
X-50478500Y201532500D01*
G75*
G02*
X-50241000Y201770000I237500J0D01*
G01*
X-49741000Y201770000D01*
G75*
G02*
X-49503500Y201532500I0J-237500D01*
G01*
X-49503500Y201057500D01*
G75*
G02*
X-49741000Y200820000I-237500J0D01*
G01*
X-50241000Y200820000D01*
G75*
G02*
X-50478500Y201057500I0J237500D01*
G01*
G37*
%TD*%
D11*
%TO.C,D20*%
X-57846000Y188246000D03*
X-55946000Y188246000D03*
X-56896000Y190246000D03*
%TD*%
%TO.C,D22*%
X-56134000Y179879500D03*
X-55184000Y177879500D03*
X-57084000Y177879500D03*
%TD*%
%TO.C,D21*%
X-71628000Y188150500D03*
X-72578000Y190150500D03*
X-70678000Y190150500D03*
%TD*%
%TO.C,D23*%
X-73660000Y184896000D03*
X-72710000Y182896000D03*
X-74610000Y182896000D03*
%TD*%
%TO.C,R47*%
G36*
G01*
X-69325500Y180216000D02*
X-68850500Y180216000D01*
G75*
G02*
X-68613000Y179978500I0J-237500D01*
G01*
X-68613000Y179478500D01*
G75*
G02*
X-68850500Y179241000I-237500J0D01*
G01*
X-69325500Y179241000D01*
G75*
G02*
X-69563000Y179478500I0J237500D01*
G01*
X-69563000Y179978500D01*
G75*
G02*
X-69325500Y180216000I237500J0D01*
G01*
G37*
G36*
G01*
X-69325500Y178391000D02*
X-68850500Y178391000D01*
G75*
G02*
X-68613000Y178153500I0J-237500D01*
G01*
X-68613000Y177653500D01*
G75*
G02*
X-68850500Y177416000I-237500J0D01*
G01*
X-69325500Y177416000D01*
G75*
G02*
X-69563000Y177653500I0J237500D01*
G01*
X-69563000Y178153500D01*
G75*
G02*
X-69325500Y178391000I237500J0D01*
G01*
G37*
%TD*%
%TO.C,R48*%
G36*
G01*
X-70849500Y183447500D02*
X-70374500Y183447500D01*
G75*
G02*
X-70137000Y183210000I0J-237500D01*
G01*
X-70137000Y182710000D01*
G75*
G02*
X-70374500Y182472500I-237500J0D01*
G01*
X-70849500Y182472500D01*
G75*
G02*
X-71087000Y182710000I0J237500D01*
G01*
X-71087000Y183210000D01*
G75*
G02*
X-70849500Y183447500I237500J0D01*
G01*
G37*
G36*
G01*
X-70849500Y185272500D02*
X-70374500Y185272500D01*
G75*
G02*
X-70137000Y185035000I0J-237500D01*
G01*
X-70137000Y184535000D01*
G75*
G02*
X-70374500Y184297500I-237500J0D01*
G01*
X-70849500Y184297500D01*
G75*
G02*
X-71087000Y184535000I0J237500D01*
G01*
X-71087000Y185035000D01*
G75*
G02*
X-70849500Y185272500I237500J0D01*
G01*
G37*
%TD*%
%TO.C,R41*%
G36*
G01*
X-67186000Y193818500D02*
X-67186000Y194293500D01*
G75*
G02*
X-66948500Y194531000I237500J0D01*
G01*
X-66448500Y194531000D01*
G75*
G02*
X-66211000Y194293500I0J-237500D01*
G01*
X-66211000Y193818500D01*
G75*
G02*
X-66448500Y193581000I-237500J0D01*
G01*
X-66948500Y193581000D01*
G75*
G02*
X-67186000Y193818500I0J237500D01*
G01*
G37*
G36*
G01*
X-65361000Y193818500D02*
X-65361000Y194293500D01*
G75*
G02*
X-65123500Y194531000I237500J0D01*
G01*
X-64623500Y194531000D01*
G75*
G02*
X-64386000Y194293500I0J-237500D01*
G01*
X-64386000Y193818500D01*
G75*
G02*
X-64623500Y193581000I-237500J0D01*
G01*
X-65123500Y193581000D01*
G75*
G02*
X-65361000Y193818500I0J237500D01*
G01*
G37*
%TD*%
%TO.C,U9*%
G36*
G01*
X-62316500Y190474500D02*
X-62016500Y190474500D01*
G75*
G02*
X-61866500Y190324500I0J-150000D01*
G01*
X-61866500Y189024500D01*
G75*
G02*
X-62016500Y188874500I-150000J0D01*
G01*
X-62316500Y188874500D01*
G75*
G02*
X-62466500Y189024500I0J150000D01*
G01*
X-62466500Y190324500D01*
G75*
G02*
X-62316500Y190474500I150000J0D01*
G01*
G37*
G36*
G01*
X-63586500Y190474500D02*
X-63286500Y190474500D01*
G75*
G02*
X-63136500Y190324500I0J-150000D01*
G01*
X-63136500Y189024500D01*
G75*
G02*
X-63286500Y188874500I-150000J0D01*
G01*
X-63586500Y188874500D01*
G75*
G02*
X-63736500Y189024500I0J150000D01*
G01*
X-63736500Y190324500D01*
G75*
G02*
X-63586500Y190474500I150000J0D01*
G01*
G37*
G36*
G01*
X-64856500Y190474500D02*
X-64556500Y190474500D01*
G75*
G02*
X-64406500Y190324500I0J-150000D01*
G01*
X-64406500Y189024500D01*
G75*
G02*
X-64556500Y188874500I-150000J0D01*
G01*
X-64856500Y188874500D01*
G75*
G02*
X-65006500Y189024500I0J150000D01*
G01*
X-65006500Y190324500D01*
G75*
G02*
X-64856500Y190474500I150000J0D01*
G01*
G37*
G36*
G01*
X-66126500Y190474500D02*
X-65826500Y190474500D01*
G75*
G02*
X-65676500Y190324500I0J-150000D01*
G01*
X-65676500Y189024500D01*
G75*
G02*
X-65826500Y188874500I-150000J0D01*
G01*
X-66126500Y188874500D01*
G75*
G02*
X-66276500Y189024500I0J150000D01*
G01*
X-66276500Y190324500D01*
G75*
G02*
X-66126500Y190474500I150000J0D01*
G01*
G37*
G36*
G01*
X-66126500Y183274500D02*
X-65826500Y183274500D01*
G75*
G02*
X-65676500Y183124500I0J-150000D01*
G01*
X-65676500Y181824500D01*
G75*
G02*
X-65826500Y181674500I-150000J0D01*
G01*
X-66126500Y181674500D01*
G75*
G02*
X-66276500Y181824500I0J150000D01*
G01*
X-66276500Y183124500D01*
G75*
G02*
X-66126500Y183274500I150000J0D01*
G01*
G37*
G36*
G01*
X-64856500Y183274500D02*
X-64556500Y183274500D01*
G75*
G02*
X-64406500Y183124500I0J-150000D01*
G01*
X-64406500Y181824500D01*
G75*
G02*
X-64556500Y181674500I-150000J0D01*
G01*
X-64856500Y181674500D01*
G75*
G02*
X-65006500Y181824500I0J150000D01*
G01*
X-65006500Y183124500D01*
G75*
G02*
X-64856500Y183274500I150000J0D01*
G01*
G37*
G36*
G01*
X-63586500Y183274500D02*
X-63286500Y183274500D01*
G75*
G02*
X-63136500Y183124500I0J-150000D01*
G01*
X-63136500Y181824500D01*
G75*
G02*
X-63286500Y181674500I-150000J0D01*
G01*
X-63586500Y181674500D01*
G75*
G02*
X-63736500Y181824500I0J150000D01*
G01*
X-63736500Y183124500D01*
G75*
G02*
X-63586500Y183274500I150000J0D01*
G01*
G37*
G36*
G01*
X-62316500Y183274500D02*
X-62016500Y183274500D01*
G75*
G02*
X-61866500Y183124500I0J-150000D01*
G01*
X-61866500Y181824500D01*
G75*
G02*
X-62016500Y181674500I-150000J0D01*
G01*
X-62316500Y181674500D01*
G75*
G02*
X-62466500Y181824500I0J150000D01*
G01*
X-62466500Y183124500D01*
G75*
G02*
X-62316500Y183274500I150000J0D01*
G01*
G37*
%TD*%
%TO.C,R44*%
G36*
G01*
X-60933500Y192261500D02*
X-60933500Y191786500D01*
G75*
G02*
X-61171000Y191549000I-237500J0D01*
G01*
X-61671000Y191549000D01*
G75*
G02*
X-61908500Y191786500I0J237500D01*
G01*
X-61908500Y192261500D01*
G75*
G02*
X-61671000Y192499000I237500J0D01*
G01*
X-61171000Y192499000D01*
G75*
G02*
X-60933500Y192261500I0J-237500D01*
G01*
G37*
G36*
G01*
X-62758500Y192261500D02*
X-62758500Y191786500D01*
G75*
G02*
X-62996000Y191549000I-237500J0D01*
G01*
X-63496000Y191549000D01*
G75*
G02*
X-63733500Y191786500I0J237500D01*
G01*
X-63733500Y192261500D01*
G75*
G02*
X-63496000Y192499000I237500J0D01*
G01*
X-62996000Y192499000D01*
G75*
G02*
X-62758500Y192261500I0J-237500D01*
G01*
G37*
%TD*%
%TO.C,R43*%
G36*
G01*
X-57674500Y183766000D02*
X-58149500Y183766000D01*
G75*
G02*
X-58387000Y184003500I0J237500D01*
G01*
X-58387000Y184503500D01*
G75*
G02*
X-58149500Y184741000I237500J0D01*
G01*
X-57674500Y184741000D01*
G75*
G02*
X-57437000Y184503500I0J-237500D01*
G01*
X-57437000Y184003500D01*
G75*
G02*
X-57674500Y183766000I-237500J0D01*
G01*
G37*
G36*
G01*
X-57674500Y185591000D02*
X-58149500Y185591000D01*
G75*
G02*
X-58387000Y185828500I0J237500D01*
G01*
X-58387000Y186328500D01*
G75*
G02*
X-58149500Y186566000I237500J0D01*
G01*
X-57674500Y186566000D01*
G75*
G02*
X-57437000Y186328500I0J-237500D01*
G01*
X-57437000Y185828500D01*
G75*
G02*
X-57674500Y185591000I-237500J0D01*
G01*
G37*
%TD*%
%TO.C,R46*%
G36*
G01*
X-65802500Y179344500D02*
X-66277500Y179344500D01*
G75*
G02*
X-66515000Y179582000I0J237500D01*
G01*
X-66515000Y180082000D01*
G75*
G02*
X-66277500Y180319500I237500J0D01*
G01*
X-65802500Y180319500D01*
G75*
G02*
X-65565000Y180082000I0J-237500D01*
G01*
X-65565000Y179582000D01*
G75*
G02*
X-65802500Y179344500I-237500J0D01*
G01*
G37*
G36*
G01*
X-65802500Y177519500D02*
X-66277500Y177519500D01*
G75*
G02*
X-66515000Y177757000I0J237500D01*
G01*
X-66515000Y178257000D01*
G75*
G02*
X-66277500Y178494500I237500J0D01*
G01*
X-65802500Y178494500D01*
G75*
G02*
X-65565000Y178257000I0J-237500D01*
G01*
X-65565000Y177757000D01*
G75*
G02*
X-65802500Y177519500I-237500J0D01*
G01*
G37*
%TD*%
%TO.C,R42*%
G36*
G01*
X-57571000Y193465000D02*
X-58046000Y193465000D01*
G75*
G02*
X-58283500Y193702500I0J237500D01*
G01*
X-58283500Y194202500D01*
G75*
G02*
X-58046000Y194440000I237500J0D01*
G01*
X-57571000Y194440000D01*
G75*
G02*
X-57333500Y194202500I0J-237500D01*
G01*
X-57333500Y193702500D01*
G75*
G02*
X-57571000Y193465000I-237500J0D01*
G01*
G37*
G36*
G01*
X-57571000Y191640000D02*
X-58046000Y191640000D01*
G75*
G02*
X-58283500Y191877500I0J237500D01*
G01*
X-58283500Y192377500D01*
G75*
G02*
X-58046000Y192615000I237500J0D01*
G01*
X-57571000Y192615000D01*
G75*
G02*
X-57333500Y192377500I0J-237500D01*
G01*
X-57333500Y191877500D01*
G75*
G02*
X-57571000Y191640000I-237500J0D01*
G01*
G37*
%TD*%
%TO.C,R45*%
G36*
G01*
X-59560000Y179157000D02*
X-59560000Y178682000D01*
G75*
G02*
X-59797500Y178444500I-237500J0D01*
G01*
X-60297500Y178444500D01*
G75*
G02*
X-60535000Y178682000I0J237500D01*
G01*
X-60535000Y179157000D01*
G75*
G02*
X-60297500Y179394500I237500J0D01*
G01*
X-59797500Y179394500D01*
G75*
G02*
X-59560000Y179157000I0J-237500D01*
G01*
G37*
G36*
G01*
X-61385000Y179157000D02*
X-61385000Y178682000D01*
G75*
G02*
X-61622500Y178444500I-237500J0D01*
G01*
X-62122500Y178444500D01*
G75*
G02*
X-62360000Y178682000I0J237500D01*
G01*
X-62360000Y179157000D01*
G75*
G02*
X-62122500Y179394500I237500J0D01*
G01*
X-61622500Y179394500D01*
G75*
G02*
X-61385000Y179157000I0J-237500D01*
G01*
G37*
%TD*%
D12*
%TO.C,BZ1*%
X-112395000Y292835000D03*
X-112395000Y280235000D03*
%TD*%
%TO.C,F1*%
G36*
G01*
X-81979999Y253589500D02*
X-86930001Y253589500D01*
G75*
G02*
X-87180000Y253839499I0J249999D01*
G01*
X-87180000Y255264501D01*
G75*
G02*
X-86930001Y255514500I249999J0D01*
G01*
X-81979999Y255514500D01*
G75*
G02*
X-81730000Y255264501I0J-249999D01*
G01*
X-81730000Y253839499D01*
G75*
G02*
X-81979999Y253589500I-249999J0D01*
G01*
G37*
G36*
G01*
X-81979999Y246814500D02*
X-86930001Y246814500D01*
G75*
G02*
X-87180000Y247064499I0J249999D01*
G01*
X-87180000Y248489501D01*
G75*
G02*
X-86930001Y248739500I249999J0D01*
G01*
X-81979999Y248739500D01*
G75*
G02*
X-81730000Y248489501I0J-249999D01*
G01*
X-81730000Y247064499D01*
G75*
G02*
X-81979999Y246814500I-249999J0D01*
G01*
G37*
%TD*%
D13*
%TO.C,Q4*%
X-54423000Y277622000D03*
X-54423000Y278892000D03*
X-54423000Y280162000D03*
X-54423000Y282702000D03*
X-54423000Y283972000D03*
X-54423000Y285242000D03*
D14*
X-65998000Y284207000D03*
X-61148000Y278657000D03*
X-65998000Y278657000D03*
X-61148000Y284207000D03*
%TD*%
%TO.C,C1*%
G36*
G01*
X-88309500Y259063500D02*
X-88309500Y258588500D01*
G75*
G02*
X-88547000Y258351000I-237500J0D01*
G01*
X-89147000Y258351000D01*
G75*
G02*
X-89384500Y258588500I0J237500D01*
G01*
X-89384500Y259063500D01*
G75*
G02*
X-89147000Y259301000I237500J0D01*
G01*
X-88547000Y259301000D01*
G75*
G02*
X-88309500Y259063500I0J-237500D01*
G01*
G37*
G36*
G01*
X-86584500Y259063500D02*
X-86584500Y258588500D01*
G75*
G02*
X-86822000Y258351000I-237500J0D01*
G01*
X-87422000Y258351000D01*
G75*
G02*
X-87659500Y258588500I0J237500D01*
G01*
X-87659500Y259063500D01*
G75*
G02*
X-87422000Y259301000I237500J0D01*
G01*
X-86822000Y259301000D01*
G75*
G02*
X-86584500Y259063500I0J-237500D01*
G01*
G37*
%TD*%
%TO.C,C3*%
G36*
G01*
X-115807500Y191545500D02*
X-115332500Y191545500D01*
G75*
G02*
X-115095000Y191308000I0J-237500D01*
G01*
X-115095000Y190708000D01*
G75*
G02*
X-115332500Y190470500I-237500J0D01*
G01*
X-115807500Y190470500D01*
G75*
G02*
X-116045000Y190708000I0J237500D01*
G01*
X-116045000Y191308000D01*
G75*
G02*
X-115807500Y191545500I237500J0D01*
G01*
G37*
G36*
G01*
X-115807500Y189820500D02*
X-115332500Y189820500D01*
G75*
G02*
X-115095000Y189583000I0J-237500D01*
G01*
X-115095000Y188983000D01*
G75*
G02*
X-115332500Y188745500I-237500J0D01*
G01*
X-115807500Y188745500D01*
G75*
G02*
X-116045000Y188983000I0J237500D01*
G01*
X-116045000Y189583000D01*
G75*
G02*
X-115807500Y189820500I237500J0D01*
G01*
G37*
%TD*%
%TO.C,C4*%
G36*
G01*
X-118601500Y189820500D02*
X-118126500Y189820500D01*
G75*
G02*
X-117889000Y189583000I0J-237500D01*
G01*
X-117889000Y188983000D01*
G75*
G02*
X-118126500Y188745500I-237500J0D01*
G01*
X-118601500Y188745500D01*
G75*
G02*
X-118839000Y188983000I0J237500D01*
G01*
X-118839000Y189583000D01*
G75*
G02*
X-118601500Y189820500I237500J0D01*
G01*
G37*
G36*
G01*
X-118601500Y191545500D02*
X-118126500Y191545500D01*
G75*
G02*
X-117889000Y191308000I0J-237500D01*
G01*
X-117889000Y190708000D01*
G75*
G02*
X-118126500Y190470500I-237500J0D01*
G01*
X-118601500Y190470500D01*
G75*
G02*
X-118839000Y190708000I0J237500D01*
G01*
X-118839000Y191308000D01*
G75*
G02*
X-118601500Y191545500I237500J0D01*
G01*
G37*
%TD*%
%TO.C,C6*%
G36*
G01*
X-95929500Y201913500D02*
X-95929500Y201438500D01*
G75*
G02*
X-96167000Y201201000I-237500J0D01*
G01*
X-96767000Y201201000D01*
G75*
G02*
X-97004500Y201438500I0J237500D01*
G01*
X-97004500Y201913500D01*
G75*
G02*
X-96767000Y202151000I237500J0D01*
G01*
X-96167000Y202151000D01*
G75*
G02*
X-95929500Y201913500I0J-237500D01*
G01*
G37*
G36*
G01*
X-94204500Y201913500D02*
X-94204500Y201438500D01*
G75*
G02*
X-94442000Y201201000I-237500J0D01*
G01*
X-95042000Y201201000D01*
G75*
G02*
X-95279500Y201438500I0J237500D01*
G01*
X-95279500Y201913500D01*
G75*
G02*
X-95042000Y202151000I237500J0D01*
G01*
X-94442000Y202151000D01*
G75*
G02*
X-94204500Y201913500I0J-237500D01*
G01*
G37*
%TD*%
%TO.C,C7*%
G36*
G01*
X-94204500Y198865500D02*
X-94204500Y198390500D01*
G75*
G02*
X-94442000Y198153000I-237500J0D01*
G01*
X-95042000Y198153000D01*
G75*
G02*
X-95279500Y198390500I0J237500D01*
G01*
X-95279500Y198865500D01*
G75*
G02*
X-95042000Y199103000I237500J0D01*
G01*
X-94442000Y199103000D01*
G75*
G02*
X-94204500Y198865500I0J-237500D01*
G01*
G37*
G36*
G01*
X-95929500Y198865500D02*
X-95929500Y198390500D01*
G75*
G02*
X-96167000Y198153000I-237500J0D01*
G01*
X-96767000Y198153000D01*
G75*
G02*
X-97004500Y198390500I0J237500D01*
G01*
X-97004500Y198865500D01*
G75*
G02*
X-96767000Y199103000I237500J0D01*
G01*
X-96167000Y199103000D01*
G75*
G02*
X-95929500Y198865500I0J-237500D01*
G01*
G37*
%TD*%
%TO.C,C8*%
G36*
G01*
X-33330000Y228743500D02*
X-33330000Y229218500D01*
G75*
G02*
X-33092500Y229456000I237500J0D01*
G01*
X-32492500Y229456000D01*
G75*
G02*
X-32255000Y229218500I0J-237500D01*
G01*
X-32255000Y228743500D01*
G75*
G02*
X-32492500Y228506000I-237500J0D01*
G01*
X-33092500Y228506000D01*
G75*
G02*
X-33330000Y228743500I0J237500D01*
G01*
G37*
G36*
G01*
X-35055000Y228743500D02*
X-35055000Y229218500D01*
G75*
G02*
X-34817500Y229456000I237500J0D01*
G01*
X-34217500Y229456000D01*
G75*
G02*
X-33980000Y229218500I0J-237500D01*
G01*
X-33980000Y228743500D01*
G75*
G02*
X-34217500Y228506000I-237500J0D01*
G01*
X-34817500Y228506000D01*
G75*
G02*
X-35055000Y228743500I0J237500D01*
G01*
G37*
%TD*%
%TO.C,D2*%
G36*
G01*
X-103267500Y211325000D02*
X-103742500Y211325000D01*
G75*
G02*
X-103980000Y211562500I0J237500D01*
G01*
X-103980000Y212137500D01*
G75*
G02*
X-103742500Y212375000I237500J0D01*
G01*
X-103267500Y212375000D01*
G75*
G02*
X-103030000Y212137500I0J-237500D01*
G01*
X-103030000Y211562500D01*
G75*
G02*
X-103267500Y211325000I-237500J0D01*
G01*
G37*
G36*
G01*
X-103267500Y213075000D02*
X-103742500Y213075000D01*
G75*
G02*
X-103980000Y213312500I0J237500D01*
G01*
X-103980000Y213887500D01*
G75*
G02*
X-103742500Y214125000I237500J0D01*
G01*
X-103267500Y214125000D01*
G75*
G02*
X-103030000Y213887500I0J-237500D01*
G01*
X-103030000Y213312500D01*
G75*
G02*
X-103267500Y213075000I-237500J0D01*
G01*
G37*
%TD*%
D10*
%TO.C,D3*%
X-90964000Y266065000D03*
X-92964000Y265115000D03*
X-92964000Y267015000D03*
%TD*%
%TO.C,D4*%
G36*
G01*
X-112538500Y188733000D02*
X-113013500Y188733000D01*
G75*
G02*
X-113251000Y188970500I0J237500D01*
G01*
X-113251000Y189545500D01*
G75*
G02*
X-113013500Y189783000I237500J0D01*
G01*
X-112538500Y189783000D01*
G75*
G02*
X-112301000Y189545500I0J-237500D01*
G01*
X-112301000Y188970500D01*
G75*
G02*
X-112538500Y188733000I-237500J0D01*
G01*
G37*
G36*
G01*
X-112538500Y190483000D02*
X-113013500Y190483000D01*
G75*
G02*
X-113251000Y190720500I0J237500D01*
G01*
X-113251000Y191295500D01*
G75*
G02*
X-113013500Y191533000I237500J0D01*
G01*
X-112538500Y191533000D01*
G75*
G02*
X-112301000Y191295500I0J-237500D01*
G01*
X-112301000Y190720500D01*
G75*
G02*
X-112538500Y190483000I-237500J0D01*
G01*
G37*
%TD*%
%TO.C,D5*%
G36*
G01*
X-98950000Y240681500D02*
X-98950000Y241156500D01*
G75*
G02*
X-98712500Y241394000I237500J0D01*
G01*
X-98137500Y241394000D01*
G75*
G02*
X-97900000Y241156500I0J-237500D01*
G01*
X-97900000Y240681500D01*
G75*
G02*
X-98137500Y240444000I-237500J0D01*
G01*
X-98712500Y240444000D01*
G75*
G02*
X-98950000Y240681500I0J237500D01*
G01*
G37*
G36*
G01*
X-97200000Y240681500D02*
X-97200000Y241156500D01*
G75*
G02*
X-96962500Y241394000I237500J0D01*
G01*
X-96387500Y241394000D01*
G75*
G02*
X-96150000Y241156500I0J-237500D01*
G01*
X-96150000Y240681500D01*
G75*
G02*
X-96387500Y240444000I-237500J0D01*
G01*
X-96962500Y240444000D01*
G75*
G02*
X-97200000Y240681500I0J237500D01*
G01*
G37*
%TD*%
%TO.C,D6*%
G36*
G01*
X-98922000Y237379500D02*
X-98922000Y237854500D01*
G75*
G02*
X-98684500Y238092000I237500J0D01*
G01*
X-98109500Y238092000D01*
G75*
G02*
X-97872000Y237854500I0J-237500D01*
G01*
X-97872000Y237379500D01*
G75*
G02*
X-98109500Y237142000I-237500J0D01*
G01*
X-98684500Y237142000D01*
G75*
G02*
X-98922000Y237379500I0J237500D01*
G01*
G37*
G36*
G01*
X-97172000Y237379500D02*
X-97172000Y237854500D01*
G75*
G02*
X-96934500Y238092000I237500J0D01*
G01*
X-96359500Y238092000D01*
G75*
G02*
X-96122000Y237854500I0J-237500D01*
G01*
X-96122000Y237379500D01*
G75*
G02*
X-96359500Y237142000I-237500J0D01*
G01*
X-96934500Y237142000D01*
G75*
G02*
X-97172000Y237379500I0J237500D01*
G01*
G37*
%TD*%
%TO.C,D7*%
G36*
G01*
X-87520000Y275479500D02*
X-87520000Y275954500D01*
G75*
G02*
X-87282500Y276192000I237500J0D01*
G01*
X-86707500Y276192000D01*
G75*
G02*
X-86470000Y275954500I0J-237500D01*
G01*
X-86470000Y275479500D01*
G75*
G02*
X-86707500Y275242000I-237500J0D01*
G01*
X-87282500Y275242000D01*
G75*
G02*
X-87520000Y275479500I0J237500D01*
G01*
G37*
G36*
G01*
X-89270000Y275479500D02*
X-89270000Y275954500D01*
G75*
G02*
X-89032500Y276192000I237500J0D01*
G01*
X-88457500Y276192000D01*
G75*
G02*
X-88220000Y275954500I0J-237500D01*
G01*
X-88220000Y275479500D01*
G75*
G02*
X-88457500Y275242000I-237500J0D01*
G01*
X-89032500Y275242000D01*
G75*
G02*
X-89270000Y275479500I0J237500D01*
G01*
G37*
%TD*%
%TO.C,R1*%
G36*
G01*
X-95012500Y287191000D02*
X-95487500Y287191000D01*
G75*
G02*
X-95725000Y287428500I0J237500D01*
G01*
X-95725000Y287928500D01*
G75*
G02*
X-95487500Y288166000I237500J0D01*
G01*
X-95012500Y288166000D01*
G75*
G02*
X-94775000Y287928500I0J-237500D01*
G01*
X-94775000Y287428500D01*
G75*
G02*
X-95012500Y287191000I-237500J0D01*
G01*
G37*
G36*
G01*
X-95012500Y285366000D02*
X-95487500Y285366000D01*
G75*
G02*
X-95725000Y285603500I0J237500D01*
G01*
X-95725000Y286103500D01*
G75*
G02*
X-95487500Y286341000I237500J0D01*
G01*
X-95012500Y286341000D01*
G75*
G02*
X-94775000Y286103500I0J-237500D01*
G01*
X-94775000Y285603500D01*
G75*
G02*
X-95012500Y285366000I-237500J0D01*
G01*
G37*
%TD*%
%TO.C,R2*%
G36*
G01*
X-89307500Y272177500D02*
X-89307500Y272652500D01*
G75*
G02*
X-89070000Y272890000I237500J0D01*
G01*
X-88570000Y272890000D01*
G75*
G02*
X-88332500Y272652500I0J-237500D01*
G01*
X-88332500Y272177500D01*
G75*
G02*
X-88570000Y271940000I-237500J0D01*
G01*
X-89070000Y271940000D01*
G75*
G02*
X-89307500Y272177500I0J237500D01*
G01*
G37*
G36*
G01*
X-87482500Y272177500D02*
X-87482500Y272652500D01*
G75*
G02*
X-87245000Y272890000I237500J0D01*
G01*
X-86745000Y272890000D01*
G75*
G02*
X-86507500Y272652500I0J-237500D01*
G01*
X-86507500Y272177500D01*
G75*
G02*
X-86745000Y271940000I-237500J0D01*
G01*
X-87245000Y271940000D01*
G75*
G02*
X-87482500Y272177500I0J237500D01*
G01*
G37*
%TD*%
%TO.C,R4*%
G36*
G01*
X-92269500Y272652500D02*
X-92269500Y272177500D01*
G75*
G02*
X-92507000Y271940000I-237500J0D01*
G01*
X-93007000Y271940000D01*
G75*
G02*
X-93244500Y272177500I0J237500D01*
G01*
X-93244500Y272652500D01*
G75*
G02*
X-93007000Y272890000I237500J0D01*
G01*
X-92507000Y272890000D01*
G75*
G02*
X-92269500Y272652500I0J-237500D01*
G01*
G37*
G36*
G01*
X-90444500Y272652500D02*
X-90444500Y272177500D01*
G75*
G02*
X-90682000Y271940000I-237500J0D01*
G01*
X-91182000Y271940000D01*
G75*
G02*
X-91419500Y272177500I0J237500D01*
G01*
X-91419500Y272652500D01*
G75*
G02*
X-91182000Y272890000I237500J0D01*
G01*
X-90682000Y272890000D01*
G75*
G02*
X-90444500Y272652500I0J-237500D01*
G01*
G37*
%TD*%
%TO.C,R5*%
G36*
G01*
X-105647500Y272267500D02*
X-105172500Y272267500D01*
G75*
G02*
X-104935000Y272030000I0J-237500D01*
G01*
X-104935000Y271530000D01*
G75*
G02*
X-105172500Y271292500I-237500J0D01*
G01*
X-105647500Y271292500D01*
G75*
G02*
X-105885000Y271530000I0J237500D01*
G01*
X-105885000Y272030000D01*
G75*
G02*
X-105647500Y272267500I237500J0D01*
G01*
G37*
G36*
G01*
X-105647500Y274092500D02*
X-105172500Y274092500D01*
G75*
G02*
X-104935000Y273855000I0J-237500D01*
G01*
X-104935000Y273355000D01*
G75*
G02*
X-105172500Y273117500I-237500J0D01*
G01*
X-105647500Y273117500D01*
G75*
G02*
X-105885000Y273355000I0J237500D01*
G01*
X-105885000Y273855000D01*
G75*
G02*
X-105647500Y274092500I237500J0D01*
G01*
G37*
%TD*%
%TO.C,R8*%
G36*
G01*
X-106169000Y212073500D02*
X-106169000Y211598500D01*
G75*
G02*
X-106406500Y211361000I-237500J0D01*
G01*
X-106906500Y211361000D01*
G75*
G02*
X-107144000Y211598500I0J237500D01*
G01*
X-107144000Y212073500D01*
G75*
G02*
X-106906500Y212311000I237500J0D01*
G01*
X-106406500Y212311000D01*
G75*
G02*
X-106169000Y212073500I0J-237500D01*
G01*
G37*
G36*
G01*
X-107994000Y212073500D02*
X-107994000Y211598500D01*
G75*
G02*
X-108231500Y211361000I-237500J0D01*
G01*
X-108731500Y211361000D01*
G75*
G02*
X-108969000Y211598500I0J237500D01*
G01*
X-108969000Y212073500D01*
G75*
G02*
X-108731500Y212311000I237500J0D01*
G01*
X-108231500Y212311000D01*
G75*
G02*
X-107994000Y212073500I0J-237500D01*
G01*
G37*
%TD*%
%TO.C,R9*%
G36*
G01*
X-107120500Y208550500D02*
X-107120500Y209025500D01*
G75*
G02*
X-106883000Y209263000I237500J0D01*
G01*
X-106383000Y209263000D01*
G75*
G02*
X-106145500Y209025500I0J-237500D01*
G01*
X-106145500Y208550500D01*
G75*
G02*
X-106383000Y208313000I-237500J0D01*
G01*
X-106883000Y208313000D01*
G75*
G02*
X-107120500Y208550500I0J237500D01*
G01*
G37*
G36*
G01*
X-108945500Y208550500D02*
X-108945500Y209025500D01*
G75*
G02*
X-108708000Y209263000I237500J0D01*
G01*
X-108208000Y209263000D01*
G75*
G02*
X-107970500Y209025500I0J-237500D01*
G01*
X-107970500Y208550500D01*
G75*
G02*
X-108208000Y208313000I-237500J0D01*
G01*
X-108708000Y208313000D01*
G75*
G02*
X-108945500Y208550500I0J237500D01*
G01*
G37*
%TD*%
%TO.C,R10*%
G36*
G01*
X-86507500Y266302500D02*
X-86507500Y265827500D01*
G75*
G02*
X-86745000Y265590000I-237500J0D01*
G01*
X-87245000Y265590000D01*
G75*
G02*
X-87482500Y265827500I0J237500D01*
G01*
X-87482500Y266302500D01*
G75*
G02*
X-87245000Y266540000I237500J0D01*
G01*
X-86745000Y266540000D01*
G75*
G02*
X-86507500Y266302500I0J-237500D01*
G01*
G37*
G36*
G01*
X-88332500Y266302500D02*
X-88332500Y265827500D01*
G75*
G02*
X-88570000Y265590000I-237500J0D01*
G01*
X-89070000Y265590000D01*
G75*
G02*
X-89307500Y265827500I0J237500D01*
G01*
X-89307500Y266302500D01*
G75*
G02*
X-89070000Y266540000I237500J0D01*
G01*
X-88570000Y266540000D01*
G75*
G02*
X-88332500Y266302500I0J-237500D01*
G01*
G37*
%TD*%
%TO.C,R11*%
G36*
G01*
X-90087000Y269477500D02*
X-90087000Y269002500D01*
G75*
G02*
X-90324500Y268765000I-237500J0D01*
G01*
X-90824500Y268765000D01*
G75*
G02*
X-91062000Y269002500I0J237500D01*
G01*
X-91062000Y269477500D01*
G75*
G02*
X-90824500Y269715000I237500J0D01*
G01*
X-90324500Y269715000D01*
G75*
G02*
X-90087000Y269477500I0J-237500D01*
G01*
G37*
G36*
G01*
X-88262000Y269477500D02*
X-88262000Y269002500D01*
G75*
G02*
X-88499500Y268765000I-237500J0D01*
G01*
X-88999500Y268765000D01*
G75*
G02*
X-89237000Y269002500I0J237500D01*
G01*
X-89237000Y269477500D01*
G75*
G02*
X-88999500Y269715000I237500J0D01*
G01*
X-88499500Y269715000D01*
G75*
G02*
X-88262000Y269477500I0J-237500D01*
G01*
G37*
%TD*%
%TO.C,R12*%
G36*
G01*
X-113013500Y186923500D02*
X-112538500Y186923500D01*
G75*
G02*
X-112301000Y186686000I0J-237500D01*
G01*
X-112301000Y186186000D01*
G75*
G02*
X-112538500Y185948500I-237500J0D01*
G01*
X-113013500Y185948500D01*
G75*
G02*
X-113251000Y186186000I0J237500D01*
G01*
X-113251000Y186686000D01*
G75*
G02*
X-113013500Y186923500I237500J0D01*
G01*
G37*
G36*
G01*
X-113013500Y185098500D02*
X-112538500Y185098500D01*
G75*
G02*
X-112301000Y184861000I0J-237500D01*
G01*
X-112301000Y184361000D01*
G75*
G02*
X-112538500Y184123500I-237500J0D01*
G01*
X-113013500Y184123500D01*
G75*
G02*
X-113251000Y184361000I0J237500D01*
G01*
X-113251000Y184861000D01*
G75*
G02*
X-113013500Y185098500I237500J0D01*
G01*
G37*
%TD*%
%TO.C,R13*%
G36*
G01*
X-100477500Y241156500D02*
X-100477500Y240681500D01*
G75*
G02*
X-100715000Y240444000I-237500J0D01*
G01*
X-101215000Y240444000D01*
G75*
G02*
X-101452500Y240681500I0J237500D01*
G01*
X-101452500Y241156500D01*
G75*
G02*
X-101215000Y241394000I237500J0D01*
G01*
X-100715000Y241394000D01*
G75*
G02*
X-100477500Y241156500I0J-237500D01*
G01*
G37*
G36*
G01*
X-102302500Y241156500D02*
X-102302500Y240681500D01*
G75*
G02*
X-102540000Y240444000I-237500J0D01*
G01*
X-103040000Y240444000D01*
G75*
G02*
X-103277500Y240681500I0J237500D01*
G01*
X-103277500Y241156500D01*
G75*
G02*
X-103040000Y241394000I237500J0D01*
G01*
X-102540000Y241394000D01*
G75*
G02*
X-102302500Y241156500I0J-237500D01*
G01*
G37*
%TD*%
%TO.C,R14*%
G36*
G01*
X-100477500Y237854500D02*
X-100477500Y237379500D01*
G75*
G02*
X-100715000Y237142000I-237500J0D01*
G01*
X-101215000Y237142000D01*
G75*
G02*
X-101452500Y237379500I0J237500D01*
G01*
X-101452500Y237854500D01*
G75*
G02*
X-101215000Y238092000I237500J0D01*
G01*
X-100715000Y238092000D01*
G75*
G02*
X-100477500Y237854500I0J-237500D01*
G01*
G37*
G36*
G01*
X-102302500Y237854500D02*
X-102302500Y237379500D01*
G75*
G02*
X-102540000Y237142000I-237500J0D01*
G01*
X-103040000Y237142000D01*
G75*
G02*
X-103277500Y237379500I0J237500D01*
G01*
X-103277500Y237854500D01*
G75*
G02*
X-103040000Y238092000I237500J0D01*
G01*
X-102540000Y238092000D01*
G75*
G02*
X-102302500Y237854500I0J-237500D01*
G01*
G37*
%TD*%
%TO.C,R15*%
G36*
G01*
X-90317500Y275954500D02*
X-90317500Y275479500D01*
G75*
G02*
X-90555000Y275242000I-237500J0D01*
G01*
X-91055000Y275242000D01*
G75*
G02*
X-91292500Y275479500I0J237500D01*
G01*
X-91292500Y275954500D01*
G75*
G02*
X-91055000Y276192000I237500J0D01*
G01*
X-90555000Y276192000D01*
G75*
G02*
X-90317500Y275954500I0J-237500D01*
G01*
G37*
G36*
G01*
X-92142500Y275954500D02*
X-92142500Y275479500D01*
G75*
G02*
X-92380000Y275242000I-237500J0D01*
G01*
X-92880000Y275242000D01*
G75*
G02*
X-93117500Y275479500I0J237500D01*
G01*
X-93117500Y275954500D01*
G75*
G02*
X-92880000Y276192000I237500J0D01*
G01*
X-92380000Y276192000D01*
G75*
G02*
X-92142500Y275954500I0J-237500D01*
G01*
G37*
%TD*%
%TO.C,R16*%
G36*
G01*
X-92072000Y269477500D02*
X-92072000Y269002500D01*
G75*
G02*
X-92309500Y268765000I-237500J0D01*
G01*
X-92809500Y268765000D01*
G75*
G02*
X-93047000Y269002500I0J237500D01*
G01*
X-93047000Y269477500D01*
G75*
G02*
X-92809500Y269715000I237500J0D01*
G01*
X-92309500Y269715000D01*
G75*
G02*
X-92072000Y269477500I0J-237500D01*
G01*
G37*
G36*
G01*
X-93897000Y269477500D02*
X-93897000Y269002500D01*
G75*
G02*
X-94134500Y268765000I-237500J0D01*
G01*
X-94634500Y268765000D01*
G75*
G02*
X-94872000Y269002500I0J237500D01*
G01*
X-94872000Y269477500D01*
G75*
G02*
X-94634500Y269715000I237500J0D01*
G01*
X-94134500Y269715000D01*
G75*
G02*
X-93897000Y269477500I0J-237500D01*
G01*
G37*
%TD*%
%TO.C,U3*%
G36*
G01*
X-92030000Y289537000D02*
X-92030000Y289837000D01*
G75*
G02*
X-91880000Y289987000I150000J0D01*
G01*
X-90580000Y289987000D01*
G75*
G02*
X-90430000Y289837000I0J-150000D01*
G01*
X-90430000Y289537000D01*
G75*
G02*
X-90580000Y289387000I-150000J0D01*
G01*
X-91880000Y289387000D01*
G75*
G02*
X-92030000Y289537000I0J150000D01*
G01*
G37*
G36*
G01*
X-92030000Y288267000D02*
X-92030000Y288567000D01*
G75*
G02*
X-91880000Y288717000I150000J0D01*
G01*
X-90580000Y288717000D01*
G75*
G02*
X-90430000Y288567000I0J-150000D01*
G01*
X-90430000Y288267000D01*
G75*
G02*
X-90580000Y288117000I-150000J0D01*
G01*
X-91880000Y288117000D01*
G75*
G02*
X-92030000Y288267000I0J150000D01*
G01*
G37*
G36*
G01*
X-92030000Y286997000D02*
X-92030000Y287297000D01*
G75*
G02*
X-91880000Y287447000I150000J0D01*
G01*
X-90580000Y287447000D01*
G75*
G02*
X-90430000Y287297000I0J-150000D01*
G01*
X-90430000Y286997000D01*
G75*
G02*
X-90580000Y286847000I-150000J0D01*
G01*
X-91880000Y286847000D01*
G75*
G02*
X-92030000Y286997000I0J150000D01*
G01*
G37*
G36*
G01*
X-92030000Y285727000D02*
X-92030000Y286027000D01*
G75*
G02*
X-91880000Y286177000I150000J0D01*
G01*
X-90580000Y286177000D01*
G75*
G02*
X-90430000Y286027000I0J-150000D01*
G01*
X-90430000Y285727000D01*
G75*
G02*
X-90580000Y285577000I-150000J0D01*
G01*
X-91880000Y285577000D01*
G75*
G02*
X-92030000Y285727000I0J150000D01*
G01*
G37*
G36*
G01*
X-84830000Y285727000D02*
X-84830000Y286027000D01*
G75*
G02*
X-84680000Y286177000I150000J0D01*
G01*
X-83380000Y286177000D01*
G75*
G02*
X-83230000Y286027000I0J-150000D01*
G01*
X-83230000Y285727000D01*
G75*
G02*
X-83380000Y285577000I-150000J0D01*
G01*
X-84680000Y285577000D01*
G75*
G02*
X-84830000Y285727000I0J150000D01*
G01*
G37*
G36*
G01*
X-84830000Y286997000D02*
X-84830000Y287297000D01*
G75*
G02*
X-84680000Y287447000I150000J0D01*
G01*
X-83380000Y287447000D01*
G75*
G02*
X-83230000Y287297000I0J-150000D01*
G01*
X-83230000Y286997000D01*
G75*
G02*
X-83380000Y286847000I-150000J0D01*
G01*
X-84680000Y286847000D01*
G75*
G02*
X-84830000Y286997000I0J150000D01*
G01*
G37*
G36*
G01*
X-84830000Y288267000D02*
X-84830000Y288567000D01*
G75*
G02*
X-84680000Y288717000I150000J0D01*
G01*
X-83380000Y288717000D01*
G75*
G02*
X-83230000Y288567000I0J-150000D01*
G01*
X-83230000Y288267000D01*
G75*
G02*
X-83380000Y288117000I-150000J0D01*
G01*
X-84680000Y288117000D01*
G75*
G02*
X-84830000Y288267000I0J150000D01*
G01*
G37*
G36*
G01*
X-84830000Y289537000D02*
X-84830000Y289837000D01*
G75*
G02*
X-84680000Y289987000I150000J0D01*
G01*
X-83380000Y289987000D01*
G75*
G02*
X-83230000Y289837000I0J-150000D01*
G01*
X-83230000Y289537000D01*
G75*
G02*
X-83380000Y289387000I-150000J0D01*
G01*
X-84680000Y289387000D01*
G75*
G02*
X-84830000Y289537000I0J150000D01*
G01*
G37*
%TD*%
M02*
