%TF.GenerationSoftware,KiCad,Pcbnew,(5.1.10)-1*%
%TF.CreationDate,2022-03-20T14:43:40-05:00*%
%TF.ProjectId,BMS_2022_Rev1,424d535f-3230-4323-925f-526576312e6b,rev?*%
%TF.SameCoordinates,Original*%
%TF.FileFunction,Soldermask,Bot*%
%TF.FilePolarity,Negative*%
%FSLAX46Y46*%
G04 Gerber Fmt 4.6, Leading zero omitted, Abs format (unit mm)*
G04 Created by KiCad (PCBNEW (5.1.10)-1) date 2022-03-20 14:43:40*
%MOMM*%
%LPD*%
G01*
G04 APERTURE LIST*
%ADD10C,2.000000*%
%ADD11C,1.400000*%
%ADD12C,4.000000*%
%ADD13C,1.100000*%
%ADD14C,2.946400*%
%ADD15C,1.270000*%
%ADD16C,1.530000*%
%ADD17R,1.530000X1.530000*%
%ADD18C,1.308000*%
%ADD19C,1.208000*%
%ADD20C,1.258000*%
%ADD21R,1.520000X1.520000*%
%ADD22C,1.520000*%
%ADD23C,1.600000*%
%ADD24R,1.600000X1.600000*%
%ADD25C,5.080000*%
%ADD26R,1.500000X1.050000*%
%ADD27O,1.500000X1.050000*%
%ADD28R,1.050000X1.500000*%
%ADD29O,1.050000X1.500000*%
%ADD30C,1.501140*%
%ADD31O,9.144000X5.588000*%
%ADD32C,18.288000*%
%ADD33R,1.350000X1.350000*%
%ADD34O,1.350000X1.350000*%
%ADD35C,1.524000*%
%ADD36C,1.358000*%
%ADD37R,1.358000X1.358000*%
G04 APERTURE END LIST*
D10*
%TO.C,J4*%
X-23543000Y230635000D03*
X-23543000Y214885000D03*
D11*
X-15413000Y216435000D03*
X-17203000Y229085000D03*
X-17203000Y218975000D03*
X-15413000Y226545000D03*
D12*
X-20493000Y217045000D03*
X-20493000Y228475000D03*
D13*
X-26843000Y218315000D03*
X-26843000Y220855000D03*
X-26843000Y223395000D03*
X-26843000Y225935000D03*
X-29383000Y219585000D03*
X-29383000Y222125000D03*
X-29383000Y224665000D03*
X-29383000Y227205000D03*
%TD*%
D14*
%TO.C,REF\u002A\u002A*%
X-10972800Y237083600D03*
%TD*%
%TO.C,REF\u002A\u002A*%
X-117246400Y237134400D03*
%TD*%
%TO.C,REF\u002A\u002A*%
X-10977880Y179887880D03*
%TD*%
%TO.C,REF\u002A\u002A*%
X-117292120Y179887880D03*
%TD*%
%TO.C,REF\u002A\u002A*%
X-32385000Y295148000D03*
%TD*%
%TO.C,REF\u002A\u002A*%
X-95885000Y295275000D03*
%TD*%
D15*
%TO.C,Conn5*%
X-72440800Y247294400D03*
X-72440800Y238302800D03*
D16*
X-70485000Y244297200D03*
D17*
X-70485000Y241300000D03*
%TD*%
D18*
%TO.C,U1*%
X-40386000Y233934000D03*
X-42926000Y233934000D03*
X-86106000Y231394000D03*
X-86106000Y228854000D03*
X-86106000Y226314000D03*
X-86106000Y221234000D03*
X-42926000Y221234000D03*
X-86106000Y223774000D03*
X-75946000Y218694000D03*
D19*
X-55356000Y221144000D03*
X-53356000Y221144000D03*
X-55356000Y223144000D03*
X-55356000Y225144000D03*
X-53356000Y223144000D03*
X-53356000Y225144000D03*
D20*
X-46736000Y230884000D03*
X-49276000Y230884000D03*
X-51816000Y230884000D03*
X-54356000Y230884000D03*
X-56896000Y230884000D03*
D18*
X-45466000Y233934000D03*
X-48006000Y233934000D03*
X-50546000Y233934000D03*
X-53086000Y233934000D03*
X-55626000Y233934000D03*
X-58166000Y233934000D03*
X-60706000Y233934000D03*
X-63246000Y233934000D03*
X-65786000Y233934000D03*
X-68326000Y233934000D03*
X-70866000Y233934000D03*
X-73406000Y233934000D03*
X-75946000Y233934000D03*
X-73406000Y218694000D03*
X-70866000Y218694000D03*
X-68326000Y218694000D03*
X-65786000Y218694000D03*
X-63246000Y218694000D03*
X-60706000Y218694000D03*
X-58166000Y218694000D03*
X-55626000Y218694000D03*
X-53086000Y218694000D03*
X-50546000Y218694000D03*
X-48006000Y218694000D03*
X-45466000Y218694000D03*
X-42926000Y218694000D03*
X-40386000Y218694000D03*
X-78486000Y233934000D03*
X-81026000Y233934000D03*
X-83566000Y233934000D03*
X-86106000Y233934000D03*
X-88646000Y233934000D03*
X-91186000Y233934000D03*
X-93726000Y233934000D03*
X-96266000Y233934000D03*
X-98806000Y233934000D03*
X-98806000Y218694000D03*
X-96266000Y218694000D03*
X-93726000Y218694000D03*
X-91186000Y218694000D03*
X-88646000Y218694000D03*
X-86106000Y218694000D03*
X-83566000Y218694000D03*
X-81026000Y218694000D03*
X-78486000Y218694000D03*
%TD*%
D21*
%TO.C,Conn2*%
X-46990000Y188341000D03*
D22*
X-43990001Y188341000D03*
X-40990002Y188341000D03*
X-37990003Y188341000D03*
X-34990004Y188341000D03*
X-31990005Y188341000D03*
X-28990006Y188341000D03*
X-25990006Y188341000D03*
X-22990007Y188341000D03*
D15*
X-49989999Y190301000D03*
X-19990060Y190301000D03*
%TD*%
D23*
%TO.C,C2*%
X-91662000Y197866000D03*
D24*
X-89662000Y197866000D03*
%TD*%
D23*
%TO.C,C5*%
X-103854000Y197358000D03*
D24*
X-101854000Y197358000D03*
%TD*%
D15*
%TO.C,Conn1*%
X-113102000Y199012053D03*
X-113102000Y226011999D03*
D22*
X-115062000Y202012006D03*
X-115062000Y205012006D03*
X-115062000Y208012005D03*
X-115062000Y211012004D03*
X-115062000Y214012003D03*
X-115062000Y217012002D03*
X-115062000Y220012001D03*
D21*
X-115062000Y223012000D03*
%TD*%
D15*
%TO.C,Conn3*%
X-19990060Y181538000D03*
X-49989999Y181538000D03*
D22*
X-22990007Y179578000D03*
X-25990006Y179578000D03*
X-28990006Y179578000D03*
X-31990005Y179578000D03*
X-34990004Y179578000D03*
X-37990003Y179578000D03*
X-40990002Y179578000D03*
X-43990001Y179578000D03*
D21*
X-46990000Y179578000D03*
%TD*%
D25*
%TO.C,Conn4*%
X-38862000Y248412000D03*
X-38862000Y240512000D03*
%TD*%
D16*
%TO.C,J1*%
X-82042000Y195630800D03*
D15*
X-80086200Y192633600D03*
X-80086200Y204622400D03*
D16*
X-82042000Y198628000D03*
D17*
X-82042000Y201625200D03*
%TD*%
%TO.C,J2*%
X-82042000Y186385200D03*
D16*
X-82042000Y183388000D03*
D15*
X-80086200Y189382400D03*
X-80086200Y177393600D03*
D16*
X-82042000Y180390800D03*
%TD*%
D17*
%TO.C,J3*%
X-97790000Y274142200D03*
D16*
X-97790000Y271145000D03*
D15*
X-95834200Y277152100D03*
X-95834200Y262140700D03*
D16*
X-97790000Y268147800D03*
X-97790000Y265150600D03*
%TD*%
D26*
%TO.C,Q1*%
X-112395000Y272415000D03*
D27*
X-112395000Y274955000D03*
X-112395000Y273685000D03*
%TD*%
D28*
%TO.C,Q3*%
X-106680000Y222758000D03*
D29*
X-104140000Y222758000D03*
X-105410000Y222758000D03*
%TD*%
D17*
%TO.C,SW2*%
X-79095600Y241935000D03*
D16*
X-82092800Y241935000D03*
D15*
X-76098400Y239979200D03*
X-88087200Y239979200D03*
D16*
X-85090000Y241935000D03*
%TD*%
D30*
%TO.C,U5*%
X-60050680Y239742980D03*
X-56230520Y239742980D03*
X-58140600Y239742980D03*
D31*
X-53060600Y261239000D03*
X-63220600Y261239000D03*
%TD*%
D32*
%TO.C,V1*%
X-108585000Y254635000D03*
%TD*%
%TO.C,V2*%
X-19685000Y254635000D03*
%TD*%
%TO.C,V3*%
X-19685000Y285115000D03*
%TD*%
D33*
%TO.C,J5*%
X-34417000Y216789000D03*
D34*
X-32417000Y216789000D03*
X-34417000Y218789000D03*
X-32417000Y218789000D03*
X-34417000Y220789000D03*
X-32417000Y220789000D03*
%TD*%
D35*
%TO.C,U4*%
X-101854000Y191008000D03*
X-104394000Y191008000D03*
X-106934000Y191008000D03*
%TD*%
D36*
%TO.C,U2*%
X-94742000Y191770000D03*
X-92202000Y191770000D03*
D37*
X-89662000Y191770000D03*
%TD*%
M02*
