%TF.GenerationSoftware,KiCad,Pcbnew,(5.1.10)-1*%
%TF.CreationDate,2022-03-15T00:09:19-05:00*%
%TF.ProjectId,BMS_2022_Rev1,424d535f-3230-4323-925f-526576312e6b,rev?*%
%TF.SameCoordinates,Original*%
%TF.FileFunction,Soldermask,Top*%
%TF.FilePolarity,Negative*%
%FSLAX46Y46*%
G04 Gerber Fmt 4.6, Leading zero omitted, Abs format (unit mm)*
G04 Created by KiCad (PCBNEW (5.1.10)-1) date 2022-03-15 00:09:19*
%MOMM*%
%LPD*%
G01*
G04 APERTURE LIST*
%ADD10R,0.900000X0.800000*%
%ADD11C,1.270000*%
%ADD12C,1.530000*%
%ADD13R,1.530000X1.530000*%
%ADD14C,1.308000*%
%ADD15C,1.208000*%
%ADD16C,1.258000*%
%ADD17R,1.520000X1.520000*%
%ADD18C,1.520000*%
%ADD19R,0.800000X0.900000*%
%ADD20R,2.500000X6.000000*%
%ADD21C,1.600000*%
%ADD22R,1.600000X1.600000*%
%ADD23C,5.080000*%
%ADD24R,1.500000X1.050000*%
%ADD25O,1.500000X1.050000*%
%ADD26R,1.050000X1.500000*%
%ADD27O,1.050000X1.500000*%
%ADD28R,4.600000X0.800000*%
%ADD29R,9.400000X10.800000*%
%ADD30C,1.524000*%
%ADD31C,1.501140*%
%ADD32O,9.144000X5.588000*%
%ADD33C,18.288000*%
%ADD34R,1.350000X1.350000*%
%ADD35O,1.350000X1.350000*%
%ADD36C,2.000000*%
%ADD37C,1.400000*%
%ADD38C,4.000000*%
%ADD39C,1.100000*%
G04 APERTURE END LIST*
%TO.C,R17*%
G36*
G01*
X-12599500Y208677500D02*
X-12599500Y209152500D01*
G75*
G02*
X-12362000Y209390000I237500J0D01*
G01*
X-11862000Y209390000D01*
G75*
G02*
X-11624500Y209152500I0J-237500D01*
G01*
X-11624500Y208677500D01*
G75*
G02*
X-11862000Y208440000I-237500J0D01*
G01*
X-12362000Y208440000D01*
G75*
G02*
X-12599500Y208677500I0J237500D01*
G01*
G37*
G36*
G01*
X-10774500Y208677500D02*
X-10774500Y209152500D01*
G75*
G02*
X-10537000Y209390000I237500J0D01*
G01*
X-10037000Y209390000D01*
G75*
G02*
X-9799500Y209152500I0J-237500D01*
G01*
X-9799500Y208677500D01*
G75*
G02*
X-10037000Y208440000I-237500J0D01*
G01*
X-10537000Y208440000D01*
G75*
G02*
X-10774500Y208677500I0J237500D01*
G01*
G37*
%TD*%
%TO.C,R40*%
G36*
G01*
X-60519500Y208517500D02*
X-60519500Y208042500D01*
G75*
G02*
X-60757000Y207805000I-237500J0D01*
G01*
X-61257000Y207805000D01*
G75*
G02*
X-61494500Y208042500I0J237500D01*
G01*
X-61494500Y208517500D01*
G75*
G02*
X-61257000Y208755000I237500J0D01*
G01*
X-60757000Y208755000D01*
G75*
G02*
X-60519500Y208517500I0J-237500D01*
G01*
G37*
G36*
G01*
X-58694500Y208517500D02*
X-58694500Y208042500D01*
G75*
G02*
X-58932000Y207805000I-237500J0D01*
G01*
X-59432000Y207805000D01*
G75*
G02*
X-59669500Y208042500I0J237500D01*
G01*
X-59669500Y208517500D01*
G75*
G02*
X-59432000Y208755000I237500J0D01*
G01*
X-58932000Y208755000D01*
G75*
G02*
X-58694500Y208517500I0J-237500D01*
G01*
G37*
%TD*%
D10*
%TO.C,D13*%
X-33750500Y207584000D03*
X-33750500Y209484000D03*
X-35750500Y208534000D03*
%TD*%
%TO.C,D19*%
X-61118500Y213103500D03*
X-61118500Y211203500D03*
X-59118500Y212153500D03*
%TD*%
%TO.C,D17*%
X-53975000Y207581500D03*
X-53975000Y209481500D03*
X-55975000Y208531500D03*
%TD*%
%TO.C,D12*%
X-32020000Y197485000D03*
X-34020000Y196535000D03*
X-34020000Y198435000D03*
%TD*%
%TO.C,U7*%
G36*
G01*
X-32938000Y201445000D02*
X-32938000Y201145000D01*
G75*
G02*
X-33088000Y200995000I-150000J0D01*
G01*
X-34388000Y200995000D01*
G75*
G02*
X-34538000Y201145000I0J150000D01*
G01*
X-34538000Y201445000D01*
G75*
G02*
X-34388000Y201595000I150000J0D01*
G01*
X-33088000Y201595000D01*
G75*
G02*
X-32938000Y201445000I0J-150000D01*
G01*
G37*
G36*
G01*
X-32938000Y202715000D02*
X-32938000Y202415000D01*
G75*
G02*
X-33088000Y202265000I-150000J0D01*
G01*
X-34388000Y202265000D01*
G75*
G02*
X-34538000Y202415000I0J150000D01*
G01*
X-34538000Y202715000D01*
G75*
G02*
X-34388000Y202865000I150000J0D01*
G01*
X-33088000Y202865000D01*
G75*
G02*
X-32938000Y202715000I0J-150000D01*
G01*
G37*
G36*
G01*
X-32938000Y203985000D02*
X-32938000Y203685000D01*
G75*
G02*
X-33088000Y203535000I-150000J0D01*
G01*
X-34388000Y203535000D01*
G75*
G02*
X-34538000Y203685000I0J150000D01*
G01*
X-34538000Y203985000D01*
G75*
G02*
X-34388000Y204135000I150000J0D01*
G01*
X-33088000Y204135000D01*
G75*
G02*
X-32938000Y203985000I0J-150000D01*
G01*
G37*
G36*
G01*
X-32938000Y205255000D02*
X-32938000Y204955000D01*
G75*
G02*
X-33088000Y204805000I-150000J0D01*
G01*
X-34388000Y204805000D01*
G75*
G02*
X-34538000Y204955000I0J150000D01*
G01*
X-34538000Y205255000D01*
G75*
G02*
X-34388000Y205405000I150000J0D01*
G01*
X-33088000Y205405000D01*
G75*
G02*
X-32938000Y205255000I0J-150000D01*
G01*
G37*
G36*
G01*
X-40138000Y205255000D02*
X-40138000Y204955000D01*
G75*
G02*
X-40288000Y204805000I-150000J0D01*
G01*
X-41588000Y204805000D01*
G75*
G02*
X-41738000Y204955000I0J150000D01*
G01*
X-41738000Y205255000D01*
G75*
G02*
X-41588000Y205405000I150000J0D01*
G01*
X-40288000Y205405000D01*
G75*
G02*
X-40138000Y205255000I0J-150000D01*
G01*
G37*
G36*
G01*
X-40138000Y203985000D02*
X-40138000Y203685000D01*
G75*
G02*
X-40288000Y203535000I-150000J0D01*
G01*
X-41588000Y203535000D01*
G75*
G02*
X-41738000Y203685000I0J150000D01*
G01*
X-41738000Y203985000D01*
G75*
G02*
X-41588000Y204135000I150000J0D01*
G01*
X-40288000Y204135000D01*
G75*
G02*
X-40138000Y203985000I0J-150000D01*
G01*
G37*
G36*
G01*
X-40138000Y202715000D02*
X-40138000Y202415000D01*
G75*
G02*
X-40288000Y202265000I-150000J0D01*
G01*
X-41588000Y202265000D01*
G75*
G02*
X-41738000Y202415000I0J150000D01*
G01*
X-41738000Y202715000D01*
G75*
G02*
X-41588000Y202865000I150000J0D01*
G01*
X-40288000Y202865000D01*
G75*
G02*
X-40138000Y202715000I0J-150000D01*
G01*
G37*
G36*
G01*
X-40138000Y201445000D02*
X-40138000Y201145000D01*
G75*
G02*
X-40288000Y200995000I-150000J0D01*
G01*
X-41588000Y200995000D01*
G75*
G02*
X-41738000Y201145000I0J150000D01*
G01*
X-41738000Y201445000D01*
G75*
G02*
X-41588000Y201595000I150000J0D01*
G01*
X-40288000Y201595000D01*
G75*
G02*
X-40138000Y201445000I0J-150000D01*
G01*
G37*
%TD*%
%TO.C,R18*%
G36*
G01*
X-10524500Y205846500D02*
X-10049500Y205846500D01*
G75*
G02*
X-9812000Y205609000I0J-237500D01*
G01*
X-9812000Y205109000D01*
G75*
G02*
X-10049500Y204871500I-237500J0D01*
G01*
X-10524500Y204871500D01*
G75*
G02*
X-10762000Y205109000I0J237500D01*
G01*
X-10762000Y205609000D01*
G75*
G02*
X-10524500Y205846500I237500J0D01*
G01*
G37*
G36*
G01*
X-10524500Y204021500D02*
X-10049500Y204021500D01*
G75*
G02*
X-9812000Y203784000I0J-237500D01*
G01*
X-9812000Y203284000D01*
G75*
G02*
X-10049500Y203046500I-237500J0D01*
G01*
X-10524500Y203046500D01*
G75*
G02*
X-10762000Y203284000I0J237500D01*
G01*
X-10762000Y203784000D01*
G75*
G02*
X-10524500Y204021500I237500J0D01*
G01*
G37*
%TD*%
%TO.C,D15*%
X-40608000Y212786000D03*
X-40608000Y210886000D03*
X-38608000Y211836000D03*
%TD*%
%TO.C,R39*%
G36*
G01*
X-70501500Y195854500D02*
X-70976500Y195854500D01*
G75*
G02*
X-71214000Y196092000I0J237500D01*
G01*
X-71214000Y196592000D01*
G75*
G02*
X-70976500Y196829500I237500J0D01*
G01*
X-70501500Y196829500D01*
G75*
G02*
X-70264000Y196592000I0J-237500D01*
G01*
X-70264000Y196092000D01*
G75*
G02*
X-70501500Y195854500I-237500J0D01*
G01*
G37*
G36*
G01*
X-70501500Y197679500D02*
X-70976500Y197679500D01*
G75*
G02*
X-71214000Y197917000I0J237500D01*
G01*
X-71214000Y198417000D01*
G75*
G02*
X-70976500Y198654500I237500J0D01*
G01*
X-70501500Y198654500D01*
G75*
G02*
X-70264000Y198417000I0J-237500D01*
G01*
X-70264000Y197917000D01*
G75*
G02*
X-70501500Y197679500I-237500J0D01*
G01*
G37*
%TD*%
%TO.C,D18*%
X-67215000Y200848000D03*
X-69215000Y199898000D03*
X-69215000Y201798000D03*
%TD*%
%TO.C,R21*%
G36*
G01*
X-26950500Y204867500D02*
X-26950500Y205342500D01*
G75*
G02*
X-26713000Y205580000I237500J0D01*
G01*
X-26213000Y205580000D01*
G75*
G02*
X-25975500Y205342500I0J-237500D01*
G01*
X-25975500Y204867500D01*
G75*
G02*
X-26213000Y204630000I-237500J0D01*
G01*
X-26713000Y204630000D01*
G75*
G02*
X-26950500Y204867500I0J237500D01*
G01*
G37*
G36*
G01*
X-25125500Y204867500D02*
X-25125500Y205342500D01*
G75*
G02*
X-24888000Y205580000I237500J0D01*
G01*
X-24388000Y205580000D01*
G75*
G02*
X-24150500Y205342500I0J-237500D01*
G01*
X-24150500Y204867500D01*
G75*
G02*
X-24388000Y204630000I-237500J0D01*
G01*
X-24888000Y204630000D01*
G75*
G02*
X-25125500Y204867500I0J237500D01*
G01*
G37*
%TD*%
%TO.C,R26*%
G36*
G01*
X-29701500Y205418500D02*
X-29226500Y205418500D01*
G75*
G02*
X-28989000Y205181000I0J-237500D01*
G01*
X-28989000Y204681000D01*
G75*
G02*
X-29226500Y204443500I-237500J0D01*
G01*
X-29701500Y204443500D01*
G75*
G02*
X-29939000Y204681000I0J237500D01*
G01*
X-29939000Y205181000D01*
G75*
G02*
X-29701500Y205418500I237500J0D01*
G01*
G37*
G36*
G01*
X-29701500Y207243500D02*
X-29226500Y207243500D01*
G75*
G02*
X-28989000Y207006000I0J-237500D01*
G01*
X-28989000Y206506000D01*
G75*
G02*
X-29226500Y206268500I-237500J0D01*
G01*
X-29701500Y206268500D01*
G75*
G02*
X-29939000Y206506000I0J237500D01*
G01*
X-29939000Y207006000D01*
G75*
G02*
X-29701500Y207243500I237500J0D01*
G01*
G37*
%TD*%
%TO.C,R23*%
G36*
G01*
X-27923500Y199797500D02*
X-27448500Y199797500D01*
G75*
G02*
X-27211000Y199560000I0J-237500D01*
G01*
X-27211000Y199060000D01*
G75*
G02*
X-27448500Y198822500I-237500J0D01*
G01*
X-27923500Y198822500D01*
G75*
G02*
X-28161000Y199060000I0J237500D01*
G01*
X-28161000Y199560000D01*
G75*
G02*
X-27923500Y199797500I237500J0D01*
G01*
G37*
G36*
G01*
X-27923500Y197972500D02*
X-27448500Y197972500D01*
G75*
G02*
X-27211000Y197735000I0J-237500D01*
G01*
X-27211000Y197235000D01*
G75*
G02*
X-27448500Y196997500I-237500J0D01*
G01*
X-27923500Y196997500D01*
G75*
G02*
X-28161000Y197235000I0J237500D01*
G01*
X-28161000Y197735000D01*
G75*
G02*
X-27923500Y197972500I237500J0D01*
G01*
G37*
%TD*%
%TO.C,R30*%
G36*
G01*
X-40115500Y196909500D02*
X-39640500Y196909500D01*
G75*
G02*
X-39403000Y196672000I0J-237500D01*
G01*
X-39403000Y196172000D01*
G75*
G02*
X-39640500Y195934500I-237500J0D01*
G01*
X-40115500Y195934500D01*
G75*
G02*
X-40353000Y196172000I0J237500D01*
G01*
X-40353000Y196672000D01*
G75*
G02*
X-40115500Y196909500I237500J0D01*
G01*
G37*
G36*
G01*
X-40115500Y198734500D02*
X-39640500Y198734500D01*
G75*
G02*
X-39403000Y198497000I0J-237500D01*
G01*
X-39403000Y197997000D01*
G75*
G02*
X-39640500Y197759500I-237500J0D01*
G01*
X-40115500Y197759500D01*
G75*
G02*
X-40353000Y197997000I0J237500D01*
G01*
X-40353000Y198497000D01*
G75*
G02*
X-40115500Y198734500I237500J0D01*
G01*
G37*
%TD*%
%TO.C,D8*%
X-10922000Y196789000D03*
X-12922000Y195839000D03*
X-12922000Y197739000D03*
%TD*%
%TO.C,D11*%
X-20288000Y212786000D03*
X-20288000Y210886000D03*
X-18288000Y211836000D03*
%TD*%
%TO.C,D10*%
X-22860000Y196723000D03*
X-24860000Y195773000D03*
X-24860000Y197673000D03*
%TD*%
%TO.C,R38*%
G36*
G01*
X-60880000Y196575500D02*
X-60405000Y196575500D01*
G75*
G02*
X-60167500Y196338000I0J-237500D01*
G01*
X-60167500Y195838000D01*
G75*
G02*
X-60405000Y195600500I-237500J0D01*
G01*
X-60880000Y195600500D01*
G75*
G02*
X-61117500Y195838000I0J237500D01*
G01*
X-61117500Y196338000D01*
G75*
G02*
X-60880000Y196575500I237500J0D01*
G01*
G37*
G36*
G01*
X-60880000Y198400500D02*
X-60405000Y198400500D01*
G75*
G02*
X-60167500Y198163000I0J-237500D01*
G01*
X-60167500Y197663000D01*
G75*
G02*
X-60405000Y197425500I-237500J0D01*
G01*
X-60880000Y197425500D01*
G75*
G02*
X-61117500Y197663000I0J237500D01*
G01*
X-61117500Y198163000D01*
G75*
G02*
X-60880000Y198400500I237500J0D01*
G01*
G37*
%TD*%
%TO.C,U8*%
G36*
G01*
X-60375000Y201445000D02*
X-60375000Y201145000D01*
G75*
G02*
X-60525000Y200995000I-150000J0D01*
G01*
X-61825000Y200995000D01*
G75*
G02*
X-61975000Y201145000I0J150000D01*
G01*
X-61975000Y201445000D01*
G75*
G02*
X-61825000Y201595000I150000J0D01*
G01*
X-60525000Y201595000D01*
G75*
G02*
X-60375000Y201445000I0J-150000D01*
G01*
G37*
G36*
G01*
X-60375000Y202715000D02*
X-60375000Y202415000D01*
G75*
G02*
X-60525000Y202265000I-150000J0D01*
G01*
X-61825000Y202265000D01*
G75*
G02*
X-61975000Y202415000I0J150000D01*
G01*
X-61975000Y202715000D01*
G75*
G02*
X-61825000Y202865000I150000J0D01*
G01*
X-60525000Y202865000D01*
G75*
G02*
X-60375000Y202715000I0J-150000D01*
G01*
G37*
G36*
G01*
X-60375000Y203985000D02*
X-60375000Y203685000D01*
G75*
G02*
X-60525000Y203535000I-150000J0D01*
G01*
X-61825000Y203535000D01*
G75*
G02*
X-61975000Y203685000I0J150000D01*
G01*
X-61975000Y203985000D01*
G75*
G02*
X-61825000Y204135000I150000J0D01*
G01*
X-60525000Y204135000D01*
G75*
G02*
X-60375000Y203985000I0J-150000D01*
G01*
G37*
G36*
G01*
X-60375000Y205255000D02*
X-60375000Y204955000D01*
G75*
G02*
X-60525000Y204805000I-150000J0D01*
G01*
X-61825000Y204805000D01*
G75*
G02*
X-61975000Y204955000I0J150000D01*
G01*
X-61975000Y205255000D01*
G75*
G02*
X-61825000Y205405000I150000J0D01*
G01*
X-60525000Y205405000D01*
G75*
G02*
X-60375000Y205255000I0J-150000D01*
G01*
G37*
G36*
G01*
X-53175000Y205255000D02*
X-53175000Y204955000D01*
G75*
G02*
X-53325000Y204805000I-150000J0D01*
G01*
X-54625000Y204805000D01*
G75*
G02*
X-54775000Y204955000I0J150000D01*
G01*
X-54775000Y205255000D01*
G75*
G02*
X-54625000Y205405000I150000J0D01*
G01*
X-53325000Y205405000D01*
G75*
G02*
X-53175000Y205255000I0J-150000D01*
G01*
G37*
G36*
G01*
X-53175000Y203985000D02*
X-53175000Y203685000D01*
G75*
G02*
X-53325000Y203535000I-150000J0D01*
G01*
X-54625000Y203535000D01*
G75*
G02*
X-54775000Y203685000I0J150000D01*
G01*
X-54775000Y203985000D01*
G75*
G02*
X-54625000Y204135000I150000J0D01*
G01*
X-53325000Y204135000D01*
G75*
G02*
X-53175000Y203985000I0J-150000D01*
G01*
G37*
G36*
G01*
X-53175000Y202715000D02*
X-53175000Y202415000D01*
G75*
G02*
X-53325000Y202265000I-150000J0D01*
G01*
X-54625000Y202265000D01*
G75*
G02*
X-54775000Y202415000I0J150000D01*
G01*
X-54775000Y202715000D01*
G75*
G02*
X-54625000Y202865000I150000J0D01*
G01*
X-53325000Y202865000D01*
G75*
G02*
X-53175000Y202715000I0J-150000D01*
G01*
G37*
G36*
G01*
X-53175000Y201445000D02*
X-53175000Y201145000D01*
G75*
G02*
X-53325000Y200995000I-150000J0D01*
G01*
X-54625000Y200995000D01*
G75*
G02*
X-54775000Y201145000I0J150000D01*
G01*
X-54775000Y201445000D01*
G75*
G02*
X-54625000Y201595000I150000J0D01*
G01*
X-53325000Y201595000D01*
G75*
G02*
X-53175000Y201445000I0J-150000D01*
G01*
G37*
%TD*%
%TO.C,U6*%
G36*
G01*
X-13590000Y201445000D02*
X-13590000Y201145000D01*
G75*
G02*
X-13740000Y200995000I-150000J0D01*
G01*
X-15040000Y200995000D01*
G75*
G02*
X-15190000Y201145000I0J150000D01*
G01*
X-15190000Y201445000D01*
G75*
G02*
X-15040000Y201595000I150000J0D01*
G01*
X-13740000Y201595000D01*
G75*
G02*
X-13590000Y201445000I0J-150000D01*
G01*
G37*
G36*
G01*
X-13590000Y202715000D02*
X-13590000Y202415000D01*
G75*
G02*
X-13740000Y202265000I-150000J0D01*
G01*
X-15040000Y202265000D01*
G75*
G02*
X-15190000Y202415000I0J150000D01*
G01*
X-15190000Y202715000D01*
G75*
G02*
X-15040000Y202865000I150000J0D01*
G01*
X-13740000Y202865000D01*
G75*
G02*
X-13590000Y202715000I0J-150000D01*
G01*
G37*
G36*
G01*
X-13590000Y203985000D02*
X-13590000Y203685000D01*
G75*
G02*
X-13740000Y203535000I-150000J0D01*
G01*
X-15040000Y203535000D01*
G75*
G02*
X-15190000Y203685000I0J150000D01*
G01*
X-15190000Y203985000D01*
G75*
G02*
X-15040000Y204135000I150000J0D01*
G01*
X-13740000Y204135000D01*
G75*
G02*
X-13590000Y203985000I0J-150000D01*
G01*
G37*
G36*
G01*
X-13590000Y205255000D02*
X-13590000Y204955000D01*
G75*
G02*
X-13740000Y204805000I-150000J0D01*
G01*
X-15040000Y204805000D01*
G75*
G02*
X-15190000Y204955000I0J150000D01*
G01*
X-15190000Y205255000D01*
G75*
G02*
X-15040000Y205405000I150000J0D01*
G01*
X-13740000Y205405000D01*
G75*
G02*
X-13590000Y205255000I0J-150000D01*
G01*
G37*
G36*
G01*
X-20790000Y205255000D02*
X-20790000Y204955000D01*
G75*
G02*
X-20940000Y204805000I-150000J0D01*
G01*
X-22240000Y204805000D01*
G75*
G02*
X-22390000Y204955000I0J150000D01*
G01*
X-22390000Y205255000D01*
G75*
G02*
X-22240000Y205405000I150000J0D01*
G01*
X-20940000Y205405000D01*
G75*
G02*
X-20790000Y205255000I0J-150000D01*
G01*
G37*
G36*
G01*
X-20790000Y203985000D02*
X-20790000Y203685000D01*
G75*
G02*
X-20940000Y203535000I-150000J0D01*
G01*
X-22240000Y203535000D01*
G75*
G02*
X-22390000Y203685000I0J150000D01*
G01*
X-22390000Y203985000D01*
G75*
G02*
X-22240000Y204135000I150000J0D01*
G01*
X-20940000Y204135000D01*
G75*
G02*
X-20790000Y203985000I0J-150000D01*
G01*
G37*
G36*
G01*
X-20790000Y202715000D02*
X-20790000Y202415000D01*
G75*
G02*
X-20940000Y202265000I-150000J0D01*
G01*
X-22240000Y202265000D01*
G75*
G02*
X-22390000Y202415000I0J150000D01*
G01*
X-22390000Y202715000D01*
G75*
G02*
X-22240000Y202865000I150000J0D01*
G01*
X-20940000Y202865000D01*
G75*
G02*
X-20790000Y202715000I0J-150000D01*
G01*
G37*
G36*
G01*
X-20790000Y201445000D02*
X-20790000Y201145000D01*
G75*
G02*
X-20940000Y200995000I-150000J0D01*
G01*
X-22240000Y200995000D01*
G75*
G02*
X-22390000Y201145000I0J150000D01*
G01*
X-22390000Y201445000D01*
G75*
G02*
X-22240000Y201595000I150000J0D01*
G01*
X-20940000Y201595000D01*
G75*
G02*
X-20790000Y201445000I0J-150000D01*
G01*
G37*
%TD*%
%TO.C,D9*%
X-14002000Y208981000D03*
X-14002000Y210881000D03*
X-16002000Y209931000D03*
%TD*%
%TO.C,D14*%
X-44180000Y197485000D03*
X-44180000Y195585000D03*
X-42180000Y196535000D03*
%TD*%
%TO.C,R20*%
G36*
G01*
X-12679500Y201057500D02*
X-12679500Y201532500D01*
G75*
G02*
X-12442000Y201770000I237500J0D01*
G01*
X-11942000Y201770000D01*
G75*
G02*
X-11704500Y201532500I0J-237500D01*
G01*
X-11704500Y201057500D01*
G75*
G02*
X-11942000Y200820000I-237500J0D01*
G01*
X-12442000Y200820000D01*
G75*
G02*
X-12679500Y201057500I0J237500D01*
G01*
G37*
G36*
G01*
X-10854500Y201057500D02*
X-10854500Y201532500D01*
G75*
G02*
X-10617000Y201770000I237500J0D01*
G01*
X-10117000Y201770000D01*
G75*
G02*
X-9879500Y201532500I0J-237500D01*
G01*
X-9879500Y201057500D01*
G75*
G02*
X-10117000Y200820000I-237500J0D01*
G01*
X-10617000Y200820000D01*
G75*
G02*
X-10854500Y201057500I0J237500D01*
G01*
G37*
%TD*%
%TO.C,R31*%
G36*
G01*
X-46973500Y197925500D02*
X-46498500Y197925500D01*
G75*
G02*
X-46261000Y197688000I0J-237500D01*
G01*
X-46261000Y197188000D01*
G75*
G02*
X-46498500Y196950500I-237500J0D01*
G01*
X-46973500Y196950500D01*
G75*
G02*
X-47211000Y197188000I0J237500D01*
G01*
X-47211000Y197688000D01*
G75*
G02*
X-46973500Y197925500I237500J0D01*
G01*
G37*
G36*
G01*
X-46973500Y199750500D02*
X-46498500Y199750500D01*
G75*
G02*
X-46261000Y199513000I0J-237500D01*
G01*
X-46261000Y199013000D01*
G75*
G02*
X-46498500Y198775500I-237500J0D01*
G01*
X-46973500Y198775500D01*
G75*
G02*
X-47211000Y199013000I0J237500D01*
G01*
X-47211000Y199513000D01*
G75*
G02*
X-46973500Y199750500I237500J0D01*
G01*
G37*
%TD*%
%TO.C,R35*%
G36*
G01*
X-57895500Y198400500D02*
X-57420500Y198400500D01*
G75*
G02*
X-57183000Y198163000I0J-237500D01*
G01*
X-57183000Y197663000D01*
G75*
G02*
X-57420500Y197425500I-237500J0D01*
G01*
X-57895500Y197425500D01*
G75*
G02*
X-58133000Y197663000I0J237500D01*
G01*
X-58133000Y198163000D01*
G75*
G02*
X-57895500Y198400500I237500J0D01*
G01*
G37*
G36*
G01*
X-57895500Y196575500D02*
X-57420500Y196575500D01*
G75*
G02*
X-57183000Y196338000I0J-237500D01*
G01*
X-57183000Y195838000D01*
G75*
G02*
X-57420500Y195600500I-237500J0D01*
G01*
X-57895500Y195600500D01*
G75*
G02*
X-58133000Y195838000I0J237500D01*
G01*
X-58133000Y196338000D01*
G75*
G02*
X-57895500Y196575500I237500J0D01*
G01*
G37*
%TD*%
%TO.C,R22*%
G36*
G01*
X-20303500Y196147500D02*
X-19828500Y196147500D01*
G75*
G02*
X-19591000Y195910000I0J-237500D01*
G01*
X-19591000Y195410000D01*
G75*
G02*
X-19828500Y195172500I-237500J0D01*
G01*
X-20303500Y195172500D01*
G75*
G02*
X-20541000Y195410000I0J237500D01*
G01*
X-20541000Y195910000D01*
G75*
G02*
X-20303500Y196147500I237500J0D01*
G01*
G37*
G36*
G01*
X-20303500Y197972500D02*
X-19828500Y197972500D01*
G75*
G02*
X-19591000Y197735000I0J-237500D01*
G01*
X-19591000Y197235000D01*
G75*
G02*
X-19828500Y196997500I-237500J0D01*
G01*
X-20303500Y196997500D01*
G75*
G02*
X-20541000Y197235000I0J237500D01*
G01*
X-20541000Y197735000D01*
G75*
G02*
X-20303500Y197972500I237500J0D01*
G01*
G37*
%TD*%
%TO.C,R32*%
G36*
G01*
X-39945500Y208644500D02*
X-39945500Y208169500D01*
G75*
G02*
X-40183000Y207932000I-237500J0D01*
G01*
X-40683000Y207932000D01*
G75*
G02*
X-40920500Y208169500I0J237500D01*
G01*
X-40920500Y208644500D01*
G75*
G02*
X-40683000Y208882000I237500J0D01*
G01*
X-40183000Y208882000D01*
G75*
G02*
X-39945500Y208644500I0J-237500D01*
G01*
G37*
G36*
G01*
X-38120500Y208644500D02*
X-38120500Y208169500D01*
G75*
G02*
X-38358000Y207932000I-237500J0D01*
G01*
X-38858000Y207932000D01*
G75*
G02*
X-39095500Y208169500I0J237500D01*
G01*
X-39095500Y208644500D01*
G75*
G02*
X-38858000Y208882000I237500J0D01*
G01*
X-38358000Y208882000D01*
G75*
G02*
X-38120500Y208644500I0J-237500D01*
G01*
G37*
%TD*%
%TO.C,R19*%
G36*
G01*
X-17001500Y197972500D02*
X-16526500Y197972500D01*
G75*
G02*
X-16289000Y197735000I0J-237500D01*
G01*
X-16289000Y197235000D01*
G75*
G02*
X-16526500Y196997500I-237500J0D01*
G01*
X-17001500Y196997500D01*
G75*
G02*
X-17239000Y197235000I0J237500D01*
G01*
X-17239000Y197735000D01*
G75*
G02*
X-17001500Y197972500I237500J0D01*
G01*
G37*
G36*
G01*
X-17001500Y196147500D02*
X-16526500Y196147500D01*
G75*
G02*
X-16289000Y195910000I0J-237500D01*
G01*
X-16289000Y195410000D01*
G75*
G02*
X-16526500Y195172500I-237500J0D01*
G01*
X-17001500Y195172500D01*
G75*
G02*
X-17239000Y195410000I0J237500D01*
G01*
X-17239000Y195910000D01*
G75*
G02*
X-17001500Y196147500I237500J0D01*
G01*
G37*
%TD*%
%TO.C,D16*%
X-50054000Y197485000D03*
X-52054000Y196535000D03*
X-52054000Y198435000D03*
%TD*%
%TO.C,R33*%
G36*
G01*
X-49001500Y209439500D02*
X-49001500Y209914500D01*
G75*
G02*
X-48764000Y210152000I237500J0D01*
G01*
X-48264000Y210152000D01*
G75*
G02*
X-48026500Y209914500I0J-237500D01*
G01*
X-48026500Y209439500D01*
G75*
G02*
X-48264000Y209202000I-237500J0D01*
G01*
X-48764000Y209202000D01*
G75*
G02*
X-49001500Y209439500I0J237500D01*
G01*
G37*
G36*
G01*
X-50826500Y209439500D02*
X-50826500Y209914500D01*
G75*
G02*
X-50589000Y210152000I237500J0D01*
G01*
X-50089000Y210152000D01*
G75*
G02*
X-49851500Y209914500I0J-237500D01*
G01*
X-49851500Y209439500D01*
G75*
G02*
X-50089000Y209202000I-237500J0D01*
G01*
X-50589000Y209202000D01*
G75*
G02*
X-50826500Y209439500I0J237500D01*
G01*
G37*
%TD*%
%TO.C,R34*%
G36*
G01*
X-48751500Y205211500D02*
X-48276500Y205211500D01*
G75*
G02*
X-48039000Y204974000I0J-237500D01*
G01*
X-48039000Y204474000D01*
G75*
G02*
X-48276500Y204236500I-237500J0D01*
G01*
X-48751500Y204236500D01*
G75*
G02*
X-48989000Y204474000I0J237500D01*
G01*
X-48989000Y204974000D01*
G75*
G02*
X-48751500Y205211500I237500J0D01*
G01*
G37*
G36*
G01*
X-48751500Y207036500D02*
X-48276500Y207036500D01*
G75*
G02*
X-48039000Y206799000I0J-237500D01*
G01*
X-48039000Y206299000D01*
G75*
G02*
X-48276500Y206061500I-237500J0D01*
G01*
X-48751500Y206061500D01*
G75*
G02*
X-48989000Y206299000I0J237500D01*
G01*
X-48989000Y206799000D01*
G75*
G02*
X-48751500Y207036500I237500J0D01*
G01*
G37*
%TD*%
%TO.C,R27*%
G36*
G01*
X-37067500Y198734500D02*
X-36592500Y198734500D01*
G75*
G02*
X-36355000Y198497000I0J-237500D01*
G01*
X-36355000Y197997000D01*
G75*
G02*
X-36592500Y197759500I-237500J0D01*
G01*
X-37067500Y197759500D01*
G75*
G02*
X-37305000Y197997000I0J237500D01*
G01*
X-37305000Y198497000D01*
G75*
G02*
X-37067500Y198734500I237500J0D01*
G01*
G37*
G36*
G01*
X-37067500Y196909500D02*
X-36592500Y196909500D01*
G75*
G02*
X-36355000Y196672000I0J-237500D01*
G01*
X-36355000Y196172000D01*
G75*
G02*
X-36592500Y195934500I-237500J0D01*
G01*
X-37067500Y195934500D01*
G75*
G02*
X-37305000Y196172000I0J237500D01*
G01*
X-37305000Y196672000D01*
G75*
G02*
X-37067500Y196909500I237500J0D01*
G01*
G37*
%TD*%
%TO.C,R25*%
G36*
G01*
X-29951500Y208630500D02*
X-29951500Y209105500D01*
G75*
G02*
X-29714000Y209343000I237500J0D01*
G01*
X-29214000Y209343000D01*
G75*
G02*
X-28976500Y209105500I0J-237500D01*
G01*
X-28976500Y208630500D01*
G75*
G02*
X-29214000Y208393000I-237500J0D01*
G01*
X-29714000Y208393000D01*
G75*
G02*
X-29951500Y208630500I0J237500D01*
G01*
G37*
G36*
G01*
X-31776500Y208630500D02*
X-31776500Y209105500D01*
G75*
G02*
X-31539000Y209343000I237500J0D01*
G01*
X-31039000Y209343000D01*
G75*
G02*
X-30801500Y209105500I0J-237500D01*
G01*
X-30801500Y208630500D01*
G75*
G02*
X-31039000Y208393000I-237500J0D01*
G01*
X-31539000Y208393000D01*
G75*
G02*
X-31776500Y208630500I0J237500D01*
G01*
G37*
%TD*%
%TO.C,R24*%
G36*
G01*
X-19625500Y208644500D02*
X-19625500Y208169500D01*
G75*
G02*
X-19863000Y207932000I-237500J0D01*
G01*
X-20363000Y207932000D01*
G75*
G02*
X-20600500Y208169500I0J237500D01*
G01*
X-20600500Y208644500D01*
G75*
G02*
X-20363000Y208882000I237500J0D01*
G01*
X-19863000Y208882000D01*
G75*
G02*
X-19625500Y208644500I0J-237500D01*
G01*
G37*
G36*
G01*
X-17800500Y208644500D02*
X-17800500Y208169500D01*
G75*
G02*
X-18038000Y207932000I-237500J0D01*
G01*
X-18538000Y207932000D01*
G75*
G02*
X-18775500Y208169500I0J237500D01*
G01*
X-18775500Y208644500D01*
G75*
G02*
X-18538000Y208882000I237500J0D01*
G01*
X-18038000Y208882000D01*
G75*
G02*
X-17800500Y208644500I0J-237500D01*
G01*
G37*
%TD*%
%TO.C,R29*%
G36*
G01*
X-46000500Y204867500D02*
X-46000500Y205342500D01*
G75*
G02*
X-45763000Y205580000I237500J0D01*
G01*
X-45263000Y205580000D01*
G75*
G02*
X-45025500Y205342500I0J-237500D01*
G01*
X-45025500Y204867500D01*
G75*
G02*
X-45263000Y204630000I-237500J0D01*
G01*
X-45763000Y204630000D01*
G75*
G02*
X-46000500Y204867500I0J237500D01*
G01*
G37*
G36*
G01*
X-44175500Y204867500D02*
X-44175500Y205342500D01*
G75*
G02*
X-43938000Y205580000I237500J0D01*
G01*
X-43438000Y205580000D01*
G75*
G02*
X-43200500Y205342500I0J-237500D01*
G01*
X-43200500Y204867500D01*
G75*
G02*
X-43438000Y204630000I-237500J0D01*
G01*
X-43938000Y204630000D01*
G75*
G02*
X-44175500Y204867500I0J237500D01*
G01*
G37*
%TD*%
%TO.C,R28*%
G36*
G01*
X-32030500Y201057500D02*
X-32030500Y201532500D01*
G75*
G02*
X-31793000Y201770000I237500J0D01*
G01*
X-31293000Y201770000D01*
G75*
G02*
X-31055500Y201532500I0J-237500D01*
G01*
X-31055500Y201057500D01*
G75*
G02*
X-31293000Y200820000I-237500J0D01*
G01*
X-31793000Y200820000D01*
G75*
G02*
X-32030500Y201057500I0J237500D01*
G01*
G37*
G36*
G01*
X-30205500Y201057500D02*
X-30205500Y201532500D01*
G75*
G02*
X-29968000Y201770000I237500J0D01*
G01*
X-29468000Y201770000D01*
G75*
G02*
X-29230500Y201532500I0J-237500D01*
G01*
X-29230500Y201057500D01*
G75*
G02*
X-29468000Y200820000I-237500J0D01*
G01*
X-29968000Y200820000D01*
G75*
G02*
X-30205500Y201057500I0J237500D01*
G01*
G37*
%TD*%
%TO.C,R37*%
G36*
G01*
X-66066500Y204867500D02*
X-66066500Y205342500D01*
G75*
G02*
X-65829000Y205580000I237500J0D01*
G01*
X-65329000Y205580000D01*
G75*
G02*
X-65091500Y205342500I0J-237500D01*
G01*
X-65091500Y204867500D01*
G75*
G02*
X-65329000Y204630000I-237500J0D01*
G01*
X-65829000Y204630000D01*
G75*
G02*
X-66066500Y204867500I0J237500D01*
G01*
G37*
G36*
G01*
X-64241500Y204867500D02*
X-64241500Y205342500D01*
G75*
G02*
X-64004000Y205580000I237500J0D01*
G01*
X-63504000Y205580000D01*
G75*
G02*
X-63266500Y205342500I0J-237500D01*
G01*
X-63266500Y204867500D01*
G75*
G02*
X-63504000Y204630000I-237500J0D01*
G01*
X-64004000Y204630000D01*
G75*
G02*
X-64241500Y204867500I0J237500D01*
G01*
G37*
%TD*%
%TO.C,R36*%
G36*
G01*
X-52303500Y201057500D02*
X-52303500Y201532500D01*
G75*
G02*
X-52066000Y201770000I237500J0D01*
G01*
X-51566000Y201770000D01*
G75*
G02*
X-51328500Y201532500I0J-237500D01*
G01*
X-51328500Y201057500D01*
G75*
G02*
X-51566000Y200820000I-237500J0D01*
G01*
X-52066000Y200820000D01*
G75*
G02*
X-52303500Y201057500I0J237500D01*
G01*
G37*
G36*
G01*
X-50478500Y201057500D02*
X-50478500Y201532500D01*
G75*
G02*
X-50241000Y201770000I237500J0D01*
G01*
X-49741000Y201770000D01*
G75*
G02*
X-49503500Y201532500I0J-237500D01*
G01*
X-49503500Y201057500D01*
G75*
G02*
X-49741000Y200820000I-237500J0D01*
G01*
X-50241000Y200820000D01*
G75*
G02*
X-50478500Y201057500I0J237500D01*
G01*
G37*
%TD*%
D11*
%TO.C,Conn5*%
X-72440800Y247294400D03*
X-72440800Y238302800D03*
D12*
X-70485000Y244297200D03*
D13*
X-70485000Y241300000D03*
%TD*%
D14*
%TO.C,U1*%
X-40386000Y233934000D03*
X-42926000Y233934000D03*
X-86106000Y231394000D03*
X-86106000Y228854000D03*
X-86106000Y226314000D03*
X-86106000Y221234000D03*
X-42926000Y221234000D03*
X-86106000Y223774000D03*
X-75946000Y218694000D03*
D15*
X-55356000Y221144000D03*
X-53356000Y221144000D03*
X-55356000Y223144000D03*
X-55356000Y225144000D03*
X-53356000Y223144000D03*
X-53356000Y225144000D03*
D16*
X-46736000Y230884000D03*
X-49276000Y230884000D03*
X-51816000Y230884000D03*
X-54356000Y230884000D03*
X-56896000Y230884000D03*
D14*
X-45466000Y233934000D03*
X-48006000Y233934000D03*
X-50546000Y233934000D03*
X-53086000Y233934000D03*
X-55626000Y233934000D03*
X-58166000Y233934000D03*
X-60706000Y233934000D03*
X-63246000Y233934000D03*
X-65786000Y233934000D03*
X-68326000Y233934000D03*
X-70866000Y233934000D03*
X-73406000Y233934000D03*
X-75946000Y233934000D03*
X-73406000Y218694000D03*
X-70866000Y218694000D03*
X-68326000Y218694000D03*
X-65786000Y218694000D03*
X-63246000Y218694000D03*
X-60706000Y218694000D03*
X-58166000Y218694000D03*
X-55626000Y218694000D03*
X-53086000Y218694000D03*
X-50546000Y218694000D03*
X-48006000Y218694000D03*
X-45466000Y218694000D03*
X-42926000Y218694000D03*
X-40386000Y218694000D03*
X-78486000Y233934000D03*
X-81026000Y233934000D03*
X-83566000Y233934000D03*
X-86106000Y233934000D03*
X-88646000Y233934000D03*
X-91186000Y233934000D03*
X-93726000Y233934000D03*
X-96266000Y233934000D03*
X-98806000Y233934000D03*
X-98806000Y218694000D03*
X-96266000Y218694000D03*
X-93726000Y218694000D03*
X-91186000Y218694000D03*
X-88646000Y218694000D03*
X-86106000Y218694000D03*
X-83566000Y218694000D03*
X-81026000Y218694000D03*
X-78486000Y218694000D03*
%TD*%
D17*
%TO.C,Conn2*%
X-46990000Y189738000D03*
D18*
X-43990001Y189738000D03*
X-40990002Y189738000D03*
X-37990003Y189738000D03*
X-34990004Y189738000D03*
X-31990005Y189738000D03*
X-28990006Y189738000D03*
X-25990006Y189738000D03*
X-22990007Y189738000D03*
D11*
X-49989999Y191698000D03*
X-19990060Y191698000D03*
%TD*%
D19*
%TO.C,D20*%
X-57846000Y188246000D03*
X-55946000Y188246000D03*
X-56896000Y190246000D03*
%TD*%
%TO.C,D22*%
X-56134000Y179879500D03*
X-55184000Y177879500D03*
X-57084000Y177879500D03*
%TD*%
%TO.C,D21*%
X-71628000Y188150500D03*
X-72578000Y190150500D03*
X-70678000Y190150500D03*
%TD*%
%TO.C,D23*%
X-73660000Y184896000D03*
X-72710000Y182896000D03*
X-74610000Y182896000D03*
%TD*%
%TO.C,R47*%
G36*
G01*
X-69325500Y180216000D02*
X-68850500Y180216000D01*
G75*
G02*
X-68613000Y179978500I0J-237500D01*
G01*
X-68613000Y179478500D01*
G75*
G02*
X-68850500Y179241000I-237500J0D01*
G01*
X-69325500Y179241000D01*
G75*
G02*
X-69563000Y179478500I0J237500D01*
G01*
X-69563000Y179978500D01*
G75*
G02*
X-69325500Y180216000I237500J0D01*
G01*
G37*
G36*
G01*
X-69325500Y178391000D02*
X-68850500Y178391000D01*
G75*
G02*
X-68613000Y178153500I0J-237500D01*
G01*
X-68613000Y177653500D01*
G75*
G02*
X-68850500Y177416000I-237500J0D01*
G01*
X-69325500Y177416000D01*
G75*
G02*
X-69563000Y177653500I0J237500D01*
G01*
X-69563000Y178153500D01*
G75*
G02*
X-69325500Y178391000I237500J0D01*
G01*
G37*
%TD*%
%TO.C,R48*%
G36*
G01*
X-70849500Y183447500D02*
X-70374500Y183447500D01*
G75*
G02*
X-70137000Y183210000I0J-237500D01*
G01*
X-70137000Y182710000D01*
G75*
G02*
X-70374500Y182472500I-237500J0D01*
G01*
X-70849500Y182472500D01*
G75*
G02*
X-71087000Y182710000I0J237500D01*
G01*
X-71087000Y183210000D01*
G75*
G02*
X-70849500Y183447500I237500J0D01*
G01*
G37*
G36*
G01*
X-70849500Y185272500D02*
X-70374500Y185272500D01*
G75*
G02*
X-70137000Y185035000I0J-237500D01*
G01*
X-70137000Y184535000D01*
G75*
G02*
X-70374500Y184297500I-237500J0D01*
G01*
X-70849500Y184297500D01*
G75*
G02*
X-71087000Y184535000I0J237500D01*
G01*
X-71087000Y185035000D01*
G75*
G02*
X-70849500Y185272500I237500J0D01*
G01*
G37*
%TD*%
%TO.C,R41*%
G36*
G01*
X-67186000Y193818500D02*
X-67186000Y194293500D01*
G75*
G02*
X-66948500Y194531000I237500J0D01*
G01*
X-66448500Y194531000D01*
G75*
G02*
X-66211000Y194293500I0J-237500D01*
G01*
X-66211000Y193818500D01*
G75*
G02*
X-66448500Y193581000I-237500J0D01*
G01*
X-66948500Y193581000D01*
G75*
G02*
X-67186000Y193818500I0J237500D01*
G01*
G37*
G36*
G01*
X-65361000Y193818500D02*
X-65361000Y194293500D01*
G75*
G02*
X-65123500Y194531000I237500J0D01*
G01*
X-64623500Y194531000D01*
G75*
G02*
X-64386000Y194293500I0J-237500D01*
G01*
X-64386000Y193818500D01*
G75*
G02*
X-64623500Y193581000I-237500J0D01*
G01*
X-65123500Y193581000D01*
G75*
G02*
X-65361000Y193818500I0J237500D01*
G01*
G37*
%TD*%
%TO.C,U9*%
G36*
G01*
X-62316500Y190474500D02*
X-62016500Y190474500D01*
G75*
G02*
X-61866500Y190324500I0J-150000D01*
G01*
X-61866500Y189024500D01*
G75*
G02*
X-62016500Y188874500I-150000J0D01*
G01*
X-62316500Y188874500D01*
G75*
G02*
X-62466500Y189024500I0J150000D01*
G01*
X-62466500Y190324500D01*
G75*
G02*
X-62316500Y190474500I150000J0D01*
G01*
G37*
G36*
G01*
X-63586500Y190474500D02*
X-63286500Y190474500D01*
G75*
G02*
X-63136500Y190324500I0J-150000D01*
G01*
X-63136500Y189024500D01*
G75*
G02*
X-63286500Y188874500I-150000J0D01*
G01*
X-63586500Y188874500D01*
G75*
G02*
X-63736500Y189024500I0J150000D01*
G01*
X-63736500Y190324500D01*
G75*
G02*
X-63586500Y190474500I150000J0D01*
G01*
G37*
G36*
G01*
X-64856500Y190474500D02*
X-64556500Y190474500D01*
G75*
G02*
X-64406500Y190324500I0J-150000D01*
G01*
X-64406500Y189024500D01*
G75*
G02*
X-64556500Y188874500I-150000J0D01*
G01*
X-64856500Y188874500D01*
G75*
G02*
X-65006500Y189024500I0J150000D01*
G01*
X-65006500Y190324500D01*
G75*
G02*
X-64856500Y190474500I150000J0D01*
G01*
G37*
G36*
G01*
X-66126500Y190474500D02*
X-65826500Y190474500D01*
G75*
G02*
X-65676500Y190324500I0J-150000D01*
G01*
X-65676500Y189024500D01*
G75*
G02*
X-65826500Y188874500I-150000J0D01*
G01*
X-66126500Y188874500D01*
G75*
G02*
X-66276500Y189024500I0J150000D01*
G01*
X-66276500Y190324500D01*
G75*
G02*
X-66126500Y190474500I150000J0D01*
G01*
G37*
G36*
G01*
X-66126500Y183274500D02*
X-65826500Y183274500D01*
G75*
G02*
X-65676500Y183124500I0J-150000D01*
G01*
X-65676500Y181824500D01*
G75*
G02*
X-65826500Y181674500I-150000J0D01*
G01*
X-66126500Y181674500D01*
G75*
G02*
X-66276500Y181824500I0J150000D01*
G01*
X-66276500Y183124500D01*
G75*
G02*
X-66126500Y183274500I150000J0D01*
G01*
G37*
G36*
G01*
X-64856500Y183274500D02*
X-64556500Y183274500D01*
G75*
G02*
X-64406500Y183124500I0J-150000D01*
G01*
X-64406500Y181824500D01*
G75*
G02*
X-64556500Y181674500I-150000J0D01*
G01*
X-64856500Y181674500D01*
G75*
G02*
X-65006500Y181824500I0J150000D01*
G01*
X-65006500Y183124500D01*
G75*
G02*
X-64856500Y183274500I150000J0D01*
G01*
G37*
G36*
G01*
X-63586500Y183274500D02*
X-63286500Y183274500D01*
G75*
G02*
X-63136500Y183124500I0J-150000D01*
G01*
X-63136500Y181824500D01*
G75*
G02*
X-63286500Y181674500I-150000J0D01*
G01*
X-63586500Y181674500D01*
G75*
G02*
X-63736500Y181824500I0J150000D01*
G01*
X-63736500Y183124500D01*
G75*
G02*
X-63586500Y183274500I150000J0D01*
G01*
G37*
G36*
G01*
X-62316500Y183274500D02*
X-62016500Y183274500D01*
G75*
G02*
X-61866500Y183124500I0J-150000D01*
G01*
X-61866500Y181824500D01*
G75*
G02*
X-62016500Y181674500I-150000J0D01*
G01*
X-62316500Y181674500D01*
G75*
G02*
X-62466500Y181824500I0J150000D01*
G01*
X-62466500Y183124500D01*
G75*
G02*
X-62316500Y183274500I150000J0D01*
G01*
G37*
%TD*%
%TO.C,R44*%
G36*
G01*
X-60933500Y192261500D02*
X-60933500Y191786500D01*
G75*
G02*
X-61171000Y191549000I-237500J0D01*
G01*
X-61671000Y191549000D01*
G75*
G02*
X-61908500Y191786500I0J237500D01*
G01*
X-61908500Y192261500D01*
G75*
G02*
X-61671000Y192499000I237500J0D01*
G01*
X-61171000Y192499000D01*
G75*
G02*
X-60933500Y192261500I0J-237500D01*
G01*
G37*
G36*
G01*
X-62758500Y192261500D02*
X-62758500Y191786500D01*
G75*
G02*
X-62996000Y191549000I-237500J0D01*
G01*
X-63496000Y191549000D01*
G75*
G02*
X-63733500Y191786500I0J237500D01*
G01*
X-63733500Y192261500D01*
G75*
G02*
X-63496000Y192499000I237500J0D01*
G01*
X-62996000Y192499000D01*
G75*
G02*
X-62758500Y192261500I0J-237500D01*
G01*
G37*
%TD*%
%TO.C,R43*%
G36*
G01*
X-57674500Y183766000D02*
X-58149500Y183766000D01*
G75*
G02*
X-58387000Y184003500I0J237500D01*
G01*
X-58387000Y184503500D01*
G75*
G02*
X-58149500Y184741000I237500J0D01*
G01*
X-57674500Y184741000D01*
G75*
G02*
X-57437000Y184503500I0J-237500D01*
G01*
X-57437000Y184003500D01*
G75*
G02*
X-57674500Y183766000I-237500J0D01*
G01*
G37*
G36*
G01*
X-57674500Y185591000D02*
X-58149500Y185591000D01*
G75*
G02*
X-58387000Y185828500I0J237500D01*
G01*
X-58387000Y186328500D01*
G75*
G02*
X-58149500Y186566000I237500J0D01*
G01*
X-57674500Y186566000D01*
G75*
G02*
X-57437000Y186328500I0J-237500D01*
G01*
X-57437000Y185828500D01*
G75*
G02*
X-57674500Y185591000I-237500J0D01*
G01*
G37*
%TD*%
%TO.C,R46*%
G36*
G01*
X-65802500Y179344500D02*
X-66277500Y179344500D01*
G75*
G02*
X-66515000Y179582000I0J237500D01*
G01*
X-66515000Y180082000D01*
G75*
G02*
X-66277500Y180319500I237500J0D01*
G01*
X-65802500Y180319500D01*
G75*
G02*
X-65565000Y180082000I0J-237500D01*
G01*
X-65565000Y179582000D01*
G75*
G02*
X-65802500Y179344500I-237500J0D01*
G01*
G37*
G36*
G01*
X-65802500Y177519500D02*
X-66277500Y177519500D01*
G75*
G02*
X-66515000Y177757000I0J237500D01*
G01*
X-66515000Y178257000D01*
G75*
G02*
X-66277500Y178494500I237500J0D01*
G01*
X-65802500Y178494500D01*
G75*
G02*
X-65565000Y178257000I0J-237500D01*
G01*
X-65565000Y177757000D01*
G75*
G02*
X-65802500Y177519500I-237500J0D01*
G01*
G37*
%TD*%
%TO.C,R42*%
G36*
G01*
X-57571000Y193465000D02*
X-58046000Y193465000D01*
G75*
G02*
X-58283500Y193702500I0J237500D01*
G01*
X-58283500Y194202500D01*
G75*
G02*
X-58046000Y194440000I237500J0D01*
G01*
X-57571000Y194440000D01*
G75*
G02*
X-57333500Y194202500I0J-237500D01*
G01*
X-57333500Y193702500D01*
G75*
G02*
X-57571000Y193465000I-237500J0D01*
G01*
G37*
G36*
G01*
X-57571000Y191640000D02*
X-58046000Y191640000D01*
G75*
G02*
X-58283500Y191877500I0J237500D01*
G01*
X-58283500Y192377500D01*
G75*
G02*
X-58046000Y192615000I237500J0D01*
G01*
X-57571000Y192615000D01*
G75*
G02*
X-57333500Y192377500I0J-237500D01*
G01*
X-57333500Y191877500D01*
G75*
G02*
X-57571000Y191640000I-237500J0D01*
G01*
G37*
%TD*%
%TO.C,R45*%
G36*
G01*
X-59560000Y179157000D02*
X-59560000Y178682000D01*
G75*
G02*
X-59797500Y178444500I-237500J0D01*
G01*
X-60297500Y178444500D01*
G75*
G02*
X-60535000Y178682000I0J237500D01*
G01*
X-60535000Y179157000D01*
G75*
G02*
X-60297500Y179394500I237500J0D01*
G01*
X-59797500Y179394500D01*
G75*
G02*
X-59560000Y179157000I0J-237500D01*
G01*
G37*
G36*
G01*
X-61385000Y179157000D02*
X-61385000Y178682000D01*
G75*
G02*
X-61622500Y178444500I-237500J0D01*
G01*
X-62122500Y178444500D01*
G75*
G02*
X-62360000Y178682000I0J237500D01*
G01*
X-62360000Y179157000D01*
G75*
G02*
X-62122500Y179394500I237500J0D01*
G01*
X-61622500Y179394500D01*
G75*
G02*
X-61385000Y179157000I0J-237500D01*
G01*
G37*
%TD*%
D20*
%TO.C,BZ1*%
X-112395000Y296010000D03*
X-112395000Y283410000D03*
%TD*%
D21*
%TO.C,C2*%
X-91662000Y197866000D03*
D22*
X-89662000Y197866000D03*
%TD*%
D21*
%TO.C,C5*%
X-103854000Y197358000D03*
D22*
X-101854000Y197358000D03*
%TD*%
D11*
%TO.C,Conn1*%
X-113102000Y199012053D03*
X-113102000Y226011999D03*
D18*
X-115062000Y202012006D03*
X-115062000Y205012006D03*
X-115062000Y208012005D03*
X-115062000Y211012004D03*
X-115062000Y214012003D03*
X-115062000Y217012002D03*
X-115062000Y220012001D03*
D17*
X-115062000Y223012000D03*
%TD*%
D11*
%TO.C,Conn3*%
X-19990060Y181538000D03*
X-49989999Y181538000D03*
D18*
X-22990007Y179578000D03*
X-25990006Y179578000D03*
X-28990006Y179578000D03*
X-31990005Y179578000D03*
X-34990004Y179578000D03*
X-37990003Y179578000D03*
X-40990002Y179578000D03*
X-43990001Y179578000D03*
D17*
X-46990000Y179578000D03*
%TD*%
D23*
%TO.C,Conn4*%
X-38862000Y248412000D03*
X-38862000Y240512000D03*
%TD*%
%TO.C,F1*%
G36*
G01*
X-81979999Y246814500D02*
X-86930001Y246814500D01*
G75*
G02*
X-87180000Y247064499I0J249999D01*
G01*
X-87180000Y248489501D01*
G75*
G02*
X-86930001Y248739500I249999J0D01*
G01*
X-81979999Y248739500D01*
G75*
G02*
X-81730000Y248489501I0J-249999D01*
G01*
X-81730000Y247064499D01*
G75*
G02*
X-81979999Y246814500I-249999J0D01*
G01*
G37*
G36*
G01*
X-81979999Y253589500D02*
X-86930001Y253589500D01*
G75*
G02*
X-87180000Y253839499I0J249999D01*
G01*
X-87180000Y255264501D01*
G75*
G02*
X-86930001Y255514500I249999J0D01*
G01*
X-81979999Y255514500D01*
G75*
G02*
X-81730000Y255264501I0J-249999D01*
G01*
X-81730000Y253839499D01*
G75*
G02*
X-81979999Y253589500I-249999J0D01*
G01*
G37*
%TD*%
D12*
%TO.C,J1*%
X-82042000Y195630800D03*
D11*
X-80086200Y192633600D03*
X-80086200Y204622400D03*
D12*
X-82042000Y198628000D03*
D13*
X-82042000Y201625200D03*
%TD*%
%TO.C,J2*%
X-82042000Y186385200D03*
D12*
X-82042000Y183388000D03*
D11*
X-80086200Y189382400D03*
X-80086200Y177393600D03*
D12*
X-82042000Y180390800D03*
%TD*%
D13*
%TO.C,J3*%
X-97790000Y274142200D03*
D12*
X-97790000Y271145000D03*
D11*
X-95834200Y277152100D03*
X-95834200Y262140700D03*
D12*
X-97790000Y268147800D03*
X-97790000Y265150600D03*
%TD*%
D24*
%TO.C,Q1*%
X-112395000Y272415000D03*
D25*
X-112395000Y274955000D03*
X-112395000Y273685000D03*
%TD*%
D26*
%TO.C,Q3*%
X-106680000Y222758000D03*
D27*
X-104140000Y222758000D03*
X-105410000Y222758000D03*
%TD*%
D28*
%TO.C,Q4*%
X-54423000Y277622000D03*
X-54423000Y278892000D03*
X-54423000Y280162000D03*
X-54423000Y282702000D03*
X-54423000Y283972000D03*
X-54423000Y285242000D03*
D29*
X-63573000Y281432000D03*
%TD*%
D13*
%TO.C,SW2*%
X-79095600Y241935000D03*
D12*
X-82092800Y241935000D03*
D11*
X-76098400Y239979200D03*
X-88087200Y239979200D03*
D12*
X-85090000Y241935000D03*
%TD*%
D30*
%TO.C,U2*%
X-94691200Y191312800D03*
X-92151200Y191312800D03*
X-89611200Y191312800D03*
%TD*%
D31*
%TO.C,U5*%
X-60050680Y239742980D03*
X-56230520Y239742980D03*
X-58140600Y239742980D03*
D32*
X-53060600Y261239000D03*
X-63220600Y261239000D03*
%TD*%
D33*
%TO.C,V1*%
X-108585000Y254635000D03*
%TD*%
%TO.C,V2*%
X-19685000Y254635000D03*
%TD*%
%TO.C,V3*%
X-19685000Y285115000D03*
%TD*%
D34*
%TO.C,J5*%
X-34544000Y218948000D03*
D35*
X-32544000Y218948000D03*
X-34544000Y220948000D03*
X-32544000Y220948000D03*
X-34544000Y222948000D03*
X-32544000Y222948000D03*
%TD*%
%TO.C,C1*%
G36*
G01*
X-86584500Y259063500D02*
X-86584500Y258588500D01*
G75*
G02*
X-86822000Y258351000I-237500J0D01*
G01*
X-87422000Y258351000D01*
G75*
G02*
X-87659500Y258588500I0J237500D01*
G01*
X-87659500Y259063500D01*
G75*
G02*
X-87422000Y259301000I237500J0D01*
G01*
X-86822000Y259301000D01*
G75*
G02*
X-86584500Y259063500I0J-237500D01*
G01*
G37*
G36*
G01*
X-88309500Y259063500D02*
X-88309500Y258588500D01*
G75*
G02*
X-88547000Y258351000I-237500J0D01*
G01*
X-89147000Y258351000D01*
G75*
G02*
X-89384500Y258588500I0J237500D01*
G01*
X-89384500Y259063500D01*
G75*
G02*
X-89147000Y259301000I237500J0D01*
G01*
X-88547000Y259301000D01*
G75*
G02*
X-88309500Y259063500I0J-237500D01*
G01*
G37*
%TD*%
%TO.C,C3*%
G36*
G01*
X-115807500Y191545500D02*
X-115332500Y191545500D01*
G75*
G02*
X-115095000Y191308000I0J-237500D01*
G01*
X-115095000Y190708000D01*
G75*
G02*
X-115332500Y190470500I-237500J0D01*
G01*
X-115807500Y190470500D01*
G75*
G02*
X-116045000Y190708000I0J237500D01*
G01*
X-116045000Y191308000D01*
G75*
G02*
X-115807500Y191545500I237500J0D01*
G01*
G37*
G36*
G01*
X-115807500Y189820500D02*
X-115332500Y189820500D01*
G75*
G02*
X-115095000Y189583000I0J-237500D01*
G01*
X-115095000Y188983000D01*
G75*
G02*
X-115332500Y188745500I-237500J0D01*
G01*
X-115807500Y188745500D01*
G75*
G02*
X-116045000Y188983000I0J237500D01*
G01*
X-116045000Y189583000D01*
G75*
G02*
X-115807500Y189820500I237500J0D01*
G01*
G37*
%TD*%
%TO.C,C4*%
G36*
G01*
X-118601500Y189820500D02*
X-118126500Y189820500D01*
G75*
G02*
X-117889000Y189583000I0J-237500D01*
G01*
X-117889000Y188983000D01*
G75*
G02*
X-118126500Y188745500I-237500J0D01*
G01*
X-118601500Y188745500D01*
G75*
G02*
X-118839000Y188983000I0J237500D01*
G01*
X-118839000Y189583000D01*
G75*
G02*
X-118601500Y189820500I237500J0D01*
G01*
G37*
G36*
G01*
X-118601500Y191545500D02*
X-118126500Y191545500D01*
G75*
G02*
X-117889000Y191308000I0J-237500D01*
G01*
X-117889000Y190708000D01*
G75*
G02*
X-118126500Y190470500I-237500J0D01*
G01*
X-118601500Y190470500D01*
G75*
G02*
X-118839000Y190708000I0J237500D01*
G01*
X-118839000Y191308000D01*
G75*
G02*
X-118601500Y191545500I237500J0D01*
G01*
G37*
%TD*%
%TO.C,C6*%
G36*
G01*
X-95929500Y201913500D02*
X-95929500Y201438500D01*
G75*
G02*
X-96167000Y201201000I-237500J0D01*
G01*
X-96767000Y201201000D01*
G75*
G02*
X-97004500Y201438500I0J237500D01*
G01*
X-97004500Y201913500D01*
G75*
G02*
X-96767000Y202151000I237500J0D01*
G01*
X-96167000Y202151000D01*
G75*
G02*
X-95929500Y201913500I0J-237500D01*
G01*
G37*
G36*
G01*
X-94204500Y201913500D02*
X-94204500Y201438500D01*
G75*
G02*
X-94442000Y201201000I-237500J0D01*
G01*
X-95042000Y201201000D01*
G75*
G02*
X-95279500Y201438500I0J237500D01*
G01*
X-95279500Y201913500D01*
G75*
G02*
X-95042000Y202151000I237500J0D01*
G01*
X-94442000Y202151000D01*
G75*
G02*
X-94204500Y201913500I0J-237500D01*
G01*
G37*
%TD*%
%TO.C,C7*%
G36*
G01*
X-94204500Y198865500D02*
X-94204500Y198390500D01*
G75*
G02*
X-94442000Y198153000I-237500J0D01*
G01*
X-95042000Y198153000D01*
G75*
G02*
X-95279500Y198390500I0J237500D01*
G01*
X-95279500Y198865500D01*
G75*
G02*
X-95042000Y199103000I237500J0D01*
G01*
X-94442000Y199103000D01*
G75*
G02*
X-94204500Y198865500I0J-237500D01*
G01*
G37*
G36*
G01*
X-95929500Y198865500D02*
X-95929500Y198390500D01*
G75*
G02*
X-96167000Y198153000I-237500J0D01*
G01*
X-96767000Y198153000D01*
G75*
G02*
X-97004500Y198390500I0J237500D01*
G01*
X-97004500Y198865500D01*
G75*
G02*
X-96767000Y199103000I237500J0D01*
G01*
X-96167000Y199103000D01*
G75*
G02*
X-95929500Y198865500I0J-237500D01*
G01*
G37*
%TD*%
%TO.C,C8*%
G36*
G01*
X-33457000Y230902500D02*
X-33457000Y231377500D01*
G75*
G02*
X-33219500Y231615000I237500J0D01*
G01*
X-32619500Y231615000D01*
G75*
G02*
X-32382000Y231377500I0J-237500D01*
G01*
X-32382000Y230902500D01*
G75*
G02*
X-32619500Y230665000I-237500J0D01*
G01*
X-33219500Y230665000D01*
G75*
G02*
X-33457000Y230902500I0J237500D01*
G01*
G37*
G36*
G01*
X-35182000Y230902500D02*
X-35182000Y231377500D01*
G75*
G02*
X-34944500Y231615000I237500J0D01*
G01*
X-34344500Y231615000D01*
G75*
G02*
X-34107000Y231377500I0J-237500D01*
G01*
X-34107000Y230902500D01*
G75*
G02*
X-34344500Y230665000I-237500J0D01*
G01*
X-34944500Y230665000D01*
G75*
G02*
X-35182000Y230902500I0J237500D01*
G01*
G37*
%TD*%
%TO.C,D2*%
G36*
G01*
X-103267500Y211325000D02*
X-103742500Y211325000D01*
G75*
G02*
X-103980000Y211562500I0J237500D01*
G01*
X-103980000Y212137500D01*
G75*
G02*
X-103742500Y212375000I237500J0D01*
G01*
X-103267500Y212375000D01*
G75*
G02*
X-103030000Y212137500I0J-237500D01*
G01*
X-103030000Y211562500D01*
G75*
G02*
X-103267500Y211325000I-237500J0D01*
G01*
G37*
G36*
G01*
X-103267500Y213075000D02*
X-103742500Y213075000D01*
G75*
G02*
X-103980000Y213312500I0J237500D01*
G01*
X-103980000Y213887500D01*
G75*
G02*
X-103742500Y214125000I237500J0D01*
G01*
X-103267500Y214125000D01*
G75*
G02*
X-103030000Y213887500I0J-237500D01*
G01*
X-103030000Y213312500D01*
G75*
G02*
X-103267500Y213075000I-237500J0D01*
G01*
G37*
%TD*%
D10*
%TO.C,D3*%
X-92964000Y267015000D03*
X-92964000Y265115000D03*
X-90964000Y266065000D03*
%TD*%
%TO.C,D4*%
G36*
G01*
X-112538500Y188733000D02*
X-113013500Y188733000D01*
G75*
G02*
X-113251000Y188970500I0J237500D01*
G01*
X-113251000Y189545500D01*
G75*
G02*
X-113013500Y189783000I237500J0D01*
G01*
X-112538500Y189783000D01*
G75*
G02*
X-112301000Y189545500I0J-237500D01*
G01*
X-112301000Y188970500D01*
G75*
G02*
X-112538500Y188733000I-237500J0D01*
G01*
G37*
G36*
G01*
X-112538500Y190483000D02*
X-113013500Y190483000D01*
G75*
G02*
X-113251000Y190720500I0J237500D01*
G01*
X-113251000Y191295500D01*
G75*
G02*
X-113013500Y191533000I237500J0D01*
G01*
X-112538500Y191533000D01*
G75*
G02*
X-112301000Y191295500I0J-237500D01*
G01*
X-112301000Y190720500D01*
G75*
G02*
X-112538500Y190483000I-237500J0D01*
G01*
G37*
%TD*%
%TO.C,D5*%
G36*
G01*
X-98950000Y240681500D02*
X-98950000Y241156500D01*
G75*
G02*
X-98712500Y241394000I237500J0D01*
G01*
X-98137500Y241394000D01*
G75*
G02*
X-97900000Y241156500I0J-237500D01*
G01*
X-97900000Y240681500D01*
G75*
G02*
X-98137500Y240444000I-237500J0D01*
G01*
X-98712500Y240444000D01*
G75*
G02*
X-98950000Y240681500I0J237500D01*
G01*
G37*
G36*
G01*
X-97200000Y240681500D02*
X-97200000Y241156500D01*
G75*
G02*
X-96962500Y241394000I237500J0D01*
G01*
X-96387500Y241394000D01*
G75*
G02*
X-96150000Y241156500I0J-237500D01*
G01*
X-96150000Y240681500D01*
G75*
G02*
X-96387500Y240444000I-237500J0D01*
G01*
X-96962500Y240444000D01*
G75*
G02*
X-97200000Y240681500I0J237500D01*
G01*
G37*
%TD*%
%TO.C,D6*%
G36*
G01*
X-98922000Y237379500D02*
X-98922000Y237854500D01*
G75*
G02*
X-98684500Y238092000I237500J0D01*
G01*
X-98109500Y238092000D01*
G75*
G02*
X-97872000Y237854500I0J-237500D01*
G01*
X-97872000Y237379500D01*
G75*
G02*
X-98109500Y237142000I-237500J0D01*
G01*
X-98684500Y237142000D01*
G75*
G02*
X-98922000Y237379500I0J237500D01*
G01*
G37*
G36*
G01*
X-97172000Y237379500D02*
X-97172000Y237854500D01*
G75*
G02*
X-96934500Y238092000I237500J0D01*
G01*
X-96359500Y238092000D01*
G75*
G02*
X-96122000Y237854500I0J-237500D01*
G01*
X-96122000Y237379500D01*
G75*
G02*
X-96359500Y237142000I-237500J0D01*
G01*
X-96934500Y237142000D01*
G75*
G02*
X-97172000Y237379500I0J237500D01*
G01*
G37*
%TD*%
%TO.C,D7*%
G36*
G01*
X-87520000Y276749500D02*
X-87520000Y277224500D01*
G75*
G02*
X-87282500Y277462000I237500J0D01*
G01*
X-86707500Y277462000D01*
G75*
G02*
X-86470000Y277224500I0J-237500D01*
G01*
X-86470000Y276749500D01*
G75*
G02*
X-86707500Y276512000I-237500J0D01*
G01*
X-87282500Y276512000D01*
G75*
G02*
X-87520000Y276749500I0J237500D01*
G01*
G37*
G36*
G01*
X-89270000Y276749500D02*
X-89270000Y277224500D01*
G75*
G02*
X-89032500Y277462000I237500J0D01*
G01*
X-88457500Y277462000D01*
G75*
G02*
X-88220000Y277224500I0J-237500D01*
G01*
X-88220000Y276749500D01*
G75*
G02*
X-88457500Y276512000I-237500J0D01*
G01*
X-89032500Y276512000D01*
G75*
G02*
X-89270000Y276749500I0J237500D01*
G01*
G37*
%TD*%
%TO.C,R1*%
G36*
G01*
X-95012500Y287191000D02*
X-95487500Y287191000D01*
G75*
G02*
X-95725000Y287428500I0J237500D01*
G01*
X-95725000Y287928500D01*
G75*
G02*
X-95487500Y288166000I237500J0D01*
G01*
X-95012500Y288166000D01*
G75*
G02*
X-94775000Y287928500I0J-237500D01*
G01*
X-94775000Y287428500D01*
G75*
G02*
X-95012500Y287191000I-237500J0D01*
G01*
G37*
G36*
G01*
X-95012500Y285366000D02*
X-95487500Y285366000D01*
G75*
G02*
X-95725000Y285603500I0J237500D01*
G01*
X-95725000Y286103500D01*
G75*
G02*
X-95487500Y286341000I237500J0D01*
G01*
X-95012500Y286341000D01*
G75*
G02*
X-94775000Y286103500I0J-237500D01*
G01*
X-94775000Y285603500D01*
G75*
G02*
X-95012500Y285366000I-237500J0D01*
G01*
G37*
%TD*%
%TO.C,R2*%
G36*
G01*
X-87482500Y273447500D02*
X-87482500Y273922500D01*
G75*
G02*
X-87245000Y274160000I237500J0D01*
G01*
X-86745000Y274160000D01*
G75*
G02*
X-86507500Y273922500I0J-237500D01*
G01*
X-86507500Y273447500D01*
G75*
G02*
X-86745000Y273210000I-237500J0D01*
G01*
X-87245000Y273210000D01*
G75*
G02*
X-87482500Y273447500I0J237500D01*
G01*
G37*
G36*
G01*
X-89307500Y273447500D02*
X-89307500Y273922500D01*
G75*
G02*
X-89070000Y274160000I237500J0D01*
G01*
X-88570000Y274160000D01*
G75*
G02*
X-88332500Y273922500I0J-237500D01*
G01*
X-88332500Y273447500D01*
G75*
G02*
X-88570000Y273210000I-237500J0D01*
G01*
X-89070000Y273210000D01*
G75*
G02*
X-89307500Y273447500I0J237500D01*
G01*
G37*
%TD*%
%TO.C,R4*%
G36*
G01*
X-90444500Y273922500D02*
X-90444500Y273447500D01*
G75*
G02*
X-90682000Y273210000I-237500J0D01*
G01*
X-91182000Y273210000D01*
G75*
G02*
X-91419500Y273447500I0J237500D01*
G01*
X-91419500Y273922500D01*
G75*
G02*
X-91182000Y274160000I237500J0D01*
G01*
X-90682000Y274160000D01*
G75*
G02*
X-90444500Y273922500I0J-237500D01*
G01*
G37*
G36*
G01*
X-92269500Y273922500D02*
X-92269500Y273447500D01*
G75*
G02*
X-92507000Y273210000I-237500J0D01*
G01*
X-93007000Y273210000D01*
G75*
G02*
X-93244500Y273447500I0J237500D01*
G01*
X-93244500Y273922500D01*
G75*
G02*
X-93007000Y274160000I237500J0D01*
G01*
X-92507000Y274160000D01*
G75*
G02*
X-92269500Y273922500I0J-237500D01*
G01*
G37*
%TD*%
%TO.C,R5*%
G36*
G01*
X-105647500Y272267500D02*
X-105172500Y272267500D01*
G75*
G02*
X-104935000Y272030000I0J-237500D01*
G01*
X-104935000Y271530000D01*
G75*
G02*
X-105172500Y271292500I-237500J0D01*
G01*
X-105647500Y271292500D01*
G75*
G02*
X-105885000Y271530000I0J237500D01*
G01*
X-105885000Y272030000D01*
G75*
G02*
X-105647500Y272267500I237500J0D01*
G01*
G37*
G36*
G01*
X-105647500Y274092500D02*
X-105172500Y274092500D01*
G75*
G02*
X-104935000Y273855000I0J-237500D01*
G01*
X-104935000Y273355000D01*
G75*
G02*
X-105172500Y273117500I-237500J0D01*
G01*
X-105647500Y273117500D01*
G75*
G02*
X-105885000Y273355000I0J237500D01*
G01*
X-105885000Y273855000D01*
G75*
G02*
X-105647500Y274092500I237500J0D01*
G01*
G37*
%TD*%
%TO.C,R8*%
G36*
G01*
X-106169000Y212073500D02*
X-106169000Y211598500D01*
G75*
G02*
X-106406500Y211361000I-237500J0D01*
G01*
X-106906500Y211361000D01*
G75*
G02*
X-107144000Y211598500I0J237500D01*
G01*
X-107144000Y212073500D01*
G75*
G02*
X-106906500Y212311000I237500J0D01*
G01*
X-106406500Y212311000D01*
G75*
G02*
X-106169000Y212073500I0J-237500D01*
G01*
G37*
G36*
G01*
X-107994000Y212073500D02*
X-107994000Y211598500D01*
G75*
G02*
X-108231500Y211361000I-237500J0D01*
G01*
X-108731500Y211361000D01*
G75*
G02*
X-108969000Y211598500I0J237500D01*
G01*
X-108969000Y212073500D01*
G75*
G02*
X-108731500Y212311000I237500J0D01*
G01*
X-108231500Y212311000D01*
G75*
G02*
X-107994000Y212073500I0J-237500D01*
G01*
G37*
%TD*%
%TO.C,R9*%
G36*
G01*
X-107120500Y208550500D02*
X-107120500Y209025500D01*
G75*
G02*
X-106883000Y209263000I237500J0D01*
G01*
X-106383000Y209263000D01*
G75*
G02*
X-106145500Y209025500I0J-237500D01*
G01*
X-106145500Y208550500D01*
G75*
G02*
X-106383000Y208313000I-237500J0D01*
G01*
X-106883000Y208313000D01*
G75*
G02*
X-107120500Y208550500I0J237500D01*
G01*
G37*
G36*
G01*
X-108945500Y208550500D02*
X-108945500Y209025500D01*
G75*
G02*
X-108708000Y209263000I237500J0D01*
G01*
X-108208000Y209263000D01*
G75*
G02*
X-107970500Y209025500I0J-237500D01*
G01*
X-107970500Y208550500D01*
G75*
G02*
X-108208000Y208313000I-237500J0D01*
G01*
X-108708000Y208313000D01*
G75*
G02*
X-108945500Y208550500I0J237500D01*
G01*
G37*
%TD*%
%TO.C,R10*%
G36*
G01*
X-86507500Y266302500D02*
X-86507500Y265827500D01*
G75*
G02*
X-86745000Y265590000I-237500J0D01*
G01*
X-87245000Y265590000D01*
G75*
G02*
X-87482500Y265827500I0J237500D01*
G01*
X-87482500Y266302500D01*
G75*
G02*
X-87245000Y266540000I237500J0D01*
G01*
X-86745000Y266540000D01*
G75*
G02*
X-86507500Y266302500I0J-237500D01*
G01*
G37*
G36*
G01*
X-88332500Y266302500D02*
X-88332500Y265827500D01*
G75*
G02*
X-88570000Y265590000I-237500J0D01*
G01*
X-89070000Y265590000D01*
G75*
G02*
X-89307500Y265827500I0J237500D01*
G01*
X-89307500Y266302500D01*
G75*
G02*
X-89070000Y266540000I237500J0D01*
G01*
X-88570000Y266540000D01*
G75*
G02*
X-88332500Y266302500I0J-237500D01*
G01*
G37*
%TD*%
%TO.C,R11*%
G36*
G01*
X-89475500Y269477500D02*
X-89475500Y269002500D01*
G75*
G02*
X-89713000Y268765000I-237500J0D01*
G01*
X-90213000Y268765000D01*
G75*
G02*
X-90450500Y269002500I0J237500D01*
G01*
X-90450500Y269477500D01*
G75*
G02*
X-90213000Y269715000I237500J0D01*
G01*
X-89713000Y269715000D01*
G75*
G02*
X-89475500Y269477500I0J-237500D01*
G01*
G37*
G36*
G01*
X-87650500Y269477500D02*
X-87650500Y269002500D01*
G75*
G02*
X-87888000Y268765000I-237500J0D01*
G01*
X-88388000Y268765000D01*
G75*
G02*
X-88625500Y269002500I0J237500D01*
G01*
X-88625500Y269477500D01*
G75*
G02*
X-88388000Y269715000I237500J0D01*
G01*
X-87888000Y269715000D01*
G75*
G02*
X-87650500Y269477500I0J-237500D01*
G01*
G37*
%TD*%
%TO.C,R12*%
G36*
G01*
X-113013500Y186923500D02*
X-112538500Y186923500D01*
G75*
G02*
X-112301000Y186686000I0J-237500D01*
G01*
X-112301000Y186186000D01*
G75*
G02*
X-112538500Y185948500I-237500J0D01*
G01*
X-113013500Y185948500D01*
G75*
G02*
X-113251000Y186186000I0J237500D01*
G01*
X-113251000Y186686000D01*
G75*
G02*
X-113013500Y186923500I237500J0D01*
G01*
G37*
G36*
G01*
X-113013500Y185098500D02*
X-112538500Y185098500D01*
G75*
G02*
X-112301000Y184861000I0J-237500D01*
G01*
X-112301000Y184361000D01*
G75*
G02*
X-112538500Y184123500I-237500J0D01*
G01*
X-113013500Y184123500D01*
G75*
G02*
X-113251000Y184361000I0J237500D01*
G01*
X-113251000Y184861000D01*
G75*
G02*
X-113013500Y185098500I237500J0D01*
G01*
G37*
%TD*%
%TO.C,R13*%
G36*
G01*
X-100477500Y241156500D02*
X-100477500Y240681500D01*
G75*
G02*
X-100715000Y240444000I-237500J0D01*
G01*
X-101215000Y240444000D01*
G75*
G02*
X-101452500Y240681500I0J237500D01*
G01*
X-101452500Y241156500D01*
G75*
G02*
X-101215000Y241394000I237500J0D01*
G01*
X-100715000Y241394000D01*
G75*
G02*
X-100477500Y241156500I0J-237500D01*
G01*
G37*
G36*
G01*
X-102302500Y241156500D02*
X-102302500Y240681500D01*
G75*
G02*
X-102540000Y240444000I-237500J0D01*
G01*
X-103040000Y240444000D01*
G75*
G02*
X-103277500Y240681500I0J237500D01*
G01*
X-103277500Y241156500D01*
G75*
G02*
X-103040000Y241394000I237500J0D01*
G01*
X-102540000Y241394000D01*
G75*
G02*
X-102302500Y241156500I0J-237500D01*
G01*
G37*
%TD*%
%TO.C,R14*%
G36*
G01*
X-100477500Y237854500D02*
X-100477500Y237379500D01*
G75*
G02*
X-100715000Y237142000I-237500J0D01*
G01*
X-101215000Y237142000D01*
G75*
G02*
X-101452500Y237379500I0J237500D01*
G01*
X-101452500Y237854500D01*
G75*
G02*
X-101215000Y238092000I237500J0D01*
G01*
X-100715000Y238092000D01*
G75*
G02*
X-100477500Y237854500I0J-237500D01*
G01*
G37*
G36*
G01*
X-102302500Y237854500D02*
X-102302500Y237379500D01*
G75*
G02*
X-102540000Y237142000I-237500J0D01*
G01*
X-103040000Y237142000D01*
G75*
G02*
X-103277500Y237379500I0J237500D01*
G01*
X-103277500Y237854500D01*
G75*
G02*
X-103040000Y238092000I237500J0D01*
G01*
X-102540000Y238092000D01*
G75*
G02*
X-102302500Y237854500I0J-237500D01*
G01*
G37*
%TD*%
%TO.C,R15*%
G36*
G01*
X-92142500Y277224500D02*
X-92142500Y276749500D01*
G75*
G02*
X-92380000Y276512000I-237500J0D01*
G01*
X-92880000Y276512000D01*
G75*
G02*
X-93117500Y276749500I0J237500D01*
G01*
X-93117500Y277224500D01*
G75*
G02*
X-92880000Y277462000I237500J0D01*
G01*
X-92380000Y277462000D01*
G75*
G02*
X-92142500Y277224500I0J-237500D01*
G01*
G37*
G36*
G01*
X-90317500Y277224500D02*
X-90317500Y276749500D01*
G75*
G02*
X-90555000Y276512000I-237500J0D01*
G01*
X-91055000Y276512000D01*
G75*
G02*
X-91292500Y276749500I0J237500D01*
G01*
X-91292500Y277224500D01*
G75*
G02*
X-91055000Y277462000I237500J0D01*
G01*
X-90555000Y277462000D01*
G75*
G02*
X-90317500Y277224500I0J-237500D01*
G01*
G37*
%TD*%
%TO.C,R16*%
G36*
G01*
X-91587500Y269477500D02*
X-91587500Y269002500D01*
G75*
G02*
X-91825000Y268765000I-237500J0D01*
G01*
X-92325000Y268765000D01*
G75*
G02*
X-92562500Y269002500I0J237500D01*
G01*
X-92562500Y269477500D01*
G75*
G02*
X-92325000Y269715000I237500J0D01*
G01*
X-91825000Y269715000D01*
G75*
G02*
X-91587500Y269477500I0J-237500D01*
G01*
G37*
G36*
G01*
X-93412500Y269477500D02*
X-93412500Y269002500D01*
G75*
G02*
X-93650000Y268765000I-237500J0D01*
G01*
X-94150000Y268765000D01*
G75*
G02*
X-94387500Y269002500I0J237500D01*
G01*
X-94387500Y269477500D01*
G75*
G02*
X-94150000Y269715000I237500J0D01*
G01*
X-93650000Y269715000D01*
G75*
G02*
X-93412500Y269477500I0J-237500D01*
G01*
G37*
%TD*%
%TO.C,U3*%
G36*
G01*
X-92030000Y289537000D02*
X-92030000Y289837000D01*
G75*
G02*
X-91880000Y289987000I150000J0D01*
G01*
X-90580000Y289987000D01*
G75*
G02*
X-90430000Y289837000I0J-150000D01*
G01*
X-90430000Y289537000D01*
G75*
G02*
X-90580000Y289387000I-150000J0D01*
G01*
X-91880000Y289387000D01*
G75*
G02*
X-92030000Y289537000I0J150000D01*
G01*
G37*
G36*
G01*
X-92030000Y288267000D02*
X-92030000Y288567000D01*
G75*
G02*
X-91880000Y288717000I150000J0D01*
G01*
X-90580000Y288717000D01*
G75*
G02*
X-90430000Y288567000I0J-150000D01*
G01*
X-90430000Y288267000D01*
G75*
G02*
X-90580000Y288117000I-150000J0D01*
G01*
X-91880000Y288117000D01*
G75*
G02*
X-92030000Y288267000I0J150000D01*
G01*
G37*
G36*
G01*
X-92030000Y286997000D02*
X-92030000Y287297000D01*
G75*
G02*
X-91880000Y287447000I150000J0D01*
G01*
X-90580000Y287447000D01*
G75*
G02*
X-90430000Y287297000I0J-150000D01*
G01*
X-90430000Y286997000D01*
G75*
G02*
X-90580000Y286847000I-150000J0D01*
G01*
X-91880000Y286847000D01*
G75*
G02*
X-92030000Y286997000I0J150000D01*
G01*
G37*
G36*
G01*
X-92030000Y285727000D02*
X-92030000Y286027000D01*
G75*
G02*
X-91880000Y286177000I150000J0D01*
G01*
X-90580000Y286177000D01*
G75*
G02*
X-90430000Y286027000I0J-150000D01*
G01*
X-90430000Y285727000D01*
G75*
G02*
X-90580000Y285577000I-150000J0D01*
G01*
X-91880000Y285577000D01*
G75*
G02*
X-92030000Y285727000I0J150000D01*
G01*
G37*
G36*
G01*
X-84830000Y285727000D02*
X-84830000Y286027000D01*
G75*
G02*
X-84680000Y286177000I150000J0D01*
G01*
X-83380000Y286177000D01*
G75*
G02*
X-83230000Y286027000I0J-150000D01*
G01*
X-83230000Y285727000D01*
G75*
G02*
X-83380000Y285577000I-150000J0D01*
G01*
X-84680000Y285577000D01*
G75*
G02*
X-84830000Y285727000I0J150000D01*
G01*
G37*
G36*
G01*
X-84830000Y286997000D02*
X-84830000Y287297000D01*
G75*
G02*
X-84680000Y287447000I150000J0D01*
G01*
X-83380000Y287447000D01*
G75*
G02*
X-83230000Y287297000I0J-150000D01*
G01*
X-83230000Y286997000D01*
G75*
G02*
X-83380000Y286847000I-150000J0D01*
G01*
X-84680000Y286847000D01*
G75*
G02*
X-84830000Y286997000I0J150000D01*
G01*
G37*
G36*
G01*
X-84830000Y288267000D02*
X-84830000Y288567000D01*
G75*
G02*
X-84680000Y288717000I150000J0D01*
G01*
X-83380000Y288717000D01*
G75*
G02*
X-83230000Y288567000I0J-150000D01*
G01*
X-83230000Y288267000D01*
G75*
G02*
X-83380000Y288117000I-150000J0D01*
G01*
X-84680000Y288117000D01*
G75*
G02*
X-84830000Y288267000I0J150000D01*
G01*
G37*
G36*
G01*
X-84830000Y289537000D02*
X-84830000Y289837000D01*
G75*
G02*
X-84680000Y289987000I150000J0D01*
G01*
X-83380000Y289987000D01*
G75*
G02*
X-83230000Y289837000I0J-150000D01*
G01*
X-83230000Y289537000D01*
G75*
G02*
X-83380000Y289387000I-150000J0D01*
G01*
X-84680000Y289387000D01*
G75*
G02*
X-84830000Y289537000I0J150000D01*
G01*
G37*
%TD*%
D36*
%TO.C,J4*%
X-23670000Y232794000D03*
X-23670000Y217044000D03*
D37*
X-15540000Y218594000D03*
X-17330000Y231244000D03*
X-17330000Y221134000D03*
X-15540000Y228704000D03*
D38*
X-20620000Y219204000D03*
X-20620000Y230634000D03*
D39*
X-26970000Y220474000D03*
X-26970000Y223014000D03*
X-26970000Y225554000D03*
X-26970000Y228094000D03*
X-29510000Y221744000D03*
X-29510000Y224284000D03*
X-29510000Y226824000D03*
X-29510000Y229364000D03*
%TD*%
D30*
%TO.C,U4*%
X-101854000Y191008000D03*
X-104394000Y191008000D03*
X-106934000Y191008000D03*
%TD*%
M02*
