M48
; DRILL file {KiCad (5.1.10)-1} date 03/20/22 14:43:38
; FORMAT={-:-/ absolute / inch / decimal}
; #@! TF.CreationDate,2022-03-20T14:43:38-05:00
; #@! TF.GenerationSoftware,Kicad,Pcbnew,(5.1.10)-1
; #@! TF.FileFunction,Plated,1,2,PTH
FMAT,2
INCH
T1C0.0157
T2C0.0276
T3C0.0295
T4C0.0315
T5C0.0335
T6C0.0350
T7C0.0354
T8C0.0354
T9C0.0402
T10C0.0630
T11C0.0800
T12C0.1280
T13C0.1616
T14C0.1616
T15C0.3600
%
G90
G05
T1
X-4.74Y9.54
X-4.74Y9.14
X-4.68Y11.72
X-4.65Y7.35
X-4.62Y9.14
X-4.55Y7.35
X-4.52Y11.72
X-4.5Y9.14
X-4.4Y7.2
X-4.38Y9.26
X-4.38Y9.14
X-4.18Y11.72
X-4.18Y11.52
X-4.1Y8.2
X-4.05Y9.6
X-4.05Y9.25
X-4.02Y11.72
X-4.02Y11.52
X-3.9Y7.95
X-3.9Y7.8
X-3.865Y11.34
X-3.81Y7.675
X-3.74Y11.14
X-3.74Y8.485
X-3.66Y7.675
X-3.65Y10.25
X-3.62Y11.06
X-3.62Y10.79
X-3.56Y11.72
X-3.56Y11.52
X-3.525Y8.875
X-3.42Y8.385
X-3.38Y11.64
X-3.38Y11.5
X-3.38Y11.18
X-3.38Y11.02
X-3.38Y10.6
X-3.38Y10.42
X-3.38Y10.26
X-3.38Y10.1
X-3.37Y10.86
X-3.37Y10.76
X-3.3Y9.01
X-3.24Y11.64
X-3.24Y11.5
X-3.24Y11.34
X-3.24Y11.18
X-3.24Y11.02
X-3.24Y10.86
X-3.24Y10.76
X-3.24Y10.6
X-3.24Y10.42
X-3.24Y10.26
X-3.24Y10.1
X-3.18Y9.01
X-3.165Y9.125
X-3.1Y11.64
X-3.1Y11.5
X-3.1Y11.34
X-3.1Y11.18
X-3.1Y11.02
X-3.1Y10.86
X-3.1Y10.76
X-3.1Y10.6
X-3.1Y10.42
X-3.1Y10.26
X-3.1Y10.1
X-3.1Y9.94
X-2.96Y11.64
X-2.96Y11.5
X-2.96Y11.34
X-2.96Y11.18
X-2.96Y11.02
X-2.96Y10.86
X-2.96Y10.76
X-2.96Y10.6
X-2.96Y10.42
X-2.96Y10.26
X-2.96Y10.1
X-2.96Y9.94
X-2.95Y7.07
X-2.82Y11.64
X-2.82Y11.5
X-2.82Y11.34
X-2.82Y11.18
X-2.82Y11.02
X-2.82Y10.86
X-2.82Y10.76
X-2.82Y10.6
X-2.82Y10.42
X-2.82Y10.26
X-2.82Y10.1
X-2.82Y9.94
X-2.81Y6.99
X-2.79Y7.355
X-2.77Y7.59
X-2.7152Y8.1602
X-2.7Y8.025
X-2.68Y11.64
X-2.68Y11.5
X-2.68Y11.34
X-2.68Y10.76
X-2.68Y10.6
X-2.68Y10.42
X-2.68Y10.1
X-2.68Y9.94
X-2.67Y7.54
X-2.66Y7.16
X-2.66Y7.02
X-2.58Y8.17
X-2.54Y9.37
X-2.54Y9.06
X-2.52Y11.64
X-2.52Y11.5
X-2.52Y11.34
X-2.52Y10.76
X-2.52Y10.6
X-2.52Y10.42
X-2.51Y8.02
X-2.51Y7.895
X-2.48Y7.12
X-2.455Y8.37
X-2.45Y7.365
X-2.44Y7.6114
X-2.38Y7.22
X-2.365Y7.86
X-2.36Y11.64
X-2.36Y11.5
X-2.36Y11.34
X-2.345Y7.64
X-2.34Y7.38
X-2.31Y6.99
X-2.3Y7.18
X-2.22Y11.78
X-2.22Y11.64
X-2.22Y11.5
X-2.22Y11.34
X-2.2Y10.76
X-2.2Y10.6
X-2.2Y10.42
X-2.16Y9.37
X-2.1Y7.54
X-2.1Y7.42
X-2.1Y7.24
X-2.1Y7.14
X-2.06Y11.78
X-2.06Y11.64
X-2.06Y11.5
X-2.06Y11.34
X-2.06Y10.76
X-2.06Y10.6
X-2.06Y10.42
X-2.055Y8.12
X-2.045Y9.37
X-2.04Y8.445
X-2.005Y8.32
X-1.94Y7.42
X-1.93Y9.29
X-1.9Y11.78
X-1.9Y11.64
X-1.9Y11.5
X-1.9Y11.34
X-1.9Y11.18
X-1.9Y11.02
X-1.9Y10.86
X-1.9Y10.76
X-1.9Y10.6
X-1.9Y10.42
X-1.9Y10.1
X-1.9Y9.94
X-1.9Y9.76
X-1.84Y7.6285
X-1.805Y7.925
X-1.74Y11.78
X-1.74Y11.64
X-1.74Y11.5
X-1.74Y11.34
X-1.74Y11.18
X-1.74Y11.02
X-1.74Y10.86
X-1.74Y10.76
X-1.74Y10.6
X-1.74Y10.42
X-1.74Y10.26
X-1.74Y10.1
X-1.74Y9.94
X-1.74Y9.76
X-1.69Y7.955
X-1.69Y7.875
X-1.685Y8.33
X-1.585Y7.815
X-1.58Y11.78
X-1.58Y11.64
X-1.58Y11.5
X-1.58Y11.34
X-1.58Y11.18
X-1.58Y11.02
X-1.58Y10.86
X-1.58Y10.76
X-1.58Y10.6
X-1.58Y10.42
X-1.58Y10.26
X-1.58Y10.1
X-1.46Y8.205
X-1.43Y11.495
X-1.42Y11.34
X-1.42Y11.18
X-1.42Y11.02
X-1.42Y10.86
X-1.42Y10.76
X-1.42Y10.6
X-1.42Y10.42
X-1.42Y10.26
X-1.42Y10.1
X-1.295Y8.865
X-1.26Y11.34
X-1.26Y11.18
X-1.26Y11.02
X-1.26Y10.86
X-1.26Y10.76
X-1.26Y10.6
X-1.26Y10.42
X-1.26Y10.26
X-1.26Y10.1
X-1.26Y9.94
X-1.26Y9.76
X-1.255Y8.225
X-1.225Y8.77
X-1.185Y8.255
X-1.08Y10.86
X-1.08Y10.76
X-1.08Y10.6
X-1.08Y10.42
X-1.055Y7.925
X-0.96Y11.78
X-0.96Y11.62
X-0.96Y8.7
X-0.955Y8.86
X-0.93Y7.88
X-0.915Y7.94
X-0.9Y10.76
X-0.9Y10.6
X-0.9Y10.42
X-0.9Y8.115
X-0.86Y8.355
X-0.81Y8.75
X-0.8Y11.78
X-0.8Y11.62
X-0.735Y7.715
X-0.72Y10.76
X-0.72Y10.6
X-0.72Y10.42
X-0.68Y8.22
X-0.665Y8.32
X-0.64Y11.78
X-0.64Y11.62
X-0.575Y7.635
X-0.555Y8.125
X-0.52Y10.76
X-0.52Y10.6
X-0.52Y10.42
X-0.48Y11.62
X-0.445Y8.25
X-0.32Y11.5
X-0.32Y11.36
X-0.32Y11.18
X-0.32Y11.02
X-0.32Y10.86
X-0.32Y10.76
X-0.32Y10.6
X-0.32Y10.42
X-0.32Y10.26
X-0.32Y10.1
X-0.32Y9.94
X-0.32Y9.78
T2
X-2.1794Y8.8639
X-2.1794Y8.7852
X-2.1794Y8.7065
X-2.1006Y8.8639
X-2.1006Y8.7852
X-2.1006Y8.7065
T3
X-4.425Y10.825
X-4.425Y10.775
X-4.425Y10.725
X-4.2Y8.77
X-4.15Y8.77
X-4.1Y8.77
X-2.24Y9.0899
X-2.14Y9.0899
X-2.04Y9.0899
X-1.94Y9.0899
X-1.84Y9.0899
T4
X-4.0887Y7.77
X-4.01Y7.77
X-3.89Y9.21
X-3.89Y8.61
X-3.79Y9.21
X-3.79Y8.61
X-3.69Y9.21
X-3.69Y8.61
X-3.6087Y7.79
X-3.59Y9.21
X-3.59Y8.61
X-3.53Y7.79
X-3.49Y9.21
X-3.49Y8.61
X-3.39Y9.21
X-3.39Y9.11
X-3.39Y9.01
X-3.39Y8.91
X-3.39Y8.81
X-3.39Y8.71
X-3.39Y8.61
X-3.29Y9.21
X-3.29Y8.61
X-3.19Y9.21
X-3.19Y8.61
X-3.09Y9.21
X-3.09Y8.61
X-2.99Y9.21
X-2.99Y8.61
X-2.89Y9.21
X-2.89Y8.61
X-2.79Y9.21
X-2.79Y8.61
X-2.69Y9.21
X-2.69Y8.61
X-2.59Y9.21
X-2.59Y8.61
X-2.49Y9.21
X-2.49Y8.61
X-2.39Y9.21
X-2.39Y8.61
X-2.29Y9.21
X-2.29Y8.61
X-2.19Y9.21
X-2.19Y8.61
X-2.09Y9.21
X-2.09Y8.61
X-1.99Y9.21
X-1.99Y8.61
X-1.89Y9.21
X-1.89Y8.61
X-1.79Y9.21
X-1.79Y8.61
X-1.69Y9.21
X-1.69Y8.71
X-1.69Y8.61
X-1.59Y9.21
X-1.59Y8.61
X-1.355Y8.6925
X-1.355Y8.6137
X-1.355Y8.535
X-1.2763Y8.6925
X-1.2763Y8.6137
X-1.2763Y8.535
T5
X-3.73Y7.55
X-3.63Y7.55
X-3.53Y7.55
T6
X-4.21Y7.52
X-4.11Y7.52
X-4.01Y7.52
T7
X-2.3642Y9.4387
X-2.289Y9.4387
X-2.2138Y9.4387
T8
X-1.1568Y8.9451
X-1.1568Y8.8451
X-1.1568Y8.7451
X-1.1568Y8.6451
X-1.0568Y8.8951
X-1.0568Y8.7951
X-1.0568Y8.6951
X-1.0568Y8.5951
T9
X-4.53Y8.78
X-4.53Y8.6619
X-4.53Y8.5438
X-4.53Y8.4257
X-4.53Y8.3076
X-4.53Y8.1894
X-4.53Y8.0713
X-4.53Y7.9532
X-3.85Y10.793
X-3.85Y10.675
X-3.85Y10.557
X-3.85Y10.439
X-3.35Y9.525
X-3.232Y9.525
X-3.23Y7.938
X-3.23Y7.82
X-3.23Y7.702
X-3.23Y7.338
X-3.23Y7.22
X-3.23Y7.102
X-3.114Y9.525
X-2.775Y9.618
X-2.775Y9.5
X-1.85Y7.415
X-1.85Y7.07
X-1.7319Y7.415
X-1.7319Y7.07
X-1.6138Y7.415
X-1.6138Y7.07
X-1.4957Y7.415
X-1.4957Y7.07
X-1.3776Y7.415
X-1.3776Y7.07
X-1.2594Y7.415
X-1.2594Y7.07
X-1.1413Y7.415
X-1.1413Y7.07
X-1.0232Y7.415
X-1.0232Y7.07
X-0.9051Y7.415
X-0.9051Y7.07
X-0.6773Y9.0191
X-0.6773Y8.6211
X-0.6068Y8.9191
X-0.6068Y8.5211
T10
X-0.9269Y9.0801
X-0.9269Y8.46
T12
X-0.8068Y8.9951
X-0.8068Y8.5451
T13
X-1.53Y9.78
T14
X-1.53Y9.469
T15
X-4.275Y10.025
X-0.775Y11.225
X-0.775Y10.025
T11
G00X-2.564Y10.285
M15
G01X-2.414Y10.285
M16
G05
G00X-2.164Y10.285
M15
G01X-2.014Y10.285
M16
G05
T0
M30
