G04 #@! TF.GenerationSoftware,KiCad,Pcbnew,(5.1.4)-1*
G04 #@! TF.CreationDate,2019-12-13T14:43:06-06:00*
G04 #@! TF.ProjectId,2020_BMSBOARD,32303230-5f42-44d5-9342-4f4152442e6b,rev?*
G04 #@! TF.SameCoordinates,Original*
G04 #@! TF.FileFunction,Soldermask,Bot*
G04 #@! TF.FilePolarity,Negative*
%FSLAX46Y46*%
G04 Gerber Fmt 4.6, Leading zero omitted, Abs format (unit mm)*
G04 Created by KiCad (PCBNEW (5.1.4)-1) date 2019-12-13 14:43:06*
%MOMM*%
%LPD*%
G04 APERTURE LIST*
%ADD10C,0.100000*%
G04 APERTURE END LIST*
D10*
G36*
X255441739Y-48010100D02*
G01*
X255714593Y-48064374D01*
X255991979Y-48179271D01*
X256107558Y-48256499D01*
X256240715Y-48345471D01*
X256241621Y-48346077D01*
X256453923Y-48558379D01*
X256620729Y-48808021D01*
X256735626Y-49085407D01*
X256794200Y-49379879D01*
X256794200Y-49680121D01*
X256735626Y-49974593D01*
X256620729Y-50251979D01*
X256453923Y-50501621D01*
X256241621Y-50713923D01*
X255991979Y-50880729D01*
X255714593Y-50995626D01*
X255567357Y-51024913D01*
X255420122Y-51054200D01*
X255119878Y-51054200D01*
X254972643Y-51024913D01*
X254825407Y-50995626D01*
X254548021Y-50880729D01*
X254298379Y-50713923D01*
X254086077Y-50501621D01*
X253919271Y-50251979D01*
X253804374Y-49974593D01*
X253745800Y-49680121D01*
X253745800Y-49379879D01*
X253804374Y-49085407D01*
X253919271Y-48808021D01*
X254086077Y-48558379D01*
X254298379Y-48346077D01*
X254299286Y-48345471D01*
X254432442Y-48256499D01*
X254548021Y-48179271D01*
X254825407Y-48064374D01*
X255098261Y-48010100D01*
X255119878Y-48005800D01*
X255420122Y-48005800D01*
X255441739Y-48010100D01*
X255441739Y-48010100D01*
G37*
G36*
X95421739Y-48010100D02*
G01*
X95694593Y-48064374D01*
X95971979Y-48179271D01*
X96087558Y-48256499D01*
X96220715Y-48345471D01*
X96221621Y-48346077D01*
X96433923Y-48558379D01*
X96600729Y-48808021D01*
X96715626Y-49085407D01*
X96774200Y-49379879D01*
X96774200Y-49680121D01*
X96715626Y-49974593D01*
X96600729Y-50251979D01*
X96433923Y-50501621D01*
X96221621Y-50713923D01*
X95971979Y-50880729D01*
X95694593Y-50995626D01*
X95547357Y-51024913D01*
X95400122Y-51054200D01*
X95099878Y-51054200D01*
X94952643Y-51024913D01*
X94805407Y-50995626D01*
X94528021Y-50880729D01*
X94278379Y-50713923D01*
X94066077Y-50501621D01*
X93899271Y-50251979D01*
X93784374Y-49974593D01*
X93725800Y-49680121D01*
X93725800Y-49379879D01*
X93784374Y-49085407D01*
X93899271Y-48808021D01*
X94066077Y-48558379D01*
X94278379Y-48346077D01*
X94279286Y-48345471D01*
X94412442Y-48256499D01*
X94528021Y-48179271D01*
X94805407Y-48064374D01*
X95078261Y-48010100D01*
X95099878Y-48005800D01*
X95400122Y-48005800D01*
X95421739Y-48010100D01*
X95421739Y-48010100D01*
G37*
G36*
X122284142Y-49383242D02*
G01*
X122432101Y-49444529D01*
X122565255Y-49533499D01*
X122678501Y-49646745D01*
X122767471Y-49779899D01*
X122828758Y-49927858D01*
X122860000Y-50084925D01*
X122860000Y-50245075D01*
X122828758Y-50402142D01*
X122767471Y-50550101D01*
X122678501Y-50683255D01*
X122565255Y-50796501D01*
X122432101Y-50885471D01*
X122284142Y-50946758D01*
X122127075Y-50978000D01*
X121966925Y-50978000D01*
X121809858Y-50946758D01*
X121661899Y-50885471D01*
X121528745Y-50796501D01*
X121415499Y-50683255D01*
X121326529Y-50550101D01*
X121265242Y-50402142D01*
X121234000Y-50245075D01*
X121234000Y-50084925D01*
X121265242Y-49927858D01*
X121326529Y-49779899D01*
X121415499Y-49646745D01*
X121528745Y-49533499D01*
X121661899Y-49444529D01*
X121809858Y-49383242D01*
X121966925Y-49352000D01*
X122127075Y-49352000D01*
X122284142Y-49383242D01*
X122284142Y-49383242D01*
G37*
G36*
X119744142Y-49383242D02*
G01*
X119892101Y-49444529D01*
X120025255Y-49533499D01*
X120138501Y-49646745D01*
X120227471Y-49779899D01*
X120288758Y-49927858D01*
X120320000Y-50084925D01*
X120320000Y-50245075D01*
X120288758Y-50402142D01*
X120227471Y-50550101D01*
X120138501Y-50683255D01*
X120025255Y-50796501D01*
X119892101Y-50885471D01*
X119744142Y-50946758D01*
X119587075Y-50978000D01*
X119426925Y-50978000D01*
X119269858Y-50946758D01*
X119121899Y-50885471D01*
X118988745Y-50796501D01*
X118875499Y-50683255D01*
X118786529Y-50550101D01*
X118725242Y-50402142D01*
X118694000Y-50245075D01*
X118694000Y-50084925D01*
X118725242Y-49927858D01*
X118786529Y-49779899D01*
X118875499Y-49646745D01*
X118988745Y-49533499D01*
X119121899Y-49444529D01*
X119269858Y-49383242D01*
X119426925Y-49352000D01*
X119587075Y-49352000D01*
X119744142Y-49383242D01*
X119744142Y-49383242D01*
G37*
G36*
X119744142Y-46843242D02*
G01*
X119892101Y-46904529D01*
X120025255Y-46993499D01*
X120138501Y-47106745D01*
X120227471Y-47239899D01*
X120288758Y-47387858D01*
X120320000Y-47544925D01*
X120320000Y-47705075D01*
X120288758Y-47862142D01*
X120227471Y-48010101D01*
X120138501Y-48143255D01*
X120025255Y-48256501D01*
X119892101Y-48345471D01*
X119744142Y-48406758D01*
X119587075Y-48438000D01*
X119426925Y-48438000D01*
X119269858Y-48406758D01*
X119121899Y-48345471D01*
X118988745Y-48256501D01*
X118875499Y-48143255D01*
X118786529Y-48010101D01*
X118725242Y-47862142D01*
X118694000Y-47705075D01*
X118694000Y-47544925D01*
X118725242Y-47387858D01*
X118786529Y-47239899D01*
X118875499Y-47106745D01*
X118988745Y-46993499D01*
X119121899Y-46904529D01*
X119269858Y-46843242D01*
X119426925Y-46812000D01*
X119587075Y-46812000D01*
X119744142Y-46843242D01*
X119744142Y-46843242D01*
G37*
G36*
X122284142Y-46843242D02*
G01*
X122432101Y-46904529D01*
X122565255Y-46993499D01*
X122678501Y-47106745D01*
X122767471Y-47239899D01*
X122828758Y-47387858D01*
X122860000Y-47544925D01*
X122860000Y-47705075D01*
X122828758Y-47862142D01*
X122767471Y-48010101D01*
X122678501Y-48143255D01*
X122565255Y-48256501D01*
X122432101Y-48345471D01*
X122284142Y-48406758D01*
X122127075Y-48438000D01*
X121966925Y-48438000D01*
X121809858Y-48406758D01*
X121661899Y-48345471D01*
X121528745Y-48256501D01*
X121415499Y-48143255D01*
X121326529Y-48010101D01*
X121265242Y-47862142D01*
X121234000Y-47705075D01*
X121234000Y-47544925D01*
X121265242Y-47387858D01*
X121326529Y-47239899D01*
X121415499Y-47106745D01*
X121528745Y-46993499D01*
X121661899Y-46904529D01*
X121809858Y-46843242D01*
X121966925Y-46812000D01*
X122127075Y-46812000D01*
X122284142Y-46843242D01*
X122284142Y-46843242D01*
G37*
G36*
X122284142Y-44303242D02*
G01*
X122432101Y-44364529D01*
X122565255Y-44453499D01*
X122678501Y-44566745D01*
X122767471Y-44699899D01*
X122828758Y-44847858D01*
X122860000Y-45004925D01*
X122860000Y-45165075D01*
X122828758Y-45322142D01*
X122767471Y-45470101D01*
X122678501Y-45603255D01*
X122565255Y-45716501D01*
X122432101Y-45805471D01*
X122284142Y-45866758D01*
X122127075Y-45898000D01*
X121966925Y-45898000D01*
X121809858Y-45866758D01*
X121661899Y-45805471D01*
X121528745Y-45716501D01*
X121415499Y-45603255D01*
X121326529Y-45470101D01*
X121265242Y-45322142D01*
X121234000Y-45165075D01*
X121234000Y-45004925D01*
X121265242Y-44847858D01*
X121326529Y-44699899D01*
X121415499Y-44566745D01*
X121528745Y-44453499D01*
X121661899Y-44364529D01*
X121809858Y-44303242D01*
X121966925Y-44272000D01*
X122127075Y-44272000D01*
X122284142Y-44303242D01*
X122284142Y-44303242D01*
G37*
G36*
X119744142Y-44303242D02*
G01*
X119892101Y-44364529D01*
X120025255Y-44453499D01*
X120138501Y-44566745D01*
X120227471Y-44699899D01*
X120288758Y-44847858D01*
X120320000Y-45004925D01*
X120320000Y-45165075D01*
X120288758Y-45322142D01*
X120227471Y-45470101D01*
X120138501Y-45603255D01*
X120025255Y-45716501D01*
X119892101Y-45805471D01*
X119744142Y-45866758D01*
X119587075Y-45898000D01*
X119426925Y-45898000D01*
X119269858Y-45866758D01*
X119121899Y-45805471D01*
X118988745Y-45716501D01*
X118875499Y-45603255D01*
X118786529Y-45470101D01*
X118725242Y-45322142D01*
X118694000Y-45165075D01*
X118694000Y-45004925D01*
X118725242Y-44847858D01*
X118786529Y-44699899D01*
X118875499Y-44566745D01*
X118988745Y-44453499D01*
X119121899Y-44364529D01*
X119269858Y-44303242D01*
X119426925Y-44272000D01*
X119587075Y-44272000D01*
X119744142Y-44303242D01*
X119744142Y-44303242D01*
G37*
G36*
X122284142Y-41763242D02*
G01*
X122432101Y-41824529D01*
X122565255Y-41913499D01*
X122678501Y-42026745D01*
X122767471Y-42159899D01*
X122828758Y-42307858D01*
X122860000Y-42464925D01*
X122860000Y-42625075D01*
X122828758Y-42782142D01*
X122767471Y-42930101D01*
X122678501Y-43063255D01*
X122565255Y-43176501D01*
X122432101Y-43265471D01*
X122284142Y-43326758D01*
X122127075Y-43358000D01*
X121966925Y-43358000D01*
X121809858Y-43326758D01*
X121661899Y-43265471D01*
X121528745Y-43176501D01*
X121415499Y-43063255D01*
X121326529Y-42930101D01*
X121265242Y-42782142D01*
X121234000Y-42625075D01*
X121234000Y-42464925D01*
X121265242Y-42307858D01*
X121326529Y-42159899D01*
X121415499Y-42026745D01*
X121528745Y-41913499D01*
X121661899Y-41824529D01*
X121809858Y-41763242D01*
X121966925Y-41732000D01*
X122127075Y-41732000D01*
X122284142Y-41763242D01*
X122284142Y-41763242D01*
G37*
G36*
X119744142Y-41763242D02*
G01*
X119892101Y-41824529D01*
X120025255Y-41913499D01*
X120138501Y-42026745D01*
X120227471Y-42159899D01*
X120288758Y-42307858D01*
X120320000Y-42464925D01*
X120320000Y-42625075D01*
X120288758Y-42782142D01*
X120227471Y-42930101D01*
X120138501Y-43063255D01*
X120025255Y-43176501D01*
X119892101Y-43265471D01*
X119744142Y-43326758D01*
X119587075Y-43358000D01*
X119426925Y-43358000D01*
X119269858Y-43326758D01*
X119121899Y-43265471D01*
X118988745Y-43176501D01*
X118875499Y-43063255D01*
X118786529Y-42930101D01*
X118725242Y-42782142D01*
X118694000Y-42625075D01*
X118694000Y-42464925D01*
X118725242Y-42307858D01*
X118786529Y-42159899D01*
X118875499Y-42026745D01*
X118988745Y-41913499D01*
X119121899Y-41824529D01*
X119269858Y-41763242D01*
X119426925Y-41732000D01*
X119587075Y-41732000D01*
X119744142Y-41763242D01*
X119744142Y-41763242D01*
G37*
G36*
X206231142Y-40493242D02*
G01*
X206379101Y-40554529D01*
X206512255Y-40643499D01*
X206625501Y-40756745D01*
X206714471Y-40889899D01*
X206775758Y-41037858D01*
X206807000Y-41194925D01*
X206807000Y-41355075D01*
X206775758Y-41512142D01*
X206714471Y-41660101D01*
X206625501Y-41793255D01*
X206512255Y-41906501D01*
X206379101Y-41995471D01*
X206231142Y-42056758D01*
X206074075Y-42088000D01*
X205913925Y-42088000D01*
X205756858Y-42056758D01*
X205608899Y-41995471D01*
X205475745Y-41906501D01*
X205362499Y-41793255D01*
X205273529Y-41660101D01*
X205212242Y-41512142D01*
X205181000Y-41355075D01*
X205181000Y-41194925D01*
X205212242Y-41037858D01*
X205273529Y-40889899D01*
X205362499Y-40756745D01*
X205475745Y-40643499D01*
X205608899Y-40554529D01*
X205756858Y-40493242D01*
X205913925Y-40462000D01*
X206074075Y-40462000D01*
X206231142Y-40493242D01*
X206231142Y-40493242D01*
G37*
G36*
X211311142Y-40493242D02*
G01*
X211459101Y-40554529D01*
X211592255Y-40643499D01*
X211705501Y-40756745D01*
X211794471Y-40889899D01*
X211855758Y-41037858D01*
X211887000Y-41194925D01*
X211887000Y-41355075D01*
X211855758Y-41512142D01*
X211794471Y-41660101D01*
X211705501Y-41793255D01*
X211592255Y-41906501D01*
X211459101Y-41995471D01*
X211311142Y-42056758D01*
X211154075Y-42088000D01*
X210993925Y-42088000D01*
X210836858Y-42056758D01*
X210688899Y-41995471D01*
X210555745Y-41906501D01*
X210442499Y-41793255D01*
X210353529Y-41660101D01*
X210292242Y-41512142D01*
X210261000Y-41355075D01*
X210261000Y-41194925D01*
X210292242Y-41037858D01*
X210353529Y-40889899D01*
X210442499Y-40756745D01*
X210555745Y-40643499D01*
X210688899Y-40554529D01*
X210836858Y-40493242D01*
X210993925Y-40462000D01*
X211154075Y-40462000D01*
X211311142Y-40493242D01*
X211311142Y-40493242D01*
G37*
G36*
X208771142Y-40493242D02*
G01*
X208919101Y-40554529D01*
X209052255Y-40643499D01*
X209165501Y-40756745D01*
X209254471Y-40889899D01*
X209315758Y-41037858D01*
X209347000Y-41194925D01*
X209347000Y-41355075D01*
X209315758Y-41512142D01*
X209254471Y-41660101D01*
X209165501Y-41793255D01*
X209052255Y-41906501D01*
X208919101Y-41995471D01*
X208771142Y-42056758D01*
X208614075Y-42088000D01*
X208453925Y-42088000D01*
X208296858Y-42056758D01*
X208148899Y-41995471D01*
X208015745Y-41906501D01*
X207902499Y-41793255D01*
X207813529Y-41660101D01*
X207752242Y-41512142D01*
X207721000Y-41355075D01*
X207721000Y-41194925D01*
X207752242Y-41037858D01*
X207813529Y-40889899D01*
X207902499Y-40756745D01*
X208015745Y-40643499D01*
X208148899Y-40554529D01*
X208296858Y-40493242D01*
X208453925Y-40462000D01*
X208614075Y-40462000D01*
X208771142Y-40493242D01*
X208771142Y-40493242D01*
G37*
G36*
X193277142Y-40429742D02*
G01*
X193425101Y-40491029D01*
X193558255Y-40579999D01*
X193671501Y-40693245D01*
X193760471Y-40826399D01*
X193821758Y-40974358D01*
X193853000Y-41131425D01*
X193853000Y-41291575D01*
X193821758Y-41448642D01*
X193760471Y-41596601D01*
X193671501Y-41729755D01*
X193558255Y-41843001D01*
X193425101Y-41931971D01*
X193277142Y-41993258D01*
X193120075Y-42024500D01*
X192959925Y-42024500D01*
X192802858Y-41993258D01*
X192654899Y-41931971D01*
X192521745Y-41843001D01*
X192408499Y-41729755D01*
X192319529Y-41596601D01*
X192258242Y-41448642D01*
X192227000Y-41291575D01*
X192227000Y-41131425D01*
X192258242Y-40974358D01*
X192319529Y-40826399D01*
X192408499Y-40693245D01*
X192521745Y-40579999D01*
X192654899Y-40491029D01*
X192802858Y-40429742D01*
X192959925Y-40398500D01*
X193120075Y-40398500D01*
X193277142Y-40429742D01*
X193277142Y-40429742D01*
G37*
G36*
X190737142Y-40429742D02*
G01*
X190885101Y-40491029D01*
X191018255Y-40579999D01*
X191131501Y-40693245D01*
X191220471Y-40826399D01*
X191281758Y-40974358D01*
X191313000Y-41131425D01*
X191313000Y-41291575D01*
X191281758Y-41448642D01*
X191220471Y-41596601D01*
X191131501Y-41729755D01*
X191018255Y-41843001D01*
X190885101Y-41931971D01*
X190737142Y-41993258D01*
X190580075Y-42024500D01*
X190419925Y-42024500D01*
X190262858Y-41993258D01*
X190114899Y-41931971D01*
X189981745Y-41843001D01*
X189868499Y-41729755D01*
X189779529Y-41596601D01*
X189718242Y-41448642D01*
X189687000Y-41291575D01*
X189687000Y-41131425D01*
X189718242Y-40974358D01*
X189779529Y-40826399D01*
X189868499Y-40693245D01*
X189981745Y-40579999D01*
X190114899Y-40491029D01*
X190262858Y-40429742D01*
X190419925Y-40398500D01*
X190580075Y-40398500D01*
X190737142Y-40429742D01*
X190737142Y-40429742D01*
G37*
G36*
X188197142Y-40429742D02*
G01*
X188345101Y-40491029D01*
X188478255Y-40579999D01*
X188591501Y-40693245D01*
X188680471Y-40826399D01*
X188741758Y-40974358D01*
X188773000Y-41131425D01*
X188773000Y-41291575D01*
X188741758Y-41448642D01*
X188680471Y-41596601D01*
X188591501Y-41729755D01*
X188478255Y-41843001D01*
X188345101Y-41931971D01*
X188197142Y-41993258D01*
X188040075Y-42024500D01*
X187879925Y-42024500D01*
X187722858Y-41993258D01*
X187574899Y-41931971D01*
X187441745Y-41843001D01*
X187328499Y-41729755D01*
X187239529Y-41596601D01*
X187178242Y-41448642D01*
X187147000Y-41291575D01*
X187147000Y-41131425D01*
X187178242Y-40974358D01*
X187239529Y-40826399D01*
X187328499Y-40693245D01*
X187441745Y-40579999D01*
X187574899Y-40491029D01*
X187722858Y-40429742D01*
X187879925Y-40398500D01*
X188040075Y-40398500D01*
X188197142Y-40429742D01*
X188197142Y-40429742D01*
G37*
G36*
X226832569Y-40390100D02*
G01*
X226933889Y-40410254D01*
X227037037Y-40452979D01*
X227058816Y-40462000D01*
X227079766Y-40470678D01*
X227211051Y-40558400D01*
X227322700Y-40670049D01*
X227410422Y-40801334D01*
X227470846Y-40947211D01*
X227501650Y-41102072D01*
X227501650Y-41259968D01*
X227470846Y-41414829D01*
X227410422Y-41560706D01*
X227322700Y-41691991D01*
X227211051Y-41803640D01*
X227079766Y-41891362D01*
X226933889Y-41951786D01*
X226856458Y-41967188D01*
X226779029Y-41982590D01*
X226621131Y-41982590D01*
X226543702Y-41967188D01*
X226466271Y-41951786D01*
X226320394Y-41891362D01*
X226189109Y-41803640D01*
X226077460Y-41691991D01*
X225989738Y-41560706D01*
X225929314Y-41414829D01*
X225898510Y-41259968D01*
X225898510Y-41102072D01*
X225929314Y-40947211D01*
X225989738Y-40801334D01*
X226077460Y-40670049D01*
X226189109Y-40558400D01*
X226320394Y-40470678D01*
X226341345Y-40462000D01*
X226363123Y-40452979D01*
X226466271Y-40410254D01*
X226567591Y-40390100D01*
X226621131Y-40379450D01*
X226779029Y-40379450D01*
X226832569Y-40390100D01*
X226832569Y-40390100D01*
G37*
G36*
X223012409Y-40390100D02*
G01*
X223113729Y-40410254D01*
X223216877Y-40452979D01*
X223238656Y-40462000D01*
X223259606Y-40470678D01*
X223390891Y-40558400D01*
X223502540Y-40670049D01*
X223590262Y-40801334D01*
X223650686Y-40947211D01*
X223681490Y-41102072D01*
X223681490Y-41259968D01*
X223650686Y-41414829D01*
X223590262Y-41560706D01*
X223502540Y-41691991D01*
X223390891Y-41803640D01*
X223259606Y-41891362D01*
X223113729Y-41951786D01*
X223036298Y-41967188D01*
X222958869Y-41982590D01*
X222800971Y-41982590D01*
X222723542Y-41967188D01*
X222646111Y-41951786D01*
X222500234Y-41891362D01*
X222368949Y-41803640D01*
X222257300Y-41691991D01*
X222169578Y-41560706D01*
X222109154Y-41414829D01*
X222078350Y-41259968D01*
X222078350Y-41102072D01*
X222109154Y-40947211D01*
X222169578Y-40801334D01*
X222257300Y-40670049D01*
X222368949Y-40558400D01*
X222500234Y-40470678D01*
X222521185Y-40462000D01*
X222542963Y-40452979D01*
X222646111Y-40410254D01*
X222747431Y-40390100D01*
X222800971Y-40379450D01*
X222958869Y-40379450D01*
X223012409Y-40390100D01*
X223012409Y-40390100D01*
G37*
G36*
X224922489Y-40390100D02*
G01*
X225023809Y-40410254D01*
X225126957Y-40452979D01*
X225148736Y-40462000D01*
X225169686Y-40470678D01*
X225300971Y-40558400D01*
X225412620Y-40670049D01*
X225500342Y-40801334D01*
X225560766Y-40947211D01*
X225591570Y-41102072D01*
X225591570Y-41259968D01*
X225560766Y-41414829D01*
X225500342Y-41560706D01*
X225412620Y-41691991D01*
X225300971Y-41803640D01*
X225169686Y-41891362D01*
X225023809Y-41951786D01*
X224946378Y-41967188D01*
X224868949Y-41982590D01*
X224711051Y-41982590D01*
X224633622Y-41967188D01*
X224556191Y-41951786D01*
X224410314Y-41891362D01*
X224279029Y-41803640D01*
X224167380Y-41691991D01*
X224079658Y-41560706D01*
X224019234Y-41414829D01*
X223988430Y-41259968D01*
X223988430Y-41102072D01*
X224019234Y-40947211D01*
X224079658Y-40801334D01*
X224167380Y-40670049D01*
X224279029Y-40558400D01*
X224410314Y-40470678D01*
X224431265Y-40462000D01*
X224453043Y-40452979D01*
X224556191Y-40410254D01*
X224657511Y-40390100D01*
X224711051Y-40379450D01*
X224868949Y-40379450D01*
X224922489Y-40390100D01*
X224922489Y-40390100D01*
G37*
G36*
X119744142Y-39223242D02*
G01*
X119892101Y-39284529D01*
X120025255Y-39373499D01*
X120138501Y-39486745D01*
X120227471Y-39619899D01*
X120288758Y-39767858D01*
X120320000Y-39924925D01*
X120320000Y-40085075D01*
X120288758Y-40242142D01*
X120227471Y-40390101D01*
X120138501Y-40523255D01*
X120025255Y-40636501D01*
X119892101Y-40725471D01*
X119744142Y-40786758D01*
X119587075Y-40818000D01*
X119426925Y-40818000D01*
X119269858Y-40786758D01*
X119121899Y-40725471D01*
X118988745Y-40636501D01*
X118875499Y-40523255D01*
X118786529Y-40390101D01*
X118725242Y-40242142D01*
X118694000Y-40085075D01*
X118694000Y-39924925D01*
X118725242Y-39767858D01*
X118786529Y-39619899D01*
X118875499Y-39486745D01*
X118988745Y-39373499D01*
X119121899Y-39284529D01*
X119269858Y-39223242D01*
X119426925Y-39192000D01*
X119587075Y-39192000D01*
X119744142Y-39223242D01*
X119744142Y-39223242D01*
G37*
G36*
X122284142Y-39223242D02*
G01*
X122432101Y-39284529D01*
X122565255Y-39373499D01*
X122678501Y-39486745D01*
X122767471Y-39619899D01*
X122828758Y-39767858D01*
X122860000Y-39924925D01*
X122860000Y-40085075D01*
X122828758Y-40242142D01*
X122767471Y-40390101D01*
X122678501Y-40523255D01*
X122565255Y-40636501D01*
X122432101Y-40725471D01*
X122284142Y-40786758D01*
X122127075Y-40818000D01*
X121966925Y-40818000D01*
X121809858Y-40786758D01*
X121661899Y-40725471D01*
X121528745Y-40636501D01*
X121415499Y-40523255D01*
X121326529Y-40390101D01*
X121265242Y-40242142D01*
X121234000Y-40085075D01*
X121234000Y-39924925D01*
X121265242Y-39767858D01*
X121326529Y-39619899D01*
X121415499Y-39486745D01*
X121528745Y-39373499D01*
X121661899Y-39284529D01*
X121809858Y-39223242D01*
X121966925Y-39192000D01*
X122127075Y-39192000D01*
X122284142Y-39223242D01*
X122284142Y-39223242D01*
G37*
G36*
X122284142Y-36683242D02*
G01*
X122432101Y-36744529D01*
X122565255Y-36833499D01*
X122678501Y-36946745D01*
X122767471Y-37079899D01*
X122828758Y-37227858D01*
X122860000Y-37384925D01*
X122860000Y-37545075D01*
X122828758Y-37702142D01*
X122767471Y-37850101D01*
X122678501Y-37983255D01*
X122565255Y-38096501D01*
X122432101Y-38185471D01*
X122284142Y-38246758D01*
X122127075Y-38278000D01*
X121966925Y-38278000D01*
X121809858Y-38246758D01*
X121661899Y-38185471D01*
X121528745Y-38096501D01*
X121415499Y-37983255D01*
X121326529Y-37850101D01*
X121265242Y-37702142D01*
X121234000Y-37545075D01*
X121234000Y-37384925D01*
X121265242Y-37227858D01*
X121326529Y-37079899D01*
X121415499Y-36946745D01*
X121528745Y-36833499D01*
X121661899Y-36744529D01*
X121809858Y-36683242D01*
X121966925Y-36652000D01*
X122127075Y-36652000D01*
X122284142Y-36683242D01*
X122284142Y-36683242D01*
G37*
G36*
X119744142Y-36683242D02*
G01*
X119892101Y-36744529D01*
X120025255Y-36833499D01*
X120138501Y-36946745D01*
X120227471Y-37079899D01*
X120288758Y-37227858D01*
X120320000Y-37384925D01*
X120320000Y-37545075D01*
X120288758Y-37702142D01*
X120227471Y-37850101D01*
X120138501Y-37983255D01*
X120025255Y-38096501D01*
X119892101Y-38185471D01*
X119744142Y-38246758D01*
X119587075Y-38278000D01*
X119426925Y-38278000D01*
X119269858Y-38246758D01*
X119121899Y-38185471D01*
X118988745Y-38096501D01*
X118875499Y-37983255D01*
X118786529Y-37850101D01*
X118725242Y-37702142D01*
X118694000Y-37545075D01*
X118694000Y-37384925D01*
X118725242Y-37227858D01*
X118786529Y-37079899D01*
X118875499Y-36946745D01*
X118988745Y-36833499D01*
X119121899Y-36744529D01*
X119269858Y-36683242D01*
X119426925Y-36652000D01*
X119587075Y-36652000D01*
X119744142Y-36683242D01*
X119744142Y-36683242D01*
G37*
G36*
X103481769Y-19447857D02*
G01*
X104917083Y-19733358D01*
X106590466Y-20426496D01*
X108096471Y-21432777D01*
X109377223Y-22713529D01*
X110383504Y-24219534D01*
X111076642Y-25892917D01*
X111310352Y-27067858D01*
X111404693Y-27542142D01*
X111430000Y-27669372D01*
X111430000Y-29480628D01*
X111076642Y-31257083D01*
X110383504Y-32930466D01*
X109377223Y-34436471D01*
X108096471Y-35717223D01*
X106590466Y-36723504D01*
X104917083Y-37416642D01*
X103534201Y-37691714D01*
X103140630Y-37770000D01*
X101329370Y-37770000D01*
X100935799Y-37691714D01*
X99552917Y-37416642D01*
X97879534Y-36723504D01*
X96373529Y-35717223D01*
X95092777Y-34436471D01*
X94086496Y-32930466D01*
X93393358Y-31257083D01*
X93040000Y-29480628D01*
X93040000Y-27669372D01*
X93065308Y-27542142D01*
X93159648Y-27067858D01*
X93393358Y-25892917D01*
X94086496Y-24219534D01*
X95092777Y-22713529D01*
X96373529Y-21432777D01*
X97879534Y-20426496D01*
X99552917Y-19733358D01*
X100988231Y-19447857D01*
X101329370Y-19380000D01*
X103140630Y-19380000D01*
X103481769Y-19447857D01*
X103481769Y-19447857D01*
G37*
G36*
X243816769Y-19447857D02*
G01*
X245252083Y-19733358D01*
X246925466Y-20426496D01*
X248431471Y-21432777D01*
X249712223Y-22713529D01*
X250718504Y-24219534D01*
X251411642Y-25892917D01*
X251645352Y-27067858D01*
X251739693Y-27542142D01*
X251765000Y-27669372D01*
X251765000Y-29480628D01*
X251411642Y-31257083D01*
X250718504Y-32930466D01*
X249712223Y-34436471D01*
X248431471Y-35717223D01*
X246925466Y-36723504D01*
X245252083Y-37416642D01*
X243869201Y-37691714D01*
X243475630Y-37770000D01*
X241664370Y-37770000D01*
X241270799Y-37691714D01*
X239887917Y-37416642D01*
X238214534Y-36723504D01*
X236708529Y-35717223D01*
X235427777Y-34436471D01*
X234421496Y-32930466D01*
X233728358Y-31257083D01*
X233375000Y-29480628D01*
X233375000Y-27669372D01*
X233400308Y-27542142D01*
X233494648Y-27067858D01*
X233728358Y-25892917D01*
X234421496Y-24219534D01*
X235427777Y-22713529D01*
X236708529Y-21432777D01*
X238214534Y-20426496D01*
X239887917Y-19733358D01*
X241323231Y-19447857D01*
X241664370Y-19380000D01*
X243475630Y-19380000D01*
X243816769Y-19447857D01*
X243816769Y-19447857D01*
G37*
G36*
X119744142Y-34143242D02*
G01*
X119892101Y-34204529D01*
X120025255Y-34293499D01*
X120138501Y-34406745D01*
X120227471Y-34539899D01*
X120288758Y-34687858D01*
X120320000Y-34844925D01*
X120320000Y-35005075D01*
X120288758Y-35162142D01*
X120227471Y-35310101D01*
X120138501Y-35443255D01*
X120025255Y-35556501D01*
X119892101Y-35645471D01*
X119744142Y-35706758D01*
X119587075Y-35738000D01*
X119426925Y-35738000D01*
X119269858Y-35706758D01*
X119121899Y-35645471D01*
X118988745Y-35556501D01*
X118875499Y-35443255D01*
X118786529Y-35310101D01*
X118725242Y-35162142D01*
X118694000Y-35005075D01*
X118694000Y-34844925D01*
X118725242Y-34687858D01*
X118786529Y-34539899D01*
X118875499Y-34406745D01*
X118988745Y-34293499D01*
X119121899Y-34204529D01*
X119269858Y-34143242D01*
X119426925Y-34112000D01*
X119587075Y-34112000D01*
X119744142Y-34143242D01*
X119744142Y-34143242D01*
G37*
G36*
X122284142Y-34143242D02*
G01*
X122432101Y-34204529D01*
X122565255Y-34293499D01*
X122678501Y-34406745D01*
X122767471Y-34539899D01*
X122828758Y-34687858D01*
X122860000Y-34844925D01*
X122860000Y-35005075D01*
X122828758Y-35162142D01*
X122767471Y-35310101D01*
X122678501Y-35443255D01*
X122565255Y-35556501D01*
X122432101Y-35645471D01*
X122284142Y-35706758D01*
X122127075Y-35738000D01*
X121966925Y-35738000D01*
X121809858Y-35706758D01*
X121661899Y-35645471D01*
X121528745Y-35556501D01*
X121415499Y-35443255D01*
X121326529Y-35310101D01*
X121265242Y-35162142D01*
X121234000Y-35005075D01*
X121234000Y-34844925D01*
X121265242Y-34687858D01*
X121326529Y-34539899D01*
X121415499Y-34406745D01*
X121528745Y-34293499D01*
X121661899Y-34204529D01*
X121809858Y-34143242D01*
X121966925Y-34112000D01*
X122127075Y-34112000D01*
X122284142Y-34143242D01*
X122284142Y-34143242D01*
G37*
G36*
X119744142Y-31603242D02*
G01*
X119892101Y-31664529D01*
X120025255Y-31753499D01*
X120138501Y-31866745D01*
X120227471Y-31999899D01*
X120288758Y-32147858D01*
X120320000Y-32304925D01*
X120320000Y-32465075D01*
X120288758Y-32622142D01*
X120227471Y-32770101D01*
X120138501Y-32903255D01*
X120025255Y-33016501D01*
X119892101Y-33105471D01*
X119744142Y-33166758D01*
X119587075Y-33198000D01*
X119426925Y-33198000D01*
X119269858Y-33166758D01*
X119121899Y-33105471D01*
X118988745Y-33016501D01*
X118875499Y-32903255D01*
X118786529Y-32770101D01*
X118725242Y-32622142D01*
X118694000Y-32465075D01*
X118694000Y-32304925D01*
X118725242Y-32147858D01*
X118786529Y-31999899D01*
X118875499Y-31866745D01*
X118988745Y-31753499D01*
X119121899Y-31664529D01*
X119269858Y-31603242D01*
X119426925Y-31572000D01*
X119587075Y-31572000D01*
X119744142Y-31603242D01*
X119744142Y-31603242D01*
G37*
G36*
X122284142Y-31603242D02*
G01*
X122432101Y-31664529D01*
X122565255Y-31753499D01*
X122678501Y-31866745D01*
X122767471Y-31999899D01*
X122828758Y-32147858D01*
X122860000Y-32304925D01*
X122860000Y-32465075D01*
X122828758Y-32622142D01*
X122767471Y-32770101D01*
X122678501Y-32903255D01*
X122565255Y-33016501D01*
X122432101Y-33105471D01*
X122284142Y-33166758D01*
X122127075Y-33198000D01*
X121966925Y-33198000D01*
X121809858Y-33166758D01*
X121661899Y-33105471D01*
X121528745Y-33016501D01*
X121415499Y-32903255D01*
X121326529Y-32770101D01*
X121265242Y-32622142D01*
X121234000Y-32465075D01*
X121234000Y-32304925D01*
X121265242Y-32147858D01*
X121326529Y-31999899D01*
X121415499Y-31866745D01*
X121528745Y-31753499D01*
X121661899Y-31664529D01*
X121809858Y-31603242D01*
X121966925Y-31572000D01*
X122127075Y-31572000D01*
X122284142Y-31603242D01*
X122284142Y-31603242D01*
G37*
G36*
X190716000Y-32474000D02*
G01*
X189014000Y-32474000D01*
X189014000Y-30772000D01*
X190716000Y-30772000D01*
X190716000Y-32474000D01*
X190716000Y-32474000D01*
G37*
G36*
X187613228Y-30804703D02*
G01*
X187768100Y-30868853D01*
X187907481Y-30961985D01*
X188026015Y-31080519D01*
X188119147Y-31219900D01*
X188183297Y-31374772D01*
X188216000Y-31539184D01*
X188216000Y-31706816D01*
X188183297Y-31871228D01*
X188119147Y-32026100D01*
X188026015Y-32165481D01*
X187907481Y-32284015D01*
X187768100Y-32377147D01*
X187613228Y-32441297D01*
X187448816Y-32474000D01*
X187281184Y-32474000D01*
X187116772Y-32441297D01*
X186961900Y-32377147D01*
X186822519Y-32284015D01*
X186703985Y-32165481D01*
X186610853Y-32026100D01*
X186546703Y-31871228D01*
X186514000Y-31706816D01*
X186514000Y-31539184D01*
X186546703Y-31374772D01*
X186610853Y-31219900D01*
X186703985Y-31080519D01*
X186822519Y-30961985D01*
X186961900Y-30868853D01*
X187116772Y-30804703D01*
X187281184Y-30772000D01*
X187448816Y-30772000D01*
X187613228Y-30804703D01*
X187613228Y-30804703D01*
G37*
G36*
X202400000Y-32474000D02*
G01*
X200698000Y-32474000D01*
X200698000Y-30772000D01*
X202400000Y-30772000D01*
X202400000Y-32474000D01*
X202400000Y-32474000D01*
G37*
G36*
X204297228Y-30804703D02*
G01*
X204452100Y-30868853D01*
X204591481Y-30961985D01*
X204710015Y-31080519D01*
X204803147Y-31219900D01*
X204867297Y-31374772D01*
X204900000Y-31539184D01*
X204900000Y-31706816D01*
X204867297Y-31871228D01*
X204803147Y-32026100D01*
X204710015Y-32165481D01*
X204591481Y-32284015D01*
X204452100Y-32377147D01*
X204297228Y-32441297D01*
X204132816Y-32474000D01*
X203965184Y-32474000D01*
X203800772Y-32441297D01*
X203645900Y-32377147D01*
X203506519Y-32284015D01*
X203387985Y-32165481D01*
X203294853Y-32026100D01*
X203230703Y-31871228D01*
X203198000Y-31706816D01*
X203198000Y-31539184D01*
X203230703Y-31374772D01*
X203294853Y-31219900D01*
X203387985Y-31080519D01*
X203506519Y-30961985D01*
X203645900Y-30868853D01*
X203800772Y-30804703D01*
X203965184Y-30772000D01*
X204132816Y-30772000D01*
X204297228Y-30804703D01*
X204297228Y-30804703D01*
G37*
G36*
X180704142Y-26523242D02*
G01*
X180852101Y-26584529D01*
X180985255Y-26673499D01*
X181098501Y-26786745D01*
X181187471Y-26919899D01*
X181248758Y-27067858D01*
X181280000Y-27224925D01*
X181280000Y-27385075D01*
X181248758Y-27542142D01*
X181187471Y-27690101D01*
X181098501Y-27823255D01*
X180985255Y-27936501D01*
X180852101Y-28025471D01*
X180704142Y-28086758D01*
X180547075Y-28118000D01*
X180386925Y-28118000D01*
X180229858Y-28086758D01*
X180081899Y-28025471D01*
X179948745Y-27936501D01*
X179835499Y-27823255D01*
X179746529Y-27690101D01*
X179685242Y-27542142D01*
X179654000Y-27385075D01*
X179654000Y-27224925D01*
X179685242Y-27067858D01*
X179746529Y-26919899D01*
X179835499Y-26786745D01*
X179948745Y-26673499D01*
X180081899Y-26584529D01*
X180229858Y-26523242D01*
X180386925Y-26492000D01*
X180547075Y-26492000D01*
X180704142Y-26523242D01*
X180704142Y-26523242D01*
G37*
G36*
X178164142Y-26523242D02*
G01*
X178312101Y-26584529D01*
X178445255Y-26673499D01*
X178558501Y-26786745D01*
X178647471Y-26919899D01*
X178708758Y-27067858D01*
X178740000Y-27224925D01*
X178740000Y-27385075D01*
X178708758Y-27542142D01*
X178647471Y-27690101D01*
X178558501Y-27823255D01*
X178445255Y-27936501D01*
X178312101Y-28025471D01*
X178164142Y-28086758D01*
X178007075Y-28118000D01*
X177846925Y-28118000D01*
X177689858Y-28086758D01*
X177541899Y-28025471D01*
X177408745Y-27936501D01*
X177295499Y-27823255D01*
X177206529Y-27690101D01*
X177145242Y-27542142D01*
X177114000Y-27385075D01*
X177114000Y-27224925D01*
X177145242Y-27067858D01*
X177206529Y-26919899D01*
X177295499Y-26786745D01*
X177408745Y-26673499D01*
X177541899Y-26584529D01*
X177689858Y-26523242D01*
X177846925Y-26492000D01*
X178007075Y-26492000D01*
X178164142Y-26523242D01*
X178164142Y-26523242D01*
G37*
G36*
X122284142Y-26523242D02*
G01*
X122432101Y-26584529D01*
X122565255Y-26673499D01*
X122678501Y-26786745D01*
X122767471Y-26919899D01*
X122828758Y-27067858D01*
X122860000Y-27224925D01*
X122860000Y-27385075D01*
X122828758Y-27542142D01*
X122767471Y-27690101D01*
X122678501Y-27823255D01*
X122565255Y-27936501D01*
X122432101Y-28025471D01*
X122284142Y-28086758D01*
X122127075Y-28118000D01*
X121966925Y-28118000D01*
X121809858Y-28086758D01*
X121661899Y-28025471D01*
X121528745Y-27936501D01*
X121415499Y-27823255D01*
X121326529Y-27690101D01*
X121265242Y-27542142D01*
X121234000Y-27385075D01*
X121234000Y-27224925D01*
X121265242Y-27067858D01*
X121326529Y-26919899D01*
X121415499Y-26786745D01*
X121528745Y-26673499D01*
X121661899Y-26584529D01*
X121809858Y-26523242D01*
X121966925Y-26492000D01*
X122127075Y-26492000D01*
X122284142Y-26523242D01*
X122284142Y-26523242D01*
G37*
G36*
X119744142Y-26523242D02*
G01*
X119892101Y-26584529D01*
X120025255Y-26673499D01*
X120138501Y-26786745D01*
X120227471Y-26919899D01*
X120288758Y-27067858D01*
X120320000Y-27224925D01*
X120320000Y-27385075D01*
X120288758Y-27542142D01*
X120227471Y-27690101D01*
X120138501Y-27823255D01*
X120025255Y-27936501D01*
X119892101Y-28025471D01*
X119744142Y-28086758D01*
X119587075Y-28118000D01*
X119426925Y-28118000D01*
X119269858Y-28086758D01*
X119121899Y-28025471D01*
X118988745Y-27936501D01*
X118875499Y-27823255D01*
X118786529Y-27690101D01*
X118725242Y-27542142D01*
X118694000Y-27385075D01*
X118694000Y-27224925D01*
X118725242Y-27067858D01*
X118786529Y-26919899D01*
X118875499Y-26786745D01*
X118988745Y-26673499D01*
X119121899Y-26584529D01*
X119269858Y-26523242D01*
X119426925Y-26492000D01*
X119587075Y-26492000D01*
X119744142Y-26523242D01*
X119744142Y-26523242D01*
G37*
G36*
X119744142Y-23983242D02*
G01*
X119892101Y-24044529D01*
X120025255Y-24133499D01*
X120138501Y-24246745D01*
X120227471Y-24379899D01*
X120288758Y-24527858D01*
X120320000Y-24684925D01*
X120320000Y-24845075D01*
X120288758Y-25002142D01*
X120227471Y-25150101D01*
X120138501Y-25283255D01*
X120025255Y-25396501D01*
X119892101Y-25485471D01*
X119744142Y-25546758D01*
X119587075Y-25578000D01*
X119426925Y-25578000D01*
X119269858Y-25546758D01*
X119121899Y-25485471D01*
X118988745Y-25396501D01*
X118875499Y-25283255D01*
X118786529Y-25150101D01*
X118725242Y-25002142D01*
X118694000Y-24845075D01*
X118694000Y-24684925D01*
X118725242Y-24527858D01*
X118786529Y-24379899D01*
X118875499Y-24246745D01*
X118988745Y-24133499D01*
X119121899Y-24044529D01*
X119269858Y-23983242D01*
X119426925Y-23952000D01*
X119587075Y-23952000D01*
X119744142Y-23983242D01*
X119744142Y-23983242D01*
G37*
G36*
X122284142Y-23983242D02*
G01*
X122432101Y-24044529D01*
X122565255Y-24133499D01*
X122678501Y-24246745D01*
X122767471Y-24379899D01*
X122828758Y-24527858D01*
X122860000Y-24684925D01*
X122860000Y-24845075D01*
X122828758Y-25002142D01*
X122767471Y-25150101D01*
X122678501Y-25283255D01*
X122565255Y-25396501D01*
X122432101Y-25485471D01*
X122284142Y-25546758D01*
X122127075Y-25578000D01*
X121966925Y-25578000D01*
X121809858Y-25546758D01*
X121661899Y-25485471D01*
X121528745Y-25396501D01*
X121415499Y-25283255D01*
X121326529Y-25150101D01*
X121265242Y-25002142D01*
X121234000Y-24845075D01*
X121234000Y-24684925D01*
X121265242Y-24527858D01*
X121326529Y-24379899D01*
X121415499Y-24246745D01*
X121528745Y-24133499D01*
X121661899Y-24044529D01*
X121809858Y-23983242D01*
X121966925Y-23952000D01*
X122127075Y-23952000D01*
X122284142Y-23983242D01*
X122284142Y-23983242D01*
G37*
G36*
X178164142Y-23983242D02*
G01*
X178312101Y-24044529D01*
X178445255Y-24133499D01*
X178558501Y-24246745D01*
X178647471Y-24379899D01*
X178708758Y-24527858D01*
X178740000Y-24684925D01*
X178740000Y-24845075D01*
X178708758Y-25002142D01*
X178647471Y-25150101D01*
X178558501Y-25283255D01*
X178445255Y-25396501D01*
X178312101Y-25485471D01*
X178164142Y-25546758D01*
X178007075Y-25578000D01*
X177846925Y-25578000D01*
X177689858Y-25546758D01*
X177541899Y-25485471D01*
X177408745Y-25396501D01*
X177295499Y-25283255D01*
X177206529Y-25150101D01*
X177145242Y-25002142D01*
X177114000Y-24845075D01*
X177114000Y-24684925D01*
X177145242Y-24527858D01*
X177206529Y-24379899D01*
X177295499Y-24246745D01*
X177408745Y-24133499D01*
X177541899Y-24044529D01*
X177689858Y-23983242D01*
X177846925Y-23952000D01*
X178007075Y-23952000D01*
X178164142Y-23983242D01*
X178164142Y-23983242D01*
G37*
G36*
X180704142Y-23983242D02*
G01*
X180852101Y-24044529D01*
X180985255Y-24133499D01*
X181098501Y-24246745D01*
X181187471Y-24379899D01*
X181248758Y-24527858D01*
X181280000Y-24684925D01*
X181280000Y-24845075D01*
X181248758Y-25002142D01*
X181187471Y-25150101D01*
X181098501Y-25283255D01*
X180985255Y-25396501D01*
X180852101Y-25485471D01*
X180704142Y-25546758D01*
X180547075Y-25578000D01*
X180386925Y-25578000D01*
X180229858Y-25546758D01*
X180081899Y-25485471D01*
X179948745Y-25396501D01*
X179835499Y-25283255D01*
X179746529Y-25150101D01*
X179685242Y-25002142D01*
X179654000Y-24845075D01*
X179654000Y-24684925D01*
X179685242Y-24527858D01*
X179746529Y-24379899D01*
X179835499Y-24246745D01*
X179948745Y-24133499D01*
X180081899Y-24044529D01*
X180229858Y-23983242D01*
X180386925Y-23952000D01*
X180547075Y-23952000D01*
X180704142Y-23983242D01*
X180704142Y-23983242D01*
G37*
G36*
X119744142Y-21443242D02*
G01*
X119892101Y-21504529D01*
X120025255Y-21593499D01*
X120138501Y-21706745D01*
X120227471Y-21839899D01*
X120288758Y-21987858D01*
X120320000Y-22144925D01*
X120320000Y-22305075D01*
X120288758Y-22462142D01*
X120227471Y-22610101D01*
X120138501Y-22743255D01*
X120025255Y-22856501D01*
X119892101Y-22945471D01*
X119744142Y-23006758D01*
X119587075Y-23038000D01*
X119426925Y-23038000D01*
X119269858Y-23006758D01*
X119121899Y-22945471D01*
X118988745Y-22856501D01*
X118875499Y-22743255D01*
X118786529Y-22610101D01*
X118725242Y-22462142D01*
X118694000Y-22305075D01*
X118694000Y-22144925D01*
X118725242Y-21987858D01*
X118786529Y-21839899D01*
X118875499Y-21706745D01*
X118988745Y-21593499D01*
X119121899Y-21504529D01*
X119269858Y-21443242D01*
X119426925Y-21412000D01*
X119587075Y-21412000D01*
X119744142Y-21443242D01*
X119744142Y-21443242D01*
G37*
G36*
X178164142Y-21443242D02*
G01*
X178312101Y-21504529D01*
X178445255Y-21593499D01*
X178558501Y-21706745D01*
X178647471Y-21839899D01*
X178708758Y-21987858D01*
X178740000Y-22144925D01*
X178740000Y-22305075D01*
X178708758Y-22462142D01*
X178647471Y-22610101D01*
X178558501Y-22743255D01*
X178445255Y-22856501D01*
X178312101Y-22945471D01*
X178164142Y-23006758D01*
X178007075Y-23038000D01*
X177846925Y-23038000D01*
X177689858Y-23006758D01*
X177541899Y-22945471D01*
X177408745Y-22856501D01*
X177295499Y-22743255D01*
X177206529Y-22610101D01*
X177145242Y-22462142D01*
X177114000Y-22305075D01*
X177114000Y-22144925D01*
X177145242Y-21987858D01*
X177206529Y-21839899D01*
X177295499Y-21706745D01*
X177408745Y-21593499D01*
X177541899Y-21504529D01*
X177689858Y-21443242D01*
X177846925Y-21412000D01*
X178007075Y-21412000D01*
X178164142Y-21443242D01*
X178164142Y-21443242D01*
G37*
G36*
X122284142Y-21443242D02*
G01*
X122432101Y-21504529D01*
X122565255Y-21593499D01*
X122678501Y-21706745D01*
X122767471Y-21839899D01*
X122828758Y-21987858D01*
X122860000Y-22144925D01*
X122860000Y-22305075D01*
X122828758Y-22462142D01*
X122767471Y-22610101D01*
X122678501Y-22743255D01*
X122565255Y-22856501D01*
X122432101Y-22945471D01*
X122284142Y-23006758D01*
X122127075Y-23038000D01*
X121966925Y-23038000D01*
X121809858Y-23006758D01*
X121661899Y-22945471D01*
X121528745Y-22856501D01*
X121415499Y-22743255D01*
X121326529Y-22610101D01*
X121265242Y-22462142D01*
X121234000Y-22305075D01*
X121234000Y-22144925D01*
X121265242Y-21987858D01*
X121326529Y-21839899D01*
X121415499Y-21706745D01*
X121528745Y-21593499D01*
X121661899Y-21504529D01*
X121809858Y-21443242D01*
X121966925Y-21412000D01*
X122127075Y-21412000D01*
X122284142Y-21443242D01*
X122284142Y-21443242D01*
G37*
G36*
X180704142Y-21443242D02*
G01*
X180852101Y-21504529D01*
X180985255Y-21593499D01*
X181098501Y-21706745D01*
X181187471Y-21839899D01*
X181248758Y-21987858D01*
X181280000Y-22144925D01*
X181280000Y-22305075D01*
X181248758Y-22462142D01*
X181187471Y-22610101D01*
X181098501Y-22743255D01*
X180985255Y-22856501D01*
X180852101Y-22945471D01*
X180704142Y-23006758D01*
X180547075Y-23038000D01*
X180386925Y-23038000D01*
X180229858Y-23006758D01*
X180081899Y-22945471D01*
X179948745Y-22856501D01*
X179835499Y-22743255D01*
X179746529Y-22610101D01*
X179685242Y-22462142D01*
X179654000Y-22305075D01*
X179654000Y-22144925D01*
X179685242Y-21987858D01*
X179746529Y-21839899D01*
X179835499Y-21706745D01*
X179948745Y-21593499D01*
X180081899Y-21504529D01*
X180229858Y-21443242D01*
X180386925Y-21412000D01*
X180547075Y-21412000D01*
X180704142Y-21443242D01*
X180704142Y-21443242D01*
G37*
G36*
X232066398Y-16867443D02*
G01*
X232205717Y-16881165D01*
X232742002Y-17043846D01*
X232742005Y-17043847D01*
X233236244Y-17308023D01*
X233669453Y-17663547D01*
X234024977Y-18096756D01*
X234289153Y-18590995D01*
X234289154Y-18590998D01*
X234451835Y-19127283D01*
X234506765Y-19685000D01*
X234451835Y-20242717D01*
X234374395Y-20498000D01*
X234289153Y-20779005D01*
X234024977Y-21273244D01*
X233669453Y-21706453D01*
X233236244Y-22061977D01*
X232742005Y-22326153D01*
X232742002Y-22326154D01*
X232205717Y-22488835D01*
X232066398Y-22502557D01*
X231787761Y-22530000D01*
X227952239Y-22530000D01*
X227673602Y-22502557D01*
X227534283Y-22488835D01*
X226997998Y-22326154D01*
X226997995Y-22326153D01*
X226503756Y-22061977D01*
X226070547Y-21706453D01*
X225715023Y-21273244D01*
X225450847Y-20779005D01*
X225365605Y-20498000D01*
X225288165Y-20242717D01*
X225233235Y-19685000D01*
X225288165Y-19127283D01*
X225450846Y-18590998D01*
X225450847Y-18590995D01*
X225715023Y-18096756D01*
X226070547Y-17663547D01*
X226503756Y-17308023D01*
X226997995Y-17043847D01*
X226997998Y-17043846D01*
X227534283Y-16881165D01*
X227673602Y-16867443D01*
X227952239Y-16840000D01*
X231787761Y-16840000D01*
X232066398Y-16867443D01*
X232066398Y-16867443D01*
G37*
G36*
X221906398Y-16867443D02*
G01*
X222045717Y-16881165D01*
X222582002Y-17043846D01*
X222582005Y-17043847D01*
X223076244Y-17308023D01*
X223509453Y-17663547D01*
X223864977Y-18096756D01*
X224129153Y-18590995D01*
X224129154Y-18590998D01*
X224291835Y-19127283D01*
X224346765Y-19685000D01*
X224291835Y-20242717D01*
X224214395Y-20498000D01*
X224129153Y-20779005D01*
X223864977Y-21273244D01*
X223509453Y-21706453D01*
X223076244Y-22061977D01*
X222582005Y-22326153D01*
X222582002Y-22326154D01*
X222045717Y-22488835D01*
X221906398Y-22502557D01*
X221627761Y-22530000D01*
X217792239Y-22530000D01*
X217513602Y-22502557D01*
X217374283Y-22488835D01*
X216837998Y-22326154D01*
X216837995Y-22326153D01*
X216343756Y-22061977D01*
X215910547Y-21706453D01*
X215555023Y-21273244D01*
X215290847Y-20779005D01*
X215205605Y-20498000D01*
X215128165Y-20242717D01*
X215073235Y-19685000D01*
X215128165Y-19127283D01*
X215290846Y-18590998D01*
X215290847Y-18590995D01*
X215555023Y-18096756D01*
X215910547Y-17663547D01*
X216343756Y-17308023D01*
X216837995Y-17043847D01*
X216837998Y-17043846D01*
X217374283Y-16881165D01*
X217513602Y-16867443D01*
X217792239Y-16840000D01*
X221627761Y-16840000D01*
X221906398Y-16867443D01*
X221906398Y-16867443D01*
G37*
G36*
X180704142Y-18903242D02*
G01*
X180852101Y-18964529D01*
X180985255Y-19053499D01*
X181098501Y-19166745D01*
X181187471Y-19299899D01*
X181248758Y-19447858D01*
X181280000Y-19604925D01*
X181280000Y-19765075D01*
X181248758Y-19922142D01*
X181187471Y-20070101D01*
X181098501Y-20203255D01*
X180985255Y-20316501D01*
X180852101Y-20405471D01*
X180704142Y-20466758D01*
X180547075Y-20498000D01*
X180386925Y-20498000D01*
X180229858Y-20466758D01*
X180081899Y-20405471D01*
X179948745Y-20316501D01*
X179835499Y-20203255D01*
X179746529Y-20070101D01*
X179685242Y-19922142D01*
X179654000Y-19765075D01*
X179654000Y-19604925D01*
X179685242Y-19447858D01*
X179746529Y-19299899D01*
X179835499Y-19166745D01*
X179948745Y-19053499D01*
X180081899Y-18964529D01*
X180229858Y-18903242D01*
X180386925Y-18872000D01*
X180547075Y-18872000D01*
X180704142Y-18903242D01*
X180704142Y-18903242D01*
G37*
G36*
X122284142Y-18903242D02*
G01*
X122432101Y-18964529D01*
X122565255Y-19053499D01*
X122678501Y-19166745D01*
X122767471Y-19299899D01*
X122828758Y-19447858D01*
X122860000Y-19604925D01*
X122860000Y-19765075D01*
X122828758Y-19922142D01*
X122767471Y-20070101D01*
X122678501Y-20203255D01*
X122565255Y-20316501D01*
X122432101Y-20405471D01*
X122284142Y-20466758D01*
X122127075Y-20498000D01*
X121966925Y-20498000D01*
X121809858Y-20466758D01*
X121661899Y-20405471D01*
X121528745Y-20316501D01*
X121415499Y-20203255D01*
X121326529Y-20070101D01*
X121265242Y-19922142D01*
X121234000Y-19765075D01*
X121234000Y-19604925D01*
X121265242Y-19447858D01*
X121326529Y-19299899D01*
X121415499Y-19166745D01*
X121528745Y-19053499D01*
X121661899Y-18964529D01*
X121809858Y-18903242D01*
X121966925Y-18872000D01*
X122127075Y-18872000D01*
X122284142Y-18903242D01*
X122284142Y-18903242D01*
G37*
G36*
X119744142Y-18903242D02*
G01*
X119892101Y-18964529D01*
X120025255Y-19053499D01*
X120138501Y-19166745D01*
X120227471Y-19299899D01*
X120288758Y-19447858D01*
X120320000Y-19604925D01*
X120320000Y-19765075D01*
X120288758Y-19922142D01*
X120227471Y-20070101D01*
X120138501Y-20203255D01*
X120025255Y-20316501D01*
X119892101Y-20405471D01*
X119744142Y-20466758D01*
X119587075Y-20498000D01*
X119426925Y-20498000D01*
X119269858Y-20466758D01*
X119121899Y-20405471D01*
X118988745Y-20316501D01*
X118875499Y-20203255D01*
X118786529Y-20070101D01*
X118725242Y-19922142D01*
X118694000Y-19765075D01*
X118694000Y-19604925D01*
X118725242Y-19447858D01*
X118786529Y-19299899D01*
X118875499Y-19166745D01*
X118988745Y-19053499D01*
X119121899Y-18964529D01*
X119269858Y-18903242D01*
X119426925Y-18872000D01*
X119587075Y-18872000D01*
X119744142Y-18903242D01*
X119744142Y-18903242D01*
G37*
G36*
X178164142Y-18903242D02*
G01*
X178312101Y-18964529D01*
X178445255Y-19053499D01*
X178558501Y-19166745D01*
X178647471Y-19299899D01*
X178708758Y-19447858D01*
X178740000Y-19604925D01*
X178740000Y-19765075D01*
X178708758Y-19922142D01*
X178647471Y-20070101D01*
X178558501Y-20203255D01*
X178445255Y-20316501D01*
X178312101Y-20405471D01*
X178164142Y-20466758D01*
X178007075Y-20498000D01*
X177846925Y-20498000D01*
X177689858Y-20466758D01*
X177541899Y-20405471D01*
X177408745Y-20316501D01*
X177295499Y-20203255D01*
X177206529Y-20070101D01*
X177145242Y-19922142D01*
X177114000Y-19765075D01*
X177114000Y-19604925D01*
X177145242Y-19447858D01*
X177206529Y-19299899D01*
X177295499Y-19166745D01*
X177408745Y-19053499D01*
X177541899Y-18964529D01*
X177689858Y-18903242D01*
X177846925Y-18872000D01*
X178007075Y-18872000D01*
X178164142Y-18903242D01*
X178164142Y-18903242D01*
G37*
G36*
X180704142Y-16363242D02*
G01*
X180852101Y-16424529D01*
X180985255Y-16513499D01*
X181098501Y-16626745D01*
X181187471Y-16759899D01*
X181248758Y-16907858D01*
X181280000Y-17064925D01*
X181280000Y-17225075D01*
X181248758Y-17382142D01*
X181187471Y-17530101D01*
X181098501Y-17663255D01*
X180985255Y-17776501D01*
X180852101Y-17865471D01*
X180704142Y-17926758D01*
X180547075Y-17958000D01*
X180386925Y-17958000D01*
X180229858Y-17926758D01*
X180081899Y-17865471D01*
X179948745Y-17776501D01*
X179835499Y-17663255D01*
X179746529Y-17530101D01*
X179685242Y-17382142D01*
X179654000Y-17225075D01*
X179654000Y-17064925D01*
X179685242Y-16907858D01*
X179746529Y-16759899D01*
X179835499Y-16626745D01*
X179948745Y-16513499D01*
X180081899Y-16424529D01*
X180229858Y-16363242D01*
X180386925Y-16332000D01*
X180547075Y-16332000D01*
X180704142Y-16363242D01*
X180704142Y-16363242D01*
G37*
G36*
X178164142Y-16363242D02*
G01*
X178312101Y-16424529D01*
X178445255Y-16513499D01*
X178558501Y-16626745D01*
X178647471Y-16759899D01*
X178708758Y-16907858D01*
X178740000Y-17064925D01*
X178740000Y-17225075D01*
X178708758Y-17382142D01*
X178647471Y-17530101D01*
X178558501Y-17663255D01*
X178445255Y-17776501D01*
X178312101Y-17865471D01*
X178164142Y-17926758D01*
X178007075Y-17958000D01*
X177846925Y-17958000D01*
X177689858Y-17926758D01*
X177541899Y-17865471D01*
X177408745Y-17776501D01*
X177295499Y-17663255D01*
X177206529Y-17530101D01*
X177145242Y-17382142D01*
X177114000Y-17225075D01*
X177114000Y-17064925D01*
X177145242Y-16907858D01*
X177206529Y-16759899D01*
X177295499Y-16626745D01*
X177408745Y-16513499D01*
X177541899Y-16424529D01*
X177689858Y-16363242D01*
X177846925Y-16332000D01*
X178007075Y-16332000D01*
X178164142Y-16363242D01*
X178164142Y-16363242D01*
G37*
G36*
X119744142Y-16363242D02*
G01*
X119892101Y-16424529D01*
X120025255Y-16513499D01*
X120138501Y-16626745D01*
X120227471Y-16759899D01*
X120288758Y-16907858D01*
X120320000Y-17064925D01*
X120320000Y-17225075D01*
X120288758Y-17382142D01*
X120227471Y-17530101D01*
X120138501Y-17663255D01*
X120025255Y-17776501D01*
X119892101Y-17865471D01*
X119744142Y-17926758D01*
X119587075Y-17958000D01*
X119426925Y-17958000D01*
X119269858Y-17926758D01*
X119121899Y-17865471D01*
X118988745Y-17776501D01*
X118875499Y-17663255D01*
X118786529Y-17530101D01*
X118725242Y-17382142D01*
X118694000Y-17225075D01*
X118694000Y-17064925D01*
X118725242Y-16907858D01*
X118786529Y-16759899D01*
X118875499Y-16626745D01*
X118988745Y-16513499D01*
X119121899Y-16424529D01*
X119269858Y-16363242D01*
X119426925Y-16332000D01*
X119587075Y-16332000D01*
X119744142Y-16363242D01*
X119744142Y-16363242D01*
G37*
G36*
X122284142Y-16363242D02*
G01*
X122432101Y-16424529D01*
X122565255Y-16513499D01*
X122678501Y-16626745D01*
X122767471Y-16759899D01*
X122828758Y-16907858D01*
X122860000Y-17064925D01*
X122860000Y-17225075D01*
X122828758Y-17382142D01*
X122767471Y-17530101D01*
X122678501Y-17663255D01*
X122565255Y-17776501D01*
X122432101Y-17865471D01*
X122284142Y-17926758D01*
X122127075Y-17958000D01*
X121966925Y-17958000D01*
X121809858Y-17926758D01*
X121661899Y-17865471D01*
X121528745Y-17776501D01*
X121415499Y-17663255D01*
X121326529Y-17530101D01*
X121265242Y-17382142D01*
X121234000Y-17225075D01*
X121234000Y-17064925D01*
X121265242Y-16907858D01*
X121326529Y-16759899D01*
X121415499Y-16626745D01*
X121528745Y-16513499D01*
X121661899Y-16424529D01*
X121809858Y-16363242D01*
X121966925Y-16332000D01*
X122127075Y-16332000D01*
X122284142Y-16363242D01*
X122284142Y-16363242D01*
G37*
G36*
X122284142Y-13823242D02*
G01*
X122432101Y-13884529D01*
X122565255Y-13973499D01*
X122678501Y-14086745D01*
X122767471Y-14219899D01*
X122828758Y-14367858D01*
X122860000Y-14524925D01*
X122860000Y-14685075D01*
X122828758Y-14842142D01*
X122767471Y-14990101D01*
X122678501Y-15123255D01*
X122565255Y-15236501D01*
X122432101Y-15325471D01*
X122284142Y-15386758D01*
X122127075Y-15418000D01*
X121966925Y-15418000D01*
X121809858Y-15386758D01*
X121661899Y-15325471D01*
X121528745Y-15236501D01*
X121415499Y-15123255D01*
X121326529Y-14990101D01*
X121265242Y-14842142D01*
X121234000Y-14685075D01*
X121234000Y-14524925D01*
X121265242Y-14367858D01*
X121326529Y-14219899D01*
X121415499Y-14086745D01*
X121528745Y-13973499D01*
X121661899Y-13884529D01*
X121809858Y-13823242D01*
X121966925Y-13792000D01*
X122127075Y-13792000D01*
X122284142Y-13823242D01*
X122284142Y-13823242D01*
G37*
G36*
X180704142Y-13823242D02*
G01*
X180852101Y-13884529D01*
X180985255Y-13973499D01*
X181098501Y-14086745D01*
X181187471Y-14219899D01*
X181248758Y-14367858D01*
X181280000Y-14524925D01*
X181280000Y-14685075D01*
X181248758Y-14842142D01*
X181187471Y-14990101D01*
X181098501Y-15123255D01*
X180985255Y-15236501D01*
X180852101Y-15325471D01*
X180704142Y-15386758D01*
X180547075Y-15418000D01*
X180386925Y-15418000D01*
X180229858Y-15386758D01*
X180081899Y-15325471D01*
X179948745Y-15236501D01*
X179835499Y-15123255D01*
X179746529Y-14990101D01*
X179685242Y-14842142D01*
X179654000Y-14685075D01*
X179654000Y-14524925D01*
X179685242Y-14367858D01*
X179746529Y-14219899D01*
X179835499Y-14086745D01*
X179948745Y-13973499D01*
X180081899Y-13884529D01*
X180229858Y-13823242D01*
X180386925Y-13792000D01*
X180547075Y-13792000D01*
X180704142Y-13823242D01*
X180704142Y-13823242D01*
G37*
G36*
X178164142Y-13823242D02*
G01*
X178312101Y-13884529D01*
X178445255Y-13973499D01*
X178558501Y-14086745D01*
X178647471Y-14219899D01*
X178708758Y-14367858D01*
X178740000Y-14524925D01*
X178740000Y-14685075D01*
X178708758Y-14842142D01*
X178647471Y-14990101D01*
X178558501Y-15123255D01*
X178445255Y-15236501D01*
X178312101Y-15325471D01*
X178164142Y-15386758D01*
X178007075Y-15418000D01*
X177846925Y-15418000D01*
X177689858Y-15386758D01*
X177541899Y-15325471D01*
X177408745Y-15236501D01*
X177295499Y-15123255D01*
X177206529Y-14990101D01*
X177145242Y-14842142D01*
X177114000Y-14685075D01*
X177114000Y-14524925D01*
X177145242Y-14367858D01*
X177206529Y-14219899D01*
X177295499Y-14086745D01*
X177408745Y-13973499D01*
X177541899Y-13884529D01*
X177689858Y-13823242D01*
X177846925Y-13792000D01*
X178007075Y-13792000D01*
X178164142Y-13823242D01*
X178164142Y-13823242D01*
G37*
G36*
X119744142Y-13823242D02*
G01*
X119892101Y-13884529D01*
X120025255Y-13973499D01*
X120138501Y-14086745D01*
X120227471Y-14219899D01*
X120288758Y-14367858D01*
X120320000Y-14524925D01*
X120320000Y-14685075D01*
X120288758Y-14842142D01*
X120227471Y-14990101D01*
X120138501Y-15123255D01*
X120025255Y-15236501D01*
X119892101Y-15325471D01*
X119744142Y-15386758D01*
X119587075Y-15418000D01*
X119426925Y-15418000D01*
X119269858Y-15386758D01*
X119121899Y-15325471D01*
X118988745Y-15236501D01*
X118875499Y-15123255D01*
X118786529Y-14990101D01*
X118725242Y-14842142D01*
X118694000Y-14685075D01*
X118694000Y-14524925D01*
X118725242Y-14367858D01*
X118786529Y-14219899D01*
X118875499Y-14086745D01*
X118988745Y-13973499D01*
X119121899Y-13884529D01*
X119269858Y-13823242D01*
X119426925Y-13792000D01*
X119587075Y-13792000D01*
X119744142Y-13823242D01*
X119744142Y-13823242D01*
G37*
G36*
X155304142Y-11283242D02*
G01*
X155452101Y-11344529D01*
X155585255Y-11433499D01*
X155698501Y-11546745D01*
X155787471Y-11679899D01*
X155848758Y-11827858D01*
X155880000Y-11984925D01*
X155880000Y-12145075D01*
X155848758Y-12302142D01*
X155787471Y-12450101D01*
X155698501Y-12583255D01*
X155585255Y-12696501D01*
X155452101Y-12785471D01*
X155304142Y-12846758D01*
X155147075Y-12878000D01*
X154986925Y-12878000D01*
X154829858Y-12846758D01*
X154681899Y-12785471D01*
X154548745Y-12696501D01*
X154435499Y-12583255D01*
X154346529Y-12450101D01*
X154285242Y-12302142D01*
X154254000Y-12145075D01*
X154254000Y-11984925D01*
X154285242Y-11827858D01*
X154346529Y-11679899D01*
X154435499Y-11546745D01*
X154548745Y-11433499D01*
X154681899Y-11344529D01*
X154829858Y-11283242D01*
X154986925Y-11252000D01*
X155147075Y-11252000D01*
X155304142Y-11283242D01*
X155304142Y-11283242D01*
G37*
G36*
X142604142Y-11283242D02*
G01*
X142752101Y-11344529D01*
X142885255Y-11433499D01*
X142998501Y-11546745D01*
X143087471Y-11679899D01*
X143148758Y-11827858D01*
X143180000Y-11984925D01*
X143180000Y-12145075D01*
X143148758Y-12302142D01*
X143087471Y-12450101D01*
X142998501Y-12583255D01*
X142885255Y-12696501D01*
X142752101Y-12785471D01*
X142604142Y-12846758D01*
X142447075Y-12878000D01*
X142286925Y-12878000D01*
X142129858Y-12846758D01*
X141981899Y-12785471D01*
X141848745Y-12696501D01*
X141735499Y-12583255D01*
X141646529Y-12450101D01*
X141585242Y-12302142D01*
X141554000Y-12145075D01*
X141554000Y-11984925D01*
X141585242Y-11827858D01*
X141646529Y-11679899D01*
X141735499Y-11546745D01*
X141848745Y-11433499D01*
X141981899Y-11344529D01*
X142129858Y-11283242D01*
X142286925Y-11252000D01*
X142447075Y-11252000D01*
X142604142Y-11283242D01*
X142604142Y-11283242D01*
G37*
G36*
X122284142Y-11283242D02*
G01*
X122432101Y-11344529D01*
X122565255Y-11433499D01*
X122678501Y-11546745D01*
X122767471Y-11679899D01*
X122828758Y-11827858D01*
X122860000Y-11984925D01*
X122860000Y-12145075D01*
X122828758Y-12302142D01*
X122767471Y-12450101D01*
X122678501Y-12583255D01*
X122565255Y-12696501D01*
X122432101Y-12785471D01*
X122284142Y-12846758D01*
X122127075Y-12878000D01*
X121966925Y-12878000D01*
X121809858Y-12846758D01*
X121661899Y-12785471D01*
X121528745Y-12696501D01*
X121415499Y-12583255D01*
X121326529Y-12450101D01*
X121265242Y-12302142D01*
X121234000Y-12145075D01*
X121234000Y-11984925D01*
X121265242Y-11827858D01*
X121326529Y-11679899D01*
X121415499Y-11546745D01*
X121528745Y-11433499D01*
X121661899Y-11344529D01*
X121809858Y-11283242D01*
X121966925Y-11252000D01*
X122127075Y-11252000D01*
X122284142Y-11283242D01*
X122284142Y-11283242D01*
G37*
G36*
X157844142Y-11283242D02*
G01*
X157992101Y-11344529D01*
X158125255Y-11433499D01*
X158238501Y-11546745D01*
X158327471Y-11679899D01*
X158388758Y-11827858D01*
X158420000Y-11984925D01*
X158420000Y-12145075D01*
X158388758Y-12302142D01*
X158327471Y-12450101D01*
X158238501Y-12583255D01*
X158125255Y-12696501D01*
X157992101Y-12785471D01*
X157844142Y-12846758D01*
X157687075Y-12878000D01*
X157526925Y-12878000D01*
X157369858Y-12846758D01*
X157221899Y-12785471D01*
X157088745Y-12696501D01*
X156975499Y-12583255D01*
X156886529Y-12450101D01*
X156825242Y-12302142D01*
X156794000Y-12145075D01*
X156794000Y-11984925D01*
X156825242Y-11827858D01*
X156886529Y-11679899D01*
X156975499Y-11546745D01*
X157088745Y-11433499D01*
X157221899Y-11344529D01*
X157369858Y-11283242D01*
X157526925Y-11252000D01*
X157687075Y-11252000D01*
X157844142Y-11283242D01*
X157844142Y-11283242D01*
G37*
G36*
X180704142Y-11283242D02*
G01*
X180852101Y-11344529D01*
X180985255Y-11433499D01*
X181098501Y-11546745D01*
X181187471Y-11679899D01*
X181248758Y-11827858D01*
X181280000Y-11984925D01*
X181280000Y-12145075D01*
X181248758Y-12302142D01*
X181187471Y-12450101D01*
X181098501Y-12583255D01*
X180985255Y-12696501D01*
X180852101Y-12785471D01*
X180704142Y-12846758D01*
X180547075Y-12878000D01*
X180386925Y-12878000D01*
X180229858Y-12846758D01*
X180081899Y-12785471D01*
X179948745Y-12696501D01*
X179835499Y-12583255D01*
X179746529Y-12450101D01*
X179685242Y-12302142D01*
X179654000Y-12145075D01*
X179654000Y-11984925D01*
X179685242Y-11827858D01*
X179746529Y-11679899D01*
X179835499Y-11546745D01*
X179948745Y-11433499D01*
X180081899Y-11344529D01*
X180229858Y-11283242D01*
X180386925Y-11252000D01*
X180547075Y-11252000D01*
X180704142Y-11283242D01*
X180704142Y-11283242D01*
G37*
G36*
X145144142Y-11283242D02*
G01*
X145292101Y-11344529D01*
X145425255Y-11433499D01*
X145538501Y-11546745D01*
X145627471Y-11679899D01*
X145688758Y-11827858D01*
X145720000Y-11984925D01*
X145720000Y-12145075D01*
X145688758Y-12302142D01*
X145627471Y-12450101D01*
X145538501Y-12583255D01*
X145425255Y-12696501D01*
X145292101Y-12785471D01*
X145144142Y-12846758D01*
X144987075Y-12878000D01*
X144826925Y-12878000D01*
X144669858Y-12846758D01*
X144521899Y-12785471D01*
X144388745Y-12696501D01*
X144275499Y-12583255D01*
X144186529Y-12450101D01*
X144125242Y-12302142D01*
X144094000Y-12145075D01*
X144094000Y-11984925D01*
X144125242Y-11827858D01*
X144186529Y-11679899D01*
X144275499Y-11546745D01*
X144388745Y-11433499D01*
X144521899Y-11344529D01*
X144669858Y-11283242D01*
X144826925Y-11252000D01*
X144987075Y-11252000D01*
X145144142Y-11283242D01*
X145144142Y-11283242D01*
G37*
G36*
X119744142Y-11283242D02*
G01*
X119892101Y-11344529D01*
X120025255Y-11433499D01*
X120138501Y-11546745D01*
X120227471Y-11679899D01*
X120288758Y-11827858D01*
X120320000Y-11984925D01*
X120320000Y-12145075D01*
X120288758Y-12302142D01*
X120227471Y-12450101D01*
X120138501Y-12583255D01*
X120025255Y-12696501D01*
X119892101Y-12785471D01*
X119744142Y-12846758D01*
X119587075Y-12878000D01*
X119426925Y-12878000D01*
X119269858Y-12846758D01*
X119121899Y-12785471D01*
X118988745Y-12696501D01*
X118875499Y-12583255D01*
X118786529Y-12450101D01*
X118725242Y-12302142D01*
X118694000Y-12145075D01*
X118694000Y-11984925D01*
X118725242Y-11827858D01*
X118786529Y-11679899D01*
X118875499Y-11546745D01*
X118988745Y-11433499D01*
X119121899Y-11344529D01*
X119269858Y-11283242D01*
X119426925Y-11252000D01*
X119587075Y-11252000D01*
X119744142Y-11283242D01*
X119744142Y-11283242D01*
G37*
G36*
X178164142Y-11283242D02*
G01*
X178312101Y-11344529D01*
X178445255Y-11433499D01*
X178558501Y-11546745D01*
X178647471Y-11679899D01*
X178708758Y-11827858D01*
X178740000Y-11984925D01*
X178740000Y-12145075D01*
X178708758Y-12302142D01*
X178647471Y-12450101D01*
X178558501Y-12583255D01*
X178445255Y-12696501D01*
X178312101Y-12785471D01*
X178164142Y-12846758D01*
X178007075Y-12878000D01*
X177846925Y-12878000D01*
X177689858Y-12846758D01*
X177541899Y-12785471D01*
X177408745Y-12696501D01*
X177295499Y-12583255D01*
X177206529Y-12450101D01*
X177145242Y-12302142D01*
X177114000Y-12145075D01*
X177114000Y-11984925D01*
X177145242Y-11827858D01*
X177206529Y-11679899D01*
X177295499Y-11546745D01*
X177408745Y-11433499D01*
X177541899Y-11344529D01*
X177689858Y-11283242D01*
X177846925Y-11252000D01*
X178007075Y-11252000D01*
X178164142Y-11283242D01*
X178164142Y-11283242D01*
G37*
G36*
X122284142Y-8743242D02*
G01*
X122432101Y-8804529D01*
X122565255Y-8893499D01*
X122678501Y-9006745D01*
X122767471Y-9139899D01*
X122828758Y-9287858D01*
X122860000Y-9444925D01*
X122860000Y-9605075D01*
X122828758Y-9762142D01*
X122767471Y-9910101D01*
X122678501Y-10043255D01*
X122565255Y-10156501D01*
X122432101Y-10245471D01*
X122284142Y-10306758D01*
X122127075Y-10338000D01*
X121966925Y-10338000D01*
X121809858Y-10306758D01*
X121661899Y-10245471D01*
X121528745Y-10156501D01*
X121415499Y-10043255D01*
X121326529Y-9910101D01*
X121265242Y-9762142D01*
X121234000Y-9605075D01*
X121234000Y-9444925D01*
X121265242Y-9287858D01*
X121326529Y-9139899D01*
X121415499Y-9006745D01*
X121528745Y-8893499D01*
X121661899Y-8804529D01*
X121809858Y-8743242D01*
X121966925Y-8712000D01*
X122127075Y-8712000D01*
X122284142Y-8743242D01*
X122284142Y-8743242D01*
G37*
G36*
X119744142Y-8743242D02*
G01*
X119892101Y-8804529D01*
X120025255Y-8893499D01*
X120138501Y-9006745D01*
X120227471Y-9139899D01*
X120288758Y-9287858D01*
X120320000Y-9444925D01*
X120320000Y-9605075D01*
X120288758Y-9762142D01*
X120227471Y-9910101D01*
X120138501Y-10043255D01*
X120025255Y-10156501D01*
X119892101Y-10245471D01*
X119744142Y-10306758D01*
X119587075Y-10338000D01*
X119426925Y-10338000D01*
X119269858Y-10306758D01*
X119121899Y-10245471D01*
X118988745Y-10156501D01*
X118875499Y-10043255D01*
X118786529Y-9910101D01*
X118725242Y-9762142D01*
X118694000Y-9605075D01*
X118694000Y-9444925D01*
X118725242Y-9287858D01*
X118786529Y-9139899D01*
X118875499Y-9006745D01*
X118988745Y-8893499D01*
X119121899Y-8804529D01*
X119269858Y-8743242D01*
X119426925Y-8712000D01*
X119587075Y-8712000D01*
X119744142Y-8743242D01*
X119744142Y-8743242D01*
G37*
G36*
X180704142Y-8743242D02*
G01*
X180852101Y-8804529D01*
X180985255Y-8893499D01*
X181098501Y-9006745D01*
X181187471Y-9139899D01*
X181248758Y-9287858D01*
X181280000Y-9444925D01*
X181280000Y-9605075D01*
X181248758Y-9762142D01*
X181187471Y-9910101D01*
X181098501Y-10043255D01*
X180985255Y-10156501D01*
X180852101Y-10245471D01*
X180704142Y-10306758D01*
X180547075Y-10338000D01*
X180386925Y-10338000D01*
X180229858Y-10306758D01*
X180081899Y-10245471D01*
X179948745Y-10156501D01*
X179835499Y-10043255D01*
X179746529Y-9910101D01*
X179685242Y-9762142D01*
X179654000Y-9605075D01*
X179654000Y-9444925D01*
X179685242Y-9287858D01*
X179746529Y-9139899D01*
X179835499Y-9006745D01*
X179948745Y-8893499D01*
X180081899Y-8804529D01*
X180229858Y-8743242D01*
X180386925Y-8712000D01*
X180547075Y-8712000D01*
X180704142Y-8743242D01*
X180704142Y-8743242D01*
G37*
G36*
X178164142Y-8743242D02*
G01*
X178312101Y-8804529D01*
X178445255Y-8893499D01*
X178558501Y-9006745D01*
X178647471Y-9139899D01*
X178708758Y-9287858D01*
X178740000Y-9444925D01*
X178740000Y-9605075D01*
X178708758Y-9762142D01*
X178647471Y-9910101D01*
X178558501Y-10043255D01*
X178445255Y-10156501D01*
X178312101Y-10245471D01*
X178164142Y-10306758D01*
X178007075Y-10338000D01*
X177846925Y-10338000D01*
X177689858Y-10306758D01*
X177541899Y-10245471D01*
X177408745Y-10156501D01*
X177295499Y-10043255D01*
X177206529Y-9910101D01*
X177145242Y-9762142D01*
X177114000Y-9605075D01*
X177114000Y-9444925D01*
X177145242Y-9287858D01*
X177206529Y-9139899D01*
X177295499Y-9006745D01*
X177408745Y-8893499D01*
X177541899Y-8804529D01*
X177689858Y-8743242D01*
X177846925Y-8712000D01*
X178007075Y-8712000D01*
X178164142Y-8743242D01*
X178164142Y-8743242D01*
G37*
G36*
X157844142Y-8743242D02*
G01*
X157992101Y-8804529D01*
X158125255Y-8893499D01*
X158238501Y-9006745D01*
X158327471Y-9139899D01*
X158388758Y-9287858D01*
X158420000Y-9444925D01*
X158420000Y-9605075D01*
X158388758Y-9762142D01*
X158327471Y-9910101D01*
X158238501Y-10043255D01*
X158125255Y-10156501D01*
X157992101Y-10245471D01*
X157844142Y-10306758D01*
X157687075Y-10338000D01*
X157526925Y-10338000D01*
X157369858Y-10306758D01*
X157221899Y-10245471D01*
X157088745Y-10156501D01*
X156975499Y-10043255D01*
X156886529Y-9910101D01*
X156825242Y-9762142D01*
X156794000Y-9605075D01*
X156794000Y-9444925D01*
X156825242Y-9287858D01*
X156886529Y-9139899D01*
X156975499Y-9006745D01*
X157088745Y-8893499D01*
X157221899Y-8804529D01*
X157369858Y-8743242D01*
X157526925Y-8712000D01*
X157687075Y-8712000D01*
X157844142Y-8743242D01*
X157844142Y-8743242D01*
G37*
G36*
X155304142Y-8743242D02*
G01*
X155452101Y-8804529D01*
X155585255Y-8893499D01*
X155698501Y-9006745D01*
X155787471Y-9139899D01*
X155848758Y-9287858D01*
X155880000Y-9444925D01*
X155880000Y-9605075D01*
X155848758Y-9762142D01*
X155787471Y-9910101D01*
X155698501Y-10043255D01*
X155585255Y-10156501D01*
X155452101Y-10245471D01*
X155304142Y-10306758D01*
X155147075Y-10338000D01*
X154986925Y-10338000D01*
X154829858Y-10306758D01*
X154681899Y-10245471D01*
X154548745Y-10156501D01*
X154435499Y-10043255D01*
X154346529Y-9910101D01*
X154285242Y-9762142D01*
X154254000Y-9605075D01*
X154254000Y-9444925D01*
X154285242Y-9287858D01*
X154346529Y-9139899D01*
X154435499Y-9006745D01*
X154548745Y-8893499D01*
X154681899Y-8804529D01*
X154829858Y-8743242D01*
X154986925Y-8712000D01*
X155147075Y-8712000D01*
X155304142Y-8743242D01*
X155304142Y-8743242D01*
G37*
G36*
X145144142Y-8743242D02*
G01*
X145292101Y-8804529D01*
X145425255Y-8893499D01*
X145538501Y-9006745D01*
X145627471Y-9139899D01*
X145688758Y-9287858D01*
X145720000Y-9444925D01*
X145720000Y-9605075D01*
X145688758Y-9762142D01*
X145627471Y-9910101D01*
X145538501Y-10043255D01*
X145425255Y-10156501D01*
X145292101Y-10245471D01*
X145144142Y-10306758D01*
X144987075Y-10338000D01*
X144826925Y-10338000D01*
X144669858Y-10306758D01*
X144521899Y-10245471D01*
X144388745Y-10156501D01*
X144275499Y-10043255D01*
X144186529Y-9910101D01*
X144125242Y-9762142D01*
X144094000Y-9605075D01*
X144094000Y-9444925D01*
X144125242Y-9287858D01*
X144186529Y-9139899D01*
X144275499Y-9006745D01*
X144388745Y-8893499D01*
X144521899Y-8804529D01*
X144669858Y-8743242D01*
X144826925Y-8712000D01*
X144987075Y-8712000D01*
X145144142Y-8743242D01*
X145144142Y-8743242D01*
G37*
G36*
X142604142Y-8743242D02*
G01*
X142752101Y-8804529D01*
X142885255Y-8893499D01*
X142998501Y-9006745D01*
X143087471Y-9139899D01*
X143148758Y-9287858D01*
X143180000Y-9444925D01*
X143180000Y-9605075D01*
X143148758Y-9762142D01*
X143087471Y-9910101D01*
X142998501Y-10043255D01*
X142885255Y-10156501D01*
X142752101Y-10245471D01*
X142604142Y-10306758D01*
X142447075Y-10338000D01*
X142286925Y-10338000D01*
X142129858Y-10306758D01*
X141981899Y-10245471D01*
X141848745Y-10156501D01*
X141735499Y-10043255D01*
X141646529Y-9910101D01*
X141585242Y-9762142D01*
X141554000Y-9605075D01*
X141554000Y-9444925D01*
X141585242Y-9287858D01*
X141646529Y-9139899D01*
X141735499Y-9006745D01*
X141848745Y-8893499D01*
X141981899Y-8804529D01*
X142129858Y-8743242D01*
X142286925Y-8712000D01*
X142447075Y-8712000D01*
X142604142Y-8743242D01*
X142604142Y-8743242D01*
G37*
G36*
X243869201Y13117214D02*
G01*
X245252083Y12842142D01*
X246925466Y12149004D01*
X248431471Y11142723D01*
X249712223Y9861971D01*
X250718504Y8355966D01*
X251411642Y6682583D01*
X251646369Y5502529D01*
X251765000Y4906130D01*
X251765000Y3094870D01*
X251726485Y2901243D01*
X251411642Y1318417D01*
X250718504Y-354966D01*
X249712223Y-1860971D01*
X248431471Y-3141723D01*
X246925466Y-4148004D01*
X245252083Y-4841142D01*
X243869201Y-5116214D01*
X243475630Y-5194500D01*
X241664370Y-5194500D01*
X241270799Y-5116214D01*
X239887917Y-4841142D01*
X238214534Y-4148004D01*
X236708529Y-3141723D01*
X235427777Y-1860971D01*
X234421496Y-354966D01*
X233728358Y1318417D01*
X233413515Y2901243D01*
X233375000Y3094870D01*
X233375000Y4906130D01*
X233493631Y5502529D01*
X233728358Y6682583D01*
X234421496Y8355966D01*
X235427777Y9861971D01*
X236708529Y11142723D01*
X238214534Y12149004D01*
X239887917Y12842142D01*
X241270799Y13117214D01*
X241664370Y13195500D01*
X243475630Y13195500D01*
X243869201Y13117214D01*
X243869201Y13117214D01*
G37*
G36*
X94852142Y4464758D02*
G01*
X95000101Y4403471D01*
X95133255Y4314501D01*
X95246501Y4201255D01*
X95335471Y4068101D01*
X95396758Y3920142D01*
X95428000Y3763075D01*
X95428000Y3602925D01*
X95396758Y3445858D01*
X95335471Y3297899D01*
X95246501Y3164745D01*
X95133255Y3051499D01*
X95000101Y2962529D01*
X94852142Y2901242D01*
X94695075Y2870000D01*
X94534925Y2870000D01*
X94377858Y2901242D01*
X94229899Y2962529D01*
X94096745Y3051499D01*
X93983499Y3164745D01*
X93894529Y3297899D01*
X93833242Y3445858D01*
X93802000Y3602925D01*
X93802000Y3763075D01*
X93833242Y3920142D01*
X93894529Y4068101D01*
X93983499Y4201255D01*
X94096745Y4314501D01*
X94229899Y4403471D01*
X94377858Y4464758D01*
X94534925Y4496000D01*
X94695075Y4496000D01*
X94852142Y4464758D01*
X94852142Y4464758D01*
G37*
G36*
X94852142Y7004758D02*
G01*
X95000101Y6943471D01*
X95133255Y6854501D01*
X95246501Y6741255D01*
X95335471Y6608101D01*
X95396758Y6460142D01*
X95428000Y6303075D01*
X95428000Y6142925D01*
X95396758Y5985858D01*
X95335471Y5837899D01*
X95246501Y5704745D01*
X95133255Y5591499D01*
X95000101Y5502529D01*
X94852142Y5441242D01*
X94695075Y5410000D01*
X94534925Y5410000D01*
X94377858Y5441242D01*
X94229899Y5502529D01*
X94096745Y5591499D01*
X93983499Y5704745D01*
X93894529Y5837899D01*
X93833242Y5985858D01*
X93802000Y6142925D01*
X93802000Y6303075D01*
X93833242Y6460142D01*
X93894529Y6608101D01*
X93983499Y6741255D01*
X94096745Y6854501D01*
X94229899Y6943471D01*
X94377858Y7004758D01*
X94534925Y7036000D01*
X94695075Y7036000D01*
X94852142Y7004758D01*
X94852142Y7004758D01*
G37*
G36*
X140318142Y7512758D02*
G01*
X140466101Y7451471D01*
X140599255Y7362501D01*
X140712501Y7249255D01*
X140801471Y7116101D01*
X140862758Y6968142D01*
X140894000Y6811075D01*
X140894000Y6650925D01*
X140862758Y6493858D01*
X140801471Y6345899D01*
X140712501Y6212745D01*
X140599255Y6099499D01*
X140466101Y6010529D01*
X140318142Y5949242D01*
X140161075Y5918000D01*
X140000925Y5918000D01*
X139843858Y5949242D01*
X139695899Y6010529D01*
X139562745Y6099499D01*
X139449499Y6212745D01*
X139360529Y6345899D01*
X139299242Y6493858D01*
X139268000Y6650925D01*
X139268000Y6811075D01*
X139299242Y6968142D01*
X139360529Y7116101D01*
X139449499Y7249255D01*
X139562745Y7362501D01*
X139695899Y7451471D01*
X139843858Y7512758D01*
X140000925Y7544000D01*
X140161075Y7544000D01*
X140318142Y7512758D01*
X140318142Y7512758D01*
G37*
G36*
X156447142Y7512758D02*
G01*
X156595101Y7451471D01*
X156728255Y7362501D01*
X156841501Y7249255D01*
X156930471Y7116101D01*
X156991758Y6968142D01*
X157023000Y6811075D01*
X157023000Y6650925D01*
X156991758Y6493858D01*
X156930471Y6345899D01*
X156841501Y6212745D01*
X156728255Y6099499D01*
X156595101Y6010529D01*
X156447142Y5949242D01*
X156290075Y5918000D01*
X156129925Y5918000D01*
X155972858Y5949242D01*
X155824899Y6010529D01*
X155691745Y6099499D01*
X155578499Y6212745D01*
X155489529Y6345899D01*
X155428242Y6493858D01*
X155397000Y6650925D01*
X155397000Y6811075D01*
X155428242Y6968142D01*
X155489529Y7116101D01*
X155578499Y7249255D01*
X155691745Y7362501D01*
X155824899Y7451471D01*
X155972858Y7512758D01*
X156129925Y7544000D01*
X156290075Y7544000D01*
X156447142Y7512758D01*
X156447142Y7512758D01*
G37*
G36*
X142858142Y7512758D02*
G01*
X143006101Y7451471D01*
X143139255Y7362501D01*
X143252501Y7249255D01*
X143341471Y7116101D01*
X143402758Y6968142D01*
X143434000Y6811075D01*
X143434000Y6650925D01*
X143402758Y6493858D01*
X143341471Y6345899D01*
X143252501Y6212745D01*
X143139255Y6099499D01*
X143006101Y6010529D01*
X142858142Y5949242D01*
X142701075Y5918000D01*
X142540925Y5918000D01*
X142383858Y5949242D01*
X142235899Y6010529D01*
X142102745Y6099499D01*
X141989499Y6212745D01*
X141900529Y6345899D01*
X141839242Y6493858D01*
X141808000Y6650925D01*
X141808000Y6811075D01*
X141839242Y6968142D01*
X141900529Y7116101D01*
X141989499Y7249255D01*
X142102745Y7362501D01*
X142235899Y7451471D01*
X142383858Y7512758D01*
X142540925Y7544000D01*
X142701075Y7544000D01*
X142858142Y7512758D01*
X142858142Y7512758D01*
G37*
G36*
X151367142Y7512758D02*
G01*
X151515101Y7451471D01*
X151648255Y7362501D01*
X151761501Y7249255D01*
X151850471Y7116101D01*
X151911758Y6968142D01*
X151943000Y6811075D01*
X151943000Y6650925D01*
X151911758Y6493858D01*
X151850471Y6345899D01*
X151761501Y6212745D01*
X151648255Y6099499D01*
X151515101Y6010529D01*
X151367142Y5949242D01*
X151210075Y5918000D01*
X151049925Y5918000D01*
X150892858Y5949242D01*
X150744899Y6010529D01*
X150611745Y6099499D01*
X150498499Y6212745D01*
X150409529Y6345899D01*
X150348242Y6493858D01*
X150317000Y6650925D01*
X150317000Y6811075D01*
X150348242Y6968142D01*
X150409529Y7116101D01*
X150498499Y7249255D01*
X150611745Y7362501D01*
X150744899Y7451471D01*
X150892858Y7512758D01*
X151049925Y7544000D01*
X151210075Y7544000D01*
X151367142Y7512758D01*
X151367142Y7512758D01*
G37*
G36*
X137778142Y7512758D02*
G01*
X137926101Y7451471D01*
X138059255Y7362501D01*
X138172501Y7249255D01*
X138261471Y7116101D01*
X138322758Y6968142D01*
X138354000Y6811075D01*
X138354000Y6650925D01*
X138322758Y6493858D01*
X138261471Y6345899D01*
X138172501Y6212745D01*
X138059255Y6099499D01*
X137926101Y6010529D01*
X137778142Y5949242D01*
X137621075Y5918000D01*
X137460925Y5918000D01*
X137303858Y5949242D01*
X137155899Y6010529D01*
X137022745Y6099499D01*
X136909499Y6212745D01*
X136820529Y6345899D01*
X136759242Y6493858D01*
X136728000Y6650925D01*
X136728000Y6811075D01*
X136759242Y6968142D01*
X136820529Y7116101D01*
X136909499Y7249255D01*
X137022745Y7362501D01*
X137155899Y7451471D01*
X137303858Y7512758D01*
X137460925Y7544000D01*
X137621075Y7544000D01*
X137778142Y7512758D01*
X137778142Y7512758D01*
G37*
G36*
X145398142Y7512758D02*
G01*
X145546101Y7451471D01*
X145679255Y7362501D01*
X145792501Y7249255D01*
X145881471Y7116101D01*
X145942758Y6968142D01*
X145974000Y6811075D01*
X145974000Y6650925D01*
X145942758Y6493858D01*
X145881471Y6345899D01*
X145792501Y6212745D01*
X145679255Y6099499D01*
X145546101Y6010529D01*
X145398142Y5949242D01*
X145241075Y5918000D01*
X145080925Y5918000D01*
X144923858Y5949242D01*
X144775899Y6010529D01*
X144642745Y6099499D01*
X144529499Y6212745D01*
X144440529Y6345899D01*
X144379242Y6493858D01*
X144348000Y6650925D01*
X144348000Y6811075D01*
X144379242Y6968142D01*
X144440529Y7116101D01*
X144529499Y7249255D01*
X144642745Y7362501D01*
X144775899Y7451471D01*
X144923858Y7512758D01*
X145080925Y7544000D01*
X145241075Y7544000D01*
X145398142Y7512758D01*
X145398142Y7512758D01*
G37*
G36*
X153907142Y7512758D02*
G01*
X154055101Y7451471D01*
X154188255Y7362501D01*
X154301501Y7249255D01*
X154390471Y7116101D01*
X154451758Y6968142D01*
X154483000Y6811075D01*
X154483000Y6650925D01*
X154451758Y6493858D01*
X154390471Y6345899D01*
X154301501Y6212745D01*
X154188255Y6099499D01*
X154055101Y6010529D01*
X153907142Y5949242D01*
X153750075Y5918000D01*
X153589925Y5918000D01*
X153432858Y5949242D01*
X153284899Y6010529D01*
X153151745Y6099499D01*
X153038499Y6212745D01*
X152949529Y6345899D01*
X152888242Y6493858D01*
X152857000Y6650925D01*
X152857000Y6811075D01*
X152888242Y6968142D01*
X152949529Y7116101D01*
X153038499Y7249255D01*
X153151745Y7362501D01*
X153284899Y7451471D01*
X153432858Y7512758D01*
X153589925Y7544000D01*
X153750075Y7544000D01*
X153907142Y7512758D01*
X153907142Y7512758D01*
G37*
G36*
X123096942Y8071558D02*
G01*
X123244901Y8010271D01*
X123378055Y7921301D01*
X123491301Y7808055D01*
X123580271Y7674901D01*
X123641558Y7526942D01*
X123672800Y7369875D01*
X123672800Y7209725D01*
X123641558Y7052658D01*
X123580271Y6904699D01*
X123491301Y6771545D01*
X123378055Y6658299D01*
X123244901Y6569329D01*
X123096942Y6508042D01*
X122939875Y6476800D01*
X122779725Y6476800D01*
X122622658Y6508042D01*
X122474699Y6569329D01*
X122341545Y6658299D01*
X122228299Y6771545D01*
X122139329Y6904699D01*
X122078042Y7052658D01*
X122046800Y7209725D01*
X122046800Y7369875D01*
X122078042Y7526942D01*
X122139329Y7674901D01*
X122228299Y7808055D01*
X122341545Y7921301D01*
X122474699Y8010271D01*
X122622658Y8071558D01*
X122779725Y8102800D01*
X122939875Y8102800D01*
X123096942Y8071558D01*
X123096942Y8071558D01*
G37*
G36*
X105316942Y8071558D02*
G01*
X105464901Y8010271D01*
X105598055Y7921301D01*
X105711301Y7808055D01*
X105800271Y7674901D01*
X105861558Y7526942D01*
X105892800Y7369875D01*
X105892800Y7209725D01*
X105861558Y7052658D01*
X105800271Y6904699D01*
X105711301Y6771545D01*
X105598055Y6658299D01*
X105464901Y6569329D01*
X105316942Y6508042D01*
X105159875Y6476800D01*
X104999725Y6476800D01*
X104842658Y6508042D01*
X104694699Y6569329D01*
X104561545Y6658299D01*
X104448299Y6771545D01*
X104359329Y6904699D01*
X104298042Y7052658D01*
X104266800Y7209725D01*
X104266800Y7369875D01*
X104298042Y7526942D01*
X104359329Y7674901D01*
X104448299Y7808055D01*
X104561545Y7921301D01*
X104694699Y8010271D01*
X104842658Y8071558D01*
X104999725Y8102800D01*
X105159875Y8102800D01*
X105316942Y8071558D01*
X105316942Y8071558D01*
G37*
G36*
X107856942Y8071558D02*
G01*
X108004901Y8010271D01*
X108138055Y7921301D01*
X108251301Y7808055D01*
X108340271Y7674901D01*
X108401558Y7526942D01*
X108432800Y7369875D01*
X108432800Y7209725D01*
X108401558Y7052658D01*
X108340271Y6904699D01*
X108251301Y6771545D01*
X108138055Y6658299D01*
X108004901Y6569329D01*
X107856942Y6508042D01*
X107699875Y6476800D01*
X107539725Y6476800D01*
X107382658Y6508042D01*
X107234699Y6569329D01*
X107101545Y6658299D01*
X106988299Y6771545D01*
X106899329Y6904699D01*
X106838042Y7052658D01*
X106806800Y7209725D01*
X106806800Y7369875D01*
X106838042Y7526942D01*
X106899329Y7674901D01*
X106988299Y7808055D01*
X107101545Y7921301D01*
X107234699Y8010271D01*
X107382658Y8071558D01*
X107539725Y8102800D01*
X107699875Y8102800D01*
X107856942Y8071558D01*
X107856942Y8071558D01*
G37*
G36*
X110396942Y8071558D02*
G01*
X110544901Y8010271D01*
X110678055Y7921301D01*
X110791301Y7808055D01*
X110880271Y7674901D01*
X110941558Y7526942D01*
X110972800Y7369875D01*
X110972800Y7209725D01*
X110941558Y7052658D01*
X110880271Y6904699D01*
X110791301Y6771545D01*
X110678055Y6658299D01*
X110544901Y6569329D01*
X110396942Y6508042D01*
X110239875Y6476800D01*
X110079725Y6476800D01*
X109922658Y6508042D01*
X109774699Y6569329D01*
X109641545Y6658299D01*
X109528299Y6771545D01*
X109439329Y6904699D01*
X109378042Y7052658D01*
X109346800Y7209725D01*
X109346800Y7369875D01*
X109378042Y7526942D01*
X109439329Y7674901D01*
X109528299Y7808055D01*
X109641545Y7921301D01*
X109774699Y8010271D01*
X109922658Y8071558D01*
X110079725Y8102800D01*
X110239875Y8102800D01*
X110396942Y8071558D01*
X110396942Y8071558D01*
G37*
G36*
X115476942Y8071558D02*
G01*
X115624901Y8010271D01*
X115758055Y7921301D01*
X115871301Y7808055D01*
X115960271Y7674901D01*
X116021558Y7526942D01*
X116052800Y7369875D01*
X116052800Y7209725D01*
X116021558Y7052658D01*
X115960271Y6904699D01*
X115871301Y6771545D01*
X115758055Y6658299D01*
X115624901Y6569329D01*
X115476942Y6508042D01*
X115319875Y6476800D01*
X115159725Y6476800D01*
X115002658Y6508042D01*
X114854699Y6569329D01*
X114721545Y6658299D01*
X114608299Y6771545D01*
X114519329Y6904699D01*
X114458042Y7052658D01*
X114426800Y7209725D01*
X114426800Y7369875D01*
X114458042Y7526942D01*
X114519329Y7674901D01*
X114608299Y7808055D01*
X114721545Y7921301D01*
X114854699Y8010271D01*
X115002658Y8071558D01*
X115159725Y8102800D01*
X115319875Y8102800D01*
X115476942Y8071558D01*
X115476942Y8071558D01*
G37*
G36*
X118016942Y8071558D02*
G01*
X118164901Y8010271D01*
X118298055Y7921301D01*
X118411301Y7808055D01*
X118500271Y7674901D01*
X118561558Y7526942D01*
X118592800Y7369875D01*
X118592800Y7209725D01*
X118561558Y7052658D01*
X118500271Y6904699D01*
X118411301Y6771545D01*
X118298055Y6658299D01*
X118164901Y6569329D01*
X118016942Y6508042D01*
X117859875Y6476800D01*
X117699725Y6476800D01*
X117542658Y6508042D01*
X117394699Y6569329D01*
X117261545Y6658299D01*
X117148299Y6771545D01*
X117059329Y6904699D01*
X116998042Y7052658D01*
X116966800Y7209725D01*
X116966800Y7369875D01*
X116998042Y7526942D01*
X117059329Y7674901D01*
X117148299Y7808055D01*
X117261545Y7921301D01*
X117394699Y8010271D01*
X117542658Y8071558D01*
X117699725Y8102800D01*
X117859875Y8102800D01*
X118016942Y8071558D01*
X118016942Y8071558D01*
G37*
G36*
X120556942Y8071558D02*
G01*
X120704901Y8010271D01*
X120838055Y7921301D01*
X120951301Y7808055D01*
X121040271Y7674901D01*
X121101558Y7526942D01*
X121132800Y7369875D01*
X121132800Y7209725D01*
X121101558Y7052658D01*
X121040271Y6904699D01*
X120951301Y6771545D01*
X120838055Y6658299D01*
X120704901Y6569329D01*
X120556942Y6508042D01*
X120399875Y6476800D01*
X120239725Y6476800D01*
X120082658Y6508042D01*
X119934699Y6569329D01*
X119801545Y6658299D01*
X119688299Y6771545D01*
X119599329Y6904699D01*
X119538042Y7052658D01*
X119506800Y7209725D01*
X119506800Y7369875D01*
X119538042Y7526942D01*
X119599329Y7674901D01*
X119688299Y7808055D01*
X119801545Y7921301D01*
X119934699Y8010271D01*
X120082658Y8071558D01*
X120239725Y8102800D01*
X120399875Y8102800D01*
X120556942Y8071558D01*
X120556942Y8071558D01*
G37*
G36*
X125636942Y8071558D02*
G01*
X125784901Y8010271D01*
X125918055Y7921301D01*
X126031301Y7808055D01*
X126120271Y7674901D01*
X126181558Y7526942D01*
X126212800Y7369875D01*
X126212800Y7209725D01*
X126181558Y7052658D01*
X126120271Y6904699D01*
X126031301Y6771545D01*
X125918055Y6658299D01*
X125784901Y6569329D01*
X125636942Y6508042D01*
X125479875Y6476800D01*
X125319725Y6476800D01*
X125162658Y6508042D01*
X125014699Y6569329D01*
X124881545Y6658299D01*
X124768299Y6771545D01*
X124679329Y6904699D01*
X124618042Y7052658D01*
X124586800Y7209725D01*
X124586800Y7369875D01*
X124618042Y7526942D01*
X124679329Y7674901D01*
X124768299Y7808055D01*
X124881545Y7921301D01*
X125014699Y8010271D01*
X125162658Y8071558D01*
X125319725Y8102800D01*
X125479875Y8102800D01*
X125636942Y8071558D01*
X125636942Y8071558D01*
G37*
G36*
X112936942Y8071558D02*
G01*
X113084901Y8010271D01*
X113218055Y7921301D01*
X113331301Y7808055D01*
X113420271Y7674901D01*
X113481558Y7526942D01*
X113512800Y7369875D01*
X113512800Y7209725D01*
X113481558Y7052658D01*
X113420271Y6904699D01*
X113331301Y6771545D01*
X113218055Y6658299D01*
X113084901Y6569329D01*
X112936942Y6508042D01*
X112779875Y6476800D01*
X112619725Y6476800D01*
X112462658Y6508042D01*
X112314699Y6569329D01*
X112181545Y6658299D01*
X112068299Y6771545D01*
X111979329Y6904699D01*
X111918042Y7052658D01*
X111886800Y7209725D01*
X111886800Y7369875D01*
X111918042Y7526942D01*
X111979329Y7674901D01*
X112068299Y7808055D01*
X112181545Y7921301D01*
X112314699Y8010271D01*
X112462658Y8071558D01*
X112619725Y8102800D01*
X112779875Y8102800D01*
X112936942Y8071558D01*
X112936942Y8071558D01*
G37*
G36*
X189958908Y16139620D02*
G01*
X190125767Y16106430D01*
X190597299Y15911115D01*
X190840029Y15748927D01*
X191021666Y15627562D01*
X191382562Y15266666D01*
X191448554Y15167901D01*
X191666115Y14842299D01*
X191861430Y14370767D01*
X191882559Y14264545D01*
X191961000Y13870193D01*
X191961000Y13359807D01*
X191938764Y13248021D01*
X191861430Y12859233D01*
X191666115Y12387701D01*
X191506622Y12149004D01*
X191382562Y11963334D01*
X191021666Y11602438D01*
X190840029Y11481073D01*
X190597299Y11318885D01*
X190125767Y11123570D01*
X189958908Y11090380D01*
X189625193Y11024000D01*
X189114807Y11024000D01*
X188781092Y11090380D01*
X188614233Y11123570D01*
X188142701Y11318885D01*
X187899971Y11481073D01*
X187718334Y11602438D01*
X187357438Y11963334D01*
X187233378Y12149004D01*
X187073885Y12387701D01*
X186878570Y12859233D01*
X186801236Y13248021D01*
X186779000Y13359807D01*
X186779000Y13870193D01*
X186857441Y14264545D01*
X186878570Y14370767D01*
X187073885Y14842299D01*
X187291446Y15167901D01*
X187357438Y15266666D01*
X187718334Y15627562D01*
X187899971Y15748927D01*
X188142701Y15911115D01*
X188614233Y16106430D01*
X188781092Y16139620D01*
X189114807Y16206000D01*
X189625193Y16206000D01*
X189958908Y16139620D01*
X189958908Y16139620D01*
G37*
G36*
X197858908Y16139620D02*
G01*
X198025767Y16106430D01*
X198497299Y15911115D01*
X198740029Y15748927D01*
X198921666Y15627562D01*
X199282562Y15266666D01*
X199348554Y15167901D01*
X199566115Y14842299D01*
X199761430Y14370767D01*
X199782559Y14264545D01*
X199861000Y13870193D01*
X199861000Y13359807D01*
X199838764Y13248021D01*
X199761430Y12859233D01*
X199566115Y12387701D01*
X199406622Y12149004D01*
X199282562Y11963334D01*
X198921666Y11602438D01*
X198740029Y11481073D01*
X198497299Y11318885D01*
X198025767Y11123570D01*
X197858908Y11090380D01*
X197525193Y11024000D01*
X197014807Y11024000D01*
X196681092Y11090380D01*
X196514233Y11123570D01*
X196042701Y11318885D01*
X195799971Y11481073D01*
X195618334Y11602438D01*
X195257438Y11963334D01*
X195133378Y12149004D01*
X194973885Y12387701D01*
X194778570Y12859233D01*
X194701236Y13248021D01*
X194679000Y13359807D01*
X194679000Y13870193D01*
X194757441Y14264545D01*
X194778570Y14370767D01*
X194973885Y14842299D01*
X195191446Y15167901D01*
X195257438Y15266666D01*
X195618334Y15627562D01*
X195799971Y15748927D01*
X196042701Y15911115D01*
X196514233Y16106430D01*
X196681092Y16139620D01*
X197014807Y16206000D01*
X197525193Y16206000D01*
X197858908Y16139620D01*
X197858908Y16139620D01*
G37*
G36*
X94852142Y12846758D02*
G01*
X95000101Y12785471D01*
X95133255Y12696501D01*
X95246501Y12583255D01*
X95335471Y12450101D01*
X95396758Y12302142D01*
X95428000Y12145075D01*
X95428000Y11984925D01*
X95396758Y11827858D01*
X95335471Y11679899D01*
X95246501Y11546745D01*
X95133255Y11433499D01*
X95000101Y11344529D01*
X94852142Y11283242D01*
X94695075Y11252000D01*
X94534925Y11252000D01*
X94377858Y11283242D01*
X94229899Y11344529D01*
X94096745Y11433499D01*
X93983499Y11546745D01*
X93894529Y11679899D01*
X93833242Y11827858D01*
X93802000Y11984925D01*
X93802000Y12145075D01*
X93833242Y12302142D01*
X93894529Y12450101D01*
X93983499Y12583255D01*
X94096745Y12696501D01*
X94229899Y12785471D01*
X94377858Y12846758D01*
X94534925Y12878000D01*
X94695075Y12878000D01*
X94852142Y12846758D01*
X94852142Y12846758D01*
G37*
G36*
X175557357Y15464913D02*
G01*
X175704593Y15435626D01*
X175981979Y15320729D01*
X176231621Y15153923D01*
X176443923Y14941621D01*
X176610729Y14691979D01*
X176725626Y14414593D01*
X176734344Y14370766D01*
X176765578Y14213743D01*
X176784200Y14120121D01*
X176784200Y13819879D01*
X176725626Y13525407D01*
X176610729Y13248021D01*
X176575635Y13195500D01*
X176443924Y12998380D01*
X176231620Y12786076D01*
X176148784Y12730727D01*
X175981979Y12619271D01*
X175704593Y12504374D01*
X175557357Y12475087D01*
X175410122Y12445800D01*
X175109878Y12445800D01*
X174962643Y12475087D01*
X174815407Y12504374D01*
X174538021Y12619271D01*
X174371216Y12730727D01*
X174288380Y12786076D01*
X174076076Y12998380D01*
X173944365Y13195500D01*
X173909271Y13248021D01*
X173794374Y13525407D01*
X173735800Y13819879D01*
X173735800Y14120121D01*
X173754423Y14213743D01*
X173785656Y14370766D01*
X173794374Y14414593D01*
X173909271Y14691979D01*
X174076077Y14941621D01*
X174288379Y15153923D01*
X174538021Y15320729D01*
X174815407Y15435626D01*
X174962643Y15464913D01*
X175109878Y15494200D01*
X175410122Y15494200D01*
X175557357Y15464913D01*
X175557357Y15464913D01*
G37*
G36*
X94852142Y15386758D02*
G01*
X95000101Y15325471D01*
X95133255Y15236501D01*
X95246501Y15123255D01*
X95335471Y14990101D01*
X95396758Y14842142D01*
X95428000Y14685075D01*
X95428000Y14524925D01*
X95396758Y14367858D01*
X95335471Y14219899D01*
X95246501Y14086745D01*
X95133255Y13973499D01*
X95000101Y13884529D01*
X94852142Y13823242D01*
X94695075Y13792000D01*
X94534925Y13792000D01*
X94377858Y13823242D01*
X94229899Y13884529D01*
X94096745Y13973499D01*
X93983499Y14086745D01*
X93894529Y14219899D01*
X93833242Y14367858D01*
X93802000Y14524925D01*
X93802000Y14685075D01*
X93833242Y14842142D01*
X93894529Y14990101D01*
X93983499Y15123255D01*
X94096745Y15236501D01*
X94229899Y15325471D01*
X94377858Y15386758D01*
X94534925Y15418000D01*
X94695075Y15418000D01*
X94852142Y15386758D01*
X94852142Y15386758D01*
G37*
G36*
X136889142Y15513758D02*
G01*
X137037101Y15452471D01*
X137170255Y15363501D01*
X137283501Y15250255D01*
X137372471Y15117101D01*
X137433758Y14969142D01*
X137465000Y14812075D01*
X137465000Y14651925D01*
X137433758Y14494858D01*
X137372471Y14346899D01*
X137283501Y14213745D01*
X137170255Y14100499D01*
X137037101Y14011529D01*
X136889142Y13950242D01*
X136732075Y13919000D01*
X136571925Y13919000D01*
X136414858Y13950242D01*
X136266899Y14011529D01*
X136133745Y14100499D01*
X136020499Y14213745D01*
X135931529Y14346899D01*
X135870242Y14494858D01*
X135839000Y14651925D01*
X135839000Y14812075D01*
X135870242Y14969142D01*
X135931529Y15117101D01*
X136020499Y15250255D01*
X136133745Y15363501D01*
X136266899Y15452471D01*
X136414858Y15513758D01*
X136571925Y15545000D01*
X136732075Y15545000D01*
X136889142Y15513758D01*
X136889142Y15513758D01*
G37*
G36*
X161527142Y15513758D02*
G01*
X161675101Y15452471D01*
X161808255Y15363501D01*
X161921501Y15250255D01*
X162010471Y15117101D01*
X162071758Y14969142D01*
X162103000Y14812075D01*
X162103000Y14651925D01*
X162071758Y14494858D01*
X162010471Y14346899D01*
X161921501Y14213745D01*
X161808255Y14100499D01*
X161675101Y14011529D01*
X161527142Y13950242D01*
X161370075Y13919000D01*
X161209925Y13919000D01*
X161052858Y13950242D01*
X160904899Y14011529D01*
X160771745Y14100499D01*
X160658499Y14213745D01*
X160569529Y14346899D01*
X160508242Y14494858D01*
X160477000Y14651925D01*
X160477000Y14812075D01*
X160508242Y14969142D01*
X160569529Y15117101D01*
X160658499Y15250255D01*
X160771745Y15363501D01*
X160904899Y15452471D01*
X161052858Y15513758D01*
X161209925Y15545000D01*
X161370075Y15545000D01*
X161527142Y15513758D01*
X161527142Y15513758D01*
G37*
G36*
X158987142Y15513758D02*
G01*
X159135101Y15452471D01*
X159268255Y15363501D01*
X159381501Y15250255D01*
X159470471Y15117101D01*
X159531758Y14969142D01*
X159563000Y14812075D01*
X159563000Y14651925D01*
X159531758Y14494858D01*
X159470471Y14346899D01*
X159381501Y14213745D01*
X159268255Y14100499D01*
X159135101Y14011529D01*
X158987142Y13950242D01*
X158830075Y13919000D01*
X158669925Y13919000D01*
X158512858Y13950242D01*
X158364899Y14011529D01*
X158231745Y14100499D01*
X158118499Y14213745D01*
X158029529Y14346899D01*
X157968242Y14494858D01*
X157937000Y14651925D01*
X157937000Y14812075D01*
X157968242Y14969142D01*
X158029529Y15117101D01*
X158118499Y15250255D01*
X158231745Y15363501D01*
X158364899Y15452471D01*
X158512858Y15513758D01*
X158669925Y15545000D01*
X158830075Y15545000D01*
X158987142Y15513758D01*
X158987142Y15513758D01*
G37*
G36*
X156447142Y15513758D02*
G01*
X156595101Y15452471D01*
X156728255Y15363501D01*
X156841501Y15250255D01*
X156930471Y15117101D01*
X156991758Y14969142D01*
X157023000Y14812075D01*
X157023000Y14651925D01*
X156991758Y14494858D01*
X156930471Y14346899D01*
X156841501Y14213745D01*
X156728255Y14100499D01*
X156595101Y14011529D01*
X156447142Y13950242D01*
X156290075Y13919000D01*
X156129925Y13919000D01*
X155972858Y13950242D01*
X155824899Y14011529D01*
X155691745Y14100499D01*
X155578499Y14213745D01*
X155489529Y14346899D01*
X155428242Y14494858D01*
X155397000Y14651925D01*
X155397000Y14812075D01*
X155428242Y14969142D01*
X155489529Y15117101D01*
X155578499Y15250255D01*
X155691745Y15363501D01*
X155824899Y15452471D01*
X155972858Y15513758D01*
X156129925Y15545000D01*
X156290075Y15545000D01*
X156447142Y15513758D01*
X156447142Y15513758D01*
G37*
G36*
X131809142Y15513758D02*
G01*
X131957101Y15452471D01*
X132090255Y15363501D01*
X132203501Y15250255D01*
X132292471Y15117101D01*
X132353758Y14969142D01*
X132385000Y14812075D01*
X132385000Y14651925D01*
X132353758Y14494858D01*
X132292471Y14346899D01*
X132203501Y14213745D01*
X132090255Y14100499D01*
X131957101Y14011529D01*
X131809142Y13950242D01*
X131652075Y13919000D01*
X131491925Y13919000D01*
X131334858Y13950242D01*
X131186899Y14011529D01*
X131053745Y14100499D01*
X130940499Y14213745D01*
X130851529Y14346899D01*
X130790242Y14494858D01*
X130759000Y14651925D01*
X130759000Y14812075D01*
X130790242Y14969142D01*
X130851529Y15117101D01*
X130940499Y15250255D01*
X131053745Y15363501D01*
X131186899Y15452471D01*
X131334858Y15513758D01*
X131491925Y15545000D01*
X131652075Y15545000D01*
X131809142Y15513758D01*
X131809142Y15513758D01*
G37*
G36*
X134349142Y15513758D02*
G01*
X134497101Y15452471D01*
X134630255Y15363501D01*
X134743501Y15250255D01*
X134832471Y15117101D01*
X134893758Y14969142D01*
X134925000Y14812075D01*
X134925000Y14651925D01*
X134893758Y14494858D01*
X134832471Y14346899D01*
X134743501Y14213745D01*
X134630255Y14100499D01*
X134497101Y14011529D01*
X134349142Y13950242D01*
X134192075Y13919000D01*
X134031925Y13919000D01*
X133874858Y13950242D01*
X133726899Y14011529D01*
X133593745Y14100499D01*
X133480499Y14213745D01*
X133391529Y14346899D01*
X133330242Y14494858D01*
X133299000Y14651925D01*
X133299000Y14812075D01*
X133330242Y14969142D01*
X133391529Y15117101D01*
X133480499Y15250255D01*
X133593745Y15363501D01*
X133726899Y15452471D01*
X133874858Y15513758D01*
X134031925Y15545000D01*
X134192075Y15545000D01*
X134349142Y15513758D01*
X134349142Y15513758D01*
G37*
G36*
X143112142Y15513758D02*
G01*
X143260101Y15452471D01*
X143393255Y15363501D01*
X143506501Y15250255D01*
X143595471Y15117101D01*
X143656758Y14969142D01*
X143688000Y14812075D01*
X143688000Y14651925D01*
X143656758Y14494858D01*
X143595471Y14346899D01*
X143506501Y14213745D01*
X143393255Y14100499D01*
X143260101Y14011529D01*
X143112142Y13950242D01*
X142955075Y13919000D01*
X142794925Y13919000D01*
X142637858Y13950242D01*
X142489899Y14011529D01*
X142356745Y14100499D01*
X142243499Y14213745D01*
X142154529Y14346899D01*
X142093242Y14494858D01*
X142062000Y14651925D01*
X142062000Y14812075D01*
X142093242Y14969142D01*
X142154529Y15117101D01*
X142243499Y15250255D01*
X142356745Y15363501D01*
X142489899Y15452471D01*
X142637858Y15513758D01*
X142794925Y15545000D01*
X142955075Y15545000D01*
X143112142Y15513758D01*
X143112142Y15513758D01*
G37*
G36*
X145652142Y15513758D02*
G01*
X145800101Y15452471D01*
X145933255Y15363501D01*
X146046501Y15250255D01*
X146135471Y15117101D01*
X146196758Y14969142D01*
X146228000Y14812075D01*
X146228000Y14651925D01*
X146196758Y14494858D01*
X146135471Y14346899D01*
X146046501Y14213745D01*
X145933255Y14100499D01*
X145800101Y14011529D01*
X145652142Y13950242D01*
X145495075Y13919000D01*
X145334925Y13919000D01*
X145177858Y13950242D01*
X145029899Y14011529D01*
X144896745Y14100499D01*
X144783499Y14213745D01*
X144694529Y14346899D01*
X144633242Y14494858D01*
X144602000Y14651925D01*
X144602000Y14812075D01*
X144633242Y14969142D01*
X144694529Y15117101D01*
X144783499Y15250255D01*
X144896745Y15363501D01*
X145029899Y15452471D01*
X145177858Y15513758D01*
X145334925Y15545000D01*
X145495075Y15545000D01*
X145652142Y15513758D01*
X145652142Y15513758D01*
G37*
G36*
X148192142Y15513758D02*
G01*
X148340101Y15452471D01*
X148473255Y15363501D01*
X148586501Y15250255D01*
X148675471Y15117101D01*
X148736758Y14969142D01*
X148768000Y14812075D01*
X148768000Y14651925D01*
X148736758Y14494858D01*
X148675471Y14346899D01*
X148586501Y14213745D01*
X148473255Y14100499D01*
X148340101Y14011529D01*
X148192142Y13950242D01*
X148035075Y13919000D01*
X147874925Y13919000D01*
X147717858Y13950242D01*
X147569899Y14011529D01*
X147436745Y14100499D01*
X147323499Y14213745D01*
X147234529Y14346899D01*
X147173242Y14494858D01*
X147142000Y14651925D01*
X147142000Y14812075D01*
X147173242Y14969142D01*
X147234529Y15117101D01*
X147323499Y15250255D01*
X147436745Y15363501D01*
X147569899Y15452471D01*
X147717858Y15513758D01*
X147874925Y15545000D01*
X148035075Y15545000D01*
X148192142Y15513758D01*
X148192142Y15513758D01*
G37*
G36*
X150732142Y15513758D02*
G01*
X150880101Y15452471D01*
X151013255Y15363501D01*
X151126501Y15250255D01*
X151215471Y15117101D01*
X151276758Y14969142D01*
X151308000Y14812075D01*
X151308000Y14651925D01*
X151276758Y14494858D01*
X151215471Y14346899D01*
X151126501Y14213745D01*
X151013255Y14100499D01*
X150880101Y14011529D01*
X150732142Y13950242D01*
X150575075Y13919000D01*
X150414925Y13919000D01*
X150257858Y13950242D01*
X150109899Y14011529D01*
X149976745Y14100499D01*
X149863499Y14213745D01*
X149774529Y14346899D01*
X149713242Y14494858D01*
X149682000Y14651925D01*
X149682000Y14812075D01*
X149713242Y14969142D01*
X149774529Y15117101D01*
X149863499Y15250255D01*
X149976745Y15363501D01*
X150109899Y15452471D01*
X150257858Y15513758D01*
X150414925Y15545000D01*
X150575075Y15545000D01*
X150732142Y15513758D01*
X150732142Y15513758D01*
G37*
G36*
X164067142Y15513758D02*
G01*
X164215101Y15452471D01*
X164348255Y15363501D01*
X164461501Y15250255D01*
X164550471Y15117101D01*
X164611758Y14969142D01*
X164643000Y14812075D01*
X164643000Y14651925D01*
X164611758Y14494858D01*
X164550471Y14346899D01*
X164461501Y14213745D01*
X164348255Y14100499D01*
X164215101Y14011529D01*
X164067142Y13950242D01*
X163910075Y13919000D01*
X163749925Y13919000D01*
X163592858Y13950242D01*
X163444899Y14011529D01*
X163311745Y14100499D01*
X163198499Y14213745D01*
X163109529Y14346899D01*
X163048242Y14494858D01*
X163017000Y14651925D01*
X163017000Y14812075D01*
X163048242Y14969142D01*
X163109529Y15117101D01*
X163198499Y15250255D01*
X163311745Y15363501D01*
X163444899Y15452471D01*
X163592858Y15513758D01*
X163749925Y15545000D01*
X163910075Y15545000D01*
X164067142Y15513758D01*
X164067142Y15513758D01*
G37*
G36*
X123096942Y15564558D02*
G01*
X123244901Y15503271D01*
X123378055Y15414301D01*
X123491301Y15301055D01*
X123580271Y15167901D01*
X123641558Y15019942D01*
X123672800Y14862875D01*
X123672800Y14702725D01*
X123641558Y14545658D01*
X123580271Y14397699D01*
X123491301Y14264545D01*
X123378055Y14151299D01*
X123244901Y14062329D01*
X123096942Y14001042D01*
X122939875Y13969800D01*
X122779725Y13969800D01*
X122622658Y14001042D01*
X122474699Y14062329D01*
X122341545Y14151299D01*
X122228299Y14264545D01*
X122139329Y14397699D01*
X122078042Y14545658D01*
X122046800Y14702725D01*
X122046800Y14862875D01*
X122078042Y15019942D01*
X122139329Y15167901D01*
X122228299Y15301055D01*
X122341545Y15414301D01*
X122474699Y15503271D01*
X122622658Y15564558D01*
X122779725Y15595800D01*
X122939875Y15595800D01*
X123096942Y15564558D01*
X123096942Y15564558D01*
G37*
G36*
X120556942Y15564558D02*
G01*
X120704901Y15503271D01*
X120838055Y15414301D01*
X120951301Y15301055D01*
X121040271Y15167901D01*
X121101558Y15019942D01*
X121132800Y14862875D01*
X121132800Y14702725D01*
X121101558Y14545658D01*
X121040271Y14397699D01*
X120951301Y14264545D01*
X120838055Y14151299D01*
X120704901Y14062329D01*
X120556942Y14001042D01*
X120399875Y13969800D01*
X120239725Y13969800D01*
X120082658Y14001042D01*
X119934699Y14062329D01*
X119801545Y14151299D01*
X119688299Y14264545D01*
X119599329Y14397699D01*
X119538042Y14545658D01*
X119506800Y14702725D01*
X119506800Y14862875D01*
X119538042Y15019942D01*
X119599329Y15167901D01*
X119688299Y15301055D01*
X119801545Y15414301D01*
X119934699Y15503271D01*
X120082658Y15564558D01*
X120239725Y15595800D01*
X120399875Y15595800D01*
X120556942Y15564558D01*
X120556942Y15564558D01*
G37*
G36*
X118016942Y15564558D02*
G01*
X118164901Y15503271D01*
X118298055Y15414301D01*
X118411301Y15301055D01*
X118500271Y15167901D01*
X118561558Y15019942D01*
X118592800Y14862875D01*
X118592800Y14702725D01*
X118561558Y14545658D01*
X118500271Y14397699D01*
X118411301Y14264545D01*
X118298055Y14151299D01*
X118164901Y14062329D01*
X118016942Y14001042D01*
X117859875Y13969800D01*
X117699725Y13969800D01*
X117542658Y14001042D01*
X117394699Y14062329D01*
X117261545Y14151299D01*
X117148299Y14264545D01*
X117059329Y14397699D01*
X116998042Y14545658D01*
X116966800Y14702725D01*
X116966800Y14862875D01*
X116998042Y15019942D01*
X117059329Y15167901D01*
X117148299Y15301055D01*
X117261545Y15414301D01*
X117394699Y15503271D01*
X117542658Y15564558D01*
X117699725Y15595800D01*
X117859875Y15595800D01*
X118016942Y15564558D01*
X118016942Y15564558D01*
G37*
G36*
X115476942Y15564558D02*
G01*
X115624901Y15503271D01*
X115758055Y15414301D01*
X115871301Y15301055D01*
X115960271Y15167901D01*
X116021558Y15019942D01*
X116052800Y14862875D01*
X116052800Y14702725D01*
X116021558Y14545658D01*
X115960271Y14397699D01*
X115871301Y14264545D01*
X115758055Y14151299D01*
X115624901Y14062329D01*
X115476942Y14001042D01*
X115319875Y13969800D01*
X115159725Y13969800D01*
X115002658Y14001042D01*
X114854699Y14062329D01*
X114721545Y14151299D01*
X114608299Y14264545D01*
X114519329Y14397699D01*
X114458042Y14545658D01*
X114426800Y14702725D01*
X114426800Y14862875D01*
X114458042Y15019942D01*
X114519329Y15167901D01*
X114608299Y15301055D01*
X114721545Y15414301D01*
X114854699Y15503271D01*
X115002658Y15564558D01*
X115159725Y15595800D01*
X115319875Y15595800D01*
X115476942Y15564558D01*
X115476942Y15564558D01*
G37*
G36*
X112936942Y15564558D02*
G01*
X113084901Y15503271D01*
X113218055Y15414301D01*
X113331301Y15301055D01*
X113420271Y15167901D01*
X113481558Y15019942D01*
X113512800Y14862875D01*
X113512800Y14702725D01*
X113481558Y14545658D01*
X113420271Y14397699D01*
X113331301Y14264545D01*
X113218055Y14151299D01*
X113084901Y14062329D01*
X112936942Y14001042D01*
X112779875Y13969800D01*
X112619725Y13969800D01*
X112462658Y14001042D01*
X112314699Y14062329D01*
X112181545Y14151299D01*
X112068299Y14264545D01*
X111979329Y14397699D01*
X111918042Y14545658D01*
X111886800Y14702725D01*
X111886800Y14862875D01*
X111918042Y15019942D01*
X111979329Y15167901D01*
X112068299Y15301055D01*
X112181545Y15414301D01*
X112314699Y15503271D01*
X112462658Y15564558D01*
X112619725Y15595800D01*
X112779875Y15595800D01*
X112936942Y15564558D01*
X112936942Y15564558D01*
G37*
G36*
X110396942Y15564558D02*
G01*
X110544901Y15503271D01*
X110678055Y15414301D01*
X110791301Y15301055D01*
X110880271Y15167901D01*
X110941558Y15019942D01*
X110972800Y14862875D01*
X110972800Y14702725D01*
X110941558Y14545658D01*
X110880271Y14397699D01*
X110791301Y14264545D01*
X110678055Y14151299D01*
X110544901Y14062329D01*
X110396942Y14001042D01*
X110239875Y13969800D01*
X110079725Y13969800D01*
X109922658Y14001042D01*
X109774699Y14062329D01*
X109641545Y14151299D01*
X109528299Y14264545D01*
X109439329Y14397699D01*
X109378042Y14545658D01*
X109346800Y14702725D01*
X109346800Y14862875D01*
X109378042Y15019942D01*
X109439329Y15167901D01*
X109528299Y15301055D01*
X109641545Y15414301D01*
X109774699Y15503271D01*
X109922658Y15564558D01*
X110079725Y15595800D01*
X110239875Y15595800D01*
X110396942Y15564558D01*
X110396942Y15564558D01*
G37*
G36*
X107856942Y15564558D02*
G01*
X108004901Y15503271D01*
X108138055Y15414301D01*
X108251301Y15301055D01*
X108340271Y15167901D01*
X108401558Y15019942D01*
X108432800Y14862875D01*
X108432800Y14702725D01*
X108401558Y14545658D01*
X108340271Y14397699D01*
X108251301Y14264545D01*
X108138055Y14151299D01*
X108004901Y14062329D01*
X107856942Y14001042D01*
X107699875Y13969800D01*
X107539725Y13969800D01*
X107382658Y14001042D01*
X107234699Y14062329D01*
X107101545Y14151299D01*
X106988299Y14264545D01*
X106899329Y14397699D01*
X106838042Y14545658D01*
X106806800Y14702725D01*
X106806800Y14862875D01*
X106838042Y15019942D01*
X106899329Y15167901D01*
X106988299Y15301055D01*
X107101545Y15414301D01*
X107234699Y15503271D01*
X107382658Y15564558D01*
X107539725Y15595800D01*
X107699875Y15595800D01*
X107856942Y15564558D01*
X107856942Y15564558D01*
G37*
G36*
X105316942Y15564558D02*
G01*
X105464901Y15503271D01*
X105598055Y15414301D01*
X105711301Y15301055D01*
X105800271Y15167901D01*
X105861558Y15019942D01*
X105892800Y14862875D01*
X105892800Y14702725D01*
X105861558Y14545658D01*
X105800271Y14397699D01*
X105711301Y14264545D01*
X105598055Y14151299D01*
X105464901Y14062329D01*
X105316942Y14001042D01*
X105159875Y13969800D01*
X104999725Y13969800D01*
X104842658Y14001042D01*
X104694699Y14062329D01*
X104561545Y14151299D01*
X104448299Y14264545D01*
X104359329Y14397699D01*
X104298042Y14545658D01*
X104266800Y14702725D01*
X104266800Y14862875D01*
X104298042Y15019942D01*
X104359329Y15167901D01*
X104448299Y15301055D01*
X104561545Y15414301D01*
X104694699Y15503271D01*
X104842658Y15564558D01*
X104999725Y15595800D01*
X105159875Y15595800D01*
X105316942Y15564558D01*
X105316942Y15564558D01*
G37*
G36*
X125636942Y15564558D02*
G01*
X125784901Y15503271D01*
X125918055Y15414301D01*
X126031301Y15301055D01*
X126120271Y15167901D01*
X126181558Y15019942D01*
X126212800Y14862875D01*
X126212800Y14702725D01*
X126181558Y14545658D01*
X126120271Y14397699D01*
X126031301Y14264545D01*
X125918055Y14151299D01*
X125784901Y14062329D01*
X125636942Y14001042D01*
X125479875Y13969800D01*
X125319725Y13969800D01*
X125162658Y14001042D01*
X125014699Y14062329D01*
X124881545Y14151299D01*
X124768299Y14264545D01*
X124679329Y14397699D01*
X124618042Y14545658D01*
X124586800Y14702725D01*
X124586800Y14862875D01*
X124618042Y15019942D01*
X124679329Y15167901D01*
X124768299Y15301055D01*
X124881545Y15414301D01*
X125014699Y15503271D01*
X125162658Y15564558D01*
X125319725Y15595800D01*
X125479875Y15595800D01*
X125636942Y15564558D01*
X125636942Y15564558D01*
G37*
M02*
