M48
; DRILL file {KiCad (5.1.4)-1} date 2/21/2020 8:18:04 PM
; FORMAT={-:-/ absolute / inch / decimal}
; #@! TF.CreationDate,2020-02-21T20:18:04-06:00
; #@! TF.GenerationSoftware,Kicad,Pcbnew,(5.1.4)-1
; #@! TF.FileFunction,Plated,1,2,PTH
FMAT,2
INCH
T1C0.0157
T2C0.0300
T3C0.0315
T4C0.0350
T5C0.0354
T6C0.0354
T7C0.0800
T8C0.1616
T9C0.1616
T10C0.3600
%
G90
G05
T1
X3.5739Y-2.1189
X3.6Y0.67
X3.62Y-1.59
X3.63Y-1.67
X3.63Y-1.77
X3.6393Y-0.2493
X3.65Y0.0
X3.65Y-0.15
X3.67Y0.72
X3.7Y-0.7
X3.72Y-1.77
X3.75Y-1.5
X3.79Y0.2
X3.8Y0.0
X3.8Y-0.15
X3.8Y-0.6
X3.8Y-0.7
X3.81Y0.53
X3.85Y-1.5
X3.86Y0.38
X3.86Y-1.61
X3.874Y0.724
X3.9Y-0.5
X3.9Y-0.6
X3.9Y-0.7
X3.94Y-0.15
X3.95Y-0.4
X3.9575Y-2.1025
X3.97Y-1.86
X4.0Y-0.3
X4.0Y-0.5
X4.0Y-0.6
X4.0Y-0.7
X4.03Y0.35
X4.04Y0.18
X4.04Y0.05
X4.05Y-0.1
X4.05Y-0.2
X4.05Y-0.4
X4.06Y-1.61
X4.06Y-1.77
X4.08Y-1.94
X4.08Y-2.11
X4.1Y-0.3
X4.1Y-0.5
X4.1Y-0.6
X4.1Y-0.7
X4.14Y0.04
X4.15Y-0.4
X4.17Y0.45
X4.17Y0.21
X4.2Y-0.5
X4.2Y-0.6
X4.2Y-0.7
X4.25Y-1.5
X4.25Y-1.61
X4.25Y-1.78
X4.29Y0.21
X4.29Y-1.94
X4.29Y-2.12
X4.3Y0.45
X4.3Y-0.6
X4.3Y-0.7
X4.39Y0.21
X4.4Y0.45
X4.4Y-0.7
X4.4Y-0.9
X4.4Y-1.0
X4.4Y-1.3
X4.4Y-1.4
X4.4Y-1.5
X4.4Y-1.61
X4.41Y-0.33
X4.41Y-1.78
X4.42Y-0.24
X4.48Y-1.94
X4.49Y0.21
X4.5Y0.45
X4.51Y-0.33
X4.51Y-2.12
X4.52Y-1.37
X4.52Y-1.5
X4.5338Y-1.6038
X4.5338Y-2.0262
X4.56Y-1.2724
X4.5688Y-1.6688
X4.5688Y-2.0012
X4.58Y-0.2
X4.59Y0.21
X4.6Y0.45
X4.6Y-2.08
X4.63Y-0.25
X4.635Y-1.115
X4.635Y-1.245
X4.6664Y-0.2311
X4.68Y-1.14
X4.68Y-1.18
X4.68Y-1.22
X4.685Y-0.295
X4.69Y0.21
X4.7Y0.45
X4.7Y-2.13
X4.7219Y-0.1881
X4.79Y0.21
X4.8Y0.45
X4.89Y0.21
X4.89Y-1.22
X4.89Y-1.83
X4.89Y-1.87
X4.89Y-1.99
X4.9Y0.45
X4.93Y-0.82
X4.93Y-1.18
X4.93Y-1.59
X4.9374Y-0.62
X4.9424Y-0.425
X4.9429Y-1.025
X4.9481Y-0.1
X4.96Y-0.04
X4.96Y-0.14
X4.97Y-1.14
X5.0Y-1.74
X5.01Y-1.93
X5.01Y-2.0
X5.02Y-1.2
X5.02Y-1.47
X5.04Y0.21
X5.04Y0.1
X5.0475Y-0.0225
X5.07Y0.61
X5.09Y-0.06
X5.0935Y-1.125
X5.1Y-1.42
X5.1Y-1.56
X5.1Y-1.93
X5.1Y-2.0
X5.12Y-1.74
X5.17Y0.43
X5.18Y-1.93
X5.18Y-2.0
X5.2Y0.12
X5.2Y-1.56
X5.23Y-0.06
X5.24Y-1.74
X5.3Y0.66
X5.3Y-1.42
X5.3Y-1.56
X5.3Y-1.93
X5.3Y-2.0
X5.31Y-0.745
X5.31Y-0.945
X5.32Y-0.55
X5.33Y0.48
X5.335Y-1.125
X5.35Y-0.27
X5.36Y-0.06
X5.366Y-1.689
X5.375Y-1.115
X5.3811Y-0.2311
X5.39Y-0.14
X5.39Y-0.19
X5.4Y-0.1
X5.42Y-1.56
X5.42Y-1.93
X5.42Y-2.0
X5.425Y-0.35
X5.43Y-1.42
X5.4339Y-1.1211
X5.44Y0.11
X5.4561Y0.4411
X5.46Y0.66
X5.46Y0.58
X5.46Y0.38
X5.465Y-0.975
X5.475Y-1.18
X5.49Y-0.11
X5.5Y0.41
X5.5Y-1.75
X5.5Y-1.93
X5.5Y-2.0
X5.515Y-0.805
X5.52Y-1.26
X5.52Y-1.56
X5.524Y0.724
X5.5275Y-0.6325
X5.55Y-1.06
X5.555Y-0.71
X5.56Y-0.26
X5.56Y-1.32
X5.58Y0.14
X5.59Y-0.99
X5.59Y-1.04
X5.6Y-0.11
X5.6Y-1.7
X5.61Y-0.23
X5.61Y-1.56
X5.61Y-1.93
X5.62Y-1.15
X5.63Y-0.3
X5.63Y-1.285
X5.64Y0.49
X5.66Y0.31
X5.66Y-2.01
X5.67Y0.19
X5.67Y0.11
X5.69Y-1.275
X5.69Y-1.47
X5.69Y-1.645
X5.695Y-1.83
X5.7Y-1.7
X5.7Y-2.08
X5.705Y-1.105
X5.71Y-0.54
X5.7205Y-0.945
X5.73Y-0.8989
X5.7311Y-0.2611
X5.74Y-0.11
X5.75Y-0.58
X5.76Y0.11
X5.7611Y-1.4389
X5.77Y-0.23
X5.77Y-1.8
X5.7775Y-1.0725
X5.78Y-0.7
X5.79Y-2.01
X5.8Y-1.0
X5.8039Y0.4411
X5.84Y0.3
X5.84Y0.2
X5.84Y-0.11
X5.84Y-0.23
X5.8725Y-1.6875
X5.8975Y-0.0225
X5.9Y-0.4
X5.9Y-1.0
X5.9Y-1.42
X5.93Y-1.68
X5.94Y0.0
X5.94Y-0.11
X5.94Y-0.23
X5.96Y0.49
X5.97Y-1.78
X5.975Y-1.375
X5.98Y0.61
X5.99Y0.11
X5.99Y-0.85
X5.99Y-1.04
X5.99Y-1.17
X6.0Y0.19
X6.01Y0.65
X6.02Y-1.9
X6.02Y-1.95
X6.0207Y0.3943
X6.025Y-0.995
X6.025Y-1.105
X6.025Y-1.215
X6.025Y-1.36
X6.025Y-1.515
X6.025Y-1.59
X6.025Y-1.725
X6.035Y-0.3
X6.04Y-0.23
X6.07Y-0.01
X6.07Y-0.12
X6.09Y0.49
X6.1Y-0.5
X6.1Y-1.0
X6.1Y-1.4
X6.11Y0.65
X6.12Y-0.38
X6.16Y-1.69
X6.17Y0.39
X6.185Y-0.675
X6.2Y-0.54
X6.2Y-1.03
X6.204Y0.724
X6.21Y-1.395
X6.25Y-0.64
X6.26Y-1.035
X6.27Y-0.01
X6.27Y-0.13
X6.27Y-1.1
X6.28Y-1.82
X6.3Y0.27
X6.3Y-0.3
X6.3Y-1.4
X6.34Y-1.4785
X6.345Y-1.82
X6.3465Y-1.635
X6.35Y0.21
X6.36Y-1.27
X6.3625Y-1.9975
X6.37Y0.72
X6.38Y0.28
X6.38Y-1.4
X6.38Y-1.68
X6.38Y-1.78
X6.42Y-1.82
X6.46Y-1.82
X6.48Y-0.01
X6.48Y-0.1
X6.49Y-0.15
X6.51Y0.27
X6.53Y-0.08
X6.53Y-0.3
X6.53Y-1.4
X6.55Y-1.8
X6.55Y-1.9
X6.55Y-2.0
X6.57Y0.43
X6.57Y-1.06
X6.58Y-0.38
X6.58Y-0.57
X6.58Y-0.69
X6.58Y-0.89
X6.6Y-1.4
X6.65Y-1.8
X6.65Y-1.9
X6.65Y-2.0
X6.66Y0.7
X6.66Y0.62
X6.66Y0.54
X6.68Y0.43
X6.68Y-0.87
X6.68Y-1.07
X6.69Y-0.46
X6.7Y-0.57
X6.7175Y0.4775
X6.72Y0.27
X6.76Y-1.12
X6.8Y-2.225
X6.83Y-0.19
X6.9Y-1.25
X6.9Y-1.35
X6.9Y-1.45
X6.9Y-1.55
X6.9Y-1.65
X6.9Y-1.8
X6.9Y-1.9
X6.9Y-2.0
X6.9678Y-0.285
X6.975Y-0.245
X6.99Y0.0
X7.0Y0.27
X7.0Y-1.25
X7.0Y-1.35
X7.0Y-1.45
X7.0Y-1.55
X7.0Y-1.65
X7.0Y-1.8
X7.0Y-1.9
X7.0Y-2.0
X7.04Y-0.16
X7.1Y0.0
X7.1Y-0.21
X7.1Y-1.25
X7.1Y-1.35
X7.1Y-1.45
X7.1Y-1.55
X7.1Y-1.65
X7.1Y-1.8
X7.1Y-1.9
X7.1Y-2.0
X7.16Y0.7
X7.16Y0.54
X7.17Y-0.18
X7.2Y-1.8
X7.2Y-1.9
X7.2Y-2.0
X7.2177Y0.325
X7.225Y-1.2
X7.225Y-1.725
X7.23Y0.05
X7.23Y-0.21
X7.24Y-0.87
X7.24Y-0.97
X7.245Y0.375
X7.25Y0.17
X7.265Y-0.69
X7.28Y-1.3
X7.28Y-1.38
X7.28Y-1.46
X7.28Y-1.54
X7.2896Y0.2196
X7.3Y-0.04
X7.32Y0.28
X7.32Y-1.8
X7.32Y-1.9
X7.32Y-2.0
X7.34Y-0.11
X7.34Y-1.34
X7.34Y-1.43
X7.34Y-1.5
X7.37Y-0.87
X7.37Y-0.97
X7.3789Y-0.2789
X7.38Y-0.2
X7.38Y-0.39
X7.38Y-0.45
X7.38Y-0.51
X7.4Y-0.75
X7.4Y-1.12
X7.4Y-1.17
X7.42Y-0.11
X7.42Y-1.8
X7.42Y-1.9
X7.42Y-2.0
X7.44Y-0.32
X7.475Y-0.8
X7.475Y-1.05
X7.48Y-0.39
X7.49Y-0.26
X7.5Y0.28
X7.5Y-0.06
X7.51Y0.21
X7.51Y-1.37
X7.51Y-1.48
X7.51Y-1.8
X7.51Y-1.9
X7.51Y-2.0
X7.53Y-0.2
X7.53Y-0.88
X7.53Y-1.03
X7.56Y-0.26
X7.58Y0.15
X7.58Y-0.39
X7.625Y-0.9
X7.64Y0.26
X7.64Y-0.76
X7.65Y0.09
X7.67Y-0.39
X7.67Y-1.37
X7.67Y-1.48
X7.7Y-0.9
X7.75Y0.225
X7.75Y-2.075
X7.75Y-2.18
X7.76Y0.31
X7.76Y-0.39
X7.76Y-0.76
X7.775Y-0.9
X7.83Y-1.37
X7.83Y-1.48
X7.84Y-1.98
X7.84Y-2.07
X7.925Y0.3
X7.925Y0.2
X7.925Y0.1
X7.95Y0.5
X7.96Y-1.56
X7.97Y-1.98
X7.97Y-2.07
X7.975Y0.45
X8.0Y0.4
X8.0Y0.3
X8.0Y0.2
X8.0Y0.1
X8.0Y0.0
X8.0Y-0.1
X8.0Y-0.2
X8.0Y-0.3
X8.0Y-0.4
X8.0Y-0.5
X8.0Y-0.6
X8.0Y-0.7
X8.0Y-0.8
X8.0Y-0.9
X8.0Y-1.0
X8.05Y-1.15
X8.07Y-1.37
X8.07Y-1.48
X8.1Y0.4
X8.1Y0.3
X8.1Y0.2
X8.1Y0.1
X8.1Y0.0
X8.1Y-0.1
X8.1Y-0.2
X8.1Y-0.3
X8.1Y-0.4
X8.1Y-0.5
X8.1Y-0.6
X8.1Y-0.7
X8.1Y-0.8
X8.1Y-0.9
X8.1Y-1.0
X8.2Y0.4
X8.2Y0.3
X8.2Y0.2
X8.2Y0.1
X8.2Y0.0
X8.2Y-0.1
X8.2Y-0.2
X8.2Y-0.3
X8.2Y-0.4
X8.2Y-0.5
X8.2Y-0.6
X8.2Y-0.7
X8.2Y-0.8
X8.2Y-0.9
X8.2Y-1.0
X8.2Y-1.15
X8.2Y-1.25
X8.2Y-1.35
X8.2Y-1.45
X8.3Y0.4
X8.3Y0.3
X8.3Y0.2
X8.3Y0.1
X8.3Y0.0
X8.3Y-0.1
X8.3Y-0.2
X8.3Y-0.3
X8.3Y-0.4
X8.3Y-0.5
X8.3Y-0.6
X8.3Y-0.7
X8.3Y-0.8
X8.3Y-0.9
X8.3Y-1.0
X8.35Y-1.15
X8.35Y-1.25
X8.35Y-1.35
X8.35Y-1.45
X8.375Y-2.225
X8.4Y0.4
X8.4Y0.3
X8.4Y0.2
X8.4Y0.1
X8.4Y0.0
X8.4Y-0.1
X8.4Y-0.2
X8.4Y-0.3
X8.4Y-0.4
X8.4Y-0.5
X8.4Y-0.6
X8.4Y-0.7
X8.4Y-0.8
X8.4Y-0.9
X8.4Y-1.0
X8.45Y-2.05
X8.5Y0.4
X8.5Y0.3
X8.5Y0.2
X8.5Y0.1
X8.5Y0.0
X8.5Y-0.1
X8.5Y-0.2
X8.5Y-0.3
X8.5Y-0.4
X8.5Y-0.5
X8.5Y-0.6
X8.5Y-0.9
X8.5Y-1.0
X8.5Y-1.15
X8.5Y-1.25
X8.5Y-1.35
X8.5Y-1.45
X8.56Y-2.01
X8.56Y-2.22
X8.6Y0.4
X8.6Y0.3
X8.6Y0.2
X8.6Y0.1
X8.6Y0.0
X8.6Y-0.1
X8.6Y-0.2
X8.6Y-0.3
X8.6Y-0.4
X8.6Y-0.5
X8.6Y-0.6
X8.6Y-1.0
X8.65Y-1.15
X8.65Y-1.25
X8.65Y-1.35
X8.65Y-1.45
X8.7Y0.45
X8.7Y0.4
X8.7Y0.3
X8.7Y0.2
X8.7Y0.1
X8.7Y0.0
X8.7Y-0.1
X8.7Y-0.2
X8.7Y-0.3
X8.7Y-0.4
X8.7Y-0.5
X8.7Y-0.6
X8.7Y-1.0
X8.7Y-2.22
X8.72Y-1.68
X8.72Y-1.77
X8.72Y-1.85
X8.72Y-1.93
X8.72Y-2.0
X8.7748Y-2.1552
X8.8Y-1.15
X8.8Y-1.25
X8.8Y-1.35
X8.8Y-1.45
X8.8245Y-2.0255
X8.825Y0.5
X8.9Y-0.65
X8.9Y-0.95
X8.9Y-1.05
X8.9Y-1.15
X8.9Y-1.25
X8.9Y-1.35
X8.9Y-1.45
X8.95Y0.5
X8.95Y0.4
X8.95Y-1.0
X8.95Y-1.1
X8.95Y-1.2
X8.95Y-1.3
X8.95Y-1.4
X8.95Y-1.5
X8.95Y-1.8
X8.95Y-1.9
X8.95Y-2.0
X8.95Y-2.1
X8.95Y-2.2
X9.0Y-0.95
X9.0Y-1.05
X9.0Y-1.15
X9.0Y-1.25
X9.0Y-1.35
X9.0Y-1.45
X9.05Y0.5
X9.05Y0.4
X9.05Y0.3
X9.05Y0.2
X9.05Y0.1
X9.05Y0.0
X9.05Y-0.1
X9.05Y-0.2
X9.05Y-0.3
X9.05Y-0.4
X9.05Y-0.5
X9.05Y-1.0
X9.05Y-1.1
X9.05Y-1.2
X9.05Y-1.3
X9.05Y-1.4
X9.05Y-1.5
X9.05Y-1.6
X9.05Y-1.7
X9.05Y-1.8
X9.05Y-1.9
X9.05Y-2.0
X9.05Y-2.1
X9.05Y-2.2
X9.1Y-0.95
X9.1Y-1.05
X9.1Y-1.15
X9.1Y-1.25
X9.1Y-1.35
X9.1Y-1.45
X9.1Y-1.55
X9.15Y0.5
X9.15Y0.4
X9.15Y0.3
X9.15Y0.2
X9.15Y0.1
X9.15Y0.0
X9.15Y-0.1
X9.15Y-0.2
X9.15Y-0.3
X9.15Y-0.4
X9.15Y-0.5
X9.15Y-1.0
X9.15Y-1.1
X9.15Y-1.2
X9.15Y-1.3
X9.15Y-1.4
X9.15Y-1.5
X9.15Y-1.6
X9.15Y-1.7
X9.15Y-1.8
X9.15Y-1.9
X9.15Y-2.0
X9.15Y-2.1
X9.15Y-2.2
X9.2Y-0.65
X9.2Y-0.9
X9.2Y-1.45
X9.25Y0.5
X9.25Y-0.1
X9.25Y-0.2
X9.25Y-0.3
X9.25Y-0.4
X9.25Y-0.5
X9.25Y-0.7
X9.25Y-0.85
X9.25Y-1.4
X9.25Y-1.5
X9.25Y-1.6
X9.25Y-1.7
X9.25Y-1.8
X9.25Y-1.9
X9.25Y-2.0
X9.25Y-2.1
X9.25Y-2.2
X9.3Y-0.65
X9.3Y-0.75
X9.3Y-0.8
X9.3Y-1.45
X9.35Y-0.2
X9.35Y-0.3
X9.35Y-0.4
X9.35Y-0.5
X9.35Y-0.7
X9.35Y-1.5
X9.35Y-1.6
X9.35Y-1.7
X9.35Y-1.8
X9.35Y-1.9
X9.35Y-2.0
X9.35Y-2.1
X9.35Y-2.2
X9.4Y-0.65
X9.4Y-0.75
X9.45Y-0.3
X9.45Y-0.4
X9.45Y-0.5
X9.45Y-0.7
X9.45Y-1.5
X9.45Y-1.6
X9.45Y-1.7
X9.45Y-1.8
X9.45Y-1.9
X9.45Y-2.0
X9.45Y-2.1
X9.45Y-2.2
X9.5Y-0.65
X9.55Y-0.3
X9.55Y-0.4
X9.55Y-0.5
X9.55Y-0.7
X9.55Y-1.6
X9.55Y-1.7
X9.55Y-1.8
X9.55Y-1.9
X9.55Y-2.0
X9.55Y-2.1
X9.55Y-2.2
X9.6Y-0.65
X9.65Y-0.3
X9.65Y-0.4
X9.65Y-0.5
X9.65Y-0.7
X9.65Y-1.5
X9.65Y-1.6
X9.65Y-1.7
X9.65Y-1.8
X9.65Y-1.9
X9.65Y-2.0
X9.65Y-2.1
X9.65Y-2.2
X9.7Y-0.65
X9.7Y-0.75
X9.75Y-0.2
X9.75Y-0.3
X9.75Y-0.4
X9.75Y-0.5
X9.75Y-0.7
X9.75Y-1.5
X9.75Y-1.6
X9.75Y-1.7
X9.75Y-1.8
X9.75Y-1.9
X9.75Y-2.0
X9.75Y-2.1
X9.75Y-2.2
X9.8Y-0.65
X9.8Y-0.75
X9.85Y0.5
X9.85Y-0.1
X9.85Y-0.2
X9.85Y-0.3
X9.85Y-0.4
X9.85Y-0.5
X9.85Y-0.7
X9.85Y-0.8
X9.85Y-1.5
X9.85Y-1.6
X9.85Y-1.7
X9.85Y-1.8
X9.85Y-1.9
X9.85Y-2.0
X9.85Y-2.1
X9.85Y-2.2
X9.9Y-0.65
X9.9Y-0.75
X9.9Y-0.85
X9.9Y-0.95
X9.95Y0.5
X9.95Y0.4
X9.95Y0.3
X9.95Y0.2
X9.95Y0.1
X9.95Y0.0
X9.95Y-0.1
X9.95Y-0.2
X9.95Y-0.3
X9.95Y-0.4
X9.95Y-0.5
X9.95Y-0.7
X9.95Y-0.8
X9.95Y-0.9
X9.95Y-1.0
X9.95Y-1.1
X9.95Y-1.2
X9.95Y-1.3
X9.95Y-1.4
X9.95Y-1.5
X9.95Y-1.6
X9.95Y-1.7
X9.95Y-1.8
X9.95Y-2.1
X9.95Y-2.2
X10.0Y-0.65
X10.0Y-0.75
X10.0Y-0.85
X10.0Y-0.95
X10.0Y-1.05
X10.0Y-1.15
X10.05Y0.5
X10.05Y0.4
X10.05Y0.3
X10.05Y0.2
X10.05Y0.1
X10.05Y0.0
X10.05Y-0.1
X10.05Y-0.2
X10.05Y-0.3
X10.05Y-0.4
X10.05Y-0.5
X10.05Y-0.8
X10.05Y-0.9
X10.05Y-1.0
X10.05Y-1.1
X10.05Y-1.2
X10.05Y-1.3
X10.05Y-1.4
X10.05Y-1.5
X10.05Y-1.6
X10.05Y-1.7
X10.05Y-2.2
X10.1Y-0.7
X10.1Y-0.85
X10.1Y-0.95
X10.1Y-1.05
X10.1Y-1.15
X10.15Y-0.8
X10.15Y-0.9
X10.15Y-1.0
X10.15Y-1.1
X10.15Y-1.2
X10.15Y-1.3
X10.15Y-1.4
X10.15Y-1.5
X10.15Y-1.6
X10.15Y-1.7
X10.15Y-1.8
X10.15Y-2.1
X10.15Y-2.2
T2
X4.7Y-0.37
X4.7Y-0.47
X4.7Y-0.57
X4.7Y-0.67
X4.7Y-0.77
X4.7Y-0.87
X4.7Y-0.97
X4.7Y-1.07
X4.7Y-1.27
X4.7Y-1.37
X4.7Y-1.47
X4.7Y-1.57
X4.7Y-1.67
X4.7Y-1.77
X4.7Y-1.87
X4.7Y-1.97
X4.8Y-0.37
X4.8Y-0.47
X4.8Y-0.57
X4.8Y-0.67
X4.8Y-0.77
X4.8Y-0.87
X4.8Y-0.97
X4.8Y-1.07
X4.8Y-1.27
X4.8Y-1.37
X4.8Y-1.47
X4.8Y-1.57
X4.8Y-1.67
X4.8Y-1.77
X4.8Y-1.87
X4.8Y-1.97
X5.6Y-0.37
X5.6Y-0.47
X5.7Y-0.37
X5.7Y-0.47
X6.3Y-0.37
X6.3Y-0.47
X6.4Y-0.37
X6.4Y-0.47
X6.9Y-0.37
X6.9Y-0.47
X6.9Y-0.57
X6.9Y-0.67
X6.9Y-0.77
X6.9Y-0.87
X6.9Y-0.97
X6.9Y-1.07
X7.0Y-0.37
X7.0Y-0.47
X7.0Y-0.57
X7.0Y-0.67
X7.0Y-0.77
X7.0Y-0.87
X7.0Y-0.97
X7.0Y-1.07
T3
X7.935Y-1.245
X8.0334Y-1.245
X7.3766Y-1.245
X7.475Y-1.245
T4
X7.4Y-1.6225
X7.5Y-1.6225
X7.6Y-1.6225
X8.11Y-1.625
X8.21Y-1.625
X8.31Y-1.625
T5
X8.7748Y-1.6213
X8.85Y-1.6213
X8.9252Y-1.6213
T6
X3.725Y0.575
X3.725Y0.475
X3.725Y0.245
X3.725Y0.145
X4.137Y0.287
X4.237Y0.287
X4.337Y0.287
X4.437Y0.287
X4.537Y0.287
X4.637Y0.287
X4.737Y0.287
X4.837Y0.287
X4.937Y0.287
X6.15Y0.58
X6.15Y0.58
X6.25Y0.58
X6.35Y0.58
X6.45Y0.58
X5.95Y0.265
X6.05Y0.265
X6.15Y0.265
X5.625Y0.58
X5.625Y0.58
X5.725Y0.58
X5.825Y0.58
X5.925Y0.58
X5.415Y0.265
X5.415Y0.265
X5.515Y0.265
X5.615Y0.265
X5.715Y0.265
X5.18Y0.58
X5.28Y0.58
X5.38Y0.58
X4.137Y0.582
X4.237Y0.582
X4.337Y0.582
X4.437Y0.582
X4.537Y0.582
X4.637Y0.582
X4.737Y0.582
X4.837Y0.582
X4.937Y0.582
T8
X7.7665Y0.536
T9
X7.4555Y0.536
T10
X9.55Y-1.125
X9.55Y0.1575
X4.025Y-1.125
T7
G00X8.575Y-0.775
M15
G01X8.725Y-0.775
M16
G05
G00X8.975Y-0.775
M15
G01X9.125Y-0.775
M16
G05
T0
M30
