M48
; DRILL file {KiCad (5.1.10)-1} date 12/10/21 12:48:12
; FORMAT={-:-/ absolute / inch / decimal}
; #@! TF.CreationDate,2021-12-10T12:48:12-06:00
; #@! TF.GenerationSoftware,Kicad,Pcbnew,(5.1.10)-1
; #@! TF.FileFunction,Plated,1,2,PTH
FMAT,2
INCH
T1C0.0157
T2C0.0276
T3C0.0295
T4C0.0315
T5C0.0350
T6C0.0354
T7C0.0354
T8C0.0402
T9C0.0630
T10C0.0800
T11C0.1280
T12C0.1616
T13C0.1616
T14C0.3600
%
G90
G05
T1
X1.25Y-1.15
X1.25Y-1.35
X1.25Y-1.55
X1.25Y-1.75
X1.25Y-1.95
X1.25Y-2.15
X1.25Y-2.35
X1.25Y-2.55
X1.25Y-2.75
X1.25Y-2.95
X1.25Y-3.15
X1.25Y-3.35
X1.25Y-3.55
X1.25Y-5.3
X1.25Y-5.5
X1.25Y-6.0
X1.25Y-6.6
X1.25Y-6.75
X1.3Y-1.0
X1.4Y-6.9
X1.5Y-1.0
X1.6Y-6.9
X1.7Y-1.0
X1.8Y-6.9
X1.9Y-1.0
X2.0Y-6.9
X2.0166Y-4.76
X2.1Y-1.0
X2.2Y-6.9
X2.29Y-4.56
X2.3Y-1.0
X2.4Y-6.9
X2.6Y-6.9
X2.68Y-3.07
X2.755Y-5.89
X2.8Y-6.9
X3.25Y-6.9
X3.3Y-1.0
X3.44Y-3.07
X3.45Y-1.0
X3.45Y-6.9
X3.55Y-3.15
X3.6Y-1.0
X3.65Y-6.9
X4.23Y-3.07
X4.34Y-3.13
X4.35Y-6.9
X4.445Y-3.38
X4.55Y-6.9
X4.75Y-6.9
X4.775Y-3.425
X4.925Y-2.95
X4.95Y-1.0
X4.95Y-6.9
X4.99Y-3.07
X5.145Y-5.55
X5.15Y-1.0
X5.2Y-5.04
X5.35Y-1.0
X5.55Y-1.0
X5.7Y-6.9
X5.9Y-1.35
X5.9Y-1.55
X5.9Y-1.75
X5.9Y-1.95
X5.9Y-2.15
X5.9Y-2.35
X5.9Y-2.55
X5.9Y-2.75
X5.9Y-3.2
X5.9Y-3.4
X5.9Y-3.6
X5.9Y-3.8
X5.9Y-4.0
X5.9Y-4.2
X5.9Y-4.4
X5.9Y-4.6
X5.9Y-5.15
X5.9Y-5.35
X5.9Y-5.7
X5.9Y-5.9
X5.9Y-6.1
X5.9Y-6.3
X5.9Y-6.7
X5.9Y-6.9
X6.1Y-1.3
X6.1Y-1.5
X6.1Y-1.7
X6.1Y-1.9
X6.1Y-2.1
X6.1Y-2.3
X6.1Y-2.5
X6.1Y-2.7
X6.1Y-2.9
X6.1Y-3.1
X6.1Y-3.3
X6.1Y-3.5
X6.1Y-3.7
X6.1Y-3.9
X6.1Y-4.1
X6.1Y-4.3
X6.1Y-4.5
X6.1Y-5.3
X6.1Y-5.5
X6.1Y-5.7
X6.1Y-5.9
X6.1Y-6.1
X6.1Y-6.3
X6.1Y-6.7
X6.1Y-6.9
X6.3Y-4.7
X6.3Y-4.9
X6.3Y-6.9
X6.4Y-1.0
X6.5Y-4.7
X6.5Y-4.9
X6.5Y-6.9
X6.6Y-1.0
X6.7Y-4.9
X6.7Y-5.1
X6.7Y-6.9
X6.8Y-1.0
X6.9Y-4.9
X6.9Y-5.1
X6.9Y-6.9
X7.0Y-1.0
X7.1Y-1.1
X7.1Y-1.3
X7.1Y-1.5
X7.1Y-1.7
X7.1Y-1.9
X7.1Y-2.1
X7.1Y-2.3
X7.1Y-2.5
X7.1Y-2.7
X7.1Y-2.9
X7.1Y-3.1
X7.1Y-3.3
X7.1Y-3.5
X7.1Y-3.7
X7.1Y-3.9
X7.1Y-4.1
X7.1Y-4.3
X7.1Y-4.5
X7.1Y-4.7
X7.1Y-4.9
X7.1Y-5.1
X7.1Y-5.3
X7.1Y-5.5
X7.1Y-5.7
X7.1Y-5.9
X7.1Y-6.1
X7.1Y-6.3
X7.1Y-6.5
X7.1Y-6.7
X7.1Y-6.9
T2
X3.0106Y-3.9715
X3.0106Y-4.0502
X3.0106Y-4.1289
X3.0894Y-3.9715
X3.0894Y-4.0502
X3.0894Y-4.1289
T3
X1.9Y-4.1
X1.9Y-4.15
X1.9Y-4.2
X2.75Y-4.3549
X2.85Y-4.3549
X2.95Y-4.3549
X3.05Y-4.3549
X3.15Y-4.3549
X4.52Y-6.51
X4.57Y-6.51
X4.62Y-6.51
T4
X1.7713Y-5.7
X1.85Y-5.7
X2.5Y-3.875
X2.5Y-4.475
X2.6Y-3.875
X2.6Y-3.975
X2.6Y-4.475
X2.7Y-3.875
X2.7Y-4.475
X2.8Y-3.875
X2.8Y-4.475
X2.8213Y-6.0
X2.9Y-3.875
X2.9Y-4.475
X2.9Y-6.0
X2.9425Y-1.9113
X2.9425Y-1.99
X3.0Y-3.875
X3.0Y-4.475
X3.0213Y-1.9113
X3.0213Y-1.99
X3.1Y-1.9113
X3.1Y-1.99
X3.1Y-3.875
X3.1Y-4.475
X3.2Y-3.875
X3.2Y-4.475
X3.3Y-3.875
X3.3Y-4.475
X3.4Y-3.875
X3.4Y-4.475
X3.5Y-3.875
X3.5Y-4.475
X3.6Y-3.875
X3.6Y-4.475
X3.7Y-3.875
X3.7Y-4.475
X3.8Y-3.875
X3.8Y-4.475
X3.9Y-3.875
X3.9Y-4.475
X4.0Y-3.875
X4.0Y-4.475
X4.1Y-3.875
X4.1Y-4.475
X4.2Y-3.875
X4.2Y-4.475
X4.3Y-3.875
X4.3Y-3.975
X4.3Y-4.075
X4.3Y-4.175
X4.3Y-4.275
X4.3Y-4.375
X4.3Y-4.475
X4.4Y-3.875
X4.4Y-4.475
X4.5Y-3.875
X4.5Y-4.475
X4.6Y-3.875
X4.6Y-4.475
X4.7Y-3.875
X4.7Y-4.475
X4.8Y-3.875
X4.8Y-4.475
T5
X1.85Y-6.275
X1.95Y-6.275
X2.05Y-6.275
X2.925Y-6.325
X3.025Y-6.325
X3.125Y-6.325
T6
X5.8237Y-2.9248
X5.8237Y-3.0
X5.8237Y-3.0752
T7
X2.7Y-1.7768
X2.75Y-1.6768
X2.8Y-1.7768
X2.85Y-1.6768
X2.9Y-1.7768
X2.95Y-1.6768
X3.0Y-1.7768
X3.05Y-1.6768
T8
X1.35Y-6.192
X1.35Y-6.31
X1.35Y-6.428
X1.37Y-5.701
X1.37Y-5.819
X1.4Y-3.7732
X1.4Y-3.8913
X1.4Y-4.0094
X1.4Y-4.1276
X1.4Y-4.2457
X1.4Y-4.3638
X1.4Y-4.4819
X1.4Y-4.6
X1.4Y-5.062
X1.4Y-5.18
X1.4Y-5.298
X2.626Y-1.2973
X2.726Y-1.2268
X3.024Y-1.2973
X3.124Y-1.2268
X3.7951Y-1.13
X3.7951Y-1.48
X3.9Y-5.55
X3.9132Y-1.13
X3.9132Y-1.48
X4.018Y-5.55
X4.0313Y-1.13
X4.0313Y-1.48
X4.136Y-5.55
X4.1494Y-1.13
X4.1494Y-1.48
X4.2676Y-1.13
X4.2676Y-1.48
X4.3857Y-1.13
X4.3857Y-1.48
X4.5038Y-1.13
X4.5038Y-1.48
X4.6219Y-1.13
X4.6219Y-1.48
X4.74Y-1.13
X4.74Y-1.48
X5.146Y-6.8
X5.264Y-6.8
X5.382Y-6.8
X5.5Y-6.8
T9
X2.565Y-1.5469
X3.185Y-1.5469
T11
X2.65Y-1.4268
X3.1Y-1.4268
T12
X6.1615Y-1.081
T13
X5.8505Y-1.081
T14
X1.7Y-1.85
X6.6Y-1.85
X6.6Y-6.15
T10
G00X6.67Y-2.875
M15
G01X6.67Y-2.725
M16
G05
G00X6.67Y-3.275
M15
G01X6.67Y-3.125
M16
G05
T0
M30
