G04 #@! TF.GenerationSoftware,KiCad,Pcbnew,(5.0.0)*
G04 #@! TF.CreationDate,2019-03-04T21:39:05-06:00*
G04 #@! TF.ProjectId,BMS_Hardware,424D535F48617264776172652E6B6963,rev?*
G04 #@! TF.SameCoordinates,Original*
G04 #@! TF.FileFunction,Legend,Bot*
G04 #@! TF.FilePolarity,Positive*
%FSLAX46Y46*%
G04 Gerber Fmt 4.6, Leading zero omitted, Abs format (unit mm)*
G04 Created by KiCad (PCBNEW (5.0.0)) date 03/04/19 21:39:05*
%MOMM*%
%LPD*%
G01*
G04 APERTURE LIST*
%ADD10C,0.300000*%
%ADD11C,0.248000*%
%ADD12C,0.200000*%
%ADD13C,0.222250*%
%ADD14C,0.184500*%
%ADD15C,0.150000*%
%ADD16C,0.010000*%
G04 APERTURE END LIST*
D10*
X62674428Y-54209142D02*
X61531571Y-54209142D01*
X62103000Y-54780571D02*
X62103000Y-53637714D01*
X60134428Y-54463142D02*
X58991571Y-54463142D01*
D11*
X61470714Y-63186761D02*
X61943095Y-63186761D01*
X61943095Y-62194761D01*
X61140047Y-62667142D02*
X60809380Y-62667142D01*
X60667666Y-63186761D02*
X61140047Y-63186761D01*
X61140047Y-62194761D01*
X60667666Y-62194761D01*
X60242523Y-63186761D02*
X60242523Y-62194761D01*
X60006333Y-62194761D01*
X59864619Y-62242000D01*
X59770142Y-62336476D01*
X59722904Y-62430952D01*
X59675666Y-62619904D01*
X59675666Y-62761619D01*
X59722904Y-62950571D01*
X59770142Y-63045047D01*
X59864619Y-63139523D01*
X60006333Y-63186761D01*
X60242523Y-63186761D01*
X170557904Y-54426857D02*
X169802095Y-54426857D01*
X109600619Y-54757523D02*
X109458904Y-54804761D01*
X109222714Y-54804761D01*
X109128238Y-54757523D01*
X109081000Y-54710285D01*
X109033761Y-54615809D01*
X109033761Y-54521333D01*
X109081000Y-54426857D01*
X109128238Y-54379619D01*
X109222714Y-54332380D01*
X109411666Y-54285142D01*
X109506142Y-54237904D01*
X109553380Y-54190666D01*
X109600619Y-54096190D01*
X109600619Y-54001714D01*
X109553380Y-53907238D01*
X109506142Y-53860000D01*
X109411666Y-53812761D01*
X109175476Y-53812761D01*
X109033761Y-53860000D01*
X108608619Y-54804761D02*
X108608619Y-53812761D01*
X107616619Y-53860000D02*
X107711095Y-53812761D01*
X107852809Y-53812761D01*
X107994523Y-53860000D01*
X108089000Y-53954476D01*
X108136238Y-54048952D01*
X108183476Y-54237904D01*
X108183476Y-54379619D01*
X108136238Y-54568571D01*
X108089000Y-54663047D01*
X107994523Y-54757523D01*
X107852809Y-54804761D01*
X107758333Y-54804761D01*
X107616619Y-54757523D01*
X107569380Y-54710285D01*
X107569380Y-54379619D01*
X107758333Y-54379619D01*
D12*
X67183000Y-62611000D02*
X67183000Y-59182000D01*
X64643000Y-62611000D02*
X67183000Y-62611000D01*
X64643000Y-59182000D02*
X64643000Y-62611000D01*
X49276000Y-63119000D02*
X49276000Y-59309000D01*
X46736000Y-63119000D02*
X49276000Y-63119000D01*
X46736000Y-59309000D02*
X46736000Y-63119000D01*
X165100000Y-63754000D02*
X165100000Y-59182000D01*
X162560000Y-63754000D02*
X165100000Y-63754000D01*
X162560000Y-59182000D02*
X162560000Y-63754000D01*
D11*
X106295904Y-54172857D02*
X105540095Y-54172857D01*
D13*
X112411933Y-53869166D02*
X111861600Y-53869166D01*
X112157933Y-54207833D01*
X112030933Y-54207833D01*
X111946266Y-54250166D01*
X111903933Y-54292500D01*
X111861600Y-54377166D01*
X111861600Y-54588833D01*
X111903933Y-54673500D01*
X111946266Y-54715833D01*
X112030933Y-54758166D01*
X112284933Y-54758166D01*
X112369600Y-54715833D01*
X112411933Y-54673500D01*
X111565266Y-54165500D02*
X111353600Y-54758166D01*
X111141933Y-54165500D01*
X110887933Y-53869166D02*
X110337600Y-53869166D01*
X110633933Y-54207833D01*
X110506933Y-54207833D01*
X110422266Y-54250166D01*
X110379933Y-54292500D01*
X110337600Y-54377166D01*
X110337600Y-54588833D01*
X110379933Y-54673500D01*
X110422266Y-54715833D01*
X110506933Y-54758166D01*
X110760933Y-54758166D01*
X110845600Y-54715833D01*
X110887933Y-54673500D01*
D11*
X83051809Y-53812761D02*
X82484952Y-53812761D01*
X82768380Y-54804761D02*
X82768380Y-53812761D01*
X82248761Y-53812761D02*
X81587428Y-54804761D01*
X81587428Y-53812761D02*
X82248761Y-54804761D01*
D14*
X80814333Y-53869166D02*
X80264000Y-53869166D01*
X80560333Y-54207833D01*
X80433333Y-54207833D01*
X80348666Y-54250166D01*
X80306333Y-54292500D01*
X80264000Y-54377166D01*
X80264000Y-54588833D01*
X80306333Y-54673500D01*
X80348666Y-54715833D01*
X80433333Y-54758166D01*
X80687333Y-54758166D01*
X80772000Y-54715833D01*
X80814333Y-54673500D01*
X79967666Y-54165500D02*
X79756000Y-54758166D01*
X79544333Y-54165500D01*
X79290333Y-53869166D02*
X78740000Y-53869166D01*
X79036333Y-54207833D01*
X78909333Y-54207833D01*
X78824666Y-54250166D01*
X78782333Y-54292500D01*
X78740000Y-54377166D01*
X78740000Y-54588833D01*
X78782333Y-54673500D01*
X78824666Y-54715833D01*
X78909333Y-54758166D01*
X79163333Y-54758166D01*
X79248000Y-54715833D01*
X79290333Y-54673500D01*
D10*
X77787428Y-54463142D02*
X76644571Y-54463142D01*
D14*
X167780571Y-53951857D02*
X168132000Y-53951857D01*
X168167142Y-54303285D01*
X168132000Y-54268142D01*
X168061714Y-54233000D01*
X167886000Y-54233000D01*
X167815714Y-54268142D01*
X167780571Y-54303285D01*
X167745428Y-54373571D01*
X167745428Y-54549285D01*
X167780571Y-54619571D01*
X167815714Y-54654714D01*
X167886000Y-54689857D01*
X168061714Y-54689857D01*
X168132000Y-54654714D01*
X168167142Y-54619571D01*
X167534571Y-53951857D02*
X167288571Y-54689857D01*
X167042571Y-53951857D01*
X169542571Y-63255571D02*
X169577714Y-63290714D01*
X169683142Y-63325857D01*
X169753428Y-63325857D01*
X169858857Y-63290714D01*
X169929142Y-63220428D01*
X169964285Y-63150142D01*
X169999428Y-63009571D01*
X169999428Y-62904142D01*
X169964285Y-62763571D01*
X169929142Y-62693285D01*
X169858857Y-62623000D01*
X169753428Y-62587857D01*
X169683142Y-62587857D01*
X169577714Y-62623000D01*
X169542571Y-62658142D01*
X169085714Y-62587857D02*
X168945142Y-62587857D01*
X168874857Y-62623000D01*
X168804571Y-62693285D01*
X168769428Y-62833857D01*
X168769428Y-63079857D01*
X168804571Y-63220428D01*
X168874857Y-63290714D01*
X168945142Y-63325857D01*
X169085714Y-63325857D01*
X169156000Y-63290714D01*
X169226285Y-63220428D01*
X169261428Y-63079857D01*
X169261428Y-62833857D01*
X169226285Y-62693285D01*
X169156000Y-62623000D01*
X169085714Y-62587857D01*
X168453142Y-63325857D02*
X168453142Y-62587857D01*
X167750285Y-63325857D02*
X168101714Y-63325857D01*
X168101714Y-62587857D01*
D15*
G04 #@! TO.C,Conn2*
X158750000Y-61849000D02*
X158750000Y-56769000D01*
X133350000Y-61849000D02*
X133350000Y-56769000D01*
X158750000Y-56769000D02*
X133350000Y-56769000D01*
X133350000Y-61849000D02*
X158750000Y-61849000D01*
X158750000Y-55245000D02*
X158750000Y-56769000D01*
X133350000Y-56769000D02*
X133350000Y-55245000D01*
X133350000Y-55245000D02*
X158750000Y-55245000D01*
G04 #@! TO.C,Conn1*
X158750000Y-69596000D02*
X158750000Y-64516000D01*
X133350000Y-69596000D02*
X133350000Y-64516000D01*
X158750000Y-64516000D02*
X133350000Y-64516000D01*
X133350000Y-69596000D02*
X158750000Y-69596000D01*
X158750000Y-62992000D02*
X158750000Y-64516000D01*
X133350000Y-64516000D02*
X133350000Y-62992000D01*
X133350000Y-62992000D02*
X158750000Y-62992000D01*
G04 #@! TO.C,U2*
X44196000Y-69850000D02*
X44196000Y-64770000D01*
X51689000Y-69850000D02*
X51689000Y-64770000D01*
X44196000Y-69850000D02*
X51689000Y-69850000D01*
X51689000Y-64770000D02*
X44196000Y-64770000D01*
X44196000Y-69850000D02*
X44196000Y-71120000D01*
X51689000Y-71120000D02*
X51689000Y-69850000D01*
X44196000Y-71120000D02*
X51689000Y-71120000D01*
G04 #@! TO.C,U4*
X59182000Y-69850000D02*
X59182000Y-64770000D01*
X66675000Y-69850000D02*
X66675000Y-64770000D01*
X59182000Y-69850000D02*
X66675000Y-69850000D01*
X66675000Y-64770000D02*
X59182000Y-64770000D01*
X59182000Y-69850000D02*
X59182000Y-71120000D01*
X66675000Y-71120000D02*
X66675000Y-69850000D01*
X59182000Y-71120000D02*
X66675000Y-71120000D01*
G04 #@! TO.C,U7*
X51816000Y-56769000D02*
X51816000Y-61849000D01*
X44323000Y-56769000D02*
X44323000Y-61849000D01*
X51816000Y-56769000D02*
X44323000Y-56769000D01*
X44323000Y-61849000D02*
X51816000Y-61849000D01*
X51816000Y-56769000D02*
X51816000Y-55499000D01*
X44323000Y-55499000D02*
X44323000Y-56769000D01*
X51816000Y-55499000D02*
X44323000Y-55499000D01*
G04 #@! TO.C,U8*
X44145200Y-79552800D02*
X44145200Y-74472800D01*
X51638200Y-79552800D02*
X51638200Y-74472800D01*
X44145200Y-79552800D02*
X51638200Y-79552800D01*
X51638200Y-74472800D02*
X44145200Y-74472800D01*
X44145200Y-79552800D02*
X44145200Y-80822800D01*
X51638200Y-80822800D02*
X51638200Y-79552800D01*
X44145200Y-80822800D02*
X51638200Y-80822800D01*
G04 #@! TO.C,U12*
X59182000Y-79502000D02*
X59182000Y-74422000D01*
X66675000Y-79502000D02*
X66675000Y-74422000D01*
X59182000Y-79502000D02*
X66675000Y-79502000D01*
X66675000Y-74422000D02*
X59182000Y-74422000D01*
X59182000Y-79502000D02*
X59182000Y-80772000D01*
X66675000Y-80772000D02*
X66675000Y-79502000D01*
X59182000Y-80772000D02*
X66675000Y-80772000D01*
D16*
G04 #@! TO.C,G\002A\002A\002A*
G36*
X111781604Y-53298864D02*
X111650383Y-53317790D01*
X111543544Y-53348851D01*
X111527247Y-53355907D01*
X111461845Y-53386215D01*
X111521987Y-53376041D01*
X111731304Y-53352566D01*
X111927363Y-53354129D01*
X112101256Y-53380634D01*
X112108437Y-53382416D01*
X112311076Y-53449055D01*
X112522241Y-53548912D01*
X112742650Y-53682573D01*
X112973024Y-53850623D01*
X113214084Y-54053649D01*
X113466549Y-54292238D01*
X113731140Y-54566976D01*
X114008578Y-54878449D01*
X114146826Y-55041539D01*
X114274905Y-55196226D01*
X114397266Y-55347069D01*
X114515826Y-55496839D01*
X114632503Y-55648310D01*
X114749214Y-55804251D01*
X114867877Y-55967436D01*
X114990408Y-56140636D01*
X115118727Y-56326623D01*
X115254749Y-56528169D01*
X115400393Y-56748045D01*
X115557576Y-56989024D01*
X115728216Y-57253877D01*
X115914230Y-57545376D01*
X116117535Y-57866293D01*
X116288386Y-58137283D01*
X116677996Y-58765557D01*
X117052730Y-59388398D01*
X117406563Y-59995754D01*
X117495614Y-60152042D01*
X117576091Y-60293246D01*
X117669328Y-60455650D01*
X117767647Y-60625958D01*
X117863373Y-60790873D01*
X117947365Y-60934603D01*
X118031023Y-61078010D01*
X118122791Y-61236825D01*
X118215586Y-61398692D01*
X118302327Y-61551254D01*
X118375930Y-61682155D01*
X118378285Y-61686379D01*
X118441762Y-61800071D01*
X118501981Y-61907568D01*
X118554936Y-62001744D01*
X118596618Y-62075474D01*
X118623024Y-62121635D01*
X118623855Y-62123064D01*
X118674285Y-62209635D01*
X118752112Y-62002780D01*
X118792932Y-61900477D01*
X118843682Y-61782982D01*
X118901816Y-61655292D01*
X118964787Y-61522399D01*
X119030050Y-61389301D01*
X119095059Y-61260990D01*
X119157267Y-61142462D01*
X119214129Y-61038712D01*
X119263098Y-60954735D01*
X119301629Y-60895525D01*
X119327176Y-60866077D01*
X119332726Y-60863723D01*
X119346196Y-60880484D01*
X119375112Y-60926961D01*
X119416137Y-60997447D01*
X119465937Y-61086234D01*
X119511388Y-61169445D01*
X119584777Y-61304818D01*
X119663472Y-61449054D01*
X119745078Y-61597846D01*
X119827197Y-61746886D01*
X119907432Y-61891864D01*
X119983387Y-62028474D01*
X120052666Y-62152407D01*
X120112871Y-62259355D01*
X120161606Y-62345010D01*
X120196474Y-62405064D01*
X120215079Y-62435208D01*
X120216791Y-62437440D01*
X120218181Y-62428640D01*
X120207525Y-62389115D01*
X120186848Y-62325684D01*
X120166168Y-62267038D01*
X120115946Y-62129044D01*
X120060120Y-61976817D01*
X120000286Y-61814607D01*
X119938039Y-61646663D01*
X119874974Y-61477236D01*
X119812688Y-61310576D01*
X119752777Y-61150933D01*
X119696835Y-61002557D01*
X119646459Y-60869698D01*
X119603244Y-60756605D01*
X119568787Y-60667530D01*
X119544681Y-60606722D01*
X119532524Y-60578431D01*
X119531664Y-60577046D01*
X119514755Y-60584886D01*
X119483040Y-60619979D01*
X119442593Y-60675349D01*
X119431322Y-60692319D01*
X119389506Y-60754121D01*
X119355424Y-60800124D01*
X119335175Y-60822212D01*
X119333090Y-60823055D01*
X119320397Y-60805989D01*
X119291861Y-60758500D01*
X119250337Y-60685634D01*
X119198677Y-60592439D01*
X119139734Y-60483959D01*
X119109912Y-60428351D01*
X119039680Y-60297587D01*
X118955595Y-60142214D01*
X118863328Y-59972638D01*
X118768551Y-59799270D01*
X118676936Y-59632517D01*
X118621327Y-59531805D01*
X118540604Y-59385717D01*
X118445781Y-59213700D01*
X118341954Y-59025026D01*
X118234221Y-58828965D01*
X118127677Y-58634789D01*
X118027420Y-58451769D01*
X117992468Y-58387875D01*
X117830025Y-58093146D01*
X117670467Y-57808241D01*
X117515524Y-57536059D01*
X117366924Y-57279499D01*
X117226395Y-57041462D01*
X117095666Y-56824846D01*
X116976465Y-56632552D01*
X116870520Y-56467479D01*
X116779559Y-56332526D01*
X116710855Y-56237803D01*
X116614617Y-56121760D01*
X116528786Y-56038327D01*
X116454784Y-55988297D01*
X116394034Y-55972466D01*
X116347958Y-55991626D01*
X116326547Y-56023230D01*
X116306701Y-56076781D01*
X116303285Y-56108265D01*
X116314580Y-56112469D01*
X116338864Y-56084182D01*
X116343988Y-56076050D01*
X116382673Y-56029063D01*
X116418614Y-56015930D01*
X116419090Y-56016015D01*
X116456766Y-56040064D01*
X116508946Y-56100114D01*
X116574996Y-56195041D01*
X116654282Y-56323721D01*
X116746170Y-56485027D01*
X116850026Y-56677835D01*
X116965217Y-56901021D01*
X117091107Y-57153458D01*
X117227064Y-57434022D01*
X117275584Y-57535862D01*
X117323368Y-57637682D01*
X117381691Y-57763805D01*
X117449085Y-57910931D01*
X117524082Y-58075761D01*
X117605216Y-58254996D01*
X117691019Y-58445336D01*
X117780022Y-58643481D01*
X117870760Y-58846134D01*
X117961764Y-59049993D01*
X118051566Y-59251761D01*
X118138700Y-59448137D01*
X118221697Y-59635822D01*
X118299091Y-59811518D01*
X118369414Y-59971924D01*
X118431198Y-60113741D01*
X118482975Y-60233670D01*
X118523279Y-60328411D01*
X118550642Y-60394666D01*
X118563596Y-60429135D01*
X118564356Y-60433379D01*
X118552082Y-60419034D01*
X118520653Y-60375807D01*
X118473176Y-60308160D01*
X118412761Y-60220557D01*
X118342517Y-60117458D01*
X118287970Y-60036687D01*
X118197040Y-59902400D01*
X118089388Y-59744831D01*
X117967761Y-59567905D01*
X117834907Y-59375550D01*
X117693573Y-59171690D01*
X117546508Y-58960251D01*
X117396460Y-58745159D01*
X117246175Y-58530341D01*
X117098403Y-58319721D01*
X116955891Y-58117225D01*
X116821386Y-57926781D01*
X116697637Y-57752312D01*
X116587391Y-57597746D01*
X116493396Y-57467008D01*
X116418400Y-57364023D01*
X116397243Y-57335388D01*
X116031288Y-56848774D01*
X115682293Y-56397339D01*
X115349500Y-55980294D01*
X115032155Y-55596850D01*
X114729498Y-55246218D01*
X114440775Y-54927610D01*
X114165228Y-54640236D01*
X113902101Y-54383307D01*
X113650637Y-54156034D01*
X113410078Y-53957628D01*
X113179670Y-53787301D01*
X112958654Y-53644262D01*
X112746274Y-53527724D01*
X112744876Y-53527029D01*
X112586565Y-53451475D01*
X112451824Y-53394757D01*
X112330785Y-53353591D01*
X112213578Y-53324693D01*
X112090333Y-53304779D01*
X112069159Y-53302179D01*
X111925199Y-53293264D01*
X111781604Y-53298864D01*
X111781604Y-53298864D01*
G37*
X111781604Y-53298864D02*
X111650383Y-53317790D01*
X111543544Y-53348851D01*
X111527247Y-53355907D01*
X111461845Y-53386215D01*
X111521987Y-53376041D01*
X111731304Y-53352566D01*
X111927363Y-53354129D01*
X112101256Y-53380634D01*
X112108437Y-53382416D01*
X112311076Y-53449055D01*
X112522241Y-53548912D01*
X112742650Y-53682573D01*
X112973024Y-53850623D01*
X113214084Y-54053649D01*
X113466549Y-54292238D01*
X113731140Y-54566976D01*
X114008578Y-54878449D01*
X114146826Y-55041539D01*
X114274905Y-55196226D01*
X114397266Y-55347069D01*
X114515826Y-55496839D01*
X114632503Y-55648310D01*
X114749214Y-55804251D01*
X114867877Y-55967436D01*
X114990408Y-56140636D01*
X115118727Y-56326623D01*
X115254749Y-56528169D01*
X115400393Y-56748045D01*
X115557576Y-56989024D01*
X115728216Y-57253877D01*
X115914230Y-57545376D01*
X116117535Y-57866293D01*
X116288386Y-58137283D01*
X116677996Y-58765557D01*
X117052730Y-59388398D01*
X117406563Y-59995754D01*
X117495614Y-60152042D01*
X117576091Y-60293246D01*
X117669328Y-60455650D01*
X117767647Y-60625958D01*
X117863373Y-60790873D01*
X117947365Y-60934603D01*
X118031023Y-61078010D01*
X118122791Y-61236825D01*
X118215586Y-61398692D01*
X118302327Y-61551254D01*
X118375930Y-61682155D01*
X118378285Y-61686379D01*
X118441762Y-61800071D01*
X118501981Y-61907568D01*
X118554936Y-62001744D01*
X118596618Y-62075474D01*
X118623024Y-62121635D01*
X118623855Y-62123064D01*
X118674285Y-62209635D01*
X118752112Y-62002780D01*
X118792932Y-61900477D01*
X118843682Y-61782982D01*
X118901816Y-61655292D01*
X118964787Y-61522399D01*
X119030050Y-61389301D01*
X119095059Y-61260990D01*
X119157267Y-61142462D01*
X119214129Y-61038712D01*
X119263098Y-60954735D01*
X119301629Y-60895525D01*
X119327176Y-60866077D01*
X119332726Y-60863723D01*
X119346196Y-60880484D01*
X119375112Y-60926961D01*
X119416137Y-60997447D01*
X119465937Y-61086234D01*
X119511388Y-61169445D01*
X119584777Y-61304818D01*
X119663472Y-61449054D01*
X119745078Y-61597846D01*
X119827197Y-61746886D01*
X119907432Y-61891864D01*
X119983387Y-62028474D01*
X120052666Y-62152407D01*
X120112871Y-62259355D01*
X120161606Y-62345010D01*
X120196474Y-62405064D01*
X120215079Y-62435208D01*
X120216791Y-62437440D01*
X120218181Y-62428640D01*
X120207525Y-62389115D01*
X120186848Y-62325684D01*
X120166168Y-62267038D01*
X120115946Y-62129044D01*
X120060120Y-61976817D01*
X120000286Y-61814607D01*
X119938039Y-61646663D01*
X119874974Y-61477236D01*
X119812688Y-61310576D01*
X119752777Y-61150933D01*
X119696835Y-61002557D01*
X119646459Y-60869698D01*
X119603244Y-60756605D01*
X119568787Y-60667530D01*
X119544681Y-60606722D01*
X119532524Y-60578431D01*
X119531664Y-60577046D01*
X119514755Y-60584886D01*
X119483040Y-60619979D01*
X119442593Y-60675349D01*
X119431322Y-60692319D01*
X119389506Y-60754121D01*
X119355424Y-60800124D01*
X119335175Y-60822212D01*
X119333090Y-60823055D01*
X119320397Y-60805989D01*
X119291861Y-60758500D01*
X119250337Y-60685634D01*
X119198677Y-60592439D01*
X119139734Y-60483959D01*
X119109912Y-60428351D01*
X119039680Y-60297587D01*
X118955595Y-60142214D01*
X118863328Y-59972638D01*
X118768551Y-59799270D01*
X118676936Y-59632517D01*
X118621327Y-59531805D01*
X118540604Y-59385717D01*
X118445781Y-59213700D01*
X118341954Y-59025026D01*
X118234221Y-58828965D01*
X118127677Y-58634789D01*
X118027420Y-58451769D01*
X117992468Y-58387875D01*
X117830025Y-58093146D01*
X117670467Y-57808241D01*
X117515524Y-57536059D01*
X117366924Y-57279499D01*
X117226395Y-57041462D01*
X117095666Y-56824846D01*
X116976465Y-56632552D01*
X116870520Y-56467479D01*
X116779559Y-56332526D01*
X116710855Y-56237803D01*
X116614617Y-56121760D01*
X116528786Y-56038327D01*
X116454784Y-55988297D01*
X116394034Y-55972466D01*
X116347958Y-55991626D01*
X116326547Y-56023230D01*
X116306701Y-56076781D01*
X116303285Y-56108265D01*
X116314580Y-56112469D01*
X116338864Y-56084182D01*
X116343988Y-56076050D01*
X116382673Y-56029063D01*
X116418614Y-56015930D01*
X116419090Y-56016015D01*
X116456766Y-56040064D01*
X116508946Y-56100114D01*
X116574996Y-56195041D01*
X116654282Y-56323721D01*
X116746170Y-56485027D01*
X116850026Y-56677835D01*
X116965217Y-56901021D01*
X117091107Y-57153458D01*
X117227064Y-57434022D01*
X117275584Y-57535862D01*
X117323368Y-57637682D01*
X117381691Y-57763805D01*
X117449085Y-57910931D01*
X117524082Y-58075761D01*
X117605216Y-58254996D01*
X117691019Y-58445336D01*
X117780022Y-58643481D01*
X117870760Y-58846134D01*
X117961764Y-59049993D01*
X118051566Y-59251761D01*
X118138700Y-59448137D01*
X118221697Y-59635822D01*
X118299091Y-59811518D01*
X118369414Y-59971924D01*
X118431198Y-60113741D01*
X118482975Y-60233670D01*
X118523279Y-60328411D01*
X118550642Y-60394666D01*
X118563596Y-60429135D01*
X118564356Y-60433379D01*
X118552082Y-60419034D01*
X118520653Y-60375807D01*
X118473176Y-60308160D01*
X118412761Y-60220557D01*
X118342517Y-60117458D01*
X118287970Y-60036687D01*
X118197040Y-59902400D01*
X118089388Y-59744831D01*
X117967761Y-59567905D01*
X117834907Y-59375550D01*
X117693573Y-59171690D01*
X117546508Y-58960251D01*
X117396460Y-58745159D01*
X117246175Y-58530341D01*
X117098403Y-58319721D01*
X116955891Y-58117225D01*
X116821386Y-57926781D01*
X116697637Y-57752312D01*
X116587391Y-57597746D01*
X116493396Y-57467008D01*
X116418400Y-57364023D01*
X116397243Y-57335388D01*
X116031288Y-56848774D01*
X115682293Y-56397339D01*
X115349500Y-55980294D01*
X115032155Y-55596850D01*
X114729498Y-55246218D01*
X114440775Y-54927610D01*
X114165228Y-54640236D01*
X113902101Y-54383307D01*
X113650637Y-54156034D01*
X113410078Y-53957628D01*
X113179670Y-53787301D01*
X112958654Y-53644262D01*
X112746274Y-53527724D01*
X112744876Y-53527029D01*
X112586565Y-53451475D01*
X112451824Y-53394757D01*
X112330785Y-53353591D01*
X112213578Y-53324693D01*
X112090333Y-53304779D01*
X112069159Y-53302179D01*
X111925199Y-53293264D01*
X111781604Y-53298864D01*
G36*
X120232563Y-62477535D02*
X120242587Y-62487559D01*
X120252611Y-62477535D01*
X120242587Y-62467512D01*
X120232563Y-62477535D01*
X120232563Y-62477535D01*
G37*
X120232563Y-62477535D02*
X120242587Y-62487559D01*
X120252611Y-62477535D01*
X120242587Y-62467512D01*
X120232563Y-62477535D01*
G36*
X118351730Y-57768311D02*
X118362228Y-57792474D01*
X118396369Y-57843875D01*
X118415957Y-57871609D01*
X118452599Y-57925696D01*
X118488500Y-57985063D01*
X118525913Y-58054459D01*
X118567092Y-58138630D01*
X118614288Y-58242323D01*
X118669755Y-58370288D01*
X118735745Y-58527270D01*
X118794494Y-58669324D01*
X118844459Y-58791983D01*
X118906083Y-58945288D01*
X118976694Y-59122441D01*
X119053620Y-59316642D01*
X119134190Y-59521092D01*
X119215732Y-59728991D01*
X119295574Y-59933541D01*
X119371045Y-60127941D01*
X119439473Y-60305393D01*
X119498187Y-60459096D01*
X119509869Y-60489934D01*
X119531510Y-60547163D01*
X119643956Y-60393188D01*
X119693673Y-60328814D01*
X119735655Y-60281288D01*
X119764092Y-60256835D01*
X119772181Y-60255769D01*
X119783400Y-60276236D01*
X119810516Y-60329787D01*
X119852040Y-60413377D01*
X119906483Y-60523961D01*
X119972354Y-60658494D01*
X120048165Y-60813931D01*
X120132425Y-60987229D01*
X120223645Y-61175341D01*
X120320336Y-61375223D01*
X120358922Y-61455120D01*
X120581072Y-61915054D01*
X120787214Y-62341269D01*
X120978565Y-62736256D01*
X121156343Y-63102502D01*
X121321764Y-63442495D01*
X121476045Y-63758725D01*
X121620404Y-64053679D01*
X121756057Y-64329847D01*
X121884222Y-64589716D01*
X122006115Y-64835775D01*
X122122955Y-65070513D01*
X122235957Y-65296417D01*
X122300281Y-65424497D01*
X122387460Y-65598865D01*
X122461904Y-65748761D01*
X122526259Y-65877626D01*
X122583174Y-65988904D01*
X122635296Y-66086034D01*
X122685272Y-66172460D01*
X122735750Y-66251624D01*
X122789378Y-66326966D01*
X122848804Y-66401929D01*
X122916674Y-66479954D01*
X122995637Y-66564484D01*
X123088340Y-66658961D01*
X123197430Y-66766825D01*
X123325556Y-66891520D01*
X123475364Y-67036487D01*
X123649503Y-67205167D01*
X123730827Y-67284197D01*
X123877512Y-67427727D01*
X124021021Y-67569650D01*
X124157608Y-67706161D01*
X124283529Y-67833453D01*
X124395039Y-67947720D01*
X124488395Y-68045156D01*
X124559851Y-68121953D01*
X124601445Y-68169203D01*
X124714566Y-68302210D01*
X124851739Y-68459484D01*
X125008950Y-68636656D01*
X125182189Y-68829356D01*
X125367443Y-69033216D01*
X125560700Y-69243864D01*
X125757949Y-69456933D01*
X125955178Y-69668052D01*
X126148375Y-69872853D01*
X126333527Y-70066965D01*
X126506624Y-70246019D01*
X126534948Y-70275040D01*
X126630743Y-70373321D01*
X126716278Y-70461609D01*
X126787853Y-70536043D01*
X126841774Y-70592764D01*
X126874343Y-70627913D01*
X126882520Y-70637933D01*
X126857879Y-70646712D01*
X126802050Y-70662774D01*
X126722850Y-70684126D01*
X126628099Y-70708776D01*
X126525614Y-70734729D01*
X126423213Y-70759994D01*
X126328715Y-70782577D01*
X126249939Y-70800486D01*
X126219504Y-70806939D01*
X126090753Y-70831216D01*
X125997184Y-70844002D01*
X125935638Y-70845531D01*
X125902954Y-70836038D01*
X125898114Y-70830774D01*
X125878961Y-70811877D01*
X125835622Y-70774321D01*
X125775372Y-70724305D01*
X125731540Y-70688814D01*
X125575184Y-70563385D01*
X125891604Y-70861825D01*
X125823607Y-70873994D01*
X125703084Y-70891426D01*
X125558629Y-70905547D01*
X125395715Y-70916397D01*
X125219816Y-70924015D01*
X125036404Y-70928442D01*
X124850955Y-70929718D01*
X124668940Y-70927883D01*
X124495833Y-70922977D01*
X124337108Y-70915040D01*
X124198238Y-70904111D01*
X124084697Y-70890233D01*
X124001958Y-70873443D01*
X123966108Y-70860397D01*
X123943185Y-70836744D01*
X123902612Y-70781775D01*
X123846552Y-70699031D01*
X123777167Y-70592053D01*
X123696618Y-70464385D01*
X123607067Y-70319566D01*
X123510678Y-70161140D01*
X123409610Y-69992647D01*
X123306027Y-69817630D01*
X123202089Y-69639630D01*
X123099960Y-69462189D01*
X123001801Y-69288849D01*
X122948546Y-69193399D01*
X122864038Y-69043609D01*
X122773276Y-68887222D01*
X122681551Y-68733049D01*
X122594155Y-68589899D01*
X122516378Y-68466583D01*
X122466928Y-68391505D01*
X122392943Y-68278536D01*
X122307021Y-68141284D01*
X122215926Y-67990931D01*
X122126422Y-67838662D01*
X122045273Y-67695658D01*
X122037154Y-67680985D01*
X121937525Y-67504971D01*
X121839553Y-67342293D01*
X121736193Y-67182014D01*
X121620395Y-67013200D01*
X121488078Y-66828973D01*
X121204733Y-66433087D01*
X120936981Y-66041954D01*
X120678597Y-65645927D01*
X120423356Y-65235360D01*
X120165034Y-64800605D01*
X120044997Y-64592531D01*
X119972968Y-64468758D01*
X119907422Y-64361920D01*
X119842453Y-64263644D01*
X119772151Y-64165558D01*
X119690609Y-64059291D01*
X119591919Y-63936472D01*
X119521543Y-63850779D01*
X119424415Y-63732962D01*
X119327803Y-63615444D01*
X119237185Y-63504912D01*
X119158040Y-63408053D01*
X119095845Y-63331557D01*
X119069956Y-63299477D01*
X119007651Y-63222724D01*
X118928765Y-63126751D01*
X118842671Y-63022900D01*
X118758740Y-62922513D01*
X118744864Y-62906017D01*
X118676526Y-62823271D01*
X118618540Y-62750015D01*
X118575434Y-62692216D01*
X118551739Y-62655836D01*
X118548586Y-62647563D01*
X118553934Y-62617458D01*
X118567696Y-62562747D01*
X118586448Y-62495212D01*
X118606765Y-62426638D01*
X118625223Y-62368808D01*
X118638398Y-62333506D01*
X118641324Y-62328430D01*
X118658828Y-62336548D01*
X118696444Y-62366339D01*
X118743093Y-62408620D01*
X118789358Y-62450311D01*
X118811016Y-62464125D01*
X118806817Y-62449287D01*
X118805712Y-62447464D01*
X118777684Y-62398729D01*
X118743203Y-62334722D01*
X118729599Y-62308415D01*
X118702241Y-62256991D01*
X118685463Y-62237023D01*
X118672252Y-62243936D01*
X118660743Y-62263494D01*
X118649953Y-62279896D01*
X118636327Y-62285517D01*
X118614710Y-62277135D01*
X118579949Y-62251525D01*
X118526891Y-62205468D01*
X118450383Y-62135740D01*
X118437520Y-62123917D01*
X118210618Y-61917048D01*
X118008476Y-61736630D01*
X117828109Y-61580174D01*
X117666530Y-61445187D01*
X117520752Y-61329180D01*
X117387790Y-61229662D01*
X117264656Y-61144141D01*
X117255531Y-61138088D01*
X117092327Y-61037032D01*
X116952674Y-60965096D01*
X116837265Y-60922526D01*
X116746796Y-60909569D01*
X116681962Y-60926470D01*
X116674158Y-60931850D01*
X116652757Y-60950595D01*
X116656741Y-60959750D01*
X116691917Y-60962882D01*
X116725363Y-60963322D01*
X116814738Y-60976578D01*
X116903416Y-61018997D01*
X116907364Y-61021481D01*
X116977581Y-61071093D01*
X117068524Y-61142831D01*
X117172804Y-61230236D01*
X117283033Y-61326848D01*
X117391822Y-61426207D01*
X117491781Y-61521855D01*
X117566265Y-61597499D01*
X117628125Y-61663438D01*
X117706488Y-61747976D01*
X117797242Y-61846582D01*
X117896272Y-61954724D01*
X117999465Y-62067869D01*
X118102708Y-62181485D01*
X118201888Y-62291042D01*
X118292890Y-62392007D01*
X118371602Y-62479847D01*
X118433909Y-62550032D01*
X118475699Y-62598030D01*
X118489408Y-62614539D01*
X118533593Y-62670712D01*
X118479371Y-62914929D01*
X118434830Y-63127050D01*
X118400197Y-63321181D01*
X118374161Y-63508655D01*
X118355412Y-63700805D01*
X118342640Y-63908966D01*
X118334533Y-64144471D01*
X118333848Y-64173484D01*
X118331336Y-64499395D01*
X118340072Y-64796901D01*
X118361096Y-65076367D01*
X118395447Y-65348161D01*
X118444164Y-65622650D01*
X118507625Y-65907474D01*
X118646396Y-66396144D01*
X118821830Y-66870323D01*
X119032516Y-67328086D01*
X119277041Y-67767505D01*
X119553993Y-68186654D01*
X119861961Y-68583608D01*
X120199533Y-68956441D01*
X120565297Y-69303226D01*
X120957841Y-69622037D01*
X121375753Y-69910948D01*
X121497655Y-69986546D01*
X121913695Y-70217505D01*
X122348901Y-70419539D01*
X122796604Y-70590136D01*
X123250136Y-70726782D01*
X123702828Y-70826967D01*
X123750874Y-70835412D01*
X123856259Y-70856862D01*
X123924256Y-70878986D01*
X123957053Y-70901916D01*
X123975239Y-70927849D01*
X124012703Y-70981866D01*
X124066019Y-71059004D01*
X124131758Y-71154300D01*
X124206495Y-71262793D01*
X124265463Y-71348490D01*
X124485466Y-71660828D01*
X124692427Y-71938615D01*
X124888602Y-72184362D01*
X125076250Y-72400579D01*
X125257627Y-72589775D01*
X125434990Y-72754462D01*
X125610598Y-72897149D01*
X125743128Y-72991652D01*
X125859933Y-73062970D01*
X125994400Y-73133652D01*
X126133773Y-73197796D01*
X126265298Y-73249496D01*
X126368078Y-73280916D01*
X126532481Y-73310105D01*
X126710381Y-73323085D01*
X126884302Y-73319257D01*
X127012443Y-73303014D01*
X127250012Y-73237622D01*
X127477700Y-73133447D01*
X127695199Y-72990639D01*
X127770488Y-72930186D01*
X127828601Y-72884932D01*
X127875905Y-72861442D01*
X127929687Y-72852873D01*
X127967911Y-72852042D01*
X128236570Y-72836296D01*
X128509172Y-72790825D01*
X128574004Y-72773229D01*
X127092452Y-72773229D01*
X127064698Y-72790637D01*
X127038641Y-72798775D01*
X127000617Y-72803149D01*
X126934850Y-72805293D01*
X126853643Y-72804888D01*
X126828144Y-72804223D01*
X126711201Y-72795779D01*
X126614706Y-72776355D01*
X126531868Y-72747381D01*
X126396356Y-72685508D01*
X126275083Y-72614652D01*
X126157236Y-72527388D01*
X126032004Y-72416288D01*
X125987607Y-72373513D01*
X125922088Y-72308244D01*
X125873390Y-72257455D01*
X125845120Y-72225108D01*
X125840886Y-72215167D01*
X125845823Y-72217761D01*
X126053031Y-72346454D01*
X126232069Y-72449080D01*
X126384465Y-72526513D01*
X126391759Y-72529899D01*
X126499343Y-72576011D01*
X126622558Y-72623135D01*
X126750259Y-72667521D01*
X126871299Y-72705423D01*
X126974534Y-72733091D01*
X127028867Y-72744147D01*
X127080435Y-72757321D01*
X127092452Y-72773229D01*
X128574004Y-72773229D01*
X128776484Y-72718275D01*
X129029269Y-72621294D01*
X129258290Y-72502530D01*
X129317976Y-72465027D01*
X129387009Y-72424861D01*
X129454865Y-72393641D01*
X129494442Y-72381148D01*
X129546641Y-72365640D01*
X129620007Y-72337628D01*
X129699949Y-72302747D01*
X129711609Y-72297269D01*
X129871979Y-72199273D01*
X129872239Y-72199029D01*
X127919973Y-72199029D01*
X127913323Y-72214923D01*
X127894584Y-72236413D01*
X127890162Y-72241121D01*
X127865082Y-72265852D01*
X127840157Y-72281143D01*
X127807635Y-72287225D01*
X127759764Y-72284335D01*
X127688790Y-72272704D01*
X127586962Y-72252569D01*
X127577114Y-72250570D01*
X127495191Y-72232303D01*
X127401335Y-72208804D01*
X127302804Y-72182220D01*
X127206853Y-72154695D01*
X127120738Y-72128377D01*
X127051714Y-72105411D01*
X127007037Y-72087943D01*
X126993963Y-72078119D01*
X126993979Y-72078104D01*
X127015662Y-72078021D01*
X127067198Y-72084107D01*
X127139032Y-72095148D01*
X127169629Y-72100386D01*
X127257088Y-72113692D01*
X127369836Y-72127882D01*
X127493152Y-72141233D01*
X127609297Y-72151785D01*
X127732773Y-72161862D01*
X127820934Y-72170148D01*
X127878424Y-72178119D01*
X127909888Y-72187254D01*
X127919973Y-72199029D01*
X129872239Y-72199029D01*
X130011032Y-72068786D01*
X130127427Y-71908081D01*
X130219820Y-71719431D01*
X130286871Y-71505110D01*
X130327237Y-71267391D01*
X130328868Y-71251557D01*
X130342974Y-71165351D01*
X130367748Y-71063130D01*
X130398074Y-70965736D01*
X130401030Y-70957567D01*
X130479500Y-70716047D01*
X130489596Y-70676904D01*
X130098938Y-70676904D01*
X130090193Y-70820296D01*
X130081332Y-70907617D01*
X130063288Y-70979208D01*
X130030292Y-71054113D01*
X130005162Y-71100959D01*
X129834574Y-71376885D01*
X129649360Y-71616578D01*
X129448246Y-71821615D01*
X129364134Y-71893411D01*
X129243850Y-71990855D01*
X129113542Y-71978429D01*
X129045665Y-71970928D01*
X128995584Y-71963465D01*
X128974881Y-71957957D01*
X128970586Y-71952560D01*
X128974413Y-71945442D01*
X128992663Y-71932142D01*
X129031639Y-71908196D01*
X129097643Y-71869143D01*
X129113542Y-71859775D01*
X129332646Y-71712140D01*
X129529385Y-71539505D01*
X129706960Y-71338298D01*
X129868575Y-71104948D01*
X129999292Y-70871828D01*
X130098938Y-70676904D01*
X130489596Y-70676904D01*
X130550816Y-70439568D01*
X130614014Y-70132788D01*
X130668130Y-69800362D01*
X130710358Y-69464039D01*
X130719569Y-69359073D01*
X130727297Y-69231361D01*
X130733500Y-69086984D01*
X130738136Y-68932026D01*
X130741161Y-68772566D01*
X130742533Y-68614688D01*
X130742210Y-68464473D01*
X130740148Y-68328003D01*
X130736306Y-68211361D01*
X130730641Y-68120627D01*
X130723110Y-68061885D01*
X130720255Y-68050700D01*
X130709205Y-68020373D01*
X130703066Y-68018837D01*
X130700111Y-68050142D01*
X130698892Y-68100819D01*
X130692384Y-68260094D01*
X130678356Y-68449238D01*
X130657994Y-68658977D01*
X130632483Y-68880043D01*
X130603010Y-69103162D01*
X130570759Y-69319066D01*
X130536916Y-69518481D01*
X130502666Y-69692139D01*
X130486084Y-69765064D01*
X130455453Y-69887159D01*
X130422988Y-70007577D01*
X130390543Y-70120357D01*
X130359970Y-70219541D01*
X130333126Y-70299168D01*
X130311864Y-70353281D01*
X130298039Y-70375918D01*
X130296000Y-70375985D01*
X130277585Y-70343533D01*
X130268380Y-70279783D01*
X130268371Y-70192458D01*
X130277542Y-70089280D01*
X130295879Y-69977970D01*
X130296770Y-69973617D01*
X130325810Y-69824199D01*
X130349407Y-69681185D01*
X130368120Y-69537769D01*
X130382507Y-69387145D01*
X130393127Y-69222506D01*
X130400538Y-69037046D01*
X130405298Y-68823958D01*
X130407629Y-68622050D01*
X130410753Y-68231631D01*
X130295355Y-68231631D01*
X130293430Y-68309529D01*
X130289453Y-68406522D01*
X130283773Y-68515651D01*
X130276740Y-68629957D01*
X130268702Y-68742478D01*
X130260007Y-68846257D01*
X130254486Y-68902713D01*
X130243350Y-68996811D01*
X130228553Y-69104712D01*
X130211412Y-69218544D01*
X130193244Y-69330437D01*
X130175364Y-69432518D01*
X130159089Y-69516918D01*
X130145735Y-69575764D01*
X130138017Y-69599195D01*
X130127193Y-69591053D01*
X130107338Y-69550899D01*
X130081166Y-69485057D01*
X130051390Y-69399851D01*
X130047727Y-69388698D01*
X130002626Y-69254200D01*
X129962293Y-69141257D01*
X129928255Y-69053709D01*
X129902037Y-68995397D01*
X129885165Y-68970161D01*
X129881439Y-68970122D01*
X129882113Y-68991829D01*
X129890098Y-69044927D01*
X129904072Y-69121654D01*
X129922710Y-69214247D01*
X129924589Y-69223178D01*
X129950186Y-69349571D01*
X129977448Y-69492590D01*
X130002412Y-69631076D01*
X130015254Y-69706968D01*
X130054282Y-69946190D01*
X129993363Y-70121097D01*
X129942388Y-70255221D01*
X129879354Y-70402299D01*
X129809571Y-70551283D01*
X129738346Y-70691126D01*
X129670989Y-70810784D01*
X129633385Y-70870155D01*
X129537787Y-70996766D01*
X129421776Y-71127195D01*
X129297507Y-71248821D01*
X129177136Y-71349023D01*
X129160458Y-71361217D01*
X129099783Y-71401115D01*
X129025066Y-71445073D01*
X128944312Y-71489042D01*
X128865528Y-71528974D01*
X128796720Y-71560820D01*
X128745895Y-71580532D01*
X128721058Y-71584059D01*
X128720571Y-71583670D01*
X128724262Y-71562828D01*
X128741597Y-71515244D01*
X128769050Y-71450408D01*
X128775149Y-71436855D01*
X128834336Y-71300649D01*
X128900917Y-71137610D01*
X128970532Y-70959239D01*
X129038823Y-70777037D01*
X129101432Y-70602505D01*
X129154000Y-70447145D01*
X129173321Y-70386217D01*
X129206730Y-70274545D01*
X129242776Y-70148332D01*
X129279837Y-70013878D01*
X129316292Y-69877486D01*
X129350517Y-69745456D01*
X129380891Y-69624089D01*
X129405791Y-69519686D01*
X129423596Y-69438549D01*
X129432683Y-69386979D01*
X129433508Y-69375552D01*
X129426199Y-69383233D01*
X129405810Y-69424210D01*
X129374064Y-69494518D01*
X129332686Y-69590192D01*
X129283398Y-69707266D01*
X129227925Y-69841774D01*
X129185934Y-69945175D01*
X129097896Y-70161539D01*
X129020491Y-70347299D01*
X128950450Y-70509459D01*
X128884501Y-70655021D01*
X128819376Y-70790990D01*
X128751805Y-70924368D01*
X128678517Y-71062160D01*
X128596244Y-71211368D01*
X128587355Y-71227261D01*
X128507396Y-71369027D01*
X128443617Y-71479185D01*
X128393369Y-71561520D01*
X128354000Y-71619822D01*
X128322858Y-71657877D01*
X128297294Y-71679474D01*
X128274656Y-71688400D01*
X128263973Y-71689295D01*
X128227639Y-71678617D01*
X128167771Y-71649795D01*
X128093699Y-71607651D01*
X128038023Y-71572562D01*
X127956305Y-71516336D01*
X127855102Y-71442841D01*
X127745718Y-71360488D01*
X127639459Y-71277688D01*
X127609823Y-71253972D01*
X127590606Y-71238230D01*
X126427196Y-71238230D01*
X126417173Y-71248253D01*
X126407149Y-71238230D01*
X126417173Y-71228206D01*
X126427196Y-71238230D01*
X127590606Y-71238230D01*
X127569915Y-71221281D01*
X126387102Y-71221281D01*
X126371777Y-71217484D01*
X126325970Y-71188112D01*
X126249929Y-71133341D01*
X126143906Y-71053349D01*
X126090138Y-71011997D01*
X126022625Y-70958369D01*
X125970099Y-70913810D01*
X125938728Y-70883739D01*
X125932866Y-70873865D01*
X125950523Y-70882360D01*
X125992510Y-70910693D01*
X126051911Y-70953578D01*
X126121812Y-71005724D01*
X126195298Y-71061844D01*
X126265455Y-71116649D01*
X126325368Y-71164850D01*
X126368121Y-71201159D01*
X126386801Y-71220287D01*
X126387102Y-71221281D01*
X127569915Y-71221281D01*
X127523536Y-71183290D01*
X127428798Y-71103780D01*
X127330200Y-71019508D01*
X127232333Y-70934538D01*
X127139786Y-70852935D01*
X127057150Y-70778765D01*
X126989015Y-70716091D01*
X126939972Y-70668980D01*
X126914611Y-70641496D01*
X126912318Y-70636299D01*
X126932372Y-70627511D01*
X126982629Y-70607871D01*
X127055617Y-70580242D01*
X127143864Y-70547488D01*
X127148374Y-70545830D01*
X127615300Y-70353680D01*
X128066036Y-70127178D01*
X128497873Y-69868323D01*
X128908105Y-69579116D01*
X129294024Y-69261559D01*
X129652922Y-68917652D01*
X129982093Y-68549395D01*
X130165141Y-68316328D01*
X130215764Y-68249888D01*
X130257515Y-68197630D01*
X130284702Y-68166543D01*
X130291657Y-68160961D01*
X130294881Y-68179788D01*
X130295355Y-68231631D01*
X130410753Y-68231631D01*
X130412844Y-67970511D01*
X130546883Y-67749990D01*
X130791543Y-67309215D01*
X131000430Y-66850701D01*
X131173618Y-66374225D01*
X131311183Y-65879565D01*
X131413199Y-65366496D01*
X131461564Y-65013526D01*
X131470910Y-64901882D01*
X131477841Y-64759377D01*
X131482355Y-64595173D01*
X131484453Y-64418432D01*
X131484136Y-64238315D01*
X131481402Y-64063983D01*
X131476252Y-63904598D01*
X131468686Y-63769321D01*
X131461564Y-63690400D01*
X131382898Y-63163919D01*
X131268157Y-62654922D01*
X131117303Y-62163317D01*
X130930300Y-61689014D01*
X130707110Y-61231921D01*
X130447695Y-60791948D01*
X130152018Y-60369003D01*
X130037741Y-60222208D01*
X129935682Y-60100620D01*
X129811363Y-59961938D01*
X129673216Y-59814869D01*
X129529671Y-59668121D01*
X129389159Y-59530401D01*
X129260112Y-59410416D01*
X129203755Y-59360855D01*
X128800562Y-59040804D01*
X128376631Y-58754764D01*
X127933484Y-58503399D01*
X127472640Y-58287372D01*
X126995622Y-58107344D01*
X126503950Y-57963978D01*
X125999144Y-57857938D01*
X125635326Y-57805872D01*
X125486135Y-57792373D01*
X125308300Y-57782402D01*
X125112228Y-57776040D01*
X124908325Y-57773368D01*
X124706997Y-57774465D01*
X124518651Y-57779412D01*
X124353693Y-57788290D01*
X124272106Y-57795346D01*
X123752938Y-57868041D01*
X123249908Y-57977391D01*
X122762588Y-58123572D01*
X122290551Y-58306761D01*
X121833371Y-58527134D01*
X121390619Y-58784868D01*
X120961868Y-59080139D01*
X120733747Y-59257085D01*
X120646241Y-59331193D01*
X120541867Y-59425109D01*
X120426707Y-59532832D01*
X120306846Y-59648360D01*
X120188367Y-59765692D01*
X120077352Y-59878826D01*
X119979886Y-59981761D01*
X119902052Y-60068496D01*
X119861687Y-60117409D01*
X119819274Y-60170245D01*
X119786660Y-60207657D01*
X119771474Y-60221181D01*
X119760386Y-60204092D01*
X119733559Y-60155333D01*
X119693178Y-60079096D01*
X119641431Y-59979575D01*
X119580503Y-59860965D01*
X119512581Y-59727458D01*
X119466182Y-59635600D01*
X119322317Y-59352942D01*
X119183958Y-59086893D01*
X119052304Y-58839527D01*
X118928554Y-58612919D01*
X118813906Y-58409143D01*
X118709559Y-58230274D01*
X118616713Y-58078387D01*
X118536565Y-57955555D01*
X118470314Y-57863854D01*
X118419160Y-57805359D01*
X118399028Y-57788820D01*
X118364216Y-57768166D01*
X118351730Y-57768311D01*
X118351730Y-57768311D01*
G37*
X118351730Y-57768311D02*
X118362228Y-57792474D01*
X118396369Y-57843875D01*
X118415957Y-57871609D01*
X118452599Y-57925696D01*
X118488500Y-57985063D01*
X118525913Y-58054459D01*
X118567092Y-58138630D01*
X118614288Y-58242323D01*
X118669755Y-58370288D01*
X118735745Y-58527270D01*
X118794494Y-58669324D01*
X118844459Y-58791983D01*
X118906083Y-58945288D01*
X118976694Y-59122441D01*
X119053620Y-59316642D01*
X119134190Y-59521092D01*
X119215732Y-59728991D01*
X119295574Y-59933541D01*
X119371045Y-60127941D01*
X119439473Y-60305393D01*
X119498187Y-60459096D01*
X119509869Y-60489934D01*
X119531510Y-60547163D01*
X119643956Y-60393188D01*
X119693673Y-60328814D01*
X119735655Y-60281288D01*
X119764092Y-60256835D01*
X119772181Y-60255769D01*
X119783400Y-60276236D01*
X119810516Y-60329787D01*
X119852040Y-60413377D01*
X119906483Y-60523961D01*
X119972354Y-60658494D01*
X120048165Y-60813931D01*
X120132425Y-60987229D01*
X120223645Y-61175341D01*
X120320336Y-61375223D01*
X120358922Y-61455120D01*
X120581072Y-61915054D01*
X120787214Y-62341269D01*
X120978565Y-62736256D01*
X121156343Y-63102502D01*
X121321764Y-63442495D01*
X121476045Y-63758725D01*
X121620404Y-64053679D01*
X121756057Y-64329847D01*
X121884222Y-64589716D01*
X122006115Y-64835775D01*
X122122955Y-65070513D01*
X122235957Y-65296417D01*
X122300281Y-65424497D01*
X122387460Y-65598865D01*
X122461904Y-65748761D01*
X122526259Y-65877626D01*
X122583174Y-65988904D01*
X122635296Y-66086034D01*
X122685272Y-66172460D01*
X122735750Y-66251624D01*
X122789378Y-66326966D01*
X122848804Y-66401929D01*
X122916674Y-66479954D01*
X122995637Y-66564484D01*
X123088340Y-66658961D01*
X123197430Y-66766825D01*
X123325556Y-66891520D01*
X123475364Y-67036487D01*
X123649503Y-67205167D01*
X123730827Y-67284197D01*
X123877512Y-67427727D01*
X124021021Y-67569650D01*
X124157608Y-67706161D01*
X124283529Y-67833453D01*
X124395039Y-67947720D01*
X124488395Y-68045156D01*
X124559851Y-68121953D01*
X124601445Y-68169203D01*
X124714566Y-68302210D01*
X124851739Y-68459484D01*
X125008950Y-68636656D01*
X125182189Y-68829356D01*
X125367443Y-69033216D01*
X125560700Y-69243864D01*
X125757949Y-69456933D01*
X125955178Y-69668052D01*
X126148375Y-69872853D01*
X126333527Y-70066965D01*
X126506624Y-70246019D01*
X126534948Y-70275040D01*
X126630743Y-70373321D01*
X126716278Y-70461609D01*
X126787853Y-70536043D01*
X126841774Y-70592764D01*
X126874343Y-70627913D01*
X126882520Y-70637933D01*
X126857879Y-70646712D01*
X126802050Y-70662774D01*
X126722850Y-70684126D01*
X126628099Y-70708776D01*
X126525614Y-70734729D01*
X126423213Y-70759994D01*
X126328715Y-70782577D01*
X126249939Y-70800486D01*
X126219504Y-70806939D01*
X126090753Y-70831216D01*
X125997184Y-70844002D01*
X125935638Y-70845531D01*
X125902954Y-70836038D01*
X125898114Y-70830774D01*
X125878961Y-70811877D01*
X125835622Y-70774321D01*
X125775372Y-70724305D01*
X125731540Y-70688814D01*
X125575184Y-70563385D01*
X125891604Y-70861825D01*
X125823607Y-70873994D01*
X125703084Y-70891426D01*
X125558629Y-70905547D01*
X125395715Y-70916397D01*
X125219816Y-70924015D01*
X125036404Y-70928442D01*
X124850955Y-70929718D01*
X124668940Y-70927883D01*
X124495833Y-70922977D01*
X124337108Y-70915040D01*
X124198238Y-70904111D01*
X124084697Y-70890233D01*
X124001958Y-70873443D01*
X123966108Y-70860397D01*
X123943185Y-70836744D01*
X123902612Y-70781775D01*
X123846552Y-70699031D01*
X123777167Y-70592053D01*
X123696618Y-70464385D01*
X123607067Y-70319566D01*
X123510678Y-70161140D01*
X123409610Y-69992647D01*
X123306027Y-69817630D01*
X123202089Y-69639630D01*
X123099960Y-69462189D01*
X123001801Y-69288849D01*
X122948546Y-69193399D01*
X122864038Y-69043609D01*
X122773276Y-68887222D01*
X122681551Y-68733049D01*
X122594155Y-68589899D01*
X122516378Y-68466583D01*
X122466928Y-68391505D01*
X122392943Y-68278536D01*
X122307021Y-68141284D01*
X122215926Y-67990931D01*
X122126422Y-67838662D01*
X122045273Y-67695658D01*
X122037154Y-67680985D01*
X121937525Y-67504971D01*
X121839553Y-67342293D01*
X121736193Y-67182014D01*
X121620395Y-67013200D01*
X121488078Y-66828973D01*
X121204733Y-66433087D01*
X120936981Y-66041954D01*
X120678597Y-65645927D01*
X120423356Y-65235360D01*
X120165034Y-64800605D01*
X120044997Y-64592531D01*
X119972968Y-64468758D01*
X119907422Y-64361920D01*
X119842453Y-64263644D01*
X119772151Y-64165558D01*
X119690609Y-64059291D01*
X119591919Y-63936472D01*
X119521543Y-63850779D01*
X119424415Y-63732962D01*
X119327803Y-63615444D01*
X119237185Y-63504912D01*
X119158040Y-63408053D01*
X119095845Y-63331557D01*
X119069956Y-63299477D01*
X119007651Y-63222724D01*
X118928765Y-63126751D01*
X118842671Y-63022900D01*
X118758740Y-62922513D01*
X118744864Y-62906017D01*
X118676526Y-62823271D01*
X118618540Y-62750015D01*
X118575434Y-62692216D01*
X118551739Y-62655836D01*
X118548586Y-62647563D01*
X118553934Y-62617458D01*
X118567696Y-62562747D01*
X118586448Y-62495212D01*
X118606765Y-62426638D01*
X118625223Y-62368808D01*
X118638398Y-62333506D01*
X118641324Y-62328430D01*
X118658828Y-62336548D01*
X118696444Y-62366339D01*
X118743093Y-62408620D01*
X118789358Y-62450311D01*
X118811016Y-62464125D01*
X118806817Y-62449287D01*
X118805712Y-62447464D01*
X118777684Y-62398729D01*
X118743203Y-62334722D01*
X118729599Y-62308415D01*
X118702241Y-62256991D01*
X118685463Y-62237023D01*
X118672252Y-62243936D01*
X118660743Y-62263494D01*
X118649953Y-62279896D01*
X118636327Y-62285517D01*
X118614710Y-62277135D01*
X118579949Y-62251525D01*
X118526891Y-62205468D01*
X118450383Y-62135740D01*
X118437520Y-62123917D01*
X118210618Y-61917048D01*
X118008476Y-61736630D01*
X117828109Y-61580174D01*
X117666530Y-61445187D01*
X117520752Y-61329180D01*
X117387790Y-61229662D01*
X117264656Y-61144141D01*
X117255531Y-61138088D01*
X117092327Y-61037032D01*
X116952674Y-60965096D01*
X116837265Y-60922526D01*
X116746796Y-60909569D01*
X116681962Y-60926470D01*
X116674158Y-60931850D01*
X116652757Y-60950595D01*
X116656741Y-60959750D01*
X116691917Y-60962882D01*
X116725363Y-60963322D01*
X116814738Y-60976578D01*
X116903416Y-61018997D01*
X116907364Y-61021481D01*
X116977581Y-61071093D01*
X117068524Y-61142831D01*
X117172804Y-61230236D01*
X117283033Y-61326848D01*
X117391822Y-61426207D01*
X117491781Y-61521855D01*
X117566265Y-61597499D01*
X117628125Y-61663438D01*
X117706488Y-61747976D01*
X117797242Y-61846582D01*
X117896272Y-61954724D01*
X117999465Y-62067869D01*
X118102708Y-62181485D01*
X118201888Y-62291042D01*
X118292890Y-62392007D01*
X118371602Y-62479847D01*
X118433909Y-62550032D01*
X118475699Y-62598030D01*
X118489408Y-62614539D01*
X118533593Y-62670712D01*
X118479371Y-62914929D01*
X118434830Y-63127050D01*
X118400197Y-63321181D01*
X118374161Y-63508655D01*
X118355412Y-63700805D01*
X118342640Y-63908966D01*
X118334533Y-64144471D01*
X118333848Y-64173484D01*
X118331336Y-64499395D01*
X118340072Y-64796901D01*
X118361096Y-65076367D01*
X118395447Y-65348161D01*
X118444164Y-65622650D01*
X118507625Y-65907474D01*
X118646396Y-66396144D01*
X118821830Y-66870323D01*
X119032516Y-67328086D01*
X119277041Y-67767505D01*
X119553993Y-68186654D01*
X119861961Y-68583608D01*
X120199533Y-68956441D01*
X120565297Y-69303226D01*
X120957841Y-69622037D01*
X121375753Y-69910948D01*
X121497655Y-69986546D01*
X121913695Y-70217505D01*
X122348901Y-70419539D01*
X122796604Y-70590136D01*
X123250136Y-70726782D01*
X123702828Y-70826967D01*
X123750874Y-70835412D01*
X123856259Y-70856862D01*
X123924256Y-70878986D01*
X123957053Y-70901916D01*
X123975239Y-70927849D01*
X124012703Y-70981866D01*
X124066019Y-71059004D01*
X124131758Y-71154300D01*
X124206495Y-71262793D01*
X124265463Y-71348490D01*
X124485466Y-71660828D01*
X124692427Y-71938615D01*
X124888602Y-72184362D01*
X125076250Y-72400579D01*
X125257627Y-72589775D01*
X125434990Y-72754462D01*
X125610598Y-72897149D01*
X125743128Y-72991652D01*
X125859933Y-73062970D01*
X125994400Y-73133652D01*
X126133773Y-73197796D01*
X126265298Y-73249496D01*
X126368078Y-73280916D01*
X126532481Y-73310105D01*
X126710381Y-73323085D01*
X126884302Y-73319257D01*
X127012443Y-73303014D01*
X127250012Y-73237622D01*
X127477700Y-73133447D01*
X127695199Y-72990639D01*
X127770488Y-72930186D01*
X127828601Y-72884932D01*
X127875905Y-72861442D01*
X127929687Y-72852873D01*
X127967911Y-72852042D01*
X128236570Y-72836296D01*
X128509172Y-72790825D01*
X128574004Y-72773229D01*
X127092452Y-72773229D01*
X127064698Y-72790637D01*
X127038641Y-72798775D01*
X127000617Y-72803149D01*
X126934850Y-72805293D01*
X126853643Y-72804888D01*
X126828144Y-72804223D01*
X126711201Y-72795779D01*
X126614706Y-72776355D01*
X126531868Y-72747381D01*
X126396356Y-72685508D01*
X126275083Y-72614652D01*
X126157236Y-72527388D01*
X126032004Y-72416288D01*
X125987607Y-72373513D01*
X125922088Y-72308244D01*
X125873390Y-72257455D01*
X125845120Y-72225108D01*
X125840886Y-72215167D01*
X125845823Y-72217761D01*
X126053031Y-72346454D01*
X126232069Y-72449080D01*
X126384465Y-72526513D01*
X126391759Y-72529899D01*
X126499343Y-72576011D01*
X126622558Y-72623135D01*
X126750259Y-72667521D01*
X126871299Y-72705423D01*
X126974534Y-72733091D01*
X127028867Y-72744147D01*
X127080435Y-72757321D01*
X127092452Y-72773229D01*
X128574004Y-72773229D01*
X128776484Y-72718275D01*
X129029269Y-72621294D01*
X129258290Y-72502530D01*
X129317976Y-72465027D01*
X129387009Y-72424861D01*
X129454865Y-72393641D01*
X129494442Y-72381148D01*
X129546641Y-72365640D01*
X129620007Y-72337628D01*
X129699949Y-72302747D01*
X129711609Y-72297269D01*
X129871979Y-72199273D01*
X129872239Y-72199029D01*
X127919973Y-72199029D01*
X127913323Y-72214923D01*
X127894584Y-72236413D01*
X127890162Y-72241121D01*
X127865082Y-72265852D01*
X127840157Y-72281143D01*
X127807635Y-72287225D01*
X127759764Y-72284335D01*
X127688790Y-72272704D01*
X127586962Y-72252569D01*
X127577114Y-72250570D01*
X127495191Y-72232303D01*
X127401335Y-72208804D01*
X127302804Y-72182220D01*
X127206853Y-72154695D01*
X127120738Y-72128377D01*
X127051714Y-72105411D01*
X127007037Y-72087943D01*
X126993963Y-72078119D01*
X126993979Y-72078104D01*
X127015662Y-72078021D01*
X127067198Y-72084107D01*
X127139032Y-72095148D01*
X127169629Y-72100386D01*
X127257088Y-72113692D01*
X127369836Y-72127882D01*
X127493152Y-72141233D01*
X127609297Y-72151785D01*
X127732773Y-72161862D01*
X127820934Y-72170148D01*
X127878424Y-72178119D01*
X127909888Y-72187254D01*
X127919973Y-72199029D01*
X129872239Y-72199029D01*
X130011032Y-72068786D01*
X130127427Y-71908081D01*
X130219820Y-71719431D01*
X130286871Y-71505110D01*
X130327237Y-71267391D01*
X130328868Y-71251557D01*
X130342974Y-71165351D01*
X130367748Y-71063130D01*
X130398074Y-70965736D01*
X130401030Y-70957567D01*
X130479500Y-70716047D01*
X130489596Y-70676904D01*
X130098938Y-70676904D01*
X130090193Y-70820296D01*
X130081332Y-70907617D01*
X130063288Y-70979208D01*
X130030292Y-71054113D01*
X130005162Y-71100959D01*
X129834574Y-71376885D01*
X129649360Y-71616578D01*
X129448246Y-71821615D01*
X129364134Y-71893411D01*
X129243850Y-71990855D01*
X129113542Y-71978429D01*
X129045665Y-71970928D01*
X128995584Y-71963465D01*
X128974881Y-71957957D01*
X128970586Y-71952560D01*
X128974413Y-71945442D01*
X128992663Y-71932142D01*
X129031639Y-71908196D01*
X129097643Y-71869143D01*
X129113542Y-71859775D01*
X129332646Y-71712140D01*
X129529385Y-71539505D01*
X129706960Y-71338298D01*
X129868575Y-71104948D01*
X129999292Y-70871828D01*
X130098938Y-70676904D01*
X130489596Y-70676904D01*
X130550816Y-70439568D01*
X130614014Y-70132788D01*
X130668130Y-69800362D01*
X130710358Y-69464039D01*
X130719569Y-69359073D01*
X130727297Y-69231361D01*
X130733500Y-69086984D01*
X130738136Y-68932026D01*
X130741161Y-68772566D01*
X130742533Y-68614688D01*
X130742210Y-68464473D01*
X130740148Y-68328003D01*
X130736306Y-68211361D01*
X130730641Y-68120627D01*
X130723110Y-68061885D01*
X130720255Y-68050700D01*
X130709205Y-68020373D01*
X130703066Y-68018837D01*
X130700111Y-68050142D01*
X130698892Y-68100819D01*
X130692384Y-68260094D01*
X130678356Y-68449238D01*
X130657994Y-68658977D01*
X130632483Y-68880043D01*
X130603010Y-69103162D01*
X130570759Y-69319066D01*
X130536916Y-69518481D01*
X130502666Y-69692139D01*
X130486084Y-69765064D01*
X130455453Y-69887159D01*
X130422988Y-70007577D01*
X130390543Y-70120357D01*
X130359970Y-70219541D01*
X130333126Y-70299168D01*
X130311864Y-70353281D01*
X130298039Y-70375918D01*
X130296000Y-70375985D01*
X130277585Y-70343533D01*
X130268380Y-70279783D01*
X130268371Y-70192458D01*
X130277542Y-70089280D01*
X130295879Y-69977970D01*
X130296770Y-69973617D01*
X130325810Y-69824199D01*
X130349407Y-69681185D01*
X130368120Y-69537769D01*
X130382507Y-69387145D01*
X130393127Y-69222506D01*
X130400538Y-69037046D01*
X130405298Y-68823958D01*
X130407629Y-68622050D01*
X130410753Y-68231631D01*
X130295355Y-68231631D01*
X130293430Y-68309529D01*
X130289453Y-68406522D01*
X130283773Y-68515651D01*
X130276740Y-68629957D01*
X130268702Y-68742478D01*
X130260007Y-68846257D01*
X130254486Y-68902713D01*
X130243350Y-68996811D01*
X130228553Y-69104712D01*
X130211412Y-69218544D01*
X130193244Y-69330437D01*
X130175364Y-69432518D01*
X130159089Y-69516918D01*
X130145735Y-69575764D01*
X130138017Y-69599195D01*
X130127193Y-69591053D01*
X130107338Y-69550899D01*
X130081166Y-69485057D01*
X130051390Y-69399851D01*
X130047727Y-69388698D01*
X130002626Y-69254200D01*
X129962293Y-69141257D01*
X129928255Y-69053709D01*
X129902037Y-68995397D01*
X129885165Y-68970161D01*
X129881439Y-68970122D01*
X129882113Y-68991829D01*
X129890098Y-69044927D01*
X129904072Y-69121654D01*
X129922710Y-69214247D01*
X129924589Y-69223178D01*
X129950186Y-69349571D01*
X129977448Y-69492590D01*
X130002412Y-69631076D01*
X130015254Y-69706968D01*
X130054282Y-69946190D01*
X129993363Y-70121097D01*
X129942388Y-70255221D01*
X129879354Y-70402299D01*
X129809571Y-70551283D01*
X129738346Y-70691126D01*
X129670989Y-70810784D01*
X129633385Y-70870155D01*
X129537787Y-70996766D01*
X129421776Y-71127195D01*
X129297507Y-71248821D01*
X129177136Y-71349023D01*
X129160458Y-71361217D01*
X129099783Y-71401115D01*
X129025066Y-71445073D01*
X128944312Y-71489042D01*
X128865528Y-71528974D01*
X128796720Y-71560820D01*
X128745895Y-71580532D01*
X128721058Y-71584059D01*
X128720571Y-71583670D01*
X128724262Y-71562828D01*
X128741597Y-71515244D01*
X128769050Y-71450408D01*
X128775149Y-71436855D01*
X128834336Y-71300649D01*
X128900917Y-71137610D01*
X128970532Y-70959239D01*
X129038823Y-70777037D01*
X129101432Y-70602505D01*
X129154000Y-70447145D01*
X129173321Y-70386217D01*
X129206730Y-70274545D01*
X129242776Y-70148332D01*
X129279837Y-70013878D01*
X129316292Y-69877486D01*
X129350517Y-69745456D01*
X129380891Y-69624089D01*
X129405791Y-69519686D01*
X129423596Y-69438549D01*
X129432683Y-69386979D01*
X129433508Y-69375552D01*
X129426199Y-69383233D01*
X129405810Y-69424210D01*
X129374064Y-69494518D01*
X129332686Y-69590192D01*
X129283398Y-69707266D01*
X129227925Y-69841774D01*
X129185934Y-69945175D01*
X129097896Y-70161539D01*
X129020491Y-70347299D01*
X128950450Y-70509459D01*
X128884501Y-70655021D01*
X128819376Y-70790990D01*
X128751805Y-70924368D01*
X128678517Y-71062160D01*
X128596244Y-71211368D01*
X128587355Y-71227261D01*
X128507396Y-71369027D01*
X128443617Y-71479185D01*
X128393369Y-71561520D01*
X128354000Y-71619822D01*
X128322858Y-71657877D01*
X128297294Y-71679474D01*
X128274656Y-71688400D01*
X128263973Y-71689295D01*
X128227639Y-71678617D01*
X128167771Y-71649795D01*
X128093699Y-71607651D01*
X128038023Y-71572562D01*
X127956305Y-71516336D01*
X127855102Y-71442841D01*
X127745718Y-71360488D01*
X127639459Y-71277688D01*
X127609823Y-71253972D01*
X127590606Y-71238230D01*
X126427196Y-71238230D01*
X126417173Y-71248253D01*
X126407149Y-71238230D01*
X126417173Y-71228206D01*
X126427196Y-71238230D01*
X127590606Y-71238230D01*
X127569915Y-71221281D01*
X126387102Y-71221281D01*
X126371777Y-71217484D01*
X126325970Y-71188112D01*
X126249929Y-71133341D01*
X126143906Y-71053349D01*
X126090138Y-71011997D01*
X126022625Y-70958369D01*
X125970099Y-70913810D01*
X125938728Y-70883739D01*
X125932866Y-70873865D01*
X125950523Y-70882360D01*
X125992510Y-70910693D01*
X126051911Y-70953578D01*
X126121812Y-71005724D01*
X126195298Y-71061844D01*
X126265455Y-71116649D01*
X126325368Y-71164850D01*
X126368121Y-71201159D01*
X126386801Y-71220287D01*
X126387102Y-71221281D01*
X127569915Y-71221281D01*
X127523536Y-71183290D01*
X127428798Y-71103780D01*
X127330200Y-71019508D01*
X127232333Y-70934538D01*
X127139786Y-70852935D01*
X127057150Y-70778765D01*
X126989015Y-70716091D01*
X126939972Y-70668980D01*
X126914611Y-70641496D01*
X126912318Y-70636299D01*
X126932372Y-70627511D01*
X126982629Y-70607871D01*
X127055617Y-70580242D01*
X127143864Y-70547488D01*
X127148374Y-70545830D01*
X127615300Y-70353680D01*
X128066036Y-70127178D01*
X128497873Y-69868323D01*
X128908105Y-69579116D01*
X129294024Y-69261559D01*
X129652922Y-68917652D01*
X129982093Y-68549395D01*
X130165141Y-68316328D01*
X130215764Y-68249888D01*
X130257515Y-68197630D01*
X130284702Y-68166543D01*
X130291657Y-68160961D01*
X130294881Y-68179788D01*
X130295355Y-68231631D01*
X130410753Y-68231631D01*
X130412844Y-67970511D01*
X130546883Y-67749990D01*
X130791543Y-67309215D01*
X131000430Y-66850701D01*
X131173618Y-66374225D01*
X131311183Y-65879565D01*
X131413199Y-65366496D01*
X131461564Y-65013526D01*
X131470910Y-64901882D01*
X131477841Y-64759377D01*
X131482355Y-64595173D01*
X131484453Y-64418432D01*
X131484136Y-64238315D01*
X131481402Y-64063983D01*
X131476252Y-63904598D01*
X131468686Y-63769321D01*
X131461564Y-63690400D01*
X131382898Y-63163919D01*
X131268157Y-62654922D01*
X131117303Y-62163317D01*
X130930300Y-61689014D01*
X130707110Y-61231921D01*
X130447695Y-60791948D01*
X130152018Y-60369003D01*
X130037741Y-60222208D01*
X129935682Y-60100620D01*
X129811363Y-59961938D01*
X129673216Y-59814869D01*
X129529671Y-59668121D01*
X129389159Y-59530401D01*
X129260112Y-59410416D01*
X129203755Y-59360855D01*
X128800562Y-59040804D01*
X128376631Y-58754764D01*
X127933484Y-58503399D01*
X127472640Y-58287372D01*
X126995622Y-58107344D01*
X126503950Y-57963978D01*
X125999144Y-57857938D01*
X125635326Y-57805872D01*
X125486135Y-57792373D01*
X125308300Y-57782402D01*
X125112228Y-57776040D01*
X124908325Y-57773368D01*
X124706997Y-57774465D01*
X124518651Y-57779412D01*
X124353693Y-57788290D01*
X124272106Y-57795346D01*
X123752938Y-57868041D01*
X123249908Y-57977391D01*
X122762588Y-58123572D01*
X122290551Y-58306761D01*
X121833371Y-58527134D01*
X121390619Y-58784868D01*
X120961868Y-59080139D01*
X120733747Y-59257085D01*
X120646241Y-59331193D01*
X120541867Y-59425109D01*
X120426707Y-59532832D01*
X120306846Y-59648360D01*
X120188367Y-59765692D01*
X120077352Y-59878826D01*
X119979886Y-59981761D01*
X119902052Y-60068496D01*
X119861687Y-60117409D01*
X119819274Y-60170245D01*
X119786660Y-60207657D01*
X119771474Y-60221181D01*
X119760386Y-60204092D01*
X119733559Y-60155333D01*
X119693178Y-60079096D01*
X119641431Y-59979575D01*
X119580503Y-59860965D01*
X119512581Y-59727458D01*
X119466182Y-59635600D01*
X119322317Y-59352942D01*
X119183958Y-59086893D01*
X119052304Y-58839527D01*
X118928554Y-58612919D01*
X118813906Y-58409143D01*
X118709559Y-58230274D01*
X118616713Y-58078387D01*
X118536565Y-57955555D01*
X118470314Y-57863854D01*
X118419160Y-57805359D01*
X118399028Y-57788820D01*
X118364216Y-57768166D01*
X118351730Y-57768311D01*
D15*
G04 #@! TO.C,U5*
X172720000Y-61722000D02*
X172720000Y-56642000D01*
X160020000Y-61722000D02*
X160020000Y-56642000D01*
X172720000Y-56642000D02*
X160020000Y-56642000D01*
X160020000Y-61722000D02*
X172720000Y-61722000D01*
X172720000Y-55118000D02*
X172720000Y-56642000D01*
X160020000Y-56642000D02*
X160020000Y-55118000D01*
X160020000Y-55118000D02*
X172720000Y-55118000D01*
G04 #@! TO.C,U10*
X69723000Y-61722000D02*
X69723000Y-56642000D01*
X57023000Y-61722000D02*
X57023000Y-56642000D01*
X69723000Y-56642000D02*
X57023000Y-56642000D01*
X57023000Y-61722000D02*
X69723000Y-61722000D01*
X69723000Y-55118000D02*
X69723000Y-56642000D01*
X57023000Y-56642000D02*
X57023000Y-55118000D01*
X57023000Y-55118000D02*
X69723000Y-55118000D01*
G04 #@! TO.C,U11*
X103505000Y-61849000D02*
X103505000Y-56769000D01*
X113665000Y-61849000D02*
X113665000Y-56769000D01*
X103505000Y-56769000D02*
X113665000Y-56769000D01*
X113665000Y-61849000D02*
X103505000Y-61849000D01*
X113665000Y-55245000D02*
X113665000Y-56769000D01*
X103505000Y-56769000D02*
X103505000Y-55245000D01*
X103505000Y-55245000D02*
X113665000Y-55245000D01*
G04 #@! TO.C,U17*
X74676000Y-61849000D02*
X74676000Y-56769000D01*
X84836000Y-61849000D02*
X84836000Y-56769000D01*
X74676000Y-56769000D02*
X84836000Y-56769000D01*
X84836000Y-61849000D02*
X74676000Y-61849000D01*
X84836000Y-55245000D02*
X84836000Y-56769000D01*
X74676000Y-56769000D02*
X74676000Y-55245000D01*
X74676000Y-55245000D02*
X84836000Y-55245000D01*
G04 #@! TO.C,Conn3*
X182525000Y-53594000D02*
X174625000Y-53594000D01*
X182525000Y-61494000D02*
X174625000Y-61494000D01*
X174625000Y-59944000D02*
X174117000Y-59944000D01*
X174117000Y-55372000D02*
X174625000Y-55372000D01*
X174117000Y-59944000D02*
X174117000Y-55372000D01*
X176276000Y-53594000D02*
X176276000Y-53086000D01*
X176276000Y-53086000D02*
X180848000Y-53086000D01*
X180848000Y-53086000D02*
X180848000Y-53594000D01*
X174625000Y-53594000D02*
X174625000Y-61494000D01*
X182016400Y-59944000D02*
X182016400Y-55372000D01*
X182525000Y-53594000D02*
X182525000Y-61494000D01*
X182016400Y-55372000D02*
X182524400Y-55372000D01*
X182524400Y-59944000D02*
X182016400Y-59944000D01*
X184153000Y-53594000D02*
X184153000Y-53086000D01*
X190425000Y-61494000D02*
X182525000Y-61494000D01*
X184153000Y-53086000D02*
X188725000Y-53086000D01*
X188725000Y-53086000D02*
X188725000Y-53594000D01*
X189917000Y-55372000D02*
X190425000Y-55372000D01*
X190425000Y-59944000D02*
X189917000Y-59944000D01*
X190425000Y-53594000D02*
X182525000Y-53594000D01*
X190425000Y-53594000D02*
X190425000Y-61494000D01*
X189917000Y-59944000D02*
X189917000Y-55372000D01*
G04 #@! TD*
M02*
