%TF.GenerationSoftware,KiCad,Pcbnew,(5.1.10)-1*%
%TF.CreationDate,2021-12-10T12:48:03-06:00*%
%TF.ProjectId,BMS_2022_Rev1,424d535f-3230-4323-925f-526576312e6b,rev?*%
%TF.SameCoordinates,Original*%
%TF.FileFunction,Legend,Bot*%
%TF.FilePolarity,Positive*%
%FSLAX46Y46*%
G04 Gerber Fmt 4.6, Leading zero omitted, Abs format (unit mm)*
G04 Created by KiCad (PCBNEW (5.1.10)-1) date 2021-12-10 12:48:03*
%MOMM*%
%LPD*%
G01*
G04 APERTURE LIST*
%ADD10C,0.010000*%
%ADD11C,0.150000*%
G04 APERTURE END LIST*
D10*
%TO.C,G\u002A\u002A\u002A*%
G36*
X37258149Y-102603424D02*
G01*
X36865105Y-102660112D01*
X36545091Y-102753147D01*
X36496279Y-102774283D01*
X36300383Y-102865062D01*
X36480525Y-102834589D01*
X37107486Y-102764275D01*
X37694734Y-102768956D01*
X38215593Y-102848345D01*
X38237100Y-102853683D01*
X38844061Y-103053287D01*
X39476555Y-103352385D01*
X40136740Y-103752734D01*
X40826774Y-104256090D01*
X41548813Y-104864210D01*
X42305015Y-105578848D01*
X43097539Y-106401762D01*
X43928540Y-107334708D01*
X44342630Y-107823208D01*
X44726262Y-108286537D01*
X45092767Y-108738352D01*
X45447886Y-109186956D01*
X45797365Y-109640651D01*
X46146946Y-110107738D01*
X46502373Y-110596522D01*
X46869389Y-111115303D01*
X47253737Y-111672385D01*
X47661161Y-112276069D01*
X48097405Y-112934658D01*
X48568211Y-113656456D01*
X49079323Y-114449762D01*
X49636484Y-115322882D01*
X50245439Y-116284115D01*
X50757186Y-117095802D01*
X51924172Y-118977653D01*
X53046601Y-120843233D01*
X54106429Y-122662429D01*
X54373160Y-123130553D01*
X54614212Y-123553497D01*
X54893480Y-124039941D01*
X55187972Y-124550059D01*
X55474699Y-125044026D01*
X55726278Y-125474537D01*
X55976855Y-125904080D01*
X56251725Y-126379774D01*
X56529673Y-126864609D01*
X56789485Y-127321574D01*
X57009946Y-127713658D01*
X57017000Y-127726310D01*
X57207132Y-128066850D01*
X57387504Y-128388831D01*
X57546117Y-128670914D01*
X57670968Y-128891757D01*
X57750059Y-129030020D01*
X57752549Y-129034301D01*
X57903600Y-129293604D01*
X58136715Y-128674017D01*
X58258982Y-128367591D01*
X58410992Y-128015663D01*
X58585118Y-127633195D01*
X58773734Y-127235146D01*
X58969214Y-126836479D01*
X59163932Y-126452154D01*
X59350263Y-126097131D01*
X59520580Y-125786372D01*
X59667256Y-125534836D01*
X59782667Y-125357486D01*
X59859187Y-125269282D01*
X59875811Y-125262232D01*
X59916158Y-125312435D01*
X60002768Y-125451647D01*
X60125651Y-125662771D01*
X60274815Y-125928712D01*
X60410952Y-126177953D01*
X60630772Y-126583431D01*
X60866486Y-127015458D01*
X61110917Y-127461131D01*
X61356885Y-127907544D01*
X61597211Y-128341795D01*
X61824718Y-128750979D01*
X62032226Y-129122192D01*
X62212557Y-129442530D01*
X62358531Y-129699089D01*
X62462971Y-129878966D01*
X62518698Y-129969255D01*
X62523825Y-129975943D01*
X62527990Y-129949584D01*
X62496072Y-129831196D01*
X62434138Y-129641203D01*
X62372197Y-129465542D01*
X62221768Y-129052213D01*
X62054554Y-128596251D01*
X61875334Y-128110387D01*
X61688886Y-127607350D01*
X61499991Y-127099870D01*
X61313429Y-126600678D01*
X61133977Y-126122503D01*
X60966417Y-125678076D01*
X60815527Y-125280127D01*
X60686087Y-124941385D01*
X60582876Y-124674581D01*
X60510674Y-124492445D01*
X60474261Y-124407706D01*
X60471685Y-124403557D01*
X60421037Y-124427038D01*
X60326043Y-124532151D01*
X60204891Y-124698002D01*
X60171132Y-124748829D01*
X60045883Y-124933943D01*
X59943798Y-125071736D01*
X59883146Y-125137895D01*
X59876900Y-125140420D01*
X59838881Y-125089302D01*
X59753410Y-124947060D01*
X59629033Y-124728808D01*
X59474297Y-124449661D01*
X59297747Y-124124735D01*
X59208421Y-123958174D01*
X58998059Y-123566502D01*
X58746201Y-123101115D01*
X58469835Y-122593191D01*
X58185952Y-122073905D01*
X57911542Y-121574435D01*
X57744976Y-121272775D01*
X57503190Y-120835202D01*
X57219169Y-120319965D01*
X56908180Y-119754833D01*
X56585489Y-119167578D01*
X56266362Y-118585968D01*
X55966065Y-118037774D01*
X55861374Y-117846393D01*
X55374812Y-116963601D01*
X54896894Y-116110233D01*
X54432798Y-115294973D01*
X53987700Y-114526508D01*
X53566778Y-113813521D01*
X53175208Y-113164698D01*
X52818167Y-112588725D01*
X52500833Y-112094286D01*
X52228382Y-111690066D01*
X52022593Y-111406343D01*
X51734335Y-111058764D01*
X51477248Y-110808859D01*
X51255592Y-110659007D01*
X51073629Y-110611587D01*
X50935618Y-110668977D01*
X50871487Y-110763639D01*
X50812042Y-110924040D01*
X50801811Y-111018342D01*
X50835642Y-111030934D01*
X50908379Y-110946208D01*
X50923727Y-110921850D01*
X51039599Y-110781110D01*
X51147254Y-110741775D01*
X51148680Y-110742030D01*
X51261529Y-110814061D01*
X51417821Y-110993927D01*
X51615659Y-111278261D01*
X51853142Y-111663690D01*
X52128372Y-112146847D01*
X52439450Y-112724360D01*
X52784477Y-113392861D01*
X53161553Y-114148979D01*
X53568781Y-114989345D01*
X53714111Y-115294383D01*
X53857237Y-115599362D01*
X54031930Y-115977135D01*
X54233793Y-116417817D01*
X54458431Y-116911528D01*
X54701449Y-117448384D01*
X54958451Y-118018504D01*
X55225041Y-118612004D01*
X55496825Y-119219003D01*
X55769406Y-119829618D01*
X56038389Y-120433967D01*
X56299378Y-121022167D01*
X56547978Y-121584335D01*
X56779794Y-122110591D01*
X56990429Y-122591050D01*
X57175489Y-123015831D01*
X57330577Y-123375051D01*
X57451298Y-123658828D01*
X57533257Y-123857279D01*
X57572058Y-123960522D01*
X57574332Y-123973235D01*
X57537570Y-123930268D01*
X57443430Y-123800791D01*
X57301224Y-123598171D01*
X57120264Y-123335773D01*
X56909864Y-123026964D01*
X56746482Y-122785034D01*
X56474123Y-122382807D01*
X56151675Y-121910845D01*
X55787369Y-121380906D01*
X55389434Y-120804749D01*
X54966102Y-120194132D01*
X54525602Y-119560815D01*
X54076166Y-118916557D01*
X53626024Y-118273117D01*
X53183406Y-117642253D01*
X52756543Y-117035725D01*
X52353664Y-116465291D01*
X51983002Y-115942711D01*
X51652785Y-115479742D01*
X51371245Y-115088146D01*
X51146612Y-114779679D01*
X51083240Y-114693910D01*
X49987105Y-113236368D01*
X48941770Y-111884197D01*
X47944967Y-110635034D01*
X46994430Y-109486515D01*
X46087892Y-108436278D01*
X45223088Y-107481960D01*
X44397750Y-106621196D01*
X43609612Y-105851623D01*
X42856408Y-105170879D01*
X42135871Y-104576600D01*
X41445734Y-104066423D01*
X40783731Y-103637983D01*
X40147596Y-103288919D01*
X40143409Y-103286839D01*
X39669223Y-103060533D01*
X39265639Y-102890647D01*
X38903094Y-102767344D01*
X38552027Y-102680786D01*
X38182874Y-102621138D01*
X38119453Y-102613351D01*
X37688254Y-102586648D01*
X37258149Y-102603424D01*
G37*
X37258149Y-102603424D02*
X36865105Y-102660112D01*
X36545091Y-102753147D01*
X36496279Y-102774283D01*
X36300383Y-102865062D01*
X36480525Y-102834589D01*
X37107486Y-102764275D01*
X37694734Y-102768956D01*
X38215593Y-102848345D01*
X38237100Y-102853683D01*
X38844061Y-103053287D01*
X39476555Y-103352385D01*
X40136740Y-103752734D01*
X40826774Y-104256090D01*
X41548813Y-104864210D01*
X42305015Y-105578848D01*
X43097539Y-106401762D01*
X43928540Y-107334708D01*
X44342630Y-107823208D01*
X44726262Y-108286537D01*
X45092767Y-108738352D01*
X45447886Y-109186956D01*
X45797365Y-109640651D01*
X46146946Y-110107738D01*
X46502373Y-110596522D01*
X46869389Y-111115303D01*
X47253737Y-111672385D01*
X47661161Y-112276069D01*
X48097405Y-112934658D01*
X48568211Y-113656456D01*
X49079323Y-114449762D01*
X49636484Y-115322882D01*
X50245439Y-116284115D01*
X50757186Y-117095802D01*
X51924172Y-118977653D01*
X53046601Y-120843233D01*
X54106429Y-122662429D01*
X54373160Y-123130553D01*
X54614212Y-123553497D01*
X54893480Y-124039941D01*
X55187972Y-124550059D01*
X55474699Y-125044026D01*
X55726278Y-125474537D01*
X55976855Y-125904080D01*
X56251725Y-126379774D01*
X56529673Y-126864609D01*
X56789485Y-127321574D01*
X57009946Y-127713658D01*
X57017000Y-127726310D01*
X57207132Y-128066850D01*
X57387504Y-128388831D01*
X57546117Y-128670914D01*
X57670968Y-128891757D01*
X57750059Y-129030020D01*
X57752549Y-129034301D01*
X57903600Y-129293604D01*
X58136715Y-128674017D01*
X58258982Y-128367591D01*
X58410992Y-128015663D01*
X58585118Y-127633195D01*
X58773734Y-127235146D01*
X58969214Y-126836479D01*
X59163932Y-126452154D01*
X59350263Y-126097131D01*
X59520580Y-125786372D01*
X59667256Y-125534836D01*
X59782667Y-125357486D01*
X59859187Y-125269282D01*
X59875811Y-125262232D01*
X59916158Y-125312435D01*
X60002768Y-125451647D01*
X60125651Y-125662771D01*
X60274815Y-125928712D01*
X60410952Y-126177953D01*
X60630772Y-126583431D01*
X60866486Y-127015458D01*
X61110917Y-127461131D01*
X61356885Y-127907544D01*
X61597211Y-128341795D01*
X61824718Y-128750979D01*
X62032226Y-129122192D01*
X62212557Y-129442530D01*
X62358531Y-129699089D01*
X62462971Y-129878966D01*
X62518698Y-129969255D01*
X62523825Y-129975943D01*
X62527990Y-129949584D01*
X62496072Y-129831196D01*
X62434138Y-129641203D01*
X62372197Y-129465542D01*
X62221768Y-129052213D01*
X62054554Y-128596251D01*
X61875334Y-128110387D01*
X61688886Y-127607350D01*
X61499991Y-127099870D01*
X61313429Y-126600678D01*
X61133977Y-126122503D01*
X60966417Y-125678076D01*
X60815527Y-125280127D01*
X60686087Y-124941385D01*
X60582876Y-124674581D01*
X60510674Y-124492445D01*
X60474261Y-124407706D01*
X60471685Y-124403557D01*
X60421037Y-124427038D01*
X60326043Y-124532151D01*
X60204891Y-124698002D01*
X60171132Y-124748829D01*
X60045883Y-124933943D01*
X59943798Y-125071736D01*
X59883146Y-125137895D01*
X59876900Y-125140420D01*
X59838881Y-125089302D01*
X59753410Y-124947060D01*
X59629033Y-124728808D01*
X59474297Y-124449661D01*
X59297747Y-124124735D01*
X59208421Y-123958174D01*
X58998059Y-123566502D01*
X58746201Y-123101115D01*
X58469835Y-122593191D01*
X58185952Y-122073905D01*
X57911542Y-121574435D01*
X57744976Y-121272775D01*
X57503190Y-120835202D01*
X57219169Y-120319965D01*
X56908180Y-119754833D01*
X56585489Y-119167578D01*
X56266362Y-118585968D01*
X55966065Y-118037774D01*
X55861374Y-117846393D01*
X55374812Y-116963601D01*
X54896894Y-116110233D01*
X54432798Y-115294973D01*
X53987700Y-114526508D01*
X53566778Y-113813521D01*
X53175208Y-113164698D01*
X52818167Y-112588725D01*
X52500833Y-112094286D01*
X52228382Y-111690066D01*
X52022593Y-111406343D01*
X51734335Y-111058764D01*
X51477248Y-110808859D01*
X51255592Y-110659007D01*
X51073629Y-110611587D01*
X50935618Y-110668977D01*
X50871487Y-110763639D01*
X50812042Y-110924040D01*
X50801811Y-111018342D01*
X50835642Y-111030934D01*
X50908379Y-110946208D01*
X50923727Y-110921850D01*
X51039599Y-110781110D01*
X51147254Y-110741775D01*
X51148680Y-110742030D01*
X51261529Y-110814061D01*
X51417821Y-110993927D01*
X51615659Y-111278261D01*
X51853142Y-111663690D01*
X52128372Y-112146847D01*
X52439450Y-112724360D01*
X52784477Y-113392861D01*
X53161553Y-114148979D01*
X53568781Y-114989345D01*
X53714111Y-115294383D01*
X53857237Y-115599362D01*
X54031930Y-115977135D01*
X54233793Y-116417817D01*
X54458431Y-116911528D01*
X54701449Y-117448384D01*
X54958451Y-118018504D01*
X55225041Y-118612004D01*
X55496825Y-119219003D01*
X55769406Y-119829618D01*
X56038389Y-120433967D01*
X56299378Y-121022167D01*
X56547978Y-121584335D01*
X56779794Y-122110591D01*
X56990429Y-122591050D01*
X57175489Y-123015831D01*
X57330577Y-123375051D01*
X57451298Y-123658828D01*
X57533257Y-123857279D01*
X57572058Y-123960522D01*
X57574332Y-123973235D01*
X57537570Y-123930268D01*
X57443430Y-123800791D01*
X57301224Y-123598171D01*
X57120264Y-123335773D01*
X56909864Y-123026964D01*
X56746482Y-122785034D01*
X56474123Y-122382807D01*
X56151675Y-121910845D01*
X55787369Y-121380906D01*
X55389434Y-120804749D01*
X54966102Y-120194132D01*
X54525602Y-119560815D01*
X54076166Y-118916557D01*
X53626024Y-118273117D01*
X53183406Y-117642253D01*
X52756543Y-117035725D01*
X52353664Y-116465291D01*
X51983002Y-115942711D01*
X51652785Y-115479742D01*
X51371245Y-115088146D01*
X51146612Y-114779679D01*
X51083240Y-114693910D01*
X49987105Y-113236368D01*
X48941770Y-111884197D01*
X47944967Y-110635034D01*
X46994430Y-109486515D01*
X46087892Y-108436278D01*
X45223088Y-107481960D01*
X44397750Y-106621196D01*
X43609612Y-105851623D01*
X42856408Y-105170879D01*
X42135871Y-104576600D01*
X41445734Y-104066423D01*
X40783731Y-103637983D01*
X40147596Y-103288919D01*
X40143409Y-103286839D01*
X39669223Y-103060533D01*
X39265639Y-102890647D01*
X38903094Y-102767344D01*
X38552027Y-102680786D01*
X38182874Y-102621138D01*
X38119453Y-102613351D01*
X37688254Y-102586648D01*
X37258149Y-102603424D01*
G36*
X62571068Y-130096038D02*
G01*
X62601092Y-130126062D01*
X62631116Y-130096038D01*
X62601092Y-130066014D01*
X62571068Y-130096038D01*
G37*
X62571068Y-130096038D02*
X62601092Y-130126062D01*
X62631116Y-130096038D01*
X62601092Y-130066014D01*
X62571068Y-130096038D01*
G36*
X56937461Y-115990631D02*
G01*
X56968906Y-116063006D01*
X57071167Y-116216965D01*
X57129837Y-116300036D01*
X57239590Y-116462042D01*
X57347124Y-116639863D01*
X57459187Y-116847721D01*
X57582528Y-117099836D01*
X57723893Y-117410427D01*
X57890031Y-117793715D01*
X58087690Y-118263919D01*
X58263661Y-118689412D01*
X58413319Y-119056807D01*
X58597899Y-119515998D01*
X58809398Y-120046619D01*
X59039813Y-120628304D01*
X59281141Y-121240687D01*
X59525382Y-121863402D01*
X59764531Y-122476083D01*
X59990588Y-123058365D01*
X60195548Y-123589881D01*
X60371411Y-124050265D01*
X60406403Y-124142632D01*
X60471221Y-124314049D01*
X60808030Y-123852851D01*
X60956946Y-123660033D01*
X61082692Y-123517680D01*
X61167868Y-123444438D01*
X61192099Y-123441245D01*
X61225702Y-123502549D01*
X61306922Y-123662949D01*
X61431298Y-123913322D01*
X61594368Y-124244551D01*
X61791670Y-124647514D01*
X62018744Y-125113092D01*
X62271126Y-125632164D01*
X62544356Y-126195611D01*
X62833971Y-126794312D01*
X62949547Y-127033627D01*
X63614946Y-128411253D01*
X64232398Y-129687885D01*
X64805546Y-130870977D01*
X65338038Y-131967983D01*
X65833519Y-132986356D01*
X66295633Y-133933550D01*
X66728027Y-134817019D01*
X67134345Y-135644215D01*
X67518234Y-136422594D01*
X67883339Y-137159608D01*
X68233305Y-137862711D01*
X68571777Y-138539357D01*
X68764444Y-138922988D01*
X69025570Y-139445268D01*
X69248549Y-139894248D01*
X69441311Y-140280236D01*
X69611786Y-140613541D01*
X69767905Y-140904474D01*
X69917597Y-141163344D01*
X70068794Y-141400459D01*
X70229424Y-141626129D01*
X70407420Y-141850663D01*
X70610709Y-142084371D01*
X70847224Y-142337561D01*
X71124895Y-142620544D01*
X71451650Y-142943628D01*
X71835422Y-143317123D01*
X72284139Y-143751337D01*
X72805733Y-144256581D01*
X73049319Y-144493298D01*
X73488681Y-144923208D01*
X73918528Y-145348307D01*
X74327643Y-145757194D01*
X74704810Y-146138469D01*
X75038815Y-146480730D01*
X75318440Y-146772575D01*
X75532471Y-147002604D01*
X75657056Y-147144129D01*
X75995886Y-147542521D01*
X76406754Y-148013600D01*
X76877645Y-148544279D01*
X77396542Y-149121469D01*
X77951429Y-149732083D01*
X78530287Y-150363033D01*
X79121102Y-151001232D01*
X79711855Y-151633592D01*
X80290531Y-152247024D01*
X80845113Y-152828442D01*
X81363585Y-153364758D01*
X81448423Y-153451685D01*
X81735357Y-153746063D01*
X81991555Y-154010508D01*
X82205944Y-154233460D01*
X82367451Y-154403356D01*
X82465003Y-154508636D01*
X82489496Y-154538649D01*
X82415690Y-154564944D01*
X82248467Y-154613054D01*
X82011242Y-154677010D01*
X81727436Y-154750841D01*
X81420464Y-154828579D01*
X81113746Y-154904253D01*
X80830700Y-154971896D01*
X80594743Y-155025537D01*
X80503584Y-155044866D01*
X80117939Y-155117583D01*
X79837674Y-155155881D01*
X79653326Y-155160461D01*
X79555429Y-155132026D01*
X79540933Y-155116259D01*
X79483564Y-155059658D01*
X79353753Y-154947167D01*
X79173288Y-154797355D01*
X79041999Y-154691049D01*
X78573669Y-154315358D01*
X79047551Y-154762311D01*
X79521434Y-155209265D01*
X79317764Y-155245715D01*
X78956765Y-155297929D01*
X78524082Y-155340226D01*
X78036111Y-155372723D01*
X77509245Y-155395542D01*
X76959878Y-155408802D01*
X76404405Y-155412624D01*
X75859221Y-155407127D01*
X75340720Y-155392432D01*
X74865296Y-155368658D01*
X74449343Y-155335925D01*
X74109256Y-155294354D01*
X73861430Y-155244064D01*
X73754049Y-155204987D01*
X73685387Y-155134141D01*
X73563861Y-154969493D01*
X73395946Y-154721652D01*
X73188119Y-154401226D01*
X72946853Y-154018823D01*
X72678625Y-153585053D01*
X72389911Y-153110523D01*
X72087186Y-152605841D01*
X71776926Y-152081617D01*
X71465606Y-151548459D01*
X71159702Y-151016975D01*
X70865689Y-150497774D01*
X70706174Y-150211877D01*
X70453050Y-149763213D01*
X70181193Y-149294792D01*
X69906453Y-148833002D01*
X69644676Y-148404230D01*
X69411713Y-148034863D01*
X69263598Y-147809986D01*
X69041993Y-147471613D01*
X68784633Y-147060505D01*
X68511778Y-146610158D01*
X68243689Y-146154070D01*
X68000628Y-145725734D01*
X67976309Y-145681786D01*
X67677892Y-145154576D01*
X67384440Y-144667310D01*
X67074847Y-144187232D01*
X66728002Y-143681587D01*
X66331677Y-143129777D01*
X65482982Y-141943992D01*
X64680991Y-140772442D01*
X63907059Y-139586233D01*
X63142543Y-138356472D01*
X62368800Y-137054265D01*
X62009255Y-136431026D01*
X61793508Y-136060293D01*
X61597182Y-135740282D01*
X61402580Y-135445918D01*
X61192007Y-135152125D01*
X60947767Y-134833827D01*
X60652163Y-134465949D01*
X60441369Y-134209277D01*
X60150444Y-133856384D01*
X59861065Y-133504384D01*
X59589640Y-133173309D01*
X59352577Y-132883193D01*
X59166287Y-132654066D01*
X59088743Y-132557977D01*
X58902122Y-132328081D01*
X58665838Y-132040615D01*
X58407963Y-131729553D01*
X58156567Y-131428868D01*
X58115003Y-131379457D01*
X57910314Y-131131610D01*
X57736629Y-130912190D01*
X57607516Y-130739064D01*
X57536542Y-130630098D01*
X57527097Y-130605317D01*
X57543116Y-130515145D01*
X57584338Y-130351270D01*
X57640504Y-130148986D01*
X57701359Y-129943588D01*
X57756647Y-129770371D01*
X57796110Y-129664630D01*
X57804874Y-129649428D01*
X57857304Y-129673742D01*
X57969972Y-129762975D01*
X58109700Y-129889618D01*
X58248276Y-130014495D01*
X58313147Y-130055872D01*
X58300570Y-130011428D01*
X58297262Y-130005967D01*
X58213310Y-129859993D01*
X58110029Y-129668273D01*
X58069281Y-129589476D01*
X57987338Y-129435448D01*
X57937081Y-129375639D01*
X57897511Y-129396346D01*
X57863038Y-129454925D01*
X57830721Y-129504056D01*
X57789905Y-129520893D01*
X57725156Y-129495784D01*
X57621039Y-129419077D01*
X57462117Y-129281123D01*
X57232955Y-129072268D01*
X57194426Y-129036856D01*
X56514792Y-128417226D01*
X55909323Y-127876826D01*
X55369074Y-127408197D01*
X54885100Y-127003876D01*
X54448457Y-126656403D01*
X54050198Y-126358318D01*
X53681379Y-126102160D01*
X53654047Y-126084028D01*
X53165207Y-125781339D01*
X52746907Y-125565872D01*
X52401227Y-125438363D01*
X52130249Y-125399552D01*
X51936051Y-125450175D01*
X51912676Y-125466291D01*
X51848574Y-125522438D01*
X51860507Y-125549858D01*
X51965869Y-125559240D01*
X52066050Y-125560559D01*
X52333753Y-125600263D01*
X52599365Y-125727319D01*
X52611193Y-125734759D01*
X52821511Y-125883361D01*
X53093910Y-126098237D01*
X53406258Y-126360037D01*
X53736424Y-126649416D01*
X54062275Y-126947024D01*
X54361680Y-127233515D01*
X54584780Y-127460090D01*
X54770066Y-127657595D01*
X55004786Y-127910811D01*
X55276617Y-128206162D01*
X55573239Y-128530075D01*
X55882332Y-128868975D01*
X56191573Y-129209288D01*
X56488643Y-129537440D01*
X56761220Y-129839857D01*
X56996982Y-130102964D01*
X57183610Y-130313187D01*
X57308782Y-130456951D01*
X57349843Y-130506401D01*
X57482191Y-130674655D01*
X57319782Y-131406150D01*
X57186369Y-132041511D01*
X57082633Y-132622986D01*
X57004649Y-133184521D01*
X56948491Y-133760064D01*
X56910233Y-134383562D01*
X56885951Y-135088964D01*
X56883900Y-135175867D01*
X56876374Y-136152059D01*
X56902541Y-137043168D01*
X56965515Y-137880245D01*
X57068406Y-138694343D01*
X57214327Y-139516513D01*
X57404409Y-140369637D01*
X57820066Y-141833337D01*
X58345539Y-143253633D01*
X58976599Y-144624755D01*
X59709018Y-145940934D01*
X60538566Y-147196401D01*
X61461014Y-148385387D01*
X62472134Y-149502122D01*
X63567696Y-150540837D01*
X64743471Y-151495763D01*
X65995231Y-152361131D01*
X66360362Y-152587566D01*
X67606515Y-153279352D01*
X68910075Y-153884499D01*
X70251068Y-154395482D01*
X71609519Y-154804776D01*
X72965454Y-155104856D01*
X73109366Y-155130150D01*
X73425020Y-155194401D01*
X73628690Y-155260668D01*
X73726926Y-155329350D01*
X73781398Y-155407026D01*
X73893614Y-155568820D01*
X74053309Y-155799869D01*
X74250217Y-156085308D01*
X74474073Y-156410274D01*
X74650698Y-156666960D01*
X75309668Y-157602497D01*
X75929571Y-158434545D01*
X76517170Y-159170624D01*
X77079225Y-159818251D01*
X77622499Y-160384946D01*
X78153751Y-160878227D01*
X78679745Y-161305613D01*
X79076709Y-161588677D01*
X79426571Y-161802293D01*
X79829335Y-162014006D01*
X80246796Y-162206133D01*
X80640748Y-162360990D01*
X80948603Y-162455102D01*
X81441035Y-162542531D01*
X81973893Y-162581410D01*
X82494835Y-162569944D01*
X82878650Y-162521289D01*
X83590235Y-162325425D01*
X84272222Y-162013392D01*
X84923692Y-161585643D01*
X85149202Y-161404570D01*
X85323266Y-161269021D01*
X85464955Y-161198661D01*
X85626045Y-161172996D01*
X85740538Y-161170506D01*
X86545243Y-161123344D01*
X87361762Y-160987144D01*
X87555947Y-160934441D01*
X83118300Y-160934441D01*
X83035169Y-160986582D01*
X82957120Y-161010956D01*
X82843230Y-161024059D01*
X82646238Y-161030481D01*
X82403002Y-161029267D01*
X82326624Y-161027275D01*
X81976350Y-161001984D01*
X81687320Y-160943802D01*
X81439198Y-160857018D01*
X81033304Y-160671691D01*
X80670057Y-160459460D01*
X80317074Y-160198080D01*
X79941969Y-159865306D01*
X79808987Y-159737182D01*
X79612742Y-159541685D01*
X79466878Y-159389557D01*
X79382202Y-159292670D01*
X79369519Y-159262893D01*
X79384307Y-159270663D01*
X80004950Y-159656132D01*
X80541219Y-159963526D01*
X80997687Y-160195459D01*
X81019534Y-160205601D01*
X81341777Y-160343720D01*
X81710839Y-160484867D01*
X82093337Y-160617817D01*
X82455886Y-160731342D01*
X82765102Y-160814217D01*
X82927844Y-160847330D01*
X83082305Y-160886792D01*
X83118300Y-160934441D01*
X87555947Y-160934441D01*
X88162433Y-160769837D01*
X88919592Y-160479354D01*
X89605574Y-160123623D01*
X89784348Y-160011293D01*
X89991122Y-159890982D01*
X90194369Y-159797472D01*
X90312912Y-159760051D01*
X90469264Y-159713601D01*
X90689014Y-159629697D01*
X90928461Y-159525217D01*
X90963385Y-159508810D01*
X91443738Y-159215286D01*
X91444516Y-159214555D01*
X85596950Y-159214555D01*
X85577032Y-159262161D01*
X85520903Y-159326529D01*
X85507658Y-159340631D01*
X85432535Y-159414709D01*
X85357879Y-159460507D01*
X85260468Y-159478727D01*
X85117080Y-159470068D01*
X84904495Y-159435232D01*
X84599492Y-159374920D01*
X84569995Y-159368933D01*
X84324611Y-159314218D01*
X84043489Y-159243834D01*
X83748362Y-159164206D01*
X83460962Y-159081764D01*
X83203023Y-159002934D01*
X82996278Y-158934144D01*
X82862459Y-158881823D01*
X82823300Y-158852397D01*
X82823345Y-158852351D01*
X82888292Y-158852103D01*
X83042658Y-158870331D01*
X83257820Y-158903404D01*
X83349464Y-158919091D01*
X83611428Y-158958947D01*
X83949139Y-159001449D01*
X84318504Y-159041442D01*
X84666391Y-159073047D01*
X85036236Y-159103231D01*
X85300300Y-159128048D01*
X85472498Y-159151924D01*
X85566744Y-159179284D01*
X85596950Y-159214555D01*
X91444516Y-159214555D01*
X91860241Y-158824442D01*
X92208874Y-158343087D01*
X92485617Y-157778030D01*
X92686452Y-157136079D01*
X92807360Y-156424046D01*
X92812246Y-156376619D01*
X92854496Y-156118409D01*
X92928700Y-155812229D01*
X93019535Y-155520507D01*
X93028390Y-155496038D01*
X93263428Y-154772619D01*
X93293670Y-154655376D01*
X92123543Y-154655376D01*
X92097349Y-155084876D01*
X92070809Y-155346425D01*
X92016762Y-155560860D01*
X91917928Y-155785221D01*
X91842659Y-155925538D01*
X91331700Y-156752009D01*
X90776933Y-157469957D01*
X90174542Y-158084097D01*
X89922605Y-158299146D01*
X89562321Y-158591017D01*
X89172014Y-158553799D01*
X88968703Y-158531332D01*
X88818697Y-158508976D01*
X88756687Y-158492480D01*
X88743822Y-158476312D01*
X88755283Y-158454993D01*
X88809947Y-158415155D01*
X88926691Y-158343432D01*
X89124393Y-158226457D01*
X89172014Y-158198397D01*
X89828291Y-157756188D01*
X90417576Y-157239100D01*
X90949463Y-156636431D01*
X91433543Y-155937484D01*
X91825075Y-155239226D01*
X92123543Y-154655376D01*
X93293670Y-154655376D01*
X93477040Y-153944492D01*
X93666335Y-153025602D01*
X93828427Y-152029896D01*
X93954912Y-151022516D01*
X93982501Y-150708114D01*
X94005649Y-150325582D01*
X94024229Y-149893135D01*
X94038113Y-149428991D01*
X94047174Y-148951367D01*
X94051284Y-148478479D01*
X94050316Y-148028545D01*
X94044142Y-147619781D01*
X94032634Y-147270405D01*
X94015665Y-146998633D01*
X93993108Y-146822683D01*
X93984556Y-146789182D01*
X93951458Y-146698345D01*
X93933070Y-146693744D01*
X93924220Y-146787510D01*
X93920569Y-146939300D01*
X93901074Y-147416375D01*
X93859056Y-147982911D01*
X93798067Y-148611138D01*
X93721656Y-149273288D01*
X93633375Y-149941593D01*
X93536774Y-150588281D01*
X93435405Y-151185586D01*
X93332819Y-151705737D01*
X93283149Y-151924169D01*
X93191403Y-152289877D01*
X93094161Y-152650559D01*
X92996977Y-152988367D01*
X92905406Y-153285449D01*
X92825000Y-153523956D01*
X92761315Y-153686037D01*
X92719904Y-153753843D01*
X92713795Y-153754044D01*
X92658639Y-153656840D01*
X92631068Y-153465892D01*
X92631041Y-153204330D01*
X92658511Y-152895283D01*
X92713435Y-152561880D01*
X92716104Y-152548840D01*
X92803085Y-152101293D01*
X92873764Y-151672928D01*
X92929815Y-151243359D01*
X92972909Y-150792198D01*
X93004719Y-150299059D01*
X93026916Y-149743555D01*
X93041173Y-149105300D01*
X93048155Y-148500530D01*
X93057515Y-147331118D01*
X92711866Y-147331118D01*
X92706098Y-147564444D01*
X92694186Y-147854966D01*
X92677175Y-148181838D01*
X92656108Y-148524213D01*
X92632031Y-148861246D01*
X92605988Y-149172090D01*
X92589452Y-149341192D01*
X92556094Y-149623043D01*
X92511774Y-149946235D01*
X92460433Y-150287193D01*
X92406013Y-150622341D01*
X92352458Y-150928103D01*
X92303710Y-151180902D01*
X92263712Y-151357164D01*
X92240595Y-151427345D01*
X92208173Y-151402958D01*
X92148703Y-151282685D01*
X92070311Y-151085470D01*
X91981123Y-150830256D01*
X91970152Y-150796849D01*
X91835061Y-150393993D01*
X91714253Y-150055698D01*
X91612300Y-149793468D01*
X91533771Y-149618806D01*
X91483236Y-149543217D01*
X91472074Y-149543102D01*
X91474092Y-149608119D01*
X91498011Y-149767161D01*
X91539866Y-149996979D01*
X91595692Y-150274322D01*
X91601319Y-150301071D01*
X91677989Y-150679653D01*
X91759648Y-151108035D01*
X91834420Y-151522837D01*
X91872887Y-151750153D01*
X91989786Y-152466690D01*
X91807318Y-152990584D01*
X91654633Y-153392323D01*
X91465830Y-153832859D01*
X91256809Y-154279106D01*
X91043471Y-154697976D01*
X90841718Y-155056382D01*
X90729086Y-155234215D01*
X90442742Y-155613449D01*
X90095257Y-156004120D01*
X89723039Y-156368424D01*
X89362494Y-156668557D01*
X89312541Y-156705082D01*
X89130803Y-156824585D01*
X88907003Y-156956251D01*
X88665123Y-157087951D01*
X88429144Y-157207558D01*
X88223046Y-157302946D01*
X88070810Y-157361987D01*
X87996418Y-157372553D01*
X87994959Y-157371387D01*
X88006013Y-157308960D01*
X88057938Y-157166434D01*
X88140166Y-156972233D01*
X88158434Y-156931638D01*
X88335716Y-156523662D01*
X88535143Y-156035315D01*
X88743660Y-155501046D01*
X88948211Y-154955302D01*
X89135741Y-154432532D01*
X89293195Y-153967186D01*
X89351067Y-153784690D01*
X89451136Y-153450202D01*
X89559104Y-153072158D01*
X89670113Y-152669434D01*
X89779304Y-152260902D01*
X89881818Y-151865435D01*
X89972797Y-151501908D01*
X90047380Y-151189195D01*
X90100710Y-150946168D01*
X90127928Y-150791701D01*
X90130399Y-150757472D01*
X90108506Y-150780479D01*
X90047435Y-150903218D01*
X89952349Y-151113810D01*
X89828410Y-151400379D01*
X89680780Y-151751047D01*
X89514622Y-152153935D01*
X89388847Y-152463650D01*
X89125151Y-153111719D01*
X88893302Y-153668120D01*
X88683508Y-154153832D01*
X88485974Y-154589831D01*
X88290906Y-154997094D01*
X88088512Y-155396599D01*
X87868997Y-155809323D01*
X87622567Y-156256242D01*
X87595941Y-156303845D01*
X87356441Y-156728475D01*
X87165407Y-157058426D01*
X87014900Y-157305043D01*
X86896978Y-157479673D01*
X86803701Y-157593659D01*
X86727130Y-157658346D01*
X86659322Y-157685081D01*
X86627322Y-157687764D01*
X86518493Y-157655778D01*
X86339171Y-157569449D01*
X86117307Y-157443218D01*
X85950543Y-157338115D01*
X85705775Y-157169704D01*
X85402643Y-156949566D01*
X85075008Y-156702896D01*
X84756733Y-156454887D01*
X84667967Y-156383852D01*
X84610405Y-156336700D01*
X81125678Y-156336700D01*
X81095655Y-156366724D01*
X81065631Y-156336700D01*
X81095655Y-156306676D01*
X81125678Y-156336700D01*
X84610405Y-156336700D01*
X84548431Y-156285934D01*
X81005584Y-156285934D01*
X80959682Y-156274560D01*
X80822477Y-156186583D01*
X80594715Y-156022531D01*
X80277146Y-155782931D01*
X80116097Y-155659071D01*
X79913876Y-155498440D01*
X79756548Y-155364976D01*
X79662583Y-155274902D01*
X79645023Y-155245330D01*
X79697913Y-155270773D01*
X79823674Y-155355640D01*
X80001597Y-155484090D01*
X80210970Y-155640282D01*
X80431081Y-155808377D01*
X80641219Y-155972532D01*
X80820673Y-156116908D01*
X80948732Y-156225663D01*
X81004683Y-156282957D01*
X81005584Y-156285934D01*
X84548431Y-156285934D01*
X84409513Y-156172140D01*
X84125748Y-155933987D01*
X83830421Y-155681569D01*
X83537281Y-155427060D01*
X83260078Y-155182638D01*
X83012561Y-154960477D01*
X82808479Y-154772753D01*
X82661582Y-154631642D01*
X82585618Y-154549320D01*
X82578749Y-154533753D01*
X82638816Y-154507431D01*
X82789349Y-154448604D01*
X83007969Y-154365848D01*
X83272293Y-154267741D01*
X83285800Y-154262773D01*
X84684372Y-153687234D01*
X86034447Y-153008797D01*
X87327917Y-152233456D01*
X88556673Y-151367204D01*
X89712605Y-150416033D01*
X90787604Y-149385938D01*
X91773561Y-148282910D01*
X92321837Y-147584809D01*
X92473468Y-147385805D01*
X92598523Y-147229277D01*
X92679955Y-147136163D01*
X92700789Y-147119442D01*
X92710444Y-147175836D01*
X92711866Y-147331118D01*
X93057515Y-147331118D01*
X93063776Y-146548993D01*
X93465261Y-145888473D01*
X94198082Y-144568233D01*
X94823755Y-143194859D01*
X95342503Y-141767684D01*
X95754547Y-140286041D01*
X96060112Y-138749262D01*
X96204977Y-137692019D01*
X96232972Y-137357614D01*
X96253730Y-136930774D01*
X96267252Y-136438940D01*
X96273537Y-135909552D01*
X96272586Y-135370052D01*
X96264398Y-134847881D01*
X96248973Y-134370479D01*
X96226311Y-133965287D01*
X96204977Y-133728899D01*
X95969351Y-132151944D01*
X95625671Y-130627359D01*
X95173824Y-129154869D01*
X94613699Y-127734202D01*
X93945183Y-126365086D01*
X93168165Y-125047247D01*
X92282532Y-123780412D01*
X91940242Y-123340719D01*
X91634546Y-122976530D01*
X91262177Y-122561140D01*
X90848389Y-122120630D01*
X90418433Y-121681079D01*
X89997563Y-121268570D01*
X89611030Y-120909183D01*
X89442227Y-120760732D01*
X88234553Y-119802093D01*
X86964765Y-118945327D01*
X85637418Y-118192421D01*
X84257067Y-117545359D01*
X82828268Y-117006126D01*
X81355575Y-116576708D01*
X79843545Y-116259089D01*
X78753811Y-116103137D01*
X78306942Y-116062702D01*
X77774279Y-116032837D01*
X77186990Y-116013782D01*
X76576245Y-116005777D01*
X75973215Y-116009063D01*
X75409067Y-116023882D01*
X74914973Y-116050472D01*
X74670596Y-116071609D01*
X73115546Y-116289351D01*
X71608834Y-116616883D01*
X70149179Y-117054735D01*
X68735302Y-117603435D01*
X67365922Y-118263512D01*
X66039760Y-119035495D01*
X64755535Y-119919913D01*
X64072250Y-120449915D01*
X63810146Y-120671888D01*
X63497516Y-120953191D01*
X63152582Y-121275850D01*
X62793566Y-121621888D01*
X62438688Y-121973329D01*
X62106169Y-122312197D01*
X61814232Y-122620517D01*
X61581096Y-122880311D01*
X61460194Y-123026818D01*
X61333155Y-123185075D01*
X61235467Y-123297136D01*
X61189981Y-123337644D01*
X61156769Y-123286459D01*
X61076414Y-123140410D01*
X60955463Y-122912060D01*
X60800466Y-122613970D01*
X60617971Y-122258699D01*
X60414526Y-121858809D01*
X60275547Y-121583670D01*
X59844632Y-120737032D01*
X59430209Y-119940142D01*
X59035870Y-119199213D01*
X58665204Y-118520461D01*
X58321803Y-117910097D01*
X58009256Y-117374336D01*
X57731156Y-116919392D01*
X57491091Y-116551479D01*
X57292653Y-116276810D01*
X57139433Y-116101599D01*
X57079131Y-116052061D01*
X56974860Y-115990197D01*
X56937461Y-115990631D01*
G37*
X56937461Y-115990631D02*
X56968906Y-116063006D01*
X57071167Y-116216965D01*
X57129837Y-116300036D01*
X57239590Y-116462042D01*
X57347124Y-116639863D01*
X57459187Y-116847721D01*
X57582528Y-117099836D01*
X57723893Y-117410427D01*
X57890031Y-117793715D01*
X58087690Y-118263919D01*
X58263661Y-118689412D01*
X58413319Y-119056807D01*
X58597899Y-119515998D01*
X58809398Y-120046619D01*
X59039813Y-120628304D01*
X59281141Y-121240687D01*
X59525382Y-121863402D01*
X59764531Y-122476083D01*
X59990588Y-123058365D01*
X60195548Y-123589881D01*
X60371411Y-124050265D01*
X60406403Y-124142632D01*
X60471221Y-124314049D01*
X60808030Y-123852851D01*
X60956946Y-123660033D01*
X61082692Y-123517680D01*
X61167868Y-123444438D01*
X61192099Y-123441245D01*
X61225702Y-123502549D01*
X61306922Y-123662949D01*
X61431298Y-123913322D01*
X61594368Y-124244551D01*
X61791670Y-124647514D01*
X62018744Y-125113092D01*
X62271126Y-125632164D01*
X62544356Y-126195611D01*
X62833971Y-126794312D01*
X62949547Y-127033627D01*
X63614946Y-128411253D01*
X64232398Y-129687885D01*
X64805546Y-130870977D01*
X65338038Y-131967983D01*
X65833519Y-132986356D01*
X66295633Y-133933550D01*
X66728027Y-134817019D01*
X67134345Y-135644215D01*
X67518234Y-136422594D01*
X67883339Y-137159608D01*
X68233305Y-137862711D01*
X68571777Y-138539357D01*
X68764444Y-138922988D01*
X69025570Y-139445268D01*
X69248549Y-139894248D01*
X69441311Y-140280236D01*
X69611786Y-140613541D01*
X69767905Y-140904474D01*
X69917597Y-141163344D01*
X70068794Y-141400459D01*
X70229424Y-141626129D01*
X70407420Y-141850663D01*
X70610709Y-142084371D01*
X70847224Y-142337561D01*
X71124895Y-142620544D01*
X71451650Y-142943628D01*
X71835422Y-143317123D01*
X72284139Y-143751337D01*
X72805733Y-144256581D01*
X73049319Y-144493298D01*
X73488681Y-144923208D01*
X73918528Y-145348307D01*
X74327643Y-145757194D01*
X74704810Y-146138469D01*
X75038815Y-146480730D01*
X75318440Y-146772575D01*
X75532471Y-147002604D01*
X75657056Y-147144129D01*
X75995886Y-147542521D01*
X76406754Y-148013600D01*
X76877645Y-148544279D01*
X77396542Y-149121469D01*
X77951429Y-149732083D01*
X78530287Y-150363033D01*
X79121102Y-151001232D01*
X79711855Y-151633592D01*
X80290531Y-152247024D01*
X80845113Y-152828442D01*
X81363585Y-153364758D01*
X81448423Y-153451685D01*
X81735357Y-153746063D01*
X81991555Y-154010508D01*
X82205944Y-154233460D01*
X82367451Y-154403356D01*
X82465003Y-154508636D01*
X82489496Y-154538649D01*
X82415690Y-154564944D01*
X82248467Y-154613054D01*
X82011242Y-154677010D01*
X81727436Y-154750841D01*
X81420464Y-154828579D01*
X81113746Y-154904253D01*
X80830700Y-154971896D01*
X80594743Y-155025537D01*
X80503584Y-155044866D01*
X80117939Y-155117583D01*
X79837674Y-155155881D01*
X79653326Y-155160461D01*
X79555429Y-155132026D01*
X79540933Y-155116259D01*
X79483564Y-155059658D01*
X79353753Y-154947167D01*
X79173288Y-154797355D01*
X79041999Y-154691049D01*
X78573669Y-154315358D01*
X79047551Y-154762311D01*
X79521434Y-155209265D01*
X79317764Y-155245715D01*
X78956765Y-155297929D01*
X78524082Y-155340226D01*
X78036111Y-155372723D01*
X77509245Y-155395542D01*
X76959878Y-155408802D01*
X76404405Y-155412624D01*
X75859221Y-155407127D01*
X75340720Y-155392432D01*
X74865296Y-155368658D01*
X74449343Y-155335925D01*
X74109256Y-155294354D01*
X73861430Y-155244064D01*
X73754049Y-155204987D01*
X73685387Y-155134141D01*
X73563861Y-154969493D01*
X73395946Y-154721652D01*
X73188119Y-154401226D01*
X72946853Y-154018823D01*
X72678625Y-153585053D01*
X72389911Y-153110523D01*
X72087186Y-152605841D01*
X71776926Y-152081617D01*
X71465606Y-151548459D01*
X71159702Y-151016975D01*
X70865689Y-150497774D01*
X70706174Y-150211877D01*
X70453050Y-149763213D01*
X70181193Y-149294792D01*
X69906453Y-148833002D01*
X69644676Y-148404230D01*
X69411713Y-148034863D01*
X69263598Y-147809986D01*
X69041993Y-147471613D01*
X68784633Y-147060505D01*
X68511778Y-146610158D01*
X68243689Y-146154070D01*
X68000628Y-145725734D01*
X67976309Y-145681786D01*
X67677892Y-145154576D01*
X67384440Y-144667310D01*
X67074847Y-144187232D01*
X66728002Y-143681587D01*
X66331677Y-143129777D01*
X65482982Y-141943992D01*
X64680991Y-140772442D01*
X63907059Y-139586233D01*
X63142543Y-138356472D01*
X62368800Y-137054265D01*
X62009255Y-136431026D01*
X61793508Y-136060293D01*
X61597182Y-135740282D01*
X61402580Y-135445918D01*
X61192007Y-135152125D01*
X60947767Y-134833827D01*
X60652163Y-134465949D01*
X60441369Y-134209277D01*
X60150444Y-133856384D01*
X59861065Y-133504384D01*
X59589640Y-133173309D01*
X59352577Y-132883193D01*
X59166287Y-132654066D01*
X59088743Y-132557977D01*
X58902122Y-132328081D01*
X58665838Y-132040615D01*
X58407963Y-131729553D01*
X58156567Y-131428868D01*
X58115003Y-131379457D01*
X57910314Y-131131610D01*
X57736629Y-130912190D01*
X57607516Y-130739064D01*
X57536542Y-130630098D01*
X57527097Y-130605317D01*
X57543116Y-130515145D01*
X57584338Y-130351270D01*
X57640504Y-130148986D01*
X57701359Y-129943588D01*
X57756647Y-129770371D01*
X57796110Y-129664630D01*
X57804874Y-129649428D01*
X57857304Y-129673742D01*
X57969972Y-129762975D01*
X58109700Y-129889618D01*
X58248276Y-130014495D01*
X58313147Y-130055872D01*
X58300570Y-130011428D01*
X58297262Y-130005967D01*
X58213310Y-129859993D01*
X58110029Y-129668273D01*
X58069281Y-129589476D01*
X57987338Y-129435448D01*
X57937081Y-129375639D01*
X57897511Y-129396346D01*
X57863038Y-129454925D01*
X57830721Y-129504056D01*
X57789905Y-129520893D01*
X57725156Y-129495784D01*
X57621039Y-129419077D01*
X57462117Y-129281123D01*
X57232955Y-129072268D01*
X57194426Y-129036856D01*
X56514792Y-128417226D01*
X55909323Y-127876826D01*
X55369074Y-127408197D01*
X54885100Y-127003876D01*
X54448457Y-126656403D01*
X54050198Y-126358318D01*
X53681379Y-126102160D01*
X53654047Y-126084028D01*
X53165207Y-125781339D01*
X52746907Y-125565872D01*
X52401227Y-125438363D01*
X52130249Y-125399552D01*
X51936051Y-125450175D01*
X51912676Y-125466291D01*
X51848574Y-125522438D01*
X51860507Y-125549858D01*
X51965869Y-125559240D01*
X52066050Y-125560559D01*
X52333753Y-125600263D01*
X52599365Y-125727319D01*
X52611193Y-125734759D01*
X52821511Y-125883361D01*
X53093910Y-126098237D01*
X53406258Y-126360037D01*
X53736424Y-126649416D01*
X54062275Y-126947024D01*
X54361680Y-127233515D01*
X54584780Y-127460090D01*
X54770066Y-127657595D01*
X55004786Y-127910811D01*
X55276617Y-128206162D01*
X55573239Y-128530075D01*
X55882332Y-128868975D01*
X56191573Y-129209288D01*
X56488643Y-129537440D01*
X56761220Y-129839857D01*
X56996982Y-130102964D01*
X57183610Y-130313187D01*
X57308782Y-130456951D01*
X57349843Y-130506401D01*
X57482191Y-130674655D01*
X57319782Y-131406150D01*
X57186369Y-132041511D01*
X57082633Y-132622986D01*
X57004649Y-133184521D01*
X56948491Y-133760064D01*
X56910233Y-134383562D01*
X56885951Y-135088964D01*
X56883900Y-135175867D01*
X56876374Y-136152059D01*
X56902541Y-137043168D01*
X56965515Y-137880245D01*
X57068406Y-138694343D01*
X57214327Y-139516513D01*
X57404409Y-140369637D01*
X57820066Y-141833337D01*
X58345539Y-143253633D01*
X58976599Y-144624755D01*
X59709018Y-145940934D01*
X60538566Y-147196401D01*
X61461014Y-148385387D01*
X62472134Y-149502122D01*
X63567696Y-150540837D01*
X64743471Y-151495763D01*
X65995231Y-152361131D01*
X66360362Y-152587566D01*
X67606515Y-153279352D01*
X68910075Y-153884499D01*
X70251068Y-154395482D01*
X71609519Y-154804776D01*
X72965454Y-155104856D01*
X73109366Y-155130150D01*
X73425020Y-155194401D01*
X73628690Y-155260668D01*
X73726926Y-155329350D01*
X73781398Y-155407026D01*
X73893614Y-155568820D01*
X74053309Y-155799869D01*
X74250217Y-156085308D01*
X74474073Y-156410274D01*
X74650698Y-156666960D01*
X75309668Y-157602497D01*
X75929571Y-158434545D01*
X76517170Y-159170624D01*
X77079225Y-159818251D01*
X77622499Y-160384946D01*
X78153751Y-160878227D01*
X78679745Y-161305613D01*
X79076709Y-161588677D01*
X79426571Y-161802293D01*
X79829335Y-162014006D01*
X80246796Y-162206133D01*
X80640748Y-162360990D01*
X80948603Y-162455102D01*
X81441035Y-162542531D01*
X81973893Y-162581410D01*
X82494835Y-162569944D01*
X82878650Y-162521289D01*
X83590235Y-162325425D01*
X84272222Y-162013392D01*
X84923692Y-161585643D01*
X85149202Y-161404570D01*
X85323266Y-161269021D01*
X85464955Y-161198661D01*
X85626045Y-161172996D01*
X85740538Y-161170506D01*
X86545243Y-161123344D01*
X87361762Y-160987144D01*
X87555947Y-160934441D01*
X83118300Y-160934441D01*
X83035169Y-160986582D01*
X82957120Y-161010956D01*
X82843230Y-161024059D01*
X82646238Y-161030481D01*
X82403002Y-161029267D01*
X82326624Y-161027275D01*
X81976350Y-161001984D01*
X81687320Y-160943802D01*
X81439198Y-160857018D01*
X81033304Y-160671691D01*
X80670057Y-160459460D01*
X80317074Y-160198080D01*
X79941969Y-159865306D01*
X79808987Y-159737182D01*
X79612742Y-159541685D01*
X79466878Y-159389557D01*
X79382202Y-159292670D01*
X79369519Y-159262893D01*
X79384307Y-159270663D01*
X80004950Y-159656132D01*
X80541219Y-159963526D01*
X80997687Y-160195459D01*
X81019534Y-160205601D01*
X81341777Y-160343720D01*
X81710839Y-160484867D01*
X82093337Y-160617817D01*
X82455886Y-160731342D01*
X82765102Y-160814217D01*
X82927844Y-160847330D01*
X83082305Y-160886792D01*
X83118300Y-160934441D01*
X87555947Y-160934441D01*
X88162433Y-160769837D01*
X88919592Y-160479354D01*
X89605574Y-160123623D01*
X89784348Y-160011293D01*
X89991122Y-159890982D01*
X90194369Y-159797472D01*
X90312912Y-159760051D01*
X90469264Y-159713601D01*
X90689014Y-159629697D01*
X90928461Y-159525217D01*
X90963385Y-159508810D01*
X91443738Y-159215286D01*
X91444516Y-159214555D01*
X85596950Y-159214555D01*
X85577032Y-159262161D01*
X85520903Y-159326529D01*
X85507658Y-159340631D01*
X85432535Y-159414709D01*
X85357879Y-159460507D01*
X85260468Y-159478727D01*
X85117080Y-159470068D01*
X84904495Y-159435232D01*
X84599492Y-159374920D01*
X84569995Y-159368933D01*
X84324611Y-159314218D01*
X84043489Y-159243834D01*
X83748362Y-159164206D01*
X83460962Y-159081764D01*
X83203023Y-159002934D01*
X82996278Y-158934144D01*
X82862459Y-158881823D01*
X82823300Y-158852397D01*
X82823345Y-158852351D01*
X82888292Y-158852103D01*
X83042658Y-158870331D01*
X83257820Y-158903404D01*
X83349464Y-158919091D01*
X83611428Y-158958947D01*
X83949139Y-159001449D01*
X84318504Y-159041442D01*
X84666391Y-159073047D01*
X85036236Y-159103231D01*
X85300300Y-159128048D01*
X85472498Y-159151924D01*
X85566744Y-159179284D01*
X85596950Y-159214555D01*
X91444516Y-159214555D01*
X91860241Y-158824442D01*
X92208874Y-158343087D01*
X92485617Y-157778030D01*
X92686452Y-157136079D01*
X92807360Y-156424046D01*
X92812246Y-156376619D01*
X92854496Y-156118409D01*
X92928700Y-155812229D01*
X93019535Y-155520507D01*
X93028390Y-155496038D01*
X93263428Y-154772619D01*
X93293670Y-154655376D01*
X92123543Y-154655376D01*
X92097349Y-155084876D01*
X92070809Y-155346425D01*
X92016762Y-155560860D01*
X91917928Y-155785221D01*
X91842659Y-155925538D01*
X91331700Y-156752009D01*
X90776933Y-157469957D01*
X90174542Y-158084097D01*
X89922605Y-158299146D01*
X89562321Y-158591017D01*
X89172014Y-158553799D01*
X88968703Y-158531332D01*
X88818697Y-158508976D01*
X88756687Y-158492480D01*
X88743822Y-158476312D01*
X88755283Y-158454993D01*
X88809947Y-158415155D01*
X88926691Y-158343432D01*
X89124393Y-158226457D01*
X89172014Y-158198397D01*
X89828291Y-157756188D01*
X90417576Y-157239100D01*
X90949463Y-156636431D01*
X91433543Y-155937484D01*
X91825075Y-155239226D01*
X92123543Y-154655376D01*
X93293670Y-154655376D01*
X93477040Y-153944492D01*
X93666335Y-153025602D01*
X93828427Y-152029896D01*
X93954912Y-151022516D01*
X93982501Y-150708114D01*
X94005649Y-150325582D01*
X94024229Y-149893135D01*
X94038113Y-149428991D01*
X94047174Y-148951367D01*
X94051284Y-148478479D01*
X94050316Y-148028545D01*
X94044142Y-147619781D01*
X94032634Y-147270405D01*
X94015665Y-146998633D01*
X93993108Y-146822683D01*
X93984556Y-146789182D01*
X93951458Y-146698345D01*
X93933070Y-146693744D01*
X93924220Y-146787510D01*
X93920569Y-146939300D01*
X93901074Y-147416375D01*
X93859056Y-147982911D01*
X93798067Y-148611138D01*
X93721656Y-149273288D01*
X93633375Y-149941593D01*
X93536774Y-150588281D01*
X93435405Y-151185586D01*
X93332819Y-151705737D01*
X93283149Y-151924169D01*
X93191403Y-152289877D01*
X93094161Y-152650559D01*
X92996977Y-152988367D01*
X92905406Y-153285449D01*
X92825000Y-153523956D01*
X92761315Y-153686037D01*
X92719904Y-153753843D01*
X92713795Y-153754044D01*
X92658639Y-153656840D01*
X92631068Y-153465892D01*
X92631041Y-153204330D01*
X92658511Y-152895283D01*
X92713435Y-152561880D01*
X92716104Y-152548840D01*
X92803085Y-152101293D01*
X92873764Y-151672928D01*
X92929815Y-151243359D01*
X92972909Y-150792198D01*
X93004719Y-150299059D01*
X93026916Y-149743555D01*
X93041173Y-149105300D01*
X93048155Y-148500530D01*
X93057515Y-147331118D01*
X92711866Y-147331118D01*
X92706098Y-147564444D01*
X92694186Y-147854966D01*
X92677175Y-148181838D01*
X92656108Y-148524213D01*
X92632031Y-148861246D01*
X92605988Y-149172090D01*
X92589452Y-149341192D01*
X92556094Y-149623043D01*
X92511774Y-149946235D01*
X92460433Y-150287193D01*
X92406013Y-150622341D01*
X92352458Y-150928103D01*
X92303710Y-151180902D01*
X92263712Y-151357164D01*
X92240595Y-151427345D01*
X92208173Y-151402958D01*
X92148703Y-151282685D01*
X92070311Y-151085470D01*
X91981123Y-150830256D01*
X91970152Y-150796849D01*
X91835061Y-150393993D01*
X91714253Y-150055698D01*
X91612300Y-149793468D01*
X91533771Y-149618806D01*
X91483236Y-149543217D01*
X91472074Y-149543102D01*
X91474092Y-149608119D01*
X91498011Y-149767161D01*
X91539866Y-149996979D01*
X91595692Y-150274322D01*
X91601319Y-150301071D01*
X91677989Y-150679653D01*
X91759648Y-151108035D01*
X91834420Y-151522837D01*
X91872887Y-151750153D01*
X91989786Y-152466690D01*
X91807318Y-152990584D01*
X91654633Y-153392323D01*
X91465830Y-153832859D01*
X91256809Y-154279106D01*
X91043471Y-154697976D01*
X90841718Y-155056382D01*
X90729086Y-155234215D01*
X90442742Y-155613449D01*
X90095257Y-156004120D01*
X89723039Y-156368424D01*
X89362494Y-156668557D01*
X89312541Y-156705082D01*
X89130803Y-156824585D01*
X88907003Y-156956251D01*
X88665123Y-157087951D01*
X88429144Y-157207558D01*
X88223046Y-157302946D01*
X88070810Y-157361987D01*
X87996418Y-157372553D01*
X87994959Y-157371387D01*
X88006013Y-157308960D01*
X88057938Y-157166434D01*
X88140166Y-156972233D01*
X88158434Y-156931638D01*
X88335716Y-156523662D01*
X88535143Y-156035315D01*
X88743660Y-155501046D01*
X88948211Y-154955302D01*
X89135741Y-154432532D01*
X89293195Y-153967186D01*
X89351067Y-153784690D01*
X89451136Y-153450202D01*
X89559104Y-153072158D01*
X89670113Y-152669434D01*
X89779304Y-152260902D01*
X89881818Y-151865435D01*
X89972797Y-151501908D01*
X90047380Y-151189195D01*
X90100710Y-150946168D01*
X90127928Y-150791701D01*
X90130399Y-150757472D01*
X90108506Y-150780479D01*
X90047435Y-150903218D01*
X89952349Y-151113810D01*
X89828410Y-151400379D01*
X89680780Y-151751047D01*
X89514622Y-152153935D01*
X89388847Y-152463650D01*
X89125151Y-153111719D01*
X88893302Y-153668120D01*
X88683508Y-154153832D01*
X88485974Y-154589831D01*
X88290906Y-154997094D01*
X88088512Y-155396599D01*
X87868997Y-155809323D01*
X87622567Y-156256242D01*
X87595941Y-156303845D01*
X87356441Y-156728475D01*
X87165407Y-157058426D01*
X87014900Y-157305043D01*
X86896978Y-157479673D01*
X86803701Y-157593659D01*
X86727130Y-157658346D01*
X86659322Y-157685081D01*
X86627322Y-157687764D01*
X86518493Y-157655778D01*
X86339171Y-157569449D01*
X86117307Y-157443218D01*
X85950543Y-157338115D01*
X85705775Y-157169704D01*
X85402643Y-156949566D01*
X85075008Y-156702896D01*
X84756733Y-156454887D01*
X84667967Y-156383852D01*
X84610405Y-156336700D01*
X81125678Y-156336700D01*
X81095655Y-156366724D01*
X81065631Y-156336700D01*
X81095655Y-156306676D01*
X81125678Y-156336700D01*
X84610405Y-156336700D01*
X84548431Y-156285934D01*
X81005584Y-156285934D01*
X80959682Y-156274560D01*
X80822477Y-156186583D01*
X80594715Y-156022531D01*
X80277146Y-155782931D01*
X80116097Y-155659071D01*
X79913876Y-155498440D01*
X79756548Y-155364976D01*
X79662583Y-155274902D01*
X79645023Y-155245330D01*
X79697913Y-155270773D01*
X79823674Y-155355640D01*
X80001597Y-155484090D01*
X80210970Y-155640282D01*
X80431081Y-155808377D01*
X80641219Y-155972532D01*
X80820673Y-156116908D01*
X80948732Y-156225663D01*
X81004683Y-156282957D01*
X81005584Y-156285934D01*
X84548431Y-156285934D01*
X84409513Y-156172140D01*
X84125748Y-155933987D01*
X83830421Y-155681569D01*
X83537281Y-155427060D01*
X83260078Y-155182638D01*
X83012561Y-154960477D01*
X82808479Y-154772753D01*
X82661582Y-154631642D01*
X82585618Y-154549320D01*
X82578749Y-154533753D01*
X82638816Y-154507431D01*
X82789349Y-154448604D01*
X83007969Y-154365848D01*
X83272293Y-154267741D01*
X83285800Y-154262773D01*
X84684372Y-153687234D01*
X86034447Y-153008797D01*
X87327917Y-152233456D01*
X88556673Y-151367204D01*
X89712605Y-150416033D01*
X90787604Y-149385938D01*
X91773561Y-148282910D01*
X92321837Y-147584809D01*
X92473468Y-147385805D01*
X92598523Y-147229277D01*
X92679955Y-147136163D01*
X92700789Y-147119442D01*
X92710444Y-147175836D01*
X92711866Y-147331118D01*
X93057515Y-147331118D01*
X93063776Y-146548993D01*
X93465261Y-145888473D01*
X94198082Y-144568233D01*
X94823755Y-143194859D01*
X95342503Y-141767684D01*
X95754547Y-140286041D01*
X96060112Y-138749262D01*
X96204977Y-137692019D01*
X96232972Y-137357614D01*
X96253730Y-136930774D01*
X96267252Y-136438940D01*
X96273537Y-135909552D01*
X96272586Y-135370052D01*
X96264398Y-134847881D01*
X96248973Y-134370479D01*
X96226311Y-133965287D01*
X96204977Y-133728899D01*
X95969351Y-132151944D01*
X95625671Y-130627359D01*
X95173824Y-129154869D01*
X94613699Y-127734202D01*
X93945183Y-126365086D01*
X93168165Y-125047247D01*
X92282532Y-123780412D01*
X91940242Y-123340719D01*
X91634546Y-122976530D01*
X91262177Y-122561140D01*
X90848389Y-122120630D01*
X90418433Y-121681079D01*
X89997563Y-121268570D01*
X89611030Y-120909183D01*
X89442227Y-120760732D01*
X88234553Y-119802093D01*
X86964765Y-118945327D01*
X85637418Y-118192421D01*
X84257067Y-117545359D01*
X82828268Y-117006126D01*
X81355575Y-116576708D01*
X79843545Y-116259089D01*
X78753811Y-116103137D01*
X78306942Y-116062702D01*
X77774279Y-116032837D01*
X77186990Y-116013782D01*
X76576245Y-116005777D01*
X75973215Y-116009063D01*
X75409067Y-116023882D01*
X74914973Y-116050472D01*
X74670596Y-116071609D01*
X73115546Y-116289351D01*
X71608834Y-116616883D01*
X70149179Y-117054735D01*
X68735302Y-117603435D01*
X67365922Y-118263512D01*
X66039760Y-119035495D01*
X64755535Y-119919913D01*
X64072250Y-120449915D01*
X63810146Y-120671888D01*
X63497516Y-120953191D01*
X63152582Y-121275850D01*
X62793566Y-121621888D01*
X62438688Y-121973329D01*
X62106169Y-122312197D01*
X61814232Y-122620517D01*
X61581096Y-122880311D01*
X61460194Y-123026818D01*
X61333155Y-123185075D01*
X61235467Y-123297136D01*
X61189981Y-123337644D01*
X61156769Y-123286459D01*
X61076414Y-123140410D01*
X60955463Y-122912060D01*
X60800466Y-122613970D01*
X60617971Y-122258699D01*
X60414526Y-121858809D01*
X60275547Y-121583670D01*
X59844632Y-120737032D01*
X59430209Y-119940142D01*
X59035870Y-119199213D01*
X58665204Y-118520461D01*
X58321803Y-117910097D01*
X58009256Y-117374336D01*
X57731156Y-116919392D01*
X57491091Y-116551479D01*
X57292653Y-116276810D01*
X57139433Y-116101599D01*
X57079131Y-116052061D01*
X56974860Y-115990197D01*
X56937461Y-115990631D01*
D11*
%TO.C,U5*%
X152422860Y-81300320D02*
X165221920Y-81300320D01*
X152422860Y-71099680D02*
X152422860Y-81300320D01*
X165221920Y-71099680D02*
X152422860Y-71099680D01*
X165221920Y-81300320D02*
X165221920Y-71099680D01*
X152422860Y-76200000D02*
X149423120Y-76200000D01*
X152422860Y-78099920D02*
X149423120Y-78099920D01*
X152422860Y-74300080D02*
X149423120Y-74300080D01*
X156723080Y-68699380D02*
X165922960Y-68699380D01*
X156723080Y-71099680D02*
X156723080Y-68699380D01*
X156723080Y-83700620D02*
X165722300Y-83700620D01*
X156723080Y-81300320D02*
X156723080Y-83700620D01*
X156123640Y-85600540D02*
X154622500Y-85600540D01*
X155623260Y-84899500D02*
X154122120Y-84899500D01*
X154622500Y-84399120D02*
X154622500Y-84899500D01*
X154823160Y-84201000D02*
X154622500Y-84399120D01*
X155323540Y-84201000D02*
X154823160Y-84201000D01*
X155524200Y-84300060D02*
X155323540Y-84201000D01*
X155623260Y-84500720D02*
X155524200Y-84300060D01*
X155623260Y-84899500D02*
X155623260Y-84500720D01*
X155221940Y-82400140D02*
X155221940Y-83499960D01*
X154622500Y-77398880D02*
X154622500Y-77701140D01*
X154023060Y-77398880D02*
X154622500Y-77398880D01*
X153924000Y-77599540D02*
X154023060Y-77398880D01*
X154122120Y-78000860D02*
X153924000Y-77599540D01*
X154523440Y-78300580D02*
X154122120Y-78000860D01*
X155023820Y-78198980D02*
X154523440Y-78300580D01*
X155422600Y-77899260D02*
X155023820Y-78198980D01*
X155422600Y-77500480D02*
X155422600Y-77899260D01*
X155323540Y-77398880D02*
X155422600Y-77500480D01*
X153924000Y-75801220D02*
X155422600Y-75801220D01*
X155422600Y-76598780D02*
X153924000Y-75801220D01*
X153924000Y-76598780D02*
X155422600Y-76598780D01*
X155323540Y-74500740D02*
X155422600Y-75001120D01*
X155023820Y-74201020D02*
X155323540Y-74500740D01*
X154523440Y-74201020D02*
X155023820Y-74201020D01*
X154023060Y-74500740D02*
X154523440Y-74201020D01*
X153924000Y-75001120D02*
X154023060Y-74500740D01*
X155422600Y-75001120D02*
X153924000Y-75001120D01*
X156022040Y-69799200D02*
X154421840Y-69799200D01*
X155422600Y-69100700D02*
X153924000Y-69100700D01*
X154421840Y-68600320D02*
X154421840Y-68999100D01*
X154724100Y-68399660D02*
X154421840Y-68600320D01*
X155221940Y-68399660D02*
X154724100Y-68399660D01*
X155422600Y-68699380D02*
X155221940Y-68399660D01*
X155422600Y-69100700D02*
X155422600Y-68699380D01*
X155023820Y-66499740D02*
X155023820Y-67701160D01*
X155623260Y-67099180D02*
X154421840Y-67099180D01*
X150924260Y-71800720D02*
X151122380Y-72199500D01*
X150522940Y-71699120D02*
X150924260Y-71800720D01*
X149923500Y-71800720D02*
X150522940Y-71699120D01*
X149623780Y-71998840D02*
X149923500Y-71800720D01*
X149623780Y-72400160D02*
X149623780Y-71998840D01*
X149923500Y-72699880D02*
X149623780Y-72400160D01*
X150322280Y-72798940D02*
X149923500Y-72699880D01*
X150924260Y-72699880D02*
X150322280Y-72798940D01*
X151122380Y-72400160D02*
X150924260Y-72699880D01*
X151122380Y-72199500D02*
X151122380Y-72400160D01*
X149722840Y-70401180D02*
X150622000Y-70401180D01*
X149623780Y-70700900D02*
X149722840Y-70401180D01*
X149722840Y-71000620D02*
X149623780Y-70700900D01*
X150622000Y-71000620D02*
X149722840Y-71000620D01*
X149623780Y-69499480D02*
X149623780Y-69298820D01*
X149722840Y-69700140D02*
X149623780Y-69499480D01*
X151223980Y-69700140D02*
X149722840Y-69700140D01*
X150622000Y-69298820D02*
X150622000Y-69900800D01*
X150022560Y-82400140D02*
X151323040Y-81899760D01*
X151323040Y-82900520D02*
X150022560Y-82400140D01*
X149821900Y-81000600D02*
X149923500Y-80799940D01*
X149821900Y-81300320D02*
X149821900Y-81000600D01*
X150223220Y-81500980D02*
X149821900Y-81300320D01*
X150723600Y-81399380D02*
X150223220Y-81500980D01*
X150822660Y-81000600D02*
X150723600Y-81399380D01*
X150822660Y-80700880D02*
X150822660Y-81000600D01*
X149722840Y-79799180D02*
X149923500Y-79499460D01*
X149923500Y-79999840D02*
X149722840Y-79799180D01*
X150322280Y-80200500D02*
X149923500Y-79999840D01*
X150723600Y-79999840D02*
X150322280Y-80200500D01*
X150822660Y-79700120D02*
X150723600Y-79999840D01*
X150723600Y-79400400D02*
X150822660Y-79700120D01*
X174070259Y-76761244D02*
X173260735Y-76761244D01*
X173165497Y-76713625D01*
X173117878Y-76666006D01*
X173070259Y-76570768D01*
X173070259Y-76380292D01*
X173117878Y-76285054D01*
X173165497Y-76237435D01*
X173260735Y-76189816D01*
X174070259Y-76189816D01*
X174070259Y-75237435D02*
X174070259Y-75713625D01*
X173594068Y-75761244D01*
X173641687Y-75713625D01*
X173689306Y-75618387D01*
X173689306Y-75380292D01*
X173641687Y-75285054D01*
X173594068Y-75237435D01*
X173498830Y-75189816D01*
X173260735Y-75189816D01*
X173165497Y-75237435D01*
X173117878Y-75285054D01*
X173070259Y-75380292D01*
X173070259Y-75618387D01*
X173117878Y-75713625D01*
X173165497Y-75761244D01*
%TD*%
M02*
