%TF.GenerationSoftware,KiCad,Pcbnew,(5.1.10)-1*%
%TF.CreationDate,2021-12-10T12:48:03-06:00*%
%TF.ProjectId,BMS_2022_Rev1,424d535f-3230-4323-925f-526576312e6b,rev?*%
%TF.SameCoordinates,Original*%
%TF.FileFunction,Soldermask,Top*%
%TF.FilePolarity,Negative*%
%FSLAX46Y46*%
G04 Gerber Fmt 4.6, Leading zero omitted, Abs format (unit mm)*
G04 Created by KiCad (PCBNEW (5.1.10)-1) date 2021-12-10 12:48:03*
%MOMM*%
%LPD*%
G01*
G04 APERTURE LIST*
%ADD10R,1.530000X1.530000*%
%ADD11C,1.530000*%
%ADD12C,1.270000*%
%ADD13C,1.100000*%
%ADD14C,4.000000*%
%ADD15C,1.400000*%
%ADD16C,2.000000*%
%ADD17C,1.520000*%
%ADD18R,1.520000X1.520000*%
%ADD19C,1.308000*%
%ADD20C,1.258000*%
%ADD21C,1.208000*%
%ADD22R,0.800000X0.900000*%
%ADD23C,18.288000*%
%ADD24O,5.588000X9.144000*%
%ADD25C,1.501140*%
%ADD26C,1.524000*%
%ADD27R,10.800000X9.400000*%
%ADD28R,0.800000X4.600000*%
%ADD29R,1.050000X1.500000*%
%ADD30O,1.050000X1.500000*%
%ADD31O,1.350000X1.350000*%
%ADD32R,1.350000X1.350000*%
%ADD33R,6.000000X2.500000*%
%ADD34R,0.900000X0.800000*%
%ADD35O,1.500000X1.050000*%
%ADD36R,1.500000X1.050000*%
%ADD37C,1.600000*%
%ADD38R,1.600000X1.600000*%
%ADD39C,5.080000*%
G04 APERTURE END LIST*
D10*
%TO.C,SW2*%
X35560000Y-134569200D03*
D11*
X35560000Y-131572000D03*
D12*
X33604200Y-137566400D03*
X33604200Y-125577600D03*
D11*
X35560000Y-128574800D03*
%TD*%
D10*
%TO.C,Conn5*%
X34798000Y-147802600D03*
D11*
X34798000Y-144805400D03*
D12*
X32842200Y-150799800D03*
X32842200Y-141808200D03*
%TD*%
%TO.C,U6*%
G36*
G01*
X58294000Y-78128000D02*
X58294000Y-77828000D01*
G75*
G02*
X58444000Y-77678000I150000J0D01*
G01*
X59744000Y-77678000D01*
G75*
G02*
X59894000Y-77828000I0J-150000D01*
G01*
X59894000Y-78128000D01*
G75*
G02*
X59744000Y-78278000I-150000J0D01*
G01*
X58444000Y-78278000D01*
G75*
G02*
X58294000Y-78128000I0J150000D01*
G01*
G37*
G36*
G01*
X58294000Y-79398000D02*
X58294000Y-79098000D01*
G75*
G02*
X58444000Y-78948000I150000J0D01*
G01*
X59744000Y-78948000D01*
G75*
G02*
X59894000Y-79098000I0J-150000D01*
G01*
X59894000Y-79398000D01*
G75*
G02*
X59744000Y-79548000I-150000J0D01*
G01*
X58444000Y-79548000D01*
G75*
G02*
X58294000Y-79398000I0J150000D01*
G01*
G37*
G36*
G01*
X58294000Y-80668000D02*
X58294000Y-80368000D01*
G75*
G02*
X58444000Y-80218000I150000J0D01*
G01*
X59744000Y-80218000D01*
G75*
G02*
X59894000Y-80368000I0J-150000D01*
G01*
X59894000Y-80668000D01*
G75*
G02*
X59744000Y-80818000I-150000J0D01*
G01*
X58444000Y-80818000D01*
G75*
G02*
X58294000Y-80668000I0J150000D01*
G01*
G37*
G36*
G01*
X58294000Y-81938000D02*
X58294000Y-81638000D01*
G75*
G02*
X58444000Y-81488000I150000J0D01*
G01*
X59744000Y-81488000D01*
G75*
G02*
X59894000Y-81638000I0J-150000D01*
G01*
X59894000Y-81938000D01*
G75*
G02*
X59744000Y-82088000I-150000J0D01*
G01*
X58444000Y-82088000D01*
G75*
G02*
X58294000Y-81938000I0J150000D01*
G01*
G37*
G36*
G01*
X65494000Y-81938000D02*
X65494000Y-81638000D01*
G75*
G02*
X65644000Y-81488000I150000J0D01*
G01*
X66944000Y-81488000D01*
G75*
G02*
X67094000Y-81638000I0J-150000D01*
G01*
X67094000Y-81938000D01*
G75*
G02*
X66944000Y-82088000I-150000J0D01*
G01*
X65644000Y-82088000D01*
G75*
G02*
X65494000Y-81938000I0J150000D01*
G01*
G37*
G36*
G01*
X65494000Y-80668000D02*
X65494000Y-80368000D01*
G75*
G02*
X65644000Y-80218000I150000J0D01*
G01*
X66944000Y-80218000D01*
G75*
G02*
X67094000Y-80368000I0J-150000D01*
G01*
X67094000Y-80668000D01*
G75*
G02*
X66944000Y-80818000I-150000J0D01*
G01*
X65644000Y-80818000D01*
G75*
G02*
X65494000Y-80668000I0J150000D01*
G01*
G37*
G36*
G01*
X65494000Y-79398000D02*
X65494000Y-79098000D01*
G75*
G02*
X65644000Y-78948000I150000J0D01*
G01*
X66944000Y-78948000D01*
G75*
G02*
X67094000Y-79098000I0J-150000D01*
G01*
X67094000Y-79398000D01*
G75*
G02*
X66944000Y-79548000I-150000J0D01*
G01*
X65644000Y-79548000D01*
G75*
G02*
X65494000Y-79398000I0J150000D01*
G01*
G37*
G36*
G01*
X65494000Y-78128000D02*
X65494000Y-77828000D01*
G75*
G02*
X65644000Y-77678000I150000J0D01*
G01*
X66944000Y-77678000D01*
G75*
G02*
X67094000Y-77828000I0J-150000D01*
G01*
X67094000Y-78128000D01*
G75*
G02*
X66944000Y-78278000I-150000J0D01*
G01*
X65644000Y-78278000D01*
G75*
G02*
X65494000Y-78128000I0J150000D01*
G01*
G37*
%TD*%
D13*
%TO.C,J4*%
X68580000Y-45131000D03*
X71120000Y-45131000D03*
X73660000Y-45131000D03*
X76200000Y-45131000D03*
X69850000Y-42591000D03*
X72390000Y-42591000D03*
X74930000Y-42591000D03*
X77470000Y-42591000D03*
D14*
X67310000Y-36241000D03*
X78740000Y-36241000D03*
D15*
X69240000Y-31161000D03*
X76810000Y-32951000D03*
X66700000Y-32951000D03*
X79350000Y-31161000D03*
D16*
X80900000Y-39291000D03*
X65150000Y-39291000D03*
%TD*%
D12*
%TO.C,Conn3*%
X93396060Y-30662000D03*
X123395999Y-30662000D03*
D17*
X96396007Y-28702000D03*
X99396006Y-28702000D03*
X102396006Y-28702000D03*
X105396005Y-28702000D03*
X108396004Y-28702000D03*
X111396003Y-28702000D03*
X114396002Y-28702000D03*
X117396001Y-28702000D03*
D18*
X120396000Y-28702000D03*
%TD*%
D12*
%TO.C,Conn2*%
X93396060Y-39552000D03*
X123395999Y-39552000D03*
D17*
X96396007Y-37592000D03*
X99396006Y-37592000D03*
X102396006Y-37592000D03*
X105396005Y-37592000D03*
X108396004Y-37592000D03*
X111396003Y-37592000D03*
X114396002Y-37592000D03*
X117396001Y-37592000D03*
D18*
X120396000Y-37592000D03*
%TD*%
%TO.C,C8*%
G36*
G01*
X65802500Y-47876000D02*
X66277500Y-47876000D01*
G75*
G02*
X66515000Y-48113500I0J-237500D01*
G01*
X66515000Y-48713500D01*
G75*
G02*
X66277500Y-48951000I-237500J0D01*
G01*
X65802500Y-48951000D01*
G75*
G02*
X65565000Y-48713500I0J237500D01*
G01*
X65565000Y-48113500D01*
G75*
G02*
X65802500Y-47876000I237500J0D01*
G01*
G37*
G36*
G01*
X65802500Y-49601000D02*
X66277500Y-49601000D01*
G75*
G02*
X66515000Y-49838500I0J-237500D01*
G01*
X66515000Y-50438500D01*
G75*
G02*
X66277500Y-50676000I-237500J0D01*
G01*
X65802500Y-50676000D01*
G75*
G02*
X65565000Y-50438500I0J237500D01*
G01*
X65565000Y-49838500D01*
G75*
G02*
X65802500Y-49601000I237500J0D01*
G01*
G37*
%TD*%
D11*
%TO.C,J2*%
X34290000Y-157276800D03*
D12*
X32334200Y-154279600D03*
X32334200Y-166268400D03*
D11*
X34290000Y-160274000D03*
D10*
X34290000Y-163271200D03*
%TD*%
D19*
%TO.C,U1*%
X101600000Y-98425000D03*
X104140000Y-98425000D03*
X106680000Y-98425000D03*
X109220000Y-98425000D03*
X111760000Y-98425000D03*
X114300000Y-98425000D03*
X116840000Y-98425000D03*
X119380000Y-98425000D03*
X121920000Y-98425000D03*
X121920000Y-113665000D03*
X119380000Y-113665000D03*
X116840000Y-113665000D03*
X114300000Y-113665000D03*
X111760000Y-113665000D03*
X109220000Y-113665000D03*
X106680000Y-113665000D03*
X104140000Y-113665000D03*
X101600000Y-113665000D03*
X63500000Y-98425000D03*
X66040000Y-98425000D03*
X68580000Y-98425000D03*
X71120000Y-98425000D03*
X73660000Y-98425000D03*
X76200000Y-98425000D03*
X78740000Y-98425000D03*
X81280000Y-98425000D03*
X83820000Y-98425000D03*
X86360000Y-98425000D03*
X88900000Y-98425000D03*
X91440000Y-98425000D03*
X93980000Y-98425000D03*
X96520000Y-98425000D03*
X99060000Y-113665000D03*
X96520000Y-113665000D03*
X93980000Y-113665000D03*
X91440000Y-113665000D03*
X88900000Y-113665000D03*
X86360000Y-113665000D03*
X83820000Y-113665000D03*
X81280000Y-113665000D03*
X78740000Y-113665000D03*
X76200000Y-113665000D03*
X73660000Y-113665000D03*
X71120000Y-113665000D03*
X68580000Y-113665000D03*
D20*
X80010000Y-110615000D03*
X77470000Y-110615000D03*
X74930000Y-110615000D03*
X72390000Y-110615000D03*
X69850000Y-110615000D03*
D21*
X76470000Y-104875000D03*
X76470000Y-102875000D03*
X78470000Y-104875000D03*
X78470000Y-102875000D03*
X76470000Y-100875000D03*
X78470000Y-100875000D03*
D19*
X99060000Y-98425000D03*
X109220000Y-103505000D03*
X66040000Y-100965000D03*
X109220000Y-100965000D03*
X109220000Y-106045000D03*
X109220000Y-108585000D03*
X109220000Y-111125000D03*
X66040000Y-113665000D03*
X63500000Y-113665000D03*
%TD*%
D22*
%TO.C,D3*%
X147193000Y-144716500D03*
X148143000Y-146716500D03*
X146243000Y-146716500D03*
%TD*%
D23*
%TO.C,V3*%
X167640000Y-156210000D03*
%TD*%
%TO.C,R10*%
G36*
G01*
X152085500Y-141367500D02*
X152085500Y-141842500D01*
G75*
G02*
X151848000Y-142080000I-237500J0D01*
G01*
X151348000Y-142080000D01*
G75*
G02*
X151110500Y-141842500I0J237500D01*
G01*
X151110500Y-141367500D01*
G75*
G02*
X151348000Y-141130000I237500J0D01*
G01*
X151848000Y-141130000D01*
G75*
G02*
X152085500Y-141367500I0J-237500D01*
G01*
G37*
G36*
G01*
X153910500Y-141367500D02*
X153910500Y-141842500D01*
G75*
G02*
X153673000Y-142080000I-237500J0D01*
G01*
X153173000Y-142080000D01*
G75*
G02*
X152935500Y-141842500I0J237500D01*
G01*
X152935500Y-141367500D01*
G75*
G02*
X153173000Y-141130000I237500J0D01*
G01*
X153673000Y-141130000D01*
G75*
G02*
X153910500Y-141367500I0J-237500D01*
G01*
G37*
%TD*%
%TO.C,C4*%
G36*
G01*
X78415000Y-147082500D02*
X78415000Y-147557500D01*
G75*
G02*
X78177500Y-147795000I-237500J0D01*
G01*
X77577500Y-147795000D01*
G75*
G02*
X77340000Y-147557500I0J237500D01*
G01*
X77340000Y-147082500D01*
G75*
G02*
X77577500Y-146845000I237500J0D01*
G01*
X78177500Y-146845000D01*
G75*
G02*
X78415000Y-147082500I0J-237500D01*
G01*
G37*
G36*
G01*
X80140000Y-147082500D02*
X80140000Y-147557500D01*
G75*
G02*
X79902500Y-147795000I-237500J0D01*
G01*
X79302500Y-147795000D01*
G75*
G02*
X79065000Y-147557500I0J237500D01*
G01*
X79065000Y-147082500D01*
G75*
G02*
X79302500Y-146845000I237500J0D01*
G01*
X79902500Y-146845000D01*
G75*
G02*
X80140000Y-147082500I0J-237500D01*
G01*
G37*
%TD*%
%TO.C,F1*%
G36*
G01*
X57035000Y-123379001D02*
X57035000Y-118428999D01*
G75*
G02*
X57284999Y-118179000I249999J0D01*
G01*
X58710001Y-118179000D01*
G75*
G02*
X58960000Y-118428999I0J-249999D01*
G01*
X58960000Y-123379001D01*
G75*
G02*
X58710001Y-123629000I-249999J0D01*
G01*
X57284999Y-123629000D01*
G75*
G02*
X57035000Y-123379001I0J249999D01*
G01*
G37*
G36*
G01*
X50260000Y-123379001D02*
X50260000Y-118428999D01*
G75*
G02*
X50509999Y-118179000I249999J0D01*
G01*
X51935001Y-118179000D01*
G75*
G02*
X52185000Y-118428999I0J-249999D01*
G01*
X52185000Y-123379001D01*
G75*
G02*
X51935001Y-123629000I-249999J0D01*
G01*
X50509999Y-123629000D01*
G75*
G02*
X50260000Y-123379001I0J249999D01*
G01*
G37*
%TD*%
%TO.C,V2*%
X167640000Y-46990000D03*
%TD*%
%TO.C,V1*%
X43180000Y-46990000D03*
%TD*%
D24*
%TO.C,U5*%
X169418000Y-81280000D03*
X169418000Y-71120000D03*
D25*
X147921980Y-76200000D03*
X147921980Y-74289920D03*
X147921980Y-78110080D03*
%TD*%
D26*
%TO.C,U4*%
X79375000Y-160655000D03*
X76835000Y-160655000D03*
X74295000Y-160655000D03*
%TD*%
%TO.C,U3*%
G36*
G01*
X149612000Y-123848000D02*
X149612000Y-123548000D01*
G75*
G02*
X149762000Y-123398000I150000J0D01*
G01*
X151062000Y-123398000D01*
G75*
G02*
X151212000Y-123548000I0J-150000D01*
G01*
X151212000Y-123848000D01*
G75*
G02*
X151062000Y-123998000I-150000J0D01*
G01*
X149762000Y-123998000D01*
G75*
G02*
X149612000Y-123848000I0J150000D01*
G01*
G37*
G36*
G01*
X149612000Y-125118000D02*
X149612000Y-124818000D01*
G75*
G02*
X149762000Y-124668000I150000J0D01*
G01*
X151062000Y-124668000D01*
G75*
G02*
X151212000Y-124818000I0J-150000D01*
G01*
X151212000Y-125118000D01*
G75*
G02*
X151062000Y-125268000I-150000J0D01*
G01*
X149762000Y-125268000D01*
G75*
G02*
X149612000Y-125118000I0J150000D01*
G01*
G37*
G36*
G01*
X149612000Y-126388000D02*
X149612000Y-126088000D01*
G75*
G02*
X149762000Y-125938000I150000J0D01*
G01*
X151062000Y-125938000D01*
G75*
G02*
X151212000Y-126088000I0J-150000D01*
G01*
X151212000Y-126388000D01*
G75*
G02*
X151062000Y-126538000I-150000J0D01*
G01*
X149762000Y-126538000D01*
G75*
G02*
X149612000Y-126388000I0J150000D01*
G01*
G37*
G36*
G01*
X149612000Y-127658000D02*
X149612000Y-127358000D01*
G75*
G02*
X149762000Y-127208000I150000J0D01*
G01*
X151062000Y-127208000D01*
G75*
G02*
X151212000Y-127358000I0J-150000D01*
G01*
X151212000Y-127658000D01*
G75*
G02*
X151062000Y-127808000I-150000J0D01*
G01*
X149762000Y-127808000D01*
G75*
G02*
X149612000Y-127658000I0J150000D01*
G01*
G37*
G36*
G01*
X142412000Y-127658000D02*
X142412000Y-127358000D01*
G75*
G02*
X142562000Y-127208000I150000J0D01*
G01*
X143862000Y-127208000D01*
G75*
G02*
X144012000Y-127358000I0J-150000D01*
G01*
X144012000Y-127658000D01*
G75*
G02*
X143862000Y-127808000I-150000J0D01*
G01*
X142562000Y-127808000D01*
G75*
G02*
X142412000Y-127658000I0J150000D01*
G01*
G37*
G36*
G01*
X142412000Y-126388000D02*
X142412000Y-126088000D01*
G75*
G02*
X142562000Y-125938000I150000J0D01*
G01*
X143862000Y-125938000D01*
G75*
G02*
X144012000Y-126088000I0J-150000D01*
G01*
X144012000Y-126388000D01*
G75*
G02*
X143862000Y-126538000I-150000J0D01*
G01*
X142562000Y-126538000D01*
G75*
G02*
X142412000Y-126388000I0J150000D01*
G01*
G37*
G36*
G01*
X142412000Y-125118000D02*
X142412000Y-124818000D01*
G75*
G02*
X142562000Y-124668000I150000J0D01*
G01*
X143862000Y-124668000D01*
G75*
G02*
X144012000Y-124818000I0J-150000D01*
G01*
X144012000Y-125118000D01*
G75*
G02*
X143862000Y-125268000I-150000J0D01*
G01*
X142562000Y-125268000D01*
G75*
G02*
X142412000Y-125118000I0J150000D01*
G01*
G37*
G36*
G01*
X142412000Y-123848000D02*
X142412000Y-123548000D01*
G75*
G02*
X142562000Y-123398000I150000J0D01*
G01*
X143862000Y-123398000D01*
G75*
G02*
X144012000Y-123548000I0J-150000D01*
G01*
X144012000Y-123848000D01*
G75*
G02*
X143862000Y-123998000I-150000J0D01*
G01*
X142562000Y-123998000D01*
G75*
G02*
X142412000Y-123848000I0J150000D01*
G01*
G37*
%TD*%
%TO.C,U2*%
X52070000Y-159385000D03*
X49530000Y-159385000D03*
X46990000Y-159385000D03*
%TD*%
%TO.C,R16*%
G36*
G01*
X140100500Y-141367500D02*
X140100500Y-141842500D01*
G75*
G02*
X139863000Y-142080000I-237500J0D01*
G01*
X139363000Y-142080000D01*
G75*
G02*
X139125500Y-141842500I0J237500D01*
G01*
X139125500Y-141367500D01*
G75*
G02*
X139363000Y-141130000I237500J0D01*
G01*
X139863000Y-141130000D01*
G75*
G02*
X140100500Y-141367500I0J-237500D01*
G01*
G37*
G36*
G01*
X141925500Y-141367500D02*
X141925500Y-141842500D01*
G75*
G02*
X141688000Y-142080000I-237500J0D01*
G01*
X141188000Y-142080000D01*
G75*
G02*
X140950500Y-141842500I0J237500D01*
G01*
X140950500Y-141367500D01*
G75*
G02*
X141188000Y-141130000I237500J0D01*
G01*
X141688000Y-141130000D01*
G75*
G02*
X141925500Y-141367500I0J-237500D01*
G01*
G37*
%TD*%
%TO.C,R15*%
G36*
G01*
X150300500Y-166259500D02*
X150300500Y-166734500D01*
G75*
G02*
X150063000Y-166972000I-237500J0D01*
G01*
X149563000Y-166972000D01*
G75*
G02*
X149325500Y-166734500I0J237500D01*
G01*
X149325500Y-166259500D01*
G75*
G02*
X149563000Y-166022000I237500J0D01*
G01*
X150063000Y-166022000D01*
G75*
G02*
X150300500Y-166259500I0J-237500D01*
G01*
G37*
G36*
G01*
X152125500Y-166259500D02*
X152125500Y-166734500D01*
G75*
G02*
X151888000Y-166972000I-237500J0D01*
G01*
X151388000Y-166972000D01*
G75*
G02*
X151150500Y-166734500I0J237500D01*
G01*
X151150500Y-166259500D01*
G75*
G02*
X151388000Y-166022000I237500J0D01*
G01*
X151888000Y-166022000D01*
G75*
G02*
X152125500Y-166259500I0J-237500D01*
G01*
G37*
%TD*%
%TO.C,R14*%
G36*
G01*
X131842500Y-102937500D02*
X132317500Y-102937500D01*
G75*
G02*
X132555000Y-103175000I0J-237500D01*
G01*
X132555000Y-103675000D01*
G75*
G02*
X132317500Y-103912500I-237500J0D01*
G01*
X131842500Y-103912500D01*
G75*
G02*
X131605000Y-103675000I0J237500D01*
G01*
X131605000Y-103175000D01*
G75*
G02*
X131842500Y-102937500I237500J0D01*
G01*
G37*
G36*
G01*
X131842500Y-101112500D02*
X132317500Y-101112500D01*
G75*
G02*
X132555000Y-101350000I0J-237500D01*
G01*
X132555000Y-101850000D01*
G75*
G02*
X132317500Y-102087500I-237500J0D01*
G01*
X131842500Y-102087500D01*
G75*
G02*
X131605000Y-101850000I0J237500D01*
G01*
X131605000Y-101350000D01*
G75*
G02*
X131842500Y-101112500I237500J0D01*
G01*
G37*
%TD*%
%TO.C,R13*%
G36*
G01*
X108982500Y-122258000D02*
X109457500Y-122258000D01*
G75*
G02*
X109695000Y-122495500I0J-237500D01*
G01*
X109695000Y-122995500D01*
G75*
G02*
X109457500Y-123233000I-237500J0D01*
G01*
X108982500Y-123233000D01*
G75*
G02*
X108745000Y-122995500I0J237500D01*
G01*
X108745000Y-122495500D01*
G75*
G02*
X108982500Y-122258000I237500J0D01*
G01*
G37*
G36*
G01*
X108982500Y-120433000D02*
X109457500Y-120433000D01*
G75*
G02*
X109695000Y-120670500I0J-237500D01*
G01*
X109695000Y-121170500D01*
G75*
G02*
X109457500Y-121408000I-237500J0D01*
G01*
X108982500Y-121408000D01*
G75*
G02*
X108745000Y-121170500I0J237500D01*
G01*
X108745000Y-120670500D01*
G75*
G02*
X108982500Y-120433000I237500J0D01*
G01*
G37*
%TD*%
%TO.C,R12*%
G36*
G01*
X84090500Y-165167500D02*
X84565500Y-165167500D01*
G75*
G02*
X84803000Y-165405000I0J-237500D01*
G01*
X84803000Y-165905000D01*
G75*
G02*
X84565500Y-166142500I-237500J0D01*
G01*
X84090500Y-166142500D01*
G75*
G02*
X83853000Y-165905000I0J237500D01*
G01*
X83853000Y-165405000D01*
G75*
G02*
X84090500Y-165167500I237500J0D01*
G01*
G37*
G36*
G01*
X84090500Y-163342500D02*
X84565500Y-163342500D01*
G75*
G02*
X84803000Y-163580000I0J-237500D01*
G01*
X84803000Y-164080000D01*
G75*
G02*
X84565500Y-164317500I-237500J0D01*
G01*
X84090500Y-164317500D01*
G75*
G02*
X83853000Y-164080000I0J237500D01*
G01*
X83853000Y-163580000D01*
G75*
G02*
X84090500Y-163342500I237500J0D01*
G01*
G37*
%TD*%
%TO.C,R11*%
G36*
G01*
X145895500Y-141367500D02*
X145895500Y-141842500D01*
G75*
G02*
X145658000Y-142080000I-237500J0D01*
G01*
X145158000Y-142080000D01*
G75*
G02*
X144920500Y-141842500I0J237500D01*
G01*
X144920500Y-141367500D01*
G75*
G02*
X145158000Y-141130000I237500J0D01*
G01*
X145658000Y-141130000D01*
G75*
G02*
X145895500Y-141367500I0J-237500D01*
G01*
G37*
G36*
G01*
X147720500Y-141367500D02*
X147720500Y-141842500D01*
G75*
G02*
X147483000Y-142080000I-237500J0D01*
G01*
X146983000Y-142080000D01*
G75*
G02*
X146745500Y-141842500I0J237500D01*
G01*
X146745500Y-141367500D01*
G75*
G02*
X146983000Y-141130000I237500J0D01*
G01*
X147483000Y-141130000D01*
G75*
G02*
X147720500Y-141367500I0J-237500D01*
G01*
G37*
%TD*%
%TO.C,R5*%
G36*
G01*
X117669500Y-172703500D02*
X117669500Y-172228500D01*
G75*
G02*
X117907000Y-171991000I237500J0D01*
G01*
X118407000Y-171991000D01*
G75*
G02*
X118644500Y-172228500I0J-237500D01*
G01*
X118644500Y-172703500D01*
G75*
G02*
X118407000Y-172941000I-237500J0D01*
G01*
X117907000Y-172941000D01*
G75*
G02*
X117669500Y-172703500I0J237500D01*
G01*
G37*
G36*
G01*
X115844500Y-172703500D02*
X115844500Y-172228500D01*
G75*
G02*
X116082000Y-171991000I237500J0D01*
G01*
X116582000Y-171991000D01*
G75*
G02*
X116819500Y-172228500I0J-237500D01*
G01*
X116819500Y-172703500D01*
G75*
G02*
X116582000Y-172941000I-237500J0D01*
G01*
X116082000Y-172941000D01*
G75*
G02*
X115844500Y-172703500I0J237500D01*
G01*
G37*
%TD*%
%TO.C,R4*%
G36*
G01*
X136889500Y-161222500D02*
X136414500Y-161222500D01*
G75*
G02*
X136177000Y-160985000I0J237500D01*
G01*
X136177000Y-160485000D01*
G75*
G02*
X136414500Y-160247500I237500J0D01*
G01*
X136889500Y-160247500D01*
G75*
G02*
X137127000Y-160485000I0J-237500D01*
G01*
X137127000Y-160985000D01*
G75*
G02*
X136889500Y-161222500I-237500J0D01*
G01*
G37*
G36*
G01*
X136889500Y-163047500D02*
X136414500Y-163047500D01*
G75*
G02*
X136177000Y-162810000I0J237500D01*
G01*
X136177000Y-162310000D01*
G75*
G02*
X136414500Y-162072500I237500J0D01*
G01*
X136889500Y-162072500D01*
G75*
G02*
X137127000Y-162310000I0J-237500D01*
G01*
X137127000Y-162810000D01*
G75*
G02*
X136889500Y-163047500I-237500J0D01*
G01*
G37*
%TD*%
%TO.C,R2*%
G36*
G01*
X152420500Y-162797500D02*
X152420500Y-162322500D01*
G75*
G02*
X152658000Y-162085000I237500J0D01*
G01*
X153158000Y-162085000D01*
G75*
G02*
X153395500Y-162322500I0J-237500D01*
G01*
X153395500Y-162797500D01*
G75*
G02*
X153158000Y-163035000I-237500J0D01*
G01*
X152658000Y-163035000D01*
G75*
G02*
X152420500Y-162797500I0J237500D01*
G01*
G37*
G36*
G01*
X150595500Y-162797500D02*
X150595500Y-162322500D01*
G75*
G02*
X150833000Y-162085000I237500J0D01*
G01*
X151333000Y-162085000D01*
G75*
G02*
X151570500Y-162322500I0J-237500D01*
G01*
X151570500Y-162797500D01*
G75*
G02*
X151333000Y-163035000I-237500J0D01*
G01*
X150833000Y-163035000D01*
G75*
G02*
X150595500Y-162797500I0J237500D01*
G01*
G37*
%TD*%
%TO.C,R1*%
G36*
G01*
X124951500Y-171382500D02*
X124476500Y-171382500D01*
G75*
G02*
X124239000Y-171145000I0J237500D01*
G01*
X124239000Y-170645000D01*
G75*
G02*
X124476500Y-170407500I237500J0D01*
G01*
X124951500Y-170407500D01*
G75*
G02*
X125189000Y-170645000I0J-237500D01*
G01*
X125189000Y-171145000D01*
G75*
G02*
X124951500Y-171382500I-237500J0D01*
G01*
G37*
G36*
G01*
X124951500Y-173207500D02*
X124476500Y-173207500D01*
G75*
G02*
X124239000Y-172970000I0J237500D01*
G01*
X124239000Y-172470000D01*
G75*
G02*
X124476500Y-172232500I237500J0D01*
G01*
X124951500Y-172232500D01*
G75*
G02*
X125189000Y-172470000I0J-237500D01*
G01*
X125189000Y-172970000D01*
G75*
G02*
X124951500Y-173207500I-237500J0D01*
G01*
G37*
%TD*%
D27*
%TO.C,Q4*%
X161036000Y-121339000D03*
D28*
X164846000Y-130489000D03*
X163576000Y-130489000D03*
X162306000Y-130489000D03*
X159766000Y-130489000D03*
X158496000Y-130489000D03*
X157226000Y-130489000D03*
%TD*%
D29*
%TO.C,Q1*%
X117348000Y-165354000D03*
D30*
X114808000Y-165354000D03*
X116078000Y-165354000D03*
%TD*%
D31*
%TO.C,J5*%
X74740000Y-48546000D03*
X74740000Y-50546000D03*
X76740000Y-48546000D03*
X76740000Y-50546000D03*
X78740000Y-48546000D03*
D32*
X78740000Y-50546000D03*
%TD*%
D11*
%TO.C,J3*%
X139700000Y-172720000D03*
X136702800Y-172720000D03*
D12*
X142709900Y-170764200D03*
X127698500Y-170764200D03*
D11*
X133705600Y-172720000D03*
D10*
X130708400Y-172720000D03*
%TD*%
D11*
%TO.C,J1*%
X99060000Y-140970000D03*
D12*
X96062800Y-142925800D03*
X108051600Y-142925800D03*
D11*
X102057200Y-140970000D03*
D10*
X105054400Y-140970000D03*
%TD*%
D18*
%TO.C,Conn1*%
X35560000Y-116840000D03*
D17*
X35560000Y-113840001D03*
X35560000Y-110840002D03*
X35560000Y-107840003D03*
X35560000Y-104840004D03*
X35560000Y-101840005D03*
X35560000Y-98840006D03*
X35560000Y-95840006D03*
D12*
X33600000Y-119839999D03*
X33600000Y-92840053D03*
%TD*%
%TO.C,C7*%
G36*
G01*
X50882500Y-154448500D02*
X50882500Y-154923500D01*
G75*
G02*
X50645000Y-155161000I-237500J0D01*
G01*
X50045000Y-155161000D01*
G75*
G02*
X49807500Y-154923500I0J237500D01*
G01*
X49807500Y-154448500D01*
G75*
G02*
X50045000Y-154211000I237500J0D01*
G01*
X50645000Y-154211000D01*
G75*
G02*
X50882500Y-154448500I0J-237500D01*
G01*
G37*
G36*
G01*
X52607500Y-154448500D02*
X52607500Y-154923500D01*
G75*
G02*
X52370000Y-155161000I-237500J0D01*
G01*
X51770000Y-155161000D01*
G75*
G02*
X51532500Y-154923500I0J237500D01*
G01*
X51532500Y-154448500D01*
G75*
G02*
X51770000Y-154211000I237500J0D01*
G01*
X52370000Y-154211000D01*
G75*
G02*
X52607500Y-154448500I0J-237500D01*
G01*
G37*
%TD*%
%TO.C,C6*%
G36*
G01*
X50882500Y-149368500D02*
X50882500Y-149843500D01*
G75*
G02*
X50645000Y-150081000I-237500J0D01*
G01*
X50045000Y-150081000D01*
G75*
G02*
X49807500Y-149843500I0J237500D01*
G01*
X49807500Y-149368500D01*
G75*
G02*
X50045000Y-149131000I237500J0D01*
G01*
X50645000Y-149131000D01*
G75*
G02*
X50882500Y-149368500I0J-237500D01*
G01*
G37*
G36*
G01*
X52607500Y-149368500D02*
X52607500Y-149843500D01*
G75*
G02*
X52370000Y-150081000I-237500J0D01*
G01*
X51770000Y-150081000D01*
G75*
G02*
X51532500Y-149843500I0J237500D01*
G01*
X51532500Y-149368500D01*
G75*
G02*
X51770000Y-149131000I237500J0D01*
G01*
X52370000Y-149131000D01*
G75*
G02*
X52607500Y-149368500I0J-237500D01*
G01*
G37*
%TD*%
%TO.C,C3*%
G36*
G01*
X78415000Y-152162500D02*
X78415000Y-152637500D01*
G75*
G02*
X78177500Y-152875000I-237500J0D01*
G01*
X77577500Y-152875000D01*
G75*
G02*
X77340000Y-152637500I0J237500D01*
G01*
X77340000Y-152162500D01*
G75*
G02*
X77577500Y-151925000I237500J0D01*
G01*
X78177500Y-151925000D01*
G75*
G02*
X78415000Y-152162500I0J-237500D01*
G01*
G37*
G36*
G01*
X80140000Y-152162500D02*
X80140000Y-152637500D01*
G75*
G02*
X79902500Y-152875000I-237500J0D01*
G01*
X79302500Y-152875000D01*
G75*
G02*
X79065000Y-152637500I0J237500D01*
G01*
X79065000Y-152162500D01*
G75*
G02*
X79302500Y-151925000I237500J0D01*
G01*
X79902500Y-151925000D01*
G75*
G02*
X80140000Y-152162500I0J-237500D01*
G01*
G37*
%TD*%
%TO.C,C1*%
G36*
G01*
X151974500Y-119650500D02*
X151974500Y-120125500D01*
G75*
G02*
X151737000Y-120363000I-237500J0D01*
G01*
X151137000Y-120363000D01*
G75*
G02*
X150899500Y-120125500I0J237500D01*
G01*
X150899500Y-119650500D01*
G75*
G02*
X151137000Y-119413000I237500J0D01*
G01*
X151737000Y-119413000D01*
G75*
G02*
X151974500Y-119650500I0J-237500D01*
G01*
G37*
G36*
G01*
X153699500Y-119650500D02*
X153699500Y-120125500D01*
G75*
G02*
X153462000Y-120363000I-237500J0D01*
G01*
X152862000Y-120363000D01*
G75*
G02*
X152624500Y-120125500I0J237500D01*
G01*
X152624500Y-119650500D01*
G75*
G02*
X152862000Y-119413000I237500J0D01*
G01*
X153462000Y-119413000D01*
G75*
G02*
X153699500Y-119650500I0J-237500D01*
G01*
G37*
%TD*%
D33*
%TO.C,BZ1*%
X95096000Y-169926000D03*
X107696000Y-169926000D03*
%TD*%
%TO.C,D2*%
G36*
G01*
X57387000Y-103361500D02*
X57387000Y-102886500D01*
G75*
G02*
X57624500Y-102649000I237500J0D01*
G01*
X58199500Y-102649000D01*
G75*
G02*
X58437000Y-102886500I0J-237500D01*
G01*
X58437000Y-103361500D01*
G75*
G02*
X58199500Y-103599000I-237500J0D01*
G01*
X57624500Y-103599000D01*
G75*
G02*
X57387000Y-103361500I0J237500D01*
G01*
G37*
G36*
G01*
X59137000Y-103361500D02*
X59137000Y-102886500D01*
G75*
G02*
X59374500Y-102649000I237500J0D01*
G01*
X59949500Y-102649000D01*
G75*
G02*
X60187000Y-102886500I0J-237500D01*
G01*
X60187000Y-103361500D01*
G75*
G02*
X59949500Y-103599000I-237500J0D01*
G01*
X59374500Y-103599000D01*
G75*
G02*
X59137000Y-103361500I0J237500D01*
G01*
G37*
%TD*%
D34*
%TO.C,D8*%
X55626000Y-73472000D03*
X57626000Y-72522000D03*
X57626000Y-74422000D03*
%TD*%
%TO.C,D9*%
X58706000Y-85664000D03*
X58706000Y-87564000D03*
X60706000Y-86614000D03*
%TD*%
%TO.C,D10*%
X67564000Y-73406000D03*
X69564000Y-72456000D03*
X69564000Y-74356000D03*
%TD*%
%TO.C,D11*%
X64992000Y-89469000D03*
X64992000Y-87569000D03*
X62992000Y-88519000D03*
%TD*%
%TO.C,D12*%
X76724000Y-74168000D03*
X78724000Y-73218000D03*
X78724000Y-75118000D03*
%TD*%
%TO.C,D13*%
X78454500Y-84267000D03*
X78454500Y-86167000D03*
X80454500Y-85217000D03*
%TD*%
%TO.C,D14*%
X88884000Y-74168000D03*
X88884000Y-72268000D03*
X86884000Y-73218000D03*
%TD*%
%TO.C,D15*%
X85312000Y-89469000D03*
X85312000Y-87569000D03*
X83312000Y-88519000D03*
%TD*%
%TO.C,D16*%
X94758000Y-74168000D03*
X96758000Y-73218000D03*
X96758000Y-75118000D03*
%TD*%
%TO.C,D17*%
X98679000Y-84264500D03*
X98679000Y-86164500D03*
X100679000Y-85214500D03*
%TD*%
%TO.C,D18*%
X106458000Y-71691500D03*
X108458000Y-70741500D03*
X108458000Y-72641500D03*
%TD*%
%TO.C,D19*%
X105822500Y-89786500D03*
X105822500Y-87886500D03*
X103822500Y-88836500D03*
%TD*%
%TO.C,D20*%
X119221000Y-73594000D03*
X119221000Y-71694000D03*
X117221000Y-72644000D03*
%TD*%
%TO.C,D21*%
X119316500Y-85852000D03*
X117316500Y-86802000D03*
X117316500Y-84902000D03*
%TD*%
%TO.C,D22*%
X127079500Y-72707500D03*
X129079500Y-71757500D03*
X129079500Y-73657500D03*
%TD*%
%TO.C,D23*%
X122618500Y-88519000D03*
X124618500Y-87569000D03*
X124618500Y-89469000D03*
%TD*%
D35*
%TO.C,Q3*%
X48260000Y-105410000D03*
X48260000Y-104140000D03*
D36*
X48260000Y-106680000D03*
%TD*%
%TO.C,R8*%
G36*
G01*
X53931000Y-102886500D02*
X53931000Y-103361500D01*
G75*
G02*
X53693500Y-103599000I-237500J0D01*
G01*
X53193500Y-103599000D01*
G75*
G02*
X52956000Y-103361500I0J237500D01*
G01*
X52956000Y-102886500D01*
G75*
G02*
X53193500Y-102649000I237500J0D01*
G01*
X53693500Y-102649000D01*
G75*
G02*
X53931000Y-102886500I0J-237500D01*
G01*
G37*
G36*
G01*
X55756000Y-102886500D02*
X55756000Y-103361500D01*
G75*
G02*
X55518500Y-103599000I-237500J0D01*
G01*
X55018500Y-103599000D01*
G75*
G02*
X54781000Y-103361500I0J237500D01*
G01*
X54781000Y-102886500D01*
G75*
G02*
X55018500Y-102649000I237500J0D01*
G01*
X55518500Y-102649000D01*
G75*
G02*
X55756000Y-102886500I0J-237500D01*
G01*
G37*
%TD*%
%TO.C,R9*%
G36*
G01*
X53102500Y-105280000D02*
X53577500Y-105280000D01*
G75*
G02*
X53815000Y-105517500I0J-237500D01*
G01*
X53815000Y-106017500D01*
G75*
G02*
X53577500Y-106255000I-237500J0D01*
G01*
X53102500Y-106255000D01*
G75*
G02*
X52865000Y-106017500I0J237500D01*
G01*
X52865000Y-105517500D01*
G75*
G02*
X53102500Y-105280000I237500J0D01*
G01*
G37*
G36*
G01*
X53102500Y-107105000D02*
X53577500Y-107105000D01*
G75*
G02*
X53815000Y-107342500I0J-237500D01*
G01*
X53815000Y-107842500D01*
G75*
G02*
X53577500Y-108080000I-237500J0D01*
G01*
X53102500Y-108080000D01*
G75*
G02*
X52865000Y-107842500I0J237500D01*
G01*
X52865000Y-107342500D01*
G75*
G02*
X53102500Y-107105000I237500J0D01*
G01*
G37*
%TD*%
%TO.C,R17*%
G36*
G01*
X52320000Y-82900500D02*
X52320000Y-83375500D01*
G75*
G02*
X52082500Y-83613000I-237500J0D01*
G01*
X51582500Y-83613000D01*
G75*
G02*
X51345000Y-83375500I0J237500D01*
G01*
X51345000Y-82900500D01*
G75*
G02*
X51582500Y-82663000I237500J0D01*
G01*
X52082500Y-82663000D01*
G75*
G02*
X52320000Y-82900500I0J-237500D01*
G01*
G37*
G36*
G01*
X54145000Y-82900500D02*
X54145000Y-83375500D01*
G75*
G02*
X53907500Y-83613000I-237500J0D01*
G01*
X53407500Y-83613000D01*
G75*
G02*
X53170000Y-83375500I0J237500D01*
G01*
X53170000Y-82900500D01*
G75*
G02*
X53407500Y-82663000I237500J0D01*
G01*
X53907500Y-82663000D01*
G75*
G02*
X54145000Y-82900500I0J-237500D01*
G01*
G37*
%TD*%
%TO.C,R18*%
G36*
G01*
X52053500Y-79180500D02*
X51578500Y-79180500D01*
G75*
G02*
X51341000Y-78943000I0J237500D01*
G01*
X51341000Y-78443000D01*
G75*
G02*
X51578500Y-78205500I237500J0D01*
G01*
X52053500Y-78205500D01*
G75*
G02*
X52291000Y-78443000I0J-237500D01*
G01*
X52291000Y-78943000D01*
G75*
G02*
X52053500Y-79180500I-237500J0D01*
G01*
G37*
G36*
G01*
X52053500Y-81005500D02*
X51578500Y-81005500D01*
G75*
G02*
X51341000Y-80768000I0J237500D01*
G01*
X51341000Y-80268000D01*
G75*
G02*
X51578500Y-80030500I237500J0D01*
G01*
X52053500Y-80030500D01*
G75*
G02*
X52291000Y-80268000I0J-237500D01*
G01*
X52291000Y-80768000D01*
G75*
G02*
X52053500Y-81005500I-237500J0D01*
G01*
G37*
%TD*%
%TO.C,R19*%
G36*
G01*
X61705500Y-74655500D02*
X61230500Y-74655500D01*
G75*
G02*
X60993000Y-74418000I0J237500D01*
G01*
X60993000Y-73918000D01*
G75*
G02*
X61230500Y-73680500I237500J0D01*
G01*
X61705500Y-73680500D01*
G75*
G02*
X61943000Y-73918000I0J-237500D01*
G01*
X61943000Y-74418000D01*
G75*
G02*
X61705500Y-74655500I-237500J0D01*
G01*
G37*
G36*
G01*
X61705500Y-72830500D02*
X61230500Y-72830500D01*
G75*
G02*
X60993000Y-72593000I0J237500D01*
G01*
X60993000Y-72093000D01*
G75*
G02*
X61230500Y-71855500I237500J0D01*
G01*
X61705500Y-71855500D01*
G75*
G02*
X61943000Y-72093000I0J-237500D01*
G01*
X61943000Y-72593000D01*
G75*
G02*
X61705500Y-72830500I-237500J0D01*
G01*
G37*
%TD*%
%TO.C,R20*%
G36*
G01*
X57383500Y-77740500D02*
X57383500Y-78215500D01*
G75*
G02*
X57146000Y-78453000I-237500J0D01*
G01*
X56646000Y-78453000D01*
G75*
G02*
X56408500Y-78215500I0J237500D01*
G01*
X56408500Y-77740500D01*
G75*
G02*
X56646000Y-77503000I237500J0D01*
G01*
X57146000Y-77503000D01*
G75*
G02*
X57383500Y-77740500I0J-237500D01*
G01*
G37*
G36*
G01*
X55558500Y-77740500D02*
X55558500Y-78215500D01*
G75*
G02*
X55321000Y-78453000I-237500J0D01*
G01*
X54821000Y-78453000D01*
G75*
G02*
X54583500Y-78215500I0J237500D01*
G01*
X54583500Y-77740500D01*
G75*
G02*
X54821000Y-77503000I237500J0D01*
G01*
X55321000Y-77503000D01*
G75*
G02*
X55558500Y-77740500I0J-237500D01*
G01*
G37*
%TD*%
%TO.C,R21*%
G36*
G01*
X71654500Y-81550500D02*
X71654500Y-82025500D01*
G75*
G02*
X71417000Y-82263000I-237500J0D01*
G01*
X70917000Y-82263000D01*
G75*
G02*
X70679500Y-82025500I0J237500D01*
G01*
X70679500Y-81550500D01*
G75*
G02*
X70917000Y-81313000I237500J0D01*
G01*
X71417000Y-81313000D01*
G75*
G02*
X71654500Y-81550500I0J-237500D01*
G01*
G37*
G36*
G01*
X69829500Y-81550500D02*
X69829500Y-82025500D01*
G75*
G02*
X69592000Y-82263000I-237500J0D01*
G01*
X69092000Y-82263000D01*
G75*
G02*
X68854500Y-82025500I0J237500D01*
G01*
X68854500Y-81550500D01*
G75*
G02*
X69092000Y-81313000I237500J0D01*
G01*
X69592000Y-81313000D01*
G75*
G02*
X69829500Y-81550500I0J-237500D01*
G01*
G37*
%TD*%
%TO.C,R22*%
G36*
G01*
X65007500Y-72830500D02*
X64532500Y-72830500D01*
G75*
G02*
X64295000Y-72593000I0J237500D01*
G01*
X64295000Y-72093000D01*
G75*
G02*
X64532500Y-71855500I237500J0D01*
G01*
X65007500Y-71855500D01*
G75*
G02*
X65245000Y-72093000I0J-237500D01*
G01*
X65245000Y-72593000D01*
G75*
G02*
X65007500Y-72830500I-237500J0D01*
G01*
G37*
G36*
G01*
X65007500Y-74655500D02*
X64532500Y-74655500D01*
G75*
G02*
X64295000Y-74418000I0J237500D01*
G01*
X64295000Y-73918000D01*
G75*
G02*
X64532500Y-73680500I237500J0D01*
G01*
X65007500Y-73680500D01*
G75*
G02*
X65245000Y-73918000I0J-237500D01*
G01*
X65245000Y-74418000D01*
G75*
G02*
X65007500Y-74655500I-237500J0D01*
G01*
G37*
%TD*%
%TO.C,R23*%
G36*
G01*
X72627500Y-76480500D02*
X72152500Y-76480500D01*
G75*
G02*
X71915000Y-76243000I0J237500D01*
G01*
X71915000Y-75743000D01*
G75*
G02*
X72152500Y-75505500I237500J0D01*
G01*
X72627500Y-75505500D01*
G75*
G02*
X72865000Y-75743000I0J-237500D01*
G01*
X72865000Y-76243000D01*
G75*
G02*
X72627500Y-76480500I-237500J0D01*
G01*
G37*
G36*
G01*
X72627500Y-74655500D02*
X72152500Y-74655500D01*
G75*
G02*
X71915000Y-74418000I0J237500D01*
G01*
X71915000Y-73918000D01*
G75*
G02*
X72152500Y-73680500I237500J0D01*
G01*
X72627500Y-73680500D01*
G75*
G02*
X72865000Y-73918000I0J-237500D01*
G01*
X72865000Y-74418000D01*
G75*
G02*
X72627500Y-74655500I-237500J0D01*
G01*
G37*
%TD*%
%TO.C,R24*%
G36*
G01*
X64329500Y-85327500D02*
X64329500Y-84852500D01*
G75*
G02*
X64567000Y-84615000I237500J0D01*
G01*
X65067000Y-84615000D01*
G75*
G02*
X65304500Y-84852500I0J-237500D01*
G01*
X65304500Y-85327500D01*
G75*
G02*
X65067000Y-85565000I-237500J0D01*
G01*
X64567000Y-85565000D01*
G75*
G02*
X64329500Y-85327500I0J237500D01*
G01*
G37*
G36*
G01*
X62504500Y-85327500D02*
X62504500Y-84852500D01*
G75*
G02*
X62742000Y-84615000I237500J0D01*
G01*
X63242000Y-84615000D01*
G75*
G02*
X63479500Y-84852500I0J-237500D01*
G01*
X63479500Y-85327500D01*
G75*
G02*
X63242000Y-85565000I-237500J0D01*
G01*
X62742000Y-85565000D01*
G75*
G02*
X62504500Y-85327500I0J237500D01*
G01*
G37*
%TD*%
%TO.C,R25*%
G36*
G01*
X74655500Y-85313500D02*
X74655500Y-85788500D01*
G75*
G02*
X74418000Y-86026000I-237500J0D01*
G01*
X73918000Y-86026000D01*
G75*
G02*
X73680500Y-85788500I0J237500D01*
G01*
X73680500Y-85313500D01*
G75*
G02*
X73918000Y-85076000I237500J0D01*
G01*
X74418000Y-85076000D01*
G75*
G02*
X74655500Y-85313500I0J-237500D01*
G01*
G37*
G36*
G01*
X76480500Y-85313500D02*
X76480500Y-85788500D01*
G75*
G02*
X76243000Y-86026000I-237500J0D01*
G01*
X75743000Y-86026000D01*
G75*
G02*
X75505500Y-85788500I0J237500D01*
G01*
X75505500Y-85313500D01*
G75*
G02*
X75743000Y-85076000I237500J0D01*
G01*
X76243000Y-85076000D01*
G75*
G02*
X76480500Y-85313500I0J-237500D01*
G01*
G37*
%TD*%
%TO.C,R26*%
G36*
G01*
X74405500Y-82101500D02*
X73930500Y-82101500D01*
G75*
G02*
X73693000Y-81864000I0J237500D01*
G01*
X73693000Y-81364000D01*
G75*
G02*
X73930500Y-81126500I237500J0D01*
G01*
X74405500Y-81126500D01*
G75*
G02*
X74643000Y-81364000I0J-237500D01*
G01*
X74643000Y-81864000D01*
G75*
G02*
X74405500Y-82101500I-237500J0D01*
G01*
G37*
G36*
G01*
X74405500Y-83926500D02*
X73930500Y-83926500D01*
G75*
G02*
X73693000Y-83689000I0J237500D01*
G01*
X73693000Y-83189000D01*
G75*
G02*
X73930500Y-82951500I237500J0D01*
G01*
X74405500Y-82951500D01*
G75*
G02*
X74643000Y-83189000I0J-237500D01*
G01*
X74643000Y-83689000D01*
G75*
G02*
X74405500Y-83926500I-237500J0D01*
G01*
G37*
%TD*%
%TO.C,R27*%
G36*
G01*
X81771500Y-75417500D02*
X81296500Y-75417500D01*
G75*
G02*
X81059000Y-75180000I0J237500D01*
G01*
X81059000Y-74680000D01*
G75*
G02*
X81296500Y-74442500I237500J0D01*
G01*
X81771500Y-74442500D01*
G75*
G02*
X82009000Y-74680000I0J-237500D01*
G01*
X82009000Y-75180000D01*
G75*
G02*
X81771500Y-75417500I-237500J0D01*
G01*
G37*
G36*
G01*
X81771500Y-73592500D02*
X81296500Y-73592500D01*
G75*
G02*
X81059000Y-73355000I0J237500D01*
G01*
X81059000Y-72855000D01*
G75*
G02*
X81296500Y-72617500I237500J0D01*
G01*
X81771500Y-72617500D01*
G75*
G02*
X82009000Y-72855000I0J-237500D01*
G01*
X82009000Y-73355000D01*
G75*
G02*
X81771500Y-73592500I-237500J0D01*
G01*
G37*
%TD*%
%TO.C,R28*%
G36*
G01*
X76734500Y-77740500D02*
X76734500Y-78215500D01*
G75*
G02*
X76497000Y-78453000I-237500J0D01*
G01*
X75997000Y-78453000D01*
G75*
G02*
X75759500Y-78215500I0J237500D01*
G01*
X75759500Y-77740500D01*
G75*
G02*
X75997000Y-77503000I237500J0D01*
G01*
X76497000Y-77503000D01*
G75*
G02*
X76734500Y-77740500I0J-237500D01*
G01*
G37*
G36*
G01*
X74909500Y-77740500D02*
X74909500Y-78215500D01*
G75*
G02*
X74672000Y-78453000I-237500J0D01*
G01*
X74172000Y-78453000D01*
G75*
G02*
X73934500Y-78215500I0J237500D01*
G01*
X73934500Y-77740500D01*
G75*
G02*
X74172000Y-77503000I237500J0D01*
G01*
X74672000Y-77503000D01*
G75*
G02*
X74909500Y-77740500I0J-237500D01*
G01*
G37*
%TD*%
%TO.C,R29*%
G36*
G01*
X90704500Y-81550500D02*
X90704500Y-82025500D01*
G75*
G02*
X90467000Y-82263000I-237500J0D01*
G01*
X89967000Y-82263000D01*
G75*
G02*
X89729500Y-82025500I0J237500D01*
G01*
X89729500Y-81550500D01*
G75*
G02*
X89967000Y-81313000I237500J0D01*
G01*
X90467000Y-81313000D01*
G75*
G02*
X90704500Y-81550500I0J-237500D01*
G01*
G37*
G36*
G01*
X88879500Y-81550500D02*
X88879500Y-82025500D01*
G75*
G02*
X88642000Y-82263000I-237500J0D01*
G01*
X88142000Y-82263000D01*
G75*
G02*
X87904500Y-82025500I0J237500D01*
G01*
X87904500Y-81550500D01*
G75*
G02*
X88142000Y-81313000I237500J0D01*
G01*
X88642000Y-81313000D01*
G75*
G02*
X88879500Y-81550500I0J-237500D01*
G01*
G37*
%TD*%
%TO.C,R30*%
G36*
G01*
X84819500Y-73592500D02*
X84344500Y-73592500D01*
G75*
G02*
X84107000Y-73355000I0J237500D01*
G01*
X84107000Y-72855000D01*
G75*
G02*
X84344500Y-72617500I237500J0D01*
G01*
X84819500Y-72617500D01*
G75*
G02*
X85057000Y-72855000I0J-237500D01*
G01*
X85057000Y-73355000D01*
G75*
G02*
X84819500Y-73592500I-237500J0D01*
G01*
G37*
G36*
G01*
X84819500Y-75417500D02*
X84344500Y-75417500D01*
G75*
G02*
X84107000Y-75180000I0J237500D01*
G01*
X84107000Y-74680000D01*
G75*
G02*
X84344500Y-74442500I237500J0D01*
G01*
X84819500Y-74442500D01*
G75*
G02*
X85057000Y-74680000I0J-237500D01*
G01*
X85057000Y-75180000D01*
G75*
G02*
X84819500Y-75417500I-237500J0D01*
G01*
G37*
%TD*%
%TO.C,R31*%
G36*
G01*
X91677500Y-74608500D02*
X91202500Y-74608500D01*
G75*
G02*
X90965000Y-74371000I0J237500D01*
G01*
X90965000Y-73871000D01*
G75*
G02*
X91202500Y-73633500I237500J0D01*
G01*
X91677500Y-73633500D01*
G75*
G02*
X91915000Y-73871000I0J-237500D01*
G01*
X91915000Y-74371000D01*
G75*
G02*
X91677500Y-74608500I-237500J0D01*
G01*
G37*
G36*
G01*
X91677500Y-76433500D02*
X91202500Y-76433500D01*
G75*
G02*
X90965000Y-76196000I0J237500D01*
G01*
X90965000Y-75696000D01*
G75*
G02*
X91202500Y-75458500I237500J0D01*
G01*
X91677500Y-75458500D01*
G75*
G02*
X91915000Y-75696000I0J-237500D01*
G01*
X91915000Y-76196000D01*
G75*
G02*
X91677500Y-76433500I-237500J0D01*
G01*
G37*
%TD*%
%TO.C,R32*%
G36*
G01*
X84649500Y-85327500D02*
X84649500Y-84852500D01*
G75*
G02*
X84887000Y-84615000I237500J0D01*
G01*
X85387000Y-84615000D01*
G75*
G02*
X85624500Y-84852500I0J-237500D01*
G01*
X85624500Y-85327500D01*
G75*
G02*
X85387000Y-85565000I-237500J0D01*
G01*
X84887000Y-85565000D01*
G75*
G02*
X84649500Y-85327500I0J237500D01*
G01*
G37*
G36*
G01*
X82824500Y-85327500D02*
X82824500Y-84852500D01*
G75*
G02*
X83062000Y-84615000I237500J0D01*
G01*
X83562000Y-84615000D01*
G75*
G02*
X83799500Y-84852500I0J-237500D01*
G01*
X83799500Y-85327500D01*
G75*
G02*
X83562000Y-85565000I-237500J0D01*
G01*
X83062000Y-85565000D01*
G75*
G02*
X82824500Y-85327500I0J237500D01*
G01*
G37*
%TD*%
%TO.C,R33*%
G36*
G01*
X93658500Y-85233500D02*
X93658500Y-85708500D01*
G75*
G02*
X93421000Y-85946000I-237500J0D01*
G01*
X92921000Y-85946000D01*
G75*
G02*
X92683500Y-85708500I0J237500D01*
G01*
X92683500Y-85233500D01*
G75*
G02*
X92921000Y-84996000I237500J0D01*
G01*
X93421000Y-84996000D01*
G75*
G02*
X93658500Y-85233500I0J-237500D01*
G01*
G37*
G36*
G01*
X95483500Y-85233500D02*
X95483500Y-85708500D01*
G75*
G02*
X95246000Y-85946000I-237500J0D01*
G01*
X94746000Y-85946000D01*
G75*
G02*
X94508500Y-85708500I0J237500D01*
G01*
X94508500Y-85233500D01*
G75*
G02*
X94746000Y-84996000I237500J0D01*
G01*
X95246000Y-84996000D01*
G75*
G02*
X95483500Y-85233500I0J-237500D01*
G01*
G37*
%TD*%
%TO.C,R34*%
G36*
G01*
X93455500Y-81894500D02*
X92980500Y-81894500D01*
G75*
G02*
X92743000Y-81657000I0J237500D01*
G01*
X92743000Y-81157000D01*
G75*
G02*
X92980500Y-80919500I237500J0D01*
G01*
X93455500Y-80919500D01*
G75*
G02*
X93693000Y-81157000I0J-237500D01*
G01*
X93693000Y-81657000D01*
G75*
G02*
X93455500Y-81894500I-237500J0D01*
G01*
G37*
G36*
G01*
X93455500Y-83719500D02*
X92980500Y-83719500D01*
G75*
G02*
X92743000Y-83482000I0J237500D01*
G01*
X92743000Y-82982000D01*
G75*
G02*
X92980500Y-82744500I237500J0D01*
G01*
X93455500Y-82744500D01*
G75*
G02*
X93693000Y-82982000I0J-237500D01*
G01*
X93693000Y-83482000D01*
G75*
G02*
X93455500Y-83719500I-237500J0D01*
G01*
G37*
%TD*%
%TO.C,R35*%
G36*
G01*
X101075500Y-74067500D02*
X100600500Y-74067500D01*
G75*
G02*
X100363000Y-73830000I0J237500D01*
G01*
X100363000Y-73330000D01*
G75*
G02*
X100600500Y-73092500I237500J0D01*
G01*
X101075500Y-73092500D01*
G75*
G02*
X101313000Y-73330000I0J-237500D01*
G01*
X101313000Y-73830000D01*
G75*
G02*
X101075500Y-74067500I-237500J0D01*
G01*
G37*
G36*
G01*
X101075500Y-72242500D02*
X100600500Y-72242500D01*
G75*
G02*
X100363000Y-72005000I0J237500D01*
G01*
X100363000Y-71505000D01*
G75*
G02*
X100600500Y-71267500I237500J0D01*
G01*
X101075500Y-71267500D01*
G75*
G02*
X101313000Y-71505000I0J-237500D01*
G01*
X101313000Y-72005000D01*
G75*
G02*
X101075500Y-72242500I-237500J0D01*
G01*
G37*
%TD*%
%TO.C,R36*%
G36*
G01*
X97007500Y-77740500D02*
X97007500Y-78215500D01*
G75*
G02*
X96770000Y-78453000I-237500J0D01*
G01*
X96270000Y-78453000D01*
G75*
G02*
X96032500Y-78215500I0J237500D01*
G01*
X96032500Y-77740500D01*
G75*
G02*
X96270000Y-77503000I237500J0D01*
G01*
X96770000Y-77503000D01*
G75*
G02*
X97007500Y-77740500I0J-237500D01*
G01*
G37*
G36*
G01*
X95182500Y-77740500D02*
X95182500Y-78215500D01*
G75*
G02*
X94945000Y-78453000I-237500J0D01*
G01*
X94445000Y-78453000D01*
G75*
G02*
X94207500Y-78215500I0J237500D01*
G01*
X94207500Y-77740500D01*
G75*
G02*
X94445000Y-77503000I237500J0D01*
G01*
X94945000Y-77503000D01*
G75*
G02*
X95182500Y-77740500I0J-237500D01*
G01*
G37*
%TD*%
%TO.C,R37*%
G36*
G01*
X110770500Y-81550500D02*
X110770500Y-82025500D01*
G75*
G02*
X110533000Y-82263000I-237500J0D01*
G01*
X110033000Y-82263000D01*
G75*
G02*
X109795500Y-82025500I0J237500D01*
G01*
X109795500Y-81550500D01*
G75*
G02*
X110033000Y-81313000I237500J0D01*
G01*
X110533000Y-81313000D01*
G75*
G02*
X110770500Y-81550500I0J-237500D01*
G01*
G37*
G36*
G01*
X108945500Y-81550500D02*
X108945500Y-82025500D01*
G75*
G02*
X108708000Y-82263000I-237500J0D01*
G01*
X108208000Y-82263000D01*
G75*
G02*
X107970500Y-82025500I0J237500D01*
G01*
X107970500Y-81550500D01*
G75*
G02*
X108208000Y-81313000I237500J0D01*
G01*
X108708000Y-81313000D01*
G75*
G02*
X108945500Y-81550500I0J-237500D01*
G01*
G37*
%TD*%
%TO.C,R38*%
G36*
G01*
X104060000Y-72242500D02*
X103585000Y-72242500D01*
G75*
G02*
X103347500Y-72005000I0J237500D01*
G01*
X103347500Y-71505000D01*
G75*
G02*
X103585000Y-71267500I237500J0D01*
G01*
X104060000Y-71267500D01*
G75*
G02*
X104297500Y-71505000I0J-237500D01*
G01*
X104297500Y-72005000D01*
G75*
G02*
X104060000Y-72242500I-237500J0D01*
G01*
G37*
G36*
G01*
X104060000Y-74067500D02*
X103585000Y-74067500D01*
G75*
G02*
X103347500Y-73830000I0J237500D01*
G01*
X103347500Y-73330000D01*
G75*
G02*
X103585000Y-73092500I237500J0D01*
G01*
X104060000Y-73092500D01*
G75*
G02*
X104297500Y-73330000I0J-237500D01*
G01*
X104297500Y-73830000D01*
G75*
G02*
X104060000Y-74067500I-237500J0D01*
G01*
G37*
%TD*%
%TO.C,R39*%
G36*
G01*
X111870500Y-74956500D02*
X111395500Y-74956500D01*
G75*
G02*
X111158000Y-74719000I0J237500D01*
G01*
X111158000Y-74219000D01*
G75*
G02*
X111395500Y-73981500I237500J0D01*
G01*
X111870500Y-73981500D01*
G75*
G02*
X112108000Y-74219000I0J-237500D01*
G01*
X112108000Y-74719000D01*
G75*
G02*
X111870500Y-74956500I-237500J0D01*
G01*
G37*
G36*
G01*
X111870500Y-73131500D02*
X111395500Y-73131500D01*
G75*
G02*
X111158000Y-72894000I0J237500D01*
G01*
X111158000Y-72394000D01*
G75*
G02*
X111395500Y-72156500I237500J0D01*
G01*
X111870500Y-72156500D01*
G75*
G02*
X112108000Y-72394000I0J-237500D01*
G01*
X112108000Y-72894000D01*
G75*
G02*
X111870500Y-73131500I-237500J0D01*
G01*
G37*
%TD*%
%TO.C,R40*%
G36*
G01*
X105223500Y-85200500D02*
X105223500Y-84725500D01*
G75*
G02*
X105461000Y-84488000I237500J0D01*
G01*
X105961000Y-84488000D01*
G75*
G02*
X106198500Y-84725500I0J-237500D01*
G01*
X106198500Y-85200500D01*
G75*
G02*
X105961000Y-85438000I-237500J0D01*
G01*
X105461000Y-85438000D01*
G75*
G02*
X105223500Y-85200500I0J237500D01*
G01*
G37*
G36*
G01*
X103398500Y-85200500D02*
X103398500Y-84725500D01*
G75*
G02*
X103636000Y-84488000I237500J0D01*
G01*
X104136000Y-84488000D01*
G75*
G02*
X104373500Y-84725500I0J-237500D01*
G01*
X104373500Y-85200500D01*
G75*
G02*
X104136000Y-85438000I-237500J0D01*
G01*
X103636000Y-85438000D01*
G75*
G02*
X103398500Y-85200500I0J237500D01*
G01*
G37*
%TD*%
%TO.C,R41*%
G36*
G01*
X115596500Y-82566500D02*
X115596500Y-83041500D01*
G75*
G02*
X115359000Y-83279000I-237500J0D01*
G01*
X114859000Y-83279000D01*
G75*
G02*
X114621500Y-83041500I0J237500D01*
G01*
X114621500Y-82566500D01*
G75*
G02*
X114859000Y-82329000I237500J0D01*
G01*
X115359000Y-82329000D01*
G75*
G02*
X115596500Y-82566500I0J-237500D01*
G01*
G37*
G36*
G01*
X113771500Y-82566500D02*
X113771500Y-83041500D01*
G75*
G02*
X113534000Y-83279000I-237500J0D01*
G01*
X113034000Y-83279000D01*
G75*
G02*
X112796500Y-83041500I0J237500D01*
G01*
X112796500Y-82566500D01*
G75*
G02*
X113034000Y-82329000I237500J0D01*
G01*
X113534000Y-82329000D01*
G75*
G02*
X113771500Y-82566500I0J-237500D01*
G01*
G37*
%TD*%
%TO.C,R42*%
G36*
G01*
X114982000Y-73131500D02*
X114507000Y-73131500D01*
G75*
G02*
X114269500Y-72894000I0J237500D01*
G01*
X114269500Y-72394000D01*
G75*
G02*
X114507000Y-72156500I237500J0D01*
G01*
X114982000Y-72156500D01*
G75*
G02*
X115219500Y-72394000I0J-237500D01*
G01*
X115219500Y-72894000D01*
G75*
G02*
X114982000Y-73131500I-237500J0D01*
G01*
G37*
G36*
G01*
X114982000Y-74956500D02*
X114507000Y-74956500D01*
G75*
G02*
X114269500Y-74719000I0J237500D01*
G01*
X114269500Y-74219000D01*
G75*
G02*
X114507000Y-73981500I237500J0D01*
G01*
X114982000Y-73981500D01*
G75*
G02*
X115219500Y-74219000I0J-237500D01*
G01*
X115219500Y-74719000D01*
G75*
G02*
X114982000Y-74956500I-237500J0D01*
G01*
G37*
%TD*%
%TO.C,R43*%
G36*
G01*
X122411500Y-75020000D02*
X121936500Y-75020000D01*
G75*
G02*
X121699000Y-74782500I0J237500D01*
G01*
X121699000Y-74282500D01*
G75*
G02*
X121936500Y-74045000I237500J0D01*
G01*
X122411500Y-74045000D01*
G75*
G02*
X122649000Y-74282500I0J-237500D01*
G01*
X122649000Y-74782500D01*
G75*
G02*
X122411500Y-75020000I-237500J0D01*
G01*
G37*
G36*
G01*
X122411500Y-73195000D02*
X121936500Y-73195000D01*
G75*
G02*
X121699000Y-72957500I0J237500D01*
G01*
X121699000Y-72457500D01*
G75*
G02*
X121936500Y-72220000I237500J0D01*
G01*
X122411500Y-72220000D01*
G75*
G02*
X122649000Y-72457500I0J-237500D01*
G01*
X122649000Y-72957500D01*
G75*
G02*
X122411500Y-73195000I-237500J0D01*
G01*
G37*
%TD*%
%TO.C,R44*%
G36*
G01*
X116311500Y-77740500D02*
X116311500Y-78215500D01*
G75*
G02*
X116074000Y-78453000I-237500J0D01*
G01*
X115574000Y-78453000D01*
G75*
G02*
X115336500Y-78215500I0J237500D01*
G01*
X115336500Y-77740500D01*
G75*
G02*
X115574000Y-77503000I237500J0D01*
G01*
X116074000Y-77503000D01*
G75*
G02*
X116311500Y-77740500I0J-237500D01*
G01*
G37*
G36*
G01*
X114486500Y-77740500D02*
X114486500Y-78215500D01*
G75*
G02*
X114249000Y-78453000I-237500J0D01*
G01*
X113749000Y-78453000D01*
G75*
G02*
X113511500Y-78215500I0J237500D01*
G01*
X113511500Y-77740500D01*
G75*
G02*
X113749000Y-77503000I237500J0D01*
G01*
X114249000Y-77503000D01*
G75*
G02*
X114486500Y-77740500I0J-237500D01*
G01*
G37*
%TD*%
%TO.C,R45*%
G36*
G01*
X133122500Y-81487000D02*
X133122500Y-81962000D01*
G75*
G02*
X132885000Y-82199500I-237500J0D01*
G01*
X132385000Y-82199500D01*
G75*
G02*
X132147500Y-81962000I0J237500D01*
G01*
X132147500Y-81487000D01*
G75*
G02*
X132385000Y-81249500I237500J0D01*
G01*
X132885000Y-81249500D01*
G75*
G02*
X133122500Y-81487000I0J-237500D01*
G01*
G37*
G36*
G01*
X131297500Y-81487000D02*
X131297500Y-81962000D01*
G75*
G02*
X131060000Y-82199500I-237500J0D01*
G01*
X130560000Y-82199500D01*
G75*
G02*
X130322500Y-81962000I0J237500D01*
G01*
X130322500Y-81487000D01*
G75*
G02*
X130560000Y-81249500I237500J0D01*
G01*
X131060000Y-81249500D01*
G75*
G02*
X131297500Y-81487000I0J-237500D01*
G01*
G37*
%TD*%
%TO.C,R46*%
G36*
G01*
X127936000Y-80387000D02*
X127461000Y-80387000D01*
G75*
G02*
X127223500Y-80149500I0J237500D01*
G01*
X127223500Y-79649500D01*
G75*
G02*
X127461000Y-79412000I237500J0D01*
G01*
X127936000Y-79412000D01*
G75*
G02*
X128173500Y-79649500I0J-237500D01*
G01*
X128173500Y-80149500D01*
G75*
G02*
X127936000Y-80387000I-237500J0D01*
G01*
G37*
G36*
G01*
X127936000Y-82212000D02*
X127461000Y-82212000D01*
G75*
G02*
X127223500Y-81974500I0J237500D01*
G01*
X127223500Y-81474500D01*
G75*
G02*
X127461000Y-81237000I237500J0D01*
G01*
X127936000Y-81237000D01*
G75*
G02*
X128173500Y-81474500I0J-237500D01*
G01*
X128173500Y-81974500D01*
G75*
G02*
X127936000Y-82212000I-237500J0D01*
G01*
G37*
%TD*%
%TO.C,R47*%
G36*
G01*
X127397500Y-84348500D02*
X127872500Y-84348500D01*
G75*
G02*
X128110000Y-84586000I0J-237500D01*
G01*
X128110000Y-85086000D01*
G75*
G02*
X127872500Y-85323500I-237500J0D01*
G01*
X127397500Y-85323500D01*
G75*
G02*
X127160000Y-85086000I0J237500D01*
G01*
X127160000Y-84586000D01*
G75*
G02*
X127397500Y-84348500I237500J0D01*
G01*
G37*
G36*
G01*
X127397500Y-86173500D02*
X127872500Y-86173500D01*
G75*
G02*
X128110000Y-86411000I0J-237500D01*
G01*
X128110000Y-86911000D01*
G75*
G02*
X127872500Y-87148500I-237500J0D01*
G01*
X127397500Y-87148500D01*
G75*
G02*
X127160000Y-86911000I0J237500D01*
G01*
X127160000Y-86411000D01*
G75*
G02*
X127397500Y-86173500I237500J0D01*
G01*
G37*
%TD*%
%TO.C,R48*%
G36*
G01*
X124019500Y-85073500D02*
X124019500Y-84598500D01*
G75*
G02*
X124257000Y-84361000I237500J0D01*
G01*
X124757000Y-84361000D01*
G75*
G02*
X124994500Y-84598500I0J-237500D01*
G01*
X124994500Y-85073500D01*
G75*
G02*
X124757000Y-85311000I-237500J0D01*
G01*
X124257000Y-85311000D01*
G75*
G02*
X124019500Y-85073500I0J237500D01*
G01*
G37*
G36*
G01*
X122194500Y-85073500D02*
X122194500Y-84598500D01*
G75*
G02*
X122432000Y-84361000I237500J0D01*
G01*
X122932000Y-84361000D01*
G75*
G02*
X123169500Y-84598500I0J-237500D01*
G01*
X123169500Y-85073500D01*
G75*
G02*
X122932000Y-85311000I-237500J0D01*
G01*
X122432000Y-85311000D01*
G75*
G02*
X122194500Y-85073500I0J237500D01*
G01*
G37*
%TD*%
%TO.C,U8*%
G36*
G01*
X105079000Y-78128000D02*
X105079000Y-77828000D01*
G75*
G02*
X105229000Y-77678000I150000J0D01*
G01*
X106529000Y-77678000D01*
G75*
G02*
X106679000Y-77828000I0J-150000D01*
G01*
X106679000Y-78128000D01*
G75*
G02*
X106529000Y-78278000I-150000J0D01*
G01*
X105229000Y-78278000D01*
G75*
G02*
X105079000Y-78128000I0J150000D01*
G01*
G37*
G36*
G01*
X105079000Y-79398000D02*
X105079000Y-79098000D01*
G75*
G02*
X105229000Y-78948000I150000J0D01*
G01*
X106529000Y-78948000D01*
G75*
G02*
X106679000Y-79098000I0J-150000D01*
G01*
X106679000Y-79398000D01*
G75*
G02*
X106529000Y-79548000I-150000J0D01*
G01*
X105229000Y-79548000D01*
G75*
G02*
X105079000Y-79398000I0J150000D01*
G01*
G37*
G36*
G01*
X105079000Y-80668000D02*
X105079000Y-80368000D01*
G75*
G02*
X105229000Y-80218000I150000J0D01*
G01*
X106529000Y-80218000D01*
G75*
G02*
X106679000Y-80368000I0J-150000D01*
G01*
X106679000Y-80668000D01*
G75*
G02*
X106529000Y-80818000I-150000J0D01*
G01*
X105229000Y-80818000D01*
G75*
G02*
X105079000Y-80668000I0J150000D01*
G01*
G37*
G36*
G01*
X105079000Y-81938000D02*
X105079000Y-81638000D01*
G75*
G02*
X105229000Y-81488000I150000J0D01*
G01*
X106529000Y-81488000D01*
G75*
G02*
X106679000Y-81638000I0J-150000D01*
G01*
X106679000Y-81938000D01*
G75*
G02*
X106529000Y-82088000I-150000J0D01*
G01*
X105229000Y-82088000D01*
G75*
G02*
X105079000Y-81938000I0J150000D01*
G01*
G37*
G36*
G01*
X97879000Y-81938000D02*
X97879000Y-81638000D01*
G75*
G02*
X98029000Y-81488000I150000J0D01*
G01*
X99329000Y-81488000D01*
G75*
G02*
X99479000Y-81638000I0J-150000D01*
G01*
X99479000Y-81938000D01*
G75*
G02*
X99329000Y-82088000I-150000J0D01*
G01*
X98029000Y-82088000D01*
G75*
G02*
X97879000Y-81938000I0J150000D01*
G01*
G37*
G36*
G01*
X97879000Y-80668000D02*
X97879000Y-80368000D01*
G75*
G02*
X98029000Y-80218000I150000J0D01*
G01*
X99329000Y-80218000D01*
G75*
G02*
X99479000Y-80368000I0J-150000D01*
G01*
X99479000Y-80668000D01*
G75*
G02*
X99329000Y-80818000I-150000J0D01*
G01*
X98029000Y-80818000D01*
G75*
G02*
X97879000Y-80668000I0J150000D01*
G01*
G37*
G36*
G01*
X97879000Y-79398000D02*
X97879000Y-79098000D01*
G75*
G02*
X98029000Y-78948000I150000J0D01*
G01*
X99329000Y-78948000D01*
G75*
G02*
X99479000Y-79098000I0J-150000D01*
G01*
X99479000Y-79398000D01*
G75*
G02*
X99329000Y-79548000I-150000J0D01*
G01*
X98029000Y-79548000D01*
G75*
G02*
X97879000Y-79398000I0J150000D01*
G01*
G37*
G36*
G01*
X97879000Y-78128000D02*
X97879000Y-77828000D01*
G75*
G02*
X98029000Y-77678000I150000J0D01*
G01*
X99329000Y-77678000D01*
G75*
G02*
X99479000Y-77828000I0J-150000D01*
G01*
X99479000Y-78128000D01*
G75*
G02*
X99329000Y-78278000I-150000J0D01*
G01*
X98029000Y-78278000D01*
G75*
G02*
X97879000Y-78128000I0J150000D01*
G01*
G37*
%TD*%
%TO.C,U9*%
G36*
G01*
X116992500Y-78064500D02*
X116992500Y-77764500D01*
G75*
G02*
X117142500Y-77614500I150000J0D01*
G01*
X118442500Y-77614500D01*
G75*
G02*
X118592500Y-77764500I0J-150000D01*
G01*
X118592500Y-78064500D01*
G75*
G02*
X118442500Y-78214500I-150000J0D01*
G01*
X117142500Y-78214500D01*
G75*
G02*
X116992500Y-78064500I0J150000D01*
G01*
G37*
G36*
G01*
X116992500Y-79334500D02*
X116992500Y-79034500D01*
G75*
G02*
X117142500Y-78884500I150000J0D01*
G01*
X118442500Y-78884500D01*
G75*
G02*
X118592500Y-79034500I0J-150000D01*
G01*
X118592500Y-79334500D01*
G75*
G02*
X118442500Y-79484500I-150000J0D01*
G01*
X117142500Y-79484500D01*
G75*
G02*
X116992500Y-79334500I0J150000D01*
G01*
G37*
G36*
G01*
X116992500Y-80604500D02*
X116992500Y-80304500D01*
G75*
G02*
X117142500Y-80154500I150000J0D01*
G01*
X118442500Y-80154500D01*
G75*
G02*
X118592500Y-80304500I0J-150000D01*
G01*
X118592500Y-80604500D01*
G75*
G02*
X118442500Y-80754500I-150000J0D01*
G01*
X117142500Y-80754500D01*
G75*
G02*
X116992500Y-80604500I0J150000D01*
G01*
G37*
G36*
G01*
X116992500Y-81874500D02*
X116992500Y-81574500D01*
G75*
G02*
X117142500Y-81424500I150000J0D01*
G01*
X118442500Y-81424500D01*
G75*
G02*
X118592500Y-81574500I0J-150000D01*
G01*
X118592500Y-81874500D01*
G75*
G02*
X118442500Y-82024500I-150000J0D01*
G01*
X117142500Y-82024500D01*
G75*
G02*
X116992500Y-81874500I0J150000D01*
G01*
G37*
G36*
G01*
X124192500Y-81874500D02*
X124192500Y-81574500D01*
G75*
G02*
X124342500Y-81424500I150000J0D01*
G01*
X125642500Y-81424500D01*
G75*
G02*
X125792500Y-81574500I0J-150000D01*
G01*
X125792500Y-81874500D01*
G75*
G02*
X125642500Y-82024500I-150000J0D01*
G01*
X124342500Y-82024500D01*
G75*
G02*
X124192500Y-81874500I0J150000D01*
G01*
G37*
G36*
G01*
X124192500Y-80604500D02*
X124192500Y-80304500D01*
G75*
G02*
X124342500Y-80154500I150000J0D01*
G01*
X125642500Y-80154500D01*
G75*
G02*
X125792500Y-80304500I0J-150000D01*
G01*
X125792500Y-80604500D01*
G75*
G02*
X125642500Y-80754500I-150000J0D01*
G01*
X124342500Y-80754500D01*
G75*
G02*
X124192500Y-80604500I0J150000D01*
G01*
G37*
G36*
G01*
X124192500Y-79334500D02*
X124192500Y-79034500D01*
G75*
G02*
X124342500Y-78884500I150000J0D01*
G01*
X125642500Y-78884500D01*
G75*
G02*
X125792500Y-79034500I0J-150000D01*
G01*
X125792500Y-79334500D01*
G75*
G02*
X125642500Y-79484500I-150000J0D01*
G01*
X124342500Y-79484500D01*
G75*
G02*
X124192500Y-79334500I0J150000D01*
G01*
G37*
G36*
G01*
X124192500Y-78064500D02*
X124192500Y-77764500D01*
G75*
G02*
X124342500Y-77614500I150000J0D01*
G01*
X125642500Y-77614500D01*
G75*
G02*
X125792500Y-77764500I0J-150000D01*
G01*
X125792500Y-78064500D01*
G75*
G02*
X125642500Y-78214500I-150000J0D01*
G01*
X124342500Y-78214500D01*
G75*
G02*
X124192500Y-78064500I0J150000D01*
G01*
G37*
%TD*%
D37*
%TO.C,C2*%
X71660000Y-152400000D03*
D38*
X73660000Y-152400000D03*
%TD*%
%TO.C,C5*%
X46990000Y-144780000D03*
D37*
X44990000Y-144780000D03*
%TD*%
%TO.C,D4*%
G36*
G01*
X84565500Y-161040500D02*
X84090500Y-161040500D01*
G75*
G02*
X83853000Y-160803000I0J237500D01*
G01*
X83853000Y-160228000D01*
G75*
G02*
X84090500Y-159990500I237500J0D01*
G01*
X84565500Y-159990500D01*
G75*
G02*
X84803000Y-160228000I0J-237500D01*
G01*
X84803000Y-160803000D01*
G75*
G02*
X84565500Y-161040500I-237500J0D01*
G01*
G37*
G36*
G01*
X84565500Y-162790500D02*
X84090500Y-162790500D01*
G75*
G02*
X83853000Y-162553000I0J237500D01*
G01*
X83853000Y-161978000D01*
G75*
G02*
X84090500Y-161740500I237500J0D01*
G01*
X84565500Y-161740500D01*
G75*
G02*
X84803000Y-161978000I0J-237500D01*
G01*
X84803000Y-162553000D01*
G75*
G02*
X84565500Y-162790500I-237500J0D01*
G01*
G37*
%TD*%
%TO.C,D5*%
G36*
G01*
X109457500Y-119854000D02*
X108982500Y-119854000D01*
G75*
G02*
X108745000Y-119616500I0J237500D01*
G01*
X108745000Y-119041500D01*
G75*
G02*
X108982500Y-118804000I237500J0D01*
G01*
X109457500Y-118804000D01*
G75*
G02*
X109695000Y-119041500I0J-237500D01*
G01*
X109695000Y-119616500D01*
G75*
G02*
X109457500Y-119854000I-237500J0D01*
G01*
G37*
G36*
G01*
X109457500Y-118104000D02*
X108982500Y-118104000D01*
G75*
G02*
X108745000Y-117866500I0J237500D01*
G01*
X108745000Y-117291500D01*
G75*
G02*
X108982500Y-117054000I237500J0D01*
G01*
X109457500Y-117054000D01*
G75*
G02*
X109695000Y-117291500I0J-237500D01*
G01*
X109695000Y-117866500D01*
G75*
G02*
X109457500Y-118104000I-237500J0D01*
G01*
G37*
%TD*%
%TO.C,D6*%
G36*
G01*
X132317500Y-97835000D02*
X131842500Y-97835000D01*
G75*
G02*
X131605000Y-97597500I0J237500D01*
G01*
X131605000Y-97022500D01*
G75*
G02*
X131842500Y-96785000I237500J0D01*
G01*
X132317500Y-96785000D01*
G75*
G02*
X132555000Y-97022500I0J-237500D01*
G01*
X132555000Y-97597500D01*
G75*
G02*
X132317500Y-97835000I-237500J0D01*
G01*
G37*
G36*
G01*
X132317500Y-99585000D02*
X131842500Y-99585000D01*
G75*
G02*
X131605000Y-99347500I0J237500D01*
G01*
X131605000Y-98772500D01*
G75*
G02*
X131842500Y-98535000I237500J0D01*
G01*
X132317500Y-98535000D01*
G75*
G02*
X132555000Y-98772500I0J-237500D01*
G01*
X132555000Y-99347500D01*
G75*
G02*
X132317500Y-99585000I-237500J0D01*
G01*
G37*
%TD*%
%TO.C,D7*%
G36*
G01*
X152677500Y-166734500D02*
X152677500Y-166259500D01*
G75*
G02*
X152915000Y-166022000I237500J0D01*
G01*
X153490000Y-166022000D01*
G75*
G02*
X153727500Y-166259500I0J-237500D01*
G01*
X153727500Y-166734500D01*
G75*
G02*
X153490000Y-166972000I-237500J0D01*
G01*
X152915000Y-166972000D01*
G75*
G02*
X152677500Y-166734500I0J237500D01*
G01*
G37*
G36*
G01*
X154427500Y-166734500D02*
X154427500Y-166259500D01*
G75*
G02*
X154665000Y-166022000I237500J0D01*
G01*
X155240000Y-166022000D01*
G75*
G02*
X155477500Y-166259500I0J-237500D01*
G01*
X155477500Y-166734500D01*
G75*
G02*
X155240000Y-166972000I-237500J0D01*
G01*
X154665000Y-166972000D01*
G75*
G02*
X154427500Y-166734500I0J237500D01*
G01*
G37*
%TD*%
%TO.C,U7*%
G36*
G01*
X77642000Y-78128000D02*
X77642000Y-77828000D01*
G75*
G02*
X77792000Y-77678000I150000J0D01*
G01*
X79092000Y-77678000D01*
G75*
G02*
X79242000Y-77828000I0J-150000D01*
G01*
X79242000Y-78128000D01*
G75*
G02*
X79092000Y-78278000I-150000J0D01*
G01*
X77792000Y-78278000D01*
G75*
G02*
X77642000Y-78128000I0J150000D01*
G01*
G37*
G36*
G01*
X77642000Y-79398000D02*
X77642000Y-79098000D01*
G75*
G02*
X77792000Y-78948000I150000J0D01*
G01*
X79092000Y-78948000D01*
G75*
G02*
X79242000Y-79098000I0J-150000D01*
G01*
X79242000Y-79398000D01*
G75*
G02*
X79092000Y-79548000I-150000J0D01*
G01*
X77792000Y-79548000D01*
G75*
G02*
X77642000Y-79398000I0J150000D01*
G01*
G37*
G36*
G01*
X77642000Y-80668000D02*
X77642000Y-80368000D01*
G75*
G02*
X77792000Y-80218000I150000J0D01*
G01*
X79092000Y-80218000D01*
G75*
G02*
X79242000Y-80368000I0J-150000D01*
G01*
X79242000Y-80668000D01*
G75*
G02*
X79092000Y-80818000I-150000J0D01*
G01*
X77792000Y-80818000D01*
G75*
G02*
X77642000Y-80668000I0J150000D01*
G01*
G37*
G36*
G01*
X77642000Y-81938000D02*
X77642000Y-81638000D01*
G75*
G02*
X77792000Y-81488000I150000J0D01*
G01*
X79092000Y-81488000D01*
G75*
G02*
X79242000Y-81638000I0J-150000D01*
G01*
X79242000Y-81938000D01*
G75*
G02*
X79092000Y-82088000I-150000J0D01*
G01*
X77792000Y-82088000D01*
G75*
G02*
X77642000Y-81938000I0J150000D01*
G01*
G37*
G36*
G01*
X84842000Y-81938000D02*
X84842000Y-81638000D01*
G75*
G02*
X84992000Y-81488000I150000J0D01*
G01*
X86292000Y-81488000D01*
G75*
G02*
X86442000Y-81638000I0J-150000D01*
G01*
X86442000Y-81938000D01*
G75*
G02*
X86292000Y-82088000I-150000J0D01*
G01*
X84992000Y-82088000D01*
G75*
G02*
X84842000Y-81938000I0J150000D01*
G01*
G37*
G36*
G01*
X84842000Y-80668000D02*
X84842000Y-80368000D01*
G75*
G02*
X84992000Y-80218000I150000J0D01*
G01*
X86292000Y-80218000D01*
G75*
G02*
X86442000Y-80368000I0J-150000D01*
G01*
X86442000Y-80668000D01*
G75*
G02*
X86292000Y-80818000I-150000J0D01*
G01*
X84992000Y-80818000D01*
G75*
G02*
X84842000Y-80668000I0J150000D01*
G01*
G37*
G36*
G01*
X84842000Y-79398000D02*
X84842000Y-79098000D01*
G75*
G02*
X84992000Y-78948000I150000J0D01*
G01*
X86292000Y-78948000D01*
G75*
G02*
X86442000Y-79098000I0J-150000D01*
G01*
X86442000Y-79398000D01*
G75*
G02*
X86292000Y-79548000I-150000J0D01*
G01*
X84992000Y-79548000D01*
G75*
G02*
X84842000Y-79398000I0J150000D01*
G01*
G37*
G36*
G01*
X84842000Y-78128000D02*
X84842000Y-77828000D01*
G75*
G02*
X84992000Y-77678000I150000J0D01*
G01*
X86292000Y-77678000D01*
G75*
G02*
X86442000Y-77828000I0J-150000D01*
G01*
X86442000Y-78128000D01*
G75*
G02*
X86292000Y-78278000I-150000J0D01*
G01*
X84992000Y-78278000D01*
G75*
G02*
X84842000Y-78128000I0J150000D01*
G01*
G37*
%TD*%
D39*
%TO.C,Conn4*%
X156503000Y-27458000D03*
X148603000Y-27458000D03*
%TD*%
M02*
