G04 #@! TF.GenerationSoftware,KiCad,Pcbnew,(5.0.0)*
G04 #@! TF.CreationDate,2018-12-16T15:34:37-06:00*
G04 #@! TF.ProjectId,BMS_Hardware,424D535F48617264776172652E6B6963,rev?*
G04 #@! TF.SameCoordinates,Original*
G04 #@! TF.FileFunction,Copper,L2,Bot,Signal*
G04 #@! TF.FilePolarity,Positive*
%FSLAX46Y46*%
G04 Gerber Fmt 4.6, Leading zero omitted, Abs format (unit mm)*
G04 Created by KiCad (PCBNEW (5.0.0)) date 12/16/18 15:34:37*
%MOMM*%
%LPD*%
G01*
G04 APERTURE LIST*
G04 #@! TA.AperFunction,ComponentPad*
%ADD10C,1.501140*%
G04 #@! TD*
G04 #@! TA.AperFunction,ComponentPad*
%ADD11O,9.144000X5.588000*%
G04 #@! TD*
G04 #@! TA.AperFunction,ComponentPad*
%ADD12C,1.524000*%
G04 #@! TD*
G04 #@! TA.AperFunction,ComponentPad*
%ADD13C,18.288000*%
G04 #@! TD*
G04 #@! TA.AperFunction,ComponentPad*
%ADD14C,1.600000*%
G04 #@! TD*
G04 #@! TA.AperFunction,ComponentPad*
%ADD15R,1.600000X1.600000*%
G04 #@! TD*
G04 #@! TA.AperFunction,ComponentPad*
%ADD16C,5.080000*%
G04 #@! TD*
G04 #@! TA.AperFunction,ViaPad*
%ADD17C,0.800000*%
G04 #@! TD*
G04 #@! TA.AperFunction,ViaPad*
%ADD18C,1.054000*%
G04 #@! TD*
G04 #@! TA.AperFunction,ViaPad*
%ADD19C,1.440180*%
G04 #@! TD*
G04 #@! TA.AperFunction,ViaPad*
%ADD20C,0.799998*%
G04 #@! TD*
G04 #@! TA.AperFunction,Conductor*
%ADD21C,2.540000*%
G04 #@! TD*
G04 #@! TA.AperFunction,Conductor*
%ADD22C,0.381000*%
G04 #@! TD*
G04 #@! TA.AperFunction,Conductor*
%ADD23C,1.651000*%
G04 #@! TD*
G04 #@! TA.AperFunction,Conductor*
%ADD24C,0.762000*%
G04 #@! TD*
G04 #@! TA.AperFunction,Conductor*
%ADD25C,0.254000*%
G04 #@! TD*
G04 APERTURE END LIST*
D10*
G04 #@! TO.P,U1,1*
G04 #@! TO.N,+3V3*
X203829920Y-117381020D03*
G04 #@! TO.P,U1,3*
G04 #@! TO.N,PACK_I_SENSE*
X207650080Y-117381020D03*
G04 #@! TO.P,U1,2*
G04 #@! TO.N,GND*
X205740000Y-117381020D03*
D11*
G04 #@! TO.P,U1,4*
G04 #@! TO.N,/V_IN*
X210820000Y-95885000D03*
G04 #@! TO.P,U1,5*
G04 #@! TO.N,Net-(C10-Pad1)*
X200660000Y-95885000D03*
G04 #@! TD*
D12*
G04 #@! TO.P,Conn2,1*
G04 #@! TO.N,CELL_1*
X156210000Y-59309000D03*
G04 #@! TO.P,Conn2,2*
G04 #@! TO.N,CELL_2*
X153670000Y-59309000D03*
G04 #@! TO.P,Conn2,3*
G04 #@! TO.N,CELL_3*
X151130000Y-59309000D03*
G04 #@! TO.P,Conn2,4*
G04 #@! TO.N,CELL_4*
X148590000Y-59309000D03*
G04 #@! TO.P,Conn2,5*
G04 #@! TO.N,CELL_5*
X146050000Y-59309000D03*
G04 #@! TO.P,Conn2,6*
G04 #@! TO.N,CELL_6*
X143510000Y-59309000D03*
G04 #@! TO.P,Conn2,7*
G04 #@! TO.N,CELL_7*
X140970000Y-59309000D03*
G04 #@! TO.P,Conn2,8*
G04 #@! TO.N,CELL_8*
X138430000Y-59309000D03*
G04 #@! TO.P,Conn2,9*
G04 #@! TO.N,GND*
X135890000Y-59309000D03*
G04 #@! TD*
G04 #@! TO.P,Conn1,9*
G04 #@! TO.N,GND*
X135890000Y-67056000D03*
G04 #@! TO.P,Conn1,8*
G04 #@! TO.N,CELL_8*
X138430000Y-67056000D03*
G04 #@! TO.P,Conn1,7*
G04 #@! TO.N,CELL_7*
X140970000Y-67056000D03*
G04 #@! TO.P,Conn1,6*
G04 #@! TO.N,CELL_6*
X143510000Y-67056000D03*
G04 #@! TO.P,Conn1,5*
G04 #@! TO.N,CELL_5*
X146050000Y-67056000D03*
G04 #@! TO.P,Conn1,4*
G04 #@! TO.N,CELL_4*
X148590000Y-67056000D03*
G04 #@! TO.P,Conn1,3*
G04 #@! TO.N,CELL_3*
X151130000Y-67056000D03*
G04 #@! TO.P,Conn1,2*
G04 #@! TO.N,CELL_2*
X153670000Y-67056000D03*
G04 #@! TO.P,Conn1,1*
G04 #@! TO.N,CELL_1*
X156210000Y-67056000D03*
G04 #@! TD*
G04 #@! TO.P,U2,1*
G04 #@! TO.N,+5V*
X46736000Y-67310000D03*
G04 #@! TO.P,U2,2*
G04 #@! TO.N,Net-(Q1-Pad3)*
X49276000Y-67310000D03*
G04 #@! TD*
G04 #@! TO.P,U4,2*
G04 #@! TO.N,Net-(Q4-Pad3)*
X64262000Y-67310000D03*
G04 #@! TO.P,U4,1*
G04 #@! TO.N,+5V*
X61722000Y-67310000D03*
G04 #@! TD*
G04 #@! TO.P,U5,1*
G04 #@! TO.N,Net-(Q2-Pad3)*
X170180000Y-59182000D03*
G04 #@! TO.P,U5,2*
G04 #@! TO.N,+5V*
X167640000Y-59182000D03*
G04 #@! TO.P,U5,3*
G04 #@! TO.N,Net-(C10-Pad1)*
X165100000Y-59182000D03*
G04 #@! TO.P,U5,4*
G04 #@! TO.N,Net-(F1-Pad2)*
X162560000Y-59182000D03*
X162560000Y-59182000D03*
G04 #@! TD*
G04 #@! TO.P,U7,1*
G04 #@! TO.N,Net-(R13-Pad1)*
X49276000Y-59309000D03*
G04 #@! TO.P,U7,2*
G04 #@! TO.N,Net-(U10-Pad1)*
X46736000Y-59309000D03*
G04 #@! TD*
G04 #@! TO.P,U8,1*
G04 #@! TO.N,+5V*
X46685200Y-77012800D03*
G04 #@! TO.P,U8,2*
G04 #@! TO.N,Net-(Q5-Pad3)*
X49225200Y-77012800D03*
G04 #@! TD*
G04 #@! TO.P,U10,4*
G04 #@! TO.N,GND*
X59563000Y-59182000D03*
X59563000Y-59182000D03*
G04 #@! TO.P,U10,3*
G04 #@! TO.N,Net-(R18-Pad1)*
X62103000Y-59182000D03*
G04 #@! TO.P,U10,2*
G04 #@! TO.N,PACK_GATE*
X64643000Y-59182000D03*
G04 #@! TO.P,U10,1*
G04 #@! TO.N,Net-(U10-Pad1)*
X67183000Y-59182000D03*
G04 #@! TD*
G04 #@! TO.P,U11,3*
G04 #@! TO.N,GND*
X106045000Y-59309000D03*
G04 #@! TO.P,U11,2*
G04 #@! TO.N,TEMP_D_OUT*
X108585000Y-59309000D03*
G04 #@! TO.P,U11,1*
G04 #@! TO.N,+3V3*
X111125000Y-59309000D03*
G04 #@! TD*
G04 #@! TO.P,U12,2*
G04 #@! TO.N,Net-(Q8-Pad3)*
X64262000Y-76962000D03*
G04 #@! TO.P,U12,1*
G04 #@! TO.N,+5V*
X61722000Y-76962000D03*
G04 #@! TD*
G04 #@! TO.P,U17,1*
G04 #@! TO.N,SER_TX_IND*
X82296000Y-59309000D03*
G04 #@! TO.P,U17,2*
G04 #@! TO.N,+3V3*
X79756000Y-59309000D03*
G04 #@! TO.P,U17,3*
G04 #@! TO.N,GND*
X77216000Y-59309000D03*
G04 #@! TD*
G04 #@! TO.P,U18,1*
G04 #@! TO.N,LOGIC_PWR*
X167690800Y-106273600D03*
G04 #@! TO.P,U18,2*
G04 #@! TO.N,GND*
X170230800Y-106273600D03*
G04 #@! TO.P,U18,3*
G04 #@! TO.N,+5V*
X172770800Y-106273600D03*
G04 #@! TD*
D13*
G04 #@! TO.P,V1,1*
G04 #@! TO.N,GND*
X59944000Y-100711000D03*
G04 #@! TD*
G04 #@! TO.P,V2,1*
G04 #@! TO.N,/V_IN*
X232664000Y-100711000D03*
G04 #@! TD*
G04 #@! TO.P,V3,1*
G04 #@! TO.N,V_OUT*
X232664000Y-65786000D03*
G04 #@! TD*
D14*
G04 #@! TO.P,C26,2*
G04 #@! TO.N,GND*
X168442000Y-97599500D03*
D15*
G04 #@! TO.P,C26,1*
G04 #@! TO.N,LOGIC_PWR*
X170942000Y-97599500D03*
G04 #@! TD*
G04 #@! TO.P,C17,1*
G04 #@! TO.N,LOGIC_PWR*
X185102500Y-97536000D03*
D14*
G04 #@! TO.P,C17,2*
G04 #@! TO.N,GND*
X187602500Y-97536000D03*
G04 #@! TD*
D12*
G04 #@! TO.P,U16,1*
G04 #@! TO.N,LOGIC_PWR*
X185039000Y-106299000D03*
G04 #@! TO.P,U16,2*
G04 #@! TO.N,GND*
X187579000Y-106299000D03*
G04 #@! TO.P,U16,3*
G04 #@! TO.N,+3V3*
X190119000Y-106299000D03*
G04 #@! TD*
D16*
G04 #@! TO.P,Conn3,1*
G04 #@! TO.N,GND*
X176911000Y-58737500D03*
G04 #@! TO.P,Conn3,2*
G04 #@! TO.N,/V_IN*
X184785000Y-58737500D03*
G04 #@! TD*
D17*
G04 #@! TO.N,GND*
X149669500Y-88138000D03*
X149860000Y-96520000D03*
X134493000Y-83439000D03*
X134366000Y-91440000D03*
X134239000Y-99695000D03*
X134399800Y-108043200D03*
X149034500Y-104838500D03*
X142113000Y-99949000D03*
X123698000Y-88773000D03*
X118872000Y-91440000D03*
X118872000Y-100838000D03*
X124333000Y-116078000D03*
X118745000Y-120015000D03*
X118618000Y-111252000D03*
X118872000Y-102616000D03*
X110998000Y-110744000D03*
X104330500Y-105727500D03*
X81534000Y-111506000D03*
X89789000Y-86550500D03*
X92343100Y-103935400D03*
X102362000Y-68834000D03*
X104330500Y-115048000D03*
X109474000Y-120015000D03*
X123190000Y-108712000D03*
X128905000Y-93853000D03*
X123190000Y-98806000D03*
X109728000Y-100838000D03*
X110744000Y-91186000D03*
X103632000Y-86233000D03*
X78105000Y-117348000D03*
X140462000Y-117348000D03*
X129032000Y-86614000D03*
X106807000Y-62992000D03*
X92265500Y-101981000D03*
X104203500Y-95758000D03*
X137668000Y-75438000D03*
X145415000Y-84709000D03*
X162242500Y-90170000D03*
X87122000Y-117348000D03*
X130365500Y-101346000D03*
X54419500Y-81089500D03*
X164655500Y-73723500D03*
X169672000Y-78486000D03*
X200088500Y-118110000D03*
X171196000Y-73025000D03*
X188595000Y-72263000D03*
X162560000Y-66167000D03*
X157480000Y-91440000D03*
X157480000Y-99060000D03*
X157480000Y-109220000D03*
X129540000Y-114300000D03*
X149860000Y-121920000D03*
X78740000Y-114300000D03*
X60960000Y-121920000D03*
X48260000Y-111760000D03*
X48260000Y-91440000D03*
X78740000Y-88900000D03*
X86360000Y-78740000D03*
X78740000Y-68580000D03*
X71120000Y-58420000D03*
X86360000Y-58420000D03*
X109220000Y-78740000D03*
X119380000Y-78740000D03*
X132080000Y-78740000D03*
X144780000Y-78740000D03*
X177800000Y-81915000D03*
X165100000Y-68580000D03*
X168910000Y-68580000D03*
X172720000Y-68580000D03*
X176530000Y-68580000D03*
X180340000Y-68580000D03*
X186690000Y-68580000D03*
X177165000Y-73025000D03*
X187960000Y-74930000D03*
X185293000Y-81153000D03*
X181610000Y-81915000D03*
X173355000Y-81915000D03*
X184150000Y-85090000D03*
X179705000Y-85090000D03*
X175260000Y-85090000D03*
X169545000Y-85090000D03*
X158750000Y-85090000D03*
X153670000Y-85090000D03*
X149860000Y-85090000D03*
X181610000Y-101600000D03*
X175260000Y-101600000D03*
X186690000Y-91440000D03*
X189230000Y-124460000D03*
X198120000Y-124460000D03*
X180340000Y-124460000D03*
X180340000Y-118110000D03*
X170180000Y-124460000D03*
X158750000Y-121920000D03*
X128270000Y-118110000D03*
X132080000Y-110490000D03*
X80010000Y-121920000D03*
X68580000Y-121920000D03*
X54610000Y-121920000D03*
X68580000Y-114300000D03*
X73660000Y-88900000D03*
X67310000Y-88900000D03*
X62230000Y-88900000D03*
X55880000Y-88900000D03*
X48260000Y-100330000D03*
X48260000Y-106680000D03*
X48260000Y-95250000D03*
X78740000Y-93980000D03*
X73660000Y-96520000D03*
X53340000Y-71120000D03*
X92710000Y-68580000D03*
X115570000Y-62230000D03*
X110490000Y-68580000D03*
X115570000Y-68580000D03*
X194310000Y-102870000D03*
X205740000Y-123190000D03*
X201930000Y-104140000D03*
X114300000Y-78740000D03*
X104140000Y-78740000D03*
X91440000Y-110490000D03*
X91440000Y-97790000D03*
X140970000Y-110490000D03*
G04 #@! TO.N,CELL_1*
X129286000Y-84582000D03*
X156210000Y-73406000D03*
G04 #@! TO.N,CELL_2*
X128524000Y-90424000D03*
G04 #@! TO.N,CELL_3*
X127762000Y-98552000D03*
G04 #@! TO.N,CELL_4*
X126873000Y-115316000D03*
X127000000Y-104711500D03*
G04 #@! TO.N,CELL_5*
X121094500Y-109728000D03*
X124333000Y-114935000D03*
G04 #@! TO.N,CELL_6*
X125349000Y-100330000D03*
G04 #@! TO.N,CELL_7*
X124206000Y-89916000D03*
G04 #@! TO.N,CELL_8*
X123698000Y-83566000D03*
G04 #@! TO.N,LOGIC_SWITCH*
X90932000Y-65532000D03*
X90932000Y-73914000D03*
G04 #@! TO.N,Net-(Q2-Pad3)*
X102362000Y-53819500D03*
X102362000Y-64262000D03*
G04 #@! TO.N,BUZZER*
X95567500Y-99123500D03*
X93472000Y-78486000D03*
G04 #@! TO.N,Net-(C10-Pad1)*
X194310000Y-97790000D03*
X194310000Y-93980000D03*
X194310000Y-90170000D03*
X198120000Y-90170000D03*
X201930000Y-90170000D03*
X193040000Y-85090000D03*
X193040000Y-80010000D03*
X193040000Y-72390000D03*
X193040000Y-68580000D03*
G04 #@! TO.N,V_OUT*
X242570000Y-85090000D03*
X238760000Y-85090000D03*
X234950000Y-85090000D03*
X231140000Y-85090000D03*
X227330000Y-85090000D03*
X223520000Y-85090000D03*
X219710000Y-85090000D03*
X215900000Y-85090000D03*
X215900000Y-82550000D03*
X215900000Y-78740000D03*
X215900000Y-74930000D03*
X215900000Y-71120000D03*
X215900000Y-67310000D03*
X243840000Y-60960000D03*
X243840000Y-64770000D03*
X243840000Y-68580000D03*
X243840000Y-72390000D03*
X243840000Y-76200000D03*
X243840000Y-80010000D03*
X243840000Y-83820000D03*
X208280000Y-63500000D03*
X124142500Y-70612000D03*
X96774000Y-114490500D03*
X97282000Y-83820000D03*
X97282000Y-88138000D03*
X215900000Y-63500000D03*
X215900000Y-59690000D03*
X219710000Y-59690000D03*
X223520000Y-59690000D03*
X122872500Y-82613500D03*
D18*
G04 #@! TO.N,Net-(F1-Pad2)*
X178054000Y-88519000D03*
X176276000Y-88519000D03*
X180086000Y-88519000D03*
D17*
G04 #@! TO.N,Net-(R13-Pad1)*
X76962000Y-63881000D03*
X77343000Y-69723000D03*
X104140000Y-69723000D03*
X107696000Y-69723000D03*
X174625000Y-69215000D03*
X174625000Y-76708000D03*
G04 #@! TO.N,PACK_GATE*
X88328500Y-73914000D03*
X88328500Y-64135000D03*
G04 #@! TO.N,SER_TX_IND*
X162052000Y-116078000D03*
X162052000Y-92710000D03*
X97536000Y-62230000D03*
X97536000Y-74231500D03*
G04 #@! TO.N,LOGIC_PWR*
X98298000Y-89154000D03*
X131572000Y-122428000D03*
X160972500Y-111696500D03*
D19*
X160909000Y-102870000D03*
D17*
X98234500Y-116967000D03*
X98234500Y-107467400D03*
X98234500Y-98453500D03*
X160909000Y-94742000D03*
X160909000Y-86461600D03*
X136525000Y-112395000D03*
X167690800Y-106273600D03*
G04 #@! TO.N,+5V*
X176580800Y-116433600D03*
X72898000Y-118999000D03*
X176593500Y-128552500D03*
X140462000Y-128587500D03*
X72898000Y-128524000D03*
X42926000Y-126238000D03*
X59182000Y-84836000D03*
X42926000Y-84836000D03*
X42926000Y-56134000D03*
X140462000Y-121856500D03*
G04 #@! TO.N,Net-(C10-Pad1)*
X188341000Y-73533000D03*
X185293000Y-73787000D03*
G04 #@! TO.N,+3V3*
X153098500Y-87693500D03*
X101092000Y-88265000D03*
X101092000Y-72453500D03*
X153162000Y-95618300D03*
X101092000Y-106680000D03*
X101092000Y-97536000D03*
X153162000Y-103886000D03*
X153162000Y-115062000D03*
X101092000Y-115697000D03*
X132715000Y-117729000D03*
X153162000Y-126936500D03*
X192024000Y-120650000D03*
X101092000Y-63020501D03*
G04 #@! TO.N,PACK_V_IND*
X152654000Y-78816200D03*
X129032000Y-56743510D03*
G04 #@! TO.N,SW_IND*
X155194000Y-78740000D03*
X125984000Y-56642000D03*
G04 #@! TO.N,SW_ERR*
X157734000Y-78638400D03*
X122428000Y-56642000D03*
G04 #@! TO.N,FAN_PWR*
X75628500Y-78867000D03*
X75628500Y-63754000D03*
G04 #@! TO.N,Net-(R18-Pad1)*
X84963000Y-84899500D03*
X84963000Y-64960500D03*
G04 #@! TO.N,CELL_1-GND_SENSE*
X163830000Y-115062000D03*
X164719000Y-91440000D03*
G04 #@! TO.N,V_LOG_SENSE*
X162941000Y-94361000D03*
X162941000Y-113792000D03*
X136525000Y-113792000D03*
X132842000Y-124206000D03*
G04 #@! TO.N,CELL_2-1_SENSE*
X154432000Y-117094000D03*
X154432000Y-89852500D03*
G04 #@! TO.N,CELL_3-2_SENSE*
X151841200Y-117144800D03*
X151828500Y-98361500D03*
G04 #@! TO.N,CELL_4-3_SENSE*
X149301200Y-117094000D03*
X149301200Y-106680000D03*
G04 #@! TO.N,CELL_5-4_SENSE*
X103822500Y-113411000D03*
X111823500Y-121031000D03*
G04 #@! TO.N,CELL_6-5_SENSE*
X102362000Y-103886000D03*
X109664500Y-121920000D03*
D20*
G04 #@! TO.N,CELL_7-6_SENSE*
X99314000Y-94043500D03*
D17*
X107035600Y-125018800D03*
G04 #@! TO.N,CELL_8-7_SENSE*
X100139500Y-84553499D03*
X109220000Y-125730000D03*
G04 #@! TO.N,TEMP_D_OUT*
X78232000Y-70929500D03*
X78232000Y-74168000D03*
G04 #@! TO.N,PACK_I_SENSE*
X74739500Y-116560600D03*
X207645000Y-127762000D03*
X73914000Y-127000000D03*
G04 #@! TO.N,/V_IN*
X217170000Y-92710000D03*
X220980000Y-92710000D03*
X224790000Y-92710000D03*
X217170000Y-96520000D03*
X217170000Y-100330000D03*
X217170000Y-104140000D03*
X217170000Y-107950000D03*
X217170000Y-111760000D03*
X213360000Y-111760000D03*
X213360000Y-115570000D03*
X213360000Y-119380000D03*
X213360000Y-123190000D03*
X213360000Y-127000000D03*
X217170000Y-127000000D03*
X220980000Y-127000000D03*
X224790000Y-127000000D03*
X228600000Y-127000000D03*
X232410000Y-127000000D03*
X236220000Y-127000000D03*
X240030000Y-127000000D03*
X243840000Y-127000000D03*
X247650000Y-127000000D03*
X247650000Y-116840000D03*
X247650000Y-113030000D03*
X247650000Y-109220000D03*
X247650000Y-105410000D03*
X247650000Y-101600000D03*
X247650000Y-97790000D03*
X245110000Y-95250000D03*
X242570000Y-92710000D03*
G04 #@! TD*
D21*
G04 #@! TO.N,/V_IN*
X248920000Y-95758000D02*
X248920000Y-60198000D01*
X248920000Y-60198000D02*
X248920000Y-59690000D01*
X188658500Y-54864000D02*
X184785000Y-58737500D01*
X248920000Y-59436000D02*
X244348000Y-54864000D01*
X244348000Y-54864000D02*
X188658500Y-54864000D01*
D22*
G04 #@! TO.N,CELL_1*
X156210000Y-67056000D02*
X156210000Y-68133630D01*
X156210000Y-67056000D02*
X156210000Y-59309000D01*
X138303000Y-72752001D02*
X139700000Y-72752001D01*
X137873671Y-72752001D02*
X138303000Y-72752001D01*
X138303000Y-72752001D02*
X132080000Y-72752001D01*
X132080000Y-72752001D02*
X131717999Y-72752001D01*
X130937000Y-72752001D02*
X132080000Y-72752001D01*
X129304999Y-72752001D02*
X129921000Y-72752001D01*
X129921000Y-72752001D02*
X130937000Y-72752001D01*
X129685999Y-72752001D02*
X129921000Y-72752001D01*
X129286000Y-84582000D02*
X129032000Y-84582000D01*
X128822509Y-73234491D02*
X129304999Y-72752001D01*
X128822509Y-84118509D02*
X129286000Y-84582000D01*
X128822509Y-73234491D02*
X128822509Y-84118509D01*
X156210000Y-72752001D02*
X156210000Y-73450510D01*
X155593999Y-72752001D02*
X156210000Y-72136000D01*
X153543000Y-72752001D02*
X155593999Y-72752001D01*
X156210000Y-72136000D02*
X156210000Y-72752001D01*
X156210000Y-68133630D02*
X156210000Y-72136000D01*
X139700000Y-72752001D02*
X153543000Y-72752001D01*
G04 #@! TO.N,CELL_2*
X153670000Y-65978370D02*
X153670000Y-59309000D01*
X153670000Y-67056000D02*
X153670000Y-65978370D01*
X153670000Y-71628000D02*
X153670000Y-67056000D01*
X153127009Y-72170991D02*
X153670000Y-71628000D01*
X131283009Y-72170991D02*
X131699000Y-72170991D01*
X131699000Y-72170991D02*
X153127009Y-72170991D01*
X128241499Y-90141499D02*
X128524000Y-90424000D01*
X128997009Y-72170991D02*
X131699000Y-72170991D01*
X128089010Y-73078990D02*
X128997009Y-72170991D01*
X128089010Y-89989010D02*
X128089010Y-73078990D01*
X128524000Y-90424000D02*
X128089010Y-89989010D01*
G04 #@! TO.N,CELL_3*
X127508000Y-81788000D02*
X127508000Y-81534000D01*
X127762000Y-98552000D02*
X127635000Y-98552000D01*
X127508000Y-98425000D02*
X127508000Y-97732315D01*
X127635000Y-98552000D02*
X127508000Y-98425000D01*
X151130000Y-65978370D02*
X151130000Y-59309000D01*
X151130000Y-67056000D02*
X151130000Y-65978370D01*
X127508000Y-81470500D02*
X127508000Y-82613500D01*
X127508000Y-97732315D02*
X127508000Y-82613500D01*
X127508000Y-82613500D02*
X127508000Y-81788000D01*
X151130000Y-70739000D02*
X151130000Y-67056000D01*
X150279019Y-71589981D02*
X151130000Y-70739000D01*
X137388519Y-71589981D02*
X138938000Y-71589981D01*
X138938000Y-71589981D02*
X150279019Y-71589981D01*
X127508000Y-75311000D02*
X127508000Y-75116672D01*
X138938000Y-71589981D02*
X128756347Y-71589981D01*
X127508000Y-72838328D02*
X127508000Y-73152000D01*
X127508000Y-72838328D02*
X127889000Y-72457328D01*
X127508000Y-73787000D02*
X127508000Y-72838328D01*
X127889000Y-72457328D02*
X128756347Y-71589981D01*
X127660489Y-72685839D02*
X127889000Y-72457328D01*
X127508000Y-73152000D02*
X127508000Y-73787000D01*
X127508000Y-75057000D02*
X127508000Y-82613500D01*
X127508000Y-75057000D02*
X127508000Y-75311000D01*
X127508000Y-73787000D02*
X127508000Y-75057000D01*
G04 #@! TO.N,CELL_4*
X126854001Y-81788000D02*
X126854001Y-81515001D01*
X138430000Y-71008971D02*
X138124643Y-71008971D01*
X126854001Y-105047999D02*
X126854001Y-105410000D01*
X126854001Y-104248001D02*
X126854001Y-103124000D01*
X126854001Y-103124000D02*
X126854001Y-104648000D01*
X126854001Y-104648000D02*
X126854001Y-105410000D01*
X126854001Y-113792000D02*
X126854001Y-115334999D01*
X126854001Y-105410000D02*
X126854001Y-113792000D01*
X148590000Y-65978370D02*
X148590000Y-59309000D01*
X148590000Y-67056000D02*
X148590000Y-65978370D01*
X138874500Y-71008971D02*
X138430000Y-71008971D01*
X148590000Y-70739000D02*
X148590000Y-67056000D01*
X138874500Y-71008971D02*
X148320029Y-71008971D01*
X148320029Y-71008971D02*
X148590000Y-70739000D01*
X133350000Y-71008971D02*
X138874500Y-71008971D01*
X128515685Y-71008971D02*
X131191000Y-71008971D01*
X130794029Y-71008971D02*
X131191000Y-71008971D01*
X131191000Y-71008971D02*
X133350000Y-71008971D01*
X126854001Y-72670655D02*
X128515685Y-71008971D01*
X126854001Y-72670655D02*
X126854001Y-82677000D01*
X126854001Y-103124000D02*
X126854001Y-82677000D01*
X126854001Y-82677000D02*
X126854001Y-81788000D01*
G04 #@! TO.N,CELL_5*
X146050000Y-67056000D02*
X146050000Y-59309000D01*
X126619000Y-72009000D02*
X126238000Y-72390000D01*
X126238000Y-72390000D02*
X126746000Y-71882000D01*
X126746000Y-71882000D02*
X126619000Y-72009000D01*
X126238000Y-103568500D02*
X126174500Y-103632000D01*
X126238000Y-103568500D02*
X126238000Y-103759000D01*
X126238000Y-72390000D02*
X126238000Y-103568500D01*
X126174500Y-103632000D02*
X126174500Y-105918000D01*
X126174500Y-105543498D02*
X126174500Y-105918000D01*
X146050000Y-70104000D02*
X146050000Y-67056000D01*
X145776980Y-70377020D02*
X146050000Y-70104000D01*
X128250980Y-70377020D02*
X145776980Y-70377020D01*
X126746000Y-71882000D02*
X128250980Y-70377020D01*
X126174500Y-113093500D02*
X124333000Y-114935000D01*
X126174500Y-108458000D02*
X126174500Y-109029500D01*
X126174500Y-105918000D02*
X126174500Y-108458000D01*
X121723685Y-109728000D02*
X126174500Y-109728000D01*
X121158000Y-109728000D02*
X121723685Y-109728000D01*
X126174500Y-108458000D02*
X126174500Y-109728000D01*
X126174500Y-109728000D02*
X126174500Y-113093500D01*
G04 #@! TO.N,CELL_6*
X143510000Y-59309000D02*
X143510000Y-67056000D01*
X143510000Y-67056000D02*
X143510000Y-69215000D01*
X143510000Y-69215000D02*
X142948010Y-69776990D01*
X142948010Y-69776990D02*
X136195093Y-69796010D01*
X127942990Y-69796010D02*
X128778000Y-69796010D01*
X126746000Y-70993000D02*
X127942990Y-69796010D01*
X128778000Y-69796010D02*
X128010318Y-69796010D01*
X136195093Y-69796010D02*
X128778000Y-69796010D01*
X127000000Y-70739000D02*
X126746000Y-70993000D01*
X126746000Y-70993000D02*
X126492000Y-71247000D01*
X125603000Y-100076000D02*
X125349000Y-100330000D01*
X126492000Y-71247000D02*
X125603000Y-72136000D01*
X125603000Y-72136000D02*
X125603000Y-100076000D01*
G04 #@! TO.N,CELL_7*
X140970000Y-67056000D02*
X140970000Y-59309000D01*
X140970000Y-68707000D02*
X140970000Y-67056000D01*
X124968000Y-89154000D02*
X124206000Y-89916000D01*
X124968000Y-71949328D02*
X124968000Y-89154000D01*
X127756318Y-69161010D02*
X127508000Y-69409328D01*
X140515990Y-69161010D02*
X127756318Y-69161010D01*
X140716000Y-68961000D02*
X140515990Y-69161010D01*
X127702328Y-69215000D02*
X127508000Y-69409328D01*
X127508000Y-69409328D02*
X124968000Y-71949328D01*
X140716000Y-68961000D02*
X140970000Y-68707000D01*
G04 #@! TO.N,CELL_8*
X138430000Y-60386630D02*
X138430000Y-67056000D01*
X138430000Y-59309000D02*
X138430000Y-60386630D01*
X138430000Y-67056000D02*
X138430000Y-68199000D01*
X138430000Y-68199000D02*
X138049000Y-68580000D01*
X138049000Y-68580000D02*
X127515656Y-68580000D01*
X127469322Y-68633990D02*
X127454010Y-68633990D01*
X127515656Y-68580000D02*
X127515656Y-68587656D01*
X127515656Y-68587656D02*
X127469322Y-68633990D01*
X127454010Y-68633990D02*
X124333000Y-71755000D01*
X124333000Y-82931000D02*
X123698000Y-83566000D01*
X124333000Y-71755000D02*
X124333000Y-82931000D01*
G04 #@! TO.N,LOGIC_SWITCH*
X90932000Y-66484500D02*
X90932000Y-65532000D01*
X90932000Y-66484500D02*
X90932000Y-66167000D01*
X90932000Y-73914000D02*
X90932000Y-66484500D01*
G04 #@! TO.N,Net-(Q2-Pad3)*
X102362000Y-62484000D02*
X102362000Y-54073500D01*
X102362000Y-62484000D02*
X102362000Y-64262000D01*
G04 #@! TO.N,BUZZER*
X94742000Y-79756000D02*
X93472000Y-78486000D01*
X95567500Y-80581500D02*
X95567500Y-80962500D01*
X93472000Y-78486000D02*
X95567500Y-80581500D01*
X95567500Y-95885000D02*
X95567500Y-99123500D01*
X95567500Y-95885000D02*
X95567500Y-80962500D01*
D23*
G04 #@! TO.N,Net-(C10-Pad1)*
X168221001Y-62303001D02*
X190065001Y-62303001D01*
X165100000Y-59182000D02*
X168221001Y-62303001D01*
X190065001Y-62303001D02*
X193675000Y-65913000D01*
D22*
G04 #@! TO.N,V_OUT*
X97218500Y-114046000D02*
X96774000Y-114490500D01*
X97282000Y-83820000D02*
X97282000Y-113982500D01*
X97282000Y-113982500D02*
X97218500Y-114046000D01*
X124142500Y-70612000D02*
X123698000Y-71056500D01*
X123698000Y-81788000D02*
X122872500Y-82613500D01*
X123698000Y-80454500D02*
X123698000Y-81788000D01*
X123698000Y-80454500D02*
X123698000Y-81407000D01*
X123698000Y-71056500D02*
X123698000Y-80454500D01*
D23*
G04 #@! TO.N,Net-(F1-Pad2)*
X162560000Y-60259630D02*
X166454381Y-64154011D01*
X162560000Y-59182000D02*
X162560000Y-60259630D01*
X166454381Y-64154011D02*
X189249011Y-64154011D01*
X189249011Y-64154011D02*
X191135000Y-66040000D01*
X189484000Y-88519000D02*
X191135000Y-86868000D01*
X184658000Y-88519000D02*
X189484000Y-88519000D01*
X191135000Y-66040000D02*
X191135000Y-86868000D01*
X184658000Y-88519000D02*
X180086000Y-88519000D01*
X189230000Y-88519000D02*
X184658000Y-88519000D01*
D22*
G04 #@! TO.N,Net-(R13-Pad1)*
X76962000Y-63881000D02*
X76962000Y-69342000D01*
X76962000Y-69342000D02*
X77343000Y-69723000D01*
X104140000Y-69723000D02*
X107696000Y-69723000D01*
X174625000Y-69215000D02*
X174625000Y-76708000D01*
G04 #@! TO.N,PACK_GATE*
X88328500Y-73914000D02*
X88328500Y-64135000D01*
G04 #@! TO.N,SER_TX_IND*
X162052000Y-114554000D02*
X162052000Y-116078000D01*
X162052000Y-92710000D02*
X162052000Y-114554000D01*
X97536000Y-62795685D02*
X97536000Y-64389000D01*
X97536000Y-62230000D02*
X97536000Y-62795685D01*
X97536000Y-64008000D02*
X97536000Y-64389000D01*
X97536000Y-64389000D02*
X97536000Y-71599500D01*
X97536000Y-71599500D02*
X97536000Y-74231500D01*
D23*
G04 #@! TO.N,LOGIC_PWR*
X167690800Y-106273600D02*
X167690800Y-103708200D01*
X170942000Y-100457000D02*
X170942000Y-97599500D01*
X167690800Y-103708200D02*
X170942000Y-100457000D01*
X185102500Y-106235500D02*
X185039000Y-106299000D01*
X185102500Y-97536000D02*
X185102500Y-106235500D01*
D24*
X160909000Y-102870000D02*
X160909000Y-94869000D01*
X160972500Y-102933500D02*
X160909000Y-102870000D01*
X160972500Y-111696500D02*
X160972500Y-102933500D01*
X98234500Y-98453500D02*
X98234500Y-107403900D01*
X98234500Y-89217500D02*
X98298000Y-89154000D01*
X98234500Y-98453500D02*
X98234500Y-89217500D01*
X98234500Y-107467400D02*
X98234500Y-116268500D01*
X98234500Y-116268500D02*
X98234500Y-116967000D01*
X131572000Y-121862315D02*
X131572000Y-122428000D01*
X131572000Y-117290315D02*
X131572000Y-121862315D01*
X136467315Y-112395000D02*
X131572000Y-117290315D01*
X160909000Y-94742000D02*
X160909000Y-87185500D01*
X160909000Y-87185500D02*
X160909000Y-86512400D01*
D22*
G04 #@! TO.N,+5V*
X46609000Y-77089000D02*
X46685200Y-77012800D01*
X59182000Y-80899000D02*
X59182000Y-78613000D01*
X59182000Y-76835000D02*
X59182000Y-76454000D01*
X59182000Y-78613000D02*
X59182000Y-77724000D01*
X72898000Y-128397000D02*
X72898000Y-127762000D01*
X72898000Y-127254000D02*
X72898000Y-128397000D01*
X72898000Y-127254000D02*
X72898000Y-118872000D01*
X72898000Y-127635000D02*
X72898000Y-127254000D01*
X42926000Y-126238000D02*
X42926000Y-93218000D01*
X59182000Y-83312000D02*
X59182000Y-84836000D01*
X59182000Y-83312000D02*
X59182000Y-83566000D01*
X59182000Y-80899000D02*
X59182000Y-83312000D01*
X61722000Y-76962000D02*
X59182000Y-76962000D01*
X59182000Y-77724000D02*
X59182000Y-76962000D01*
X59182000Y-76962000D02*
X59182000Y-76454000D01*
X176593500Y-116446300D02*
X176580800Y-116433600D01*
X176593500Y-128552500D02*
X176593500Y-116446300D01*
X42926000Y-93218000D02*
X42926000Y-56134000D01*
X59817000Y-67310000D02*
X61722000Y-67310000D01*
X59182000Y-76454000D02*
X59182000Y-67945000D01*
X59182000Y-67945000D02*
X59817000Y-67310000D01*
X140462000Y-128587500D02*
X140462000Y-121856500D01*
G04 #@! TO.N,Net-(C10-Pad1)*
X188341000Y-73533000D02*
X185547000Y-73533000D01*
X185547000Y-73533000D02*
X185293000Y-73787000D01*
G04 #@! TO.N,+3V3*
X111252000Y-59537600D02*
X111125000Y-59410600D01*
X132696001Y-122473941D02*
X131725942Y-123444000D01*
D24*
X200560940Y-120650000D02*
X203829920Y-117381020D01*
X192024000Y-120650000D02*
X200560940Y-120650000D01*
X153162000Y-126370815D02*
X153162000Y-115316000D01*
X153162000Y-126936500D02*
X153162000Y-126370815D01*
X153162000Y-115316000D02*
X153162000Y-103886000D01*
X153162000Y-103320315D02*
X153162000Y-95618300D01*
X153162000Y-103886000D02*
X153162000Y-103320315D01*
X153162000Y-87757000D02*
X153098500Y-87693500D01*
X153162000Y-95618300D02*
X153162000Y-87757000D01*
X132007882Y-123444000D02*
X129032000Y-123444000D01*
X132715000Y-122736882D02*
X132007882Y-123444000D01*
X132715000Y-117729000D02*
X132715000Y-122736882D01*
D22*
X129857500Y-123444000D02*
X129032000Y-123444000D01*
X131725942Y-123444000D02*
X129857500Y-123444000D01*
D24*
X101092000Y-116373596D02*
X101092000Y-115697000D01*
X129857500Y-123444000D02*
X108162404Y-123444000D01*
X108162404Y-123444000D02*
X101092000Y-116373596D01*
X101092000Y-115697000D02*
X101092000Y-106680000D01*
X101092000Y-106114315D02*
X101092000Y-97536000D01*
X101092000Y-106680000D02*
X101092000Y-106114315D01*
X101092000Y-96970315D02*
X101092000Y-88265000D01*
X101092000Y-97536000D02*
X101092000Y-96970315D01*
X101092000Y-73019185D02*
X101092000Y-72453500D01*
X101120501Y-73047686D02*
X101092000Y-73019185D01*
X101120501Y-85024380D02*
X101120501Y-73047686D01*
X101092000Y-85052881D02*
X101120501Y-85024380D01*
X101092000Y-88265000D02*
X101092000Y-85052881D01*
X101092000Y-71887815D02*
X101092000Y-63020501D01*
X101092000Y-72453500D02*
X101092000Y-71887815D01*
D22*
G04 #@! TO.N,PACK_V_IND*
X159184990Y-57076990D02*
X158642020Y-56534020D01*
X159184990Y-57838990D02*
X159184990Y-57076990D01*
X158642020Y-56534020D02*
X156718000Y-56534020D01*
X156718000Y-56534020D02*
X134219980Y-56534020D01*
X134219980Y-56534020D02*
X129286000Y-56534020D01*
X129286000Y-56534020D02*
X129241490Y-56534020D01*
X129241490Y-56534020D02*
X129032000Y-56743510D01*
X159184990Y-71472410D02*
X159184990Y-71247000D01*
X159184990Y-73579068D02*
X158623000Y-74141058D01*
X159184990Y-70612000D02*
X159184990Y-73579068D01*
X158623000Y-74141058D02*
X159131000Y-73633058D01*
X159184990Y-70612000D02*
X159184990Y-57838990D01*
X159184990Y-71247000D02*
X159184990Y-70612000D01*
X153947858Y-78816200D02*
X152654000Y-78816200D01*
X158623000Y-74141058D02*
X153947858Y-78816200D01*
G04 #@! TO.N,SW_IND*
X159766000Y-56642000D02*
X159077010Y-55953010D01*
X159077010Y-55953010D02*
X126799990Y-55953010D01*
X126799990Y-55953010D02*
X126672990Y-55953010D01*
X126672990Y-55953010D02*
X125984000Y-56642000D01*
X159766000Y-73355200D02*
X159766000Y-72898000D01*
X159766000Y-72898000D02*
X159766000Y-56642000D01*
X159766000Y-73787000D02*
X159766000Y-72898000D01*
X159766000Y-75438000D02*
X159766000Y-73787000D01*
X156464000Y-78740000D02*
X159766000Y-75438000D01*
X155194000Y-78740000D02*
X156464000Y-78740000D01*
G04 #@! TO.N,SW_ERR*
X160347010Y-56401338D02*
X159317672Y-55372000D01*
X123698000Y-55372000D02*
X122428000Y-56642000D01*
X125730000Y-55372000D02*
X123698000Y-55372000D01*
X125730000Y-55372000D02*
X125222000Y-55372000D01*
X159317672Y-55372000D02*
X125730000Y-55372000D01*
X160347010Y-74803000D02*
X160347010Y-56401338D01*
X160347010Y-75212590D02*
X160347010Y-74803000D01*
X160347010Y-74803000D02*
X160347010Y-75438000D01*
X160347010Y-75438000D02*
X160347010Y-76025390D01*
X160347010Y-77597000D02*
X160347010Y-75438000D01*
X159305610Y-78638400D02*
X160347010Y-77597000D01*
X157734000Y-78638400D02*
X159305610Y-78638400D01*
G04 #@! TO.N,FAN_PWR*
X75628500Y-78867000D02*
X75628500Y-63754000D01*
G04 #@! TO.N,Net-(R18-Pad1)*
X84963000Y-82804000D02*
X84963000Y-72453500D01*
X84963000Y-82931000D02*
X84963000Y-83756500D01*
X84963000Y-72453500D02*
X84963000Y-65024000D01*
X84963000Y-83756500D02*
X84963000Y-84899500D01*
G04 #@! TO.N,CELL_1-GND_SENSE*
X163830000Y-113792000D02*
X163830000Y-115062000D01*
X163830000Y-114173000D02*
X163830000Y-113792000D01*
X163830000Y-92329000D02*
X164719000Y-91440000D01*
X163830000Y-94742000D02*
X163830000Y-92329000D01*
X163830000Y-113792000D02*
X163830000Y-94742000D01*
G04 #@! TO.N,V_LOG_SENSE*
X162941000Y-96266000D02*
X162941000Y-94361000D01*
X162941000Y-113538000D02*
X162941000Y-96266000D01*
X133223000Y-123825000D02*
X132842000Y-124206000D01*
X133505501Y-123542499D02*
X133223000Y-123825000D01*
X133505501Y-116811499D02*
X133505501Y-123542499D01*
X136525000Y-113792000D02*
X133505501Y-116811499D01*
G04 #@! TO.N,CELL_2-1_SENSE*
X154432000Y-114808000D02*
X154432000Y-117094000D01*
X154432000Y-90525600D02*
X154432000Y-89852500D01*
X154432000Y-90525600D02*
X154432000Y-114808000D01*
X154432000Y-90220800D02*
X154432000Y-90525600D01*
G04 #@! TO.N,CELL_3-2_SENSE*
X151828500Y-99110800D02*
X151828500Y-98361500D01*
X151841200Y-99123500D02*
X151828500Y-99110800D01*
X151841200Y-99123500D02*
X151841200Y-98755200D01*
X151841200Y-117144800D02*
X151841200Y-99123500D01*
G04 #@! TO.N,CELL_4-3_SENSE*
X149301200Y-117094000D02*
X149301200Y-106680000D01*
G04 #@! TO.N,CELL_5-4_SENSE*
X102943010Y-114290490D02*
X103822500Y-113411000D01*
X102943010Y-115887500D02*
X102943010Y-114290490D01*
X108086510Y-121031000D02*
X107823000Y-120767490D01*
X111823500Y-121031000D02*
X108086510Y-121031000D01*
X102943010Y-115887500D02*
X107823000Y-120767490D01*
G04 #@! TO.N,CELL_6-5_SENSE*
X102362000Y-115570000D02*
X102362000Y-116268500D01*
X102362000Y-115570000D02*
X102362000Y-103886000D01*
X102362000Y-116268500D02*
X108013500Y-121920000D01*
X108013500Y-121920000D02*
X109664500Y-121920000D01*
G04 #@! TO.N,CELL_7-6_SENSE*
X99187000Y-94869000D02*
X99187000Y-94107000D01*
X99187000Y-95504000D02*
X99187000Y-94869000D01*
X99187000Y-117170200D02*
X99187000Y-116840000D01*
X107035600Y-125018800D02*
X99187000Y-117170200D01*
X99187000Y-117094000D02*
X99187000Y-116840000D01*
X99187000Y-116840000D02*
X99187000Y-95504000D01*
G04 #@! TO.N,CELL_8-7_SENSE*
X100139500Y-92964000D02*
X100139500Y-84553499D01*
X100139500Y-116448674D02*
X100139500Y-115824000D01*
X100139500Y-115316000D02*
X100139500Y-116448674D01*
X100139500Y-115824000D02*
X100139500Y-115316000D01*
X100139500Y-113792000D02*
X100139500Y-116512174D01*
X100139500Y-113792000D02*
X100139500Y-92964000D01*
X100139500Y-116649500D02*
X100139500Y-114808000D01*
X109220000Y-125730000D02*
X100139500Y-116649500D01*
X100139500Y-115316000D02*
X100139500Y-114808000D01*
X100139500Y-114808000D02*
X100139500Y-113792000D01*
G04 #@! TO.N,TEMP_D_OUT*
X78232000Y-72292185D02*
X78232000Y-74168000D01*
X78232000Y-72292185D02*
X78232000Y-70929500D01*
G04 #@! TO.N,PACK_I_SENSE*
X207650080Y-127502920D02*
X207645000Y-127508000D01*
X207650080Y-117381020D02*
X207650080Y-127502920D01*
X73914000Y-127000000D02*
X73914000Y-117195600D01*
X73914000Y-117195600D02*
X73914000Y-116840000D01*
X73914000Y-116820415D02*
X73914000Y-117195600D01*
X74173815Y-116560600D02*
X73914000Y-116820415D01*
X74739500Y-116560600D02*
X74173815Y-116560600D01*
G04 #@! TD*
D25*
G04 #@! TO.N,V_OUT*
G36*
X245364000Y-58574076D02*
X245364000Y-87503000D01*
X205867000Y-87503000D01*
X205867000Y-56769000D01*
X243558924Y-56769000D01*
X245364000Y-58574076D01*
X245364000Y-58574076D01*
G37*
X245364000Y-58574076D02*
X245364000Y-87503000D01*
X205867000Y-87503000D01*
X205867000Y-56769000D01*
X243558924Y-56769000D01*
X245364000Y-58574076D01*
G04 #@! TO.N,Net-(C10-Pad1)*
G36*
X204851000Y-92456000D02*
X204860667Y-92504601D01*
X204888197Y-92545803D01*
X204929399Y-92573333D01*
X204978000Y-92583000D01*
X205359000Y-92583000D01*
X205359000Y-98933000D01*
X191643000Y-98933000D01*
X191643000Y-88425459D01*
X192066019Y-88002440D01*
X192187961Y-87920961D01*
X192510760Y-87437858D01*
X192595500Y-87011842D01*
X192595500Y-87011841D01*
X192624112Y-86868000D01*
X192595500Y-86724159D01*
X192595500Y-66183836D01*
X192624111Y-66039999D01*
X192595500Y-65896162D01*
X192595500Y-65896158D01*
X192510760Y-65470142D01*
X192187961Y-64987039D01*
X192066016Y-64905558D01*
X192057458Y-64897000D01*
X204851000Y-64897000D01*
X204851000Y-92456000D01*
X204851000Y-92456000D01*
G37*
X204851000Y-92456000D02*
X204860667Y-92504601D01*
X204888197Y-92545803D01*
X204929399Y-92573333D01*
X204978000Y-92583000D01*
X205359000Y-92583000D01*
X205359000Y-98933000D01*
X191643000Y-98933000D01*
X191643000Y-88425459D01*
X192066019Y-88002440D01*
X192187961Y-87920961D01*
X192510760Y-87437858D01*
X192595500Y-87011842D01*
X192595500Y-87011841D01*
X192624112Y-86868000D01*
X192595500Y-86724159D01*
X192595500Y-66183836D01*
X192624111Y-66039999D01*
X192595500Y-65896162D01*
X192595500Y-65896158D01*
X192510760Y-65470142D01*
X192187961Y-64987039D01*
X192066016Y-64905558D01*
X192057458Y-64897000D01*
X204851000Y-64897000D01*
X204851000Y-92456000D01*
G04 #@! TO.N,/V_IN*
G36*
X249759001Y-126702899D02*
X249695448Y-127205967D01*
X249524777Y-127637031D01*
X249252267Y-128012109D01*
X248895040Y-128307633D01*
X248475546Y-128505032D01*
X247988087Y-128598019D01*
X247893240Y-128601000D01*
X210185000Y-128601000D01*
X210185000Y-120850419D01*
X241263800Y-120850419D01*
X241263800Y-122481581D01*
X241888018Y-123988577D01*
X243041423Y-125141982D01*
X244548419Y-125766200D01*
X246179581Y-125766200D01*
X247686577Y-125141982D01*
X248839982Y-123988577D01*
X249464200Y-122481581D01*
X249464200Y-120850419D01*
X248839982Y-119343423D01*
X247686577Y-118190018D01*
X246179581Y-117565800D01*
X244548419Y-117565800D01*
X243041423Y-118190018D01*
X241888018Y-119343423D01*
X241263800Y-120850419D01*
X210185000Y-120850419D01*
X210185000Y-111760000D01*
X210175333Y-111711399D01*
X210147803Y-111670197D01*
X210106601Y-111642667D01*
X210058000Y-111633000D01*
X206121000Y-111633000D01*
X206121000Y-90043000D01*
X249759000Y-90043000D01*
X249759001Y-126702899D01*
X249759001Y-126702899D01*
G37*
X249759001Y-126702899D02*
X249695448Y-127205967D01*
X249524777Y-127637031D01*
X249252267Y-128012109D01*
X248895040Y-128307633D01*
X248475546Y-128505032D01*
X247988087Y-128598019D01*
X247893240Y-128601000D01*
X210185000Y-128601000D01*
X210185000Y-120850419D01*
X241263800Y-120850419D01*
X241263800Y-122481581D01*
X241888018Y-123988577D01*
X243041423Y-125141982D01*
X244548419Y-125766200D01*
X246179581Y-125766200D01*
X247686577Y-125141982D01*
X248839982Y-123988577D01*
X249464200Y-122481581D01*
X249464200Y-120850419D01*
X248839982Y-119343423D01*
X247686577Y-118190018D01*
X246179581Y-117565800D01*
X244548419Y-117565800D01*
X243041423Y-118190018D01*
X241888018Y-119343423D01*
X241263800Y-120850419D01*
X210185000Y-120850419D01*
X210185000Y-111760000D01*
X210175333Y-111711399D01*
X210147803Y-111670197D01*
X210106601Y-111642667D01*
X210058000Y-111633000D01*
X206121000Y-111633000D01*
X206121000Y-90043000D01*
X249759000Y-90043000D01*
X249759001Y-126702899D01*
G04 #@! TO.N,GND*
G36*
X101327000Y-54025374D02*
X101484569Y-54405780D01*
X101536501Y-54457712D01*
X101536500Y-62084343D01*
X101492277Y-62066025D01*
X101488423Y-62063450D01*
X101483877Y-62062546D01*
X101297874Y-61985501D01*
X101096545Y-61985501D01*
X101092000Y-61984597D01*
X101087455Y-61985501D01*
X100886126Y-61985501D01*
X100700122Y-62062546D01*
X100695578Y-62063450D01*
X100691725Y-62066024D01*
X100505720Y-62143070D01*
X100363357Y-62285433D01*
X100359506Y-62288006D01*
X100356933Y-62291857D01*
X100214569Y-62434221D01*
X100137523Y-62620228D01*
X100134950Y-62624078D01*
X100134047Y-62628620D01*
X100057000Y-62814627D01*
X100057000Y-63226375D01*
X100076001Y-63272247D01*
X100076000Y-71787750D01*
X100076000Y-72201756D01*
X100057000Y-72247626D01*
X100057000Y-72659374D01*
X100076000Y-72705244D01*
X100076000Y-72919122D01*
X100056096Y-73019185D01*
X100076000Y-73119248D01*
X100076000Y-73119249D01*
X100104502Y-73262539D01*
X100104501Y-83518499D01*
X99933626Y-83518499D01*
X99553220Y-83676068D01*
X99262069Y-83967219D01*
X99104500Y-84347625D01*
X99104500Y-84759373D01*
X99262069Y-85139779D01*
X99314001Y-85191711D01*
X99314000Y-88902257D01*
X99255954Y-88762120D01*
X99255050Y-88757576D01*
X99252476Y-88753724D01*
X99175431Y-88567720D01*
X99033070Y-88425359D01*
X99030495Y-88421505D01*
X99026641Y-88418930D01*
X98884280Y-88276569D01*
X98698276Y-88199524D01*
X98694424Y-88196950D01*
X98689880Y-88196046D01*
X98503874Y-88119000D01*
X98317000Y-88119000D01*
X98317000Y-87932126D01*
X98159431Y-87551720D01*
X98107500Y-87499789D01*
X98107500Y-84458211D01*
X98159431Y-84406280D01*
X98317000Y-84025874D01*
X98317000Y-83614126D01*
X98159431Y-83233720D01*
X97868280Y-82942569D01*
X97487874Y-82785000D01*
X97076126Y-82785000D01*
X96695720Y-82942569D01*
X96404569Y-83233720D01*
X96393000Y-83261650D01*
X96393000Y-80662803D01*
X96409172Y-80581500D01*
X96345104Y-80259406D01*
X96208706Y-80055273D01*
X96162652Y-79986348D01*
X96093726Y-79940293D01*
X95101736Y-78948303D01*
X94507000Y-78353568D01*
X94507000Y-78280126D01*
X94349431Y-77899720D01*
X94058280Y-77608569D01*
X93677874Y-77451000D01*
X93266126Y-77451000D01*
X92885720Y-77608569D01*
X92594569Y-77899720D01*
X92437000Y-78280126D01*
X92437000Y-78691874D01*
X92594569Y-79072280D01*
X92885720Y-79363431D01*
X93266126Y-79521000D01*
X93339568Y-79521000D01*
X93896662Y-80078094D01*
X94742000Y-80923433D01*
X94742000Y-81043803D01*
X94742001Y-81043808D01*
X94742000Y-95803697D01*
X94742000Y-95803698D01*
X94742001Y-98485288D01*
X94690069Y-98537220D01*
X94532500Y-98917626D01*
X94532500Y-99329374D01*
X94690069Y-99709780D01*
X94981220Y-100000931D01*
X95361626Y-100158500D01*
X95773374Y-100158500D01*
X96153780Y-100000931D01*
X96444931Y-99709780D01*
X96456501Y-99681849D01*
X96456501Y-113501737D01*
X96187720Y-113613069D01*
X95896569Y-113904220D01*
X95739000Y-114284626D01*
X95739000Y-114696374D01*
X95896569Y-115076780D01*
X96187720Y-115367931D01*
X96568126Y-115525500D01*
X96979874Y-115525500D01*
X97218501Y-115426658D01*
X97218501Y-116168431D01*
X97218500Y-116168436D01*
X97218500Y-116715256D01*
X97199500Y-116761126D01*
X97199500Y-117172874D01*
X97276547Y-117358881D01*
X97277450Y-117363423D01*
X97280023Y-117367273D01*
X97357069Y-117553280D01*
X97499433Y-117695644D01*
X97502006Y-117699495D01*
X97505857Y-117702068D01*
X97648220Y-117844431D01*
X97834225Y-117921477D01*
X97838078Y-117924051D01*
X97842622Y-117924955D01*
X98028626Y-118002000D01*
X98229955Y-118002000D01*
X98234500Y-118002904D01*
X98239045Y-118002000D01*
X98440374Y-118002000D01*
X98626377Y-117924955D01*
X98630923Y-117924051D01*
X98634777Y-117921476D01*
X98730991Y-117881623D01*
X106000600Y-125151233D01*
X106000600Y-125224674D01*
X106158169Y-125605080D01*
X106449320Y-125896231D01*
X106829726Y-126053800D01*
X107241474Y-126053800D01*
X107621880Y-125896231D01*
X107913031Y-125605080D01*
X107917312Y-125594745D01*
X108185000Y-125862433D01*
X108185000Y-125935874D01*
X108342569Y-126316280D01*
X108633720Y-126607431D01*
X109014126Y-126765000D01*
X109425874Y-126765000D01*
X109806280Y-126607431D01*
X110097431Y-126316280D01*
X110255000Y-125935874D01*
X110255000Y-125524126D01*
X110097431Y-125143720D01*
X109806280Y-124852569D01*
X109425874Y-124695000D01*
X109352433Y-124695000D01*
X109117433Y-124460000D01*
X131826934Y-124460000D01*
X131964569Y-124792280D01*
X132255720Y-125083431D01*
X132636126Y-125241000D01*
X133047874Y-125241000D01*
X133428280Y-125083431D01*
X133719431Y-124792280D01*
X133877000Y-124411874D01*
X133877000Y-124338432D01*
X134031724Y-124183708D01*
X134100653Y-124137651D01*
X134283105Y-123864593D01*
X134331001Y-123623802D01*
X134347173Y-123542499D01*
X134331001Y-123461196D01*
X134331001Y-117153431D01*
X136657434Y-114827000D01*
X136730874Y-114827000D01*
X137111280Y-114669431D01*
X137402431Y-114378280D01*
X137560000Y-113997874D01*
X137560000Y-113586126D01*
X137402431Y-113205720D01*
X137290211Y-113093500D01*
X137402431Y-112981280D01*
X137560000Y-112600874D01*
X137560000Y-112189126D01*
X137402431Y-111808720D01*
X137111280Y-111517569D01*
X136730874Y-111360000D01*
X136471860Y-111360000D01*
X136467315Y-111359096D01*
X136462770Y-111360000D01*
X136319126Y-111360000D01*
X136186414Y-111414971D01*
X136070891Y-111437950D01*
X135972956Y-111503388D01*
X135938720Y-111517569D01*
X135912517Y-111543772D01*
X135819651Y-111605823D01*
X130924340Y-116501135D01*
X130839505Y-116557820D01*
X130614949Y-116893893D01*
X130558974Y-117175302D01*
X130536096Y-117290315D01*
X130556000Y-117390379D01*
X130556001Y-121762246D01*
X130556000Y-121762251D01*
X130556000Y-122176256D01*
X130537000Y-122222126D01*
X130537000Y-122428000D01*
X110574356Y-122428000D01*
X110699500Y-122125874D01*
X110699500Y-121856500D01*
X111185289Y-121856500D01*
X111237220Y-121908431D01*
X111617626Y-122066000D01*
X112029374Y-122066000D01*
X112409780Y-121908431D01*
X112700931Y-121617280D01*
X112858500Y-121236874D01*
X112858500Y-120825126D01*
X112700931Y-120444720D01*
X112409780Y-120153569D01*
X112029374Y-119996000D01*
X111617626Y-119996000D01*
X111237220Y-120153569D01*
X111185289Y-120205500D01*
X108428443Y-120205500D01*
X103768510Y-115545568D01*
X103768510Y-114632422D01*
X103954932Y-114446000D01*
X104028374Y-114446000D01*
X104408780Y-114288431D01*
X104699931Y-113997280D01*
X104857500Y-113616874D01*
X104857500Y-113205126D01*
X104699931Y-112824720D01*
X104408780Y-112533569D01*
X104028374Y-112376000D01*
X103616626Y-112376000D01*
X103236220Y-112533569D01*
X103187500Y-112582289D01*
X103187500Y-109522126D01*
X120059500Y-109522126D01*
X120059500Y-109933874D01*
X120217069Y-110314280D01*
X120508220Y-110605431D01*
X120888626Y-110763000D01*
X121300374Y-110763000D01*
X121680780Y-110605431D01*
X121732711Y-110553500D01*
X125349000Y-110553500D01*
X125349001Y-112751566D01*
X124200568Y-113900000D01*
X124127126Y-113900000D01*
X123746720Y-114057569D01*
X123455569Y-114348720D01*
X123298000Y-114729126D01*
X123298000Y-115140874D01*
X123455569Y-115521280D01*
X123746720Y-115812431D01*
X124127126Y-115970000D01*
X124538874Y-115970000D01*
X124919280Y-115812431D01*
X125210431Y-115521280D01*
X125368000Y-115140874D01*
X125368000Y-115067432D01*
X126028501Y-114406931D01*
X126028502Y-114696787D01*
X125995569Y-114729720D01*
X125838000Y-115110126D01*
X125838000Y-115521874D01*
X125995569Y-115902280D01*
X126286720Y-116193431D01*
X126667126Y-116351000D01*
X127078874Y-116351000D01*
X127459280Y-116193431D01*
X127750431Y-115902280D01*
X127908000Y-115521874D01*
X127908000Y-115110126D01*
X127750431Y-114729720D01*
X127679501Y-114658790D01*
X127679501Y-106474126D01*
X148266200Y-106474126D01*
X148266200Y-106885874D01*
X148423769Y-107266280D01*
X148475701Y-107318212D01*
X148475700Y-116455789D01*
X148423769Y-116507720D01*
X148266200Y-116888126D01*
X148266200Y-117299874D01*
X148423769Y-117680280D01*
X148714920Y-117971431D01*
X149095326Y-118129000D01*
X149507074Y-118129000D01*
X149887480Y-117971431D01*
X150178631Y-117680280D01*
X150336200Y-117299874D01*
X150336200Y-116888126D01*
X150178631Y-116507720D01*
X150126700Y-116455789D01*
X150126700Y-107318211D01*
X150178631Y-107266280D01*
X150336200Y-106885874D01*
X150336200Y-106474126D01*
X150178631Y-106093720D01*
X149887480Y-105802569D01*
X149507074Y-105645000D01*
X149095326Y-105645000D01*
X148714920Y-105802569D01*
X148423769Y-106093720D01*
X148266200Y-106474126D01*
X127679501Y-106474126D01*
X127679501Y-105495710D01*
X127877431Y-105297780D01*
X128035000Y-104917374D01*
X128035000Y-104505626D01*
X127877431Y-104125220D01*
X127679501Y-103927290D01*
X127679501Y-99587000D01*
X127967874Y-99587000D01*
X128348280Y-99429431D01*
X128639431Y-99138280D01*
X128797000Y-98757874D01*
X128797000Y-98346126D01*
X128718093Y-98155626D01*
X150793500Y-98155626D01*
X150793500Y-98567374D01*
X150951069Y-98947780D01*
X151003000Y-98999711D01*
X151003000Y-99029499D01*
X150986828Y-99110800D01*
X151003000Y-99192101D01*
X151003000Y-99192102D01*
X151015701Y-99255955D01*
X151015700Y-116506589D01*
X150963769Y-116558520D01*
X150806200Y-116938926D01*
X150806200Y-117350674D01*
X150963769Y-117731080D01*
X151254920Y-118022231D01*
X151635326Y-118179800D01*
X152047074Y-118179800D01*
X152146001Y-118138823D01*
X152146000Y-126270750D01*
X152146000Y-126684756D01*
X152127000Y-126730626D01*
X152127000Y-127142374D01*
X152204045Y-127328378D01*
X152204949Y-127332922D01*
X152207523Y-127336775D01*
X152284569Y-127522780D01*
X152426930Y-127665141D01*
X152429505Y-127668995D01*
X152433359Y-127671570D01*
X152575720Y-127813931D01*
X152761723Y-127890976D01*
X152765577Y-127893551D01*
X152770123Y-127894455D01*
X152956126Y-127971500D01*
X153157455Y-127971500D01*
X153162000Y-127972404D01*
X153166545Y-127971500D01*
X153367874Y-127971500D01*
X153553878Y-127894455D01*
X153558422Y-127893551D01*
X153562275Y-127890977D01*
X153748280Y-127813931D01*
X153890641Y-127671570D01*
X153894495Y-127668995D01*
X153897070Y-127665141D01*
X154039431Y-127522780D01*
X154116476Y-127336777D01*
X154119051Y-127332923D01*
X154119955Y-127328377D01*
X154197000Y-127142374D01*
X154197000Y-126730626D01*
X154178000Y-126684756D01*
X154178000Y-118109066D01*
X154226126Y-118129000D01*
X154637874Y-118129000D01*
X155018280Y-117971431D01*
X155309431Y-117680280D01*
X155467000Y-117299874D01*
X155467000Y-116888126D01*
X155309431Y-116507720D01*
X155257500Y-116455789D01*
X155257500Y-102600456D01*
X159553910Y-102600456D01*
X159553910Y-103139544D01*
X159760210Y-103637597D01*
X159956501Y-103833888D01*
X159956500Y-111444756D01*
X159937500Y-111490626D01*
X159937500Y-111902374D01*
X160014545Y-112088378D01*
X160015449Y-112092922D01*
X160018023Y-112096775D01*
X160095069Y-112282780D01*
X160237430Y-112425141D01*
X160240005Y-112428995D01*
X160243859Y-112431570D01*
X160386220Y-112573931D01*
X160572223Y-112650976D01*
X160576077Y-112653551D01*
X160580623Y-112654455D01*
X160766626Y-112731500D01*
X160967955Y-112731500D01*
X160972500Y-112732404D01*
X160977045Y-112731500D01*
X161178374Y-112731500D01*
X161226501Y-112711565D01*
X161226501Y-114472693D01*
X161226500Y-114472698D01*
X161226501Y-115439788D01*
X161174569Y-115491720D01*
X161017000Y-115872126D01*
X161017000Y-116283874D01*
X161174569Y-116664280D01*
X161465720Y-116955431D01*
X161846126Y-117113000D01*
X162257874Y-117113000D01*
X162638280Y-116955431D01*
X162929431Y-116664280D01*
X163087000Y-116283874D01*
X163087000Y-115872126D01*
X163023774Y-115719485D01*
X163243720Y-115939431D01*
X163624126Y-116097000D01*
X164035874Y-116097000D01*
X164416280Y-115939431D01*
X164707431Y-115648280D01*
X164865000Y-115267874D01*
X164865000Y-114856126D01*
X164707431Y-114475720D01*
X164655500Y-114423789D01*
X164655500Y-103708200D01*
X166201689Y-103708200D01*
X166230301Y-103852041D01*
X166230300Y-106417441D01*
X166315040Y-106843457D01*
X166637839Y-107326561D01*
X167120942Y-107649360D01*
X167690800Y-107762712D01*
X168260657Y-107649360D01*
X168743761Y-107326561D01*
X169066560Y-106843458D01*
X169151300Y-106417442D01*
X169151300Y-105995719D01*
X171373800Y-105995719D01*
X171373800Y-106551481D01*
X171586480Y-107064937D01*
X171979463Y-107457920D01*
X172492919Y-107670600D01*
X173048681Y-107670600D01*
X173562137Y-107457920D01*
X173955120Y-107064937D01*
X174167800Y-106551481D01*
X174167800Y-106299000D01*
X183549889Y-106299000D01*
X183663241Y-106868858D01*
X183986039Y-107351961D01*
X184469142Y-107674759D01*
X185039000Y-107788111D01*
X185608858Y-107674759D01*
X185970017Y-107433441D01*
X186033516Y-107369942D01*
X186155461Y-107288461D01*
X186478260Y-106805358D01*
X186563000Y-106379342D01*
X186563000Y-106379341D01*
X186591612Y-106235500D01*
X186563000Y-106091659D01*
X186563000Y-104648000D01*
X188087000Y-104648000D01*
X188087000Y-121412000D01*
X188135336Y-121655004D01*
X188272987Y-121861013D01*
X188478996Y-121998664D01*
X188722000Y-122047000D01*
X194564000Y-122047000D01*
X194807004Y-121998664D01*
X195013013Y-121861013D01*
X195143317Y-121666000D01*
X200460877Y-121666000D01*
X200560940Y-121685904D01*
X200661003Y-121666000D01*
X200661005Y-121666000D01*
X200957363Y-121607051D01*
X201293435Y-121382495D01*
X201350120Y-121297660D01*
X203881191Y-118766590D01*
X204105527Y-118766590D01*
X204614782Y-118555650D01*
X205004550Y-118165882D01*
X205215490Y-117656627D01*
X205215490Y-117105413D01*
X205004550Y-116596158D01*
X204614782Y-116206390D01*
X204105527Y-115995450D01*
X203554313Y-115995450D01*
X203045058Y-116206390D01*
X202655290Y-116596158D01*
X202444350Y-117105413D01*
X202444350Y-117329749D01*
X200140100Y-119634000D01*
X195199000Y-119634000D01*
X195199000Y-104648000D01*
X195150664Y-104404996D01*
X195013013Y-104198987D01*
X194807004Y-104061336D01*
X194564000Y-104013000D01*
X188722000Y-104013000D01*
X188478996Y-104061336D01*
X188272987Y-104198987D01*
X188135336Y-104404996D01*
X188087000Y-104648000D01*
X186563000Y-104648000D01*
X186563000Y-97392158D01*
X186549940Y-97326500D01*
X186549940Y-96736000D01*
X186500657Y-96488235D01*
X186360309Y-96278191D01*
X186150265Y-96137843D01*
X185902500Y-96088560D01*
X185311999Y-96088560D01*
X185102500Y-96046888D01*
X184893001Y-96088560D01*
X184302500Y-96088560D01*
X184054735Y-96137843D01*
X183844691Y-96278191D01*
X183704343Y-96488235D01*
X183655060Y-96736000D01*
X183655060Y-97326500D01*
X183642000Y-97392159D01*
X183642001Y-105835923D01*
X183549889Y-106299000D01*
X174167800Y-106299000D01*
X174167800Y-105995719D01*
X173955120Y-105482263D01*
X173562137Y-105089280D01*
X173048681Y-104876600D01*
X172492919Y-104876600D01*
X171979463Y-105089280D01*
X171586480Y-105482263D01*
X171373800Y-105995719D01*
X169151300Y-105995719D01*
X169151300Y-104313158D01*
X171873019Y-101591440D01*
X171994961Y-101509961D01*
X172317760Y-101026858D01*
X172402500Y-100600842D01*
X172402500Y-100600838D01*
X172431111Y-100457001D01*
X172402500Y-100313164D01*
X172402500Y-97455658D01*
X172389440Y-97390001D01*
X172389440Y-96799500D01*
X172340157Y-96551735D01*
X172199809Y-96341691D01*
X171989765Y-96201343D01*
X171742000Y-96152060D01*
X171151499Y-96152060D01*
X170942000Y-96110388D01*
X170732501Y-96152060D01*
X170142000Y-96152060D01*
X169894235Y-96201343D01*
X169684191Y-96341691D01*
X169543843Y-96551735D01*
X169494560Y-96799500D01*
X169494560Y-97390006D01*
X169481501Y-97455658D01*
X169481500Y-99852041D01*
X166759782Y-102573760D01*
X166637840Y-102655239D01*
X166556361Y-102777181D01*
X166556359Y-102777183D01*
X166315041Y-103138342D01*
X166201689Y-103708200D01*
X164655500Y-103708200D01*
X164655500Y-92670932D01*
X164851432Y-92475000D01*
X164924874Y-92475000D01*
X165305280Y-92317431D01*
X165596431Y-92026280D01*
X165754000Y-91645874D01*
X165754000Y-91234126D01*
X165596431Y-90853720D01*
X165305280Y-90562569D01*
X164924874Y-90405000D01*
X164513126Y-90405000D01*
X164132720Y-90562569D01*
X163841569Y-90853720D01*
X163684000Y-91234126D01*
X163684000Y-91307568D01*
X163303775Y-91687793D01*
X163234849Y-91733848D01*
X163188794Y-91802774D01*
X163052397Y-92006906D01*
X162996806Y-92286378D01*
X162929431Y-92123720D01*
X162638280Y-91832569D01*
X162257874Y-91675000D01*
X161925000Y-91675000D01*
X161925000Y-86713344D01*
X161944000Y-86667474D01*
X161944000Y-86255726D01*
X161786431Y-85875320D01*
X161495280Y-85584169D01*
X161114874Y-85426600D01*
X160703126Y-85426600D01*
X160322720Y-85584169D01*
X160031569Y-85875320D01*
X159874000Y-86255726D01*
X159874000Y-86667474D01*
X159893000Y-86713344D01*
X159893000Y-87285564D01*
X159893001Y-87285569D01*
X159893000Y-94490256D01*
X159874000Y-94536126D01*
X159874000Y-94947874D01*
X159893001Y-94993747D01*
X159893000Y-101969613D01*
X159760210Y-102102403D01*
X159553910Y-102600456D01*
X155257500Y-102600456D01*
X155257500Y-90490711D01*
X155309431Y-90438780D01*
X155467000Y-90058374D01*
X155467000Y-89646626D01*
X155309431Y-89266220D01*
X155018280Y-88975069D01*
X154637874Y-88817500D01*
X154226126Y-88817500D01*
X154178000Y-88837434D01*
X154178000Y-87857064D01*
X154197904Y-87757000D01*
X154178000Y-87656935D01*
X154119051Y-87360577D01*
X154018610Y-87210256D01*
X153975931Y-87107220D01*
X153897070Y-87028359D01*
X153894495Y-87024505D01*
X153890641Y-87021930D01*
X153684780Y-86816069D01*
X153498773Y-86739023D01*
X153494923Y-86736450D01*
X153490381Y-86735547D01*
X153304374Y-86658500D01*
X153103045Y-86658500D01*
X153098500Y-86657596D01*
X153093955Y-86658500D01*
X152892626Y-86658500D01*
X152706619Y-86735547D01*
X152702077Y-86736450D01*
X152698227Y-86739023D01*
X152512220Y-86816069D01*
X152369854Y-86958435D01*
X152366006Y-86961006D01*
X152363435Y-86964854D01*
X152221069Y-87107220D01*
X152144023Y-87293227D01*
X152141450Y-87297077D01*
X152140547Y-87301619D01*
X152063500Y-87487626D01*
X152063500Y-87688955D01*
X152062596Y-87693500D01*
X152063500Y-87698045D01*
X152063500Y-87899374D01*
X152140547Y-88085381D01*
X152141450Y-88089923D01*
X152144023Y-88093773D01*
X152146001Y-88098549D01*
X152146000Y-95366556D01*
X152127000Y-95412426D01*
X152127000Y-95824174D01*
X152146001Y-95870046D01*
X152146001Y-97372737D01*
X152034374Y-97326500D01*
X151622626Y-97326500D01*
X151242220Y-97484069D01*
X150951069Y-97775220D01*
X150793500Y-98155626D01*
X128718093Y-98155626D01*
X128639431Y-97965720D01*
X128348280Y-97674569D01*
X128333500Y-97668447D01*
X128333500Y-91459000D01*
X128729874Y-91459000D01*
X129110280Y-91301431D01*
X129401431Y-91010280D01*
X129559000Y-90629874D01*
X129559000Y-90218126D01*
X129401431Y-89837720D01*
X129110280Y-89546569D01*
X128914510Y-89465479D01*
X128914510Y-85548400D01*
X129080126Y-85617000D01*
X129491874Y-85617000D01*
X129872280Y-85459431D01*
X130163431Y-85168280D01*
X130321000Y-84787874D01*
X130321000Y-84376126D01*
X130163431Y-83995720D01*
X129872280Y-83704569D01*
X129648009Y-83611673D01*
X129648009Y-73577501D01*
X155175000Y-73577501D01*
X155175000Y-73611874D01*
X155332569Y-73992280D01*
X155623720Y-74283431D01*
X156004126Y-74441000D01*
X156415874Y-74441000D01*
X156796280Y-74283431D01*
X157087431Y-73992280D01*
X157245000Y-73611874D01*
X157245000Y-73200126D01*
X157087431Y-72819720D01*
X157035500Y-72767789D01*
X157035500Y-72217302D01*
X157051672Y-72136000D01*
X157035500Y-72054697D01*
X157035500Y-68206157D01*
X157394320Y-67847337D01*
X157607000Y-67333881D01*
X157607000Y-66778119D01*
X157394320Y-66264663D01*
X157035500Y-65905843D01*
X157035500Y-60459157D01*
X157394320Y-60100337D01*
X157607000Y-59586881D01*
X157607000Y-59031119D01*
X157394320Y-58517663D01*
X157001337Y-58124680D01*
X156487881Y-57912000D01*
X155932119Y-57912000D01*
X155418663Y-58124680D01*
X155025680Y-58517663D01*
X154940000Y-58724513D01*
X154854320Y-58517663D01*
X154461337Y-58124680D01*
X153947881Y-57912000D01*
X153392119Y-57912000D01*
X152878663Y-58124680D01*
X152485680Y-58517663D01*
X152400000Y-58724513D01*
X152314320Y-58517663D01*
X151921337Y-58124680D01*
X151407881Y-57912000D01*
X150852119Y-57912000D01*
X150338663Y-58124680D01*
X149945680Y-58517663D01*
X149860000Y-58724513D01*
X149774320Y-58517663D01*
X149381337Y-58124680D01*
X148867881Y-57912000D01*
X148312119Y-57912000D01*
X147798663Y-58124680D01*
X147405680Y-58517663D01*
X147320000Y-58724513D01*
X147234320Y-58517663D01*
X146841337Y-58124680D01*
X146327881Y-57912000D01*
X145772119Y-57912000D01*
X145258663Y-58124680D01*
X144865680Y-58517663D01*
X144780000Y-58724513D01*
X144694320Y-58517663D01*
X144301337Y-58124680D01*
X143787881Y-57912000D01*
X143232119Y-57912000D01*
X142718663Y-58124680D01*
X142325680Y-58517663D01*
X142240000Y-58724513D01*
X142154320Y-58517663D01*
X141761337Y-58124680D01*
X141247881Y-57912000D01*
X140692119Y-57912000D01*
X140178663Y-58124680D01*
X139785680Y-58517663D01*
X139700000Y-58724513D01*
X139614320Y-58517663D01*
X139221337Y-58124680D01*
X138707881Y-57912000D01*
X138152119Y-57912000D01*
X137638663Y-58124680D01*
X137245680Y-58517663D01*
X137033000Y-59031119D01*
X137033000Y-59586881D01*
X137245680Y-60100337D01*
X137604500Y-60459157D01*
X137604501Y-65905842D01*
X137245680Y-66264663D01*
X137033000Y-66778119D01*
X137033000Y-67333881D01*
X137207226Y-67754500D01*
X127596958Y-67754500D01*
X127515656Y-67738328D01*
X127434353Y-67754500D01*
X127193562Y-67802396D01*
X126920504Y-67984848D01*
X126905054Y-68007971D01*
X126858858Y-68038838D01*
X126812803Y-68107764D01*
X124957389Y-69963178D01*
X124728780Y-69734569D01*
X124348374Y-69577000D01*
X123936626Y-69577000D01*
X123556220Y-69734569D01*
X123265069Y-70025720D01*
X123107500Y-70406126D01*
X123107500Y-70458240D01*
X123102848Y-70461348D01*
X122920396Y-70734407D01*
X122880676Y-70934093D01*
X122856328Y-71056500D01*
X122872500Y-71137802D01*
X122872501Y-80373193D01*
X122872500Y-80373198D01*
X122872501Y-81446067D01*
X122740067Y-81578500D01*
X122666626Y-81578500D01*
X122286220Y-81736069D01*
X121995069Y-82027220D01*
X121837500Y-82407626D01*
X121837500Y-82819374D01*
X121995069Y-83199780D01*
X122286220Y-83490931D01*
X122663000Y-83646998D01*
X122663000Y-83771874D01*
X122820569Y-84152280D01*
X123111720Y-84443431D01*
X123492126Y-84601000D01*
X123903874Y-84601000D01*
X124142501Y-84502158D01*
X124142501Y-88812066D01*
X124073567Y-88881000D01*
X124000126Y-88881000D01*
X123619720Y-89038569D01*
X123328569Y-89329720D01*
X123171000Y-89710126D01*
X123171000Y-90121874D01*
X123328569Y-90502280D01*
X123619720Y-90793431D01*
X124000126Y-90951000D01*
X124411874Y-90951000D01*
X124777501Y-90799553D01*
X124777501Y-99446447D01*
X124762720Y-99452569D01*
X124471569Y-99743720D01*
X124314000Y-100124126D01*
X124314000Y-100535874D01*
X124471569Y-100916280D01*
X124762720Y-101207431D01*
X125143126Y-101365000D01*
X125412501Y-101365000D01*
X125412501Y-103286552D01*
X125396896Y-103309907D01*
X125369807Y-103446094D01*
X125332828Y-103632000D01*
X125349000Y-103713302D01*
X125349001Y-105462192D01*
X125349000Y-105462196D01*
X125349000Y-105836698D01*
X125349001Y-108376693D01*
X125349000Y-108376698D01*
X125349000Y-108902500D01*
X121732711Y-108902500D01*
X121680780Y-108850569D01*
X121300374Y-108693000D01*
X120888626Y-108693000D01*
X120508220Y-108850569D01*
X120217069Y-109141720D01*
X120059500Y-109522126D01*
X103187500Y-109522126D01*
X103187500Y-104524211D01*
X103239431Y-104472280D01*
X103397000Y-104091874D01*
X103397000Y-103680126D01*
X103239431Y-103299720D01*
X102948280Y-103008569D01*
X102567874Y-102851000D01*
X102156126Y-102851000D01*
X102108000Y-102870934D01*
X102108000Y-97787744D01*
X102127000Y-97741874D01*
X102127000Y-97330126D01*
X102108000Y-97284256D01*
X102108000Y-88516744D01*
X102127000Y-88470874D01*
X102127000Y-88059126D01*
X102108000Y-88013256D01*
X102108000Y-85267730D01*
X102136501Y-85124445D01*
X102136501Y-85124443D01*
X102156405Y-85024380D01*
X102136501Y-84924316D01*
X102136501Y-73147750D01*
X102156405Y-73047686D01*
X102136501Y-72947621D01*
X102108000Y-72804336D01*
X102108000Y-72705244D01*
X102127000Y-72659374D01*
X102127000Y-72247626D01*
X102108000Y-72201756D01*
X102108000Y-69517126D01*
X103105000Y-69517126D01*
X103105000Y-69928874D01*
X103262569Y-70309280D01*
X103553720Y-70600431D01*
X103934126Y-70758000D01*
X104345874Y-70758000D01*
X104726280Y-70600431D01*
X104778211Y-70548500D01*
X107057789Y-70548500D01*
X107109720Y-70600431D01*
X107490126Y-70758000D01*
X107901874Y-70758000D01*
X108282280Y-70600431D01*
X108573431Y-70309280D01*
X108731000Y-69928874D01*
X108731000Y-69517126D01*
X108573431Y-69136720D01*
X108282280Y-68845569D01*
X107901874Y-68688000D01*
X107490126Y-68688000D01*
X107109720Y-68845569D01*
X107057789Y-68897500D01*
X104778211Y-68897500D01*
X104726280Y-68845569D01*
X104345874Y-68688000D01*
X103934126Y-68688000D01*
X103553720Y-68845569D01*
X103262569Y-69136720D01*
X103105000Y-69517126D01*
X102108000Y-69517126D01*
X102108000Y-65277066D01*
X102156126Y-65297000D01*
X102567874Y-65297000D01*
X102948280Y-65139431D01*
X103239431Y-64848280D01*
X103397000Y-64467874D01*
X103397000Y-64056126D01*
X103239431Y-63675720D01*
X103187500Y-63623789D01*
X103187500Y-59031119D01*
X107188000Y-59031119D01*
X107188000Y-59586881D01*
X107400680Y-60100337D01*
X107793663Y-60493320D01*
X108307119Y-60706000D01*
X108862881Y-60706000D01*
X109376337Y-60493320D01*
X109769320Y-60100337D01*
X109855000Y-59893487D01*
X109940680Y-60100337D01*
X110333663Y-60493320D01*
X110847119Y-60706000D01*
X111402881Y-60706000D01*
X111916337Y-60493320D01*
X112309320Y-60100337D01*
X112522000Y-59586881D01*
X112522000Y-59031119D01*
X112309320Y-58517663D01*
X111916337Y-58124680D01*
X111402881Y-57912000D01*
X110847119Y-57912000D01*
X110333663Y-58124680D01*
X109940680Y-58517663D01*
X109855000Y-58724513D01*
X109769320Y-58517663D01*
X109376337Y-58124680D01*
X108862881Y-57912000D01*
X108307119Y-57912000D01*
X107793663Y-58124680D01*
X107400680Y-58517663D01*
X107188000Y-59031119D01*
X103187500Y-59031119D01*
X103187500Y-54457711D01*
X103239431Y-54405780D01*
X103397000Y-54025374D01*
X103397000Y-53771000D01*
X187057424Y-53771000D01*
X185265924Y-55562500D01*
X184153453Y-55562500D01*
X182986507Y-56045865D01*
X182093365Y-56939007D01*
X181610000Y-58105953D01*
X181610000Y-59369047D01*
X182093365Y-60535993D01*
X182399873Y-60842501D01*
X168825960Y-60842501D01*
X168373667Y-60390208D01*
X168431337Y-60366320D01*
X168824320Y-59973337D01*
X168910000Y-59766487D01*
X168995680Y-59973337D01*
X169388663Y-60366320D01*
X169902119Y-60579000D01*
X170457881Y-60579000D01*
X170971337Y-60366320D01*
X171364320Y-59973337D01*
X171577000Y-59459881D01*
X171577000Y-58904119D01*
X171364320Y-58390663D01*
X170971337Y-57997680D01*
X170457881Y-57785000D01*
X169902119Y-57785000D01*
X169388663Y-57997680D01*
X168995680Y-58390663D01*
X168910000Y-58597513D01*
X168824320Y-58390663D01*
X168431337Y-57997680D01*
X167917881Y-57785000D01*
X167362119Y-57785000D01*
X166848663Y-57997680D01*
X166455680Y-58390663D01*
X166431792Y-58448334D01*
X166031017Y-58047559D01*
X165669858Y-57806241D01*
X165100000Y-57692889D01*
X164530142Y-57806241D01*
X164047039Y-58129039D01*
X163830000Y-58453861D01*
X163612961Y-58129039D01*
X163129857Y-57806240D01*
X162560000Y-57692888D01*
X161990142Y-57806240D01*
X161507039Y-58129039D01*
X161184240Y-58612143D01*
X161172510Y-58671114D01*
X161172510Y-56482641D01*
X161188682Y-56401338D01*
X161124614Y-56079243D01*
X161030818Y-55938869D01*
X160942162Y-55806186D01*
X160873236Y-55760131D01*
X159958881Y-54845777D01*
X159912824Y-54776848D01*
X159639766Y-54594396D01*
X159398975Y-54546500D01*
X159398973Y-54546500D01*
X159317672Y-54530328D01*
X159236371Y-54546500D01*
X123779297Y-54546500D01*
X123697999Y-54530329D01*
X123616701Y-54546500D01*
X123616697Y-54546500D01*
X123375906Y-54594396D01*
X123102848Y-54776848D01*
X123056793Y-54845774D01*
X122295568Y-55607000D01*
X122222126Y-55607000D01*
X121841720Y-55764569D01*
X121550569Y-56055720D01*
X121393000Y-56436126D01*
X121393000Y-56847874D01*
X121550569Y-57228280D01*
X121841720Y-57519431D01*
X122222126Y-57677000D01*
X122633874Y-57677000D01*
X123014280Y-57519431D01*
X123305431Y-57228280D01*
X123463000Y-56847874D01*
X123463000Y-56774432D01*
X124039933Y-56197500D01*
X125047842Y-56197500D01*
X124949000Y-56436126D01*
X124949000Y-56847874D01*
X125106569Y-57228280D01*
X125397720Y-57519431D01*
X125778126Y-57677000D01*
X126189874Y-57677000D01*
X126570280Y-57519431D01*
X126861431Y-57228280D01*
X127019000Y-56847874D01*
X127019000Y-56778510D01*
X127997000Y-56778510D01*
X127997000Y-56949384D01*
X128154569Y-57329790D01*
X128445720Y-57620941D01*
X128826126Y-57778510D01*
X129237874Y-57778510D01*
X129618280Y-57620941D01*
X129879701Y-57359520D01*
X158300088Y-57359520D01*
X158359490Y-57418923D01*
X158359490Y-57920292D01*
X158359491Y-57920297D01*
X158359490Y-70530697D01*
X158359490Y-70530698D01*
X158359491Y-73237135D01*
X158096776Y-73499850D01*
X158096773Y-73499852D01*
X153605926Y-77990700D01*
X153292211Y-77990700D01*
X153240280Y-77938769D01*
X152859874Y-77781200D01*
X152448126Y-77781200D01*
X152067720Y-77938769D01*
X151776569Y-78229920D01*
X151619000Y-78610326D01*
X151619000Y-79022074D01*
X151776569Y-79402480D01*
X152067720Y-79693631D01*
X152448126Y-79851200D01*
X152859874Y-79851200D01*
X153240280Y-79693631D01*
X153292211Y-79641700D01*
X153866557Y-79641700D01*
X153947858Y-79657872D01*
X154029159Y-79641700D01*
X154029161Y-79641700D01*
X154269952Y-79593804D01*
X154458266Y-79467977D01*
X154607720Y-79617431D01*
X154988126Y-79775000D01*
X155399874Y-79775000D01*
X155780280Y-79617431D01*
X155832211Y-79565500D01*
X156382699Y-79565500D01*
X156464000Y-79581672D01*
X156545301Y-79565500D01*
X156545303Y-79565500D01*
X156786094Y-79517604D01*
X157003936Y-79372047D01*
X157147720Y-79515831D01*
X157528126Y-79673400D01*
X157939874Y-79673400D01*
X158320280Y-79515831D01*
X158372211Y-79463900D01*
X159224309Y-79463900D01*
X159305610Y-79480072D01*
X159386911Y-79463900D01*
X159386913Y-79463900D01*
X159627704Y-79416004D01*
X159900762Y-79233552D01*
X159946819Y-79164623D01*
X160873236Y-78238207D01*
X160942162Y-78192152D01*
X161124614Y-77919094D01*
X161172510Y-77678303D01*
X161172510Y-77678302D01*
X161188682Y-77597001D01*
X161172510Y-77515699D01*
X161172510Y-69009126D01*
X173590000Y-69009126D01*
X173590000Y-69420874D01*
X173747569Y-69801280D01*
X173799500Y-69853211D01*
X173799501Y-76069788D01*
X173747569Y-76121720D01*
X173590000Y-76502126D01*
X173590000Y-76913874D01*
X173747569Y-77294280D01*
X174038720Y-77585431D01*
X174419126Y-77743000D01*
X174830874Y-77743000D01*
X175211280Y-77585431D01*
X175502431Y-77294280D01*
X175660000Y-76913874D01*
X175660000Y-76502126D01*
X175502431Y-76121720D01*
X175450500Y-76069789D01*
X175450500Y-73581126D01*
X184258000Y-73581126D01*
X184258000Y-73992874D01*
X184415569Y-74373280D01*
X184706720Y-74664431D01*
X185087126Y-74822000D01*
X185498874Y-74822000D01*
X185879280Y-74664431D01*
X186170431Y-74373280D01*
X186176553Y-74358500D01*
X187702789Y-74358500D01*
X187754720Y-74410431D01*
X188135126Y-74568000D01*
X188546874Y-74568000D01*
X188927280Y-74410431D01*
X189218431Y-74119280D01*
X189376000Y-73738874D01*
X189376000Y-73327126D01*
X189218431Y-72946720D01*
X188927280Y-72655569D01*
X188546874Y-72498000D01*
X188135126Y-72498000D01*
X187754720Y-72655569D01*
X187702789Y-72707500D01*
X185628297Y-72707500D01*
X185546999Y-72691329D01*
X185465702Y-72707500D01*
X185465697Y-72707500D01*
X185241979Y-72752000D01*
X185087126Y-72752000D01*
X184706720Y-72909569D01*
X184415569Y-73200720D01*
X184258000Y-73581126D01*
X175450500Y-73581126D01*
X175450500Y-69853211D01*
X175502431Y-69801280D01*
X175660000Y-69420874D01*
X175660000Y-69009126D01*
X175502431Y-68628720D01*
X175211280Y-68337569D01*
X174830874Y-68180000D01*
X174419126Y-68180000D01*
X174038720Y-68337569D01*
X173747569Y-68628720D01*
X173590000Y-69009126D01*
X161172510Y-69009126D01*
X161172510Y-60770517D01*
X161184240Y-60829488D01*
X161286000Y-60981782D01*
X161407911Y-61164234D01*
X161507040Y-61312591D01*
X161628982Y-61394070D01*
X165319941Y-65085030D01*
X165401420Y-65206972D01*
X165523362Y-65288451D01*
X165884521Y-65529770D01*
X165884522Y-65529770D01*
X165884523Y-65529771D01*
X166310539Y-65614511D01*
X166310543Y-65614511D01*
X166454380Y-65643122D01*
X166598217Y-65614511D01*
X188644053Y-65614511D01*
X189674500Y-66644958D01*
X189674501Y-86263040D01*
X188879042Y-87058500D01*
X181638887Y-87058500D01*
X181551013Y-86926987D01*
X181345004Y-86789336D01*
X181102000Y-86741000D01*
X174879000Y-86741000D01*
X174635996Y-86789336D01*
X174429987Y-86926987D01*
X174292336Y-87132996D01*
X174244000Y-87376000D01*
X174244000Y-91948000D01*
X174292336Y-92191004D01*
X174429987Y-92397013D01*
X174635996Y-92534664D01*
X174879000Y-92583000D01*
X181102000Y-92583000D01*
X181345004Y-92534664D01*
X181551013Y-92397013D01*
X181688664Y-92191004D01*
X181737000Y-91948000D01*
X181737000Y-89979500D01*
X189340163Y-89979500D01*
X189484000Y-90008111D01*
X189627837Y-89979500D01*
X189627842Y-89979500D01*
X190053858Y-89894760D01*
X190536961Y-89571961D01*
X190618442Y-89450016D01*
X190881000Y-89187458D01*
X190881000Y-99568000D01*
X190890667Y-99616601D01*
X190918197Y-99657803D01*
X190959399Y-99685333D01*
X191008000Y-99695000D01*
X205359000Y-99695000D01*
X205359000Y-112268000D01*
X205368667Y-112316601D01*
X205396197Y-112357803D01*
X205437399Y-112385333D01*
X205486000Y-112395000D01*
X209169000Y-112395000D01*
X209169000Y-128601000D01*
X208269711Y-128601000D01*
X208522431Y-128348280D01*
X208680000Y-127967874D01*
X208680000Y-127556126D01*
X208522431Y-127175720D01*
X208475580Y-127128869D01*
X208475580Y-118515012D01*
X208824710Y-118165882D01*
X209035650Y-117656627D01*
X209035650Y-117105413D01*
X208824710Y-116596158D01*
X208434942Y-116206390D01*
X207925687Y-115995450D01*
X207374473Y-115995450D01*
X206865218Y-116206390D01*
X206475450Y-116596158D01*
X206264510Y-117105413D01*
X206264510Y-117656627D01*
X206475450Y-118165882D01*
X206824580Y-118515012D01*
X206824581Y-127118708D01*
X206767569Y-127175720D01*
X206610000Y-127556126D01*
X206610000Y-127967874D01*
X206767569Y-128348280D01*
X207020289Y-128601000D01*
X177628500Y-128601000D01*
X177628500Y-128346626D01*
X177470931Y-127966220D01*
X177419000Y-127914289D01*
X177419000Y-117059111D01*
X177458231Y-117019880D01*
X177615800Y-116639474D01*
X177615800Y-116227726D01*
X177458231Y-115847320D01*
X177167080Y-115556169D01*
X176786674Y-115398600D01*
X176374926Y-115398600D01*
X175994520Y-115556169D01*
X175703369Y-115847320D01*
X175545800Y-116227726D01*
X175545800Y-116639474D01*
X175703369Y-117019880D01*
X175768001Y-117084512D01*
X175768000Y-127914289D01*
X175716069Y-127966220D01*
X175558500Y-128346626D01*
X175558500Y-128601000D01*
X141497000Y-128601000D01*
X141497000Y-128381626D01*
X141339431Y-128001220D01*
X141287500Y-127949289D01*
X141287500Y-122494711D01*
X141339431Y-122442780D01*
X141497000Y-122062374D01*
X141497000Y-121650626D01*
X141339431Y-121270220D01*
X141048280Y-120979069D01*
X140667874Y-120821500D01*
X140256126Y-120821500D01*
X139875720Y-120979069D01*
X139584569Y-121270220D01*
X139427000Y-121650626D01*
X139427000Y-122062374D01*
X139584569Y-122442780D01*
X139636501Y-122494712D01*
X139636500Y-127949289D01*
X139584569Y-128001220D01*
X139427000Y-128381626D01*
X139427000Y-128601000D01*
X73933000Y-128601000D01*
X73933000Y-128318126D01*
X73815726Y-128035000D01*
X74119874Y-128035000D01*
X74500280Y-127877431D01*
X74791431Y-127586280D01*
X74949000Y-127205874D01*
X74949000Y-126794126D01*
X74791431Y-126413720D01*
X74739500Y-126361789D01*
X74739500Y-117595600D01*
X74945374Y-117595600D01*
X75325780Y-117438031D01*
X75616931Y-117146880D01*
X75774500Y-116766474D01*
X75774500Y-116354726D01*
X75616931Y-115974320D01*
X75325780Y-115683169D01*
X74945374Y-115525600D01*
X74533626Y-115525600D01*
X74153220Y-115683169D01*
X74103468Y-115732921D01*
X74092514Y-115735100D01*
X74092512Y-115735100D01*
X73851721Y-115782996D01*
X73578663Y-115965448D01*
X73532606Y-116034377D01*
X73387777Y-116179206D01*
X73318848Y-116225263D01*
X73136396Y-116498322D01*
X73090153Y-116730802D01*
X73072328Y-116820415D01*
X73088500Y-116901716D01*
X73088500Y-117276903D01*
X73088501Y-117276908D01*
X73088501Y-117964000D01*
X72692126Y-117964000D01*
X72311720Y-118121569D01*
X72020569Y-118412720D01*
X71863000Y-118793126D01*
X71863000Y-119204874D01*
X72020569Y-119585280D01*
X72072501Y-119637212D01*
X72072500Y-127172697D01*
X72072500Y-127885789D01*
X72020569Y-127937720D01*
X71863000Y-128318126D01*
X71863000Y-128601000D01*
X44747093Y-128601000D01*
X44244033Y-128537448D01*
X43812969Y-128366777D01*
X43437891Y-128094267D01*
X43142367Y-127737040D01*
X42944968Y-127317546D01*
X42936470Y-127273000D01*
X43131874Y-127273000D01*
X43512280Y-127115431D01*
X43803431Y-126824280D01*
X43961000Y-126443874D01*
X43961000Y-126032126D01*
X43803431Y-125651720D01*
X43751500Y-125599789D01*
X43751500Y-123948699D01*
X43768018Y-123988577D01*
X44921423Y-125141982D01*
X46428419Y-125766200D01*
X48059581Y-125766200D01*
X49566577Y-125141982D01*
X50719982Y-123988577D01*
X51344200Y-122481581D01*
X51344200Y-120850419D01*
X50719982Y-119343423D01*
X49566577Y-118190018D01*
X48059581Y-117565800D01*
X46428419Y-117565800D01*
X44921423Y-118190018D01*
X43768018Y-119343423D01*
X43751500Y-119383301D01*
X43751500Y-85474211D01*
X43803431Y-85422280D01*
X43961000Y-85041874D01*
X43961000Y-84630126D01*
X58147000Y-84630126D01*
X58147000Y-85041874D01*
X58304569Y-85422280D01*
X58595720Y-85713431D01*
X58976126Y-85871000D01*
X59387874Y-85871000D01*
X59768280Y-85713431D01*
X60059431Y-85422280D01*
X60217000Y-85041874D01*
X60217000Y-84630126D01*
X60059431Y-84249720D01*
X60007500Y-84197789D01*
X60007500Y-77787500D01*
X60571843Y-77787500D01*
X60930663Y-78146320D01*
X61444119Y-78359000D01*
X61999881Y-78359000D01*
X62513337Y-78146320D01*
X62906320Y-77753337D01*
X62992000Y-77546487D01*
X63077680Y-77753337D01*
X63470663Y-78146320D01*
X63984119Y-78359000D01*
X64539881Y-78359000D01*
X65053337Y-78146320D01*
X65446320Y-77753337D01*
X65659000Y-77239881D01*
X65659000Y-76684119D01*
X65446320Y-76170663D01*
X65053337Y-75777680D01*
X64539881Y-75565000D01*
X63984119Y-75565000D01*
X63470663Y-75777680D01*
X63077680Y-76170663D01*
X62992000Y-76377513D01*
X62906320Y-76170663D01*
X62513337Y-75777680D01*
X61999881Y-75565000D01*
X61444119Y-75565000D01*
X60930663Y-75777680D01*
X60571843Y-76136500D01*
X60007500Y-76136500D01*
X60007500Y-68286932D01*
X60158933Y-68135500D01*
X60571843Y-68135500D01*
X60930663Y-68494320D01*
X61444119Y-68707000D01*
X61999881Y-68707000D01*
X62513337Y-68494320D01*
X62906320Y-68101337D01*
X62992000Y-67894487D01*
X63077680Y-68101337D01*
X63470663Y-68494320D01*
X63984119Y-68707000D01*
X64539881Y-68707000D01*
X65053337Y-68494320D01*
X65446320Y-68101337D01*
X65659000Y-67587881D01*
X65659000Y-67032119D01*
X65446320Y-66518663D01*
X65053337Y-66125680D01*
X64539881Y-65913000D01*
X63984119Y-65913000D01*
X63470663Y-66125680D01*
X63077680Y-66518663D01*
X62992000Y-66725513D01*
X62906320Y-66518663D01*
X62513337Y-66125680D01*
X61999881Y-65913000D01*
X61444119Y-65913000D01*
X60930663Y-66125680D01*
X60571843Y-66484500D01*
X59898303Y-66484500D01*
X59817000Y-66468328D01*
X59735697Y-66484500D01*
X59494906Y-66532396D01*
X59221848Y-66714848D01*
X59175793Y-66783774D01*
X58655775Y-67303793D01*
X58586849Y-67349848D01*
X58540794Y-67418774D01*
X58404397Y-67622906D01*
X58340328Y-67945000D01*
X58356501Y-68026306D01*
X58356500Y-76372697D01*
X58356500Y-76880697D01*
X58340328Y-76962000D01*
X58356500Y-77043302D01*
X58356500Y-77805302D01*
X58356501Y-77805306D01*
X58356500Y-78694302D01*
X58356501Y-78694307D01*
X58356500Y-80817697D01*
X58356500Y-80817698D01*
X58356501Y-83230693D01*
X58356500Y-83230698D01*
X58356501Y-84197788D01*
X58304569Y-84249720D01*
X58147000Y-84630126D01*
X43961000Y-84630126D01*
X43803431Y-84249720D01*
X43751500Y-84197789D01*
X43751500Y-76734919D01*
X45288200Y-76734919D01*
X45288200Y-77290681D01*
X45500880Y-77804137D01*
X45893863Y-78197120D01*
X46407319Y-78409800D01*
X46963081Y-78409800D01*
X47476537Y-78197120D01*
X47869520Y-77804137D01*
X47955200Y-77597287D01*
X48040880Y-77804137D01*
X48433863Y-78197120D01*
X48947319Y-78409800D01*
X49503081Y-78409800D01*
X50016537Y-78197120D01*
X50409520Y-77804137D01*
X50622200Y-77290681D01*
X50622200Y-76734919D01*
X50409520Y-76221463D01*
X50016537Y-75828480D01*
X49503081Y-75615800D01*
X48947319Y-75615800D01*
X48433863Y-75828480D01*
X48040880Y-76221463D01*
X47955200Y-76428313D01*
X47869520Y-76221463D01*
X47476537Y-75828480D01*
X46963081Y-75615800D01*
X46407319Y-75615800D01*
X45893863Y-75828480D01*
X45500880Y-76221463D01*
X45288200Y-76734919D01*
X43751500Y-76734919D01*
X43751500Y-67032119D01*
X45339000Y-67032119D01*
X45339000Y-67587881D01*
X45551680Y-68101337D01*
X45944663Y-68494320D01*
X46458119Y-68707000D01*
X47013881Y-68707000D01*
X47527337Y-68494320D01*
X47920320Y-68101337D01*
X48006000Y-67894487D01*
X48091680Y-68101337D01*
X48484663Y-68494320D01*
X48998119Y-68707000D01*
X49553881Y-68707000D01*
X50067337Y-68494320D01*
X50460320Y-68101337D01*
X50673000Y-67587881D01*
X50673000Y-67032119D01*
X50460320Y-66518663D01*
X50067337Y-66125680D01*
X49553881Y-65913000D01*
X48998119Y-65913000D01*
X48484663Y-66125680D01*
X48091680Y-66518663D01*
X48006000Y-66725513D01*
X47920320Y-66518663D01*
X47527337Y-66125680D01*
X47013881Y-65913000D01*
X46458119Y-65913000D01*
X45944663Y-66125680D01*
X45551680Y-66518663D01*
X45339000Y-67032119D01*
X43751500Y-67032119D01*
X43751500Y-63548126D01*
X74593500Y-63548126D01*
X74593500Y-63959874D01*
X74751069Y-64340280D01*
X74803001Y-64392212D01*
X74803000Y-78228789D01*
X74751069Y-78280720D01*
X74593500Y-78661126D01*
X74593500Y-79072874D01*
X74751069Y-79453280D01*
X75042220Y-79744431D01*
X75422626Y-79902000D01*
X75834374Y-79902000D01*
X76214780Y-79744431D01*
X76505931Y-79453280D01*
X76663500Y-79072874D01*
X76663500Y-78661126D01*
X76505931Y-78280720D01*
X76454000Y-78228789D01*
X76454000Y-70281350D01*
X76465569Y-70309280D01*
X76756720Y-70600431D01*
X77137126Y-70758000D01*
X77197000Y-70758000D01*
X77197000Y-71135374D01*
X77354569Y-71515780D01*
X77406501Y-71567712D01*
X77406500Y-72210882D01*
X77406500Y-72210883D01*
X77406501Y-73529788D01*
X77354569Y-73581720D01*
X77197000Y-73962126D01*
X77197000Y-74373874D01*
X77354569Y-74754280D01*
X77645720Y-75045431D01*
X78026126Y-75203000D01*
X78437874Y-75203000D01*
X78818280Y-75045431D01*
X79109431Y-74754280D01*
X79267000Y-74373874D01*
X79267000Y-73962126D01*
X79109431Y-73581720D01*
X79057500Y-73529789D01*
X79057500Y-71567711D01*
X79109431Y-71515780D01*
X79267000Y-71135374D01*
X79267000Y-70723626D01*
X79109431Y-70343220D01*
X78818280Y-70052069D01*
X78437874Y-69894500D01*
X78378000Y-69894500D01*
X78378000Y-69517126D01*
X78220431Y-69136720D01*
X77929280Y-68845569D01*
X77787500Y-68786842D01*
X77787500Y-64754626D01*
X83928000Y-64754626D01*
X83928000Y-65166374D01*
X84085569Y-65546780D01*
X84137501Y-65598712D01*
X84137500Y-72534802D01*
X84137501Y-72534807D01*
X84137500Y-82849697D01*
X84137500Y-84261289D01*
X84085569Y-84313220D01*
X83928000Y-84693626D01*
X83928000Y-85105374D01*
X84085569Y-85485780D01*
X84376720Y-85776931D01*
X84757126Y-85934500D01*
X85168874Y-85934500D01*
X85549280Y-85776931D01*
X85840431Y-85485780D01*
X85998000Y-85105374D01*
X85998000Y-84693626D01*
X85840431Y-84313220D01*
X85788500Y-84261289D01*
X85788500Y-65598711D01*
X85840431Y-65546780D01*
X85998000Y-65166374D01*
X85998000Y-64754626D01*
X85840431Y-64374220D01*
X85549280Y-64083069D01*
X85177628Y-63929126D01*
X87293500Y-63929126D01*
X87293500Y-64340874D01*
X87451069Y-64721280D01*
X87503001Y-64773212D01*
X87503000Y-73275789D01*
X87451069Y-73327720D01*
X87293500Y-73708126D01*
X87293500Y-74119874D01*
X87451069Y-74500280D01*
X87742220Y-74791431D01*
X88122626Y-74949000D01*
X88534374Y-74949000D01*
X88914780Y-74791431D01*
X89205931Y-74500280D01*
X89363500Y-74119874D01*
X89363500Y-73708126D01*
X89205931Y-73327720D01*
X89154000Y-73275789D01*
X89154000Y-65326126D01*
X89897000Y-65326126D01*
X89897000Y-65737874D01*
X90054569Y-66118280D01*
X90106500Y-66170211D01*
X90106500Y-66565802D01*
X90106501Y-66565807D01*
X90106500Y-73275789D01*
X90054569Y-73327720D01*
X89897000Y-73708126D01*
X89897000Y-74119874D01*
X90054569Y-74500280D01*
X90345720Y-74791431D01*
X90726126Y-74949000D01*
X91137874Y-74949000D01*
X91518280Y-74791431D01*
X91809431Y-74500280D01*
X91967000Y-74119874D01*
X91967000Y-73708126D01*
X91809431Y-73327720D01*
X91757500Y-73275789D01*
X91757500Y-66170211D01*
X91809431Y-66118280D01*
X91967000Y-65737874D01*
X91967000Y-65326126D01*
X91809431Y-64945720D01*
X91518280Y-64654569D01*
X91137874Y-64497000D01*
X90726126Y-64497000D01*
X90345720Y-64654569D01*
X90054569Y-64945720D01*
X89897000Y-65326126D01*
X89154000Y-65326126D01*
X89154000Y-64773211D01*
X89205931Y-64721280D01*
X89363500Y-64340874D01*
X89363500Y-63929126D01*
X89205931Y-63548720D01*
X88914780Y-63257569D01*
X88534374Y-63100000D01*
X88122626Y-63100000D01*
X87742220Y-63257569D01*
X87451069Y-63548720D01*
X87293500Y-63929126D01*
X85177628Y-63929126D01*
X85168874Y-63925500D01*
X84757126Y-63925500D01*
X84376720Y-64083069D01*
X84085569Y-64374220D01*
X83928000Y-64754626D01*
X77787500Y-64754626D01*
X77787500Y-64519211D01*
X77839431Y-64467280D01*
X77997000Y-64086874D01*
X77997000Y-63675126D01*
X77839431Y-63294720D01*
X77548280Y-63003569D01*
X77167874Y-62846000D01*
X76756126Y-62846000D01*
X76375720Y-63003569D01*
X76358750Y-63020539D01*
X76214780Y-62876569D01*
X75834374Y-62719000D01*
X75422626Y-62719000D01*
X75042220Y-62876569D01*
X74751069Y-63167720D01*
X74593500Y-63548126D01*
X43751500Y-63548126D01*
X43751500Y-62024126D01*
X96501000Y-62024126D01*
X96501000Y-62435874D01*
X96658569Y-62816280D01*
X96710500Y-62868211D01*
X96710501Y-63926695D01*
X96710500Y-63926698D01*
X96710500Y-64307698D01*
X96710501Y-71518193D01*
X96710500Y-71518198D01*
X96710501Y-73593288D01*
X96658569Y-73645220D01*
X96501000Y-74025626D01*
X96501000Y-74437374D01*
X96658569Y-74817780D01*
X96949720Y-75108931D01*
X97330126Y-75266500D01*
X97741874Y-75266500D01*
X98122280Y-75108931D01*
X98413431Y-74817780D01*
X98571000Y-74437374D01*
X98571000Y-74025626D01*
X98413431Y-73645220D01*
X98361500Y-73593289D01*
X98361500Y-62868211D01*
X98413431Y-62816280D01*
X98571000Y-62435874D01*
X98571000Y-62024126D01*
X98413431Y-61643720D01*
X98122280Y-61352569D01*
X97741874Y-61195000D01*
X97330126Y-61195000D01*
X96949720Y-61352569D01*
X96658569Y-61643720D01*
X96501000Y-62024126D01*
X43751500Y-62024126D01*
X43751500Y-59031119D01*
X45339000Y-59031119D01*
X45339000Y-59586881D01*
X45551680Y-60100337D01*
X45944663Y-60493320D01*
X46458119Y-60706000D01*
X47013881Y-60706000D01*
X47527337Y-60493320D01*
X47920320Y-60100337D01*
X48006000Y-59893487D01*
X48091680Y-60100337D01*
X48484663Y-60493320D01*
X48998119Y-60706000D01*
X49553881Y-60706000D01*
X50067337Y-60493320D01*
X50460320Y-60100337D01*
X50673000Y-59586881D01*
X50673000Y-59031119D01*
X50620395Y-58904119D01*
X60706000Y-58904119D01*
X60706000Y-59459881D01*
X60918680Y-59973337D01*
X61311663Y-60366320D01*
X61825119Y-60579000D01*
X62380881Y-60579000D01*
X62894337Y-60366320D01*
X63287320Y-59973337D01*
X63373000Y-59766487D01*
X63458680Y-59973337D01*
X63851663Y-60366320D01*
X64365119Y-60579000D01*
X64920881Y-60579000D01*
X65434337Y-60366320D01*
X65827320Y-59973337D01*
X65913000Y-59766487D01*
X65998680Y-59973337D01*
X66391663Y-60366320D01*
X66905119Y-60579000D01*
X67460881Y-60579000D01*
X67974337Y-60366320D01*
X68367320Y-59973337D01*
X68580000Y-59459881D01*
X68580000Y-59031119D01*
X78359000Y-59031119D01*
X78359000Y-59586881D01*
X78571680Y-60100337D01*
X78964663Y-60493320D01*
X79478119Y-60706000D01*
X80033881Y-60706000D01*
X80547337Y-60493320D01*
X80940320Y-60100337D01*
X81026000Y-59893487D01*
X81111680Y-60100337D01*
X81504663Y-60493320D01*
X82018119Y-60706000D01*
X82573881Y-60706000D01*
X83087337Y-60493320D01*
X83480320Y-60100337D01*
X83693000Y-59586881D01*
X83693000Y-59031119D01*
X83480320Y-58517663D01*
X83087337Y-58124680D01*
X82573881Y-57912000D01*
X82018119Y-57912000D01*
X81504663Y-58124680D01*
X81111680Y-58517663D01*
X81026000Y-58724513D01*
X80940320Y-58517663D01*
X80547337Y-58124680D01*
X80033881Y-57912000D01*
X79478119Y-57912000D01*
X78964663Y-58124680D01*
X78571680Y-58517663D01*
X78359000Y-59031119D01*
X68580000Y-59031119D01*
X68580000Y-58904119D01*
X68367320Y-58390663D01*
X67974337Y-57997680D01*
X67460881Y-57785000D01*
X66905119Y-57785000D01*
X66391663Y-57997680D01*
X65998680Y-58390663D01*
X65913000Y-58597513D01*
X65827320Y-58390663D01*
X65434337Y-57997680D01*
X64920881Y-57785000D01*
X64365119Y-57785000D01*
X63851663Y-57997680D01*
X63458680Y-58390663D01*
X63373000Y-58597513D01*
X63287320Y-58390663D01*
X62894337Y-57997680D01*
X62380881Y-57785000D01*
X61825119Y-57785000D01*
X61311663Y-57997680D01*
X60918680Y-58390663D01*
X60706000Y-58904119D01*
X50620395Y-58904119D01*
X50460320Y-58517663D01*
X50067337Y-58124680D01*
X49553881Y-57912000D01*
X48998119Y-57912000D01*
X48484663Y-58124680D01*
X48091680Y-58517663D01*
X48006000Y-58724513D01*
X47920320Y-58517663D01*
X47527337Y-58124680D01*
X47013881Y-57912000D01*
X46458119Y-57912000D01*
X45944663Y-58124680D01*
X45551680Y-58517663D01*
X45339000Y-59031119D01*
X43751500Y-59031119D01*
X43751500Y-57746653D01*
X92125800Y-57746653D01*
X92125800Y-58585347D01*
X92446754Y-59360199D01*
X93039801Y-59953246D01*
X93814653Y-60274200D01*
X94653347Y-60274200D01*
X95428199Y-59953246D01*
X96021246Y-59360199D01*
X96342200Y-58585347D01*
X96342200Y-57746653D01*
X96021246Y-56971801D01*
X95428199Y-56378754D01*
X94653347Y-56057800D01*
X93814653Y-56057800D01*
X93039801Y-56378754D01*
X92446754Y-56971801D01*
X92125800Y-57746653D01*
X43751500Y-57746653D01*
X43751500Y-56772211D01*
X43803431Y-56720280D01*
X43961000Y-56339874D01*
X43961000Y-55928126D01*
X43803431Y-55547720D01*
X43512280Y-55256569D01*
X43131874Y-55099000D01*
X42939093Y-55099000D01*
X43083222Y-54734971D01*
X43355732Y-54359892D01*
X43712960Y-54064367D01*
X44132454Y-53866968D01*
X44619913Y-53773981D01*
X44714760Y-53771000D01*
X101327000Y-53771000D01*
X101327000Y-54025374D01*
X101327000Y-54025374D01*
G37*
X101327000Y-54025374D02*
X101484569Y-54405780D01*
X101536501Y-54457712D01*
X101536500Y-62084343D01*
X101492277Y-62066025D01*
X101488423Y-62063450D01*
X101483877Y-62062546D01*
X101297874Y-61985501D01*
X101096545Y-61985501D01*
X101092000Y-61984597D01*
X101087455Y-61985501D01*
X100886126Y-61985501D01*
X100700122Y-62062546D01*
X100695578Y-62063450D01*
X100691725Y-62066024D01*
X100505720Y-62143070D01*
X100363357Y-62285433D01*
X100359506Y-62288006D01*
X100356933Y-62291857D01*
X100214569Y-62434221D01*
X100137523Y-62620228D01*
X100134950Y-62624078D01*
X100134047Y-62628620D01*
X100057000Y-62814627D01*
X100057000Y-63226375D01*
X100076001Y-63272247D01*
X100076000Y-71787750D01*
X100076000Y-72201756D01*
X100057000Y-72247626D01*
X100057000Y-72659374D01*
X100076000Y-72705244D01*
X100076000Y-72919122D01*
X100056096Y-73019185D01*
X100076000Y-73119248D01*
X100076000Y-73119249D01*
X100104502Y-73262539D01*
X100104501Y-83518499D01*
X99933626Y-83518499D01*
X99553220Y-83676068D01*
X99262069Y-83967219D01*
X99104500Y-84347625D01*
X99104500Y-84759373D01*
X99262069Y-85139779D01*
X99314001Y-85191711D01*
X99314000Y-88902257D01*
X99255954Y-88762120D01*
X99255050Y-88757576D01*
X99252476Y-88753724D01*
X99175431Y-88567720D01*
X99033070Y-88425359D01*
X99030495Y-88421505D01*
X99026641Y-88418930D01*
X98884280Y-88276569D01*
X98698276Y-88199524D01*
X98694424Y-88196950D01*
X98689880Y-88196046D01*
X98503874Y-88119000D01*
X98317000Y-88119000D01*
X98317000Y-87932126D01*
X98159431Y-87551720D01*
X98107500Y-87499789D01*
X98107500Y-84458211D01*
X98159431Y-84406280D01*
X98317000Y-84025874D01*
X98317000Y-83614126D01*
X98159431Y-83233720D01*
X97868280Y-82942569D01*
X97487874Y-82785000D01*
X97076126Y-82785000D01*
X96695720Y-82942569D01*
X96404569Y-83233720D01*
X96393000Y-83261650D01*
X96393000Y-80662803D01*
X96409172Y-80581500D01*
X96345104Y-80259406D01*
X96208706Y-80055273D01*
X96162652Y-79986348D01*
X96093726Y-79940293D01*
X95101736Y-78948303D01*
X94507000Y-78353568D01*
X94507000Y-78280126D01*
X94349431Y-77899720D01*
X94058280Y-77608569D01*
X93677874Y-77451000D01*
X93266126Y-77451000D01*
X92885720Y-77608569D01*
X92594569Y-77899720D01*
X92437000Y-78280126D01*
X92437000Y-78691874D01*
X92594569Y-79072280D01*
X92885720Y-79363431D01*
X93266126Y-79521000D01*
X93339568Y-79521000D01*
X93896662Y-80078094D01*
X94742000Y-80923433D01*
X94742000Y-81043803D01*
X94742001Y-81043808D01*
X94742000Y-95803697D01*
X94742000Y-95803698D01*
X94742001Y-98485288D01*
X94690069Y-98537220D01*
X94532500Y-98917626D01*
X94532500Y-99329374D01*
X94690069Y-99709780D01*
X94981220Y-100000931D01*
X95361626Y-100158500D01*
X95773374Y-100158500D01*
X96153780Y-100000931D01*
X96444931Y-99709780D01*
X96456501Y-99681849D01*
X96456501Y-113501737D01*
X96187720Y-113613069D01*
X95896569Y-113904220D01*
X95739000Y-114284626D01*
X95739000Y-114696374D01*
X95896569Y-115076780D01*
X96187720Y-115367931D01*
X96568126Y-115525500D01*
X96979874Y-115525500D01*
X97218501Y-115426658D01*
X97218501Y-116168431D01*
X97218500Y-116168436D01*
X97218500Y-116715256D01*
X97199500Y-116761126D01*
X97199500Y-117172874D01*
X97276547Y-117358881D01*
X97277450Y-117363423D01*
X97280023Y-117367273D01*
X97357069Y-117553280D01*
X97499433Y-117695644D01*
X97502006Y-117699495D01*
X97505857Y-117702068D01*
X97648220Y-117844431D01*
X97834225Y-117921477D01*
X97838078Y-117924051D01*
X97842622Y-117924955D01*
X98028626Y-118002000D01*
X98229955Y-118002000D01*
X98234500Y-118002904D01*
X98239045Y-118002000D01*
X98440374Y-118002000D01*
X98626377Y-117924955D01*
X98630923Y-117924051D01*
X98634777Y-117921476D01*
X98730991Y-117881623D01*
X106000600Y-125151233D01*
X106000600Y-125224674D01*
X106158169Y-125605080D01*
X106449320Y-125896231D01*
X106829726Y-126053800D01*
X107241474Y-126053800D01*
X107621880Y-125896231D01*
X107913031Y-125605080D01*
X107917312Y-125594745D01*
X108185000Y-125862433D01*
X108185000Y-125935874D01*
X108342569Y-126316280D01*
X108633720Y-126607431D01*
X109014126Y-126765000D01*
X109425874Y-126765000D01*
X109806280Y-126607431D01*
X110097431Y-126316280D01*
X110255000Y-125935874D01*
X110255000Y-125524126D01*
X110097431Y-125143720D01*
X109806280Y-124852569D01*
X109425874Y-124695000D01*
X109352433Y-124695000D01*
X109117433Y-124460000D01*
X131826934Y-124460000D01*
X131964569Y-124792280D01*
X132255720Y-125083431D01*
X132636126Y-125241000D01*
X133047874Y-125241000D01*
X133428280Y-125083431D01*
X133719431Y-124792280D01*
X133877000Y-124411874D01*
X133877000Y-124338432D01*
X134031724Y-124183708D01*
X134100653Y-124137651D01*
X134283105Y-123864593D01*
X134331001Y-123623802D01*
X134347173Y-123542499D01*
X134331001Y-123461196D01*
X134331001Y-117153431D01*
X136657434Y-114827000D01*
X136730874Y-114827000D01*
X137111280Y-114669431D01*
X137402431Y-114378280D01*
X137560000Y-113997874D01*
X137560000Y-113586126D01*
X137402431Y-113205720D01*
X137290211Y-113093500D01*
X137402431Y-112981280D01*
X137560000Y-112600874D01*
X137560000Y-112189126D01*
X137402431Y-111808720D01*
X137111280Y-111517569D01*
X136730874Y-111360000D01*
X136471860Y-111360000D01*
X136467315Y-111359096D01*
X136462770Y-111360000D01*
X136319126Y-111360000D01*
X136186414Y-111414971D01*
X136070891Y-111437950D01*
X135972956Y-111503388D01*
X135938720Y-111517569D01*
X135912517Y-111543772D01*
X135819651Y-111605823D01*
X130924340Y-116501135D01*
X130839505Y-116557820D01*
X130614949Y-116893893D01*
X130558974Y-117175302D01*
X130536096Y-117290315D01*
X130556000Y-117390379D01*
X130556001Y-121762246D01*
X130556000Y-121762251D01*
X130556000Y-122176256D01*
X130537000Y-122222126D01*
X130537000Y-122428000D01*
X110574356Y-122428000D01*
X110699500Y-122125874D01*
X110699500Y-121856500D01*
X111185289Y-121856500D01*
X111237220Y-121908431D01*
X111617626Y-122066000D01*
X112029374Y-122066000D01*
X112409780Y-121908431D01*
X112700931Y-121617280D01*
X112858500Y-121236874D01*
X112858500Y-120825126D01*
X112700931Y-120444720D01*
X112409780Y-120153569D01*
X112029374Y-119996000D01*
X111617626Y-119996000D01*
X111237220Y-120153569D01*
X111185289Y-120205500D01*
X108428443Y-120205500D01*
X103768510Y-115545568D01*
X103768510Y-114632422D01*
X103954932Y-114446000D01*
X104028374Y-114446000D01*
X104408780Y-114288431D01*
X104699931Y-113997280D01*
X104857500Y-113616874D01*
X104857500Y-113205126D01*
X104699931Y-112824720D01*
X104408780Y-112533569D01*
X104028374Y-112376000D01*
X103616626Y-112376000D01*
X103236220Y-112533569D01*
X103187500Y-112582289D01*
X103187500Y-109522126D01*
X120059500Y-109522126D01*
X120059500Y-109933874D01*
X120217069Y-110314280D01*
X120508220Y-110605431D01*
X120888626Y-110763000D01*
X121300374Y-110763000D01*
X121680780Y-110605431D01*
X121732711Y-110553500D01*
X125349000Y-110553500D01*
X125349001Y-112751566D01*
X124200568Y-113900000D01*
X124127126Y-113900000D01*
X123746720Y-114057569D01*
X123455569Y-114348720D01*
X123298000Y-114729126D01*
X123298000Y-115140874D01*
X123455569Y-115521280D01*
X123746720Y-115812431D01*
X124127126Y-115970000D01*
X124538874Y-115970000D01*
X124919280Y-115812431D01*
X125210431Y-115521280D01*
X125368000Y-115140874D01*
X125368000Y-115067432D01*
X126028501Y-114406931D01*
X126028502Y-114696787D01*
X125995569Y-114729720D01*
X125838000Y-115110126D01*
X125838000Y-115521874D01*
X125995569Y-115902280D01*
X126286720Y-116193431D01*
X126667126Y-116351000D01*
X127078874Y-116351000D01*
X127459280Y-116193431D01*
X127750431Y-115902280D01*
X127908000Y-115521874D01*
X127908000Y-115110126D01*
X127750431Y-114729720D01*
X127679501Y-114658790D01*
X127679501Y-106474126D01*
X148266200Y-106474126D01*
X148266200Y-106885874D01*
X148423769Y-107266280D01*
X148475701Y-107318212D01*
X148475700Y-116455789D01*
X148423769Y-116507720D01*
X148266200Y-116888126D01*
X148266200Y-117299874D01*
X148423769Y-117680280D01*
X148714920Y-117971431D01*
X149095326Y-118129000D01*
X149507074Y-118129000D01*
X149887480Y-117971431D01*
X150178631Y-117680280D01*
X150336200Y-117299874D01*
X150336200Y-116888126D01*
X150178631Y-116507720D01*
X150126700Y-116455789D01*
X150126700Y-107318211D01*
X150178631Y-107266280D01*
X150336200Y-106885874D01*
X150336200Y-106474126D01*
X150178631Y-106093720D01*
X149887480Y-105802569D01*
X149507074Y-105645000D01*
X149095326Y-105645000D01*
X148714920Y-105802569D01*
X148423769Y-106093720D01*
X148266200Y-106474126D01*
X127679501Y-106474126D01*
X127679501Y-105495710D01*
X127877431Y-105297780D01*
X128035000Y-104917374D01*
X128035000Y-104505626D01*
X127877431Y-104125220D01*
X127679501Y-103927290D01*
X127679501Y-99587000D01*
X127967874Y-99587000D01*
X128348280Y-99429431D01*
X128639431Y-99138280D01*
X128797000Y-98757874D01*
X128797000Y-98346126D01*
X128718093Y-98155626D01*
X150793500Y-98155626D01*
X150793500Y-98567374D01*
X150951069Y-98947780D01*
X151003000Y-98999711D01*
X151003000Y-99029499D01*
X150986828Y-99110800D01*
X151003000Y-99192101D01*
X151003000Y-99192102D01*
X151015701Y-99255955D01*
X151015700Y-116506589D01*
X150963769Y-116558520D01*
X150806200Y-116938926D01*
X150806200Y-117350674D01*
X150963769Y-117731080D01*
X151254920Y-118022231D01*
X151635326Y-118179800D01*
X152047074Y-118179800D01*
X152146001Y-118138823D01*
X152146000Y-126270750D01*
X152146000Y-126684756D01*
X152127000Y-126730626D01*
X152127000Y-127142374D01*
X152204045Y-127328378D01*
X152204949Y-127332922D01*
X152207523Y-127336775D01*
X152284569Y-127522780D01*
X152426930Y-127665141D01*
X152429505Y-127668995D01*
X152433359Y-127671570D01*
X152575720Y-127813931D01*
X152761723Y-127890976D01*
X152765577Y-127893551D01*
X152770123Y-127894455D01*
X152956126Y-127971500D01*
X153157455Y-127971500D01*
X153162000Y-127972404D01*
X153166545Y-127971500D01*
X153367874Y-127971500D01*
X153553878Y-127894455D01*
X153558422Y-127893551D01*
X153562275Y-127890977D01*
X153748280Y-127813931D01*
X153890641Y-127671570D01*
X153894495Y-127668995D01*
X153897070Y-127665141D01*
X154039431Y-127522780D01*
X154116476Y-127336777D01*
X154119051Y-127332923D01*
X154119955Y-127328377D01*
X154197000Y-127142374D01*
X154197000Y-126730626D01*
X154178000Y-126684756D01*
X154178000Y-118109066D01*
X154226126Y-118129000D01*
X154637874Y-118129000D01*
X155018280Y-117971431D01*
X155309431Y-117680280D01*
X155467000Y-117299874D01*
X155467000Y-116888126D01*
X155309431Y-116507720D01*
X155257500Y-116455789D01*
X155257500Y-102600456D01*
X159553910Y-102600456D01*
X159553910Y-103139544D01*
X159760210Y-103637597D01*
X159956501Y-103833888D01*
X159956500Y-111444756D01*
X159937500Y-111490626D01*
X159937500Y-111902374D01*
X160014545Y-112088378D01*
X160015449Y-112092922D01*
X160018023Y-112096775D01*
X160095069Y-112282780D01*
X160237430Y-112425141D01*
X160240005Y-112428995D01*
X160243859Y-112431570D01*
X160386220Y-112573931D01*
X160572223Y-112650976D01*
X160576077Y-112653551D01*
X160580623Y-112654455D01*
X160766626Y-112731500D01*
X160967955Y-112731500D01*
X160972500Y-112732404D01*
X160977045Y-112731500D01*
X161178374Y-112731500D01*
X161226501Y-112711565D01*
X161226501Y-114472693D01*
X161226500Y-114472698D01*
X161226501Y-115439788D01*
X161174569Y-115491720D01*
X161017000Y-115872126D01*
X161017000Y-116283874D01*
X161174569Y-116664280D01*
X161465720Y-116955431D01*
X161846126Y-117113000D01*
X162257874Y-117113000D01*
X162638280Y-116955431D01*
X162929431Y-116664280D01*
X163087000Y-116283874D01*
X163087000Y-115872126D01*
X163023774Y-115719485D01*
X163243720Y-115939431D01*
X163624126Y-116097000D01*
X164035874Y-116097000D01*
X164416280Y-115939431D01*
X164707431Y-115648280D01*
X164865000Y-115267874D01*
X164865000Y-114856126D01*
X164707431Y-114475720D01*
X164655500Y-114423789D01*
X164655500Y-103708200D01*
X166201689Y-103708200D01*
X166230301Y-103852041D01*
X166230300Y-106417441D01*
X166315040Y-106843457D01*
X166637839Y-107326561D01*
X167120942Y-107649360D01*
X167690800Y-107762712D01*
X168260657Y-107649360D01*
X168743761Y-107326561D01*
X169066560Y-106843458D01*
X169151300Y-106417442D01*
X169151300Y-105995719D01*
X171373800Y-105995719D01*
X171373800Y-106551481D01*
X171586480Y-107064937D01*
X171979463Y-107457920D01*
X172492919Y-107670600D01*
X173048681Y-107670600D01*
X173562137Y-107457920D01*
X173955120Y-107064937D01*
X174167800Y-106551481D01*
X174167800Y-106299000D01*
X183549889Y-106299000D01*
X183663241Y-106868858D01*
X183986039Y-107351961D01*
X184469142Y-107674759D01*
X185039000Y-107788111D01*
X185608858Y-107674759D01*
X185970017Y-107433441D01*
X186033516Y-107369942D01*
X186155461Y-107288461D01*
X186478260Y-106805358D01*
X186563000Y-106379342D01*
X186563000Y-106379341D01*
X186591612Y-106235500D01*
X186563000Y-106091659D01*
X186563000Y-104648000D01*
X188087000Y-104648000D01*
X188087000Y-121412000D01*
X188135336Y-121655004D01*
X188272987Y-121861013D01*
X188478996Y-121998664D01*
X188722000Y-122047000D01*
X194564000Y-122047000D01*
X194807004Y-121998664D01*
X195013013Y-121861013D01*
X195143317Y-121666000D01*
X200460877Y-121666000D01*
X200560940Y-121685904D01*
X200661003Y-121666000D01*
X200661005Y-121666000D01*
X200957363Y-121607051D01*
X201293435Y-121382495D01*
X201350120Y-121297660D01*
X203881191Y-118766590D01*
X204105527Y-118766590D01*
X204614782Y-118555650D01*
X205004550Y-118165882D01*
X205215490Y-117656627D01*
X205215490Y-117105413D01*
X205004550Y-116596158D01*
X204614782Y-116206390D01*
X204105527Y-115995450D01*
X203554313Y-115995450D01*
X203045058Y-116206390D01*
X202655290Y-116596158D01*
X202444350Y-117105413D01*
X202444350Y-117329749D01*
X200140100Y-119634000D01*
X195199000Y-119634000D01*
X195199000Y-104648000D01*
X195150664Y-104404996D01*
X195013013Y-104198987D01*
X194807004Y-104061336D01*
X194564000Y-104013000D01*
X188722000Y-104013000D01*
X188478996Y-104061336D01*
X188272987Y-104198987D01*
X188135336Y-104404996D01*
X188087000Y-104648000D01*
X186563000Y-104648000D01*
X186563000Y-97392158D01*
X186549940Y-97326500D01*
X186549940Y-96736000D01*
X186500657Y-96488235D01*
X186360309Y-96278191D01*
X186150265Y-96137843D01*
X185902500Y-96088560D01*
X185311999Y-96088560D01*
X185102500Y-96046888D01*
X184893001Y-96088560D01*
X184302500Y-96088560D01*
X184054735Y-96137843D01*
X183844691Y-96278191D01*
X183704343Y-96488235D01*
X183655060Y-96736000D01*
X183655060Y-97326500D01*
X183642000Y-97392159D01*
X183642001Y-105835923D01*
X183549889Y-106299000D01*
X174167800Y-106299000D01*
X174167800Y-105995719D01*
X173955120Y-105482263D01*
X173562137Y-105089280D01*
X173048681Y-104876600D01*
X172492919Y-104876600D01*
X171979463Y-105089280D01*
X171586480Y-105482263D01*
X171373800Y-105995719D01*
X169151300Y-105995719D01*
X169151300Y-104313158D01*
X171873019Y-101591440D01*
X171994961Y-101509961D01*
X172317760Y-101026858D01*
X172402500Y-100600842D01*
X172402500Y-100600838D01*
X172431111Y-100457001D01*
X172402500Y-100313164D01*
X172402500Y-97455658D01*
X172389440Y-97390001D01*
X172389440Y-96799500D01*
X172340157Y-96551735D01*
X172199809Y-96341691D01*
X171989765Y-96201343D01*
X171742000Y-96152060D01*
X171151499Y-96152060D01*
X170942000Y-96110388D01*
X170732501Y-96152060D01*
X170142000Y-96152060D01*
X169894235Y-96201343D01*
X169684191Y-96341691D01*
X169543843Y-96551735D01*
X169494560Y-96799500D01*
X169494560Y-97390006D01*
X169481501Y-97455658D01*
X169481500Y-99852041D01*
X166759782Y-102573760D01*
X166637840Y-102655239D01*
X166556361Y-102777181D01*
X166556359Y-102777183D01*
X166315041Y-103138342D01*
X166201689Y-103708200D01*
X164655500Y-103708200D01*
X164655500Y-92670932D01*
X164851432Y-92475000D01*
X164924874Y-92475000D01*
X165305280Y-92317431D01*
X165596431Y-92026280D01*
X165754000Y-91645874D01*
X165754000Y-91234126D01*
X165596431Y-90853720D01*
X165305280Y-90562569D01*
X164924874Y-90405000D01*
X164513126Y-90405000D01*
X164132720Y-90562569D01*
X163841569Y-90853720D01*
X163684000Y-91234126D01*
X163684000Y-91307568D01*
X163303775Y-91687793D01*
X163234849Y-91733848D01*
X163188794Y-91802774D01*
X163052397Y-92006906D01*
X162996806Y-92286378D01*
X162929431Y-92123720D01*
X162638280Y-91832569D01*
X162257874Y-91675000D01*
X161925000Y-91675000D01*
X161925000Y-86713344D01*
X161944000Y-86667474D01*
X161944000Y-86255726D01*
X161786431Y-85875320D01*
X161495280Y-85584169D01*
X161114874Y-85426600D01*
X160703126Y-85426600D01*
X160322720Y-85584169D01*
X160031569Y-85875320D01*
X159874000Y-86255726D01*
X159874000Y-86667474D01*
X159893000Y-86713344D01*
X159893000Y-87285564D01*
X159893001Y-87285569D01*
X159893000Y-94490256D01*
X159874000Y-94536126D01*
X159874000Y-94947874D01*
X159893001Y-94993747D01*
X159893000Y-101969613D01*
X159760210Y-102102403D01*
X159553910Y-102600456D01*
X155257500Y-102600456D01*
X155257500Y-90490711D01*
X155309431Y-90438780D01*
X155467000Y-90058374D01*
X155467000Y-89646626D01*
X155309431Y-89266220D01*
X155018280Y-88975069D01*
X154637874Y-88817500D01*
X154226126Y-88817500D01*
X154178000Y-88837434D01*
X154178000Y-87857064D01*
X154197904Y-87757000D01*
X154178000Y-87656935D01*
X154119051Y-87360577D01*
X154018610Y-87210256D01*
X153975931Y-87107220D01*
X153897070Y-87028359D01*
X153894495Y-87024505D01*
X153890641Y-87021930D01*
X153684780Y-86816069D01*
X153498773Y-86739023D01*
X153494923Y-86736450D01*
X153490381Y-86735547D01*
X153304374Y-86658500D01*
X153103045Y-86658500D01*
X153098500Y-86657596D01*
X153093955Y-86658500D01*
X152892626Y-86658500D01*
X152706619Y-86735547D01*
X152702077Y-86736450D01*
X152698227Y-86739023D01*
X152512220Y-86816069D01*
X152369854Y-86958435D01*
X152366006Y-86961006D01*
X152363435Y-86964854D01*
X152221069Y-87107220D01*
X152144023Y-87293227D01*
X152141450Y-87297077D01*
X152140547Y-87301619D01*
X152063500Y-87487626D01*
X152063500Y-87688955D01*
X152062596Y-87693500D01*
X152063500Y-87698045D01*
X152063500Y-87899374D01*
X152140547Y-88085381D01*
X152141450Y-88089923D01*
X152144023Y-88093773D01*
X152146001Y-88098549D01*
X152146000Y-95366556D01*
X152127000Y-95412426D01*
X152127000Y-95824174D01*
X152146001Y-95870046D01*
X152146001Y-97372737D01*
X152034374Y-97326500D01*
X151622626Y-97326500D01*
X151242220Y-97484069D01*
X150951069Y-97775220D01*
X150793500Y-98155626D01*
X128718093Y-98155626D01*
X128639431Y-97965720D01*
X128348280Y-97674569D01*
X128333500Y-97668447D01*
X128333500Y-91459000D01*
X128729874Y-91459000D01*
X129110280Y-91301431D01*
X129401431Y-91010280D01*
X129559000Y-90629874D01*
X129559000Y-90218126D01*
X129401431Y-89837720D01*
X129110280Y-89546569D01*
X128914510Y-89465479D01*
X128914510Y-85548400D01*
X129080126Y-85617000D01*
X129491874Y-85617000D01*
X129872280Y-85459431D01*
X130163431Y-85168280D01*
X130321000Y-84787874D01*
X130321000Y-84376126D01*
X130163431Y-83995720D01*
X129872280Y-83704569D01*
X129648009Y-83611673D01*
X129648009Y-73577501D01*
X155175000Y-73577501D01*
X155175000Y-73611874D01*
X155332569Y-73992280D01*
X155623720Y-74283431D01*
X156004126Y-74441000D01*
X156415874Y-74441000D01*
X156796280Y-74283431D01*
X157087431Y-73992280D01*
X157245000Y-73611874D01*
X157245000Y-73200126D01*
X157087431Y-72819720D01*
X157035500Y-72767789D01*
X157035500Y-72217302D01*
X157051672Y-72136000D01*
X157035500Y-72054697D01*
X157035500Y-68206157D01*
X157394320Y-67847337D01*
X157607000Y-67333881D01*
X157607000Y-66778119D01*
X157394320Y-66264663D01*
X157035500Y-65905843D01*
X157035500Y-60459157D01*
X157394320Y-60100337D01*
X157607000Y-59586881D01*
X157607000Y-59031119D01*
X157394320Y-58517663D01*
X157001337Y-58124680D01*
X156487881Y-57912000D01*
X155932119Y-57912000D01*
X155418663Y-58124680D01*
X155025680Y-58517663D01*
X154940000Y-58724513D01*
X154854320Y-58517663D01*
X154461337Y-58124680D01*
X153947881Y-57912000D01*
X153392119Y-57912000D01*
X152878663Y-58124680D01*
X152485680Y-58517663D01*
X152400000Y-58724513D01*
X152314320Y-58517663D01*
X151921337Y-58124680D01*
X151407881Y-57912000D01*
X150852119Y-57912000D01*
X150338663Y-58124680D01*
X149945680Y-58517663D01*
X149860000Y-58724513D01*
X149774320Y-58517663D01*
X149381337Y-58124680D01*
X148867881Y-57912000D01*
X148312119Y-57912000D01*
X147798663Y-58124680D01*
X147405680Y-58517663D01*
X147320000Y-58724513D01*
X147234320Y-58517663D01*
X146841337Y-58124680D01*
X146327881Y-57912000D01*
X145772119Y-57912000D01*
X145258663Y-58124680D01*
X144865680Y-58517663D01*
X144780000Y-58724513D01*
X144694320Y-58517663D01*
X144301337Y-58124680D01*
X143787881Y-57912000D01*
X143232119Y-57912000D01*
X142718663Y-58124680D01*
X142325680Y-58517663D01*
X142240000Y-58724513D01*
X142154320Y-58517663D01*
X141761337Y-58124680D01*
X141247881Y-57912000D01*
X140692119Y-57912000D01*
X140178663Y-58124680D01*
X139785680Y-58517663D01*
X139700000Y-58724513D01*
X139614320Y-58517663D01*
X139221337Y-58124680D01*
X138707881Y-57912000D01*
X138152119Y-57912000D01*
X137638663Y-58124680D01*
X137245680Y-58517663D01*
X137033000Y-59031119D01*
X137033000Y-59586881D01*
X137245680Y-60100337D01*
X137604500Y-60459157D01*
X137604501Y-65905842D01*
X137245680Y-66264663D01*
X137033000Y-66778119D01*
X137033000Y-67333881D01*
X137207226Y-67754500D01*
X127596958Y-67754500D01*
X127515656Y-67738328D01*
X127434353Y-67754500D01*
X127193562Y-67802396D01*
X126920504Y-67984848D01*
X126905054Y-68007971D01*
X126858858Y-68038838D01*
X126812803Y-68107764D01*
X124957389Y-69963178D01*
X124728780Y-69734569D01*
X124348374Y-69577000D01*
X123936626Y-69577000D01*
X123556220Y-69734569D01*
X123265069Y-70025720D01*
X123107500Y-70406126D01*
X123107500Y-70458240D01*
X123102848Y-70461348D01*
X122920396Y-70734407D01*
X122880676Y-70934093D01*
X122856328Y-71056500D01*
X122872500Y-71137802D01*
X122872501Y-80373193D01*
X122872500Y-80373198D01*
X122872501Y-81446067D01*
X122740067Y-81578500D01*
X122666626Y-81578500D01*
X122286220Y-81736069D01*
X121995069Y-82027220D01*
X121837500Y-82407626D01*
X121837500Y-82819374D01*
X121995069Y-83199780D01*
X122286220Y-83490931D01*
X122663000Y-83646998D01*
X122663000Y-83771874D01*
X122820569Y-84152280D01*
X123111720Y-84443431D01*
X123492126Y-84601000D01*
X123903874Y-84601000D01*
X124142501Y-84502158D01*
X124142501Y-88812066D01*
X124073567Y-88881000D01*
X124000126Y-88881000D01*
X123619720Y-89038569D01*
X123328569Y-89329720D01*
X123171000Y-89710126D01*
X123171000Y-90121874D01*
X123328569Y-90502280D01*
X123619720Y-90793431D01*
X124000126Y-90951000D01*
X124411874Y-90951000D01*
X124777501Y-90799553D01*
X124777501Y-99446447D01*
X124762720Y-99452569D01*
X124471569Y-99743720D01*
X124314000Y-100124126D01*
X124314000Y-100535874D01*
X124471569Y-100916280D01*
X124762720Y-101207431D01*
X125143126Y-101365000D01*
X125412501Y-101365000D01*
X125412501Y-103286552D01*
X125396896Y-103309907D01*
X125369807Y-103446094D01*
X125332828Y-103632000D01*
X125349000Y-103713302D01*
X125349001Y-105462192D01*
X125349000Y-105462196D01*
X125349000Y-105836698D01*
X125349001Y-108376693D01*
X125349000Y-108376698D01*
X125349000Y-108902500D01*
X121732711Y-108902500D01*
X121680780Y-108850569D01*
X121300374Y-108693000D01*
X120888626Y-108693000D01*
X120508220Y-108850569D01*
X120217069Y-109141720D01*
X120059500Y-109522126D01*
X103187500Y-109522126D01*
X103187500Y-104524211D01*
X103239431Y-104472280D01*
X103397000Y-104091874D01*
X103397000Y-103680126D01*
X103239431Y-103299720D01*
X102948280Y-103008569D01*
X102567874Y-102851000D01*
X102156126Y-102851000D01*
X102108000Y-102870934D01*
X102108000Y-97787744D01*
X102127000Y-97741874D01*
X102127000Y-97330126D01*
X102108000Y-97284256D01*
X102108000Y-88516744D01*
X102127000Y-88470874D01*
X102127000Y-88059126D01*
X102108000Y-88013256D01*
X102108000Y-85267730D01*
X102136501Y-85124445D01*
X102136501Y-85124443D01*
X102156405Y-85024380D01*
X102136501Y-84924316D01*
X102136501Y-73147750D01*
X102156405Y-73047686D01*
X102136501Y-72947621D01*
X102108000Y-72804336D01*
X102108000Y-72705244D01*
X102127000Y-72659374D01*
X102127000Y-72247626D01*
X102108000Y-72201756D01*
X102108000Y-69517126D01*
X103105000Y-69517126D01*
X103105000Y-69928874D01*
X103262569Y-70309280D01*
X103553720Y-70600431D01*
X103934126Y-70758000D01*
X104345874Y-70758000D01*
X104726280Y-70600431D01*
X104778211Y-70548500D01*
X107057789Y-70548500D01*
X107109720Y-70600431D01*
X107490126Y-70758000D01*
X107901874Y-70758000D01*
X108282280Y-70600431D01*
X108573431Y-70309280D01*
X108731000Y-69928874D01*
X108731000Y-69517126D01*
X108573431Y-69136720D01*
X108282280Y-68845569D01*
X107901874Y-68688000D01*
X107490126Y-68688000D01*
X107109720Y-68845569D01*
X107057789Y-68897500D01*
X104778211Y-68897500D01*
X104726280Y-68845569D01*
X104345874Y-68688000D01*
X103934126Y-68688000D01*
X103553720Y-68845569D01*
X103262569Y-69136720D01*
X103105000Y-69517126D01*
X102108000Y-69517126D01*
X102108000Y-65277066D01*
X102156126Y-65297000D01*
X102567874Y-65297000D01*
X102948280Y-65139431D01*
X103239431Y-64848280D01*
X103397000Y-64467874D01*
X103397000Y-64056126D01*
X103239431Y-63675720D01*
X103187500Y-63623789D01*
X103187500Y-59031119D01*
X107188000Y-59031119D01*
X107188000Y-59586881D01*
X107400680Y-60100337D01*
X107793663Y-60493320D01*
X108307119Y-60706000D01*
X108862881Y-60706000D01*
X109376337Y-60493320D01*
X109769320Y-60100337D01*
X109855000Y-59893487D01*
X109940680Y-60100337D01*
X110333663Y-60493320D01*
X110847119Y-60706000D01*
X111402881Y-60706000D01*
X111916337Y-60493320D01*
X112309320Y-60100337D01*
X112522000Y-59586881D01*
X112522000Y-59031119D01*
X112309320Y-58517663D01*
X111916337Y-58124680D01*
X111402881Y-57912000D01*
X110847119Y-57912000D01*
X110333663Y-58124680D01*
X109940680Y-58517663D01*
X109855000Y-58724513D01*
X109769320Y-58517663D01*
X109376337Y-58124680D01*
X108862881Y-57912000D01*
X108307119Y-57912000D01*
X107793663Y-58124680D01*
X107400680Y-58517663D01*
X107188000Y-59031119D01*
X103187500Y-59031119D01*
X103187500Y-54457711D01*
X103239431Y-54405780D01*
X103397000Y-54025374D01*
X103397000Y-53771000D01*
X187057424Y-53771000D01*
X185265924Y-55562500D01*
X184153453Y-55562500D01*
X182986507Y-56045865D01*
X182093365Y-56939007D01*
X181610000Y-58105953D01*
X181610000Y-59369047D01*
X182093365Y-60535993D01*
X182399873Y-60842501D01*
X168825960Y-60842501D01*
X168373667Y-60390208D01*
X168431337Y-60366320D01*
X168824320Y-59973337D01*
X168910000Y-59766487D01*
X168995680Y-59973337D01*
X169388663Y-60366320D01*
X169902119Y-60579000D01*
X170457881Y-60579000D01*
X170971337Y-60366320D01*
X171364320Y-59973337D01*
X171577000Y-59459881D01*
X171577000Y-58904119D01*
X171364320Y-58390663D01*
X170971337Y-57997680D01*
X170457881Y-57785000D01*
X169902119Y-57785000D01*
X169388663Y-57997680D01*
X168995680Y-58390663D01*
X168910000Y-58597513D01*
X168824320Y-58390663D01*
X168431337Y-57997680D01*
X167917881Y-57785000D01*
X167362119Y-57785000D01*
X166848663Y-57997680D01*
X166455680Y-58390663D01*
X166431792Y-58448334D01*
X166031017Y-58047559D01*
X165669858Y-57806241D01*
X165100000Y-57692889D01*
X164530142Y-57806241D01*
X164047039Y-58129039D01*
X163830000Y-58453861D01*
X163612961Y-58129039D01*
X163129857Y-57806240D01*
X162560000Y-57692888D01*
X161990142Y-57806240D01*
X161507039Y-58129039D01*
X161184240Y-58612143D01*
X161172510Y-58671114D01*
X161172510Y-56482641D01*
X161188682Y-56401338D01*
X161124614Y-56079243D01*
X161030818Y-55938869D01*
X160942162Y-55806186D01*
X160873236Y-55760131D01*
X159958881Y-54845777D01*
X159912824Y-54776848D01*
X159639766Y-54594396D01*
X159398975Y-54546500D01*
X159398973Y-54546500D01*
X159317672Y-54530328D01*
X159236371Y-54546500D01*
X123779297Y-54546500D01*
X123697999Y-54530329D01*
X123616701Y-54546500D01*
X123616697Y-54546500D01*
X123375906Y-54594396D01*
X123102848Y-54776848D01*
X123056793Y-54845774D01*
X122295568Y-55607000D01*
X122222126Y-55607000D01*
X121841720Y-55764569D01*
X121550569Y-56055720D01*
X121393000Y-56436126D01*
X121393000Y-56847874D01*
X121550569Y-57228280D01*
X121841720Y-57519431D01*
X122222126Y-57677000D01*
X122633874Y-57677000D01*
X123014280Y-57519431D01*
X123305431Y-57228280D01*
X123463000Y-56847874D01*
X123463000Y-56774432D01*
X124039933Y-56197500D01*
X125047842Y-56197500D01*
X124949000Y-56436126D01*
X124949000Y-56847874D01*
X125106569Y-57228280D01*
X125397720Y-57519431D01*
X125778126Y-57677000D01*
X126189874Y-57677000D01*
X126570280Y-57519431D01*
X126861431Y-57228280D01*
X127019000Y-56847874D01*
X127019000Y-56778510D01*
X127997000Y-56778510D01*
X127997000Y-56949384D01*
X128154569Y-57329790D01*
X128445720Y-57620941D01*
X128826126Y-57778510D01*
X129237874Y-57778510D01*
X129618280Y-57620941D01*
X129879701Y-57359520D01*
X158300088Y-57359520D01*
X158359490Y-57418923D01*
X158359490Y-57920292D01*
X158359491Y-57920297D01*
X158359490Y-70530697D01*
X158359490Y-70530698D01*
X158359491Y-73237135D01*
X158096776Y-73499850D01*
X158096773Y-73499852D01*
X153605926Y-77990700D01*
X153292211Y-77990700D01*
X153240280Y-77938769D01*
X152859874Y-77781200D01*
X152448126Y-77781200D01*
X152067720Y-77938769D01*
X151776569Y-78229920D01*
X151619000Y-78610326D01*
X151619000Y-79022074D01*
X151776569Y-79402480D01*
X152067720Y-79693631D01*
X152448126Y-79851200D01*
X152859874Y-79851200D01*
X153240280Y-79693631D01*
X153292211Y-79641700D01*
X153866557Y-79641700D01*
X153947858Y-79657872D01*
X154029159Y-79641700D01*
X154029161Y-79641700D01*
X154269952Y-79593804D01*
X154458266Y-79467977D01*
X154607720Y-79617431D01*
X154988126Y-79775000D01*
X155399874Y-79775000D01*
X155780280Y-79617431D01*
X155832211Y-79565500D01*
X156382699Y-79565500D01*
X156464000Y-79581672D01*
X156545301Y-79565500D01*
X156545303Y-79565500D01*
X156786094Y-79517604D01*
X157003936Y-79372047D01*
X157147720Y-79515831D01*
X157528126Y-79673400D01*
X157939874Y-79673400D01*
X158320280Y-79515831D01*
X158372211Y-79463900D01*
X159224309Y-79463900D01*
X159305610Y-79480072D01*
X159386911Y-79463900D01*
X159386913Y-79463900D01*
X159627704Y-79416004D01*
X159900762Y-79233552D01*
X159946819Y-79164623D01*
X160873236Y-78238207D01*
X160942162Y-78192152D01*
X161124614Y-77919094D01*
X161172510Y-77678303D01*
X161172510Y-77678302D01*
X161188682Y-77597001D01*
X161172510Y-77515699D01*
X161172510Y-69009126D01*
X173590000Y-69009126D01*
X173590000Y-69420874D01*
X173747569Y-69801280D01*
X173799500Y-69853211D01*
X173799501Y-76069788D01*
X173747569Y-76121720D01*
X173590000Y-76502126D01*
X173590000Y-76913874D01*
X173747569Y-77294280D01*
X174038720Y-77585431D01*
X174419126Y-77743000D01*
X174830874Y-77743000D01*
X175211280Y-77585431D01*
X175502431Y-77294280D01*
X175660000Y-76913874D01*
X175660000Y-76502126D01*
X175502431Y-76121720D01*
X175450500Y-76069789D01*
X175450500Y-73581126D01*
X184258000Y-73581126D01*
X184258000Y-73992874D01*
X184415569Y-74373280D01*
X184706720Y-74664431D01*
X185087126Y-74822000D01*
X185498874Y-74822000D01*
X185879280Y-74664431D01*
X186170431Y-74373280D01*
X186176553Y-74358500D01*
X187702789Y-74358500D01*
X187754720Y-74410431D01*
X188135126Y-74568000D01*
X188546874Y-74568000D01*
X188927280Y-74410431D01*
X189218431Y-74119280D01*
X189376000Y-73738874D01*
X189376000Y-73327126D01*
X189218431Y-72946720D01*
X188927280Y-72655569D01*
X188546874Y-72498000D01*
X188135126Y-72498000D01*
X187754720Y-72655569D01*
X187702789Y-72707500D01*
X185628297Y-72707500D01*
X185546999Y-72691329D01*
X185465702Y-72707500D01*
X185465697Y-72707500D01*
X185241979Y-72752000D01*
X185087126Y-72752000D01*
X184706720Y-72909569D01*
X184415569Y-73200720D01*
X184258000Y-73581126D01*
X175450500Y-73581126D01*
X175450500Y-69853211D01*
X175502431Y-69801280D01*
X175660000Y-69420874D01*
X175660000Y-69009126D01*
X175502431Y-68628720D01*
X175211280Y-68337569D01*
X174830874Y-68180000D01*
X174419126Y-68180000D01*
X174038720Y-68337569D01*
X173747569Y-68628720D01*
X173590000Y-69009126D01*
X161172510Y-69009126D01*
X161172510Y-60770517D01*
X161184240Y-60829488D01*
X161286000Y-60981782D01*
X161407911Y-61164234D01*
X161507040Y-61312591D01*
X161628982Y-61394070D01*
X165319941Y-65085030D01*
X165401420Y-65206972D01*
X165523362Y-65288451D01*
X165884521Y-65529770D01*
X165884522Y-65529770D01*
X165884523Y-65529771D01*
X166310539Y-65614511D01*
X166310543Y-65614511D01*
X166454380Y-65643122D01*
X166598217Y-65614511D01*
X188644053Y-65614511D01*
X189674500Y-66644958D01*
X189674501Y-86263040D01*
X188879042Y-87058500D01*
X181638887Y-87058500D01*
X181551013Y-86926987D01*
X181345004Y-86789336D01*
X181102000Y-86741000D01*
X174879000Y-86741000D01*
X174635996Y-86789336D01*
X174429987Y-86926987D01*
X174292336Y-87132996D01*
X174244000Y-87376000D01*
X174244000Y-91948000D01*
X174292336Y-92191004D01*
X174429987Y-92397013D01*
X174635996Y-92534664D01*
X174879000Y-92583000D01*
X181102000Y-92583000D01*
X181345004Y-92534664D01*
X181551013Y-92397013D01*
X181688664Y-92191004D01*
X181737000Y-91948000D01*
X181737000Y-89979500D01*
X189340163Y-89979500D01*
X189484000Y-90008111D01*
X189627837Y-89979500D01*
X189627842Y-89979500D01*
X190053858Y-89894760D01*
X190536961Y-89571961D01*
X190618442Y-89450016D01*
X190881000Y-89187458D01*
X190881000Y-99568000D01*
X190890667Y-99616601D01*
X190918197Y-99657803D01*
X190959399Y-99685333D01*
X191008000Y-99695000D01*
X205359000Y-99695000D01*
X205359000Y-112268000D01*
X205368667Y-112316601D01*
X205396197Y-112357803D01*
X205437399Y-112385333D01*
X205486000Y-112395000D01*
X209169000Y-112395000D01*
X209169000Y-128601000D01*
X208269711Y-128601000D01*
X208522431Y-128348280D01*
X208680000Y-127967874D01*
X208680000Y-127556126D01*
X208522431Y-127175720D01*
X208475580Y-127128869D01*
X208475580Y-118515012D01*
X208824710Y-118165882D01*
X209035650Y-117656627D01*
X209035650Y-117105413D01*
X208824710Y-116596158D01*
X208434942Y-116206390D01*
X207925687Y-115995450D01*
X207374473Y-115995450D01*
X206865218Y-116206390D01*
X206475450Y-116596158D01*
X206264510Y-117105413D01*
X206264510Y-117656627D01*
X206475450Y-118165882D01*
X206824580Y-118515012D01*
X206824581Y-127118708D01*
X206767569Y-127175720D01*
X206610000Y-127556126D01*
X206610000Y-127967874D01*
X206767569Y-128348280D01*
X207020289Y-128601000D01*
X177628500Y-128601000D01*
X177628500Y-128346626D01*
X177470931Y-127966220D01*
X177419000Y-127914289D01*
X177419000Y-117059111D01*
X177458231Y-117019880D01*
X177615800Y-116639474D01*
X177615800Y-116227726D01*
X177458231Y-115847320D01*
X177167080Y-115556169D01*
X176786674Y-115398600D01*
X176374926Y-115398600D01*
X175994520Y-115556169D01*
X175703369Y-115847320D01*
X175545800Y-116227726D01*
X175545800Y-116639474D01*
X175703369Y-117019880D01*
X175768001Y-117084512D01*
X175768000Y-127914289D01*
X175716069Y-127966220D01*
X175558500Y-128346626D01*
X175558500Y-128601000D01*
X141497000Y-128601000D01*
X141497000Y-128381626D01*
X141339431Y-128001220D01*
X141287500Y-127949289D01*
X141287500Y-122494711D01*
X141339431Y-122442780D01*
X141497000Y-122062374D01*
X141497000Y-121650626D01*
X141339431Y-121270220D01*
X141048280Y-120979069D01*
X140667874Y-120821500D01*
X140256126Y-120821500D01*
X139875720Y-120979069D01*
X139584569Y-121270220D01*
X139427000Y-121650626D01*
X139427000Y-122062374D01*
X139584569Y-122442780D01*
X139636501Y-122494712D01*
X139636500Y-127949289D01*
X139584569Y-128001220D01*
X139427000Y-128381626D01*
X139427000Y-128601000D01*
X73933000Y-128601000D01*
X73933000Y-128318126D01*
X73815726Y-128035000D01*
X74119874Y-128035000D01*
X74500280Y-127877431D01*
X74791431Y-127586280D01*
X74949000Y-127205874D01*
X74949000Y-126794126D01*
X74791431Y-126413720D01*
X74739500Y-126361789D01*
X74739500Y-117595600D01*
X74945374Y-117595600D01*
X75325780Y-117438031D01*
X75616931Y-117146880D01*
X75774500Y-116766474D01*
X75774500Y-116354726D01*
X75616931Y-115974320D01*
X75325780Y-115683169D01*
X74945374Y-115525600D01*
X74533626Y-115525600D01*
X74153220Y-115683169D01*
X74103468Y-115732921D01*
X74092514Y-115735100D01*
X74092512Y-115735100D01*
X73851721Y-115782996D01*
X73578663Y-115965448D01*
X73532606Y-116034377D01*
X73387777Y-116179206D01*
X73318848Y-116225263D01*
X73136396Y-116498322D01*
X73090153Y-116730802D01*
X73072328Y-116820415D01*
X73088500Y-116901716D01*
X73088500Y-117276903D01*
X73088501Y-117276908D01*
X73088501Y-117964000D01*
X72692126Y-117964000D01*
X72311720Y-118121569D01*
X72020569Y-118412720D01*
X71863000Y-118793126D01*
X71863000Y-119204874D01*
X72020569Y-119585280D01*
X72072501Y-119637212D01*
X72072500Y-127172697D01*
X72072500Y-127885789D01*
X72020569Y-127937720D01*
X71863000Y-128318126D01*
X71863000Y-128601000D01*
X44747093Y-128601000D01*
X44244033Y-128537448D01*
X43812969Y-128366777D01*
X43437891Y-128094267D01*
X43142367Y-127737040D01*
X42944968Y-127317546D01*
X42936470Y-127273000D01*
X43131874Y-127273000D01*
X43512280Y-127115431D01*
X43803431Y-126824280D01*
X43961000Y-126443874D01*
X43961000Y-126032126D01*
X43803431Y-125651720D01*
X43751500Y-125599789D01*
X43751500Y-123948699D01*
X43768018Y-123988577D01*
X44921423Y-125141982D01*
X46428419Y-125766200D01*
X48059581Y-125766200D01*
X49566577Y-125141982D01*
X50719982Y-123988577D01*
X51344200Y-122481581D01*
X51344200Y-120850419D01*
X50719982Y-119343423D01*
X49566577Y-118190018D01*
X48059581Y-117565800D01*
X46428419Y-117565800D01*
X44921423Y-118190018D01*
X43768018Y-119343423D01*
X43751500Y-119383301D01*
X43751500Y-85474211D01*
X43803431Y-85422280D01*
X43961000Y-85041874D01*
X43961000Y-84630126D01*
X58147000Y-84630126D01*
X58147000Y-85041874D01*
X58304569Y-85422280D01*
X58595720Y-85713431D01*
X58976126Y-85871000D01*
X59387874Y-85871000D01*
X59768280Y-85713431D01*
X60059431Y-85422280D01*
X60217000Y-85041874D01*
X60217000Y-84630126D01*
X60059431Y-84249720D01*
X60007500Y-84197789D01*
X60007500Y-77787500D01*
X60571843Y-77787500D01*
X60930663Y-78146320D01*
X61444119Y-78359000D01*
X61999881Y-78359000D01*
X62513337Y-78146320D01*
X62906320Y-77753337D01*
X62992000Y-77546487D01*
X63077680Y-77753337D01*
X63470663Y-78146320D01*
X63984119Y-78359000D01*
X64539881Y-78359000D01*
X65053337Y-78146320D01*
X65446320Y-77753337D01*
X65659000Y-77239881D01*
X65659000Y-76684119D01*
X65446320Y-76170663D01*
X65053337Y-75777680D01*
X64539881Y-75565000D01*
X63984119Y-75565000D01*
X63470663Y-75777680D01*
X63077680Y-76170663D01*
X62992000Y-76377513D01*
X62906320Y-76170663D01*
X62513337Y-75777680D01*
X61999881Y-75565000D01*
X61444119Y-75565000D01*
X60930663Y-75777680D01*
X60571843Y-76136500D01*
X60007500Y-76136500D01*
X60007500Y-68286932D01*
X60158933Y-68135500D01*
X60571843Y-68135500D01*
X60930663Y-68494320D01*
X61444119Y-68707000D01*
X61999881Y-68707000D01*
X62513337Y-68494320D01*
X62906320Y-68101337D01*
X62992000Y-67894487D01*
X63077680Y-68101337D01*
X63470663Y-68494320D01*
X63984119Y-68707000D01*
X64539881Y-68707000D01*
X65053337Y-68494320D01*
X65446320Y-68101337D01*
X65659000Y-67587881D01*
X65659000Y-67032119D01*
X65446320Y-66518663D01*
X65053337Y-66125680D01*
X64539881Y-65913000D01*
X63984119Y-65913000D01*
X63470663Y-66125680D01*
X63077680Y-66518663D01*
X62992000Y-66725513D01*
X62906320Y-66518663D01*
X62513337Y-66125680D01*
X61999881Y-65913000D01*
X61444119Y-65913000D01*
X60930663Y-66125680D01*
X60571843Y-66484500D01*
X59898303Y-66484500D01*
X59817000Y-66468328D01*
X59735697Y-66484500D01*
X59494906Y-66532396D01*
X59221848Y-66714848D01*
X59175793Y-66783774D01*
X58655775Y-67303793D01*
X58586849Y-67349848D01*
X58540794Y-67418774D01*
X58404397Y-67622906D01*
X58340328Y-67945000D01*
X58356501Y-68026306D01*
X58356500Y-76372697D01*
X58356500Y-76880697D01*
X58340328Y-76962000D01*
X58356500Y-77043302D01*
X58356500Y-77805302D01*
X58356501Y-77805306D01*
X58356500Y-78694302D01*
X58356501Y-78694307D01*
X58356500Y-80817697D01*
X58356500Y-80817698D01*
X58356501Y-83230693D01*
X58356500Y-83230698D01*
X58356501Y-84197788D01*
X58304569Y-84249720D01*
X58147000Y-84630126D01*
X43961000Y-84630126D01*
X43803431Y-84249720D01*
X43751500Y-84197789D01*
X43751500Y-76734919D01*
X45288200Y-76734919D01*
X45288200Y-77290681D01*
X45500880Y-77804137D01*
X45893863Y-78197120D01*
X46407319Y-78409800D01*
X46963081Y-78409800D01*
X47476537Y-78197120D01*
X47869520Y-77804137D01*
X47955200Y-77597287D01*
X48040880Y-77804137D01*
X48433863Y-78197120D01*
X48947319Y-78409800D01*
X49503081Y-78409800D01*
X50016537Y-78197120D01*
X50409520Y-77804137D01*
X50622200Y-77290681D01*
X50622200Y-76734919D01*
X50409520Y-76221463D01*
X50016537Y-75828480D01*
X49503081Y-75615800D01*
X48947319Y-75615800D01*
X48433863Y-75828480D01*
X48040880Y-76221463D01*
X47955200Y-76428313D01*
X47869520Y-76221463D01*
X47476537Y-75828480D01*
X46963081Y-75615800D01*
X46407319Y-75615800D01*
X45893863Y-75828480D01*
X45500880Y-76221463D01*
X45288200Y-76734919D01*
X43751500Y-76734919D01*
X43751500Y-67032119D01*
X45339000Y-67032119D01*
X45339000Y-67587881D01*
X45551680Y-68101337D01*
X45944663Y-68494320D01*
X46458119Y-68707000D01*
X47013881Y-68707000D01*
X47527337Y-68494320D01*
X47920320Y-68101337D01*
X48006000Y-67894487D01*
X48091680Y-68101337D01*
X48484663Y-68494320D01*
X48998119Y-68707000D01*
X49553881Y-68707000D01*
X50067337Y-68494320D01*
X50460320Y-68101337D01*
X50673000Y-67587881D01*
X50673000Y-67032119D01*
X50460320Y-66518663D01*
X50067337Y-66125680D01*
X49553881Y-65913000D01*
X48998119Y-65913000D01*
X48484663Y-66125680D01*
X48091680Y-66518663D01*
X48006000Y-66725513D01*
X47920320Y-66518663D01*
X47527337Y-66125680D01*
X47013881Y-65913000D01*
X46458119Y-65913000D01*
X45944663Y-66125680D01*
X45551680Y-66518663D01*
X45339000Y-67032119D01*
X43751500Y-67032119D01*
X43751500Y-63548126D01*
X74593500Y-63548126D01*
X74593500Y-63959874D01*
X74751069Y-64340280D01*
X74803001Y-64392212D01*
X74803000Y-78228789D01*
X74751069Y-78280720D01*
X74593500Y-78661126D01*
X74593500Y-79072874D01*
X74751069Y-79453280D01*
X75042220Y-79744431D01*
X75422626Y-79902000D01*
X75834374Y-79902000D01*
X76214780Y-79744431D01*
X76505931Y-79453280D01*
X76663500Y-79072874D01*
X76663500Y-78661126D01*
X76505931Y-78280720D01*
X76454000Y-78228789D01*
X76454000Y-70281350D01*
X76465569Y-70309280D01*
X76756720Y-70600431D01*
X77137126Y-70758000D01*
X77197000Y-70758000D01*
X77197000Y-71135374D01*
X77354569Y-71515780D01*
X77406501Y-71567712D01*
X77406500Y-72210882D01*
X77406500Y-72210883D01*
X77406501Y-73529788D01*
X77354569Y-73581720D01*
X77197000Y-73962126D01*
X77197000Y-74373874D01*
X77354569Y-74754280D01*
X77645720Y-75045431D01*
X78026126Y-75203000D01*
X78437874Y-75203000D01*
X78818280Y-75045431D01*
X79109431Y-74754280D01*
X79267000Y-74373874D01*
X79267000Y-73962126D01*
X79109431Y-73581720D01*
X79057500Y-73529789D01*
X79057500Y-71567711D01*
X79109431Y-71515780D01*
X79267000Y-71135374D01*
X79267000Y-70723626D01*
X79109431Y-70343220D01*
X78818280Y-70052069D01*
X78437874Y-69894500D01*
X78378000Y-69894500D01*
X78378000Y-69517126D01*
X78220431Y-69136720D01*
X77929280Y-68845569D01*
X77787500Y-68786842D01*
X77787500Y-64754626D01*
X83928000Y-64754626D01*
X83928000Y-65166374D01*
X84085569Y-65546780D01*
X84137501Y-65598712D01*
X84137500Y-72534802D01*
X84137501Y-72534807D01*
X84137500Y-82849697D01*
X84137500Y-84261289D01*
X84085569Y-84313220D01*
X83928000Y-84693626D01*
X83928000Y-85105374D01*
X84085569Y-85485780D01*
X84376720Y-85776931D01*
X84757126Y-85934500D01*
X85168874Y-85934500D01*
X85549280Y-85776931D01*
X85840431Y-85485780D01*
X85998000Y-85105374D01*
X85998000Y-84693626D01*
X85840431Y-84313220D01*
X85788500Y-84261289D01*
X85788500Y-65598711D01*
X85840431Y-65546780D01*
X85998000Y-65166374D01*
X85998000Y-64754626D01*
X85840431Y-64374220D01*
X85549280Y-64083069D01*
X85177628Y-63929126D01*
X87293500Y-63929126D01*
X87293500Y-64340874D01*
X87451069Y-64721280D01*
X87503001Y-64773212D01*
X87503000Y-73275789D01*
X87451069Y-73327720D01*
X87293500Y-73708126D01*
X87293500Y-74119874D01*
X87451069Y-74500280D01*
X87742220Y-74791431D01*
X88122626Y-74949000D01*
X88534374Y-74949000D01*
X88914780Y-74791431D01*
X89205931Y-74500280D01*
X89363500Y-74119874D01*
X89363500Y-73708126D01*
X89205931Y-73327720D01*
X89154000Y-73275789D01*
X89154000Y-65326126D01*
X89897000Y-65326126D01*
X89897000Y-65737874D01*
X90054569Y-66118280D01*
X90106500Y-66170211D01*
X90106500Y-66565802D01*
X90106501Y-66565807D01*
X90106500Y-73275789D01*
X90054569Y-73327720D01*
X89897000Y-73708126D01*
X89897000Y-74119874D01*
X90054569Y-74500280D01*
X90345720Y-74791431D01*
X90726126Y-74949000D01*
X91137874Y-74949000D01*
X91518280Y-74791431D01*
X91809431Y-74500280D01*
X91967000Y-74119874D01*
X91967000Y-73708126D01*
X91809431Y-73327720D01*
X91757500Y-73275789D01*
X91757500Y-66170211D01*
X91809431Y-66118280D01*
X91967000Y-65737874D01*
X91967000Y-65326126D01*
X91809431Y-64945720D01*
X91518280Y-64654569D01*
X91137874Y-64497000D01*
X90726126Y-64497000D01*
X90345720Y-64654569D01*
X90054569Y-64945720D01*
X89897000Y-65326126D01*
X89154000Y-65326126D01*
X89154000Y-64773211D01*
X89205931Y-64721280D01*
X89363500Y-64340874D01*
X89363500Y-63929126D01*
X89205931Y-63548720D01*
X88914780Y-63257569D01*
X88534374Y-63100000D01*
X88122626Y-63100000D01*
X87742220Y-63257569D01*
X87451069Y-63548720D01*
X87293500Y-63929126D01*
X85177628Y-63929126D01*
X85168874Y-63925500D01*
X84757126Y-63925500D01*
X84376720Y-64083069D01*
X84085569Y-64374220D01*
X83928000Y-64754626D01*
X77787500Y-64754626D01*
X77787500Y-64519211D01*
X77839431Y-64467280D01*
X77997000Y-64086874D01*
X77997000Y-63675126D01*
X77839431Y-63294720D01*
X77548280Y-63003569D01*
X77167874Y-62846000D01*
X76756126Y-62846000D01*
X76375720Y-63003569D01*
X76358750Y-63020539D01*
X76214780Y-62876569D01*
X75834374Y-62719000D01*
X75422626Y-62719000D01*
X75042220Y-62876569D01*
X74751069Y-63167720D01*
X74593500Y-63548126D01*
X43751500Y-63548126D01*
X43751500Y-62024126D01*
X96501000Y-62024126D01*
X96501000Y-62435874D01*
X96658569Y-62816280D01*
X96710500Y-62868211D01*
X96710501Y-63926695D01*
X96710500Y-63926698D01*
X96710500Y-64307698D01*
X96710501Y-71518193D01*
X96710500Y-71518198D01*
X96710501Y-73593288D01*
X96658569Y-73645220D01*
X96501000Y-74025626D01*
X96501000Y-74437374D01*
X96658569Y-74817780D01*
X96949720Y-75108931D01*
X97330126Y-75266500D01*
X97741874Y-75266500D01*
X98122280Y-75108931D01*
X98413431Y-74817780D01*
X98571000Y-74437374D01*
X98571000Y-74025626D01*
X98413431Y-73645220D01*
X98361500Y-73593289D01*
X98361500Y-62868211D01*
X98413431Y-62816280D01*
X98571000Y-62435874D01*
X98571000Y-62024126D01*
X98413431Y-61643720D01*
X98122280Y-61352569D01*
X97741874Y-61195000D01*
X97330126Y-61195000D01*
X96949720Y-61352569D01*
X96658569Y-61643720D01*
X96501000Y-62024126D01*
X43751500Y-62024126D01*
X43751500Y-59031119D01*
X45339000Y-59031119D01*
X45339000Y-59586881D01*
X45551680Y-60100337D01*
X45944663Y-60493320D01*
X46458119Y-60706000D01*
X47013881Y-60706000D01*
X47527337Y-60493320D01*
X47920320Y-60100337D01*
X48006000Y-59893487D01*
X48091680Y-60100337D01*
X48484663Y-60493320D01*
X48998119Y-60706000D01*
X49553881Y-60706000D01*
X50067337Y-60493320D01*
X50460320Y-60100337D01*
X50673000Y-59586881D01*
X50673000Y-59031119D01*
X50620395Y-58904119D01*
X60706000Y-58904119D01*
X60706000Y-59459881D01*
X60918680Y-59973337D01*
X61311663Y-60366320D01*
X61825119Y-60579000D01*
X62380881Y-60579000D01*
X62894337Y-60366320D01*
X63287320Y-59973337D01*
X63373000Y-59766487D01*
X63458680Y-59973337D01*
X63851663Y-60366320D01*
X64365119Y-60579000D01*
X64920881Y-60579000D01*
X65434337Y-60366320D01*
X65827320Y-59973337D01*
X65913000Y-59766487D01*
X65998680Y-59973337D01*
X66391663Y-60366320D01*
X66905119Y-60579000D01*
X67460881Y-60579000D01*
X67974337Y-60366320D01*
X68367320Y-59973337D01*
X68580000Y-59459881D01*
X68580000Y-59031119D01*
X78359000Y-59031119D01*
X78359000Y-59586881D01*
X78571680Y-60100337D01*
X78964663Y-60493320D01*
X79478119Y-60706000D01*
X80033881Y-60706000D01*
X80547337Y-60493320D01*
X80940320Y-60100337D01*
X81026000Y-59893487D01*
X81111680Y-60100337D01*
X81504663Y-60493320D01*
X82018119Y-60706000D01*
X82573881Y-60706000D01*
X83087337Y-60493320D01*
X83480320Y-60100337D01*
X83693000Y-59586881D01*
X83693000Y-59031119D01*
X83480320Y-58517663D01*
X83087337Y-58124680D01*
X82573881Y-57912000D01*
X82018119Y-57912000D01*
X81504663Y-58124680D01*
X81111680Y-58517663D01*
X81026000Y-58724513D01*
X80940320Y-58517663D01*
X80547337Y-58124680D01*
X80033881Y-57912000D01*
X79478119Y-57912000D01*
X78964663Y-58124680D01*
X78571680Y-58517663D01*
X78359000Y-59031119D01*
X68580000Y-59031119D01*
X68580000Y-58904119D01*
X68367320Y-58390663D01*
X67974337Y-57997680D01*
X67460881Y-57785000D01*
X66905119Y-57785000D01*
X66391663Y-57997680D01*
X65998680Y-58390663D01*
X65913000Y-58597513D01*
X65827320Y-58390663D01*
X65434337Y-57997680D01*
X64920881Y-57785000D01*
X64365119Y-57785000D01*
X63851663Y-57997680D01*
X63458680Y-58390663D01*
X63373000Y-58597513D01*
X63287320Y-58390663D01*
X62894337Y-57997680D01*
X62380881Y-57785000D01*
X61825119Y-57785000D01*
X61311663Y-57997680D01*
X60918680Y-58390663D01*
X60706000Y-58904119D01*
X50620395Y-58904119D01*
X50460320Y-58517663D01*
X50067337Y-58124680D01*
X49553881Y-57912000D01*
X48998119Y-57912000D01*
X48484663Y-58124680D01*
X48091680Y-58517663D01*
X48006000Y-58724513D01*
X47920320Y-58517663D01*
X47527337Y-58124680D01*
X47013881Y-57912000D01*
X46458119Y-57912000D01*
X45944663Y-58124680D01*
X45551680Y-58517663D01*
X45339000Y-59031119D01*
X43751500Y-59031119D01*
X43751500Y-57746653D01*
X92125800Y-57746653D01*
X92125800Y-58585347D01*
X92446754Y-59360199D01*
X93039801Y-59953246D01*
X93814653Y-60274200D01*
X94653347Y-60274200D01*
X95428199Y-59953246D01*
X96021246Y-59360199D01*
X96342200Y-58585347D01*
X96342200Y-57746653D01*
X96021246Y-56971801D01*
X95428199Y-56378754D01*
X94653347Y-56057800D01*
X93814653Y-56057800D01*
X93039801Y-56378754D01*
X92446754Y-56971801D01*
X92125800Y-57746653D01*
X43751500Y-57746653D01*
X43751500Y-56772211D01*
X43803431Y-56720280D01*
X43961000Y-56339874D01*
X43961000Y-55928126D01*
X43803431Y-55547720D01*
X43512280Y-55256569D01*
X43131874Y-55099000D01*
X42939093Y-55099000D01*
X43083222Y-54734971D01*
X43355732Y-54359892D01*
X43712960Y-54064367D01*
X44132454Y-53866968D01*
X44619913Y-53773981D01*
X44714760Y-53771000D01*
X101327000Y-53771000D01*
X101327000Y-54025374D01*
G04 #@! TO.N,+3V3*
G36*
X194437000Y-121285000D02*
X188849000Y-121285000D01*
X188849000Y-106883487D01*
X188976000Y-106576881D01*
X188976000Y-106021119D01*
X188849000Y-105714513D01*
X188849000Y-104775000D01*
X194437000Y-104775000D01*
X194437000Y-121285000D01*
X194437000Y-121285000D01*
G37*
X194437000Y-121285000D02*
X188849000Y-121285000D01*
X188849000Y-106883487D01*
X188976000Y-106576881D01*
X188976000Y-106021119D01*
X188849000Y-105714513D01*
X188849000Y-104775000D01*
X194437000Y-104775000D01*
X194437000Y-121285000D01*
G04 #@! TO.N,Net-(F1-Pad2)*
G36*
X180975000Y-91821000D02*
X175006000Y-91821000D01*
X175006000Y-87503000D01*
X180975000Y-87503000D01*
X180975000Y-91821000D01*
X180975000Y-91821000D01*
G37*
X180975000Y-91821000D02*
X175006000Y-91821000D01*
X175006000Y-87503000D01*
X180975000Y-87503000D01*
X180975000Y-91821000D01*
G04 #@! TD*
M02*
