M48
; DRILL file {KiCad (5.1.6)-1} date 11/27/20 18:27:44
; FORMAT={-:-/ absolute / inch / decimal}
; #@! TF.CreationDate,2020-11-27T18:27:44-06:00
; #@! TF.GenerationSoftware,Kicad,Pcbnew,(5.1.6)-1
; #@! TF.FileFunction,Plated,1,2,PTH
FMAT,2
INCH
T1C0.0157
T2C0.0315
T3C0.0350
T4C0.0354
T5C0.0354
T6C0.0800
T7C0.1616
T8C0.1616
T9C0.3600
%
G90
G05
T1
X1.5Y-2.7
X1.5Y-2.9
X1.5Y-3.1
X1.5Y-3.3
X1.5Y-3.5
X1.7Y-2.7
X1.7Y-2.9
X1.7Y-3.1
X1.7Y-3.3
X1.7Y-3.5
X1.9Y-3.3
X1.9Y-3.5
X1.9Y-3.7
X1.9Y-3.9
X1.96Y-2.05
X2.09Y-1.51
X2.1Y-3.3
X2.1Y-3.5
X2.1Y-3.7
X2.1Y-3.9
X2.125Y-2.375
X2.22Y-1.74
X2.3Y-3.3
X2.3Y-3.5
X2.3Y-3.7
X2.3Y-3.9
X2.35Y-1.49
X2.4Y-2.2
X2.41Y-1.65
X2.44Y-1.77
X2.45Y-2.375
X2.47Y-3.44
X2.48Y-1.45
X2.5Y-3.175
X2.53Y-3.29
X2.55Y-1.51
X2.6Y-3.7
X2.6Y-3.9
X2.61Y-1.4
X2.61Y-2.15
X2.61Y-3.235
X2.65Y-1.46
X2.7Y-2.2
X2.7Y-2.7
X2.7Y-3.2
X2.75Y-1.41
X2.8Y-2.0
X2.8Y-2.55
X2.84Y-1.47
X2.9Y-2.5
X2.9Y-2.8
X2.9Y-3.7
X2.9Y-3.9
X2.95Y-1.49
X3.02Y-1.51
X3.1Y-3.275
X3.11Y-1.59
X3.15Y-2.85
X3.17Y-2.5
X3.2Y-3.7
X3.2Y-3.9
X3.22Y-2.26
X3.25Y-2.4
X3.25Y-3.2
X3.3Y-2.3
X3.3Y-2.85
X3.3Y-3.2
X3.35Y-2.825
X3.4Y-2.9
X3.45Y-2.3
X3.45Y-2.55
X3.45Y-3.275
X3.46Y-2.6
X3.5Y-1.85
X3.5Y-3.2
X3.5Y-3.4
X3.55Y-2.7
X3.57Y-2.45
X3.575Y-3.325
X3.6Y-1.85
X3.6Y-2.0
X3.6Y-2.15
X3.6Y-2.3
X3.6Y-3.45
X3.6Y-3.5
X3.6Y-3.55
X3.65Y-2.6
X3.7Y-1.2
X3.7Y-1.25
X3.7Y-1.3
X3.7Y-1.35
X3.7Y-1.4
X3.7Y-1.65
X3.7Y-1.75
X3.7Y-2.4
X3.75Y-1.85
X3.75Y-2.0
X3.75Y-2.15
X3.75Y-2.3
X3.75Y-3.45
X3.75Y-3.55
X3.75Y-3.7
X3.75Y-3.8
X3.75Y-3.9
X3.78Y-2.35
X3.78Y-2.45
X3.78Y-2.5
X3.78Y-2.55
X3.78Y-2.6
X3.8Y-1.3
X3.8Y-1.55
X3.8Y-2.7
X3.8Y-2.9
X3.8Y-3.3
X3.8189Y-2.25
X3.85Y-2.15
X3.9Y-1.3
X3.9Y-1.55
X3.9Y-1.65
X3.9Y-1.85
X3.9Y-2.0
X3.9Y-2.15
X3.9Y-2.9
X3.9Y-3.3
X3.95Y-3.45
X3.95Y-3.55
X3.95Y-3.7
X3.95Y-3.8
X3.95Y-3.9
X3.975Y-1.75
X4.0Y-1.3
X4.0Y-1.55
X4.0Y-2.15
X4.0Y-2.9
X4.0Y-3.3
X4.05Y-1.85
X4.05Y-2.0
X4.05Y-2.15
X4.05Y-2.86
X4.1Y-1.3
X4.1Y-1.55
X4.1Y-1.65
X4.1Y-1.85
X4.1Y-2.0
X4.1Y-2.15
X4.1Y-2.7
X4.1Y-3.0
X4.1Y-3.15
X4.1Y-3.3
X4.11Y-2.4
X4.11Y-2.45
X4.11Y-2.55
X4.11Y-2.6
X4.1189Y-2.1845
X4.15Y-3.15
X4.15Y-3.45
X4.15Y-3.55
X4.15Y-3.7
X4.15Y-3.8
X4.15Y-3.9
X4.175Y-1.75
X4.19Y-2.17
X4.19Y-2.87
X4.2Y-1.3
X4.2Y-1.55
X4.2Y-3.0
X4.2Y-3.3
X4.25Y-1.85
X4.25Y-2.0
X4.25Y-2.15
X4.25Y-2.4
X4.25Y-2.6
X4.3Y-1.3
X4.3Y-1.55
X4.3Y-1.65
X4.3Y-2.35
X4.3Y-3.0
X4.3Y-3.3
X4.3Y-3.4
X4.3Y-3.45
X4.3Y-3.5
X4.35Y-2.2
X4.35Y-2.8
X4.375Y-2.85
X4.4Y-1.3
X4.4Y-1.55
X4.4Y-1.85
X4.4Y-2.0
X4.4Y-2.1
X4.4Y-3.3
X4.4Y-3.6
X4.4Y-3.7
X4.4Y-3.8
X4.4Y-3.9
X4.42Y-2.4
X4.43Y-2.45
X4.44Y-2.55
X4.45Y-1.65
X4.45Y-1.75
X4.45Y-2.35
X4.45Y-3.45
X4.5Y-1.2
X4.5Y-1.25
X4.5Y-1.3
X4.5Y-1.35
X4.5Y-1.35
X4.5Y-1.4
X4.5Y-1.55
X4.5Y-2.05
X4.5Y-2.15
X4.54Y-2.85
X4.55Y-1.85
X4.55Y-2.0
X4.55Y-2.45
X4.55Y-2.55
X4.55Y-2.9
X4.56Y-2.35
X4.57Y-3.17
X4.6Y-2.7
X4.6Y-3.3
X4.6Y-3.45
X4.6Y-3.55
X4.625Y-3.075
X4.65Y-2.05
X4.65Y-2.15
X4.65Y-2.35
X4.7Y-1.5
X4.72Y-2.45
X4.75Y-2.85
X4.75Y-2.95
X4.75Y-3.45
X4.75Y-3.55
X4.78Y-2.41
X4.8Y-2.05
X4.8Y-2.15
X4.86Y-2.85
X4.86Y-2.95
X4.9Y-2.45
X4.9Y-3.2
X4.9Y-3.4
X4.9Y-3.45
X4.9Y-3.55
X4.9Y-3.6
X4.9Y-3.65
X4.9Y-3.7
X4.9Y-3.75
X4.9Y-3.8
X4.9Y-3.9
X4.92Y-1.63
X4.95Y-1.05
X4.95Y-2.05
X4.95Y-2.15
X4.99Y-3.85
X5.0086Y-3.65
X5.025Y-3.55
X5.05Y-2.8
X5.05Y-3.0
X5.05Y-3.45
X5.05Y-3.75
X5.0804Y-1.0696
X5.1Y-2.05
X5.1Y-2.15
X5.1023Y-3.8477
X5.125Y-3.55
X5.15Y-3.17
X5.18Y-2.8
X5.18Y-2.85
X5.18Y-2.9
X5.18Y-2.95
X5.18Y-3.0
X5.2Y-3.5
X5.225Y-3.55
X5.23Y-2.67
X5.25Y-2.05
X5.25Y-2.15
X5.25Y-3.15
X5.25Y-3.65
X5.275Y-2.25
X5.275Y-3.525
X5.3Y-1.5
X5.3Y-2.35
X5.3Y-2.45
X5.325Y-3.55
X5.35Y-3.45
X5.375Y-2.1
X5.375Y-2.25
X5.375Y-3.525
X5.4Y-3.7
X5.4Y-3.8
X5.425Y-3.275
X5.425Y-3.55
X5.45Y-2.35
X5.45Y-2.45
X5.45Y-2.65
X5.45Y-3.15
X5.45Y-3.75
X5.475Y-3.525
X5.52Y-2.8
X5.52Y-2.85
X5.52Y-2.95
X5.52Y-3.0
X5.525Y-3.225
X5.525Y-3.45
X5.525Y-3.55
X5.5439Y-3.75
X5.55Y-2.63
X5.575Y-3.525
X5.575Y-3.675
X5.6Y-1.5
X5.625Y-3.45
X5.625Y-3.55
X5.63Y-3.9
X5.65Y-2.35
X5.65Y-2.45
X5.65Y-2.8
X5.65Y-3.0
X5.65Y-3.17
X5.65Y-3.225
X5.675Y-3.525
X5.675Y-3.675
X5.7Y-2.04
X5.7Y-2.2
X5.7061Y-3.75
X5.71Y-3.9
X5.725Y-3.5
X5.725Y-3.55
X5.75Y-3.1
X5.75Y-3.45
X5.775Y-3.225
X5.775Y-3.7
X5.775Y-3.8
X5.8Y-2.2
X5.8Y-2.35
X5.8Y-2.45
X5.82Y-2.0
X5.82Y-2.8
X5.825Y-3.55
X5.83Y-3.9
X5.8389Y-3.75
X5.85Y-3.45
X5.9Y-2.85
X5.9Y-2.95
X5.9Y-3.225
X5.9011Y-3.75
X5.91Y-1.4
X5.91Y-3.9
X5.95Y-2.35
X5.95Y-2.45
X5.95Y-3.7
X5.95Y-3.8
X5.96Y-2.04
X5.975Y-3.3
X5.99Y-1.59
X6.0Y-2.2
X6.025Y-3.225
X6.0439Y-3.5
X6.0689Y-2.85
X6.0689Y-2.95
X6.075Y-3.2
X6.1Y-1.75
X6.1Y-2.35
X6.1Y-2.45
X6.1Y-3.08
X6.1061Y-3.5
X6.1196Y-1.0696
X6.15Y-1.8
X6.15Y-2.5
X6.15Y-2.65
X6.15Y-3.4
X6.2Y-1.8
X6.2Y-2.1
X6.2Y-2.75
X6.2Y-2.9
X6.25Y-2.35
X6.25Y-2.5
X6.25Y-2.65
X6.25Y-2.8
X6.29Y-1.32
X6.3Y-2.8
X6.35Y-2.15
X6.35Y-2.2
X6.35Y-2.25
X6.35Y-2.35
X6.35Y-2.5
X6.35Y-2.65
X6.35Y-2.8
X6.35Y-3.35
X6.4Y-2.95
X6.405Y-1.25
X6.45Y-1.75
X6.45Y-1.85
X6.45Y-1.9
X6.45Y-2.15
X6.45Y-2.2
X6.45Y-2.25
X6.45Y-2.9
X6.46Y-1.29
X6.54Y-1.4
X6.55Y-3.05
X6.55Y-3.55
X6.6Y-1.35
X6.6Y-1.6
X6.6Y-1.7
X6.6Y-1.8
X6.6Y-2.25
X6.6Y-2.65
X6.7Y-1.35
X6.7Y-1.4
X6.75Y-2.375
X6.8Y-1.35
X6.8Y-1.6
X6.8Y-1.65
X6.8Y-1.7
X6.8Y-1.75
X6.8Y-1.8
X6.8Y-1.85
X6.8Y-1.9
X6.8Y-2.3
X6.85Y-1.15
X6.85Y-2.375
X6.9Y-1.35
X6.9Y-1.6
X6.9Y-1.65
X6.9Y-1.7
X6.9Y-1.75
X6.9Y-1.8
X6.9Y-1.85
X6.9Y-1.9
X6.9Y-2.3
X6.95Y-2.375
X6.97Y-1.26
X6.97Y-1.26
X7.0Y-2.7
X7.05Y-1.4
X7.05Y-3.35
X7.1Y-1.1
X7.1Y-1.3
X7.1Y-1.5
X7.1Y-1.6
X7.1Y-1.7
X7.1Y-1.8
X7.2Y-1.1
X7.2Y-1.3
X7.2Y-1.5
X7.2Y-2.3
X7.2Y-2.7
X7.25Y-3.55
X7.3Y-1.1
X7.3Y-1.3
X7.3Y-1.5
X7.3Y-1.6
X7.3Y-1.7
X7.3Y-2.4
X7.37Y-1.74
X7.3789Y-1.55
X7.41Y-1.5
X7.41Y-1.6
X7.45Y-3.9
X7.5Y-1.475
X7.5Y-2.7
X7.55Y-1.55
X7.55Y-1.65
X7.55Y-1.75
X7.6Y-1.6
X7.6Y-1.7
X7.6Y-1.8
X7.65Y-1.55
X7.65Y-1.65
X7.65Y-1.75
X7.7Y-1.6
X7.7Y-1.7
X7.7Y-1.8
X7.7Y-1.9
X7.7Y-2.0
X7.7Y-2.1
X7.7Y-2.2
X7.7Y-2.4
X7.7Y-2.5
X7.7Y-2.6
X7.7Y-2.7
X7.7Y-2.8
X7.7Y-2.9
X7.7Y-3.0
X7.7Y-3.1
X7.7Y-3.2
X7.7Y-3.3
X7.7Y-3.4
X7.7Y-3.9
X7.75Y-1.55
X7.75Y-1.65
X7.75Y-1.75
X7.75Y-1.85
X7.75Y-1.95
X7.75Y-2.05
X7.75Y-2.15
X7.75Y-2.25
X7.75Y-2.35
X7.75Y-2.45
X7.75Y-2.55
X7.75Y-2.65
X7.75Y-2.75
X7.75Y-2.85
X7.75Y-2.95
X7.75Y-3.05
X7.75Y-3.15
X7.75Y-3.25
X7.75Y-3.35
X7.75Y-3.45
X7.8Y-1.6
X7.8Y-1.7
X7.8Y-1.8
X7.8Y-1.9
X7.8Y-2.0
X7.8Y-2.1
X7.8Y-2.2
X7.8Y-2.3
X7.8Y-2.4
X7.8Y-2.5
X7.8Y-2.6
X7.8Y-2.7
X7.8Y-2.8
X7.8Y-3.1
X7.8Y-3.2
X7.8Y-3.3
X7.8Y-3.4
X7.9Y-1.6
X7.9Y-1.7
X7.9Y-1.8
X7.9Y-1.9
X7.9Y-2.0
X7.9Y-2.1
X7.9Y-2.2
X7.9Y-2.3
X7.9Y-2.4
X7.9Y-2.5
X7.9Y-2.6
X7.9Y-2.7
X7.9Y-2.8
X7.9Y-3.1
X7.9Y-3.2
X7.9Y-3.3
X7.9Y-3.4
X7.95Y-1.55
X7.95Y-1.65
X7.95Y-1.75
X7.95Y-1.85
X7.95Y-1.95
X7.95Y-2.05
X7.95Y-2.15
X7.95Y-2.25
X7.95Y-2.35
X7.95Y-2.45
X7.95Y-2.55
X7.95Y-2.65
X7.95Y-2.75
X7.95Y-3.15
X7.95Y-3.25
X7.95Y-3.35
X7.95Y-3.45
X7.95Y-3.9
X8.0Y-1.6
X8.0Y-1.7
X8.0Y-1.8
X8.0Y-1.9
X8.0Y-2.0
X8.0Y-2.1
X8.0Y-2.2
X8.0Y-2.3
X8.0Y-2.4
X8.0Y-2.5
X8.0Y-2.6
X8.0Y-2.7
X8.0Y-2.8
X8.0Y-3.1
X8.0Y-3.2
X8.0Y-3.3
X8.0Y-3.4
X8.1Y-1.6
X8.1Y-1.7
X8.1Y-1.8
X8.1Y-1.9
X8.1Y-2.0
X8.1Y-2.1
X8.1Y-2.2
X8.1Y-2.3
X8.1Y-2.4
X8.1Y-2.5
X8.1Y-2.6
X8.1Y-2.7
X8.1Y-2.8
X8.1Y-3.1
X8.1Y-3.2
X8.1Y-3.3
X8.1Y-3.4
X8.15Y-1.55
X8.15Y-1.65
X8.15Y-1.75
X8.15Y-1.85
X8.15Y-1.95
X8.15Y-2.05
X8.15Y-2.15
X8.15Y-2.25
X8.15Y-2.35
X8.15Y-2.45
X8.15Y-2.55
X8.15Y-2.65
X8.2Y-1.6
X8.2Y-1.7
X8.2Y-1.8
X8.2Y-1.9
X8.2Y-2.0
X8.2Y-2.1
X8.2Y-2.2
X8.2Y-2.3
X8.2Y-2.4
X8.2Y-2.5
X8.2Y-2.6
X8.2Y-2.8
X8.2Y-3.1
X8.2Y-3.2
X8.2Y-3.3
X8.2Y-3.4
X8.2Y-3.9
X8.2913Y-1.438
X8.3Y-3.2
X8.3Y-3.4
X8.31Y-1.4
X8.325Y-1.575
X8.35Y-2.4
X8.35Y-2.5
X8.35Y-2.6
X8.35Y-2.7
X8.35Y-2.8
X8.35Y-3.1
X8.35Y-3.8
X8.35Y-3.95
X8.362Y-1.462
X8.4Y-1.42
X8.41Y-1.84
X8.41Y-1.95
X8.41Y-2.34
X8.41Y-2.44
X8.45Y-1.45
X8.4811Y-1.0689
X8.5Y-1.2
X8.5Y-1.3
X8.5Y-1.4
X8.5Y-1.5
X8.5Y-2.0
X8.5Y-2.8
X8.5Y-3.1
X8.5Y-3.2
X8.5Y-3.4
X8.5Y-3.6
X8.5Y-3.8
X8.5Y-3.95
X8.55Y-1.25
X8.55Y-1.35
X8.55Y-1.45
X8.55Y-1.55
X8.55Y-1.75
X8.55Y-1.95
X8.55Y-2.05
X8.55Y-2.25
X8.5811Y-1.0689
X8.6Y-1.2
X8.6Y-1.3
X8.6Y-1.4
X8.6Y-1.5
X8.6Y-2.85
X8.6Y-3.05
X8.65Y-1.25
X8.65Y-3.95
X8.6811Y-1.0689
X8.7Y-1.2
X8.7Y-1.8
X8.7Y-1.9
X8.7Y-2.0
X8.7Y-2.1
X8.7Y-2.2
X8.7Y-2.3
X8.7Y-2.3
X8.7Y-2.4
X8.7Y-2.5
X8.7Y-2.55
X8.7Y-2.6
X8.7Y-3.2
X8.7Y-3.4
X8.7Y-3.6
X8.7Y-3.8
X8.75Y-2.5
X8.75Y-2.55
X8.7811Y-1.0689
X8.8Y-1.9
X8.8Y-2.0
X8.8Y-2.1
X8.8Y-2.2
X8.8Y-2.3
X8.8Y-2.4
X8.8Y-2.5
X8.8Y-3.95
X8.8811Y-1.0689
X8.9Y-2.1
X8.9Y-2.2
X8.9Y-2.3
X8.9Y-2.4
X8.9Y-3.4
X8.9Y-3.6
X8.9Y-3.8
X8.95Y-3.95
X8.9811Y-1.0689
X9.0Y-2.1
X9.0Y-2.2
X9.0Y-2.3
X9.0Y-2.4
X9.0811Y-1.0689
X9.1Y-2.1
X9.1Y-2.2
X9.1Y-2.3
X9.1Y-2.4
X9.1Y-3.4
X9.1Y-3.6
X9.1Y-3.8
X9.1Y-3.95
X9.1811Y-1.0689
X9.2Y-2.1
X9.2Y-2.2
X9.2Y-2.3
X9.2Y-2.4
X9.25Y-2.5
X9.25Y-3.95
X9.2811Y-1.0689
X9.3Y-1.2
X9.3Y-1.8
X9.3Y-1.9
X9.3Y-2.0
X9.3Y-2.1
X9.3Y-2.2
X9.3Y-2.3
X9.3Y-2.4
X9.3Y-2.55
X9.3Y-3.2
X9.3Y-3.4
X9.3Y-3.6
X9.3Y-3.8
X9.35Y-1.25
X9.35Y-2.5
X9.35Y-2.6
X9.35Y-2.7
X9.3811Y-1.0689
X9.4Y-1.2
X9.4Y-1.3
X9.4Y-1.4
X9.4Y-1.5
X9.4Y-1.6
X9.4Y-1.7
X9.4Y-1.8
X9.4Y-1.9
X9.4Y-1.9
X9.4Y-2.0
X9.4Y-2.1
X9.4Y-2.2
X9.4Y-2.3
X9.4Y-2.4
X9.4Y-2.55
X9.4Y-2.65
X9.4Y-2.75
X9.4Y-3.95
X9.45Y-1.25
X9.45Y-1.35
X9.45Y-1.45
X9.45Y-1.55
X9.45Y-2.5
X9.45Y-2.6
X9.45Y-2.7
X9.45Y-2.8
X9.4811Y-1.0689
X9.5Y-1.2
X9.5Y-1.3
X9.5Y-1.4
X9.5Y-1.5
X9.5Y-1.6
X9.5Y-1.7
X9.5Y-1.8
X9.5Y-1.9
X9.5Y-2.0
X9.5Y-2.1
X9.5Y-2.2
X9.5Y-2.3
X9.5Y-2.4
X9.5Y-2.55
X9.5Y-2.65
X9.5Y-2.75
X9.5Y-2.85
X9.5Y-3.0
X9.5Y-3.2
X9.5Y-3.4
X9.55Y-2.6
X9.55Y-2.7
X9.55Y-2.8
X9.55Y-2.9
X9.55Y-3.95
X9.565Y-1.085
X9.6Y-2.65
X9.6Y-2.75
X9.6Y-2.85
X9.6Y-2.95
X9.6311Y-1.1689
X9.6311Y-1.2689
X9.6311Y-1.3689
X9.6311Y-1.4689
X9.6311Y-1.5689
X9.6311Y-1.6689
X9.6311Y-1.7689
X9.6311Y-1.8689
X9.6311Y-1.9689
X9.6311Y-2.0689
X9.6311Y-2.1689
X9.6311Y-2.2689
X9.6311Y-2.3689
X9.6311Y-2.4689
X9.6311Y-2.55
X9.65Y-2.7
X9.65Y-2.8
X9.65Y-2.9
X9.65Y-3.0
X9.65Y-3.1
X9.65Y-3.25
X9.65Y-3.4
X9.65Y-3.55
X9.65Y-3.85
T2
X7.05Y-2.85
X7.1484Y-2.85
X7.5516Y-2.3
X7.65Y-2.3
X6.5516Y-2.85
X6.65Y-2.85
T3
X6.35Y-3.15
X6.45Y-3.15
X6.55Y-3.15
X7.05Y-3.15
X7.15Y-3.15
X7.25Y-3.15
T4
X8.0998Y-3.8013
X8.175Y-3.8013
X8.2502Y-3.8013
T5
X5.25Y-1.15
X5.35Y-1.15
X5.45Y-1.15
X5.55Y-1.15
X5.65Y-1.15
X5.75Y-1.15
X5.85Y-1.15
X5.95Y-1.15
X4.8Y-1.15
X4.9Y-1.15
X5.0Y-1.15
X6.47Y-1.5
X6.57Y-1.5
X6.67Y-1.5
X6.77Y-1.5
X6.77Y-1.5
X6.47Y-1.16
X6.57Y-1.16
X6.67Y-1.16
X6.77Y-1.16
X6.77Y-1.16
X3.75Y-1.45
X3.85Y-1.45
X3.95Y-1.45
X4.05Y-1.45
X4.15Y-1.45
X4.25Y-1.45
X4.35Y-1.45
X4.45Y-1.45
X4.55Y-1.45
X2.82Y-1.14
X2.92Y-1.14
X3.02Y-1.14
X3.75Y-1.15
X3.85Y-1.15
X3.95Y-1.15
X4.05Y-1.15
X4.15Y-1.15
X4.25Y-1.15
X4.35Y-1.15
X4.45Y-1.15
X4.55Y-1.15
T7
X8.3215Y-1.199
T8
X8.0105Y-1.199
T9
X9.0Y-2.875
X2.1Y-2.875
X9.0Y-1.5
T6
G00X7.9Y-2.955
M15
G01X8.05Y-2.955
M16
G05
G00X8.3Y-2.955
M15
G01X8.45Y-2.955
M16
G05
T0
M30
