%TF.GenerationSoftware,KiCad,Pcbnew,(5.1.6)-1*%
%TF.CreationDate,2020-11-27T16:54:08-06:00*%
%TF.ProjectId,BMS_2021_Rev1,424d535f-3230-4323-915f-526576312e6b,rev?*%
%TF.SameCoordinates,Original*%
%TF.FileFunction,Paste,Top*%
%TF.FilePolarity,Positive*%
%FSLAX46Y46*%
G04 Gerber Fmt 4.6, Leading zero omitted, Abs format (unit mm)*
G04 Created by KiCad (PCBNEW (5.1.6)-1) date 2020-11-27 16:54:08*
%MOMM*%
%LPD*%
G01*
G04 APERTURE LIST*
%ADD10R,0.990600X1.778000*%
%ADD11R,0.254000X0.406400*%
%ADD12R,8.200000X10.700000*%
%ADD13R,3.800000X1.050000*%
%ADD14R,0.800000X0.900000*%
%ADD15R,0.450000X1.500000*%
%ADD16R,1.981200X0.558800*%
%ADD17R,1.500000X0.450000*%
%ADD18R,2.500000X6.000000*%
G04 APERTURE END LIST*
D10*
%TO.C,U1*%
X85598000Y-42113200D03*
X83058000Y-42113200D03*
X80518000Y-42113200D03*
X77978000Y-42113200D03*
X75438000Y-42113200D03*
X72898000Y-42113200D03*
X70358000Y-42113200D03*
X67818000Y-42113200D03*
X65278000Y-42113200D03*
X62738000Y-42113200D03*
X85598000Y-48006000D03*
X83058000Y-48006000D03*
X80518000Y-48006000D03*
X77978000Y-48006000D03*
X75438000Y-48006000D03*
X72898000Y-48006000D03*
X70358000Y-48006000D03*
X67818000Y-48006000D03*
X65278000Y-48006000D03*
X62738000Y-48006000D03*
X85598000Y-91186000D03*
X83058000Y-91186000D03*
X80518000Y-91186000D03*
X77978000Y-91186000D03*
X75438000Y-91186000D03*
X72898000Y-91186000D03*
X70358000Y-91186000D03*
X67818000Y-91186000D03*
X65278000Y-91186000D03*
X62738000Y-91186000D03*
X85598000Y-85293200D03*
X83058000Y-85293200D03*
X80518000Y-85293200D03*
X77978000Y-85293200D03*
X75438000Y-85293200D03*
X72898000Y-85293200D03*
X70358000Y-85293200D03*
X67818000Y-85293200D03*
X65278000Y-85293200D03*
X62738000Y-85293200D03*
X131318000Y-42113200D03*
X128778000Y-42113200D03*
X126238000Y-42113200D03*
X149098000Y-48006000D03*
X146558000Y-48006000D03*
X144018000Y-48006000D03*
X141478000Y-48006000D03*
X138938000Y-48006000D03*
X136398000Y-48006000D03*
X133858000Y-48006000D03*
X131318000Y-48006000D03*
X128778000Y-48006000D03*
X126238000Y-48006000D03*
X149098000Y-91186000D03*
X144018000Y-91186000D03*
X138938000Y-91186000D03*
X136398000Y-91186000D03*
X133858000Y-91186000D03*
X131318000Y-91186000D03*
X128778000Y-91186000D03*
X149098000Y-85293200D03*
X144018000Y-85293200D03*
X133858000Y-85293200D03*
X131318000Y-85293200D03*
X128778000Y-85293200D03*
X126238000Y-85293200D03*
X138938000Y-85293200D03*
X141478000Y-85293200D03*
X146558000Y-91186000D03*
X133858000Y-42113200D03*
X136398000Y-42113200D03*
X146558000Y-85293200D03*
X141478000Y-91186000D03*
X144018000Y-42113200D03*
X141478000Y-42113200D03*
X136398000Y-85293200D03*
X138938000Y-42113200D03*
X146558000Y-42113200D03*
X149098000Y-42113200D03*
X126238000Y-91186000D03*
%TD*%
D11*
%TO.C,D4*%
X96443800Y-41910000D03*
X95250000Y-41910000D03*
%TD*%
%TO.C,R20*%
G36*
G01*
X144255000Y-71357500D02*
X144255000Y-70882500D01*
G75*
G02*
X144492500Y-70645000I237500J0D01*
G01*
X145067500Y-70645000D01*
G75*
G02*
X145305000Y-70882500I0J-237500D01*
G01*
X145305000Y-71357500D01*
G75*
G02*
X145067500Y-71595000I-237500J0D01*
G01*
X144492500Y-71595000D01*
G75*
G02*
X144255000Y-71357500I0J237500D01*
G01*
G37*
G36*
G01*
X146005000Y-71357500D02*
X146005000Y-70882500D01*
G75*
G02*
X146242500Y-70645000I237500J0D01*
G01*
X146817500Y-70645000D01*
G75*
G02*
X147055000Y-70882500I0J-237500D01*
G01*
X147055000Y-71357500D01*
G75*
G02*
X146817500Y-71595000I-237500J0D01*
G01*
X146242500Y-71595000D01*
G75*
G02*
X146005000Y-71357500I0J237500D01*
G01*
G37*
%TD*%
%TO.C,D11*%
X110490000Y-41910000D03*
X111683800Y-41910000D03*
%TD*%
%TO.C,D12*%
X109143800Y-44450000D03*
X107950000Y-44450000D03*
%TD*%
D12*
%TO.C,Q3*%
X205604000Y-44450000D03*
D13*
X216204000Y-40640000D03*
X216204000Y-41910000D03*
X216204000Y-43180000D03*
X216204000Y-45720000D03*
X216204000Y-46990000D03*
X216204000Y-48260000D03*
%TD*%
D12*
%TO.C,Q2*%
X205604000Y-57150000D03*
D13*
X216204000Y-53340000D03*
X216204000Y-54610000D03*
X216204000Y-55880000D03*
X216204000Y-58420000D03*
X216204000Y-59690000D03*
X216204000Y-60960000D03*
%TD*%
D14*
%TO.C,Q4*%
X142052000Y-51848000D03*
X143002000Y-53848000D03*
X141102000Y-53848000D03*
%TD*%
D15*
%TO.C,Q1*%
X132700000Y-37267500D03*
X132050000Y-34607500D03*
X133350000Y-34607500D03*
%TD*%
%TO.C,U7*%
G36*
G01*
X190541000Y-46886000D02*
X190541000Y-46586000D01*
G75*
G02*
X190691000Y-46436000I150000J0D01*
G01*
X192341000Y-46436000D01*
G75*
G02*
X192491000Y-46586000I0J-150000D01*
G01*
X192491000Y-46886000D01*
G75*
G02*
X192341000Y-47036000I-150000J0D01*
G01*
X190691000Y-47036000D01*
G75*
G02*
X190541000Y-46886000I0J150000D01*
G01*
G37*
G36*
G01*
X190541000Y-48156000D02*
X190541000Y-47856000D01*
G75*
G02*
X190691000Y-47706000I150000J0D01*
G01*
X192341000Y-47706000D01*
G75*
G02*
X192491000Y-47856000I0J-150000D01*
G01*
X192491000Y-48156000D01*
G75*
G02*
X192341000Y-48306000I-150000J0D01*
G01*
X190691000Y-48306000D01*
G75*
G02*
X190541000Y-48156000I0J150000D01*
G01*
G37*
G36*
G01*
X190541000Y-49426000D02*
X190541000Y-49126000D01*
G75*
G02*
X190691000Y-48976000I150000J0D01*
G01*
X192341000Y-48976000D01*
G75*
G02*
X192491000Y-49126000I0J-150000D01*
G01*
X192491000Y-49426000D01*
G75*
G02*
X192341000Y-49576000I-150000J0D01*
G01*
X190691000Y-49576000D01*
G75*
G02*
X190541000Y-49426000I0J150000D01*
G01*
G37*
G36*
G01*
X190541000Y-50696000D02*
X190541000Y-50396000D01*
G75*
G02*
X190691000Y-50246000I150000J0D01*
G01*
X192341000Y-50246000D01*
G75*
G02*
X192491000Y-50396000I0J-150000D01*
G01*
X192491000Y-50696000D01*
G75*
G02*
X192341000Y-50846000I-150000J0D01*
G01*
X190691000Y-50846000D01*
G75*
G02*
X190541000Y-50696000I0J150000D01*
G01*
G37*
G36*
G01*
X185591000Y-50696000D02*
X185591000Y-50396000D01*
G75*
G02*
X185741000Y-50246000I150000J0D01*
G01*
X187391000Y-50246000D01*
G75*
G02*
X187541000Y-50396000I0J-150000D01*
G01*
X187541000Y-50696000D01*
G75*
G02*
X187391000Y-50846000I-150000J0D01*
G01*
X185741000Y-50846000D01*
G75*
G02*
X185591000Y-50696000I0J150000D01*
G01*
G37*
G36*
G01*
X185591000Y-49426000D02*
X185591000Y-49126000D01*
G75*
G02*
X185741000Y-48976000I150000J0D01*
G01*
X187391000Y-48976000D01*
G75*
G02*
X187541000Y-49126000I0J-150000D01*
G01*
X187541000Y-49426000D01*
G75*
G02*
X187391000Y-49576000I-150000J0D01*
G01*
X185741000Y-49576000D01*
G75*
G02*
X185591000Y-49426000I0J150000D01*
G01*
G37*
G36*
G01*
X185591000Y-48156000D02*
X185591000Y-47856000D01*
G75*
G02*
X185741000Y-47706000I150000J0D01*
G01*
X187391000Y-47706000D01*
G75*
G02*
X187541000Y-47856000I0J-150000D01*
G01*
X187541000Y-48156000D01*
G75*
G02*
X187391000Y-48306000I-150000J0D01*
G01*
X185741000Y-48306000D01*
G75*
G02*
X185591000Y-48156000I0J150000D01*
G01*
G37*
G36*
G01*
X185591000Y-46886000D02*
X185591000Y-46586000D01*
G75*
G02*
X185741000Y-46436000I150000J0D01*
G01*
X187391000Y-46436000D01*
G75*
G02*
X187541000Y-46586000I0J-150000D01*
G01*
X187541000Y-46886000D01*
G75*
G02*
X187391000Y-47036000I-150000J0D01*
G01*
X185741000Y-47036000D01*
G75*
G02*
X185591000Y-46886000I0J150000D01*
G01*
G37*
%TD*%
D16*
%TO.C,U4*%
X138277600Y-69850000D03*
X138277600Y-71120000D03*
X138277600Y-72390000D03*
X138277600Y-73660000D03*
X138277600Y-74930000D03*
X138277600Y-76200000D03*
X138277600Y-77470000D03*
X133350000Y-77470000D03*
X133350000Y-76200000D03*
X133350000Y-74930000D03*
X133350000Y-73660000D03*
X133350000Y-72390000D03*
X133350000Y-71120000D03*
X133350000Y-69850000D03*
%TD*%
%TO.C,U3*%
X97790000Y-59690000D03*
X97790000Y-60960000D03*
X97790000Y-62230000D03*
X97790000Y-63500000D03*
X97790000Y-64770000D03*
X97790000Y-66040000D03*
X97790000Y-67310000D03*
X102717600Y-67310000D03*
X102717600Y-66040000D03*
X102717600Y-64770000D03*
X102717600Y-63500000D03*
X102717600Y-62230000D03*
X102717600Y-60960000D03*
X102717600Y-59690000D03*
%TD*%
%TO.C,R53*%
G36*
G01*
X66531500Y-27731000D02*
X66056500Y-27731000D01*
G75*
G02*
X65819000Y-27493500I0J237500D01*
G01*
X65819000Y-26918500D01*
G75*
G02*
X66056500Y-26681000I237500J0D01*
G01*
X66531500Y-26681000D01*
G75*
G02*
X66769000Y-26918500I0J-237500D01*
G01*
X66769000Y-27493500D01*
G75*
G02*
X66531500Y-27731000I-237500J0D01*
G01*
G37*
G36*
G01*
X66531500Y-29481000D02*
X66056500Y-29481000D01*
G75*
G02*
X65819000Y-29243500I0J237500D01*
G01*
X65819000Y-28668500D01*
G75*
G02*
X66056500Y-28431000I237500J0D01*
G01*
X66531500Y-28431000D01*
G75*
G02*
X66769000Y-28668500I0J-237500D01*
G01*
X66769000Y-29243500D01*
G75*
G02*
X66531500Y-29481000I-237500J0D01*
G01*
G37*
%TD*%
%TO.C,R52*%
G36*
G01*
X63229500Y-27731000D02*
X62754500Y-27731000D01*
G75*
G02*
X62517000Y-27493500I0J237500D01*
G01*
X62517000Y-26918500D01*
G75*
G02*
X62754500Y-26681000I237500J0D01*
G01*
X63229500Y-26681000D01*
G75*
G02*
X63467000Y-26918500I0J-237500D01*
G01*
X63467000Y-27493500D01*
G75*
G02*
X63229500Y-27731000I-237500J0D01*
G01*
G37*
G36*
G01*
X63229500Y-29481000D02*
X62754500Y-29481000D01*
G75*
G02*
X62517000Y-29243500I0J237500D01*
G01*
X62517000Y-28668500D01*
G75*
G02*
X62754500Y-28431000I237500J0D01*
G01*
X63229500Y-28431000D01*
G75*
G02*
X63467000Y-28668500I0J-237500D01*
G01*
X63467000Y-29243500D01*
G75*
G02*
X63229500Y-29481000I-237500J0D01*
G01*
G37*
%TD*%
%TO.C,R51*%
G36*
G01*
X59927500Y-27731000D02*
X59452500Y-27731000D01*
G75*
G02*
X59215000Y-27493500I0J237500D01*
G01*
X59215000Y-26918500D01*
G75*
G02*
X59452500Y-26681000I237500J0D01*
G01*
X59927500Y-26681000D01*
G75*
G02*
X60165000Y-26918500I0J-237500D01*
G01*
X60165000Y-27493500D01*
G75*
G02*
X59927500Y-27731000I-237500J0D01*
G01*
G37*
G36*
G01*
X59927500Y-29481000D02*
X59452500Y-29481000D01*
G75*
G02*
X59215000Y-29243500I0J237500D01*
G01*
X59215000Y-28668500D01*
G75*
G02*
X59452500Y-28431000I237500J0D01*
G01*
X59927500Y-28431000D01*
G75*
G02*
X60165000Y-28668500I0J-237500D01*
G01*
X60165000Y-29243500D01*
G75*
G02*
X59927500Y-29481000I-237500J0D01*
G01*
G37*
%TD*%
%TO.C,R50*%
G36*
G01*
X56625500Y-27731000D02*
X56150500Y-27731000D01*
G75*
G02*
X55913000Y-27493500I0J237500D01*
G01*
X55913000Y-26918500D01*
G75*
G02*
X56150500Y-26681000I237500J0D01*
G01*
X56625500Y-26681000D01*
G75*
G02*
X56863000Y-26918500I0J-237500D01*
G01*
X56863000Y-27493500D01*
G75*
G02*
X56625500Y-27731000I-237500J0D01*
G01*
G37*
G36*
G01*
X56625500Y-29481000D02*
X56150500Y-29481000D01*
G75*
G02*
X55913000Y-29243500I0J237500D01*
G01*
X55913000Y-28668500D01*
G75*
G02*
X56150500Y-28431000I237500J0D01*
G01*
X56625500Y-28431000D01*
G75*
G02*
X56863000Y-28668500I0J-237500D01*
G01*
X56863000Y-29243500D01*
G75*
G02*
X56625500Y-29481000I-237500J0D01*
G01*
G37*
%TD*%
%TO.C,R49*%
G36*
G01*
X53323500Y-27731000D02*
X52848500Y-27731000D01*
G75*
G02*
X52611000Y-27493500I0J237500D01*
G01*
X52611000Y-26918500D01*
G75*
G02*
X52848500Y-26681000I237500J0D01*
G01*
X53323500Y-26681000D01*
G75*
G02*
X53561000Y-26918500I0J-237500D01*
G01*
X53561000Y-27493500D01*
G75*
G02*
X53323500Y-27731000I-237500J0D01*
G01*
G37*
G36*
G01*
X53323500Y-29481000D02*
X52848500Y-29481000D01*
G75*
G02*
X52611000Y-29243500I0J237500D01*
G01*
X52611000Y-28668500D01*
G75*
G02*
X52848500Y-28431000I237500J0D01*
G01*
X53323500Y-28431000D01*
G75*
G02*
X53561000Y-28668500I0J-237500D01*
G01*
X53561000Y-29243500D01*
G75*
G02*
X53323500Y-29481000I-237500J0D01*
G01*
G37*
%TD*%
%TO.C,R48*%
G36*
G01*
X50021500Y-29481000D02*
X49546500Y-29481000D01*
G75*
G02*
X49309000Y-29243500I0J237500D01*
G01*
X49309000Y-28668500D01*
G75*
G02*
X49546500Y-28431000I237500J0D01*
G01*
X50021500Y-28431000D01*
G75*
G02*
X50259000Y-28668500I0J-237500D01*
G01*
X50259000Y-29243500D01*
G75*
G02*
X50021500Y-29481000I-237500J0D01*
G01*
G37*
G36*
G01*
X50021500Y-27731000D02*
X49546500Y-27731000D01*
G75*
G02*
X49309000Y-27493500I0J237500D01*
G01*
X49309000Y-26918500D01*
G75*
G02*
X49546500Y-26681000I237500J0D01*
G01*
X50021500Y-26681000D01*
G75*
G02*
X50259000Y-26918500I0J-237500D01*
G01*
X50259000Y-27493500D01*
G75*
G02*
X50021500Y-27731000I-237500J0D01*
G01*
G37*
%TD*%
%TO.C,R47*%
G36*
G01*
X76753000Y-50054500D02*
X76753000Y-50529500D01*
G75*
G02*
X76515500Y-50767000I-237500J0D01*
G01*
X75940500Y-50767000D01*
G75*
G02*
X75703000Y-50529500I0J237500D01*
G01*
X75703000Y-50054500D01*
G75*
G02*
X75940500Y-49817000I237500J0D01*
G01*
X76515500Y-49817000D01*
G75*
G02*
X76753000Y-50054500I0J-237500D01*
G01*
G37*
G36*
G01*
X78503000Y-50054500D02*
X78503000Y-50529500D01*
G75*
G02*
X78265500Y-50767000I-237500J0D01*
G01*
X77690500Y-50767000D01*
G75*
G02*
X77453000Y-50529500I0J237500D01*
G01*
X77453000Y-50054500D01*
G75*
G02*
X77690500Y-49817000I237500J0D01*
G01*
X78265500Y-49817000D01*
G75*
G02*
X78503000Y-50054500I0J-237500D01*
G01*
G37*
%TD*%
%TO.C,R46*%
G36*
G01*
X169147500Y-54655000D02*
X168672500Y-54655000D01*
G75*
G02*
X168435000Y-54417500I0J237500D01*
G01*
X168435000Y-53842500D01*
G75*
G02*
X168672500Y-53605000I237500J0D01*
G01*
X169147500Y-53605000D01*
G75*
G02*
X169385000Y-53842500I0J-237500D01*
G01*
X169385000Y-54417500D01*
G75*
G02*
X169147500Y-54655000I-237500J0D01*
G01*
G37*
G36*
G01*
X169147500Y-56405000D02*
X168672500Y-56405000D01*
G75*
G02*
X168435000Y-56167500I0J237500D01*
G01*
X168435000Y-55592500D01*
G75*
G02*
X168672500Y-55355000I237500J0D01*
G01*
X169147500Y-55355000D01*
G75*
G02*
X169385000Y-55592500I0J-237500D01*
G01*
X169385000Y-56167500D01*
G75*
G02*
X169147500Y-56405000I-237500J0D01*
G01*
G37*
%TD*%
%TO.C,R45*%
G36*
G01*
X169147500Y-58465000D02*
X168672500Y-58465000D01*
G75*
G02*
X168435000Y-58227500I0J237500D01*
G01*
X168435000Y-57652500D01*
G75*
G02*
X168672500Y-57415000I237500J0D01*
G01*
X169147500Y-57415000D01*
G75*
G02*
X169385000Y-57652500I0J-237500D01*
G01*
X169385000Y-58227500D01*
G75*
G02*
X169147500Y-58465000I-237500J0D01*
G01*
G37*
G36*
G01*
X169147500Y-60215000D02*
X168672500Y-60215000D01*
G75*
G02*
X168435000Y-59977500I0J237500D01*
G01*
X168435000Y-59402500D01*
G75*
G02*
X168672500Y-59165000I237500J0D01*
G01*
X169147500Y-59165000D01*
G75*
G02*
X169385000Y-59402500I0J-237500D01*
G01*
X169385000Y-59977500D01*
G75*
G02*
X169147500Y-60215000I-237500J0D01*
G01*
G37*
%TD*%
%TO.C,R44*%
G36*
G01*
X142477000Y-57133500D02*
X142477000Y-56658500D01*
G75*
G02*
X142714500Y-56421000I237500J0D01*
G01*
X143289500Y-56421000D01*
G75*
G02*
X143527000Y-56658500I0J-237500D01*
G01*
X143527000Y-57133500D01*
G75*
G02*
X143289500Y-57371000I-237500J0D01*
G01*
X142714500Y-57371000D01*
G75*
G02*
X142477000Y-57133500I0J237500D01*
G01*
G37*
G36*
G01*
X140727000Y-57133500D02*
X140727000Y-56658500D01*
G75*
G02*
X140964500Y-56421000I237500J0D01*
G01*
X141539500Y-56421000D01*
G75*
G02*
X141777000Y-56658500I0J-237500D01*
G01*
X141777000Y-57133500D01*
G75*
G02*
X141539500Y-57371000I-237500J0D01*
G01*
X140964500Y-57371000D01*
G75*
G02*
X140727000Y-57133500I0J237500D01*
G01*
G37*
%TD*%
%TO.C,R41*%
G36*
G01*
X209313000Y-34306500D02*
X209313000Y-34781500D01*
G75*
G02*
X209075500Y-35019000I-237500J0D01*
G01*
X208500500Y-35019000D01*
G75*
G02*
X208263000Y-34781500I0J237500D01*
G01*
X208263000Y-34306500D01*
G75*
G02*
X208500500Y-34069000I237500J0D01*
G01*
X209075500Y-34069000D01*
G75*
G02*
X209313000Y-34306500I0J-237500D01*
G01*
G37*
G36*
G01*
X207563000Y-34306500D02*
X207563000Y-34781500D01*
G75*
G02*
X207325500Y-35019000I-237500J0D01*
G01*
X206750500Y-35019000D01*
G75*
G02*
X206513000Y-34781500I0J237500D01*
G01*
X206513000Y-34306500D01*
G75*
G02*
X206750500Y-34069000I237500J0D01*
G01*
X207325500Y-34069000D01*
G75*
G02*
X207563000Y-34306500I0J-237500D01*
G01*
G37*
%TD*%
%TO.C,R40*%
G36*
G01*
X212643000Y-34306500D02*
X212643000Y-34781500D01*
G75*
G02*
X212405500Y-35019000I-237500J0D01*
G01*
X211830500Y-35019000D01*
G75*
G02*
X211593000Y-34781500I0J237500D01*
G01*
X211593000Y-34306500D01*
G75*
G02*
X211830500Y-34069000I237500J0D01*
G01*
X212405500Y-34069000D01*
G75*
G02*
X212643000Y-34306500I0J-237500D01*
G01*
G37*
G36*
G01*
X214393000Y-34306500D02*
X214393000Y-34781500D01*
G75*
G02*
X214155500Y-35019000I-237500J0D01*
G01*
X213580500Y-35019000D01*
G75*
G02*
X213343000Y-34781500I0J237500D01*
G01*
X213343000Y-34306500D01*
G75*
G02*
X213580500Y-34069000I237500J0D01*
G01*
X214155500Y-34069000D01*
G75*
G02*
X214393000Y-34306500I0J-237500D01*
G01*
G37*
%TD*%
%TO.C,R39*%
G36*
G01*
X214675000Y-67326500D02*
X214675000Y-67801500D01*
G75*
G02*
X214437500Y-68039000I-237500J0D01*
G01*
X213862500Y-68039000D01*
G75*
G02*
X213625000Y-67801500I0J237500D01*
G01*
X213625000Y-67326500D01*
G75*
G02*
X213862500Y-67089000I237500J0D01*
G01*
X214437500Y-67089000D01*
G75*
G02*
X214675000Y-67326500I0J-237500D01*
G01*
G37*
G36*
G01*
X216425000Y-67326500D02*
X216425000Y-67801500D01*
G75*
G02*
X216187500Y-68039000I-237500J0D01*
G01*
X215612500Y-68039000D01*
G75*
G02*
X215375000Y-67801500I0J237500D01*
G01*
X215375000Y-67326500D01*
G75*
G02*
X215612500Y-67089000I237500J0D01*
G01*
X216187500Y-67089000D01*
G75*
G02*
X216425000Y-67326500I0J-237500D01*
G01*
G37*
%TD*%
%TO.C,R38*%
G36*
G01*
X215662500Y-63370000D02*
X216137500Y-63370000D01*
G75*
G02*
X216375000Y-63607500I0J-237500D01*
G01*
X216375000Y-64182500D01*
G75*
G02*
X216137500Y-64420000I-237500J0D01*
G01*
X215662500Y-64420000D01*
G75*
G02*
X215425000Y-64182500I0J237500D01*
G01*
X215425000Y-63607500D01*
G75*
G02*
X215662500Y-63370000I237500J0D01*
G01*
G37*
G36*
G01*
X215662500Y-65120000D02*
X216137500Y-65120000D01*
G75*
G02*
X216375000Y-65357500I0J-237500D01*
G01*
X216375000Y-65932500D01*
G75*
G02*
X216137500Y-66170000I-237500J0D01*
G01*
X215662500Y-66170000D01*
G75*
G02*
X215425000Y-65932500I0J237500D01*
G01*
X215425000Y-65357500D01*
G75*
G02*
X215662500Y-65120000I237500J0D01*
G01*
G37*
%TD*%
%TO.C,R37*%
G36*
G01*
X187661000Y-52815500D02*
X187661000Y-52340500D01*
G75*
G02*
X187898500Y-52103000I237500J0D01*
G01*
X188473500Y-52103000D01*
G75*
G02*
X188711000Y-52340500I0J-237500D01*
G01*
X188711000Y-52815500D01*
G75*
G02*
X188473500Y-53053000I-237500J0D01*
G01*
X187898500Y-53053000D01*
G75*
G02*
X187661000Y-52815500I0J237500D01*
G01*
G37*
G36*
G01*
X185911000Y-52815500D02*
X185911000Y-52340500D01*
G75*
G02*
X186148500Y-52103000I237500J0D01*
G01*
X186723500Y-52103000D01*
G75*
G02*
X186961000Y-52340500I0J-237500D01*
G01*
X186961000Y-52815500D01*
G75*
G02*
X186723500Y-53053000I-237500J0D01*
G01*
X186148500Y-53053000D01*
G75*
G02*
X185911000Y-52815500I0J237500D01*
G01*
G37*
%TD*%
%TO.C,R36*%
G36*
G01*
X128667500Y-35769000D02*
X129142500Y-35769000D01*
G75*
G02*
X129380000Y-36006500I0J-237500D01*
G01*
X129380000Y-36581500D01*
G75*
G02*
X129142500Y-36819000I-237500J0D01*
G01*
X128667500Y-36819000D01*
G75*
G02*
X128430000Y-36581500I0J237500D01*
G01*
X128430000Y-36006500D01*
G75*
G02*
X128667500Y-35769000I237500J0D01*
G01*
G37*
G36*
G01*
X128667500Y-34019000D02*
X129142500Y-34019000D01*
G75*
G02*
X129380000Y-34256500I0J-237500D01*
G01*
X129380000Y-34831500D01*
G75*
G02*
X129142500Y-35069000I-237500J0D01*
G01*
X128667500Y-35069000D01*
G75*
G02*
X128430000Y-34831500I0J237500D01*
G01*
X128430000Y-34256500D01*
G75*
G02*
X128667500Y-34019000I237500J0D01*
G01*
G37*
%TD*%
D17*
%TO.C,Q5*%
X75318000Y-53594000D03*
X77978000Y-52944000D03*
X77978000Y-54244000D03*
%TD*%
%TO.C,F1*%
G36*
G01*
X176465001Y-63615000D02*
X171514999Y-63615000D01*
G75*
G02*
X171265000Y-63365001I0J249999D01*
G01*
X171265000Y-61939999D01*
G75*
G02*
X171514999Y-61690000I249999J0D01*
G01*
X176465001Y-61690000D01*
G75*
G02*
X176715000Y-61939999I0J-249999D01*
G01*
X176715000Y-63365001D01*
G75*
G02*
X176465001Y-63615000I-249999J0D01*
G01*
G37*
G36*
G01*
X176465001Y-70390000D02*
X171514999Y-70390000D01*
G75*
G02*
X171265000Y-70140001I0J249999D01*
G01*
X171265000Y-68714999D01*
G75*
G02*
X171514999Y-68465000I249999J0D01*
G01*
X176465001Y-68465000D01*
G75*
G02*
X176715000Y-68714999I0J-249999D01*
G01*
X176715000Y-70140001D01*
G75*
G02*
X176465001Y-70390000I-249999J0D01*
G01*
G37*
%TD*%
%TO.C,D26*%
G36*
G01*
X66056500Y-33511000D02*
X66531500Y-33511000D01*
G75*
G02*
X66769000Y-33748500I0J-237500D01*
G01*
X66769000Y-34323500D01*
G75*
G02*
X66531500Y-34561000I-237500J0D01*
G01*
X66056500Y-34561000D01*
G75*
G02*
X65819000Y-34323500I0J237500D01*
G01*
X65819000Y-33748500D01*
G75*
G02*
X66056500Y-33511000I237500J0D01*
G01*
G37*
G36*
G01*
X66056500Y-31761000D02*
X66531500Y-31761000D01*
G75*
G02*
X66769000Y-31998500I0J-237500D01*
G01*
X66769000Y-32573500D01*
G75*
G02*
X66531500Y-32811000I-237500J0D01*
G01*
X66056500Y-32811000D01*
G75*
G02*
X65819000Y-32573500I0J237500D01*
G01*
X65819000Y-31998500D01*
G75*
G02*
X66056500Y-31761000I237500J0D01*
G01*
G37*
%TD*%
%TO.C,D25*%
G36*
G01*
X62754500Y-33511000D02*
X63229500Y-33511000D01*
G75*
G02*
X63467000Y-33748500I0J-237500D01*
G01*
X63467000Y-34323500D01*
G75*
G02*
X63229500Y-34561000I-237500J0D01*
G01*
X62754500Y-34561000D01*
G75*
G02*
X62517000Y-34323500I0J237500D01*
G01*
X62517000Y-33748500D01*
G75*
G02*
X62754500Y-33511000I237500J0D01*
G01*
G37*
G36*
G01*
X62754500Y-31761000D02*
X63229500Y-31761000D01*
G75*
G02*
X63467000Y-31998500I0J-237500D01*
G01*
X63467000Y-32573500D01*
G75*
G02*
X63229500Y-32811000I-237500J0D01*
G01*
X62754500Y-32811000D01*
G75*
G02*
X62517000Y-32573500I0J237500D01*
G01*
X62517000Y-31998500D01*
G75*
G02*
X62754500Y-31761000I237500J0D01*
G01*
G37*
%TD*%
%TO.C,D24*%
G36*
G01*
X59452500Y-33511000D02*
X59927500Y-33511000D01*
G75*
G02*
X60165000Y-33748500I0J-237500D01*
G01*
X60165000Y-34323500D01*
G75*
G02*
X59927500Y-34561000I-237500J0D01*
G01*
X59452500Y-34561000D01*
G75*
G02*
X59215000Y-34323500I0J237500D01*
G01*
X59215000Y-33748500D01*
G75*
G02*
X59452500Y-33511000I237500J0D01*
G01*
G37*
G36*
G01*
X59452500Y-31761000D02*
X59927500Y-31761000D01*
G75*
G02*
X60165000Y-31998500I0J-237500D01*
G01*
X60165000Y-32573500D01*
G75*
G02*
X59927500Y-32811000I-237500J0D01*
G01*
X59452500Y-32811000D01*
G75*
G02*
X59215000Y-32573500I0J237500D01*
G01*
X59215000Y-31998500D01*
G75*
G02*
X59452500Y-31761000I237500J0D01*
G01*
G37*
%TD*%
%TO.C,D23*%
G36*
G01*
X56150500Y-33511000D02*
X56625500Y-33511000D01*
G75*
G02*
X56863000Y-33748500I0J-237500D01*
G01*
X56863000Y-34323500D01*
G75*
G02*
X56625500Y-34561000I-237500J0D01*
G01*
X56150500Y-34561000D01*
G75*
G02*
X55913000Y-34323500I0J237500D01*
G01*
X55913000Y-33748500D01*
G75*
G02*
X56150500Y-33511000I237500J0D01*
G01*
G37*
G36*
G01*
X56150500Y-31761000D02*
X56625500Y-31761000D01*
G75*
G02*
X56863000Y-31998500I0J-237500D01*
G01*
X56863000Y-32573500D01*
G75*
G02*
X56625500Y-32811000I-237500J0D01*
G01*
X56150500Y-32811000D01*
G75*
G02*
X55913000Y-32573500I0J237500D01*
G01*
X55913000Y-31998500D01*
G75*
G02*
X56150500Y-31761000I237500J0D01*
G01*
G37*
%TD*%
%TO.C,D22*%
G36*
G01*
X52848500Y-33511000D02*
X53323500Y-33511000D01*
G75*
G02*
X53561000Y-33748500I0J-237500D01*
G01*
X53561000Y-34323500D01*
G75*
G02*
X53323500Y-34561000I-237500J0D01*
G01*
X52848500Y-34561000D01*
G75*
G02*
X52611000Y-34323500I0J237500D01*
G01*
X52611000Y-33748500D01*
G75*
G02*
X52848500Y-33511000I237500J0D01*
G01*
G37*
G36*
G01*
X52848500Y-31761000D02*
X53323500Y-31761000D01*
G75*
G02*
X53561000Y-31998500I0J-237500D01*
G01*
X53561000Y-32573500D01*
G75*
G02*
X53323500Y-32811000I-237500J0D01*
G01*
X52848500Y-32811000D01*
G75*
G02*
X52611000Y-32573500I0J237500D01*
G01*
X52611000Y-31998500D01*
G75*
G02*
X52848500Y-31761000I237500J0D01*
G01*
G37*
%TD*%
%TO.C,D21*%
G36*
G01*
X49546500Y-31761000D02*
X50021500Y-31761000D01*
G75*
G02*
X50259000Y-31998500I0J-237500D01*
G01*
X50259000Y-32573500D01*
G75*
G02*
X50021500Y-32811000I-237500J0D01*
G01*
X49546500Y-32811000D01*
G75*
G02*
X49309000Y-32573500I0J237500D01*
G01*
X49309000Y-31998500D01*
G75*
G02*
X49546500Y-31761000I237500J0D01*
G01*
G37*
G36*
G01*
X49546500Y-33511000D02*
X50021500Y-33511000D01*
G75*
G02*
X50259000Y-33748500I0J-237500D01*
G01*
X50259000Y-34323500D01*
G75*
G02*
X50021500Y-34561000I-237500J0D01*
G01*
X49546500Y-34561000D01*
G75*
G02*
X49309000Y-34323500I0J237500D01*
G01*
X49309000Y-33748500D01*
G75*
G02*
X49546500Y-33511000I237500J0D01*
G01*
G37*
%TD*%
%TO.C,D20*%
G36*
G01*
X148860500Y-54311000D02*
X149335500Y-54311000D01*
G75*
G02*
X149573000Y-54548500I0J-237500D01*
G01*
X149573000Y-55123500D01*
G75*
G02*
X149335500Y-55361000I-237500J0D01*
G01*
X148860500Y-55361000D01*
G75*
G02*
X148623000Y-55123500I0J237500D01*
G01*
X148623000Y-54548500D01*
G75*
G02*
X148860500Y-54311000I237500J0D01*
G01*
G37*
G36*
G01*
X148860500Y-52561000D02*
X149335500Y-52561000D01*
G75*
G02*
X149573000Y-52798500I0J-237500D01*
G01*
X149573000Y-53373500D01*
G75*
G02*
X149335500Y-53611000I-237500J0D01*
G01*
X148860500Y-53611000D01*
G75*
G02*
X148623000Y-53373500I0J237500D01*
G01*
X148623000Y-52798500D01*
G75*
G02*
X148860500Y-52561000I237500J0D01*
G01*
G37*
%TD*%
%TO.C,D18*%
G36*
G01*
X79485500Y-38117000D02*
X79010500Y-38117000D01*
G75*
G02*
X78773000Y-37879500I0J237500D01*
G01*
X78773000Y-37304500D01*
G75*
G02*
X79010500Y-37067000I237500J0D01*
G01*
X79485500Y-37067000D01*
G75*
G02*
X79723000Y-37304500I0J-237500D01*
G01*
X79723000Y-37879500D01*
G75*
G02*
X79485500Y-38117000I-237500J0D01*
G01*
G37*
G36*
G01*
X79485500Y-36367000D02*
X79010500Y-36367000D01*
G75*
G02*
X78773000Y-36129500I0J237500D01*
G01*
X78773000Y-35554500D01*
G75*
G02*
X79010500Y-35317000I237500J0D01*
G01*
X79485500Y-35317000D01*
G75*
G02*
X79723000Y-35554500I0J-237500D01*
G01*
X79723000Y-36129500D01*
G75*
G02*
X79485500Y-36367000I-237500J0D01*
G01*
G37*
%TD*%
%TO.C,D17*%
G36*
G01*
X190545000Y-52340500D02*
X190545000Y-52815500D01*
G75*
G02*
X190307500Y-53053000I-237500J0D01*
G01*
X189732500Y-53053000D01*
G75*
G02*
X189495000Y-52815500I0J237500D01*
G01*
X189495000Y-52340500D01*
G75*
G02*
X189732500Y-52103000I237500J0D01*
G01*
X190307500Y-52103000D01*
G75*
G02*
X190545000Y-52340500I0J-237500D01*
G01*
G37*
G36*
G01*
X192295000Y-52340500D02*
X192295000Y-52815500D01*
G75*
G02*
X192057500Y-53053000I-237500J0D01*
G01*
X191482500Y-53053000D01*
G75*
G02*
X191245000Y-52815500I0J237500D01*
G01*
X191245000Y-52340500D01*
G75*
G02*
X191482500Y-52103000I237500J0D01*
G01*
X192057500Y-52103000D01*
G75*
G02*
X192295000Y-52340500I0J-237500D01*
G01*
G37*
%TD*%
D18*
%TO.C,B1*%
X77978000Y-60198000D03*
X77978000Y-72798000D03*
%TD*%
%TO.C,C10*%
G36*
G01*
X170417000Y-80247500D02*
X170417000Y-79772500D01*
G75*
G02*
X170654500Y-79535000I237500J0D01*
G01*
X171229500Y-79535000D01*
G75*
G02*
X171467000Y-79772500I0J-237500D01*
G01*
X171467000Y-80247500D01*
G75*
G02*
X171229500Y-80485000I-237500J0D01*
G01*
X170654500Y-80485000D01*
G75*
G02*
X170417000Y-80247500I0J237500D01*
G01*
G37*
G36*
G01*
X172167000Y-80247500D02*
X172167000Y-79772500D01*
G75*
G02*
X172404500Y-79535000I237500J0D01*
G01*
X172979500Y-79535000D01*
G75*
G02*
X173217000Y-79772500I0J-237500D01*
G01*
X173217000Y-80247500D01*
G75*
G02*
X172979500Y-80485000I-237500J0D01*
G01*
X172404500Y-80485000D01*
G75*
G02*
X172167000Y-80247500I0J237500D01*
G01*
G37*
%TD*%
%TO.C,C12*%
G36*
G01*
X172167000Y-83295500D02*
X172167000Y-82820500D01*
G75*
G02*
X172404500Y-82583000I237500J0D01*
G01*
X172979500Y-82583000D01*
G75*
G02*
X173217000Y-82820500I0J-237500D01*
G01*
X173217000Y-83295500D01*
G75*
G02*
X172979500Y-83533000I-237500J0D01*
G01*
X172404500Y-83533000D01*
G75*
G02*
X172167000Y-83295500I0J237500D01*
G01*
G37*
G36*
G01*
X170417000Y-83295500D02*
X170417000Y-82820500D01*
G75*
G02*
X170654500Y-82583000I237500J0D01*
G01*
X171229500Y-82583000D01*
G75*
G02*
X171467000Y-82820500I0J-237500D01*
G01*
X171467000Y-83295500D01*
G75*
G02*
X171229500Y-83533000I-237500J0D01*
G01*
X170654500Y-83533000D01*
G75*
G02*
X170417000Y-83295500I0J237500D01*
G01*
G37*
%TD*%
%TO.C,C13*%
G36*
G01*
X170417000Y-86343500D02*
X170417000Y-85868500D01*
G75*
G02*
X170654500Y-85631000I237500J0D01*
G01*
X171229500Y-85631000D01*
G75*
G02*
X171467000Y-85868500I0J-237500D01*
G01*
X171467000Y-86343500D01*
G75*
G02*
X171229500Y-86581000I-237500J0D01*
G01*
X170654500Y-86581000D01*
G75*
G02*
X170417000Y-86343500I0J237500D01*
G01*
G37*
G36*
G01*
X172167000Y-86343500D02*
X172167000Y-85868500D01*
G75*
G02*
X172404500Y-85631000I237500J0D01*
G01*
X172979500Y-85631000D01*
G75*
G02*
X173217000Y-85868500I0J-237500D01*
G01*
X173217000Y-86343500D01*
G75*
G02*
X172979500Y-86581000I-237500J0D01*
G01*
X172404500Y-86581000D01*
G75*
G02*
X172167000Y-86343500I0J237500D01*
G01*
G37*
%TD*%
%TO.C,C14*%
G36*
G01*
X172167000Y-89391500D02*
X172167000Y-88916500D01*
G75*
G02*
X172404500Y-88679000I237500J0D01*
G01*
X172979500Y-88679000D01*
G75*
G02*
X173217000Y-88916500I0J-237500D01*
G01*
X173217000Y-89391500D01*
G75*
G02*
X172979500Y-89629000I-237500J0D01*
G01*
X172404500Y-89629000D01*
G75*
G02*
X172167000Y-89391500I0J237500D01*
G01*
G37*
G36*
G01*
X170417000Y-89391500D02*
X170417000Y-88916500D01*
G75*
G02*
X170654500Y-88679000I237500J0D01*
G01*
X171229500Y-88679000D01*
G75*
G02*
X171467000Y-88916500I0J-237500D01*
G01*
X171467000Y-89391500D01*
G75*
G02*
X171229500Y-89629000I-237500J0D01*
G01*
X170654500Y-89629000D01*
G75*
G02*
X170417000Y-89391500I0J237500D01*
G01*
G37*
%TD*%
%TO.C,C15*%
G36*
G01*
X170417000Y-92439500D02*
X170417000Y-91964500D01*
G75*
G02*
X170654500Y-91727000I237500J0D01*
G01*
X171229500Y-91727000D01*
G75*
G02*
X171467000Y-91964500I0J-237500D01*
G01*
X171467000Y-92439500D01*
G75*
G02*
X171229500Y-92677000I-237500J0D01*
G01*
X170654500Y-92677000D01*
G75*
G02*
X170417000Y-92439500I0J237500D01*
G01*
G37*
G36*
G01*
X172167000Y-92439500D02*
X172167000Y-91964500D01*
G75*
G02*
X172404500Y-91727000I237500J0D01*
G01*
X172979500Y-91727000D01*
G75*
G02*
X173217000Y-91964500I0J-237500D01*
G01*
X173217000Y-92439500D01*
G75*
G02*
X172979500Y-92677000I-237500J0D01*
G01*
X172404500Y-92677000D01*
G75*
G02*
X172167000Y-92439500I0J237500D01*
G01*
G37*
%TD*%
%TO.C,C17*%
G36*
G01*
X188197000Y-80247500D02*
X188197000Y-79772500D01*
G75*
G02*
X188434500Y-79535000I237500J0D01*
G01*
X189009500Y-79535000D01*
G75*
G02*
X189247000Y-79772500I0J-237500D01*
G01*
X189247000Y-80247500D01*
G75*
G02*
X189009500Y-80485000I-237500J0D01*
G01*
X188434500Y-80485000D01*
G75*
G02*
X188197000Y-80247500I0J237500D01*
G01*
G37*
G36*
G01*
X189947000Y-80247500D02*
X189947000Y-79772500D01*
G75*
G02*
X190184500Y-79535000I237500J0D01*
G01*
X190759500Y-79535000D01*
G75*
G02*
X190997000Y-79772500I0J-237500D01*
G01*
X190997000Y-80247500D01*
G75*
G02*
X190759500Y-80485000I-237500J0D01*
G01*
X190184500Y-80485000D01*
G75*
G02*
X189947000Y-80247500I0J237500D01*
G01*
G37*
%TD*%
%TO.C,C18*%
G36*
G01*
X189947000Y-83295500D02*
X189947000Y-82820500D01*
G75*
G02*
X190184500Y-82583000I237500J0D01*
G01*
X190759500Y-82583000D01*
G75*
G02*
X190997000Y-82820500I0J-237500D01*
G01*
X190997000Y-83295500D01*
G75*
G02*
X190759500Y-83533000I-237500J0D01*
G01*
X190184500Y-83533000D01*
G75*
G02*
X189947000Y-83295500I0J237500D01*
G01*
G37*
G36*
G01*
X188197000Y-83295500D02*
X188197000Y-82820500D01*
G75*
G02*
X188434500Y-82583000I237500J0D01*
G01*
X189009500Y-82583000D01*
G75*
G02*
X189247000Y-82820500I0J-237500D01*
G01*
X189247000Y-83295500D01*
G75*
G02*
X189009500Y-83533000I-237500J0D01*
G01*
X188434500Y-83533000D01*
G75*
G02*
X188197000Y-83295500I0J237500D01*
G01*
G37*
%TD*%
%TO.C,C19*%
G36*
G01*
X188197000Y-86343500D02*
X188197000Y-85868500D01*
G75*
G02*
X188434500Y-85631000I237500J0D01*
G01*
X189009500Y-85631000D01*
G75*
G02*
X189247000Y-85868500I0J-237500D01*
G01*
X189247000Y-86343500D01*
G75*
G02*
X189009500Y-86581000I-237500J0D01*
G01*
X188434500Y-86581000D01*
G75*
G02*
X188197000Y-86343500I0J237500D01*
G01*
G37*
G36*
G01*
X189947000Y-86343500D02*
X189947000Y-85868500D01*
G75*
G02*
X190184500Y-85631000I237500J0D01*
G01*
X190759500Y-85631000D01*
G75*
G02*
X190997000Y-85868500I0J-237500D01*
G01*
X190997000Y-86343500D01*
G75*
G02*
X190759500Y-86581000I-237500J0D01*
G01*
X190184500Y-86581000D01*
G75*
G02*
X189947000Y-86343500I0J237500D01*
G01*
G37*
%TD*%
%TO.C,C20*%
G36*
G01*
X189947000Y-89391500D02*
X189947000Y-88916500D01*
G75*
G02*
X190184500Y-88679000I237500J0D01*
G01*
X190759500Y-88679000D01*
G75*
G02*
X190997000Y-88916500I0J-237500D01*
G01*
X190997000Y-89391500D01*
G75*
G02*
X190759500Y-89629000I-237500J0D01*
G01*
X190184500Y-89629000D01*
G75*
G02*
X189947000Y-89391500I0J237500D01*
G01*
G37*
G36*
G01*
X188197000Y-89391500D02*
X188197000Y-88916500D01*
G75*
G02*
X188434500Y-88679000I237500J0D01*
G01*
X189009500Y-88679000D01*
G75*
G02*
X189247000Y-88916500I0J-237500D01*
G01*
X189247000Y-89391500D01*
G75*
G02*
X189009500Y-89629000I-237500J0D01*
G01*
X188434500Y-89629000D01*
G75*
G02*
X188197000Y-89391500I0J237500D01*
G01*
G37*
%TD*%
%TO.C,C21*%
G36*
G01*
X189947000Y-92439500D02*
X189947000Y-91964500D01*
G75*
G02*
X190184500Y-91727000I237500J0D01*
G01*
X190759500Y-91727000D01*
G75*
G02*
X190997000Y-91964500I0J-237500D01*
G01*
X190997000Y-92439500D01*
G75*
G02*
X190759500Y-92677000I-237500J0D01*
G01*
X190184500Y-92677000D01*
G75*
G02*
X189947000Y-92439500I0J237500D01*
G01*
G37*
G36*
G01*
X188197000Y-92439500D02*
X188197000Y-91964500D01*
G75*
G02*
X188434500Y-91727000I237500J0D01*
G01*
X189009500Y-91727000D01*
G75*
G02*
X189247000Y-91964500I0J-237500D01*
G01*
X189247000Y-92439500D01*
G75*
G02*
X189009500Y-92677000I-237500J0D01*
G01*
X188434500Y-92677000D01*
G75*
G02*
X188197000Y-92439500I0J237500D01*
G01*
G37*
%TD*%
%TO.C,C1*%
G36*
G01*
X106917500Y-48785000D02*
X106442500Y-48785000D01*
G75*
G02*
X106205000Y-48547500I0J237500D01*
G01*
X106205000Y-47972500D01*
G75*
G02*
X106442500Y-47735000I237500J0D01*
G01*
X106917500Y-47735000D01*
G75*
G02*
X107155000Y-47972500I0J-237500D01*
G01*
X107155000Y-48547500D01*
G75*
G02*
X106917500Y-48785000I-237500J0D01*
G01*
G37*
G36*
G01*
X106917500Y-50535000D02*
X106442500Y-50535000D01*
G75*
G02*
X106205000Y-50297500I0J237500D01*
G01*
X106205000Y-49722500D01*
G75*
G02*
X106442500Y-49485000I237500J0D01*
G01*
X106917500Y-49485000D01*
G75*
G02*
X107155000Y-49722500I0J-237500D01*
G01*
X107155000Y-50297500D01*
G75*
G02*
X106917500Y-50535000I-237500J0D01*
G01*
G37*
%TD*%
%TO.C,C2*%
G36*
G01*
X100567500Y-48785000D02*
X100092500Y-48785000D01*
G75*
G02*
X99855000Y-48547500I0J237500D01*
G01*
X99855000Y-47972500D01*
G75*
G02*
X100092500Y-47735000I237500J0D01*
G01*
X100567500Y-47735000D01*
G75*
G02*
X100805000Y-47972500I0J-237500D01*
G01*
X100805000Y-48547500D01*
G75*
G02*
X100567500Y-48785000I-237500J0D01*
G01*
G37*
G36*
G01*
X100567500Y-50535000D02*
X100092500Y-50535000D01*
G75*
G02*
X99855000Y-50297500I0J237500D01*
G01*
X99855000Y-49722500D01*
G75*
G02*
X100092500Y-49485000I237500J0D01*
G01*
X100567500Y-49485000D01*
G75*
G02*
X100805000Y-49722500I0J-237500D01*
G01*
X100805000Y-50297500D01*
G75*
G02*
X100567500Y-50535000I-237500J0D01*
G01*
G37*
%TD*%
%TO.C,C3*%
G36*
G01*
X96757500Y-50535000D02*
X96282500Y-50535000D01*
G75*
G02*
X96045000Y-50297500I0J237500D01*
G01*
X96045000Y-49722500D01*
G75*
G02*
X96282500Y-49485000I237500J0D01*
G01*
X96757500Y-49485000D01*
G75*
G02*
X96995000Y-49722500I0J-237500D01*
G01*
X96995000Y-50297500D01*
G75*
G02*
X96757500Y-50535000I-237500J0D01*
G01*
G37*
G36*
G01*
X96757500Y-48785000D02*
X96282500Y-48785000D01*
G75*
G02*
X96045000Y-48547500I0J237500D01*
G01*
X96045000Y-47972500D01*
G75*
G02*
X96282500Y-47735000I237500J0D01*
G01*
X96757500Y-47735000D01*
G75*
G02*
X96995000Y-47972500I0J-237500D01*
G01*
X96995000Y-48547500D01*
G75*
G02*
X96757500Y-48785000I-237500J0D01*
G01*
G37*
%TD*%
%TO.C,C4*%
G36*
G01*
X92947500Y-48785000D02*
X92472500Y-48785000D01*
G75*
G02*
X92235000Y-48547500I0J237500D01*
G01*
X92235000Y-47972500D01*
G75*
G02*
X92472500Y-47735000I237500J0D01*
G01*
X92947500Y-47735000D01*
G75*
G02*
X93185000Y-47972500I0J-237500D01*
G01*
X93185000Y-48547500D01*
G75*
G02*
X92947500Y-48785000I-237500J0D01*
G01*
G37*
G36*
G01*
X92947500Y-50535000D02*
X92472500Y-50535000D01*
G75*
G02*
X92235000Y-50297500I0J237500D01*
G01*
X92235000Y-49722500D01*
G75*
G02*
X92472500Y-49485000I237500J0D01*
G01*
X92947500Y-49485000D01*
G75*
G02*
X93185000Y-49722500I0J-237500D01*
G01*
X93185000Y-50297500D01*
G75*
G02*
X92947500Y-50535000I-237500J0D01*
G01*
G37*
%TD*%
%TO.C,C5*%
G36*
G01*
X89932500Y-42175000D02*
X90407500Y-42175000D01*
G75*
G02*
X90645000Y-42412500I0J-237500D01*
G01*
X90645000Y-42987500D01*
G75*
G02*
X90407500Y-43225000I-237500J0D01*
G01*
X89932500Y-43225000D01*
G75*
G02*
X89695000Y-42987500I0J237500D01*
G01*
X89695000Y-42412500D01*
G75*
G02*
X89932500Y-42175000I237500J0D01*
G01*
G37*
G36*
G01*
X89932500Y-43925000D02*
X90407500Y-43925000D01*
G75*
G02*
X90645000Y-44162500I0J-237500D01*
G01*
X90645000Y-44737500D01*
G75*
G02*
X90407500Y-44975000I-237500J0D01*
G01*
X89932500Y-44975000D01*
G75*
G02*
X89695000Y-44737500I0J237500D01*
G01*
X89695000Y-44162500D01*
G75*
G02*
X89932500Y-43925000I237500J0D01*
G01*
G37*
%TD*%
%TO.C,C6*%
G36*
G01*
X116602500Y-42175000D02*
X117077500Y-42175000D01*
G75*
G02*
X117315000Y-42412500I0J-237500D01*
G01*
X117315000Y-42987500D01*
G75*
G02*
X117077500Y-43225000I-237500J0D01*
G01*
X116602500Y-43225000D01*
G75*
G02*
X116365000Y-42987500I0J237500D01*
G01*
X116365000Y-42412500D01*
G75*
G02*
X116602500Y-42175000I237500J0D01*
G01*
G37*
G36*
G01*
X116602500Y-43925000D02*
X117077500Y-43925000D01*
G75*
G02*
X117315000Y-44162500I0J-237500D01*
G01*
X117315000Y-44737500D01*
G75*
G02*
X117077500Y-44975000I-237500J0D01*
G01*
X116602500Y-44975000D01*
G75*
G02*
X116365000Y-44737500I0J237500D01*
G01*
X116365000Y-44162500D01*
G75*
G02*
X116602500Y-43925000I237500J0D01*
G01*
G37*
%TD*%
%TO.C,C7*%
G36*
G01*
X114537500Y-48785000D02*
X114062500Y-48785000D01*
G75*
G02*
X113825000Y-48547500I0J237500D01*
G01*
X113825000Y-47972500D01*
G75*
G02*
X114062500Y-47735000I237500J0D01*
G01*
X114537500Y-47735000D01*
G75*
G02*
X114775000Y-47972500I0J-237500D01*
G01*
X114775000Y-48547500D01*
G75*
G02*
X114537500Y-48785000I-237500J0D01*
G01*
G37*
G36*
G01*
X114537500Y-50535000D02*
X114062500Y-50535000D01*
G75*
G02*
X113825000Y-50297500I0J237500D01*
G01*
X113825000Y-49722500D01*
G75*
G02*
X114062500Y-49485000I237500J0D01*
G01*
X114537500Y-49485000D01*
G75*
G02*
X114775000Y-49722500I0J-237500D01*
G01*
X114775000Y-50297500D01*
G75*
G02*
X114537500Y-50535000I-237500J0D01*
G01*
G37*
%TD*%
%TO.C,C8*%
G36*
G01*
X110727500Y-50535000D02*
X110252500Y-50535000D01*
G75*
G02*
X110015000Y-50297500I0J237500D01*
G01*
X110015000Y-49722500D01*
G75*
G02*
X110252500Y-49485000I237500J0D01*
G01*
X110727500Y-49485000D01*
G75*
G02*
X110965000Y-49722500I0J-237500D01*
G01*
X110965000Y-50297500D01*
G75*
G02*
X110727500Y-50535000I-237500J0D01*
G01*
G37*
G36*
G01*
X110727500Y-48785000D02*
X110252500Y-48785000D01*
G75*
G02*
X110015000Y-48547500I0J237500D01*
G01*
X110015000Y-47972500D01*
G75*
G02*
X110252500Y-47735000I237500J0D01*
G01*
X110727500Y-47735000D01*
G75*
G02*
X110965000Y-47972500I0J-237500D01*
G01*
X110965000Y-48547500D01*
G75*
G02*
X110727500Y-48785000I-237500J0D01*
G01*
G37*
%TD*%
D11*
%TO.C,D1*%
X102870000Y-44450000D03*
X104063800Y-44450000D03*
%TD*%
%TO.C,D2*%
X101523800Y-41910000D03*
X100330000Y-41910000D03*
%TD*%
%TO.C,D3*%
X97790000Y-44450000D03*
X98983800Y-44450000D03*
%TD*%
%TO.C,D5*%
X106603800Y-41910000D03*
X105410000Y-41910000D03*
%TD*%
%TO.C,D6*%
G36*
G01*
X112285000Y-89932500D02*
X112285000Y-90407500D01*
G75*
G02*
X112047500Y-90645000I-237500J0D01*
G01*
X111472500Y-90645000D01*
G75*
G02*
X111235000Y-90407500I0J237500D01*
G01*
X111235000Y-89932500D01*
G75*
G02*
X111472500Y-89695000I237500J0D01*
G01*
X112047500Y-89695000D01*
G75*
G02*
X112285000Y-89932500I0J-237500D01*
G01*
G37*
G36*
G01*
X110535000Y-89932500D02*
X110535000Y-90407500D01*
G75*
G02*
X110297500Y-90645000I-237500J0D01*
G01*
X109722500Y-90645000D01*
G75*
G02*
X109485000Y-90407500I0J237500D01*
G01*
X109485000Y-89932500D01*
G75*
G02*
X109722500Y-89695000I237500J0D01*
G01*
X110297500Y-89695000D01*
G75*
G02*
X110535000Y-89932500I0J-237500D01*
G01*
G37*
%TD*%
%TO.C,D7*%
G36*
G01*
X100375000Y-95012500D02*
X100375000Y-95487500D01*
G75*
G02*
X100137500Y-95725000I-237500J0D01*
G01*
X99562500Y-95725000D01*
G75*
G02*
X99325000Y-95487500I0J237500D01*
G01*
X99325000Y-95012500D01*
G75*
G02*
X99562500Y-94775000I237500J0D01*
G01*
X100137500Y-94775000D01*
G75*
G02*
X100375000Y-95012500I0J-237500D01*
G01*
G37*
G36*
G01*
X102125000Y-95012500D02*
X102125000Y-95487500D01*
G75*
G02*
X101887500Y-95725000I-237500J0D01*
G01*
X101312500Y-95725000D01*
G75*
G02*
X101075000Y-95487500I0J237500D01*
G01*
X101075000Y-95012500D01*
G75*
G02*
X101312500Y-94775000I237500J0D01*
G01*
X101887500Y-94775000D01*
G75*
G02*
X102125000Y-95012500I0J-237500D01*
G01*
G37*
%TD*%
%TO.C,D8*%
G36*
G01*
X97045000Y-97552500D02*
X97045000Y-98027500D01*
G75*
G02*
X96807500Y-98265000I-237500J0D01*
G01*
X96232500Y-98265000D01*
G75*
G02*
X95995000Y-98027500I0J237500D01*
G01*
X95995000Y-97552500D01*
G75*
G02*
X96232500Y-97315000I237500J0D01*
G01*
X96807500Y-97315000D01*
G75*
G02*
X97045000Y-97552500I0J-237500D01*
G01*
G37*
G36*
G01*
X95295000Y-97552500D02*
X95295000Y-98027500D01*
G75*
G02*
X95057500Y-98265000I-237500J0D01*
G01*
X94482500Y-98265000D01*
G75*
G02*
X94245000Y-98027500I0J237500D01*
G01*
X94245000Y-97552500D01*
G75*
G02*
X94482500Y-97315000I237500J0D01*
G01*
X95057500Y-97315000D01*
G75*
G02*
X95295000Y-97552500I0J-237500D01*
G01*
G37*
%TD*%
%TO.C,D9*%
G36*
G01*
X105455000Y-92472500D02*
X105455000Y-92947500D01*
G75*
G02*
X105217500Y-93185000I-237500J0D01*
G01*
X104642500Y-93185000D01*
G75*
G02*
X104405000Y-92947500I0J237500D01*
G01*
X104405000Y-92472500D01*
G75*
G02*
X104642500Y-92235000I237500J0D01*
G01*
X105217500Y-92235000D01*
G75*
G02*
X105455000Y-92472500I0J-237500D01*
G01*
G37*
G36*
G01*
X107205000Y-92472500D02*
X107205000Y-92947500D01*
G75*
G02*
X106967500Y-93185000I-237500J0D01*
G01*
X106392500Y-93185000D01*
G75*
G02*
X106155000Y-92947500I0J237500D01*
G01*
X106155000Y-92472500D01*
G75*
G02*
X106392500Y-92235000I237500J0D01*
G01*
X106967500Y-92235000D01*
G75*
G02*
X107205000Y-92472500I0J-237500D01*
G01*
G37*
%TD*%
%TO.C,D10*%
G36*
G01*
X90215000Y-100092500D02*
X90215000Y-100567500D01*
G75*
G02*
X89977500Y-100805000I-237500J0D01*
G01*
X89402500Y-100805000D01*
G75*
G02*
X89165000Y-100567500I0J237500D01*
G01*
X89165000Y-100092500D01*
G75*
G02*
X89402500Y-99855000I237500J0D01*
G01*
X89977500Y-99855000D01*
G75*
G02*
X90215000Y-100092500I0J-237500D01*
G01*
G37*
G36*
G01*
X91965000Y-100092500D02*
X91965000Y-100567500D01*
G75*
G02*
X91727500Y-100805000I-237500J0D01*
G01*
X91152500Y-100805000D01*
G75*
G02*
X90915000Y-100567500I0J237500D01*
G01*
X90915000Y-100092500D01*
G75*
G02*
X91152500Y-99855000I237500J0D01*
G01*
X91727500Y-99855000D01*
G75*
G02*
X91965000Y-100092500I0J-237500D01*
G01*
G37*
%TD*%
%TO.C,D13*%
G36*
G01*
X157590000Y-89137500D02*
X157590000Y-88662500D01*
G75*
G02*
X157827500Y-88425000I237500J0D01*
G01*
X158402500Y-88425000D01*
G75*
G02*
X158640000Y-88662500I0J-237500D01*
G01*
X158640000Y-89137500D01*
G75*
G02*
X158402500Y-89375000I-237500J0D01*
G01*
X157827500Y-89375000D01*
G75*
G02*
X157590000Y-89137500I0J237500D01*
G01*
G37*
G36*
G01*
X159340000Y-89137500D02*
X159340000Y-88662500D01*
G75*
G02*
X159577500Y-88425000I237500J0D01*
G01*
X160152500Y-88425000D01*
G75*
G02*
X160390000Y-88662500I0J-237500D01*
G01*
X160390000Y-89137500D01*
G75*
G02*
X160152500Y-89375000I-237500J0D01*
G01*
X159577500Y-89375000D01*
G75*
G02*
X159340000Y-89137500I0J237500D01*
G01*
G37*
%TD*%
%TO.C,D14*%
G36*
G01*
X156800000Y-95487500D02*
X156800000Y-95012500D01*
G75*
G02*
X157037500Y-94775000I237500J0D01*
G01*
X157612500Y-94775000D01*
G75*
G02*
X157850000Y-95012500I0J-237500D01*
G01*
X157850000Y-95487500D01*
G75*
G02*
X157612500Y-95725000I-237500J0D01*
G01*
X157037500Y-95725000D01*
G75*
G02*
X156800000Y-95487500I0J237500D01*
G01*
G37*
G36*
G01*
X155050000Y-95487500D02*
X155050000Y-95012500D01*
G75*
G02*
X155287500Y-94775000I237500J0D01*
G01*
X155862500Y-94775000D01*
G75*
G02*
X156100000Y-95012500I0J-237500D01*
G01*
X156100000Y-95487500D01*
G75*
G02*
X155862500Y-95725000I-237500J0D01*
G01*
X155287500Y-95725000D01*
G75*
G02*
X155050000Y-95487500I0J237500D01*
G01*
G37*
%TD*%
%TO.C,D15*%
G36*
G01*
X128287000Y-82566500D02*
X128287000Y-83041500D01*
G75*
G02*
X128049500Y-83279000I-237500J0D01*
G01*
X127474500Y-83279000D01*
G75*
G02*
X127237000Y-83041500I0J237500D01*
G01*
X127237000Y-82566500D01*
G75*
G02*
X127474500Y-82329000I237500J0D01*
G01*
X128049500Y-82329000D01*
G75*
G02*
X128287000Y-82566500I0J-237500D01*
G01*
G37*
G36*
G01*
X126537000Y-82566500D02*
X126537000Y-83041500D01*
G75*
G02*
X126299500Y-83279000I-237500J0D01*
G01*
X125724500Y-83279000D01*
G75*
G02*
X125487000Y-83041500I0J237500D01*
G01*
X125487000Y-82566500D01*
G75*
G02*
X125724500Y-82329000I237500J0D01*
G01*
X126299500Y-82329000D01*
G75*
G02*
X126537000Y-82566500I0J-237500D01*
G01*
G37*
%TD*%
%TO.C,R1*%
G36*
G01*
X119905000Y-72152500D02*
X119905000Y-72627500D01*
G75*
G02*
X119667500Y-72865000I-237500J0D01*
G01*
X119092500Y-72865000D01*
G75*
G02*
X118855000Y-72627500I0J237500D01*
G01*
X118855000Y-72152500D01*
G75*
G02*
X119092500Y-71915000I237500J0D01*
G01*
X119667500Y-71915000D01*
G75*
G02*
X119905000Y-72152500I0J-237500D01*
G01*
G37*
G36*
G01*
X118155000Y-72152500D02*
X118155000Y-72627500D01*
G75*
G02*
X117917500Y-72865000I-237500J0D01*
G01*
X117342500Y-72865000D01*
G75*
G02*
X117105000Y-72627500I0J237500D01*
G01*
X117105000Y-72152500D01*
G75*
G02*
X117342500Y-71915000I237500J0D01*
G01*
X117917500Y-71915000D01*
G75*
G02*
X118155000Y-72152500I0J-237500D01*
G01*
G37*
%TD*%
%TO.C,R2*%
G36*
G01*
X125775000Y-70882500D02*
X125775000Y-71357500D01*
G75*
G02*
X125537500Y-71595000I-237500J0D01*
G01*
X124962500Y-71595000D01*
G75*
G02*
X124725000Y-71357500I0J237500D01*
G01*
X124725000Y-70882500D01*
G75*
G02*
X124962500Y-70645000I237500J0D01*
G01*
X125537500Y-70645000D01*
G75*
G02*
X125775000Y-70882500I0J-237500D01*
G01*
G37*
G36*
G01*
X127525000Y-70882500D02*
X127525000Y-71357500D01*
G75*
G02*
X127287500Y-71595000I-237500J0D01*
G01*
X126712500Y-71595000D01*
G75*
G02*
X126475000Y-71357500I0J237500D01*
G01*
X126475000Y-70882500D01*
G75*
G02*
X126712500Y-70645000I237500J0D01*
G01*
X127287500Y-70645000D01*
G75*
G02*
X127525000Y-70882500I0J-237500D01*
G01*
G37*
%TD*%
%TO.C,R3*%
G36*
G01*
X118065000Y-62467500D02*
X118065000Y-61992500D01*
G75*
G02*
X118302500Y-61755000I237500J0D01*
G01*
X118877500Y-61755000D01*
G75*
G02*
X119115000Y-61992500I0J-237500D01*
G01*
X119115000Y-62467500D01*
G75*
G02*
X118877500Y-62705000I-237500J0D01*
G01*
X118302500Y-62705000D01*
G75*
G02*
X118065000Y-62467500I0J237500D01*
G01*
G37*
G36*
G01*
X116315000Y-62467500D02*
X116315000Y-61992500D01*
G75*
G02*
X116552500Y-61755000I237500J0D01*
G01*
X117127500Y-61755000D01*
G75*
G02*
X117365000Y-61992500I0J-237500D01*
G01*
X117365000Y-62467500D01*
G75*
G02*
X117127500Y-62705000I-237500J0D01*
G01*
X116552500Y-62705000D01*
G75*
G02*
X116315000Y-62467500I0J237500D01*
G01*
G37*
%TD*%
%TO.C,R4*%
G36*
G01*
X108695000Y-61197500D02*
X108695000Y-60722500D01*
G75*
G02*
X108932500Y-60485000I237500J0D01*
G01*
X109507500Y-60485000D01*
G75*
G02*
X109745000Y-60722500I0J-237500D01*
G01*
X109745000Y-61197500D01*
G75*
G02*
X109507500Y-61435000I-237500J0D01*
G01*
X108932500Y-61435000D01*
G75*
G02*
X108695000Y-61197500I0J237500D01*
G01*
G37*
G36*
G01*
X110445000Y-61197500D02*
X110445000Y-60722500D01*
G75*
G02*
X110682500Y-60485000I237500J0D01*
G01*
X111257500Y-60485000D01*
G75*
G02*
X111495000Y-60722500I0J-237500D01*
G01*
X111495000Y-61197500D01*
G75*
G02*
X111257500Y-61435000I-237500J0D01*
G01*
X110682500Y-61435000D01*
G75*
G02*
X110445000Y-61197500I0J237500D01*
G01*
G37*
%TD*%
%TO.C,R5*%
G36*
G01*
X118065000Y-65007500D02*
X118065000Y-64532500D01*
G75*
G02*
X118302500Y-64295000I237500J0D01*
G01*
X118877500Y-64295000D01*
G75*
G02*
X119115000Y-64532500I0J-237500D01*
G01*
X119115000Y-65007500D01*
G75*
G02*
X118877500Y-65245000I-237500J0D01*
G01*
X118302500Y-65245000D01*
G75*
G02*
X118065000Y-65007500I0J237500D01*
G01*
G37*
G36*
G01*
X116315000Y-65007500D02*
X116315000Y-64532500D01*
G75*
G02*
X116552500Y-64295000I237500J0D01*
G01*
X117127500Y-64295000D01*
G75*
G02*
X117365000Y-64532500I0J-237500D01*
G01*
X117365000Y-65007500D01*
G75*
G02*
X117127500Y-65245000I-237500J0D01*
G01*
X116552500Y-65245000D01*
G75*
G02*
X116315000Y-65007500I0J237500D01*
G01*
G37*
%TD*%
%TO.C,R6*%
G36*
G01*
X108695000Y-66277500D02*
X108695000Y-65802500D01*
G75*
G02*
X108932500Y-65565000I237500J0D01*
G01*
X109507500Y-65565000D01*
G75*
G02*
X109745000Y-65802500I0J-237500D01*
G01*
X109745000Y-66277500D01*
G75*
G02*
X109507500Y-66515000I-237500J0D01*
G01*
X108932500Y-66515000D01*
G75*
G02*
X108695000Y-66277500I0J237500D01*
G01*
G37*
G36*
G01*
X110445000Y-66277500D02*
X110445000Y-65802500D01*
G75*
G02*
X110682500Y-65565000I237500J0D01*
G01*
X111257500Y-65565000D01*
G75*
G02*
X111495000Y-65802500I0J-237500D01*
G01*
X111495000Y-66277500D01*
G75*
G02*
X111257500Y-66515000I-237500J0D01*
G01*
X110682500Y-66515000D01*
G75*
G02*
X110445000Y-66277500I0J237500D01*
G01*
G37*
%TD*%
%TO.C,R7*%
G36*
G01*
X86597500Y-62755000D02*
X86122500Y-62755000D01*
G75*
G02*
X85885000Y-62517500I0J237500D01*
G01*
X85885000Y-61942500D01*
G75*
G02*
X86122500Y-61705000I237500J0D01*
G01*
X86597500Y-61705000D01*
G75*
G02*
X86835000Y-61942500I0J-237500D01*
G01*
X86835000Y-62517500D01*
G75*
G02*
X86597500Y-62755000I-237500J0D01*
G01*
G37*
G36*
G01*
X86597500Y-61005000D02*
X86122500Y-61005000D01*
G75*
G02*
X85885000Y-60767500I0J237500D01*
G01*
X85885000Y-60192500D01*
G75*
G02*
X86122500Y-59955000I237500J0D01*
G01*
X86597500Y-59955000D01*
G75*
G02*
X86835000Y-60192500I0J-237500D01*
G01*
X86835000Y-60767500D01*
G75*
G02*
X86597500Y-61005000I-237500J0D01*
G01*
G37*
%TD*%
%TO.C,R8*%
G36*
G01*
X91965000Y-65802500D02*
X91965000Y-66277500D01*
G75*
G02*
X91727500Y-66515000I-237500J0D01*
G01*
X91152500Y-66515000D01*
G75*
G02*
X90915000Y-66277500I0J237500D01*
G01*
X90915000Y-65802500D01*
G75*
G02*
X91152500Y-65565000I237500J0D01*
G01*
X91727500Y-65565000D01*
G75*
G02*
X91965000Y-65802500I0J-237500D01*
G01*
G37*
G36*
G01*
X90215000Y-65802500D02*
X90215000Y-66277500D01*
G75*
G02*
X89977500Y-66515000I-237500J0D01*
G01*
X89402500Y-66515000D01*
G75*
G02*
X89165000Y-66277500I0J237500D01*
G01*
X89165000Y-65802500D01*
G75*
G02*
X89402500Y-65565000I237500J0D01*
G01*
X89977500Y-65565000D01*
G75*
G02*
X90215000Y-65802500I0J-237500D01*
G01*
G37*
%TD*%
%TO.C,R9*%
G36*
G01*
X90407500Y-50535000D02*
X89932500Y-50535000D01*
G75*
G02*
X89695000Y-50297500I0J237500D01*
G01*
X89695000Y-49722500D01*
G75*
G02*
X89932500Y-49485000I237500J0D01*
G01*
X90407500Y-49485000D01*
G75*
G02*
X90645000Y-49722500I0J-237500D01*
G01*
X90645000Y-50297500D01*
G75*
G02*
X90407500Y-50535000I-237500J0D01*
G01*
G37*
G36*
G01*
X90407500Y-48785000D02*
X89932500Y-48785000D01*
G75*
G02*
X89695000Y-48547500I0J237500D01*
G01*
X89695000Y-47972500D01*
G75*
G02*
X89932500Y-47735000I237500J0D01*
G01*
X90407500Y-47735000D01*
G75*
G02*
X90645000Y-47972500I0J-237500D01*
G01*
X90645000Y-48547500D01*
G75*
G02*
X90407500Y-48785000I-237500J0D01*
G01*
G37*
%TD*%
%TO.C,R10*%
G36*
G01*
X86405000Y-51832500D02*
X86405000Y-52307500D01*
G75*
G02*
X86167500Y-52545000I-237500J0D01*
G01*
X85592500Y-52545000D01*
G75*
G02*
X85355000Y-52307500I0J237500D01*
G01*
X85355000Y-51832500D01*
G75*
G02*
X85592500Y-51595000I237500J0D01*
G01*
X86167500Y-51595000D01*
G75*
G02*
X86405000Y-51832500I0J-237500D01*
G01*
G37*
G36*
G01*
X88155000Y-51832500D02*
X88155000Y-52307500D01*
G75*
G02*
X87917500Y-52545000I-237500J0D01*
G01*
X87342500Y-52545000D01*
G75*
G02*
X87105000Y-52307500I0J237500D01*
G01*
X87105000Y-51832500D01*
G75*
G02*
X87342500Y-51595000I237500J0D01*
G01*
X87917500Y-51595000D01*
G75*
G02*
X88155000Y-51832500I0J-237500D01*
G01*
G37*
%TD*%
%TO.C,R11*%
G36*
G01*
X121682500Y-69325000D02*
X122157500Y-69325000D01*
G75*
G02*
X122395000Y-69562500I0J-237500D01*
G01*
X122395000Y-70137500D01*
G75*
G02*
X122157500Y-70375000I-237500J0D01*
G01*
X121682500Y-70375000D01*
G75*
G02*
X121445000Y-70137500I0J237500D01*
G01*
X121445000Y-69562500D01*
G75*
G02*
X121682500Y-69325000I237500J0D01*
G01*
G37*
G36*
G01*
X121682500Y-67575000D02*
X122157500Y-67575000D01*
G75*
G02*
X122395000Y-67812500I0J-237500D01*
G01*
X122395000Y-68387500D01*
G75*
G02*
X122157500Y-68625000I-237500J0D01*
G01*
X121682500Y-68625000D01*
G75*
G02*
X121445000Y-68387500I0J237500D01*
G01*
X121445000Y-67812500D01*
G75*
G02*
X121682500Y-67575000I237500J0D01*
G01*
G37*
%TD*%
%TO.C,R12*%
G36*
G01*
X114062500Y-57415000D02*
X114537500Y-57415000D01*
G75*
G02*
X114775000Y-57652500I0J-237500D01*
G01*
X114775000Y-58227500D01*
G75*
G02*
X114537500Y-58465000I-237500J0D01*
G01*
X114062500Y-58465000D01*
G75*
G02*
X113825000Y-58227500I0J237500D01*
G01*
X113825000Y-57652500D01*
G75*
G02*
X114062500Y-57415000I237500J0D01*
G01*
G37*
G36*
G01*
X114062500Y-59165000D02*
X114537500Y-59165000D01*
G75*
G02*
X114775000Y-59402500I0J-237500D01*
G01*
X114775000Y-59977500D01*
G75*
G02*
X114537500Y-60215000I-237500J0D01*
G01*
X114062500Y-60215000D01*
G75*
G02*
X113825000Y-59977500I0J237500D01*
G01*
X113825000Y-59402500D01*
G75*
G02*
X114062500Y-59165000I237500J0D01*
G01*
G37*
%TD*%
%TO.C,R13*%
G36*
G01*
X114537500Y-69585000D02*
X114062500Y-69585000D01*
G75*
G02*
X113825000Y-69347500I0J237500D01*
G01*
X113825000Y-68772500D01*
G75*
G02*
X114062500Y-68535000I237500J0D01*
G01*
X114537500Y-68535000D01*
G75*
G02*
X114775000Y-68772500I0J-237500D01*
G01*
X114775000Y-69347500D01*
G75*
G02*
X114537500Y-69585000I-237500J0D01*
G01*
G37*
G36*
G01*
X114537500Y-67835000D02*
X114062500Y-67835000D01*
G75*
G02*
X113825000Y-67597500I0J237500D01*
G01*
X113825000Y-67022500D01*
G75*
G02*
X114062500Y-66785000I237500J0D01*
G01*
X114537500Y-66785000D01*
G75*
G02*
X114775000Y-67022500I0J-237500D01*
G01*
X114775000Y-67597500D01*
G75*
G02*
X114537500Y-67835000I-237500J0D01*
G01*
G37*
%TD*%
%TO.C,R14*%
G36*
G01*
X86597500Y-67835000D02*
X86122500Y-67835000D01*
G75*
G02*
X85885000Y-67597500I0J237500D01*
G01*
X85885000Y-67022500D01*
G75*
G02*
X86122500Y-66785000I237500J0D01*
G01*
X86597500Y-66785000D01*
G75*
G02*
X86835000Y-67022500I0J-237500D01*
G01*
X86835000Y-67597500D01*
G75*
G02*
X86597500Y-67835000I-237500J0D01*
G01*
G37*
G36*
G01*
X86597500Y-69585000D02*
X86122500Y-69585000D01*
G75*
G02*
X85885000Y-69347500I0J237500D01*
G01*
X85885000Y-68772500D01*
G75*
G02*
X86122500Y-68535000I237500J0D01*
G01*
X86597500Y-68535000D01*
G75*
G02*
X86835000Y-68772500I0J-237500D01*
G01*
X86835000Y-69347500D01*
G75*
G02*
X86597500Y-69585000I-237500J0D01*
G01*
G37*
%TD*%
%TO.C,R15*%
G36*
G01*
X129302500Y-66305000D02*
X129777500Y-66305000D01*
G75*
G02*
X130015000Y-66542500I0J-237500D01*
G01*
X130015000Y-67117500D01*
G75*
G02*
X129777500Y-67355000I-237500J0D01*
G01*
X129302500Y-67355000D01*
G75*
G02*
X129065000Y-67117500I0J237500D01*
G01*
X129065000Y-66542500D01*
G75*
G02*
X129302500Y-66305000I237500J0D01*
G01*
G37*
G36*
G01*
X129302500Y-68055000D02*
X129777500Y-68055000D01*
G75*
G02*
X130015000Y-68292500I0J-237500D01*
G01*
X130015000Y-68867500D01*
G75*
G02*
X129777500Y-69105000I-237500J0D01*
G01*
X129302500Y-69105000D01*
G75*
G02*
X129065000Y-68867500I0J237500D01*
G01*
X129065000Y-68292500D01*
G75*
G02*
X129302500Y-68055000I237500J0D01*
G01*
G37*
%TD*%
%TO.C,R16*%
G36*
G01*
X106442500Y-57895000D02*
X106917500Y-57895000D01*
G75*
G02*
X107155000Y-58132500I0J-237500D01*
G01*
X107155000Y-58707500D01*
G75*
G02*
X106917500Y-58945000I-237500J0D01*
G01*
X106442500Y-58945000D01*
G75*
G02*
X106205000Y-58707500I0J237500D01*
G01*
X106205000Y-58132500D01*
G75*
G02*
X106442500Y-57895000I237500J0D01*
G01*
G37*
G36*
G01*
X106442500Y-56145000D02*
X106917500Y-56145000D01*
G75*
G02*
X107155000Y-56382500I0J-237500D01*
G01*
X107155000Y-56957500D01*
G75*
G02*
X106917500Y-57195000I-237500J0D01*
G01*
X106442500Y-57195000D01*
G75*
G02*
X106205000Y-56957500I0J237500D01*
G01*
X106205000Y-56382500D01*
G75*
G02*
X106442500Y-56145000I237500J0D01*
G01*
G37*
%TD*%
%TO.C,R17*%
G36*
G01*
X106917500Y-69105000D02*
X106442500Y-69105000D01*
G75*
G02*
X106205000Y-68867500I0J237500D01*
G01*
X106205000Y-68292500D01*
G75*
G02*
X106442500Y-68055000I237500J0D01*
G01*
X106917500Y-68055000D01*
G75*
G02*
X107155000Y-68292500I0J-237500D01*
G01*
X107155000Y-68867500D01*
G75*
G02*
X106917500Y-69105000I-237500J0D01*
G01*
G37*
G36*
G01*
X106917500Y-70855000D02*
X106442500Y-70855000D01*
G75*
G02*
X106205000Y-70617500I0J237500D01*
G01*
X106205000Y-70042500D01*
G75*
G02*
X106442500Y-69805000I237500J0D01*
G01*
X106917500Y-69805000D01*
G75*
G02*
X107155000Y-70042500I0J-237500D01*
G01*
X107155000Y-70617500D01*
G75*
G02*
X106917500Y-70855000I-237500J0D01*
G01*
G37*
%TD*%
%TO.C,R18*%
G36*
G01*
X94217500Y-69105000D02*
X93742500Y-69105000D01*
G75*
G02*
X93505000Y-68867500I0J237500D01*
G01*
X93505000Y-68292500D01*
G75*
G02*
X93742500Y-68055000I237500J0D01*
G01*
X94217500Y-68055000D01*
G75*
G02*
X94455000Y-68292500I0J-237500D01*
G01*
X94455000Y-68867500D01*
G75*
G02*
X94217500Y-69105000I-237500J0D01*
G01*
G37*
G36*
G01*
X94217500Y-70855000D02*
X93742500Y-70855000D01*
G75*
G02*
X93505000Y-70617500I0J237500D01*
G01*
X93505000Y-70042500D01*
G75*
G02*
X93742500Y-69805000I237500J0D01*
G01*
X94217500Y-69805000D01*
G75*
G02*
X94455000Y-70042500I0J-237500D01*
G01*
X94455000Y-70617500D01*
G75*
G02*
X94217500Y-70855000I-237500J0D01*
G01*
G37*
%TD*%
%TO.C,R19*%
G36*
G01*
X150605000Y-72627500D02*
X150605000Y-72152500D01*
G75*
G02*
X150842500Y-71915000I237500J0D01*
G01*
X151417500Y-71915000D01*
G75*
G02*
X151655000Y-72152500I0J-237500D01*
G01*
X151655000Y-72627500D01*
G75*
G02*
X151417500Y-72865000I-237500J0D01*
G01*
X150842500Y-72865000D01*
G75*
G02*
X150605000Y-72627500I0J237500D01*
G01*
G37*
G36*
G01*
X152355000Y-72627500D02*
X152355000Y-72152500D01*
G75*
G02*
X152592500Y-71915000I237500J0D01*
G01*
X153167500Y-71915000D01*
G75*
G02*
X153405000Y-72152500I0J-237500D01*
G01*
X153405000Y-72627500D01*
G75*
G02*
X153167500Y-72865000I-237500J0D01*
G01*
X152592500Y-72865000D01*
G75*
G02*
X152355000Y-72627500I0J237500D01*
G01*
G37*
%TD*%
%TO.C,R21*%
G36*
G01*
X150605000Y-75167500D02*
X150605000Y-74692500D01*
G75*
G02*
X150842500Y-74455000I237500J0D01*
G01*
X151417500Y-74455000D01*
G75*
G02*
X151655000Y-74692500I0J-237500D01*
G01*
X151655000Y-75167500D01*
G75*
G02*
X151417500Y-75405000I-237500J0D01*
G01*
X150842500Y-75405000D01*
G75*
G02*
X150605000Y-75167500I0J237500D01*
G01*
G37*
G36*
G01*
X152355000Y-75167500D02*
X152355000Y-74692500D01*
G75*
G02*
X152592500Y-74455000I237500J0D01*
G01*
X153167500Y-74455000D01*
G75*
G02*
X153405000Y-74692500I0J-237500D01*
G01*
X153405000Y-75167500D01*
G75*
G02*
X153167500Y-75405000I-237500J0D01*
G01*
X152592500Y-75405000D01*
G75*
G02*
X152355000Y-75167500I0J237500D01*
G01*
G37*
%TD*%
%TO.C,R22*%
G36*
G01*
X146005000Y-76437500D02*
X146005000Y-75962500D01*
G75*
G02*
X146242500Y-75725000I237500J0D01*
G01*
X146817500Y-75725000D01*
G75*
G02*
X147055000Y-75962500I0J-237500D01*
G01*
X147055000Y-76437500D01*
G75*
G02*
X146817500Y-76675000I-237500J0D01*
G01*
X146242500Y-76675000D01*
G75*
G02*
X146005000Y-76437500I0J237500D01*
G01*
G37*
G36*
G01*
X144255000Y-76437500D02*
X144255000Y-75962500D01*
G75*
G02*
X144492500Y-75725000I237500J0D01*
G01*
X145067500Y-75725000D01*
G75*
G02*
X145305000Y-75962500I0J-237500D01*
G01*
X145305000Y-76437500D01*
G75*
G02*
X145067500Y-76675000I-237500J0D01*
G01*
X144492500Y-76675000D01*
G75*
G02*
X144255000Y-76437500I0J237500D01*
G01*
G37*
%TD*%
%TO.C,R23*%
G36*
G01*
X119905000Y-74692500D02*
X119905000Y-75167500D01*
G75*
G02*
X119667500Y-75405000I-237500J0D01*
G01*
X119092500Y-75405000D01*
G75*
G02*
X118855000Y-75167500I0J237500D01*
G01*
X118855000Y-74692500D01*
G75*
G02*
X119092500Y-74455000I237500J0D01*
G01*
X119667500Y-74455000D01*
G75*
G02*
X119905000Y-74692500I0J-237500D01*
G01*
G37*
G36*
G01*
X118155000Y-74692500D02*
X118155000Y-75167500D01*
G75*
G02*
X117917500Y-75405000I-237500J0D01*
G01*
X117342500Y-75405000D01*
G75*
G02*
X117105000Y-75167500I0J237500D01*
G01*
X117105000Y-74692500D01*
G75*
G02*
X117342500Y-74455000I237500J0D01*
G01*
X117917500Y-74455000D01*
G75*
G02*
X118155000Y-74692500I0J-237500D01*
G01*
G37*
%TD*%
%TO.C,R24*%
G36*
G01*
X125775000Y-75962500D02*
X125775000Y-76437500D01*
G75*
G02*
X125537500Y-76675000I-237500J0D01*
G01*
X124962500Y-76675000D01*
G75*
G02*
X124725000Y-76437500I0J237500D01*
G01*
X124725000Y-75962500D01*
G75*
G02*
X124962500Y-75725000I237500J0D01*
G01*
X125537500Y-75725000D01*
G75*
G02*
X125775000Y-75962500I0J-237500D01*
G01*
G37*
G36*
G01*
X127525000Y-75962500D02*
X127525000Y-76437500D01*
G75*
G02*
X127287500Y-76675000I-237500J0D01*
G01*
X126712500Y-76675000D01*
G75*
G02*
X126475000Y-76437500I0J237500D01*
G01*
X126475000Y-75962500D01*
G75*
G02*
X126712500Y-75725000I237500J0D01*
G01*
X127287500Y-75725000D01*
G75*
G02*
X127525000Y-75962500I0J-237500D01*
G01*
G37*
%TD*%
%TO.C,R25*%
G36*
G01*
X149622500Y-69325000D02*
X150097500Y-69325000D01*
G75*
G02*
X150335000Y-69562500I0J-237500D01*
G01*
X150335000Y-70137500D01*
G75*
G02*
X150097500Y-70375000I-237500J0D01*
G01*
X149622500Y-70375000D01*
G75*
G02*
X149385000Y-70137500I0J237500D01*
G01*
X149385000Y-69562500D01*
G75*
G02*
X149622500Y-69325000I237500J0D01*
G01*
G37*
G36*
G01*
X149622500Y-67575000D02*
X150097500Y-67575000D01*
G75*
G02*
X150335000Y-67812500I0J-237500D01*
G01*
X150335000Y-68387500D01*
G75*
G02*
X150097500Y-68625000I-237500J0D01*
G01*
X149622500Y-68625000D01*
G75*
G02*
X149385000Y-68387500I0J237500D01*
G01*
X149385000Y-67812500D01*
G75*
G02*
X149622500Y-67575000I237500J0D01*
G01*
G37*
%TD*%
%TO.C,R26*%
G36*
G01*
X150097500Y-77995000D02*
X149622500Y-77995000D01*
G75*
G02*
X149385000Y-77757500I0J237500D01*
G01*
X149385000Y-77182500D01*
G75*
G02*
X149622500Y-76945000I237500J0D01*
G01*
X150097500Y-76945000D01*
G75*
G02*
X150335000Y-77182500I0J-237500D01*
G01*
X150335000Y-77757500D01*
G75*
G02*
X150097500Y-77995000I-237500J0D01*
G01*
G37*
G36*
G01*
X150097500Y-79745000D02*
X149622500Y-79745000D01*
G75*
G02*
X149385000Y-79507500I0J237500D01*
G01*
X149385000Y-78932500D01*
G75*
G02*
X149622500Y-78695000I237500J0D01*
G01*
X150097500Y-78695000D01*
G75*
G02*
X150335000Y-78932500I0J-237500D01*
G01*
X150335000Y-79507500D01*
G75*
G02*
X150097500Y-79745000I-237500J0D01*
G01*
G37*
%TD*%
%TO.C,R27*%
G36*
G01*
X122157500Y-79745000D02*
X121682500Y-79745000D01*
G75*
G02*
X121445000Y-79507500I0J237500D01*
G01*
X121445000Y-78932500D01*
G75*
G02*
X121682500Y-78695000I237500J0D01*
G01*
X122157500Y-78695000D01*
G75*
G02*
X122395000Y-78932500I0J-237500D01*
G01*
X122395000Y-79507500D01*
G75*
G02*
X122157500Y-79745000I-237500J0D01*
G01*
G37*
G36*
G01*
X122157500Y-77995000D02*
X121682500Y-77995000D01*
G75*
G02*
X121445000Y-77757500I0J237500D01*
G01*
X121445000Y-77182500D01*
G75*
G02*
X121682500Y-76945000I237500J0D01*
G01*
X122157500Y-76945000D01*
G75*
G02*
X122395000Y-77182500I0J-237500D01*
G01*
X122395000Y-77757500D01*
G75*
G02*
X122157500Y-77995000I-237500J0D01*
G01*
G37*
%TD*%
%TO.C,R28*%
G36*
G01*
X142002500Y-66305000D02*
X142477500Y-66305000D01*
G75*
G02*
X142715000Y-66542500I0J-237500D01*
G01*
X142715000Y-67117500D01*
G75*
G02*
X142477500Y-67355000I-237500J0D01*
G01*
X142002500Y-67355000D01*
G75*
G02*
X141765000Y-67117500I0J237500D01*
G01*
X141765000Y-66542500D01*
G75*
G02*
X142002500Y-66305000I237500J0D01*
G01*
G37*
G36*
G01*
X142002500Y-68055000D02*
X142477500Y-68055000D01*
G75*
G02*
X142715000Y-68292500I0J-237500D01*
G01*
X142715000Y-68867500D01*
G75*
G02*
X142477500Y-69105000I-237500J0D01*
G01*
X142002500Y-69105000D01*
G75*
G02*
X141765000Y-68867500I0J237500D01*
G01*
X141765000Y-68292500D01*
G75*
G02*
X142002500Y-68055000I237500J0D01*
G01*
G37*
%TD*%
%TO.C,R29*%
G36*
G01*
X142477500Y-81015000D02*
X142002500Y-81015000D01*
G75*
G02*
X141765000Y-80777500I0J237500D01*
G01*
X141765000Y-80202500D01*
G75*
G02*
X142002500Y-79965000I237500J0D01*
G01*
X142477500Y-79965000D01*
G75*
G02*
X142715000Y-80202500I0J-237500D01*
G01*
X142715000Y-80777500D01*
G75*
G02*
X142477500Y-81015000I-237500J0D01*
G01*
G37*
G36*
G01*
X142477500Y-79265000D02*
X142002500Y-79265000D01*
G75*
G02*
X141765000Y-79027500I0J237500D01*
G01*
X141765000Y-78452500D01*
G75*
G02*
X142002500Y-78215000I237500J0D01*
G01*
X142477500Y-78215000D01*
G75*
G02*
X142715000Y-78452500I0J-237500D01*
G01*
X142715000Y-79027500D01*
G75*
G02*
X142477500Y-79265000I-237500J0D01*
G01*
G37*
%TD*%
%TO.C,R30*%
G36*
G01*
X129777500Y-81015000D02*
X129302500Y-81015000D01*
G75*
G02*
X129065000Y-80777500I0J237500D01*
G01*
X129065000Y-80202500D01*
G75*
G02*
X129302500Y-79965000I237500J0D01*
G01*
X129777500Y-79965000D01*
G75*
G02*
X130015000Y-80202500I0J-237500D01*
G01*
X130015000Y-80777500D01*
G75*
G02*
X129777500Y-81015000I-237500J0D01*
G01*
G37*
G36*
G01*
X129777500Y-79265000D02*
X129302500Y-79265000D01*
G75*
G02*
X129065000Y-79027500I0J237500D01*
G01*
X129065000Y-78452500D01*
G75*
G02*
X129302500Y-78215000I237500J0D01*
G01*
X129777500Y-78215000D01*
G75*
G02*
X130015000Y-78452500I0J-237500D01*
G01*
X130015000Y-79027500D01*
G75*
G02*
X129777500Y-79265000I-237500J0D01*
G01*
G37*
%TD*%
M02*
