M48
;DRILL file {KiCad (5.0.0)} date 12/16/18 00:32:50
;FORMAT={-:-/ absolute / inch / decimal}
FMAT,2
INCH,TZ
T1C0.0157
T2C0.0257
T3C0.0300
T4C0.0315
T5C0.0350
T6C0.0354
T7C0.0400
T8C0.0800
T9C0.1616
T10C0.3600
%
G90
G05
M72
T1
X1.69Y-2.21
X1.69Y-3.34
X1.69Y-4.97
X1.9Y-3.6
X1.9Y-3.75
X1.9Y-3.95
X1.9Y-4.2
X1.9Y-4.4
X2.1Y-2.8
X2.1425Y-3.1925
X2.15Y-4.8
X2.2Y-3.5
X2.33Y-3.34
X2.4Y-4.8
X2.45Y-3.5
X2.65Y-3.5
X2.7Y-4.5
X2.7Y-4.8
X2.8Y-2.3
X2.87Y-4.685
X2.87Y-5.06
X2.9Y-3.5
X2.9Y-3.8
X2.91Y-5.
X2.9425Y-4.589
X2.9775Y-2.51
X2.9775Y-3.105
X3.075Y-4.62
X3.08Y-2.7925
X3.08Y-2.92
X3.1Y-2.7
X3.1Y-3.5
X3.1Y-3.7
X3.1Y-4.5
X3.15Y-4.8
X3.21Y-4.39
X3.2825Y-2.5775
X3.2825Y-3.615
X3.345Y-2.5575
X3.345Y-3.3425
X3.4Y-2.3
X3.4Y-3.1
X3.43Y-4.62
X3.4775Y-2.525
X3.4775Y-2.91
X3.535Y-3.4075
X3.58Y-2.58
X3.58Y-2.91
X3.6Y-3.85
X3.6Y-4.35
X3.6325Y-4.015
X3.6356Y-4.0919
X3.65Y-2.7
X3.68Y-3.09
X3.7625Y-3.9025
X3.7975Y-2.8225
X3.7975Y-3.6845
X3.81Y-4.5075
X3.83Y-3.3
X3.83Y-3.47
X3.84Y-2.45
X3.84Y-2.9225
X3.8675Y-3.8761
X3.8675Y-4.231
X3.8675Y-4.605
X3.87Y-3.51
X3.91Y-3.7025
X3.9425Y-3.3289
X3.98Y-2.4811
X3.98Y-2.8525
X3.98Y-3.475
X3.98Y-3.84
X3.98Y-4.2
X3.98Y-4.555
X4.03Y-2.1189
X4.03Y-2.53
X4.03Y-2.71
X4.03Y-4.09
X4.08Y-3.395
X4.0875Y-4.465
X4.1Y-3.1
X4.1025Y-3.77
X4.1075Y-4.1625
X4.1075Y-4.5294
X4.205Y-2.48
X4.214Y-4.922
X4.3Y-3.1
X4.3Y-4.95
X4.31Y-4.725
X4.3175Y-4.8
X4.32Y-3.97
X4.35Y-2.7
X4.36Y-3.59
X4.37Y-4.36
X4.4025Y-4.765
X4.5Y-3.1
X4.55Y-2.45
X4.55Y-2.7
X4.67Y-4.38
X4.675Y-4.725
X4.68Y-3.6
X4.68Y-3.97
X4.68Y-4.04
X4.7Y-3.1
X4.7675Y-4.32
X4.82Y-2.23
X4.8375Y-3.2525
X4.85Y-3.89
X4.85Y-4.28
X4.87Y-3.29
X4.87Y-3.495
X4.8875Y-2.78
X4.89Y-3.54
X4.895Y-4.525
X4.895Y-4.57
X4.935Y-3.95
X4.96Y-2.23
X4.995Y-4.54
X5.Y-4.1225
X5.03Y-3.88
X5.05Y-4.65
X5.06Y-3.56
X5.075Y-3.695
X5.08Y-2.234
X5.08Y-3.41
X5.09Y-3.33
X5.1Y-4.5
X5.1325Y-3.99
X5.18Y-4.82
X5.2Y-3.1
X5.2Y-4.35
X5.225Y-4.635
X5.23Y-4.89
X5.285Y-3.925
X5.29Y-3.6
X5.2913Y-4.2537
X5.295Y-3.285
X5.375Y-4.425
X5.375Y-4.48
X5.42Y-2.97
X5.53Y-4.62
X5.53Y-4.7975
X5.53Y-5.0625
X5.55Y-4.35
X5.595Y-3.935
X5.7Y-3.1
X5.725Y-3.335
X5.8675Y-4.1275
X5.878Y-4.2
X5.878Y-4.61
X5.8925Y-3.47
X5.9Y-3.35
X5.9Y-3.8
X5.9Y-4.8
X5.9775Y-3.8725
X5.978Y-4.612
X6.01Y-3.103
X6.0275Y-3.4525
X6.03Y-3.7645
X6.03Y-4.09
X6.03Y-4.53
X6.03Y-4.9975
X6.05Y-3.35
X6.08Y-3.5375
X6.08Y-4.61
X6.11Y-3.1
X6.15Y-2.89
X6.2Y-3.6
X6.2Y-3.9
X6.2Y-4.3
X6.21Y-3.096
X6.25Y-3.35
X6.25Y-4.8
X6.335Y-3.404
X6.335Y-3.73
X6.3375Y-4.3975
X6.38Y-3.65
X6.38Y-4.57
X6.3875Y-3.55
X6.4Y-2.605
X6.415Y-3.715
X6.415Y-4.48
X6.45Y-4.53
X6.4825Y-2.9025
X6.485Y-3.6
X6.5Y-2.7
X6.602Y-4.184
X6.65Y-2.7
X6.675Y-3.35
X6.68Y-3.09
X6.7Y-4.9
X6.74Y-2.875
X6.8Y-2.7
X6.825Y-3.225
X6.9Y-3.35
X6.9Y-4.
X6.95Y-2.7
X6.952Y-4.584
X6.9525Y-5.0611
X6.975Y-2.875
X7.Y-3.225
X7.015Y-2.975
X7.075Y-3.35
X7.1Y-2.7
X7.1Y-4.65
X7.1Y-4.9
X7.15Y-3.225
X7.15Y-4.
X7.25Y-3.35
X7.325Y-3.225
X7.35Y-2.7
X7.35Y-3.6
X7.4Y-2.95
X7.425Y-2.845
X7.45Y-4.9
X7.56Y-4.75
X7.6Y-2.7
X7.6Y-2.85
X7.6Y-3.15
X7.6Y-3.35
X7.65Y-3.55
X7.65Y-3.7
X7.65Y-3.85
X7.65Y-4.05
X7.8Y-3.55
X7.8Y-4.9
X7.8775Y-4.65
X7.95Y-3.55
X7.95Y-4.1
X8.1Y-4.85
X8.175Y-5.03
X8.2Y-2.5
X8.4Y-4.4
X8.4Y-4.55
X8.4Y-4.7
X8.4Y-4.85
X8.4Y-5.
X8.5Y-2.35
X8.5Y-2.5
X8.5Y-2.65
X8.5Y-2.8
X8.5Y-2.95
X8.5Y-3.1
X8.5Y-3.25
X8.5Y-3.35
X8.55Y-3.65
X8.55Y-3.8
X8.55Y-3.95
X8.55Y-4.1
X8.55Y-4.25
X8.55Y-4.4
X8.55Y-5.
X8.65Y-2.35
X8.65Y-3.35
X8.7Y-3.65
X8.7Y-5.
X8.8Y-2.35
X8.8Y-3.35
X8.85Y-3.65
X8.85Y-5.
X8.95Y-3.35
X9.Y-5.
X9.1Y-3.35
X9.15Y-5.
X9.25Y-3.35
X9.3Y-5.
X9.4Y-3.35
X9.45Y-5.
X9.55Y-3.35
X9.55Y-3.65
X9.6Y-2.4
X9.6Y-2.55
X9.6Y-2.7
X9.6Y-2.85
X9.6Y-3.
X9.6Y-3.15
X9.6Y-3.3
X9.6Y-5.
X9.65Y-3.75
X9.75Y-3.85
X9.75Y-4.
X9.75Y-4.15
X9.75Y-4.3
X9.75Y-4.45
X9.75Y-4.6
X9.75Y-5.
T2
X6.94Y-3.485
X7.01Y-3.485
X7.09Y-3.485
T3
X6.4Y-2.33
X6.4Y-2.33
X6.5Y-2.33
X6.6Y-2.33
X6.7Y-2.33
X5.35Y-2.335
X5.45Y-2.335
X5.55Y-2.335
X5.65Y-2.335
X5.75Y-2.335
X5.85Y-2.335
X5.95Y-2.335
X6.05Y-2.335
X6.15Y-2.335
X1.838Y-3.032
X1.938Y-3.032
X2.43Y-2.65
X2.53Y-2.65
X1.84Y-2.335
X1.94Y-2.335
X5.35Y-2.64
X5.45Y-2.64
X5.55Y-2.64
X5.65Y-2.64
X5.75Y-2.64
X5.85Y-2.64
X5.95Y-2.64
X6.05Y-2.64
X6.15Y-2.64
X1.84Y-2.65
X1.94Y-2.65
X2.43Y-3.03
X2.53Y-3.03
X3.04Y-2.335
X3.14Y-2.335
X3.24Y-2.335
X4.175Y-2.335
X4.275Y-2.335
X4.375Y-2.335
X2.345Y-2.33
X2.345Y-2.33
X2.445Y-2.33
X2.545Y-2.33
X2.645Y-2.33
T4
X7.2875Y-3.84
X7.3859Y-3.84
X6.6316Y-3.8425
X6.73Y-3.8425
T5
X7.285Y-4.185
X7.385Y-4.185
X7.485Y-4.185
X6.602Y-4.184
X6.702Y-4.184
X6.802Y-4.184
T6
X8.0248Y-4.6213
X8.1Y-4.6213
X8.1752Y-4.6213
T7
X6.335Y-4.05
T9
X6.965Y-2.3125
X7.275Y-2.3125
T10
X9.16Y-3.965
X2.36Y-3.965
X9.16Y-2.59
T8
X7.825Y-3.775G85X7.975Y-3.775
G05
X8.225Y-3.775G85X8.375Y-3.775
G05
T0
M30
