G75*
%MOIN*%
%OFA0B0*%
%FSLAX24Y24*%
%IPPOS*%
%LPD*%
%AMOC8*
5,1,8,0,0,1.08239X$1,22.5*
%
%ADD10C,0.2580*%
%ADD11C,0.0674*%
%ADD12C,0.0820*%
%ADD13C,0.0671*%
%ADD14R,0.3623X0.2442*%
%ADD15C,0.0477*%
%ADD16C,0.7280*%
%ADD17C,0.2620*%
%ADD18R,0.0595X0.0595*%
%ADD19R,0.1580X0.1580*%
%ADD20R,0.0907X0.0907*%
%ADD21R,0.0820X0.0820*%
%ADD22C,0.0680*%
%ADD23R,0.0316X0.0867*%
%ADD24C,0.0780*%
%ADD25R,0.0789X0.0710*%
%ADD26C,0.0395*%
%ADD27R,0.0634X0.0634*%
%ADD28OC8,0.0634*%
%ADD29C,0.0634*%
%ADD30C,0.0820*%
%ADD31C,0.1340*%
%ADD32R,0.1025X0.1025*%
%ADD33C,0.0437*%
%ADD34C,0.0611*%
%ADD35C,0.0730*%
%ADD36C,0.0476*%
%ADD37C,0.0848*%
%ADD38C,0.0555*%
%ADD39R,0.0476X0.0476*%
D10*
X073100Y022125D03*
X073100Y058125D03*
D11*
X054100Y058328D02*
X054100Y058922D01*
X053100Y058922D02*
X053100Y058328D01*
X052100Y058328D02*
X052100Y058922D01*
X051100Y058922D02*
X051100Y058328D01*
X050100Y058328D02*
X050100Y058922D01*
X049100Y058922D02*
X049100Y058328D01*
X048100Y058328D02*
X048100Y058922D01*
X047100Y058922D02*
X047100Y058328D01*
X046100Y058328D02*
X046100Y058922D01*
X046100Y055922D02*
X046100Y055328D01*
X047100Y055328D02*
X047100Y055922D01*
X048100Y055922D02*
X048100Y055328D01*
X049100Y055328D02*
X049100Y055922D01*
X050100Y055922D02*
X050100Y055328D01*
X051100Y055328D02*
X051100Y055922D01*
X052100Y055922D02*
X052100Y055328D01*
X053100Y055328D02*
X053100Y055922D01*
X054100Y055922D02*
X054100Y055328D01*
X071053Y035625D02*
X071647Y035625D01*
X071647Y034625D02*
X071053Y034625D01*
X071053Y032625D02*
X071647Y032625D01*
X071647Y031625D02*
X071053Y031625D01*
X070647Y029625D02*
X070053Y029625D01*
X070053Y028625D02*
X070647Y028625D01*
X070647Y027625D02*
X070053Y027625D01*
X070053Y026125D02*
X070647Y026125D01*
X070647Y025125D02*
X070053Y025125D01*
X070053Y024125D02*
X070647Y024125D01*
X073303Y024125D02*
X073897Y024125D01*
X073897Y025125D02*
X073303Y025125D01*
X073303Y026125D02*
X073897Y026125D01*
X073897Y027625D02*
X073303Y027625D01*
X073303Y028625D02*
X073897Y028625D01*
X073897Y029625D02*
X073303Y029625D01*
D12*
X074100Y032125D03*
X074100Y034625D03*
X074100Y037125D03*
X071350Y043625D03*
X071350Y044625D03*
X071350Y045625D03*
X070350Y045125D03*
X070350Y046125D03*
X070350Y044125D03*
X070350Y043125D03*
X058100Y051625D03*
X057100Y049625D03*
X056100Y047625D03*
X055100Y045625D03*
X054100Y043625D03*
X053100Y041625D03*
X048100Y043625D03*
X047100Y041625D03*
X043100Y038125D03*
X042100Y038125D03*
X041100Y038125D03*
X040100Y038125D03*
X039100Y038125D03*
X041600Y035625D03*
X043600Y034625D03*
X041600Y033625D03*
X049100Y045625D03*
X050100Y047625D03*
X051100Y049625D03*
X052100Y051625D03*
X053100Y053625D03*
X055100Y055625D03*
X059100Y053625D03*
X061100Y055625D03*
X019100Y051625D03*
X018100Y051625D03*
X017100Y051625D03*
X004350Y051125D03*
X004350Y050125D03*
X003350Y050125D03*
X003350Y051125D03*
X003350Y052125D03*
X003350Y053125D03*
X004350Y053125D03*
X004350Y052125D03*
X004350Y054125D03*
X004350Y055125D03*
X003350Y055125D03*
X003350Y054125D03*
X003350Y056125D03*
X003350Y057125D03*
X004350Y057125D03*
X004350Y056125D03*
X004350Y058125D03*
X003350Y058125D03*
X003350Y059125D03*
X004350Y059125D03*
D13*
X019348Y033625D03*
X020100Y033625D03*
X020852Y033625D03*
X034348Y033625D03*
X035100Y033625D03*
X035852Y033625D03*
D14*
X037069Y042050D03*
X033131Y042050D03*
X022069Y042050D03*
X018131Y042050D03*
D15*
X017868Y041263D03*
X017344Y041263D03*
X016872Y041420D03*
X016596Y041775D03*
X016596Y042326D03*
X016872Y042680D03*
X017344Y042838D03*
X017868Y042838D03*
X018395Y042838D03*
X018919Y042838D03*
X019391Y042680D03*
X019667Y042326D03*
X019667Y041775D03*
X019391Y041420D03*
X018919Y041263D03*
X018395Y041263D03*
X020533Y041775D03*
X020809Y041420D03*
X021281Y041263D03*
X021805Y041263D03*
X022332Y041263D03*
X022856Y041263D03*
X023328Y041420D03*
X023604Y041775D03*
X023604Y042326D03*
X023328Y042680D03*
X022856Y042838D03*
X022332Y042838D03*
X021805Y042838D03*
X021281Y042838D03*
X020809Y042680D03*
X020533Y042326D03*
X031596Y042326D03*
X031872Y042680D03*
X032344Y042838D03*
X032868Y042838D03*
X033395Y042838D03*
X033919Y042838D03*
X034391Y042680D03*
X034667Y042326D03*
X034667Y041775D03*
X034391Y041420D03*
X033919Y041263D03*
X033395Y041263D03*
X032868Y041263D03*
X032344Y041263D03*
X031872Y041420D03*
X031596Y041775D03*
X035533Y041775D03*
X035809Y041420D03*
X036281Y041263D03*
X036805Y041263D03*
X037332Y041263D03*
X037856Y041263D03*
X038328Y041420D03*
X038604Y041775D03*
X038604Y042326D03*
X038328Y042680D03*
X037856Y042838D03*
X037332Y042838D03*
X036805Y042838D03*
X036281Y042838D03*
X035809Y042680D03*
X035533Y042326D03*
D16*
X040100Y054625D03*
X027600Y054625D03*
X040850Y024125D03*
D17*
X012964Y024790D02*
X010424Y024790D01*
X005681Y033649D02*
X003141Y033649D01*
D18*
X004600Y040149D03*
X004600Y043101D03*
X012100Y043101D03*
X012100Y040149D03*
X017600Y045649D03*
X017600Y048601D03*
X031600Y031601D03*
X031600Y028649D03*
X038600Y029399D03*
X038600Y032351D03*
D19*
X019100Y022625D03*
X019100Y024771D03*
X019100Y026916D03*
D20*
X024600Y029361D03*
X025600Y029361D03*
X026600Y029361D03*
D21*
X044100Y038125D03*
X071350Y042625D03*
X074100Y036125D03*
X074100Y033625D03*
X074100Y031125D03*
D22*
X019100Y058125D03*
X018100Y058125D03*
X017100Y058125D03*
X014600Y058125D03*
X013600Y058125D03*
X012600Y058125D03*
D23*
X009350Y048625D03*
X008850Y048625D03*
X008350Y048625D03*
X007850Y048625D03*
X007350Y048625D03*
X006850Y048625D03*
X006350Y048625D03*
X005850Y048625D03*
X005350Y048625D03*
X004850Y048625D03*
X004850Y044924D03*
X005350Y044924D03*
X005850Y044924D03*
X006350Y044924D03*
X006850Y044924D03*
X007350Y044924D03*
X007850Y044924D03*
X008350Y044924D03*
X008850Y044924D03*
X009350Y044924D03*
D24*
X008600Y050125D03*
X008600Y051125D03*
X008600Y052125D03*
X008600Y053125D03*
X008600Y054125D03*
X008600Y055125D03*
X008600Y056125D03*
X008600Y057125D03*
X008600Y058125D03*
X008600Y059125D03*
X005647Y059125D03*
X005647Y058125D03*
X005647Y057125D03*
X005647Y056125D03*
X005647Y055125D03*
X005647Y054125D03*
X005647Y053125D03*
X005647Y052125D03*
X005647Y051125D03*
X005647Y050125D03*
D25*
X002100Y046176D03*
X002100Y045074D03*
D26*
X061214Y057090D03*
X063635Y059511D03*
X067714Y057090D03*
X070135Y059511D03*
D27*
X065600Y038125D03*
X065600Y037125D03*
X065600Y034125D03*
X060600Y037125D03*
X060600Y038125D03*
X055600Y038125D03*
X055600Y037125D03*
X050600Y037125D03*
X050600Y038125D03*
X047600Y034125D03*
X047600Y021125D03*
X048600Y021125D03*
X064600Y021125D03*
X065600Y021125D03*
D28*
X064600Y037125D03*
X063600Y037125D03*
X062600Y037125D03*
X062600Y038125D03*
X063600Y038125D03*
X064600Y038125D03*
X061600Y038125D03*
X061600Y037125D03*
X059600Y037125D03*
X059600Y038125D03*
X058600Y038125D03*
X057600Y038125D03*
X056600Y038125D03*
X056600Y037125D03*
X057600Y037125D03*
X058600Y037125D03*
X054600Y037125D03*
X053600Y037125D03*
X052600Y037125D03*
X052600Y038125D03*
X053600Y038125D03*
X054600Y038125D03*
X051600Y038125D03*
X051600Y037125D03*
X049600Y037125D03*
X048600Y037125D03*
X048600Y038125D03*
X049600Y038125D03*
X047600Y038125D03*
X047600Y037125D03*
D29*
X047600Y033125D03*
X047600Y032125D03*
X047600Y030125D03*
X047600Y029125D03*
X047600Y028125D03*
X047600Y027125D03*
X047600Y026125D03*
X047600Y025125D03*
X047600Y024125D03*
X047600Y023125D03*
X047600Y022125D03*
X048600Y022125D03*
X048600Y023125D03*
X048600Y024125D03*
X048600Y025125D03*
X048600Y026125D03*
X048600Y027125D03*
X048600Y028125D03*
X048600Y029125D03*
X048600Y030125D03*
X064600Y030125D03*
X064600Y029125D03*
X065600Y029125D03*
X065600Y030125D03*
X065600Y028125D03*
X065600Y027125D03*
X064600Y027125D03*
X064600Y028125D03*
X064600Y026125D03*
X064600Y025125D03*
X065600Y025125D03*
X065600Y026125D03*
X065600Y024125D03*
X064600Y024125D03*
X064600Y023125D03*
X064600Y022125D03*
X065600Y022125D03*
X065600Y023125D03*
X065600Y032125D03*
X065600Y033125D03*
D30*
X061600Y039255D02*
X061600Y039995D01*
X060600Y039995D02*
X060600Y039255D01*
X059600Y039255D02*
X059600Y039995D01*
X058600Y039995D02*
X058600Y039255D01*
X057600Y039255D02*
X057600Y039995D01*
X056600Y039995D02*
X056600Y039255D01*
X055600Y039255D02*
X055600Y039995D01*
X054600Y039995D02*
X054600Y039255D01*
X053600Y039255D02*
X053600Y039995D01*
X052600Y039995D02*
X052600Y039255D01*
X051600Y039255D02*
X051600Y039995D01*
X050600Y039995D02*
X050600Y039255D01*
X049600Y039255D02*
X049600Y039995D01*
X048600Y039995D02*
X048600Y039255D01*
X047600Y039255D02*
X047600Y039995D01*
X046600Y039995D02*
X046600Y039255D01*
D31*
X073850Y042125D03*
X073850Y046625D03*
D32*
X034600Y025424D03*
X030600Y025424D03*
X030600Y021424D03*
X034600Y021424D03*
D33*
X045100Y027375D03*
X046350Y032125D03*
X044475Y034125D03*
X042600Y033125D03*
X040100Y034875D03*
X039100Y034125D03*
X038350Y036875D03*
X032100Y036125D03*
X026600Y036125D03*
X026100Y034375D03*
X025600Y033875D03*
X027100Y030375D03*
X045850Y039375D03*
X049100Y040625D03*
X054600Y036375D03*
X052600Y034125D03*
X054600Y031625D03*
X052600Y031125D03*
X061350Y035625D03*
X062350Y039375D03*
X064600Y040375D03*
X065350Y040875D03*
X065350Y041375D03*
X064600Y042125D03*
X064100Y042625D03*
X065100Y042625D03*
X065350Y043375D03*
X064850Y044125D03*
X066100Y044625D03*
X066600Y045625D03*
X067100Y046375D03*
X068100Y047375D03*
X068100Y047875D03*
X068100Y048375D03*
X068100Y048875D03*
X068100Y049375D03*
X067600Y049750D03*
X068100Y050125D03*
X069350Y051375D03*
X069600Y051875D03*
X070100Y051625D03*
X070600Y051625D03*
X071100Y051625D03*
X071600Y051625D03*
X072100Y051625D03*
X071100Y049625D03*
X073850Y048125D03*
X067100Y053625D03*
X067100Y054125D03*
X068350Y054375D03*
X069100Y055625D03*
X069100Y056125D03*
X066850Y057125D03*
X066100Y052125D03*
X065100Y050125D03*
X064100Y048125D03*
X063100Y046375D03*
X062100Y044375D03*
X061100Y042375D03*
X065850Y040375D03*
X067850Y040375D03*
X069100Y040125D03*
X070100Y038625D03*
X070600Y038625D03*
X071100Y038875D03*
X071600Y038375D03*
X069100Y035625D03*
X067850Y035125D03*
X067100Y035625D03*
X067350Y033625D03*
X066475Y033375D03*
X066850Y032375D03*
X065100Y031625D03*
X063850Y030125D03*
X061850Y026625D03*
X066100Y026625D03*
X068100Y021625D03*
X069100Y032625D03*
X069100Y034125D03*
X066850Y037875D03*
X054100Y023125D03*
X072600Y055375D03*
X057600Y057125D03*
X005100Y049625D03*
D34*
X000600Y043625D03*
D35*
X025600Y036625D03*
X030850Y035125D03*
X045850Y043125D03*
D36*
X038350Y037625D03*
X036850Y039125D03*
X042600Y036125D03*
X043475Y036000D03*
X044350Y035125D03*
X042850Y034375D03*
X045850Y037125D03*
X047350Y035625D03*
X049600Y035625D03*
X050100Y034625D03*
X050850Y034625D03*
X051600Y034625D03*
X053600Y031625D03*
X053600Y030625D03*
X052350Y030625D03*
X052600Y026625D03*
X046100Y021625D03*
X063350Y036375D03*
X066600Y029125D03*
X072100Y048625D03*
X073100Y055625D03*
X069100Y058125D03*
X059350Y058625D03*
X045600Y057125D03*
X044600Y059125D03*
X032100Y047625D03*
X031600Y047125D03*
X031100Y046625D03*
X030600Y046125D03*
X031100Y045625D03*
X030600Y045125D03*
X030100Y044625D03*
X029600Y044125D03*
X030100Y043625D03*
X030600Y044125D03*
X031100Y043625D03*
X031600Y044125D03*
X031100Y044625D03*
X031600Y045125D03*
X032100Y044625D03*
X032600Y044125D03*
X032100Y043625D03*
X032600Y045125D03*
X032100Y045625D03*
X032600Y046125D03*
X032100Y046625D03*
X031600Y046125D03*
X030600Y047125D03*
X030100Y046625D03*
X029600Y046125D03*
X030100Y045625D03*
X029600Y045125D03*
X029600Y047125D03*
X030100Y047625D03*
X031100Y047625D03*
X032600Y047125D03*
X028100Y048625D03*
X025600Y047125D03*
X025100Y046625D03*
X024600Y046125D03*
X024100Y046625D03*
X023600Y046125D03*
X024100Y045625D03*
X023600Y045125D03*
X023100Y044625D03*
X022600Y044125D03*
X023100Y043625D03*
X023600Y044125D03*
X024100Y043625D03*
X024600Y044125D03*
X024100Y044625D03*
X024600Y045125D03*
X025100Y044625D03*
X025600Y044125D03*
X025100Y043625D03*
X025600Y045125D03*
X025100Y045625D03*
X025600Y046125D03*
X024600Y047125D03*
X024100Y047625D03*
X023600Y047125D03*
X023100Y046625D03*
X022600Y046125D03*
X023100Y045625D03*
X022600Y045125D03*
X022600Y047125D03*
X023100Y047625D03*
X025100Y047625D03*
X028100Y040125D03*
X020600Y037625D03*
X020100Y037125D03*
X019850Y038875D03*
X019100Y038875D03*
X007100Y047875D03*
X009850Y049125D03*
X010850Y048875D03*
X003600Y049125D03*
X002850Y049125D03*
X002100Y049125D03*
X001350Y049125D03*
X001475Y047500D03*
D37*
X017600Y053625D03*
D38*
X013600Y052625D03*
D39*
X061850Y036125D03*
X069350Y041875D03*
X070850Y036625D03*
M02*
