G04 #@! TF.GenerationSoftware,KiCad,Pcbnew,(5.0.0)*
G04 #@! TF.CreationDate,2019-03-04T21:39:05-06:00*
G04 #@! TF.ProjectId,BMS_Hardware,424D535F48617264776172652E6B6963,rev?*
G04 #@! TF.SameCoordinates,Original*
G04 #@! TF.FileFunction,Soldermask,Bot*
G04 #@! TF.FilePolarity,Negative*
%FSLAX46Y46*%
G04 Gerber Fmt 4.6, Leading zero omitted, Abs format (unit mm)*
G04 Created by KiCad (PCBNEW (5.0.0)) date 03/04/19 21:39:05*
%MOMM*%
%LPD*%
G01*
G04 APERTURE LIST*
%ADD10C,1.524000*%
%ADD11C,2.946400*%
%ADD12C,18.288000*%
%ADD13C,1.600000*%
%ADD14R,1.600000X1.600000*%
%ADD15O,9.144000X5.588000*%
%ADD16C,1.501140*%
%ADD17C,5.080000*%
G04 APERTURE END LIST*
D10*
G04 #@! TO.C,U18*
X172770800Y-106273600D03*
X170230800Y-106273600D03*
X167690800Y-106273600D03*
G04 #@! TD*
G04 #@! TO.C,U16*
X190119000Y-106299000D03*
X187579000Y-106299000D03*
X185039000Y-106299000D03*
G04 #@! TD*
G04 #@! TO.C,Conn2*
X135890000Y-59309000D03*
X138430000Y-59309000D03*
X140970000Y-59309000D03*
X143510000Y-59309000D03*
X146050000Y-59309000D03*
X148590000Y-59309000D03*
X151130000Y-59309000D03*
X153670000Y-59309000D03*
X156210000Y-59309000D03*
G04 #@! TD*
G04 #@! TO.C,Conn1*
X135890000Y-67056000D03*
X138430000Y-67056000D03*
X140970000Y-67056000D03*
X143510000Y-67056000D03*
X146050000Y-67056000D03*
X148590000Y-67056000D03*
X151130000Y-67056000D03*
X153670000Y-67056000D03*
X156210000Y-67056000D03*
G04 #@! TD*
G04 #@! TO.C,U2*
X49276000Y-67310000D03*
X46736000Y-67310000D03*
G04 #@! TD*
G04 #@! TO.C,U4*
X64262000Y-67310000D03*
X61722000Y-67310000D03*
G04 #@! TD*
G04 #@! TO.C,U7*
X46736000Y-59309000D03*
X49276000Y-59309000D03*
G04 #@! TD*
G04 #@! TO.C,U8*
X49225200Y-77012800D03*
X46685200Y-77012800D03*
G04 #@! TD*
G04 #@! TO.C,U12*
X64262000Y-76962000D03*
X61722000Y-76962000D03*
G04 #@! TD*
D11*
G04 #@! TO.C,REF\002A\002A*
X198374000Y-58166000D03*
G04 #@! TD*
G04 #@! TO.C,REF\002A\002A*
X94234000Y-58166000D03*
G04 #@! TD*
G04 #@! TO.C,REF\002A\002A*
X47244000Y-121666000D03*
G04 #@! TD*
D10*
G04 #@! TO.C,U5*
X162560000Y-59182000D03*
X162560000Y-59182000D03*
X165100000Y-59182000D03*
X167640000Y-59182000D03*
X170180000Y-59182000D03*
G04 #@! TD*
G04 #@! TO.C,U10*
X59563000Y-59182000D03*
X59563000Y-59182000D03*
X62103000Y-59182000D03*
X64643000Y-59182000D03*
X67183000Y-59182000D03*
G04 #@! TD*
G04 #@! TO.C,U11*
X106045000Y-59309000D03*
X108585000Y-59309000D03*
X111125000Y-59309000D03*
G04 #@! TD*
G04 #@! TO.C,U17*
X77216000Y-59309000D03*
X79756000Y-59309000D03*
X82296000Y-59309000D03*
G04 #@! TD*
D12*
G04 #@! TO.C,V1*
X59944000Y-100711000D03*
G04 #@! TD*
G04 #@! TO.C,V2*
X232664000Y-100711000D03*
G04 #@! TD*
G04 #@! TO.C,V3*
X232664000Y-65786000D03*
G04 #@! TD*
D13*
G04 #@! TO.C,C26*
X168442000Y-97599500D03*
D14*
X170942000Y-97599500D03*
G04 #@! TD*
D13*
G04 #@! TO.C,C17*
X187602500Y-97536000D03*
D14*
X185102500Y-97536000D03*
G04 #@! TD*
D11*
G04 #@! TO.C,REF\002A\002A*
X245364000Y-121666000D03*
G04 #@! TD*
D15*
G04 #@! TO.C,U1*
X200660000Y-95885000D03*
X210820000Y-95885000D03*
D16*
X205740000Y-117381020D03*
X207650080Y-117381020D03*
X203829920Y-117381020D03*
G04 #@! TD*
D17*
G04 #@! TO.C,Conn3*
X178575000Y-58394000D03*
X186475000Y-58394000D03*
G04 #@! TD*
M02*
