M48
; DRILL file {KiCad (6.0.7)} date Sat Nov 19 14:42:39 2022
; FORMAT={-:-/ absolute / metric / decimal}
; #@! TF.CreationDate,2022-11-19T14:42:39-06:00
; #@! TF.GenerationSoftware,Kicad,Pcbnew,(6.0.7)
; #@! TF.FileFunction,Plated,1,2,PTH
FMAT,2
METRIC
; #@! TA.AperFunction,Plated,PTH,ViaDrill
T1C0.400
; #@! TA.AperFunction,Plated,PTH,ComponentDrill
T2C0.500
; #@! TA.AperFunction,Plated,PTH,ComponentDrill
T3C0.700
; #@! TA.AperFunction,Plated,PTH,ComponentDrill
T4C0.750
; #@! TA.AperFunction,Plated,PTH,ComponentDrill
T5C0.800
; #@! TA.AperFunction,Plated,PTH,ComponentDrill
T6C0.889
; #@! TA.AperFunction,Plated,PTH,ComponentDrill
T7C0.900
; #@! TA.AperFunction,Plated,PTH,ComponentDrill
T8C1.000
; #@! TA.AperFunction,Plated,PTH,ComponentDrill
T9C1.020
; #@! TA.AperFunction,Plated,PTH,ComponentDrill
T10C1.600
; #@! TA.AperFunction,Plated,PTH,ComponentDrill
T11C2.000
; #@! TA.AperFunction,Plated,PTH,ComponentDrill
T12C3.250
; #@! TA.AperFunction,Plated,PTH,ComponentDrill
T13C9.144
%
G90
G05
T1
X93.434Y-90.516
X94.233Y-89.915
X94.903Y-89.173
X145.832Y-109.291
X146.721Y-85.888
X147.61Y-108.494
X148.41Y-89.915
X152.182Y-87.158
X154.214Y-85.888
X154.976Y-69.124
X159.548Y-72.68
X161.798Y-80.01
X161.834Y-86.509
X163.612Y-79.284
X164.628Y-108.565
X168.184Y-110.78
X168.259Y-85.785
X168.259Y-89.116
X168.946Y-110.018
X169.708Y-85.785
X171.232Y-72.68
X171.704Y-84.582
X171.937Y-76.236
X171.937Y-79.284
X172.502Y-69.632
X173.736Y-88.646
X175.654Y-85.785
X177.074Y-70.648
X178.24Y-87.278
X178.942Y-86.551
X179.868Y-58.964
X180.849Y-86.509
X181.303Y-87.41
X181.757Y-88.382
X182.349Y-89.187
X183.17Y-72.68
X183.678Y-59.98
X184.694Y-79.284
X187.234Y-60.742
X189.099Y-68.74
X189.55Y-69.632
X189.873Y-58.987
X190.0Y-70.648
X190.319Y-59.881
X190.828Y-60.742
X191.044Y-72.68
X191.449Y-70.648
X191.976Y-69.799
X192.277Y-60.742
X192.459Y-68.924
X192.785Y-59.881
X193.26Y-59.002
X193.54Y-68.064
X193.838Y-76.236
X193.838Y-79.284
X193.987Y-58.316
X194.092Y-72.68
X194.346Y-60.742
X194.6Y-86.509
X195.362Y-110.78
X197.244Y-85.785
X197.902Y-59.98
X198.12Y-157.48
X198.12Y-162.56
X198.12Y-167.64
X198.12Y-172.72
X198.12Y-177.8
X198.12Y-182.88
X198.12Y-187.96
X198.12Y-193.04
X200.188Y-70.648
X200.442Y-109.331
X200.66Y-160.02
X200.66Y-165.1
X200.66Y-170.18
X200.66Y-175.26
X200.66Y-180.34
X200.66Y-185.42
X200.66Y-190.5
X201.458Y-59.218
X201.527Y-98.657
X201.966Y-110.056
X203.2Y-157.48
X203.2Y-162.56
X203.2Y-167.64
X203.2Y-172.72
X203.2Y-177.8
X203.2Y-182.88
X203.2Y-187.96
X203.2Y-187.96
X203.2Y-193.04
X204.252Y-70.14
X205.014Y-58.456
X205.014Y-87.412
X205.522Y-72.68
X205.74Y-160.02
X205.74Y-165.1
X205.74Y-170.18
X205.74Y-175.26
X205.74Y-180.34
X205.74Y-185.42
X205.74Y-190.5
X206.792Y-79.284
X208.28Y-157.48
X208.28Y-162.56
X208.28Y-167.64
X208.28Y-172.72
X208.28Y-177.8
X208.28Y-182.88
X208.28Y-187.96
X208.28Y-193.04
X209.21Y-90.973
X209.586Y-58.456
X210.348Y-59.218
X210.602Y-89.915
X210.82Y-160.02
X210.82Y-165.1
X210.82Y-170.18
X210.82Y-175.26
X210.82Y-180.34
X210.82Y-185.42
X210.82Y-190.5
X210.824Y-60.097
X211.618Y-72.68
X213.36Y-157.48
X213.36Y-162.56
X213.36Y-167.64
X213.36Y-172.72
X213.36Y-177.8
X213.36Y-182.88
X213.36Y-187.96
X213.36Y-193.04
X213.904Y-59.943
X214.92Y-76.49
X214.92Y-79.284
X215.9Y-160.02
X215.9Y-165.1
X215.9Y-170.18
X215.9Y-175.26
X215.9Y-180.34
X215.9Y-185.42
X215.9Y-190.5
X215.936Y-88.428
X216.444Y-59.218
X216.952Y-69.124
X217.968Y-85.634
X218.44Y-157.48
X218.44Y-162.56
X218.44Y-167.64
X218.44Y-172.72
X218.44Y-177.8
X218.44Y-182.88
X218.44Y-187.96
X218.44Y-193.04
X220.98Y-160.02
X220.98Y-165.1
X220.98Y-170.18
X220.98Y-175.26
X220.98Y-180.34
X220.98Y-185.42
X220.98Y-190.5
X221.524Y-68.108
X223.302Y-89.19
X223.52Y-157.48
X223.52Y-162.56
X223.52Y-167.64
X223.52Y-172.72
X223.52Y-177.8
X223.52Y-182.88
X223.52Y-187.96
X223.52Y-193.04
X224.318Y-98.588
X226.06Y-160.02
X226.06Y-165.1
X226.06Y-170.18
X226.06Y-175.26
X226.06Y-180.34
X226.06Y-185.42
X226.06Y-190.5
X226.822Y-111.252
X228.6Y-157.48
X228.6Y-162.56
X228.6Y-167.64
X228.6Y-172.72
X228.6Y-177.8
X228.6Y-182.88
X228.6Y-187.96
X228.6Y-193.04
X229.144Y-98.588
X229.906Y-59.181
X230.886Y-102.108
X231.14Y-160.02
X231.14Y-165.1
X231.14Y-170.18
X231.14Y-175.26
X231.14Y-180.34
X231.14Y-185.42
X231.14Y-190.5
X232.446Y-58.456
X233.68Y-157.48
X233.68Y-162.56
X233.68Y-167.64
X233.68Y-172.72
X233.68Y-177.8
X233.68Y-182.88
X233.68Y-187.96
X233.68Y-193.04
X235.748Y-114.844
X235.748Y-153.452
X236.22Y-160.02
X236.22Y-165.1
X236.22Y-170.18
X236.22Y-175.26
X236.22Y-180.34
X236.22Y-185.42
X236.22Y-190.5
X236.548Y-89.915
X236.58Y-152.898
X237.272Y-59.218
X237.377Y-152.22
X238.157Y-98.588
X238.288Y-59.218
X238.76Y-157.48
X238.76Y-162.56
X238.76Y-167.64
X238.76Y-172.72
X238.76Y-177.8
X238.76Y-182.88
X238.76Y-187.96
X238.76Y-193.04
X239.088Y-89.915
X240.131Y-85.634
X241.3Y-170.18
X241.3Y-175.26
X241.3Y-180.34
X241.3Y-185.42
X241.3Y-190.5
X243.84Y-167.64
X243.84Y-172.72
X243.84Y-177.8
X243.84Y-182.88
X243.84Y-187.96
X243.84Y-193.04
X246.162Y-59.218
X248.92Y-157.48
X248.92Y-160.02
X248.92Y-162.56
X248.92Y-165.1
X248.92Y-167.64
X248.92Y-172.72
X248.92Y-177.8
X248.92Y-182.88
X248.92Y-187.96
X248.92Y-193.04
X250.19Y-158.75
X250.19Y-161.29
X250.19Y-163.83
X250.19Y-166.37
X251.46Y-157.48
X251.46Y-160.02
X251.46Y-162.56
X251.46Y-165.1
X251.46Y-170.18
X251.46Y-175.26
X251.46Y-180.34
X251.46Y-185.42
X251.46Y-190.5
X252.73Y-158.75
X252.73Y-161.29
X252.73Y-163.83
X252.73Y-166.37
X254.0Y-157.48
X254.0Y-160.02
X254.0Y-162.56
X254.0Y-165.1
X254.0Y-167.64
X254.0Y-172.72
X254.0Y-177.8
X254.0Y-182.88
X254.0Y-187.96
X254.0Y-193.04
X255.27Y-158.75
X255.27Y-161.29
X255.27Y-163.83
X255.27Y-166.37
X256.54Y-157.48
X256.54Y-160.02
X256.54Y-162.56
X256.54Y-165.1
X256.54Y-170.18
X256.54Y-175.26
X256.54Y-180.34
X256.54Y-185.42
X256.54Y-190.5
X259.08Y-157.48
X259.08Y-162.56
X259.08Y-167.64
X259.08Y-172.72
X259.08Y-177.8
X259.08Y-182.88
X259.08Y-187.96
X259.08Y-193.04
X261.62Y-160.02
X261.62Y-165.1
X261.62Y-170.18
X261.62Y-175.26
X261.62Y-180.34
X261.62Y-185.42
X261.62Y-190.5
X264.16Y-162.56
X264.16Y-167.64
X264.16Y-172.72
X264.16Y-177.8
X264.16Y-182.88
X264.16Y-187.96
X264.16Y-193.04
X266.7Y-160.02
X266.7Y-165.1
X266.7Y-170.18
X266.7Y-175.26
X266.7Y-180.34
X266.7Y-185.42
X266.7Y-190.5
X269.24Y-157.48
X269.24Y-162.56
X269.24Y-167.64
X269.24Y-172.72
X269.24Y-177.8
X269.24Y-182.88
X269.24Y-187.96
X269.24Y-193.04
X271.78Y-160.02
X271.78Y-165.1
X271.78Y-170.18
X271.78Y-175.26
X271.78Y-180.34
X271.78Y-185.42
X271.78Y-190.5
X274.32Y-157.48
X274.32Y-162.56
X274.32Y-167.64
X274.32Y-172.72
X274.32Y-177.8
X274.32Y-182.88
X274.32Y-187.96
X274.32Y-193.04
X276.86Y-160.02
X276.86Y-165.1
X276.86Y-170.18
X276.86Y-180.34
X276.86Y-185.42
X276.86Y-190.5
X279.4Y-157.48
X279.4Y-162.56
X279.4Y-167.64
X279.4Y-182.88
X279.4Y-187.96
X279.4Y-193.04
X281.94Y-160.02
X281.94Y-165.1
X281.94Y-170.18
X281.94Y-180.34
X281.94Y-185.42
X281.94Y-190.5
X284.48Y-157.48
X284.48Y-162.56
X284.48Y-167.64
X284.48Y-182.88
X284.48Y-187.96
X284.48Y-193.04
X289.56Y-157.48
X289.56Y-162.56
X289.56Y-167.64
X289.56Y-182.88
X289.56Y-187.96
X289.56Y-193.04
X292.1Y-160.02
X292.1Y-165.1
X292.1Y-170.18
X292.1Y-180.34
X292.1Y-185.42
X292.1Y-190.5
X294.64Y-157.48
X294.64Y-162.56
X294.64Y-167.64
X294.64Y-182.88
X294.64Y-187.96
X294.64Y-193.04
X297.18Y-160.02
X297.18Y-165.1
X297.18Y-170.18
X297.18Y-175.26
X297.18Y-180.34
X297.18Y-185.42
X297.18Y-190.5
X299.72Y-157.48
X299.72Y-162.56
X299.72Y-167.64
X299.72Y-172.72
X299.72Y-177.8
X299.72Y-182.88
X299.72Y-187.96
X299.72Y-193.04
X302.26Y-170.18
X302.26Y-175.26
X302.26Y-180.34
X302.26Y-185.42
X302.26Y-190.5
X302.677Y-159.167
X302.677Y-159.167
X302.677Y-163.964
X304.8Y-167.64
X304.8Y-172.72
X304.8Y-177.8
X304.8Y-182.88
X304.8Y-187.96
X304.8Y-193.04
X307.34Y-160.02
X307.34Y-165.1
X307.34Y-170.18
X307.34Y-175.26
X307.34Y-180.34
X307.34Y-185.42
X307.34Y-190.5
X309.88Y-157.48
X309.88Y-162.56
X309.88Y-167.64
X309.88Y-172.72
X309.88Y-177.8
X309.88Y-182.88
X309.88Y-187.96
X309.88Y-193.04
X312.42Y-160.02
X312.42Y-165.1
X312.42Y-170.18
X312.42Y-175.26
X312.42Y-180.34
X312.42Y-185.42
X312.42Y-190.5
X314.96Y-157.48
X314.96Y-162.56
X314.96Y-167.64
X314.96Y-172.72
X314.96Y-177.8
X314.96Y-182.88
X314.96Y-187.96
X314.96Y-193.04
X317.5Y-160.02
X317.5Y-165.1
X317.5Y-185.42
X317.5Y-190.5
X320.04Y-157.48
X320.04Y-162.56
X320.04Y-187.96
X320.04Y-193.04
X322.58Y-160.02
X322.58Y-165.1
X322.58Y-185.42
X322.58Y-190.5
X325.12Y-157.48
X325.12Y-162.56
X325.12Y-187.96
X325.12Y-193.04
X327.66Y-160.02
X327.66Y-165.1
X327.66Y-185.42
X327.66Y-190.5
X330.2Y-157.48
X330.2Y-162.56
X330.2Y-187.96
X330.2Y-193.04
X332.74Y-160.02
X332.74Y-165.1
X332.74Y-185.42
X332.74Y-190.5
X338.11Y-153.706
X338.11Y-197.14
X338.817Y-197.847
X338.872Y-152.944
T2
X276.846Y-175.215
X276.846Y-176.475
X277.596Y-174.185
X277.596Y-177.505
X278.796Y-173.795
X278.796Y-177.895
X280.126Y-173.795
X280.126Y-177.895
X281.466Y-173.795
X281.466Y-177.895
X282.796Y-173.795
X282.796Y-177.895
X283.996Y-174.185
X283.996Y-177.505
X284.746Y-175.215
X284.746Y-176.475
X286.846Y-175.215
X286.846Y-176.475
X287.596Y-174.185
X287.596Y-177.505
X288.796Y-173.795
X288.796Y-177.895
X290.126Y-173.795
X290.126Y-177.895
X291.466Y-173.795
X291.466Y-177.895
X292.796Y-173.795
X292.796Y-177.895
X293.996Y-174.185
X293.996Y-177.505
X294.746Y-175.215
X294.746Y-176.475
T3
X172.772Y-103.07
X172.772Y-105.07
X172.772Y-107.07
X174.772Y-103.07
X174.772Y-105.07
X174.772Y-107.07
T4
X166.152Y-112.81
X168.692Y-112.81
X171.232Y-112.81
X173.772Y-112.81
X176.312Y-112.81
T5
X159.802Y-100.62
X159.802Y-115.86
X162.342Y-100.62
X162.342Y-103.16
X162.342Y-115.86
X164.882Y-100.62
X164.882Y-115.86
X167.422Y-100.62
X167.422Y-115.86
X169.962Y-100.62
X169.962Y-115.86
X172.502Y-100.62
X172.502Y-115.86
X175.042Y-100.62
X175.042Y-115.86
X177.582Y-100.62
X177.582Y-115.86
X180.122Y-100.62
X180.122Y-115.86
X182.662Y-100.62
X182.662Y-115.86
X185.202Y-100.62
X185.202Y-115.86
X187.742Y-100.62
X187.742Y-115.86
X190.282Y-100.62
X190.282Y-115.86
X192.822Y-100.62
X192.822Y-115.86
X195.362Y-100.62
X195.362Y-115.86
X197.902Y-100.62
X197.902Y-115.86
X200.442Y-100.62
X200.442Y-115.86
X202.982Y-100.62
X202.982Y-115.86
X205.522Y-100.62
X205.522Y-103.16
X205.522Y-105.7
X205.522Y-108.24
X205.522Y-110.78
X205.522Y-113.32
X205.522Y-115.86
X208.062Y-100.62
X208.062Y-115.86
X210.602Y-100.62
X210.602Y-115.86
X213.142Y-100.62
X213.142Y-115.86
X215.682Y-100.62
X215.682Y-115.86
X218.222Y-100.62
X218.222Y-115.86
X283.886Y-197.245
X285.796Y-197.245
X287.706Y-197.245
T6
X260.513Y-79.792
X260.513Y-82.332
X260.513Y-84.872
T7
X100.292Y-45.754
X100.292Y-48.294
X100.292Y-50.834
X100.292Y-53.374
X102.832Y-44.484
X102.832Y-47.024
X102.832Y-49.564
X102.832Y-52.104
X152.944Y-41.692
X155.484Y-41.692
X158.024Y-41.692
X167.676Y-41.692
X170.216Y-41.692
X181.392Y-41.692
X181.392Y-50.582
X183.932Y-41.692
X183.932Y-50.582
X186.472Y-41.692
X186.472Y-50.582
X189.012Y-41.692
X189.012Y-50.582
X191.552Y-41.692
X191.552Y-50.582
X194.092Y-41.692
X194.092Y-50.582
X196.632Y-41.692
X196.632Y-50.582
X199.172Y-41.692
X199.172Y-50.582
X201.712Y-41.692
X201.712Y-50.582
X213.904Y-41.946
X216.444Y-41.946
X218.984Y-41.946
X229.906Y-41.946
X232.446Y-41.946
X234.986Y-41.946
X237.526Y-41.946
X237.526Y-41.946
X246.162Y-41.946
X248.702Y-41.946
X251.242Y-41.946
X253.782Y-41.946
X253.782Y-41.946
T8
X106.342Y-50.328
X106.342Y-52.868
X106.342Y-55.408
X108.882Y-50.328
X108.882Y-52.868
X108.882Y-55.408
X251.147Y-67.493
X251.147Y-70.033
X251.147Y-72.573
T9
X88.862Y-45.144
X88.862Y-55.254
X90.652Y-42.604
X90.652Y-52.714
T10
X96.992Y-41.054
X96.992Y-56.804
T12
X93.942Y-43.214
X93.942Y-54.644
T13
X109.002Y-176.312
X324.902Y-130.81
X324.902Y-175.26
T11
X278.796Y-175.845G85X282.796Y-175.845
G05
X288.796Y-175.845G85X292.796Y-175.845
G05
X295.791Y-49.784G85X293.691Y-49.784
G05
X303.691Y-49.784G85X301.591Y-49.784
G05
T0
M30
