G04 #@! TF.GenerationSoftware,KiCad,Pcbnew,(6.0.7)*
G04 #@! TF.CreationDate,2022-11-19T14:41:37-06:00*
G04 #@! TF.ProjectId,2023Rev1,32303233-5265-4763-912e-6b696361645f,rev?*
G04 #@! TF.SameCoordinates,Original*
G04 #@! TF.FileFunction,Soldermask,Bot*
G04 #@! TF.FilePolarity,Negative*
%FSLAX46Y46*%
G04 Gerber Fmt 4.6, Leading zero omitted, Abs format (unit mm)*
G04 Created by KiCad (PCBNEW (6.0.7)) date 2022-11-19 14:41:37*
%MOMM*%
%LPD*%
G01*
G04 APERTURE LIST*
G04 Aperture macros list*
%AMHorizOval*
0 Thick line with rounded ends*
0 $1 width*
0 $2 $3 position (X,Y) of the first rounded end (center of the circle)*
0 $4 $5 position (X,Y) of the second rounded end (center of the circle)*
0 Add line between two ends*
20,1,$1,$2,$3,$4,$5,0*
0 Add two circle primitives to create the rounded ends*
1,1,$1,$2,$3*
1,1,$1,$4,$5*%
G04 Aperture macros list end*
%ADD10C,1.524000*%
%ADD11C,2.946400*%
%ADD12C,18.288000*%
%ADD13C,1.308000*%
%ADD14C,1.258000*%
%ADD15C,1.208000*%
%ADD16R,1.500000X1.500000*%
%ADD17C,1.500000*%
%ADD18C,0.800000*%
%ADD19HorizOval,0.800000X0.000000X0.000000X0.000000X0.000000X0*%
%ADD20HorizOval,0.800000X0.000000X0.000000X0.000000X0.000000X0*%
%ADD21O,9.000000X6.000000*%
%ADD22R,1.700000X1.700000*%
%ADD23O,1.700000X1.700000*%
%ADD24R,2.500000X1.500000*%
%ADD25O,2.500000X1.500000*%
%ADD26O,5.100000X3.000000*%
%ADD27C,1.100000*%
%ADD28C,1.400000*%
%ADD29C,4.000000*%
%ADD30C,2.000000*%
G04 APERTURE END LIST*
D10*
X260513102Y-79792102D03*
X260513102Y-82332102D03*
X260513102Y-84872102D03*
D11*
X349032102Y-214412102D03*
D12*
X324902102Y-130810000D03*
D13*
X162342102Y-115860102D03*
X164882102Y-115860102D03*
X167422102Y-115860102D03*
X169962102Y-115860102D03*
X195362102Y-115860102D03*
X164882102Y-100620102D03*
X205522102Y-110780102D03*
X172502102Y-115860102D03*
X175042102Y-115860102D03*
D14*
X166152102Y-112810102D03*
D13*
X177582102Y-115860102D03*
X180122102Y-115860102D03*
X182662102Y-115860102D03*
X185202102Y-115860102D03*
X187742102Y-115860102D03*
X190282102Y-115860102D03*
X192822102Y-115860102D03*
X192822102Y-100620102D03*
X190282102Y-100620102D03*
X187742102Y-100620102D03*
X185202102Y-100620102D03*
X182662102Y-100620102D03*
X180122102Y-100620102D03*
X177582102Y-100620102D03*
X175042102Y-100620102D03*
X172502102Y-100620102D03*
X169962102Y-100620102D03*
X167422102Y-100620102D03*
X197902102Y-115860102D03*
X200442102Y-115860102D03*
X202982102Y-115860102D03*
X205522102Y-115860102D03*
X208062102Y-115860102D03*
X210602102Y-115860102D03*
X213142102Y-115860102D03*
X215682102Y-115860102D03*
X218222102Y-115860102D03*
X218222102Y-100620102D03*
X215682102Y-100620102D03*
X213142102Y-100620102D03*
X210602102Y-100620102D03*
X208062102Y-100620102D03*
X205522102Y-100620102D03*
X202982102Y-100620102D03*
X200442102Y-100620102D03*
X197902102Y-100620102D03*
D14*
X171232102Y-112810102D03*
X168692102Y-112810102D03*
D13*
X159802102Y-115860102D03*
X195362102Y-100620102D03*
X162342102Y-100620102D03*
X205522102Y-108240102D03*
D15*
X174772102Y-105070102D03*
X172772102Y-105070102D03*
D13*
X205522102Y-103160102D03*
X205522102Y-105700102D03*
D15*
X172772102Y-103070102D03*
X174772102Y-103070102D03*
X174772102Y-107070102D03*
X172772102Y-107070102D03*
D14*
X173772102Y-112810102D03*
X176312102Y-112810102D03*
D13*
X205522102Y-113320102D03*
X159802102Y-100620102D03*
X162342102Y-103160102D03*
D11*
X349159102Y-89952102D03*
D16*
X283886102Y-197245000D03*
D17*
X285796102Y-197245000D03*
X287706102Y-197245000D03*
D18*
X287596102Y-174185000D03*
D19*
X286846102Y-176475000D03*
D18*
X290126102Y-177895000D03*
X292796102Y-173795000D03*
X294746102Y-175215000D03*
X293996102Y-177505000D03*
X293996102Y-174185000D03*
X290126102Y-173795000D03*
D20*
X286846102Y-175215000D03*
D18*
X288796102Y-173795000D03*
X291466102Y-177895000D03*
X294746102Y-176475000D03*
X288796102Y-177895000D03*
X287596102Y-177505000D03*
X291466102Y-173795000D03*
X292796102Y-177895000D03*
D21*
X290796102Y-175845000D03*
D19*
X284746102Y-175215000D03*
D20*
X284746102Y-176475000D03*
D21*
X280796102Y-175845000D03*
D18*
X276846102Y-176475000D03*
X283996102Y-174185000D03*
X281466102Y-177895000D03*
X277596102Y-177505000D03*
X283996102Y-177505000D03*
X277596102Y-174185000D03*
X281466102Y-173795000D03*
X282796102Y-173795000D03*
X280126102Y-173795000D03*
X282796102Y-177895000D03*
X278796102Y-173795000D03*
X280126102Y-177895000D03*
X278796102Y-177895000D03*
X276846102Y-175215000D03*
D12*
X324902102Y-175260000D03*
D11*
X283754102Y-214412102D03*
D22*
X108882102Y-55408102D03*
D23*
X106342102Y-55408102D03*
X108882102Y-52868102D03*
X106342102Y-52868102D03*
X108882102Y-50328102D03*
X106342102Y-50328102D03*
D11*
X274438522Y-89869682D03*
D12*
X109002102Y-176312102D03*
D11*
X79792102Y-214412102D03*
D24*
X251146602Y-72572602D03*
D25*
X251146602Y-70032602D03*
X251146602Y-67492602D03*
D11*
X79792102Y-89952102D03*
D26*
X294741000Y-49784000D03*
X302641000Y-49784000D03*
D10*
X213904102Y-41946102D03*
X216444102Y-41946102D03*
X218984102Y-41946102D03*
X152944102Y-41692102D03*
X155484102Y-41692102D03*
X158024102Y-41692102D03*
X246162102Y-41946102D03*
X248702102Y-41946102D03*
X251242102Y-41946102D03*
X253782102Y-41946102D03*
X253782102Y-41946102D03*
X181392102Y-50582102D03*
X183932102Y-50582102D03*
X186472102Y-50582102D03*
X189012102Y-50582102D03*
X191552102Y-50582102D03*
X194092102Y-50582102D03*
X196632102Y-50582102D03*
X199172102Y-50582102D03*
X201712102Y-50582102D03*
D27*
X100292102Y-53374102D03*
X102832102Y-52104102D03*
X100292102Y-50834102D03*
X102832102Y-49564102D03*
X100292102Y-48294102D03*
X102832102Y-47024102D03*
X100292102Y-45754102D03*
X102832102Y-44484102D03*
D28*
X88862102Y-55254102D03*
X90652102Y-52714102D03*
X88862102Y-45144102D03*
X90652102Y-42604102D03*
D29*
X93942102Y-54644102D03*
X93942102Y-43214102D03*
D30*
X96992102Y-41054102D03*
X96992102Y-56804102D03*
D10*
X181392102Y-41692102D03*
X183932102Y-41692102D03*
X186472102Y-41692102D03*
X189012102Y-41692102D03*
X191552102Y-41692102D03*
X194092102Y-41692102D03*
X196632102Y-41692102D03*
X199172102Y-41692102D03*
X201712102Y-41692102D03*
X229906102Y-41946102D03*
X232446102Y-41946102D03*
X234986102Y-41946102D03*
X237526102Y-41946102D03*
X237526102Y-41946102D03*
X167676102Y-41692102D03*
X170216102Y-41692102D03*
M02*
