G04 #@! TF.GenerationSoftware,KiCad,Pcbnew,(6.0.7)*
G04 #@! TF.CreationDate,2023-03-20T16:06:10-05:00*
G04 #@! TF.ProjectId,2023Rev2,32303233-5265-4763-922e-6b696361645f,rev?*
G04 #@! TF.SameCoordinates,Original*
G04 #@! TF.FileFunction,Soldermask,Top*
G04 #@! TF.FilePolarity,Negative*
%FSLAX46Y46*%
G04 Gerber Fmt 4.6, Leading zero omitted, Abs format (unit mm)*
G04 Created by KiCad (PCBNEW (6.0.7)) date 2023-03-20 16:06:10*
%MOMM*%
%LPD*%
G01*
G04 APERTURE LIST*
G04 Aperture macros list*
%AMRoundRect*
0 Rectangle with rounded corners*
0 $1 Rounding radius*
0 $2 $3 $4 $5 $6 $7 $8 $9 X,Y pos of 4 corners*
0 Add a 4 corners polygon primitive as box body*
4,1,4,$2,$3,$4,$5,$6,$7,$8,$9,$2,$3,0*
0 Add four circle primitives for the rounded corners*
1,1,$1+$1,$2,$3*
1,1,$1+$1,$4,$5*
1,1,$1+$1,$6,$7*
1,1,$1+$1,$8,$9*
0 Add four rect primitives between the rounded corners*
20,1,$1+$1,$2,$3,$4,$5,0*
20,1,$1+$1,$4,$5,$6,$7,0*
20,1,$1+$1,$6,$7,$8,$9,0*
20,1,$1+$1,$8,$9,$2,$3,0*%
%AMHorizOval*
0 Thick line with rounded ends*
0 $1 width*
0 $2 $3 position (X,Y) of the first rounded end (center of the circle)*
0 $4 $5 position (X,Y) of the second rounded end (center of the circle)*
0 Add line between two ends*
20,1,$1,$2,$3,$4,$5,0*
0 Add two circle primitives to create the rounded ends*
1,1,$1,$2,$3*
1,1,$1,$4,$5*%
G04 Aperture macros list end*
%ADD10RoundRect,0.237500X0.250000X0.237500X-0.250000X0.237500X-0.250000X-0.237500X0.250000X-0.237500X0*%
%ADD11RoundRect,0.237500X-0.300000X-0.237500X0.300000X-0.237500X0.300000X0.237500X-0.300000X0.237500X0*%
%ADD12R,1.600000X1.600000*%
%ADD13C,1.600000*%
%ADD14RoundRect,0.237500X-0.237500X0.250000X-0.237500X-0.250000X0.237500X-0.250000X0.237500X0.250000X0*%
%ADD15RoundRect,0.237500X0.237500X-0.250000X0.237500X0.250000X-0.237500X0.250000X-0.237500X-0.250000X0*%
%ADD16RoundRect,0.237500X0.237500X-0.300000X0.237500X0.300000X-0.237500X0.300000X-0.237500X-0.300000X0*%
%ADD17C,1.524000*%
%ADD18RoundRect,0.250001X2.474999X-0.799999X2.474999X0.799999X-2.474999X0.799999X-2.474999X-0.799999X0*%
%ADD19RoundRect,0.250000X-0.412500X-1.100000X0.412500X-1.100000X0.412500X1.100000X-0.412500X1.100000X0*%
%ADD20R,1.500000X2.500000*%
%ADD21O,1.500000X2.500000*%
%ADD22C,1.100000*%
%ADD23C,1.400000*%
%ADD24C,4.000000*%
%ADD25C,2.000000*%
%ADD26C,18.288000*%
%ADD27R,1.900000X0.800000*%
%ADD28C,1.308000*%
%ADD29C,1.208000*%
%ADD30RoundRect,0.237500X-0.250000X-0.237500X0.250000X-0.237500X0.250000X0.237500X-0.250000X0.237500X0*%
%ADD31RoundRect,0.150000X0.725000X0.150000X-0.725000X0.150000X-0.725000X-0.150000X0.725000X-0.150000X0*%
%ADD32R,4.600000X0.800000*%
%ADD33R,9.400000X10.800000*%
%ADD34RoundRect,0.237500X0.287500X0.237500X-0.287500X0.237500X-0.287500X-0.237500X0.287500X-0.237500X0*%
%ADD35C,2.946400*%
%ADD36R,6.000000X2.500000*%
%ADD37RoundRect,0.150000X-0.725000X-0.150000X0.725000X-0.150000X0.725000X0.150000X-0.725000X0.150000X0*%
%ADD38O,5.100000X3.000000*%
%ADD39R,1.500000X1.500000*%
%ADD40C,1.500000*%
%ADD41C,0.800000*%
%ADD42HorizOval,0.800000X0.000000X0.000000X0.000000X0.000000X0*%
%ADD43O,6.000000X9.000000*%
%ADD44HorizOval,0.800000X0.000000X0.000000X0.000000X0.000000X0*%
G04 APERTURE END LIST*
D10*
X159154500Y-72644000D03*
X157329500Y-72644000D03*
D11*
X89815500Y-52324000D03*
X91540500Y-52324000D03*
D10*
X155702000Y-75438000D03*
X153877000Y-75438000D03*
D12*
X96012000Y-52070000D03*
D13*
X98012000Y-52070000D03*
D10*
X133002000Y-80772000D03*
X131177000Y-80772000D03*
X152296500Y-75438000D03*
X150471500Y-75438000D03*
D14*
X155702000Y-61468000D03*
X155702000Y-63293000D03*
D10*
X126896500Y-49276000D03*
X125071500Y-49276000D03*
D15*
X154178000Y-46632500D03*
X154178000Y-44807500D03*
D10*
X155645500Y-50292000D03*
X153820500Y-50292000D03*
D14*
X155702000Y-69850000D03*
X155702000Y-71675000D03*
D16*
X87630000Y-28802500D03*
X87630000Y-27077500D03*
D17*
X134175500Y-60325000D03*
X136715500Y-60325000D03*
D14*
X155702000Y-44807500D03*
X155702000Y-46632500D03*
D17*
X121412000Y-47244000D03*
X118872000Y-47244000D03*
X116332000Y-47244000D03*
X113792000Y-47244000D03*
X113792000Y-47244000D03*
D10*
X155702000Y-67056000D03*
X153877000Y-67056000D03*
D18*
X117602000Y-63927000D03*
X117602000Y-56977000D03*
D10*
X159154500Y-67056000D03*
X157329500Y-67056000D03*
D19*
X112229500Y-53340000D03*
X115354500Y-53340000D03*
D10*
X159154500Y-69850000D03*
X157329500Y-69850000D03*
D14*
X123190000Y-52531000D03*
X123190000Y-54356000D03*
D20*
X77577500Y-31400500D03*
D21*
X80117500Y-31400500D03*
X82657500Y-31400500D03*
D10*
X152193000Y-50292000D03*
X150368000Y-50292000D03*
D17*
X164338000Y-67081400D03*
X164338000Y-64541400D03*
X164338000Y-62001400D03*
X164338000Y-59461400D03*
X164338000Y-56921400D03*
X164338000Y-54381400D03*
X164338000Y-51841400D03*
X164338000Y-49301400D03*
X164338000Y-46761400D03*
D10*
X159258000Y-47752000D03*
X157433000Y-47752000D03*
D22*
X103251000Y-43128500D03*
X101981000Y-45668500D03*
X100711000Y-43128500D03*
X99441000Y-45668500D03*
X98171000Y-43128500D03*
X96901000Y-45668500D03*
X95631000Y-43128500D03*
X94361000Y-45668500D03*
D23*
X105131000Y-31698500D03*
X102591000Y-33488500D03*
X95021000Y-31698500D03*
X92481000Y-33488500D03*
D24*
X104521000Y-36778500D03*
X93091000Y-36778500D03*
D25*
X90931000Y-39828500D03*
X106681000Y-39828500D03*
D26*
X98806000Y-106172000D03*
D10*
X159154500Y-58674000D03*
X157329500Y-58674000D03*
X159154500Y-61468000D03*
X157329500Y-61468000D03*
D27*
X164314000Y-81722000D03*
X164314000Y-79822000D03*
X161314000Y-80772000D03*
D17*
X103886000Y-59436000D03*
X106426000Y-59436000D03*
X108966000Y-59436000D03*
X111506000Y-59436000D03*
X111506000Y-59436000D03*
D28*
X113792000Y-42418000D03*
X116332000Y-42418000D03*
X118872000Y-42418000D03*
X121412000Y-42418000D03*
X146812000Y-42418000D03*
X116332000Y-27178000D03*
X123952000Y-42418000D03*
X126492000Y-42418000D03*
X129032000Y-42418000D03*
X131572000Y-42418000D03*
X134112000Y-42418000D03*
X136652000Y-42418000D03*
X139192000Y-42418000D03*
X141732000Y-42418000D03*
X144272000Y-42418000D03*
X144272000Y-27178000D03*
X141732000Y-27178000D03*
X139192000Y-27178000D03*
X136652000Y-27178000D03*
X134112000Y-27178000D03*
X131572000Y-27178000D03*
X129032000Y-27178000D03*
X126492000Y-27178000D03*
X123952000Y-27178000D03*
X121412000Y-27178000D03*
X118872000Y-27178000D03*
X149352000Y-42418000D03*
X151892000Y-42418000D03*
X154432000Y-42418000D03*
X156972000Y-42418000D03*
X159512000Y-42418000D03*
X162052000Y-42418000D03*
X164592000Y-42418000D03*
X167132000Y-42418000D03*
X169672000Y-42418000D03*
X169672000Y-27178000D03*
X167132000Y-27178000D03*
X164592000Y-27178000D03*
X162052000Y-27178000D03*
X159512000Y-27178000D03*
X156972000Y-27178000D03*
X154432000Y-27178000D03*
X151892000Y-27178000D03*
X149352000Y-27178000D03*
X111252000Y-42418000D03*
X146812000Y-27178000D03*
X113792000Y-27178000D03*
D29*
X126222000Y-31628000D03*
X124222000Y-31628000D03*
X124222000Y-29628000D03*
X126222000Y-29628000D03*
X126222000Y-33628000D03*
X124222000Y-33628000D03*
D28*
X111252000Y-27178000D03*
D15*
X154178000Y-54911000D03*
X154178000Y-53086000D03*
D17*
X141224000Y-46990000D03*
X138684000Y-46990000D03*
X136144000Y-46990000D03*
D30*
X159512000Y-29972000D03*
X161337000Y-29972000D03*
D10*
X154432000Y-29972000D03*
X152607000Y-29972000D03*
D31*
X152181000Y-48641000D03*
X152181000Y-47371000D03*
X152181000Y-46101000D03*
X152181000Y-44831000D03*
X147031000Y-44831000D03*
X147031000Y-46101000D03*
X147031000Y-47371000D03*
X147031000Y-48641000D03*
D10*
X155702000Y-58674000D03*
X153877000Y-58674000D03*
X152296500Y-67056000D03*
X150471500Y-67056000D03*
X152193000Y-58674000D03*
X150368000Y-58674000D03*
D15*
X130810000Y-65936500D03*
X130810000Y-64111500D03*
D26*
X147701000Y-106172000D03*
D10*
X159258000Y-44958000D03*
X157433000Y-44958000D03*
D32*
X98365000Y-64770000D03*
D33*
X107515000Y-68580000D03*
D32*
X98365000Y-69850000D03*
X98365000Y-66040000D03*
X98365000Y-67310000D03*
X98365000Y-72390000D03*
X98365000Y-71120000D03*
D17*
X123444000Y-60452000D03*
X125984000Y-60452000D03*
X128524000Y-60452000D03*
D14*
X166370000Y-79859500D03*
X166370000Y-81684500D03*
D17*
X87503000Y-45466000D03*
X87503000Y-48006000D03*
X87503000Y-50546000D03*
D27*
X121134000Y-54290000D03*
X121134000Y-52390000D03*
X118134000Y-53340000D03*
D10*
X148740500Y-67056000D03*
X146915500Y-67056000D03*
D15*
X102362000Y-54252500D03*
X102362000Y-52427500D03*
D26*
X82550000Y-67310000D03*
D15*
X154178000Y-71675000D03*
X154178000Y-69850000D03*
D12*
X75946000Y-38100000D03*
D13*
X73946000Y-38100000D03*
D34*
X132955000Y-89662000D03*
X131205000Y-89662000D03*
D35*
X84582000Y-38608000D03*
D30*
X131167500Y-87846500D03*
X132992500Y-87846500D03*
D36*
X146862000Y-84328000D03*
X159462000Y-84328000D03*
D10*
X159201500Y-50292000D03*
X157376500Y-50292000D03*
X159154500Y-64262000D03*
X157329500Y-64262000D03*
D15*
X154178000Y-63293000D03*
X154178000Y-61468000D03*
D37*
X104613000Y-50419000D03*
X104613000Y-51689000D03*
X104613000Y-52959000D03*
X104613000Y-54229000D03*
X109763000Y-54229000D03*
X109763000Y-52959000D03*
X109763000Y-51689000D03*
X109763000Y-50419000D03*
D30*
X156059500Y-29972000D03*
X157884500Y-29972000D03*
D38*
X124346000Y-87122000D03*
X116446000Y-87122000D03*
D34*
X132955000Y-68326000D03*
X131205000Y-68326000D03*
D39*
X87235000Y-83190000D03*
D40*
X87235000Y-85100000D03*
X87235000Y-87010000D03*
D41*
X110685000Y-88100000D03*
X106975000Y-93300000D03*
X110295000Y-93300000D03*
X106585000Y-90770000D03*
D42*
X109265000Y-86150000D03*
D41*
X110685000Y-89430000D03*
D43*
X108635000Y-90100000D03*
D41*
X110685000Y-92100000D03*
X108005000Y-94050000D03*
X110295000Y-86900000D03*
X106585000Y-88100000D03*
X109265000Y-94050000D03*
X106585000Y-92100000D03*
D44*
X108005000Y-86150000D03*
D41*
X106585000Y-89430000D03*
X110685000Y-90770000D03*
X106975000Y-86900000D03*
X110685000Y-78100000D03*
X106585000Y-80770000D03*
X108005000Y-76150000D03*
X106585000Y-79430000D03*
X106585000Y-78100000D03*
X110685000Y-82100000D03*
X106975000Y-76900000D03*
X110295000Y-83300000D03*
D42*
X108005000Y-84050000D03*
D41*
X106975000Y-83300000D03*
D44*
X109265000Y-84050000D03*
D41*
X109265000Y-76150000D03*
X106585000Y-82100000D03*
X110685000Y-80770000D03*
D43*
X108635000Y-80100000D03*
D41*
X110685000Y-79430000D03*
X110295000Y-76900000D03*
D30*
X131167500Y-91440000D03*
X132992500Y-91440000D03*
X131167500Y-77216000D03*
X132992500Y-77216000D03*
X131167500Y-84328000D03*
X132992500Y-84328000D03*
D10*
X148740500Y-50292000D03*
X146915500Y-50292000D03*
D34*
X132955000Y-86068500D03*
X131205000Y-86068500D03*
D10*
X159154500Y-55880000D03*
X157329500Y-55880000D03*
X159154500Y-75438000D03*
X157329500Y-75438000D03*
D31*
X152181000Y-65278000D03*
X152181000Y-64008000D03*
X152181000Y-62738000D03*
X152181000Y-61468000D03*
X147031000Y-61468000D03*
X147031000Y-62738000D03*
X147031000Y-64008000D03*
X147031000Y-65278000D03*
X152181000Y-56896000D03*
X152181000Y-55626000D03*
X152181000Y-54356000D03*
X152181000Y-53086000D03*
X147031000Y-53086000D03*
X147031000Y-54356000D03*
X147031000Y-55626000D03*
X147031000Y-56896000D03*
D34*
X132955000Y-71882000D03*
X131205000Y-71882000D03*
D17*
X170053000Y-46761400D03*
X170053000Y-49301400D03*
X170053000Y-51841400D03*
X170053000Y-54381400D03*
X170053000Y-56921400D03*
X170053000Y-59461400D03*
X170053000Y-62001400D03*
X170053000Y-64541400D03*
X170053000Y-67081400D03*
D27*
X132866000Y-64074000D03*
X132866000Y-65974000D03*
X135866000Y-65024000D03*
D11*
X89815500Y-50546000D03*
X91540500Y-50546000D03*
D34*
X132955000Y-75438000D03*
X131205000Y-75438000D03*
D10*
X148740500Y-75438000D03*
X146915500Y-75438000D03*
X159154500Y-53086000D03*
X157329500Y-53086000D03*
X148740500Y-58674000D03*
X146915500Y-58674000D03*
D34*
X132955000Y-82550000D03*
X131205000Y-82550000D03*
D14*
X155702000Y-53086000D03*
X155702000Y-54911000D03*
D34*
X132955000Y-78994000D03*
X131205000Y-78994000D03*
D11*
X87529500Y-33020000D03*
X89254500Y-33020000D03*
X108103500Y-45466000D03*
X109828500Y-45466000D03*
D30*
X131167500Y-70104000D03*
X132992500Y-70104000D03*
X131167500Y-73660000D03*
X132992500Y-73660000D03*
D31*
X152146000Y-73660000D03*
X152146000Y-72390000D03*
X152146000Y-71120000D03*
X152146000Y-69850000D03*
X146996000Y-69850000D03*
X146996000Y-71120000D03*
X146996000Y-72390000D03*
X146996000Y-73660000D03*
D30*
X125071500Y-47498000D03*
X126896500Y-47498000D03*
M02*
