G04 #@! TF.GenerationSoftware,KiCad,Pcbnew,(6.0.7)*
G04 #@! TF.CreationDate,2023-03-20T16:06:10-05:00*
G04 #@! TF.ProjectId,2023Rev2,32303233-5265-4763-922e-6b696361645f,rev?*
G04 #@! TF.SameCoordinates,Original*
G04 #@! TF.FileFunction,Legend,Top*
G04 #@! TF.FilePolarity,Positive*
%FSLAX46Y46*%
G04 Gerber Fmt 4.6, Leading zero omitted, Abs format (unit mm)*
G04 Created by KiCad (PCBNEW (6.0.7)) date 2023-03-20 16:06:10*
%MOMM*%
%LPD*%
G01*
G04 APERTURE LIST*
G04 Aperture macros list*
%AMRoundRect*
0 Rectangle with rounded corners*
0 $1 Rounding radius*
0 $2 $3 $4 $5 $6 $7 $8 $9 X,Y pos of 4 corners*
0 Add a 4 corners polygon primitive as box body*
4,1,4,$2,$3,$4,$5,$6,$7,$8,$9,$2,$3,0*
0 Add four circle primitives for the rounded corners*
1,1,$1+$1,$2,$3*
1,1,$1+$1,$4,$5*
1,1,$1+$1,$6,$7*
1,1,$1+$1,$8,$9*
0 Add four rect primitives between the rounded corners*
20,1,$1+$1,$2,$3,$4,$5,0*
20,1,$1+$1,$4,$5,$6,$7,0*
20,1,$1+$1,$6,$7,$8,$9,0*
20,1,$1+$1,$8,$9,$2,$3,0*%
%AMHorizOval*
0 Thick line with rounded ends*
0 $1 width*
0 $2 $3 position (X,Y) of the first rounded end (center of the circle)*
0 $4 $5 position (X,Y) of the second rounded end (center of the circle)*
0 Add line between two ends*
20,1,$1,$2,$3,$4,$5,0*
0 Add two circle primitives to create the rounded ends*
1,1,$1,$2,$3*
1,1,$1,$4,$5*%
G04 Aperture macros list end*
%ADD10C,0.120000*%
%ADD11C,0.304800*%
%ADD12C,0.299720*%
%ADD13C,0.300000*%
%ADD14C,0.150000*%
%ADD15C,0.254000*%
%ADD16C,0.127000*%
%ADD17C,0.200000*%
%ADD18RoundRect,0.237500X0.250000X0.237500X-0.250000X0.237500X-0.250000X-0.237500X0.250000X-0.237500X0*%
%ADD19RoundRect,0.237500X-0.300000X-0.237500X0.300000X-0.237500X0.300000X0.237500X-0.300000X0.237500X0*%
%ADD20R,1.600000X1.600000*%
%ADD21C,1.600000*%
%ADD22RoundRect,0.237500X-0.237500X0.250000X-0.237500X-0.250000X0.237500X-0.250000X0.237500X0.250000X0*%
%ADD23RoundRect,0.237500X0.237500X-0.250000X0.237500X0.250000X-0.237500X0.250000X-0.237500X-0.250000X0*%
%ADD24RoundRect,0.237500X0.237500X-0.300000X0.237500X0.300000X-0.237500X0.300000X-0.237500X-0.300000X0*%
%ADD25C,1.524000*%
%ADD26RoundRect,0.250001X2.474999X-0.799999X2.474999X0.799999X-2.474999X0.799999X-2.474999X-0.799999X0*%
%ADD27RoundRect,0.250000X-0.412500X-1.100000X0.412500X-1.100000X0.412500X1.100000X-0.412500X1.100000X0*%
%ADD28R,1.500000X2.500000*%
%ADD29O,1.500000X2.500000*%
%ADD30C,1.100000*%
%ADD31C,1.400000*%
%ADD32C,4.000000*%
%ADD33C,2.000000*%
%ADD34C,18.288000*%
%ADD35R,1.900000X0.800000*%
%ADD36C,1.308000*%
%ADD37C,1.208000*%
%ADD38RoundRect,0.237500X-0.250000X-0.237500X0.250000X-0.237500X0.250000X0.237500X-0.250000X0.237500X0*%
%ADD39RoundRect,0.150000X0.725000X0.150000X-0.725000X0.150000X-0.725000X-0.150000X0.725000X-0.150000X0*%
%ADD40R,4.600000X0.800000*%
%ADD41R,9.400000X10.800000*%
%ADD42RoundRect,0.237500X0.287500X0.237500X-0.287500X0.237500X-0.287500X-0.237500X0.287500X-0.237500X0*%
%ADD43C,2.946400*%
%ADD44R,6.000000X2.500000*%
%ADD45RoundRect,0.150000X-0.725000X-0.150000X0.725000X-0.150000X0.725000X0.150000X-0.725000X0.150000X0*%
%ADD46O,5.100000X3.000000*%
%ADD47R,1.500000X1.500000*%
%ADD48C,1.500000*%
%ADD49C,0.800000*%
%ADD50HorizOval,0.800000X0.000000X0.000000X0.000000X0.000000X0*%
%ADD51O,6.000000X9.000000*%
%ADD52HorizOval,0.800000X0.000000X0.000000X0.000000X0.000000X0*%
G04 APERTURE END LIST*
D10*
X130302000Y-77978000D02*
X144780000Y-77978000D01*
X161544000Y-69596000D02*
X161544000Y-76454000D01*
X130302000Y-92456000D02*
X144780000Y-92456000D01*
X172212000Y-69621400D02*
X172212000Y-76454000D01*
X130302000Y-85090000D02*
X144780000Y-85090000D01*
X166116000Y-76454000D02*
X166116000Y-69596000D01*
X144780000Y-67310000D02*
X130302000Y-67310000D01*
X130302000Y-81534000D02*
X144780000Y-81534000D01*
X130302000Y-70866000D02*
X144780000Y-70866000D01*
X168148000Y-69596000D02*
X168148000Y-76454000D01*
X130302000Y-67310000D02*
X130302000Y-92456000D01*
X130302000Y-88646000D02*
X144780000Y-88646000D01*
X144780000Y-92456000D02*
X144780000Y-67310000D01*
X161544000Y-76454000D02*
X166116000Y-76454000D01*
X136652000Y-67310000D02*
X136652000Y-92456000D01*
X168148000Y-76454000D02*
X172212000Y-76454000D01*
X130302000Y-74422000D02*
X144780000Y-74422000D01*
D11*
X137885714Y-68507428D02*
X137160000Y-68507428D01*
X137087428Y-69233142D01*
X137160000Y-69160571D01*
X137305142Y-69088000D01*
X137668000Y-69088000D01*
X137813142Y-69160571D01*
X137885714Y-69233142D01*
X137958285Y-69378285D01*
X137958285Y-69741142D01*
X137885714Y-69886285D01*
X137813142Y-69958857D01*
X137668000Y-70031428D01*
X137305142Y-70031428D01*
X137160000Y-69958857D01*
X137087428Y-69886285D01*
X138393714Y-68507428D02*
X138901714Y-70031428D01*
X139409714Y-68507428D01*
X137196285Y-75619428D02*
X137704285Y-77143428D01*
X138212285Y-75619428D01*
X140171714Y-75619428D02*
X140462000Y-75619428D01*
X140607142Y-75692000D01*
X140752285Y-75837142D01*
X140824857Y-76127428D01*
X140824857Y-76635428D01*
X140752285Y-76925714D01*
X140607142Y-77070857D01*
X140462000Y-77143428D01*
X140171714Y-77143428D01*
X140026571Y-77070857D01*
X139881428Y-76925714D01*
X139808857Y-76635428D01*
X139808857Y-76127428D01*
X139881428Y-75837142D01*
X140026571Y-75692000D01*
X140171714Y-75619428D01*
X142131142Y-76127428D02*
X142131142Y-77143428D01*
X141478000Y-76127428D02*
X141478000Y-76925714D01*
X141550571Y-77070857D01*
X141695714Y-77143428D01*
X141913428Y-77143428D01*
X142058571Y-77070857D01*
X142131142Y-76998285D01*
X142639142Y-76127428D02*
X143219714Y-76127428D01*
X142856857Y-75619428D02*
X142856857Y-76925714D01*
X142929428Y-77070857D01*
X143074571Y-77143428D01*
X143219714Y-77143428D01*
X137196285Y-72063428D02*
X138139714Y-72063428D01*
X137631714Y-72644000D01*
X137849428Y-72644000D01*
X137994571Y-72716571D01*
X138067142Y-72789142D01*
X138139714Y-72934285D01*
X138139714Y-73297142D01*
X138067142Y-73442285D01*
X137994571Y-73514857D01*
X137849428Y-73587428D01*
X137414000Y-73587428D01*
X137268857Y-73514857D01*
X137196285Y-73442285D01*
X138792857Y-73442285D02*
X138865428Y-73514857D01*
X138792857Y-73587428D01*
X138720285Y-73514857D01*
X138792857Y-73442285D01*
X138792857Y-73587428D01*
X139373428Y-72063428D02*
X140316857Y-72063428D01*
X139808857Y-72644000D01*
X140026571Y-72644000D01*
X140171714Y-72716571D01*
X140244285Y-72789142D01*
X140316857Y-72934285D01*
X140316857Y-73297142D01*
X140244285Y-73442285D01*
X140171714Y-73514857D01*
X140026571Y-73587428D01*
X139591142Y-73587428D01*
X139446000Y-73514857D01*
X139373428Y-73442285D01*
X140752285Y-72063428D02*
X141260285Y-73587428D01*
X141768285Y-72063428D01*
D12*
X124085047Y-54005238D02*
X125246190Y-54005238D01*
X124665619Y-56037238D02*
X124665619Y-54005238D01*
X125923523Y-54972857D02*
X126600857Y-54972857D01*
X126891142Y-56037238D02*
X125923523Y-56037238D01*
X125923523Y-54005238D01*
X126891142Y-54005238D01*
X127762000Y-56037238D02*
X127762000Y-54005238D01*
X128439333Y-55456666D01*
X129116666Y-54005238D01*
X129116666Y-56037238D01*
X130084285Y-56037238D02*
X130084285Y-54005238D01*
X130858380Y-54005238D01*
X131051904Y-54102000D01*
X131148666Y-54198761D01*
X131245428Y-54392285D01*
X131245428Y-54682571D01*
X131148666Y-54876095D01*
X131051904Y-54972857D01*
X130858380Y-55069619D01*
X130084285Y-55069619D01*
X93955809Y-57703478D02*
X92988190Y-57703478D01*
X92988190Y-55671478D01*
X94923428Y-57703478D02*
X94729904Y-57606716D01*
X94633142Y-57509954D01*
X94536380Y-57316430D01*
X94536380Y-56735859D01*
X94633142Y-56542335D01*
X94729904Y-56445573D01*
X94923428Y-56348811D01*
X95213714Y-56348811D01*
X95407238Y-56445573D01*
X95504000Y-56542335D01*
X95600761Y-56735859D01*
X95600761Y-57316430D01*
X95504000Y-57509954D01*
X95407238Y-57606716D01*
X95213714Y-57703478D01*
X94923428Y-57703478D01*
X97342476Y-56348811D02*
X97342476Y-57993763D01*
X97245714Y-58187287D01*
X97148952Y-58284049D01*
X96955428Y-58380811D01*
X96665142Y-58380811D01*
X96471619Y-58284049D01*
X97342476Y-57606716D02*
X97148952Y-57703478D01*
X96761904Y-57703478D01*
X96568380Y-57606716D01*
X96471619Y-57509954D01*
X96374857Y-57316430D01*
X96374857Y-56735859D01*
X96471619Y-56542335D01*
X96568380Y-56445573D01*
X96761904Y-56348811D01*
X97148952Y-56348811D01*
X97342476Y-56445573D01*
X98310095Y-57703478D02*
X98310095Y-56348811D01*
X98310095Y-55671478D02*
X98213333Y-55768240D01*
X98310095Y-55865001D01*
X98406857Y-55768240D01*
X98310095Y-55671478D01*
X98310095Y-55865001D01*
X100148571Y-57606716D02*
X99955047Y-57703478D01*
X99568000Y-57703478D01*
X99374476Y-57606716D01*
X99277714Y-57509954D01*
X99180952Y-57316430D01*
X99180952Y-56735859D01*
X99277714Y-56542335D01*
X99374476Y-56445573D01*
X99568000Y-56348811D01*
X99955047Y-56348811D01*
X100148571Y-56445573D01*
X92020571Y-60878236D02*
X92310857Y-60974998D01*
X92794666Y-60974998D01*
X92988190Y-60878236D01*
X93084952Y-60781474D01*
X93181714Y-60587950D01*
X93181714Y-60394426D01*
X93084952Y-60200902D01*
X92988190Y-60104140D01*
X92794666Y-60007379D01*
X92407619Y-59910617D01*
X92214095Y-59813855D01*
X92117333Y-59717093D01*
X92020571Y-59523569D01*
X92020571Y-59330045D01*
X92117333Y-59136521D01*
X92214095Y-59039760D01*
X92407619Y-58942998D01*
X92891428Y-58942998D01*
X93181714Y-59039760D01*
X93859047Y-59620331D02*
X94246095Y-60974998D01*
X94633142Y-60007379D01*
X95020190Y-60974998D01*
X95407238Y-59620331D01*
X96181333Y-60974998D02*
X96181333Y-59620331D01*
X96181333Y-58942998D02*
X96084571Y-59039760D01*
X96181333Y-59136521D01*
X96278095Y-59039760D01*
X96181333Y-58942998D01*
X96181333Y-59136521D01*
X96858666Y-59620331D02*
X97632761Y-59620331D01*
X97148952Y-58942998D02*
X97148952Y-60684712D01*
X97245714Y-60878236D01*
X97439238Y-60974998D01*
X97632761Y-60974998D01*
X99180952Y-60878236D02*
X98987428Y-60974998D01*
X98600380Y-60974998D01*
X98406857Y-60878236D01*
X98310095Y-60781474D01*
X98213333Y-60587950D01*
X98213333Y-60007379D01*
X98310095Y-59813855D01*
X98406857Y-59717093D01*
X98600380Y-59620331D01*
X98987428Y-59620331D01*
X99180952Y-59717093D01*
X100051809Y-60974998D02*
X100051809Y-58942998D01*
X100922666Y-60974998D02*
X100922666Y-59910617D01*
X100825904Y-59717093D01*
X100632380Y-59620331D01*
X100342095Y-59620331D01*
X100148571Y-59717093D01*
X100051809Y-59813855D01*
D13*
X137534952Y-53497238D02*
X136567333Y-53497238D01*
X136567333Y-51465238D01*
X139373428Y-53303714D02*
X139276666Y-53400476D01*
X138986380Y-53497238D01*
X138792857Y-53497238D01*
X138502571Y-53400476D01*
X138309047Y-53206952D01*
X138212285Y-53013428D01*
X138115523Y-52626380D01*
X138115523Y-52336095D01*
X138212285Y-51949047D01*
X138309047Y-51755523D01*
X138502571Y-51562000D01*
X138792857Y-51465238D01*
X138986380Y-51465238D01*
X139276666Y-51562000D01*
X139373428Y-51658761D01*
X140244285Y-53497238D02*
X140244285Y-51465238D01*
X140728095Y-51465238D01*
X141018380Y-51562000D01*
X141211904Y-51755523D01*
X141308666Y-51949047D01*
X141405428Y-52336095D01*
X141405428Y-52626380D01*
X141308666Y-53013428D01*
X141211904Y-53206952D01*
X141018380Y-53400476D01*
X140728095Y-53497238D01*
X140244285Y-53497238D01*
D14*
X122960190Y-63825428D02*
X123722095Y-63825428D01*
X123341142Y-64206380D02*
X123341142Y-63444476D01*
X125722095Y-64206380D02*
X125722095Y-63206380D01*
X125960190Y-63206380D01*
X126103047Y-63254000D01*
X126198285Y-63349238D01*
X126245904Y-63444476D01*
X126293523Y-63634952D01*
X126293523Y-63777809D01*
X126245904Y-63968285D01*
X126198285Y-64063523D01*
X126103047Y-64158761D01*
X125960190Y-64206380D01*
X125722095Y-64206380D01*
X128245904Y-63825428D02*
X129007809Y-63825428D01*
D11*
X137776857Y-87013142D02*
X137994571Y-87085714D01*
X138067142Y-87158285D01*
X138139714Y-87303428D01*
X138139714Y-87521142D01*
X138067142Y-87666285D01*
X137994571Y-87738857D01*
X137849428Y-87811428D01*
X137268857Y-87811428D01*
X137268857Y-86287428D01*
X137776857Y-86287428D01*
X137922000Y-86360000D01*
X137994571Y-86432571D01*
X138067142Y-86577714D01*
X138067142Y-86722857D01*
X137994571Y-86868000D01*
X137922000Y-86940571D01*
X137776857Y-87013142D01*
X137268857Y-87013142D01*
X139446000Y-86795428D02*
X139446000Y-87811428D01*
X138792857Y-86795428D02*
X138792857Y-87593714D01*
X138865428Y-87738857D01*
X139010571Y-87811428D01*
X139228285Y-87811428D01*
X139373428Y-87738857D01*
X139446000Y-87666285D01*
X140026571Y-86795428D02*
X140824857Y-86795428D01*
X140026571Y-87811428D01*
X140824857Y-87811428D01*
X141260285Y-86795428D02*
X142058571Y-86795428D01*
X141260285Y-87811428D01*
X142058571Y-87811428D01*
X143219714Y-87738857D02*
X143074571Y-87811428D01*
X142784285Y-87811428D01*
X142639142Y-87738857D01*
X142566571Y-87593714D01*
X142566571Y-87013142D01*
X142639142Y-86868000D01*
X142784285Y-86795428D01*
X143074571Y-86795428D01*
X143219714Y-86868000D01*
X143292285Y-87013142D01*
X143292285Y-87158285D01*
X142566571Y-87303428D01*
X143945428Y-87811428D02*
X143945428Y-86795428D01*
X143945428Y-87085714D02*
X144018000Y-86940571D01*
X144090571Y-86868000D01*
X144235714Y-86795428D01*
X144380857Y-86795428D01*
X138030857Y-80699428D02*
X137305142Y-80699428D01*
X137305142Y-79175428D01*
X138756571Y-80699428D02*
X138611428Y-80626857D01*
X138538857Y-80554285D01*
X138466285Y-80409142D01*
X138466285Y-79973714D01*
X138538857Y-79828571D01*
X138611428Y-79756000D01*
X138756571Y-79683428D01*
X138974285Y-79683428D01*
X139119428Y-79756000D01*
X139192000Y-79828571D01*
X139264571Y-79973714D01*
X139264571Y-80409142D01*
X139192000Y-80554285D01*
X139119428Y-80626857D01*
X138974285Y-80699428D01*
X138756571Y-80699428D01*
X140570857Y-79683428D02*
X140570857Y-80917142D01*
X140498285Y-81062285D01*
X140425714Y-81134857D01*
X140280571Y-81207428D01*
X140062857Y-81207428D01*
X139917714Y-81134857D01*
X140570857Y-80626857D02*
X140425714Y-80699428D01*
X140135428Y-80699428D01*
X139990285Y-80626857D01*
X139917714Y-80554285D01*
X139845142Y-80409142D01*
X139845142Y-79973714D01*
X139917714Y-79828571D01*
X139990285Y-79756000D01*
X140135428Y-79683428D01*
X140425714Y-79683428D01*
X140570857Y-79756000D01*
X141296571Y-80699428D02*
X141296571Y-79683428D01*
X141296571Y-79175428D02*
X141224000Y-79248000D01*
X141296571Y-79320571D01*
X141369142Y-79248000D01*
X141296571Y-79175428D01*
X141296571Y-79320571D01*
X142675428Y-80626857D02*
X142530285Y-80699428D01*
X142240000Y-80699428D01*
X142094857Y-80626857D01*
X142022285Y-80554285D01*
X141949714Y-80409142D01*
X141949714Y-79973714D01*
X142022285Y-79828571D01*
X142094857Y-79756000D01*
X142240000Y-79683428D01*
X142530285Y-79683428D01*
X142675428Y-79756000D01*
D12*
X133737047Y-55226857D02*
X133059714Y-55226857D01*
X133059714Y-56291238D02*
X133059714Y-54259238D01*
X134027333Y-54259238D01*
X134704666Y-55710666D02*
X135672285Y-55710666D01*
X134511142Y-56291238D02*
X135188476Y-54259238D01*
X135865809Y-56291238D01*
X136543142Y-56291238D02*
X136543142Y-54259238D01*
X137704285Y-56291238D01*
X137704285Y-54259238D01*
D13*
X124520476Y-45320857D02*
X125197809Y-45320857D01*
X125488095Y-46385238D02*
X124520476Y-46385238D01*
X124520476Y-44353238D01*
X125488095Y-44353238D01*
X126262190Y-46288476D02*
X126552476Y-46385238D01*
X127036285Y-46385238D01*
X127229809Y-46288476D01*
X127326571Y-46191714D01*
X127423333Y-45998190D01*
X127423333Y-45804666D01*
X127326571Y-45611142D01*
X127229809Y-45514380D01*
X127036285Y-45417619D01*
X126649238Y-45320857D01*
X126455714Y-45224095D01*
X126358952Y-45127333D01*
X126262190Y-44933809D01*
X126262190Y-44740285D01*
X126358952Y-44546761D01*
X126455714Y-44450000D01*
X126649238Y-44353238D01*
X127133047Y-44353238D01*
X127423333Y-44450000D01*
X128003904Y-44353238D02*
X129165047Y-44353238D01*
X128584476Y-46385238D02*
X128584476Y-44353238D01*
X130229428Y-44353238D02*
X130616476Y-44353238D01*
X130810000Y-44450000D01*
X131003523Y-44643523D01*
X131100285Y-45030571D01*
X131100285Y-45707904D01*
X131003523Y-46094952D01*
X130810000Y-46288476D01*
X130616476Y-46385238D01*
X130229428Y-46385238D01*
X130035904Y-46288476D01*
X129842380Y-46094952D01*
X129745619Y-45707904D01*
X129745619Y-45030571D01*
X129842380Y-44643523D01*
X130035904Y-44450000D01*
X130229428Y-44353238D01*
X131971142Y-46385238D02*
X131971142Y-44353238D01*
X132745238Y-44353238D01*
X132938761Y-44450000D01*
X133035523Y-44546761D01*
X133132285Y-44740285D01*
X133132285Y-45030571D01*
X133035523Y-45224095D01*
X132938761Y-45320857D01*
X132745238Y-45417619D01*
X131971142Y-45417619D01*
D15*
X162862380Y-70190360D02*
X162741428Y-70141979D01*
X162560000Y-70141979D01*
X162378571Y-70190360D01*
X162257619Y-70287121D01*
X162197142Y-70383883D01*
X162136666Y-70577407D01*
X162136666Y-70722550D01*
X162197142Y-70916074D01*
X162257619Y-71012836D01*
X162378571Y-71109598D01*
X162560000Y-71157979D01*
X162680952Y-71157979D01*
X162862380Y-71109598D01*
X162922857Y-71061217D01*
X162922857Y-70722550D01*
X162680952Y-70722550D01*
X163467142Y-71157979D02*
X163467142Y-70141979D01*
X164192857Y-71157979D01*
X164192857Y-70141979D01*
X164797619Y-71157979D02*
X164797619Y-70141979D01*
X165100000Y-70141979D01*
X165281428Y-70190360D01*
X165402380Y-70287121D01*
X165462857Y-70383883D01*
X165523333Y-70577407D01*
X165523333Y-70722550D01*
X165462857Y-70916074D01*
X165402380Y-71012836D01*
X165281428Y-71109598D01*
X165100000Y-71157979D01*
X164797619Y-71157979D01*
X163618333Y-72696977D02*
X163557857Y-72745358D01*
X163376428Y-72793739D01*
X163255476Y-72793739D01*
X163074047Y-72745358D01*
X162953095Y-72648596D01*
X162892619Y-72551834D01*
X162832142Y-72358310D01*
X162832142Y-72213167D01*
X162892619Y-72019643D01*
X162953095Y-71922881D01*
X163074047Y-71826120D01*
X163255476Y-71777739D01*
X163376428Y-71777739D01*
X163557857Y-71826120D01*
X163618333Y-71874500D01*
X164827857Y-72793739D02*
X164102142Y-72793739D01*
X164465000Y-72793739D02*
X164465000Y-71777739D01*
X164344047Y-71922881D01*
X164223095Y-72019643D01*
X164102142Y-72068024D01*
X163588095Y-73510260D02*
X163830000Y-73365118D01*
X164071904Y-73510260D01*
X163618333Y-75968497D02*
X163557857Y-76016878D01*
X163376428Y-76065259D01*
X163255476Y-76065259D01*
X163074047Y-76016878D01*
X162953095Y-75920116D01*
X162892619Y-75823354D01*
X162832142Y-75629830D01*
X162832142Y-75484687D01*
X162892619Y-75291163D01*
X162953095Y-75194401D01*
X163074047Y-75097640D01*
X163255476Y-75049259D01*
X163376428Y-75049259D01*
X163557857Y-75097640D01*
X163618333Y-75146020D01*
X164344047Y-75484687D02*
X164223095Y-75436306D01*
X164162619Y-75387925D01*
X164102142Y-75291163D01*
X164102142Y-75242782D01*
X164162619Y-75146020D01*
X164223095Y-75097640D01*
X164344047Y-75049259D01*
X164585952Y-75049259D01*
X164706904Y-75097640D01*
X164767380Y-75146020D01*
X164827857Y-75242782D01*
X164827857Y-75291163D01*
X164767380Y-75387925D01*
X164706904Y-75436306D01*
X164585952Y-75484687D01*
X164344047Y-75484687D01*
X164223095Y-75533068D01*
X164162619Y-75581449D01*
X164102142Y-75678211D01*
X164102142Y-75871735D01*
X164162619Y-75968497D01*
X164223095Y-76016878D01*
X164344047Y-76065259D01*
X164585952Y-76065259D01*
X164706904Y-76016878D01*
X164767380Y-75968497D01*
X164827857Y-75871735D01*
X164827857Y-75678211D01*
X164767380Y-75581449D01*
X164706904Y-75533068D01*
X164585952Y-75484687D01*
X169212380Y-70190360D02*
X169091428Y-70141979D01*
X168910000Y-70141979D01*
X168728571Y-70190360D01*
X168607619Y-70287121D01*
X168547142Y-70383883D01*
X168486666Y-70577407D01*
X168486666Y-70722550D01*
X168547142Y-70916074D01*
X168607619Y-71012836D01*
X168728571Y-71109598D01*
X168910000Y-71157979D01*
X169030952Y-71157979D01*
X169212380Y-71109598D01*
X169272857Y-71061217D01*
X169272857Y-70722550D01*
X169030952Y-70722550D01*
X169817142Y-71157979D02*
X169817142Y-70141979D01*
X170542857Y-71157979D01*
X170542857Y-70141979D01*
X171147619Y-71157979D02*
X171147619Y-70141979D01*
X171450000Y-70141979D01*
X171631428Y-70190360D01*
X171752380Y-70287121D01*
X171812857Y-70383883D01*
X171873333Y-70577407D01*
X171873333Y-70722550D01*
X171812857Y-70916074D01*
X171752380Y-71012836D01*
X171631428Y-71109598D01*
X171450000Y-71157979D01*
X171147619Y-71157979D01*
X169968333Y-72696977D02*
X169907857Y-72745358D01*
X169726428Y-72793739D01*
X169605476Y-72793739D01*
X169424047Y-72745358D01*
X169303095Y-72648596D01*
X169242619Y-72551834D01*
X169182142Y-72358310D01*
X169182142Y-72213167D01*
X169242619Y-72019643D01*
X169303095Y-71922881D01*
X169424047Y-71826120D01*
X169605476Y-71777739D01*
X169726428Y-71777739D01*
X169907857Y-71826120D01*
X169968333Y-71874500D01*
X171177857Y-72793739D02*
X170452142Y-72793739D01*
X170815000Y-72793739D02*
X170815000Y-71777739D01*
X170694047Y-71922881D01*
X170573095Y-72019643D01*
X170452142Y-72068024D01*
X169938095Y-73510260D02*
X170180000Y-73365118D01*
X170421904Y-73510260D01*
X169968333Y-75968497D02*
X169907857Y-76016878D01*
X169726428Y-76065259D01*
X169605476Y-76065259D01*
X169424047Y-76016878D01*
X169303095Y-75920116D01*
X169242619Y-75823354D01*
X169182142Y-75629830D01*
X169182142Y-75484687D01*
X169242619Y-75291163D01*
X169303095Y-75194401D01*
X169424047Y-75097640D01*
X169605476Y-75049259D01*
X169726428Y-75049259D01*
X169907857Y-75097640D01*
X169968333Y-75146020D01*
X170694047Y-75484687D02*
X170573095Y-75436306D01*
X170512619Y-75387925D01*
X170452142Y-75291163D01*
X170452142Y-75242782D01*
X170512619Y-75146020D01*
X170573095Y-75097640D01*
X170694047Y-75049259D01*
X170935952Y-75049259D01*
X171056904Y-75097640D01*
X171117380Y-75146020D01*
X171177857Y-75242782D01*
X171177857Y-75291163D01*
X171117380Y-75387925D01*
X171056904Y-75436306D01*
X170935952Y-75484687D01*
X170694047Y-75484687D01*
X170573095Y-75533068D01*
X170512619Y-75581449D01*
X170452142Y-75678211D01*
X170452142Y-75871735D01*
X170512619Y-75968497D01*
X170573095Y-76016878D01*
X170694047Y-76065259D01*
X170935952Y-76065259D01*
X171056904Y-76016878D01*
X171117380Y-75968497D01*
X171177857Y-75871735D01*
X171177857Y-75678211D01*
X171117380Y-75581449D01*
X171056904Y-75533068D01*
X170935952Y-75484687D01*
D14*
X139589047Y-59761428D02*
X140350952Y-59761428D01*
X141589047Y-59761428D02*
X142350952Y-59761428D01*
X141970000Y-60142380D02*
X141970000Y-59380476D01*
D11*
X137268857Y-90569142D02*
X137776857Y-90569142D01*
X137994571Y-91367428D02*
X137268857Y-91367428D01*
X137268857Y-89843428D01*
X137994571Y-89843428D01*
X138647714Y-91367428D02*
X138647714Y-90351428D01*
X138647714Y-90641714D02*
X138720285Y-90496571D01*
X138792857Y-90424000D01*
X138938000Y-90351428D01*
X139083142Y-90351428D01*
X139591142Y-91367428D02*
X139591142Y-90351428D01*
X139591142Y-90641714D02*
X139663714Y-90496571D01*
X139736285Y-90424000D01*
X139881428Y-90351428D01*
X140026571Y-90351428D01*
X140752285Y-91367428D02*
X140607142Y-91294857D01*
X140534571Y-91222285D01*
X140462000Y-91077142D01*
X140462000Y-90641714D01*
X140534571Y-90496571D01*
X140607142Y-90424000D01*
X140752285Y-90351428D01*
X140970000Y-90351428D01*
X141115142Y-90424000D01*
X141187714Y-90496571D01*
X141260285Y-90641714D01*
X141260285Y-91077142D01*
X141187714Y-91222285D01*
X141115142Y-91294857D01*
X140970000Y-91367428D01*
X140752285Y-91367428D01*
X141913428Y-91367428D02*
X141913428Y-90351428D01*
X141913428Y-90641714D02*
X141986000Y-90496571D01*
X142058571Y-90424000D01*
X142203714Y-90351428D01*
X142348857Y-90351428D01*
X137776857Y-83457142D02*
X137268857Y-83457142D01*
X137268857Y-84255428D02*
X137268857Y-82731428D01*
X137994571Y-82731428D01*
X139228285Y-84255428D02*
X139228285Y-83457142D01*
X139155714Y-83312000D01*
X139010571Y-83239428D01*
X138720285Y-83239428D01*
X138575142Y-83312000D01*
X139228285Y-84182857D02*
X139083142Y-84255428D01*
X138720285Y-84255428D01*
X138575142Y-84182857D01*
X138502571Y-84037714D01*
X138502571Y-83892571D01*
X138575142Y-83747428D01*
X138720285Y-83674857D01*
X139083142Y-83674857D01*
X139228285Y-83602285D01*
X139954000Y-83239428D02*
X139954000Y-84255428D01*
X139954000Y-83384571D02*
X140026571Y-83312000D01*
X140171714Y-83239428D01*
X140389428Y-83239428D01*
X140534571Y-83312000D01*
X140607142Y-83457142D01*
X140607142Y-84255428D01*
D14*
X158115000Y-74418714D02*
X157861000Y-74055857D01*
X157679571Y-74418714D02*
X157679571Y-73656714D01*
X157969857Y-73656714D01*
X158042428Y-73693000D01*
X158078714Y-73729285D01*
X158115000Y-73801857D01*
X158115000Y-73910714D01*
X158078714Y-73983285D01*
X158042428Y-74019571D01*
X157969857Y-74055857D01*
X157679571Y-74055857D01*
X158369000Y-73656714D02*
X158877000Y-73656714D01*
X158550428Y-74418714D01*
X93051333Y-52681142D02*
X93003714Y-52728761D01*
X92860857Y-52776380D01*
X92765619Y-52776380D01*
X92622761Y-52728761D01*
X92527523Y-52633523D01*
X92479904Y-52538285D01*
X92432285Y-52347809D01*
X92432285Y-52204952D01*
X92479904Y-52014476D01*
X92527523Y-51919238D01*
X92622761Y-51824000D01*
X92765619Y-51776380D01*
X92860857Y-51776380D01*
X93003714Y-51824000D01*
X93051333Y-51871619D01*
X93908476Y-52109714D02*
X93908476Y-52776380D01*
X93670380Y-51728761D02*
X93432285Y-52443047D01*
X94051333Y-52443047D01*
X154622833Y-77320380D02*
X154289500Y-76844190D01*
X154051404Y-77320380D02*
X154051404Y-76320380D01*
X154432357Y-76320380D01*
X154527595Y-76368000D01*
X154575214Y-76415619D01*
X154622833Y-76510857D01*
X154622833Y-76653714D01*
X154575214Y-76748952D01*
X154527595Y-76796571D01*
X154432357Y-76844190D01*
X154051404Y-76844190D01*
X155527595Y-76320380D02*
X155051404Y-76320380D01*
X155003785Y-76796571D01*
X155051404Y-76748952D01*
X155146642Y-76701333D01*
X155384738Y-76701333D01*
X155479976Y-76748952D01*
X155527595Y-76796571D01*
X155575214Y-76891809D01*
X155575214Y-77129904D01*
X155527595Y-77225142D01*
X155479976Y-77272761D01*
X155384738Y-77320380D01*
X155146642Y-77320380D01*
X155051404Y-77272761D01*
X155003785Y-77225142D01*
X96845333Y-48677142D02*
X96797714Y-48724761D01*
X96654857Y-48772380D01*
X96559619Y-48772380D01*
X96416761Y-48724761D01*
X96321523Y-48629523D01*
X96273904Y-48534285D01*
X96226285Y-48343809D01*
X96226285Y-48200952D01*
X96273904Y-48010476D01*
X96321523Y-47915238D01*
X96416761Y-47820000D01*
X96559619Y-47772380D01*
X96654857Y-47772380D01*
X96797714Y-47820000D01*
X96845333Y-47867619D01*
X97226285Y-47867619D02*
X97273904Y-47820000D01*
X97369142Y-47772380D01*
X97607238Y-47772380D01*
X97702476Y-47820000D01*
X97750095Y-47867619D01*
X97797714Y-47962857D01*
X97797714Y-48058095D01*
X97750095Y-48200952D01*
X97178666Y-48772380D01*
X97797714Y-48772380D01*
X134598142Y-81224380D02*
X134264809Y-80748190D01*
X134026714Y-81224380D02*
X134026714Y-80224380D01*
X134407666Y-80224380D01*
X134502904Y-80272000D01*
X134550523Y-80319619D01*
X134598142Y-80414857D01*
X134598142Y-80557714D01*
X134550523Y-80652952D01*
X134502904Y-80700571D01*
X134407666Y-80748190D01*
X134026714Y-80748190D01*
X135502904Y-80224380D02*
X135026714Y-80224380D01*
X134979095Y-80700571D01*
X135026714Y-80652952D01*
X135121952Y-80605333D01*
X135360047Y-80605333D01*
X135455285Y-80652952D01*
X135502904Y-80700571D01*
X135550523Y-80795809D01*
X135550523Y-81033904D01*
X135502904Y-81129142D01*
X135455285Y-81176761D01*
X135360047Y-81224380D01*
X135121952Y-81224380D01*
X135026714Y-81176761D01*
X134979095Y-81129142D01*
X136169571Y-80224380D02*
X136264809Y-80224380D01*
X136360047Y-80272000D01*
X136407666Y-80319619D01*
X136455285Y-80414857D01*
X136502904Y-80605333D01*
X136502904Y-80843428D01*
X136455285Y-81033904D01*
X136407666Y-81129142D01*
X136360047Y-81176761D01*
X136264809Y-81224380D01*
X136169571Y-81224380D01*
X136074333Y-81176761D01*
X136026714Y-81129142D01*
X135979095Y-81033904D01*
X135931476Y-80843428D01*
X135931476Y-80605333D01*
X135979095Y-80414857D01*
X136026714Y-80319619D01*
X136074333Y-80272000D01*
X136169571Y-80224380D01*
X151217333Y-77320380D02*
X150884000Y-76844190D01*
X150645904Y-77320380D02*
X150645904Y-76320380D01*
X151026857Y-76320380D01*
X151122095Y-76368000D01*
X151169714Y-76415619D01*
X151217333Y-76510857D01*
X151217333Y-76653714D01*
X151169714Y-76748952D01*
X151122095Y-76796571D01*
X151026857Y-76844190D01*
X150645904Y-76844190D01*
X151550666Y-76320380D02*
X152169714Y-76320380D01*
X151836380Y-76701333D01*
X151979238Y-76701333D01*
X152074476Y-76748952D01*
X152122095Y-76796571D01*
X152169714Y-76891809D01*
X152169714Y-77129904D01*
X152122095Y-77225142D01*
X152074476Y-77272761D01*
X151979238Y-77320380D01*
X151693523Y-77320380D01*
X151598285Y-77272761D01*
X151550666Y-77225142D01*
X156046714Y-65513857D02*
X155683857Y-65767857D01*
X156046714Y-65949285D02*
X155284714Y-65949285D01*
X155284714Y-65659000D01*
X155321000Y-65586428D01*
X155357285Y-65550142D01*
X155429857Y-65513857D01*
X155538714Y-65513857D01*
X155611285Y-65550142D01*
X155647571Y-65586428D01*
X155683857Y-65659000D01*
X155683857Y-65949285D01*
X155357285Y-65223571D02*
X155321000Y-65187285D01*
X155284714Y-65114714D01*
X155284714Y-64933285D01*
X155321000Y-64860714D01*
X155357285Y-64824428D01*
X155429857Y-64788142D01*
X155502428Y-64788142D01*
X155611285Y-64824428D01*
X156046714Y-65259857D01*
X156046714Y-64788142D01*
X155284714Y-64316428D02*
X155284714Y-64243857D01*
X155321000Y-64171285D01*
X155357285Y-64135000D01*
X155429857Y-64098714D01*
X155575000Y-64062428D01*
X155756428Y-64062428D01*
X155901571Y-64098714D01*
X155974142Y-64135000D01*
X156010428Y-64171285D01*
X156046714Y-64243857D01*
X156046714Y-64316428D01*
X156010428Y-64389000D01*
X155974142Y-64425285D01*
X155901571Y-64461571D01*
X155756428Y-64497857D01*
X155575000Y-64497857D01*
X155429857Y-64461571D01*
X155357285Y-64425285D01*
X155321000Y-64389000D01*
X155284714Y-64316428D01*
X128389142Y-49728380D02*
X128055809Y-49252190D01*
X127817714Y-49728380D02*
X127817714Y-48728380D01*
X128198666Y-48728380D01*
X128293904Y-48776000D01*
X128341523Y-48823619D01*
X128389142Y-48918857D01*
X128389142Y-49061714D01*
X128341523Y-49156952D01*
X128293904Y-49204571D01*
X128198666Y-49252190D01*
X127817714Y-49252190D01*
X129246285Y-49061714D02*
X129246285Y-49728380D01*
X129008190Y-48680761D02*
X128770095Y-49395047D01*
X129389142Y-49395047D01*
X130246285Y-48728380D02*
X129770095Y-48728380D01*
X129722476Y-49204571D01*
X129770095Y-49156952D01*
X129865333Y-49109333D01*
X130103428Y-49109333D01*
X130198666Y-49156952D01*
X130246285Y-49204571D01*
X130293904Y-49299809D01*
X130293904Y-49537904D01*
X130246285Y-49633142D01*
X130198666Y-49680761D01*
X130103428Y-49728380D01*
X129865333Y-49728380D01*
X129770095Y-49680761D01*
X129722476Y-49633142D01*
X154522714Y-49003857D02*
X154159857Y-49257857D01*
X154522714Y-49439285D02*
X153760714Y-49439285D01*
X153760714Y-49149000D01*
X153797000Y-49076428D01*
X153833285Y-49040142D01*
X153905857Y-49003857D01*
X154014714Y-49003857D01*
X154087285Y-49040142D01*
X154123571Y-49076428D01*
X154159857Y-49149000D01*
X154159857Y-49439285D01*
X153760714Y-48749857D02*
X153760714Y-48278142D01*
X154051000Y-48532142D01*
X154051000Y-48423285D01*
X154087285Y-48350714D01*
X154123571Y-48314428D01*
X154196142Y-48278142D01*
X154377571Y-48278142D01*
X154450142Y-48314428D01*
X154486428Y-48350714D01*
X154522714Y-48423285D01*
X154522714Y-48641000D01*
X154486428Y-48713571D01*
X154450142Y-48749857D01*
X154522714Y-47915285D02*
X154522714Y-47770142D01*
X154486428Y-47697571D01*
X154450142Y-47661285D01*
X154341285Y-47588714D01*
X154196142Y-47552428D01*
X153905857Y-47552428D01*
X153833285Y-47588714D01*
X153797000Y-47625000D01*
X153760714Y-47697571D01*
X153760714Y-47842714D01*
X153797000Y-47915285D01*
X153833285Y-47951571D01*
X153905857Y-47987857D01*
X154087285Y-47987857D01*
X154159857Y-47951571D01*
X154196142Y-47915285D01*
X154232428Y-47842714D01*
X154232428Y-47697571D01*
X154196142Y-47625000D01*
X154159857Y-47588714D01*
X154087285Y-47552428D01*
X154090142Y-52174380D02*
X153756809Y-51698190D01*
X153518714Y-52174380D02*
X153518714Y-51174380D01*
X153899666Y-51174380D01*
X153994904Y-51222000D01*
X154042523Y-51269619D01*
X154090142Y-51364857D01*
X154090142Y-51507714D01*
X154042523Y-51602952D01*
X153994904Y-51650571D01*
X153899666Y-51698190D01*
X153518714Y-51698190D01*
X154423476Y-51174380D02*
X155042523Y-51174380D01*
X154709190Y-51555333D01*
X154852047Y-51555333D01*
X154947285Y-51602952D01*
X154994904Y-51650571D01*
X155042523Y-51745809D01*
X155042523Y-51983904D01*
X154994904Y-52079142D01*
X154947285Y-52126761D01*
X154852047Y-52174380D01*
X154566333Y-52174380D01*
X154471095Y-52126761D01*
X154423476Y-52079142D01*
X155613952Y-51602952D02*
X155518714Y-51555333D01*
X155471095Y-51507714D01*
X155423476Y-51412476D01*
X155423476Y-51364857D01*
X155471095Y-51269619D01*
X155518714Y-51222000D01*
X155613952Y-51174380D01*
X155804428Y-51174380D01*
X155899666Y-51222000D01*
X155947285Y-51269619D01*
X155994904Y-51364857D01*
X155994904Y-51412476D01*
X155947285Y-51507714D01*
X155899666Y-51555333D01*
X155804428Y-51602952D01*
X155613952Y-51602952D01*
X155518714Y-51650571D01*
X155471095Y-51698190D01*
X155423476Y-51793428D01*
X155423476Y-51983904D01*
X155471095Y-52079142D01*
X155518714Y-52126761D01*
X155613952Y-52174380D01*
X155804428Y-52174380D01*
X155899666Y-52126761D01*
X155947285Y-52079142D01*
X155994904Y-51983904D01*
X155994904Y-51793428D01*
X155947285Y-51698190D01*
X155899666Y-51650571D01*
X155804428Y-51602952D01*
X156046714Y-73279000D02*
X155683857Y-73533000D01*
X156046714Y-73714428D02*
X155284714Y-73714428D01*
X155284714Y-73424142D01*
X155321000Y-73351571D01*
X155357285Y-73315285D01*
X155429857Y-73279000D01*
X155538714Y-73279000D01*
X155611285Y-73315285D01*
X155647571Y-73351571D01*
X155683857Y-73424142D01*
X155683857Y-73714428D01*
X156046714Y-72916142D02*
X156046714Y-72771000D01*
X156010428Y-72698428D01*
X155974142Y-72662142D01*
X155865285Y-72589571D01*
X155720142Y-72553285D01*
X155429857Y-72553285D01*
X155357285Y-72589571D01*
X155321000Y-72625857D01*
X155284714Y-72698428D01*
X155284714Y-72843571D01*
X155321000Y-72916142D01*
X155357285Y-72952428D01*
X155429857Y-72988714D01*
X155611285Y-72988714D01*
X155683857Y-72952428D01*
X155720142Y-72916142D01*
X155756428Y-72843571D01*
X155756428Y-72698428D01*
X155720142Y-72625857D01*
X155683857Y-72589571D01*
X155611285Y-72553285D01*
X89511142Y-27960399D02*
X89558761Y-28008018D01*
X89606380Y-28150875D01*
X89606380Y-28246113D01*
X89558761Y-28388971D01*
X89463523Y-28484209D01*
X89368285Y-28531828D01*
X89177809Y-28579447D01*
X89034952Y-28579447D01*
X88844476Y-28531828D01*
X88749238Y-28484209D01*
X88654000Y-28388971D01*
X88606380Y-28246113D01*
X88606380Y-28150875D01*
X88654000Y-28008018D01*
X88701619Y-27960399D01*
X89034952Y-27388971D02*
X88987333Y-27484209D01*
X88939714Y-27531828D01*
X88844476Y-27579447D01*
X88796857Y-27579447D01*
X88701619Y-27531828D01*
X88654000Y-27484209D01*
X88606380Y-27388971D01*
X88606380Y-27198494D01*
X88654000Y-27103256D01*
X88701619Y-27055637D01*
X88796857Y-27008018D01*
X88844476Y-27008018D01*
X88939714Y-27055637D01*
X88987333Y-27103256D01*
X89034952Y-27198494D01*
X89034952Y-27388971D01*
X89082571Y-27484209D01*
X89130190Y-27531828D01*
X89225428Y-27579447D01*
X89415904Y-27579447D01*
X89511142Y-27531828D01*
X89558761Y-27484209D01*
X89606380Y-27388971D01*
X89606380Y-27198494D01*
X89558761Y-27103256D01*
X89511142Y-27055637D01*
X89415904Y-27008018D01*
X89225428Y-27008018D01*
X89130190Y-27055637D01*
X89082571Y-27103256D01*
X89034952Y-27198494D01*
X156046714Y-49003857D02*
X155683857Y-49257857D01*
X156046714Y-49439285D02*
X155284714Y-49439285D01*
X155284714Y-49149000D01*
X155321000Y-49076428D01*
X155357285Y-49040142D01*
X155429857Y-49003857D01*
X155538714Y-49003857D01*
X155611285Y-49040142D01*
X155647571Y-49076428D01*
X155683857Y-49149000D01*
X155683857Y-49439285D01*
X155538714Y-48350714D02*
X156046714Y-48350714D01*
X155248428Y-48532142D02*
X155792714Y-48713571D01*
X155792714Y-48241857D01*
X155357285Y-47987857D02*
X155321000Y-47951571D01*
X155284714Y-47879000D01*
X155284714Y-47697571D01*
X155321000Y-47625000D01*
X155357285Y-47588714D01*
X155429857Y-47552428D01*
X155502428Y-47552428D01*
X155611285Y-47588714D01*
X156046714Y-48024142D01*
X156046714Y-47552428D01*
X154146642Y-68938380D02*
X153813309Y-68462190D01*
X153575214Y-68938380D02*
X153575214Y-67938380D01*
X153956166Y-67938380D01*
X154051404Y-67986000D01*
X154099023Y-68033619D01*
X154146642Y-68128857D01*
X154146642Y-68271714D01*
X154099023Y-68366952D01*
X154051404Y-68414571D01*
X153956166Y-68462190D01*
X153575214Y-68462190D01*
X155099023Y-68938380D02*
X154527595Y-68938380D01*
X154813309Y-68938380D02*
X154813309Y-67938380D01*
X154718071Y-68081238D01*
X154622833Y-68176476D01*
X154527595Y-68224095D01*
X155432357Y-67938380D02*
X156051404Y-67938380D01*
X155718071Y-68319333D01*
X155860928Y-68319333D01*
X155956166Y-68366952D01*
X156003785Y-68414571D01*
X156051404Y-68509809D01*
X156051404Y-68747904D01*
X156003785Y-68843142D01*
X155956166Y-68890761D01*
X155860928Y-68938380D01*
X155575214Y-68938380D01*
X155479976Y-68890761D01*
X155432357Y-68843142D01*
X117530571Y-60785333D02*
X117530571Y-61118666D01*
X118054380Y-61118666D02*
X117054380Y-61118666D01*
X117054380Y-60642476D01*
X117149619Y-60309142D02*
X117102000Y-60261523D01*
X117054380Y-60166285D01*
X117054380Y-59928190D01*
X117102000Y-59832952D01*
X117149619Y-59785333D01*
X117244857Y-59737714D01*
X117340095Y-59737714D01*
X117482952Y-59785333D01*
X118054380Y-60356761D01*
X118054380Y-59737714D01*
X157599142Y-68938380D02*
X157265809Y-68462190D01*
X157027714Y-68938380D02*
X157027714Y-67938380D01*
X157408666Y-67938380D01*
X157503904Y-67986000D01*
X157551523Y-68033619D01*
X157599142Y-68128857D01*
X157599142Y-68271714D01*
X157551523Y-68366952D01*
X157503904Y-68414571D01*
X157408666Y-68462190D01*
X157027714Y-68462190D01*
X158551523Y-68938380D02*
X157980095Y-68938380D01*
X158265809Y-68938380D02*
X158265809Y-67938380D01*
X158170571Y-68081238D01*
X158075333Y-68176476D01*
X157980095Y-68224095D01*
X158932476Y-68033619D02*
X158980095Y-67986000D01*
X159075333Y-67938380D01*
X159313428Y-67938380D01*
X159408666Y-67986000D01*
X159456285Y-68033619D01*
X159503904Y-68128857D01*
X159503904Y-68224095D01*
X159456285Y-68366952D01*
X158884857Y-68938380D01*
X159503904Y-68938380D01*
X113625333Y-51397142D02*
X113577714Y-51444761D01*
X113434857Y-51492380D01*
X113339619Y-51492380D01*
X113196761Y-51444761D01*
X113101523Y-51349523D01*
X113053904Y-51254285D01*
X113006285Y-51063809D01*
X113006285Y-50920952D01*
X113053904Y-50730476D01*
X113101523Y-50635238D01*
X113196761Y-50540000D01*
X113339619Y-50492380D01*
X113434857Y-50492380D01*
X113577714Y-50540000D01*
X113625333Y-50587619D01*
X113958666Y-50492380D02*
X114577714Y-50492380D01*
X114244380Y-50873333D01*
X114387238Y-50873333D01*
X114482476Y-50920952D01*
X114530095Y-50968571D01*
X114577714Y-51063809D01*
X114577714Y-51301904D01*
X114530095Y-51397142D01*
X114482476Y-51444761D01*
X114387238Y-51492380D01*
X114101523Y-51492380D01*
X114006285Y-51444761D01*
X113958666Y-51397142D01*
X158075333Y-71732380D02*
X157742000Y-71256190D01*
X157503904Y-71732380D02*
X157503904Y-70732380D01*
X157884857Y-70732380D01*
X157980095Y-70780000D01*
X158027714Y-70827619D01*
X158075333Y-70922857D01*
X158075333Y-71065714D01*
X158027714Y-71160952D01*
X157980095Y-71208571D01*
X157884857Y-71256190D01*
X157503904Y-71256190D01*
X158646761Y-71160952D02*
X158551523Y-71113333D01*
X158503904Y-71065714D01*
X158456285Y-70970476D01*
X158456285Y-70922857D01*
X158503904Y-70827619D01*
X158551523Y-70780000D01*
X158646761Y-70732380D01*
X158837238Y-70732380D01*
X158932476Y-70780000D01*
X158980095Y-70827619D01*
X159027714Y-70922857D01*
X159027714Y-70970476D01*
X158980095Y-71065714D01*
X158932476Y-71113333D01*
X158837238Y-71160952D01*
X158646761Y-71160952D01*
X158551523Y-71208571D01*
X158503904Y-71256190D01*
X158456285Y-71351428D01*
X158456285Y-71541904D01*
X158503904Y-71637142D01*
X158551523Y-71684761D01*
X158646761Y-71732380D01*
X158837238Y-71732380D01*
X158932476Y-71684761D01*
X158980095Y-71637142D01*
X159027714Y-71541904D01*
X159027714Y-71351428D01*
X158980095Y-71256190D01*
X158932476Y-71208571D01*
X158837238Y-71160952D01*
X124579142Y-53030380D02*
X124245809Y-52554190D01*
X124007714Y-53030380D02*
X124007714Y-52030380D01*
X124388666Y-52030380D01*
X124483904Y-52078000D01*
X124531523Y-52125619D01*
X124579142Y-52220857D01*
X124579142Y-52363714D01*
X124531523Y-52458952D01*
X124483904Y-52506571D01*
X124388666Y-52554190D01*
X124007714Y-52554190D01*
X125436285Y-52363714D02*
X125436285Y-53030380D01*
X125198190Y-51982761D02*
X124960095Y-52697047D01*
X125579142Y-52697047D01*
X125864857Y-52030380D02*
X126483904Y-52030380D01*
X126150571Y-52411333D01*
X126293428Y-52411333D01*
X126388666Y-52458952D01*
X126436285Y-52506571D01*
X126483904Y-52601809D01*
X126483904Y-52839904D01*
X126436285Y-52935142D01*
X126388666Y-52982761D01*
X126293428Y-53030380D01*
X126007714Y-53030380D01*
X125912476Y-52982761D01*
X125864857Y-52935142D01*
X78771904Y-27646380D02*
X78771904Y-28455904D01*
X78819523Y-28551142D01*
X78867142Y-28598761D01*
X78962380Y-28646380D01*
X79152857Y-28646380D01*
X79248095Y-28598761D01*
X79295714Y-28551142D01*
X79343333Y-28455904D01*
X79343333Y-27646380D01*
X80343333Y-28646380D02*
X79771904Y-28646380D01*
X80057619Y-28646380D02*
X80057619Y-27646380D01*
X79962380Y-27789238D01*
X79867142Y-27884476D01*
X79771904Y-27932095D01*
X81295714Y-28646380D02*
X80724285Y-28646380D01*
X81010000Y-28646380D02*
X81010000Y-27646380D01*
X80914761Y-27789238D01*
X80819523Y-27884476D01*
X80724285Y-27932095D01*
X150637642Y-52174380D02*
X150304309Y-51698190D01*
X150066214Y-52174380D02*
X150066214Y-51174380D01*
X150447166Y-51174380D01*
X150542404Y-51222000D01*
X150590023Y-51269619D01*
X150637642Y-51364857D01*
X150637642Y-51507714D01*
X150590023Y-51602952D01*
X150542404Y-51650571D01*
X150447166Y-51698190D01*
X150066214Y-51698190D01*
X150970976Y-51174380D02*
X151590023Y-51174380D01*
X151256690Y-51555333D01*
X151399547Y-51555333D01*
X151494785Y-51602952D01*
X151542404Y-51650571D01*
X151590023Y-51745809D01*
X151590023Y-51983904D01*
X151542404Y-52079142D01*
X151494785Y-52126761D01*
X151399547Y-52174380D01*
X151113833Y-52174380D01*
X151018595Y-52126761D01*
X150970976Y-52079142D01*
X152447166Y-51174380D02*
X152256690Y-51174380D01*
X152161452Y-51222000D01*
X152113833Y-51269619D01*
X152018595Y-51412476D01*
X151970976Y-51602952D01*
X151970976Y-51983904D01*
X152018595Y-52079142D01*
X152066214Y-52126761D01*
X152161452Y-52174380D01*
X152351928Y-52174380D01*
X152447166Y-52126761D01*
X152494785Y-52079142D01*
X152542404Y-51983904D01*
X152542404Y-51745809D01*
X152494785Y-51650571D01*
X152447166Y-51602952D01*
X152351928Y-51555333D01*
X152161452Y-51555333D01*
X152066214Y-51602952D01*
X152018595Y-51650571D01*
X151970976Y-51745809D01*
X157752142Y-49366714D02*
X157498142Y-49003857D01*
X157316714Y-49366714D02*
X157316714Y-48604714D01*
X157607000Y-48604714D01*
X157679571Y-48641000D01*
X157715857Y-48677285D01*
X157752142Y-48749857D01*
X157752142Y-48858714D01*
X157715857Y-48931285D01*
X157679571Y-48967571D01*
X157607000Y-49003857D01*
X157316714Y-49003857D01*
X158405285Y-48858714D02*
X158405285Y-49366714D01*
X158223857Y-48568428D02*
X158042428Y-49112714D01*
X158514142Y-49112714D01*
X158949571Y-48604714D02*
X159022142Y-48604714D01*
X159094714Y-48641000D01*
X159131000Y-48677285D01*
X159167285Y-48749857D01*
X159203571Y-48895000D01*
X159203571Y-49076428D01*
X159167285Y-49221571D01*
X159131000Y-49294142D01*
X159094714Y-49330428D01*
X159022142Y-49366714D01*
X158949571Y-49366714D01*
X158877000Y-49330428D01*
X158840714Y-49294142D01*
X158804428Y-49221571D01*
X158768142Y-49076428D01*
X158768142Y-48895000D01*
X158804428Y-48749857D01*
X158840714Y-48677285D01*
X158877000Y-48641000D01*
X158949571Y-48604714D01*
X98472666Y-27900380D02*
X98472666Y-28614666D01*
X98425047Y-28757523D01*
X98329809Y-28852761D01*
X98186952Y-28900380D01*
X98091714Y-28900380D01*
X98853619Y-27900380D02*
X99520285Y-27900380D01*
X99091714Y-28900380D01*
X157599142Y-60556380D02*
X157265809Y-60080190D01*
X157027714Y-60556380D02*
X157027714Y-59556380D01*
X157408666Y-59556380D01*
X157503904Y-59604000D01*
X157551523Y-59651619D01*
X157599142Y-59746857D01*
X157599142Y-59889714D01*
X157551523Y-59984952D01*
X157503904Y-60032571D01*
X157408666Y-60080190D01*
X157027714Y-60080190D01*
X157980095Y-59651619D02*
X158027714Y-59604000D01*
X158122952Y-59556380D01*
X158361047Y-59556380D01*
X158456285Y-59604000D01*
X158503904Y-59651619D01*
X158551523Y-59746857D01*
X158551523Y-59842095D01*
X158503904Y-59984952D01*
X157932476Y-60556380D01*
X158551523Y-60556380D01*
X158884857Y-59556380D02*
X159503904Y-59556380D01*
X159170571Y-59937333D01*
X159313428Y-59937333D01*
X159408666Y-59984952D01*
X159456285Y-60032571D01*
X159503904Y-60127809D01*
X159503904Y-60365904D01*
X159456285Y-60461142D01*
X159408666Y-60508761D01*
X159313428Y-60556380D01*
X159027714Y-60556380D01*
X158932476Y-60508761D01*
X158884857Y-60461142D01*
X157599142Y-63350380D02*
X157265809Y-62874190D01*
X157027714Y-63350380D02*
X157027714Y-62350380D01*
X157408666Y-62350380D01*
X157503904Y-62398000D01*
X157551523Y-62445619D01*
X157599142Y-62540857D01*
X157599142Y-62683714D01*
X157551523Y-62778952D01*
X157503904Y-62826571D01*
X157408666Y-62874190D01*
X157027714Y-62874190D01*
X158551523Y-63350380D02*
X157980095Y-63350380D01*
X158265809Y-63350380D02*
X158265809Y-62350380D01*
X158170571Y-62493238D01*
X158075333Y-62588476D01*
X157980095Y-62636095D01*
X159027714Y-63350380D02*
X159218190Y-63350380D01*
X159313428Y-63302761D01*
X159361047Y-63255142D01*
X159456285Y-63112285D01*
X159503904Y-62921809D01*
X159503904Y-62540857D01*
X159456285Y-62445619D01*
X159408666Y-62398000D01*
X159313428Y-62350380D01*
X159122952Y-62350380D01*
X159027714Y-62398000D01*
X158980095Y-62445619D01*
X158932476Y-62540857D01*
X158932476Y-62778952D01*
X158980095Y-62874190D01*
X159027714Y-62921809D01*
X159122952Y-62969428D01*
X159313428Y-62969428D01*
X159408666Y-62921809D01*
X159456285Y-62874190D01*
X159503904Y-62778952D01*
X163226761Y-78779619D02*
X163131523Y-78732000D01*
X163036285Y-78636761D01*
X162893428Y-78493904D01*
X162798190Y-78446285D01*
X162702952Y-78446285D01*
X162750571Y-78684380D02*
X162655333Y-78636761D01*
X162560095Y-78541523D01*
X162512476Y-78351047D01*
X162512476Y-78017714D01*
X162560095Y-77827238D01*
X162655333Y-77732000D01*
X162750571Y-77684380D01*
X162941047Y-77684380D01*
X163036285Y-77732000D01*
X163131523Y-77827238D01*
X163179142Y-78017714D01*
X163179142Y-78351047D01*
X163131523Y-78541523D01*
X163036285Y-78636761D01*
X162941047Y-78684380D01*
X162750571Y-78684380D01*
X163512476Y-77684380D02*
X164131523Y-77684380D01*
X163798190Y-78065333D01*
X163941047Y-78065333D01*
X164036285Y-78112952D01*
X164083904Y-78160571D01*
X164131523Y-78255809D01*
X164131523Y-78493904D01*
X164083904Y-78589142D01*
X164036285Y-78636761D01*
X163941047Y-78684380D01*
X163655333Y-78684380D01*
X163560095Y-78636761D01*
X163512476Y-78589142D01*
X110490095Y-28408380D02*
X110490095Y-29217904D01*
X110537714Y-29313142D01*
X110585333Y-29360761D01*
X110680571Y-29408380D01*
X110871047Y-29408380D01*
X110966285Y-29360761D01*
X111013904Y-29313142D01*
X111061523Y-29217904D01*
X111061523Y-28408380D01*
X111442476Y-28408380D02*
X112061523Y-28408380D01*
X111728190Y-28789333D01*
X111871047Y-28789333D01*
X111966285Y-28836952D01*
X112013904Y-28884571D01*
X112061523Y-28979809D01*
X112061523Y-29217904D01*
X112013904Y-29313142D01*
X111966285Y-29360761D01*
X111871047Y-29408380D01*
X111585333Y-29408380D01*
X111490095Y-29360761D01*
X111442476Y-29313142D01*
X154522714Y-57131857D02*
X154159857Y-57385857D01*
X154522714Y-57567285D02*
X153760714Y-57567285D01*
X153760714Y-57277000D01*
X153797000Y-57204428D01*
X153833285Y-57168142D01*
X153905857Y-57131857D01*
X154014714Y-57131857D01*
X154087285Y-57168142D01*
X154123571Y-57204428D01*
X154159857Y-57277000D01*
X154159857Y-57567285D01*
X153833285Y-56841571D02*
X153797000Y-56805285D01*
X153760714Y-56732714D01*
X153760714Y-56551285D01*
X153797000Y-56478714D01*
X153833285Y-56442428D01*
X153905857Y-56406142D01*
X153978428Y-56406142D01*
X154087285Y-56442428D01*
X154522714Y-56877857D01*
X154522714Y-56406142D01*
X154522714Y-56043285D02*
X154522714Y-55898142D01*
X154486428Y-55825571D01*
X154450142Y-55789285D01*
X154341285Y-55716714D01*
X154196142Y-55680428D01*
X153905857Y-55680428D01*
X153833285Y-55716714D01*
X153797000Y-55753000D01*
X153760714Y-55825571D01*
X153760714Y-55970714D01*
X153797000Y-56043285D01*
X153833285Y-56079571D01*
X153905857Y-56115857D01*
X154087285Y-56115857D01*
X154159857Y-56079571D01*
X154196142Y-56043285D01*
X154232428Y-55970714D01*
X154232428Y-55825571D01*
X154196142Y-55753000D01*
X154159857Y-55716714D01*
X154087285Y-55680428D01*
X159781642Y-31948380D02*
X159448309Y-31472190D01*
X159210214Y-31948380D02*
X159210214Y-30948380D01*
X159591166Y-30948380D01*
X159686404Y-30996000D01*
X159734023Y-31043619D01*
X159781642Y-31138857D01*
X159781642Y-31281714D01*
X159734023Y-31376952D01*
X159686404Y-31424571D01*
X159591166Y-31472190D01*
X159210214Y-31472190D01*
X160734023Y-31948380D02*
X160162595Y-31948380D01*
X160448309Y-31948380D02*
X160448309Y-30948380D01*
X160353071Y-31091238D01*
X160257833Y-31186476D01*
X160162595Y-31234095D01*
X161638785Y-30948380D02*
X161162595Y-30948380D01*
X161114976Y-31424571D01*
X161162595Y-31376952D01*
X161257833Y-31329333D01*
X161495928Y-31329333D01*
X161591166Y-31376952D01*
X161638785Y-31424571D01*
X161686404Y-31519809D01*
X161686404Y-31757904D01*
X161638785Y-31853142D01*
X161591166Y-31900761D01*
X161495928Y-31948380D01*
X161257833Y-31948380D01*
X161162595Y-31900761D01*
X161114976Y-31853142D01*
X152876642Y-31948380D02*
X152543309Y-31472190D01*
X152305214Y-31948380D02*
X152305214Y-30948380D01*
X152686166Y-30948380D01*
X152781404Y-30996000D01*
X152829023Y-31043619D01*
X152876642Y-31138857D01*
X152876642Y-31281714D01*
X152829023Y-31376952D01*
X152781404Y-31424571D01*
X152686166Y-31472190D01*
X152305214Y-31472190D01*
X153829023Y-31948380D02*
X153257595Y-31948380D01*
X153543309Y-31948380D02*
X153543309Y-30948380D01*
X153448071Y-31091238D01*
X153352833Y-31186476D01*
X153257595Y-31234095D01*
X154162357Y-30948380D02*
X154829023Y-30948380D01*
X154400452Y-31948380D01*
X148844095Y-46188380D02*
X148844095Y-46997904D01*
X148891714Y-47093142D01*
X148939333Y-47140761D01*
X149034571Y-47188380D01*
X149225047Y-47188380D01*
X149320285Y-47140761D01*
X149367904Y-47093142D01*
X149415523Y-46997904D01*
X149415523Y-46188380D01*
X150320285Y-46188380D02*
X150129809Y-46188380D01*
X150034571Y-46236000D01*
X149986952Y-46283619D01*
X149891714Y-46426476D01*
X149844095Y-46616952D01*
X149844095Y-46997904D01*
X149891714Y-47093142D01*
X149939333Y-47140761D01*
X150034571Y-47188380D01*
X150225047Y-47188380D01*
X150320285Y-47140761D01*
X150367904Y-47093142D01*
X150415523Y-46997904D01*
X150415523Y-46759809D01*
X150367904Y-46664571D01*
X150320285Y-46616952D01*
X150225047Y-46569333D01*
X150034571Y-46569333D01*
X149939333Y-46616952D01*
X149891714Y-46664571D01*
X149844095Y-46759809D01*
X154146642Y-60556380D02*
X153813309Y-60080190D01*
X153575214Y-60556380D02*
X153575214Y-59556380D01*
X153956166Y-59556380D01*
X154051404Y-59604000D01*
X154099023Y-59651619D01*
X154146642Y-59746857D01*
X154146642Y-59889714D01*
X154099023Y-59984952D01*
X154051404Y-60032571D01*
X153956166Y-60080190D01*
X153575214Y-60080190D01*
X154527595Y-59651619D02*
X154575214Y-59604000D01*
X154670452Y-59556380D01*
X154908547Y-59556380D01*
X155003785Y-59604000D01*
X155051404Y-59651619D01*
X155099023Y-59746857D01*
X155099023Y-59842095D01*
X155051404Y-59984952D01*
X154479976Y-60556380D01*
X155099023Y-60556380D01*
X155956166Y-59889714D02*
X155956166Y-60556380D01*
X155718071Y-59508761D02*
X155479976Y-60223047D01*
X156099023Y-60223047D01*
X150741142Y-68938380D02*
X150407809Y-68462190D01*
X150169714Y-68938380D02*
X150169714Y-67938380D01*
X150550666Y-67938380D01*
X150645904Y-67986000D01*
X150693523Y-68033619D01*
X150741142Y-68128857D01*
X150741142Y-68271714D01*
X150693523Y-68366952D01*
X150645904Y-68414571D01*
X150550666Y-68462190D01*
X150169714Y-68462190D01*
X151693523Y-68938380D02*
X151122095Y-68938380D01*
X151407809Y-68938380D02*
X151407809Y-67938380D01*
X151312571Y-68081238D01*
X151217333Y-68176476D01*
X151122095Y-68224095D01*
X152645904Y-68938380D02*
X152074476Y-68938380D01*
X152360190Y-68938380D02*
X152360190Y-67938380D01*
X152264952Y-68081238D01*
X152169714Y-68176476D01*
X152074476Y-68224095D01*
X150637642Y-60556380D02*
X150304309Y-60080190D01*
X150066214Y-60556380D02*
X150066214Y-59556380D01*
X150447166Y-59556380D01*
X150542404Y-59604000D01*
X150590023Y-59651619D01*
X150637642Y-59746857D01*
X150637642Y-59889714D01*
X150590023Y-59984952D01*
X150542404Y-60032571D01*
X150447166Y-60080190D01*
X150066214Y-60080190D01*
X151018595Y-59651619D02*
X151066214Y-59604000D01*
X151161452Y-59556380D01*
X151399547Y-59556380D01*
X151494785Y-59604000D01*
X151542404Y-59651619D01*
X151590023Y-59746857D01*
X151590023Y-59842095D01*
X151542404Y-59984952D01*
X150970976Y-60556380D01*
X151590023Y-60556380D01*
X151970976Y-59651619D02*
X152018595Y-59604000D01*
X152113833Y-59556380D01*
X152351928Y-59556380D01*
X152447166Y-59604000D01*
X152494785Y-59651619D01*
X152542404Y-59746857D01*
X152542404Y-59842095D01*
X152494785Y-59984952D01*
X151923357Y-60556380D01*
X152542404Y-60556380D01*
X129832380Y-66174857D02*
X129356190Y-66508190D01*
X129832380Y-66746285D02*
X128832380Y-66746285D01*
X128832380Y-66365333D01*
X128880000Y-66270095D01*
X128927619Y-66222476D01*
X129022857Y-66174857D01*
X129165714Y-66174857D01*
X129260952Y-66222476D01*
X129308571Y-66270095D01*
X129356190Y-66365333D01*
X129356190Y-66746285D01*
X128832380Y-65841523D02*
X128832380Y-65222476D01*
X129213333Y-65555809D01*
X129213333Y-65412952D01*
X129260952Y-65317714D01*
X129308571Y-65270095D01*
X129403809Y-65222476D01*
X129641904Y-65222476D01*
X129737142Y-65270095D01*
X129784761Y-65317714D01*
X129832380Y-65412952D01*
X129832380Y-65698666D01*
X129784761Y-65793904D01*
X129737142Y-65841523D01*
X128832380Y-64889142D02*
X128832380Y-64270095D01*
X129213333Y-64603428D01*
X129213333Y-64460571D01*
X129260952Y-64365333D01*
X129308571Y-64317714D01*
X129403809Y-64270095D01*
X129641904Y-64270095D01*
X129737142Y-64317714D01*
X129784761Y-64365333D01*
X129832380Y-64460571D01*
X129832380Y-64746285D01*
X129784761Y-64841523D01*
X129737142Y-64889142D01*
X157702642Y-46840380D02*
X157369309Y-46364190D01*
X157131214Y-46840380D02*
X157131214Y-45840380D01*
X157512166Y-45840380D01*
X157607404Y-45888000D01*
X157655023Y-45935619D01*
X157702642Y-46030857D01*
X157702642Y-46173714D01*
X157655023Y-46268952D01*
X157607404Y-46316571D01*
X157512166Y-46364190D01*
X157131214Y-46364190D01*
X158559785Y-46173714D02*
X158559785Y-46840380D01*
X158321690Y-45792761D02*
X158083595Y-46507047D01*
X158702642Y-46507047D01*
X159607404Y-46840380D02*
X159035976Y-46840380D01*
X159321690Y-46840380D02*
X159321690Y-45840380D01*
X159226452Y-45983238D01*
X159131214Y-46078476D01*
X159035976Y-46126095D01*
X113769761Y-69127619D02*
X113674523Y-69080000D01*
X113579285Y-68984761D01*
X113436428Y-68841904D01*
X113341190Y-68794285D01*
X113245952Y-68794285D01*
X113293571Y-69032380D02*
X113198333Y-68984761D01*
X113103095Y-68889523D01*
X113055476Y-68699047D01*
X113055476Y-68365714D01*
X113103095Y-68175238D01*
X113198333Y-68080000D01*
X113293571Y-68032380D01*
X113484047Y-68032380D01*
X113579285Y-68080000D01*
X113674523Y-68175238D01*
X113722142Y-68365714D01*
X113722142Y-68699047D01*
X113674523Y-68889523D01*
X113579285Y-68984761D01*
X113484047Y-69032380D01*
X113293571Y-69032380D01*
X114626904Y-68032380D02*
X114150714Y-68032380D01*
X114103095Y-68508571D01*
X114150714Y-68460952D01*
X114245952Y-68413333D01*
X114484047Y-68413333D01*
X114579285Y-68460952D01*
X114626904Y-68508571D01*
X114674523Y-68603809D01*
X114674523Y-68841904D01*
X114626904Y-68937142D01*
X114579285Y-68984761D01*
X114484047Y-69032380D01*
X114245952Y-69032380D01*
X114150714Y-68984761D01*
X114103095Y-68937142D01*
X165727142Y-78684380D02*
X165393809Y-78208190D01*
X165155714Y-78684380D02*
X165155714Y-77684380D01*
X165536666Y-77684380D01*
X165631904Y-77732000D01*
X165679523Y-77779619D01*
X165727142Y-77874857D01*
X165727142Y-78017714D01*
X165679523Y-78112952D01*
X165631904Y-78160571D01*
X165536666Y-78208190D01*
X165155714Y-78208190D01*
X166060476Y-77684380D02*
X166679523Y-77684380D01*
X166346190Y-78065333D01*
X166489047Y-78065333D01*
X166584285Y-78112952D01*
X166631904Y-78160571D01*
X166679523Y-78255809D01*
X166679523Y-78493904D01*
X166631904Y-78589142D01*
X166584285Y-78636761D01*
X166489047Y-78684380D01*
X166203333Y-78684380D01*
X166108095Y-78636761D01*
X166060476Y-78589142D01*
X167536666Y-78017714D02*
X167536666Y-78684380D01*
X167298571Y-77636761D02*
X167060476Y-78351047D01*
X167679523Y-78351047D01*
X119538761Y-56387619D02*
X119443523Y-56340000D01*
X119348285Y-56244761D01*
X119205428Y-56101904D01*
X119110190Y-56054285D01*
X119014952Y-56054285D01*
X119062571Y-56292380D02*
X118967333Y-56244761D01*
X118872095Y-56149523D01*
X118824476Y-55959047D01*
X118824476Y-55625714D01*
X118872095Y-55435238D01*
X118967333Y-55340000D01*
X119062571Y-55292380D01*
X119253047Y-55292380D01*
X119348285Y-55340000D01*
X119443523Y-55435238D01*
X119491142Y-55625714D01*
X119491142Y-55959047D01*
X119443523Y-56149523D01*
X119348285Y-56244761D01*
X119253047Y-56292380D01*
X119062571Y-56292380D01*
X120348285Y-55625714D02*
X120348285Y-56292380D01*
X120110190Y-55244761D02*
X119872095Y-55959047D01*
X120491142Y-55959047D01*
X147185142Y-68938380D02*
X146851809Y-68462190D01*
X146613714Y-68938380D02*
X146613714Y-67938380D01*
X146994666Y-67938380D01*
X147089904Y-67986000D01*
X147137523Y-68033619D01*
X147185142Y-68128857D01*
X147185142Y-68271714D01*
X147137523Y-68366952D01*
X147089904Y-68414571D01*
X146994666Y-68462190D01*
X146613714Y-68462190D01*
X148137523Y-68938380D02*
X147566095Y-68938380D01*
X147851809Y-68938380D02*
X147851809Y-67938380D01*
X147756571Y-68081238D01*
X147661333Y-68176476D01*
X147566095Y-68224095D01*
X148756571Y-67938380D02*
X148851809Y-67938380D01*
X148947047Y-67986000D01*
X148994666Y-68033619D01*
X149042285Y-68128857D01*
X149089904Y-68319333D01*
X149089904Y-68557428D01*
X149042285Y-68747904D01*
X148994666Y-68843142D01*
X148947047Y-68890761D01*
X148851809Y-68938380D01*
X148756571Y-68938380D01*
X148661333Y-68890761D01*
X148613714Y-68843142D01*
X148566095Y-68747904D01*
X148518476Y-68557428D01*
X148518476Y-68319333D01*
X148566095Y-68128857D01*
X148613714Y-68033619D01*
X148661333Y-67986000D01*
X148756571Y-67938380D01*
X101384380Y-53982857D02*
X100908190Y-54316190D01*
X101384380Y-54554285D02*
X100384380Y-54554285D01*
X100384380Y-54173333D01*
X100432000Y-54078095D01*
X100479619Y-54030476D01*
X100574857Y-53982857D01*
X100717714Y-53982857D01*
X100812952Y-54030476D01*
X100860571Y-54078095D01*
X100908190Y-54173333D01*
X100908190Y-54554285D01*
X100717714Y-53125714D02*
X101384380Y-53125714D01*
X100336761Y-53363809D02*
X101051047Y-53601904D01*
X101051047Y-52982857D01*
X100717714Y-52173333D02*
X101384380Y-52173333D01*
X100336761Y-52411428D02*
X101051047Y-52649523D01*
X101051047Y-52030476D01*
X154522714Y-73279000D02*
X154159857Y-73533000D01*
X154522714Y-73714428D02*
X153760714Y-73714428D01*
X153760714Y-73424142D01*
X153797000Y-73351571D01*
X153833285Y-73315285D01*
X153905857Y-73279000D01*
X154014714Y-73279000D01*
X154087285Y-73315285D01*
X154123571Y-73351571D01*
X154159857Y-73424142D01*
X154159857Y-73714428D01*
X153760714Y-72625857D02*
X153760714Y-72771000D01*
X153797000Y-72843571D01*
X153833285Y-72879857D01*
X153942142Y-72952428D01*
X154087285Y-72988714D01*
X154377571Y-72988714D01*
X154450142Y-72952428D01*
X154486428Y-72916142D01*
X154522714Y-72843571D01*
X154522714Y-72698428D01*
X154486428Y-72625857D01*
X154450142Y-72589571D01*
X154377571Y-72553285D01*
X154196142Y-72553285D01*
X154123571Y-72589571D01*
X154087285Y-72625857D01*
X154051000Y-72698428D01*
X154051000Y-72843571D01*
X154087285Y-72916142D01*
X154123571Y-72952428D01*
X154196142Y-72988714D01*
X74779333Y-42207142D02*
X74731714Y-42254761D01*
X74588857Y-42302380D01*
X74493619Y-42302380D01*
X74350761Y-42254761D01*
X74255523Y-42159523D01*
X74207904Y-42064285D01*
X74160285Y-41873809D01*
X74160285Y-41730952D01*
X74207904Y-41540476D01*
X74255523Y-41445238D01*
X74350761Y-41350000D01*
X74493619Y-41302380D01*
X74588857Y-41302380D01*
X74731714Y-41350000D01*
X74779333Y-41397619D01*
X75112666Y-41302380D02*
X75779333Y-41302380D01*
X75350761Y-42302380D01*
X134135904Y-90114380D02*
X134135904Y-89114380D01*
X134374000Y-89114380D01*
X134516857Y-89162000D01*
X134612095Y-89257238D01*
X134659714Y-89352476D01*
X134707333Y-89542952D01*
X134707333Y-89685809D01*
X134659714Y-89876285D01*
X134612095Y-89971523D01*
X134516857Y-90066761D01*
X134374000Y-90114380D01*
X134135904Y-90114380D01*
X135564476Y-89447714D02*
X135564476Y-90114380D01*
X135326380Y-89066761D02*
X135088285Y-89781047D01*
X135707333Y-89781047D01*
X134485142Y-88298880D02*
X134151809Y-87822690D01*
X133913714Y-88298880D02*
X133913714Y-87298880D01*
X134294666Y-87298880D01*
X134389904Y-87346500D01*
X134437523Y-87394119D01*
X134485142Y-87489357D01*
X134485142Y-87632214D01*
X134437523Y-87727452D01*
X134389904Y-87775071D01*
X134294666Y-87822690D01*
X133913714Y-87822690D01*
X135342285Y-87632214D02*
X135342285Y-88298880D01*
X135104190Y-87251261D02*
X134866095Y-87965547D01*
X135485142Y-87965547D01*
X136008952Y-87727452D02*
X135913714Y-87679833D01*
X135866095Y-87632214D01*
X135818476Y-87536976D01*
X135818476Y-87489357D01*
X135866095Y-87394119D01*
X135913714Y-87346500D01*
X136008952Y-87298880D01*
X136199428Y-87298880D01*
X136294666Y-87346500D01*
X136342285Y-87394119D01*
X136389904Y-87489357D01*
X136389904Y-87536976D01*
X136342285Y-87632214D01*
X136294666Y-87679833D01*
X136199428Y-87727452D01*
X136008952Y-87727452D01*
X135913714Y-87775071D01*
X135866095Y-87822690D01*
X135818476Y-87917928D01*
X135818476Y-88108404D01*
X135866095Y-88203642D01*
X135913714Y-88251261D01*
X136008952Y-88298880D01*
X136199428Y-88298880D01*
X136294666Y-88251261D01*
X136342285Y-88203642D01*
X136389904Y-88108404D01*
X136389904Y-87917928D01*
X136342285Y-87822690D01*
X136294666Y-87775071D01*
X136199428Y-87727452D01*
X152535047Y-89336571D02*
X152677904Y-89384190D01*
X152725523Y-89431809D01*
X152773142Y-89527047D01*
X152773142Y-89669904D01*
X152725523Y-89765142D01*
X152677904Y-89812761D01*
X152582666Y-89860380D01*
X152201714Y-89860380D01*
X152201714Y-88860380D01*
X152535047Y-88860380D01*
X152630285Y-88908000D01*
X152677904Y-88955619D01*
X152725523Y-89050857D01*
X152725523Y-89146095D01*
X152677904Y-89241333D01*
X152630285Y-89288952D01*
X152535047Y-89336571D01*
X152201714Y-89336571D01*
X153106476Y-88860380D02*
X153773142Y-88860380D01*
X153106476Y-89860380D01*
X153773142Y-89860380D01*
X154106476Y-88955619D02*
X154154095Y-88908000D01*
X154249333Y-88860380D01*
X154487428Y-88860380D01*
X154582666Y-88908000D01*
X154630285Y-88955619D01*
X154677904Y-89050857D01*
X154677904Y-89146095D01*
X154630285Y-89288952D01*
X154058857Y-89860380D01*
X154677904Y-89860380D01*
X148372285Y-80372857D02*
X148662571Y-80469619D01*
X148759333Y-80566380D01*
X148856095Y-80759904D01*
X148856095Y-81050190D01*
X148759333Y-81243714D01*
X148662571Y-81340476D01*
X148469047Y-81437238D01*
X147694952Y-81437238D01*
X147694952Y-79405238D01*
X148372285Y-79405238D01*
X148565809Y-79502000D01*
X148662571Y-79598761D01*
X148759333Y-79792285D01*
X148759333Y-79985809D01*
X148662571Y-80179333D01*
X148565809Y-80276095D01*
X148372285Y-80372857D01*
X147694952Y-80372857D01*
X149726952Y-79405238D02*
X149726952Y-81050190D01*
X149823714Y-81243714D01*
X149920476Y-81340476D01*
X150114000Y-81437238D01*
X150501047Y-81437238D01*
X150694571Y-81340476D01*
X150791333Y-81243714D01*
X150888095Y-81050190D01*
X150888095Y-79405238D01*
X151662190Y-79405238D02*
X153016857Y-79405238D01*
X151662190Y-81437238D01*
X153016857Y-81437238D01*
X153597428Y-79405238D02*
X154952095Y-79405238D01*
X153597428Y-81437238D01*
X154952095Y-81437238D01*
X155726190Y-80372857D02*
X156403523Y-80372857D01*
X156693809Y-81437238D02*
X155726190Y-81437238D01*
X155726190Y-79405238D01*
X156693809Y-79405238D01*
X158725809Y-81437238D02*
X158048476Y-80469619D01*
X157564666Y-81437238D02*
X157564666Y-79405238D01*
X158338761Y-79405238D01*
X158532285Y-79502000D01*
X158629047Y-79598761D01*
X158725809Y-79792285D01*
X158725809Y-80082571D01*
X158629047Y-80276095D01*
X158532285Y-80372857D01*
X158338761Y-80469619D01*
X157564666Y-80469619D01*
X157646142Y-52174380D02*
X157312809Y-51698190D01*
X157074714Y-52174380D02*
X157074714Y-51174380D01*
X157455666Y-51174380D01*
X157550904Y-51222000D01*
X157598523Y-51269619D01*
X157646142Y-51364857D01*
X157646142Y-51507714D01*
X157598523Y-51602952D01*
X157550904Y-51650571D01*
X157455666Y-51698190D01*
X157074714Y-51698190D01*
X157979476Y-51174380D02*
X158598523Y-51174380D01*
X158265190Y-51555333D01*
X158408047Y-51555333D01*
X158503285Y-51602952D01*
X158550904Y-51650571D01*
X158598523Y-51745809D01*
X158598523Y-51983904D01*
X158550904Y-52079142D01*
X158503285Y-52126761D01*
X158408047Y-52174380D01*
X158122333Y-52174380D01*
X158027095Y-52126761D01*
X157979476Y-52079142D01*
X158931857Y-51174380D02*
X159598523Y-51174380D01*
X159169952Y-52174380D01*
X157752142Y-65876714D02*
X157498142Y-65513857D01*
X157316714Y-65876714D02*
X157316714Y-65114714D01*
X157607000Y-65114714D01*
X157679571Y-65151000D01*
X157715857Y-65187285D01*
X157752142Y-65259857D01*
X157752142Y-65368714D01*
X157715857Y-65441285D01*
X157679571Y-65477571D01*
X157607000Y-65513857D01*
X157316714Y-65513857D01*
X158477857Y-65876714D02*
X158042428Y-65876714D01*
X158260142Y-65876714D02*
X158260142Y-65114714D01*
X158187571Y-65223571D01*
X158115000Y-65296142D01*
X158042428Y-65332428D01*
X158913285Y-65441285D02*
X158840714Y-65405000D01*
X158804428Y-65368714D01*
X158768142Y-65296142D01*
X158768142Y-65259857D01*
X158804428Y-65187285D01*
X158840714Y-65151000D01*
X158913285Y-65114714D01*
X159058428Y-65114714D01*
X159131000Y-65151000D01*
X159167285Y-65187285D01*
X159203571Y-65259857D01*
X159203571Y-65296142D01*
X159167285Y-65368714D01*
X159131000Y-65405000D01*
X159058428Y-65441285D01*
X158913285Y-65441285D01*
X158840714Y-65477571D01*
X158804428Y-65513857D01*
X158768142Y-65586428D01*
X158768142Y-65731571D01*
X158804428Y-65804142D01*
X158840714Y-65840428D01*
X158913285Y-65876714D01*
X159058428Y-65876714D01*
X159131000Y-65840428D01*
X159167285Y-65804142D01*
X159203571Y-65731571D01*
X159203571Y-65586428D01*
X159167285Y-65513857D01*
X159131000Y-65477571D01*
X159058428Y-65441285D01*
X154522714Y-65513857D02*
X154159857Y-65767857D01*
X154522714Y-65949285D02*
X153760714Y-65949285D01*
X153760714Y-65659000D01*
X153797000Y-65586428D01*
X153833285Y-65550142D01*
X153905857Y-65513857D01*
X154014714Y-65513857D01*
X154087285Y-65550142D01*
X154123571Y-65586428D01*
X154159857Y-65659000D01*
X154159857Y-65949285D01*
X154522714Y-64788142D02*
X154522714Y-65223571D01*
X154522714Y-65005857D02*
X153760714Y-65005857D01*
X153869571Y-65078428D01*
X153942142Y-65151000D01*
X153978428Y-65223571D01*
X154014714Y-64135000D02*
X154522714Y-64135000D01*
X153724428Y-64316428D02*
X154268714Y-64497857D01*
X154268714Y-64026142D01*
X105949904Y-48376380D02*
X105949904Y-49185904D01*
X105997523Y-49281142D01*
X106045142Y-49328761D01*
X106140380Y-49376380D01*
X106330857Y-49376380D01*
X106426095Y-49328761D01*
X106473714Y-49281142D01*
X106521333Y-49185904D01*
X106521333Y-48376380D01*
X107521333Y-49376380D02*
X106949904Y-49376380D01*
X107235619Y-49376380D02*
X107235619Y-48376380D01*
X107140380Y-48519238D01*
X107045142Y-48614476D01*
X106949904Y-48662095D01*
X108140380Y-48376380D02*
X108235619Y-48376380D01*
X108330857Y-48424000D01*
X108378476Y-48471619D01*
X108426095Y-48566857D01*
X108473714Y-48757333D01*
X108473714Y-48995428D01*
X108426095Y-49185904D01*
X108378476Y-49281142D01*
X108330857Y-49328761D01*
X108235619Y-49376380D01*
X108140380Y-49376380D01*
X108045142Y-49328761D01*
X107997523Y-49281142D01*
X107949904Y-49185904D01*
X107902285Y-48995428D01*
X107902285Y-48757333D01*
X107949904Y-48566857D01*
X107997523Y-48471619D01*
X108045142Y-48424000D01*
X108140380Y-48376380D01*
X156329142Y-31948380D02*
X155995809Y-31472190D01*
X155757714Y-31948380D02*
X155757714Y-30948380D01*
X156138666Y-30948380D01*
X156233904Y-30996000D01*
X156281523Y-31043619D01*
X156329142Y-31138857D01*
X156329142Y-31281714D01*
X156281523Y-31376952D01*
X156233904Y-31424571D01*
X156138666Y-31472190D01*
X155757714Y-31472190D01*
X157281523Y-31948380D02*
X156710095Y-31948380D01*
X156995809Y-31948380D02*
X156995809Y-30948380D01*
X156900571Y-31091238D01*
X156805333Y-31186476D01*
X156710095Y-31234095D01*
X158138666Y-30948380D02*
X157948190Y-30948380D01*
X157852952Y-30996000D01*
X157805333Y-31043619D01*
X157710095Y-31186476D01*
X157662476Y-31376952D01*
X157662476Y-31757904D01*
X157710095Y-31853142D01*
X157757714Y-31900761D01*
X157852952Y-31948380D01*
X158043428Y-31948380D01*
X158138666Y-31900761D01*
X158186285Y-31853142D01*
X158233904Y-31757904D01*
X158233904Y-31519809D01*
X158186285Y-31424571D01*
X158138666Y-31376952D01*
X158043428Y-31329333D01*
X157852952Y-31329333D01*
X157757714Y-31376952D01*
X157710095Y-31424571D01*
X157662476Y-31519809D01*
X112585190Y-81305142D02*
X112537571Y-81352761D01*
X112394714Y-81400380D01*
X112299476Y-81400380D01*
X112156619Y-81352761D01*
X112061380Y-81257523D01*
X112013761Y-81162285D01*
X111966142Y-80971809D01*
X111966142Y-80828952D01*
X112013761Y-80638476D01*
X112061380Y-80543238D01*
X112156619Y-80448000D01*
X112299476Y-80400380D01*
X112394714Y-80400380D01*
X112537571Y-80448000D01*
X112585190Y-80495619D01*
X113156619Y-81400380D02*
X113061380Y-81352761D01*
X113013761Y-81305142D01*
X112966142Y-81209904D01*
X112966142Y-80924190D01*
X113013761Y-80828952D01*
X113061380Y-80781333D01*
X113156619Y-80733714D01*
X113299476Y-80733714D01*
X113394714Y-80781333D01*
X113442333Y-80828952D01*
X113489952Y-80924190D01*
X113489952Y-81209904D01*
X113442333Y-81305142D01*
X113394714Y-81352761D01*
X113299476Y-81400380D01*
X113156619Y-81400380D01*
X113918523Y-80733714D02*
X113918523Y-81400380D01*
X113918523Y-80828952D02*
X113966142Y-80781333D01*
X114061380Y-80733714D01*
X114204238Y-80733714D01*
X114299476Y-80781333D01*
X114347095Y-80876571D01*
X114347095Y-81400380D01*
X114823285Y-80733714D02*
X114823285Y-81400380D01*
X114823285Y-80828952D02*
X114870904Y-80781333D01*
X114966142Y-80733714D01*
X115109000Y-80733714D01*
X115204238Y-80781333D01*
X115251857Y-80876571D01*
X115251857Y-81400380D01*
X115680428Y-80495619D02*
X115728047Y-80448000D01*
X115823285Y-80400380D01*
X116061380Y-80400380D01*
X116156619Y-80448000D01*
X116204238Y-80495619D01*
X116251857Y-80590857D01*
X116251857Y-80686095D01*
X116204238Y-80828952D01*
X115632809Y-81400380D01*
X116251857Y-81400380D01*
X134135904Y-68778380D02*
X134135904Y-67778380D01*
X134374000Y-67778380D01*
X134516857Y-67826000D01*
X134612095Y-67921238D01*
X134659714Y-68016476D01*
X134707333Y-68206952D01*
X134707333Y-68349809D01*
X134659714Y-68540285D01*
X134612095Y-68635523D01*
X134516857Y-68730761D01*
X134374000Y-68778380D01*
X134135904Y-68778380D01*
X135564476Y-67778380D02*
X135374000Y-67778380D01*
X135278761Y-67826000D01*
X135231142Y-67873619D01*
X135135904Y-68016476D01*
X135088285Y-68206952D01*
X135088285Y-68587904D01*
X135135904Y-68683142D01*
X135183523Y-68730761D01*
X135278761Y-68778380D01*
X135469238Y-68778380D01*
X135564476Y-68730761D01*
X135612095Y-68683142D01*
X135659714Y-68587904D01*
X135659714Y-68349809D01*
X135612095Y-68254571D01*
X135564476Y-68206952D01*
X135469238Y-68159333D01*
X135278761Y-68159333D01*
X135183523Y-68206952D01*
X135135904Y-68254571D01*
X135088285Y-68349809D01*
X103387380Y-85861904D02*
X104196904Y-85861904D01*
X104292142Y-85814285D01*
X104339761Y-85766666D01*
X104387380Y-85671428D01*
X104387380Y-85480952D01*
X104339761Y-85385714D01*
X104292142Y-85338095D01*
X104196904Y-85290476D01*
X103387380Y-85290476D01*
X103387380Y-84909523D02*
X103387380Y-84242857D01*
X104387380Y-84671428D01*
X134485142Y-91892380D02*
X134151809Y-91416190D01*
X133913714Y-91892380D02*
X133913714Y-90892380D01*
X134294666Y-90892380D01*
X134389904Y-90940000D01*
X134437523Y-90987619D01*
X134485142Y-91082857D01*
X134485142Y-91225714D01*
X134437523Y-91320952D01*
X134389904Y-91368571D01*
X134294666Y-91416190D01*
X133913714Y-91416190D01*
X134866095Y-90987619D02*
X134913714Y-90940000D01*
X135008952Y-90892380D01*
X135247047Y-90892380D01*
X135342285Y-90940000D01*
X135389904Y-90987619D01*
X135437523Y-91082857D01*
X135437523Y-91178095D01*
X135389904Y-91320952D01*
X134818476Y-91892380D01*
X135437523Y-91892380D01*
X136342285Y-90892380D02*
X135866095Y-90892380D01*
X135818476Y-91368571D01*
X135866095Y-91320952D01*
X135961333Y-91273333D01*
X136199428Y-91273333D01*
X136294666Y-91320952D01*
X136342285Y-91368571D01*
X136389904Y-91463809D01*
X136389904Y-91701904D01*
X136342285Y-91797142D01*
X136294666Y-91844761D01*
X136199428Y-91892380D01*
X135961333Y-91892380D01*
X135866095Y-91844761D01*
X135818476Y-91797142D01*
X134485142Y-77668380D02*
X134151809Y-77192190D01*
X133913714Y-77668380D02*
X133913714Y-76668380D01*
X134294666Y-76668380D01*
X134389904Y-76716000D01*
X134437523Y-76763619D01*
X134485142Y-76858857D01*
X134485142Y-77001714D01*
X134437523Y-77096952D01*
X134389904Y-77144571D01*
X134294666Y-77192190D01*
X133913714Y-77192190D01*
X134866095Y-76763619D02*
X134913714Y-76716000D01*
X135008952Y-76668380D01*
X135247047Y-76668380D01*
X135342285Y-76716000D01*
X135389904Y-76763619D01*
X135437523Y-76858857D01*
X135437523Y-76954095D01*
X135389904Y-77096952D01*
X134818476Y-77668380D01*
X135437523Y-77668380D01*
X136294666Y-76668380D02*
X136104190Y-76668380D01*
X136008952Y-76716000D01*
X135961333Y-76763619D01*
X135866095Y-76906476D01*
X135818476Y-77096952D01*
X135818476Y-77477904D01*
X135866095Y-77573142D01*
X135913714Y-77620761D01*
X136008952Y-77668380D01*
X136199428Y-77668380D01*
X136294666Y-77620761D01*
X136342285Y-77573142D01*
X136389904Y-77477904D01*
X136389904Y-77239809D01*
X136342285Y-77144571D01*
X136294666Y-77096952D01*
X136199428Y-77049333D01*
X136008952Y-77049333D01*
X135913714Y-77096952D01*
X135866095Y-77144571D01*
X135818476Y-77239809D01*
X134485142Y-84780380D02*
X134151809Y-84304190D01*
X133913714Y-84780380D02*
X133913714Y-83780380D01*
X134294666Y-83780380D01*
X134389904Y-83828000D01*
X134437523Y-83875619D01*
X134485142Y-83970857D01*
X134485142Y-84113714D01*
X134437523Y-84208952D01*
X134389904Y-84256571D01*
X134294666Y-84304190D01*
X133913714Y-84304190D01*
X135342285Y-84113714D02*
X135342285Y-84780380D01*
X135104190Y-83732761D02*
X134866095Y-84447047D01*
X135485142Y-84447047D01*
X135770857Y-83780380D02*
X136437523Y-83780380D01*
X136008952Y-84780380D01*
X147185142Y-52174380D02*
X146851809Y-51698190D01*
X146613714Y-52174380D02*
X146613714Y-51174380D01*
X146994666Y-51174380D01*
X147089904Y-51222000D01*
X147137523Y-51269619D01*
X147185142Y-51364857D01*
X147185142Y-51507714D01*
X147137523Y-51602952D01*
X147089904Y-51650571D01*
X146994666Y-51698190D01*
X146613714Y-51698190D01*
X147518476Y-51174380D02*
X148137523Y-51174380D01*
X147804190Y-51555333D01*
X147947047Y-51555333D01*
X148042285Y-51602952D01*
X148089904Y-51650571D01*
X148137523Y-51745809D01*
X148137523Y-51983904D01*
X148089904Y-52079142D01*
X148042285Y-52126761D01*
X147947047Y-52174380D01*
X147661333Y-52174380D01*
X147566095Y-52126761D01*
X147518476Y-52079142D01*
X149042285Y-51174380D02*
X148566095Y-51174380D01*
X148518476Y-51650571D01*
X148566095Y-51602952D01*
X148661333Y-51555333D01*
X148899428Y-51555333D01*
X148994666Y-51602952D01*
X149042285Y-51650571D01*
X149089904Y-51745809D01*
X149089904Y-51983904D01*
X149042285Y-52079142D01*
X148994666Y-52126761D01*
X148899428Y-52174380D01*
X148661333Y-52174380D01*
X148566095Y-52126761D01*
X148518476Y-52079142D01*
X133881904Y-86520880D02*
X133881904Y-85520880D01*
X134120000Y-85520880D01*
X134262857Y-85568500D01*
X134358095Y-85663738D01*
X134405714Y-85758976D01*
X134453333Y-85949452D01*
X134453333Y-86092309D01*
X134405714Y-86282785D01*
X134358095Y-86378023D01*
X134262857Y-86473261D01*
X134120000Y-86520880D01*
X133881904Y-86520880D01*
X134786666Y-85520880D02*
X135405714Y-85520880D01*
X135072380Y-85901833D01*
X135215238Y-85901833D01*
X135310476Y-85949452D01*
X135358095Y-85997071D01*
X135405714Y-86092309D01*
X135405714Y-86330404D01*
X135358095Y-86425642D01*
X135310476Y-86473261D01*
X135215238Y-86520880D01*
X134929523Y-86520880D01*
X134834285Y-86473261D01*
X134786666Y-86425642D01*
X157752142Y-57494714D02*
X157498142Y-57131857D01*
X157316714Y-57494714D02*
X157316714Y-56732714D01*
X157607000Y-56732714D01*
X157679571Y-56769000D01*
X157715857Y-56805285D01*
X157752142Y-56877857D01*
X157752142Y-56986714D01*
X157715857Y-57059285D01*
X157679571Y-57095571D01*
X157607000Y-57131857D01*
X157316714Y-57131857D01*
X158006142Y-56732714D02*
X158477857Y-56732714D01*
X158223857Y-57023000D01*
X158332714Y-57023000D01*
X158405285Y-57059285D01*
X158441571Y-57095571D01*
X158477857Y-57168142D01*
X158477857Y-57349571D01*
X158441571Y-57422142D01*
X158405285Y-57458428D01*
X158332714Y-57494714D01*
X158115000Y-57494714D01*
X158042428Y-57458428D01*
X158006142Y-57422142D01*
X158949571Y-56732714D02*
X159022142Y-56732714D01*
X159094714Y-56769000D01*
X159131000Y-56805285D01*
X159167285Y-56877857D01*
X159203571Y-57023000D01*
X159203571Y-57204428D01*
X159167285Y-57349571D01*
X159131000Y-57422142D01*
X159094714Y-57458428D01*
X159022142Y-57494714D01*
X158949571Y-57494714D01*
X158877000Y-57458428D01*
X158840714Y-57422142D01*
X158804428Y-57349571D01*
X158768142Y-57204428D01*
X158768142Y-57023000D01*
X158804428Y-56877857D01*
X158840714Y-56805285D01*
X158877000Y-56769000D01*
X158949571Y-56732714D01*
X158075333Y-77320380D02*
X157742000Y-76844190D01*
X157503904Y-77320380D02*
X157503904Y-76320380D01*
X157884857Y-76320380D01*
X157980095Y-76368000D01*
X158027714Y-76415619D01*
X158075333Y-76510857D01*
X158075333Y-76653714D01*
X158027714Y-76748952D01*
X157980095Y-76796571D01*
X157884857Y-76844190D01*
X157503904Y-76844190D01*
X158932476Y-76653714D02*
X158932476Y-77320380D01*
X158694380Y-76272761D02*
X158456285Y-76987047D01*
X159075333Y-76987047D01*
X148844095Y-62952380D02*
X148844095Y-63761904D01*
X148891714Y-63857142D01*
X148939333Y-63904761D01*
X149034571Y-63952380D01*
X149225047Y-63952380D01*
X149320285Y-63904761D01*
X149367904Y-63857142D01*
X149415523Y-63761904D01*
X149415523Y-62952380D01*
X150320285Y-63285714D02*
X150320285Y-63952380D01*
X150082190Y-62904761D02*
X149844095Y-63619047D01*
X150463142Y-63619047D01*
X148844095Y-54443380D02*
X148844095Y-55252904D01*
X148891714Y-55348142D01*
X148939333Y-55395761D01*
X149034571Y-55443380D01*
X149225047Y-55443380D01*
X149320285Y-55395761D01*
X149367904Y-55348142D01*
X149415523Y-55252904D01*
X149415523Y-54443380D01*
X150367904Y-54443380D02*
X149891714Y-54443380D01*
X149844095Y-54919571D01*
X149891714Y-54871952D01*
X149986952Y-54824333D01*
X150225047Y-54824333D01*
X150320285Y-54871952D01*
X150367904Y-54919571D01*
X150415523Y-55014809D01*
X150415523Y-55252904D01*
X150367904Y-55348142D01*
X150320285Y-55395761D01*
X150225047Y-55443380D01*
X149986952Y-55443380D01*
X149891714Y-55395761D01*
X149844095Y-55348142D01*
X133881904Y-72334380D02*
X133881904Y-71334380D01*
X134120000Y-71334380D01*
X134262857Y-71382000D01*
X134358095Y-71477238D01*
X134405714Y-71572476D01*
X134453333Y-71762952D01*
X134453333Y-71905809D01*
X134405714Y-72096285D01*
X134358095Y-72191523D01*
X134262857Y-72286761D01*
X134120000Y-72334380D01*
X133881904Y-72334380D01*
X134786666Y-71334380D02*
X135453333Y-71334380D01*
X135024761Y-72334380D01*
X136048761Y-64301619D02*
X135953523Y-64254000D01*
X135858285Y-64158761D01*
X135715428Y-64015904D01*
X135620190Y-63968285D01*
X135524952Y-63968285D01*
X135572571Y-64206380D02*
X135477333Y-64158761D01*
X135382095Y-64063523D01*
X135334476Y-63873047D01*
X135334476Y-63539714D01*
X135382095Y-63349238D01*
X135477333Y-63254000D01*
X135572571Y-63206380D01*
X135763047Y-63206380D01*
X135858285Y-63254000D01*
X135953523Y-63349238D01*
X136001142Y-63539714D01*
X136001142Y-63873047D01*
X135953523Y-64063523D01*
X135858285Y-64158761D01*
X135763047Y-64206380D01*
X135572571Y-64206380D01*
X136382095Y-63301619D02*
X136429714Y-63254000D01*
X136524952Y-63206380D01*
X136763047Y-63206380D01*
X136858285Y-63254000D01*
X136905904Y-63301619D01*
X136953523Y-63396857D01*
X136953523Y-63492095D01*
X136905904Y-63634952D01*
X136334476Y-64206380D01*
X136953523Y-64206380D01*
X93051333Y-50903142D02*
X93003714Y-50950761D01*
X92860857Y-50998380D01*
X92765619Y-50998380D01*
X92622761Y-50950761D01*
X92527523Y-50855523D01*
X92479904Y-50760285D01*
X92432285Y-50569809D01*
X92432285Y-50426952D01*
X92479904Y-50236476D01*
X92527523Y-50141238D01*
X92622761Y-50046000D01*
X92765619Y-49998380D01*
X92860857Y-49998380D01*
X93003714Y-50046000D01*
X93051333Y-50093619D01*
X93956095Y-49998380D02*
X93479904Y-49998380D01*
X93432285Y-50474571D01*
X93479904Y-50426952D01*
X93575142Y-50379333D01*
X93813238Y-50379333D01*
X93908476Y-50426952D01*
X93956095Y-50474571D01*
X94003714Y-50569809D01*
X94003714Y-50807904D01*
X93956095Y-50903142D01*
X93908476Y-50950761D01*
X93813238Y-50998380D01*
X93575142Y-50998380D01*
X93479904Y-50950761D01*
X93432285Y-50903142D01*
X133881904Y-75890380D02*
X133881904Y-74890380D01*
X134120000Y-74890380D01*
X134262857Y-74938000D01*
X134358095Y-75033238D01*
X134405714Y-75128476D01*
X134453333Y-75318952D01*
X134453333Y-75461809D01*
X134405714Y-75652285D01*
X134358095Y-75747523D01*
X134262857Y-75842761D01*
X134120000Y-75890380D01*
X133881904Y-75890380D01*
X135358095Y-74890380D02*
X134881904Y-74890380D01*
X134834285Y-75366571D01*
X134881904Y-75318952D01*
X134977142Y-75271333D01*
X135215238Y-75271333D01*
X135310476Y-75318952D01*
X135358095Y-75366571D01*
X135405714Y-75461809D01*
X135405714Y-75699904D01*
X135358095Y-75795142D01*
X135310476Y-75842761D01*
X135215238Y-75890380D01*
X134977142Y-75890380D01*
X134881904Y-75842761D01*
X134834285Y-75795142D01*
X147661333Y-77320380D02*
X147328000Y-76844190D01*
X147089904Y-77320380D02*
X147089904Y-76320380D01*
X147470857Y-76320380D01*
X147566095Y-76368000D01*
X147613714Y-76415619D01*
X147661333Y-76510857D01*
X147661333Y-76653714D01*
X147613714Y-76748952D01*
X147566095Y-76796571D01*
X147470857Y-76844190D01*
X147089904Y-76844190D01*
X148042285Y-76415619D02*
X148089904Y-76368000D01*
X148185142Y-76320380D01*
X148423238Y-76320380D01*
X148518476Y-76368000D01*
X148566095Y-76415619D01*
X148613714Y-76510857D01*
X148613714Y-76606095D01*
X148566095Y-76748952D01*
X147994666Y-77320380D01*
X148613714Y-77320380D01*
X157599142Y-54968380D02*
X157265809Y-54492190D01*
X157027714Y-54968380D02*
X157027714Y-53968380D01*
X157408666Y-53968380D01*
X157503904Y-54016000D01*
X157551523Y-54063619D01*
X157599142Y-54158857D01*
X157599142Y-54301714D01*
X157551523Y-54396952D01*
X157503904Y-54444571D01*
X157408666Y-54492190D01*
X157027714Y-54492190D01*
X157932476Y-53968380D02*
X158551523Y-53968380D01*
X158218190Y-54349333D01*
X158361047Y-54349333D01*
X158456285Y-54396952D01*
X158503904Y-54444571D01*
X158551523Y-54539809D01*
X158551523Y-54777904D01*
X158503904Y-54873142D01*
X158456285Y-54920761D01*
X158361047Y-54968380D01*
X158075333Y-54968380D01*
X157980095Y-54920761D01*
X157932476Y-54873142D01*
X159503904Y-54968380D02*
X158932476Y-54968380D01*
X159218190Y-54968380D02*
X159218190Y-53968380D01*
X159122952Y-54111238D01*
X159027714Y-54206476D01*
X158932476Y-54254095D01*
X147185142Y-60556380D02*
X146851809Y-60080190D01*
X146613714Y-60556380D02*
X146613714Y-59556380D01*
X146994666Y-59556380D01*
X147089904Y-59604000D01*
X147137523Y-59651619D01*
X147185142Y-59746857D01*
X147185142Y-59889714D01*
X147137523Y-59984952D01*
X147089904Y-60032571D01*
X146994666Y-60080190D01*
X146613714Y-60080190D01*
X147566095Y-59651619D02*
X147613714Y-59604000D01*
X147708952Y-59556380D01*
X147947047Y-59556380D01*
X148042285Y-59604000D01*
X148089904Y-59651619D01*
X148137523Y-59746857D01*
X148137523Y-59842095D01*
X148089904Y-59984952D01*
X147518476Y-60556380D01*
X148137523Y-60556380D01*
X149089904Y-60556380D02*
X148518476Y-60556380D01*
X148804190Y-60556380D02*
X148804190Y-59556380D01*
X148708952Y-59699238D01*
X148613714Y-59794476D01*
X148518476Y-59842095D01*
X134135904Y-83002380D02*
X134135904Y-82002380D01*
X134374000Y-82002380D01*
X134516857Y-82050000D01*
X134612095Y-82145238D01*
X134659714Y-82240476D01*
X134707333Y-82430952D01*
X134707333Y-82573809D01*
X134659714Y-82764285D01*
X134612095Y-82859523D01*
X134516857Y-82954761D01*
X134374000Y-83002380D01*
X134135904Y-83002380D01*
X135088285Y-82097619D02*
X135135904Y-82050000D01*
X135231142Y-82002380D01*
X135469238Y-82002380D01*
X135564476Y-82050000D01*
X135612095Y-82097619D01*
X135659714Y-82192857D01*
X135659714Y-82288095D01*
X135612095Y-82430952D01*
X135040666Y-83002380D01*
X135659714Y-83002380D01*
X156046714Y-57131857D02*
X155683857Y-57385857D01*
X156046714Y-57567285D02*
X155284714Y-57567285D01*
X155284714Y-57277000D01*
X155321000Y-57204428D01*
X155357285Y-57168142D01*
X155429857Y-57131857D01*
X155538714Y-57131857D01*
X155611285Y-57168142D01*
X155647571Y-57204428D01*
X155683857Y-57277000D01*
X155683857Y-57567285D01*
X155284714Y-56877857D02*
X155284714Y-56406142D01*
X155575000Y-56660142D01*
X155575000Y-56551285D01*
X155611285Y-56478714D01*
X155647571Y-56442428D01*
X155720142Y-56406142D01*
X155901571Y-56406142D01*
X155974142Y-56442428D01*
X156010428Y-56478714D01*
X156046714Y-56551285D01*
X156046714Y-56769000D01*
X156010428Y-56841571D01*
X155974142Y-56877857D01*
X155357285Y-56115857D02*
X155321000Y-56079571D01*
X155284714Y-56007000D01*
X155284714Y-55825571D01*
X155321000Y-55753000D01*
X155357285Y-55716714D01*
X155429857Y-55680428D01*
X155502428Y-55680428D01*
X155611285Y-55716714D01*
X156046714Y-56152142D01*
X156046714Y-55680428D01*
X133994904Y-79446380D02*
X133994904Y-78446380D01*
X134233000Y-78446380D01*
X134375857Y-78494000D01*
X134471095Y-78589238D01*
X134518714Y-78684476D01*
X134566333Y-78874952D01*
X134566333Y-79017809D01*
X134518714Y-79208285D01*
X134471095Y-79303523D01*
X134375857Y-79398761D01*
X134233000Y-79446380D01*
X133994904Y-79446380D01*
X135042523Y-79446380D02*
X135233000Y-79446380D01*
X135328238Y-79398761D01*
X135375857Y-79351142D01*
X135471095Y-79208285D01*
X135518714Y-79017809D01*
X135518714Y-78636857D01*
X135471095Y-78541619D01*
X135423476Y-78494000D01*
X135328238Y-78446380D01*
X135137761Y-78446380D01*
X135042523Y-78494000D01*
X134994904Y-78541619D01*
X134947285Y-78636857D01*
X134947285Y-78874952D01*
X134994904Y-78970190D01*
X135042523Y-79017809D01*
X135137761Y-79065428D01*
X135328238Y-79065428D01*
X135423476Y-79017809D01*
X135471095Y-78970190D01*
X135518714Y-78874952D01*
X88225333Y-31947142D02*
X88177714Y-31994761D01*
X88034857Y-32042380D01*
X87939619Y-32042380D01*
X87796761Y-31994761D01*
X87701523Y-31899523D01*
X87653904Y-31804285D01*
X87606285Y-31613809D01*
X87606285Y-31470952D01*
X87653904Y-31280476D01*
X87701523Y-31185238D01*
X87796761Y-31090000D01*
X87939619Y-31042380D01*
X88034857Y-31042380D01*
X88177714Y-31090000D01*
X88225333Y-31137619D01*
X88701523Y-32042380D02*
X88892000Y-32042380D01*
X88987238Y-31994761D01*
X89034857Y-31947142D01*
X89130095Y-31804285D01*
X89177714Y-31613809D01*
X89177714Y-31232857D01*
X89130095Y-31137619D01*
X89082476Y-31090000D01*
X88987238Y-31042380D01*
X88796761Y-31042380D01*
X88701523Y-31090000D01*
X88653904Y-31137619D01*
X88606285Y-31232857D01*
X88606285Y-31470952D01*
X88653904Y-31566190D01*
X88701523Y-31613809D01*
X88796761Y-31661428D01*
X88987238Y-31661428D01*
X89082476Y-31613809D01*
X89130095Y-31566190D01*
X89177714Y-31470952D01*
X108545333Y-47347142D02*
X108497714Y-47394761D01*
X108354857Y-47442380D01*
X108259619Y-47442380D01*
X108116761Y-47394761D01*
X108021523Y-47299523D01*
X107973904Y-47204285D01*
X107926285Y-47013809D01*
X107926285Y-46870952D01*
X107973904Y-46680476D01*
X108021523Y-46585238D01*
X108116761Y-46490000D01*
X108259619Y-46442380D01*
X108354857Y-46442380D01*
X108497714Y-46490000D01*
X108545333Y-46537619D01*
X109402476Y-46442380D02*
X109212000Y-46442380D01*
X109116761Y-46490000D01*
X109069142Y-46537619D01*
X108973904Y-46680476D01*
X108926285Y-46870952D01*
X108926285Y-47251904D01*
X108973904Y-47347142D01*
X109021523Y-47394761D01*
X109116761Y-47442380D01*
X109307238Y-47442380D01*
X109402476Y-47394761D01*
X109450095Y-47347142D01*
X109497714Y-47251904D01*
X109497714Y-47013809D01*
X109450095Y-46918571D01*
X109402476Y-46870952D01*
X109307238Y-46823333D01*
X109116761Y-46823333D01*
X109021523Y-46870952D01*
X108973904Y-46918571D01*
X108926285Y-47013809D01*
X134485142Y-70556380D02*
X134151809Y-70080190D01*
X133913714Y-70556380D02*
X133913714Y-69556380D01*
X134294666Y-69556380D01*
X134389904Y-69604000D01*
X134437523Y-69651619D01*
X134485142Y-69746857D01*
X134485142Y-69889714D01*
X134437523Y-69984952D01*
X134389904Y-70032571D01*
X134294666Y-70080190D01*
X133913714Y-70080190D01*
X134866095Y-69651619D02*
X134913714Y-69604000D01*
X135008952Y-69556380D01*
X135247047Y-69556380D01*
X135342285Y-69604000D01*
X135389904Y-69651619D01*
X135437523Y-69746857D01*
X135437523Y-69842095D01*
X135389904Y-69984952D01*
X134818476Y-70556380D01*
X135437523Y-70556380D01*
X135770857Y-69556380D02*
X136437523Y-69556380D01*
X136008952Y-70556380D01*
X134485142Y-74112380D02*
X134151809Y-73636190D01*
X133913714Y-74112380D02*
X133913714Y-73112380D01*
X134294666Y-73112380D01*
X134389904Y-73160000D01*
X134437523Y-73207619D01*
X134485142Y-73302857D01*
X134485142Y-73445714D01*
X134437523Y-73540952D01*
X134389904Y-73588571D01*
X134294666Y-73636190D01*
X133913714Y-73636190D01*
X134866095Y-73207619D02*
X134913714Y-73160000D01*
X135008952Y-73112380D01*
X135247047Y-73112380D01*
X135342285Y-73160000D01*
X135389904Y-73207619D01*
X135437523Y-73302857D01*
X135437523Y-73398095D01*
X135389904Y-73540952D01*
X134818476Y-74112380D01*
X135437523Y-74112380D01*
X136008952Y-73540952D02*
X135913714Y-73493333D01*
X135866095Y-73445714D01*
X135818476Y-73350476D01*
X135818476Y-73302857D01*
X135866095Y-73207619D01*
X135913714Y-73160000D01*
X136008952Y-73112380D01*
X136199428Y-73112380D01*
X136294666Y-73160000D01*
X136342285Y-73207619D01*
X136389904Y-73302857D01*
X136389904Y-73350476D01*
X136342285Y-73445714D01*
X136294666Y-73493333D01*
X136199428Y-73540952D01*
X136008952Y-73540952D01*
X135913714Y-73588571D01*
X135866095Y-73636190D01*
X135818476Y-73731428D01*
X135818476Y-73921904D01*
X135866095Y-74017142D01*
X135913714Y-74064761D01*
X136008952Y-74112380D01*
X136199428Y-74112380D01*
X136294666Y-74064761D01*
X136342285Y-74017142D01*
X136389904Y-73921904D01*
X136389904Y-73731428D01*
X136342285Y-73636190D01*
X136294666Y-73588571D01*
X136199428Y-73540952D01*
X148809095Y-71207380D02*
X148809095Y-72016904D01*
X148856714Y-72112142D01*
X148904333Y-72159761D01*
X148999571Y-72207380D01*
X149190047Y-72207380D01*
X149285285Y-72159761D01*
X149332904Y-72112142D01*
X149380523Y-72016904D01*
X149380523Y-71207380D01*
X149809095Y-71302619D02*
X149856714Y-71255000D01*
X149951952Y-71207380D01*
X150190047Y-71207380D01*
X150285285Y-71255000D01*
X150332904Y-71302619D01*
X150380523Y-71397857D01*
X150380523Y-71493095D01*
X150332904Y-71635952D01*
X149761476Y-72207380D01*
X150380523Y-72207380D01*
X128389142Y-47950380D02*
X128055809Y-47474190D01*
X127817714Y-47950380D02*
X127817714Y-46950380D01*
X128198666Y-46950380D01*
X128293904Y-46998000D01*
X128341523Y-47045619D01*
X128389142Y-47140857D01*
X128389142Y-47283714D01*
X128341523Y-47378952D01*
X128293904Y-47426571D01*
X128198666Y-47474190D01*
X127817714Y-47474190D01*
X129246285Y-47283714D02*
X129246285Y-47950380D01*
X129008190Y-46902761D02*
X128770095Y-47617047D01*
X129389142Y-47617047D01*
X130198666Y-46950380D02*
X130008190Y-46950380D01*
X129912952Y-46998000D01*
X129865333Y-47045619D01*
X129770095Y-47188476D01*
X129722476Y-47378952D01*
X129722476Y-47759904D01*
X129770095Y-47855142D01*
X129817714Y-47902761D01*
X129912952Y-47950380D01*
X130103428Y-47950380D01*
X130198666Y-47902761D01*
X130246285Y-47855142D01*
X130293904Y-47759904D01*
X130293904Y-47521809D01*
X130246285Y-47426571D01*
X130198666Y-47378952D01*
X130103428Y-47331333D01*
X129912952Y-47331333D01*
X129817714Y-47378952D01*
X129770095Y-47426571D01*
X129722476Y-47521809D01*
D10*
X158496724Y-73166500D02*
X157987276Y-73166500D01*
X158496724Y-72121500D02*
X157987276Y-72121500D01*
X90531733Y-52834000D02*
X90824267Y-52834000D01*
X90531733Y-51814000D02*
X90824267Y-51814000D01*
X155044224Y-74915500D02*
X154534776Y-74915500D01*
X155044224Y-75960500D02*
X154534776Y-75960500D01*
X97853000Y-49628000D02*
X97853000Y-51030000D01*
X97252000Y-53110000D02*
X97252000Y-54639000D01*
X98133000Y-53110000D02*
X98133000Y-54399000D01*
X97372000Y-49514000D02*
X97372000Y-51030000D01*
X98373000Y-49870000D02*
X98373000Y-51030000D01*
X99613000Y-51786000D02*
X99613000Y-52354000D01*
X97292000Y-53110000D02*
X97292000Y-54635000D01*
X98253000Y-49802000D02*
X98253000Y-51030000D01*
X98293000Y-53110000D02*
X98293000Y-54317000D01*
X97212000Y-49497000D02*
X97212000Y-51030000D01*
X98613000Y-53110000D02*
X98613000Y-54105000D01*
X97692000Y-53110000D02*
X97692000Y-54561000D01*
X97853000Y-53110000D02*
X97853000Y-54512000D01*
X98173000Y-49760000D02*
X98173000Y-51030000D01*
X98973000Y-53110000D02*
X98973000Y-53769000D01*
X99053000Y-50465000D02*
X99053000Y-53675000D01*
X97412000Y-49520000D02*
X97412000Y-51030000D01*
X97692000Y-49579000D02*
X97692000Y-51030000D01*
X98693000Y-50099000D02*
X98693000Y-51030000D01*
X98013000Y-49688000D02*
X98013000Y-51030000D01*
X98733000Y-53110000D02*
X98733000Y-54007000D01*
X97572000Y-49550000D02*
X97572000Y-51030000D01*
X99133000Y-50570000D02*
X99133000Y-53570000D01*
X98573000Y-50005000D02*
X98573000Y-51030000D01*
X98813000Y-53110000D02*
X98813000Y-53934000D01*
X97973000Y-53110000D02*
X97973000Y-54468000D01*
X98693000Y-53110000D02*
X98693000Y-54041000D01*
X99253000Y-50751000D02*
X99253000Y-53389000D01*
X97292000Y-49505000D02*
X97292000Y-51030000D01*
X98493000Y-49948000D02*
X98493000Y-51030000D01*
X98333000Y-53110000D02*
X98333000Y-54294000D01*
X99573000Y-51552000D02*
X99573000Y-52588000D01*
X97092000Y-53110000D02*
X97092000Y-54649000D01*
X98093000Y-53110000D02*
X98093000Y-54418000D01*
X97172000Y-49494000D02*
X97172000Y-51030000D01*
X98413000Y-49895000D02*
X98413000Y-51030000D01*
X99493000Y-51265000D02*
X99493000Y-52875000D01*
X98973000Y-50371000D02*
X98973000Y-51030000D01*
X97332000Y-49509000D02*
X97332000Y-51030000D01*
X97452000Y-53110000D02*
X97452000Y-54613000D01*
X97813000Y-53110000D02*
X97813000Y-54525000D01*
X99413000Y-51059000D02*
X99413000Y-53081000D01*
X97652000Y-49569000D02*
X97652000Y-51030000D01*
X97012000Y-53110000D02*
X97012000Y-54650000D01*
X98893000Y-53110000D02*
X98893000Y-53855000D01*
X98253000Y-53110000D02*
X98253000Y-54338000D01*
X98613000Y-50035000D02*
X98613000Y-51030000D01*
X99093000Y-50516000D02*
X99093000Y-53624000D01*
X98173000Y-53110000D02*
X98173000Y-54380000D01*
X97532000Y-53110000D02*
X97532000Y-54598000D01*
X97492000Y-49534000D02*
X97492000Y-51030000D01*
X97132000Y-53110000D02*
X97132000Y-54648000D01*
X98773000Y-53110000D02*
X98773000Y-53971000D01*
X98133000Y-49741000D02*
X98133000Y-51030000D01*
X97132000Y-49492000D02*
X97132000Y-51030000D01*
X99293000Y-50819000D02*
X99293000Y-53321000D01*
X98453000Y-49921000D02*
X98453000Y-51030000D01*
X97652000Y-53110000D02*
X97652000Y-54571000D01*
X98813000Y-50206000D02*
X98813000Y-51030000D01*
X97252000Y-49501000D02*
X97252000Y-51030000D01*
X97572000Y-53110000D02*
X97572000Y-54590000D01*
X98893000Y-50285000D02*
X98893000Y-51030000D01*
X97012000Y-49490000D02*
X97012000Y-51030000D01*
X99213000Y-50687000D02*
X99213000Y-53453000D01*
X97372000Y-53110000D02*
X97372000Y-54626000D01*
X99013000Y-50417000D02*
X99013000Y-51030000D01*
X98093000Y-49722000D02*
X98093000Y-51030000D01*
X97052000Y-53110000D02*
X97052000Y-54650000D01*
X98053000Y-53110000D02*
X98053000Y-54435000D01*
X98413000Y-53110000D02*
X98413000Y-54245000D01*
X97933000Y-49656000D02*
X97933000Y-51030000D01*
X97532000Y-49542000D02*
X97532000Y-51030000D01*
X97733000Y-53110000D02*
X97733000Y-54550000D01*
X99533000Y-51393000D02*
X99533000Y-52747000D01*
X98653000Y-53110000D02*
X98653000Y-54074000D01*
X98733000Y-50133000D02*
X98733000Y-51030000D01*
X98493000Y-53110000D02*
X98493000Y-54192000D01*
X97452000Y-49527000D02*
X97452000Y-51030000D01*
X98573000Y-53110000D02*
X98573000Y-54135000D01*
X99373000Y-50972000D02*
X99373000Y-53168000D01*
X94207225Y-50595000D02*
X94707225Y-50595000D01*
X98333000Y-49846000D02*
X98333000Y-51030000D01*
X97212000Y-53110000D02*
X97212000Y-54643000D01*
X98533000Y-49975000D02*
X98533000Y-51030000D01*
X97492000Y-53110000D02*
X97492000Y-54606000D01*
X99333000Y-50892000D02*
X99333000Y-53248000D01*
X97332000Y-53110000D02*
X97332000Y-54631000D01*
X97412000Y-53110000D02*
X97412000Y-54620000D01*
X99013000Y-53110000D02*
X99013000Y-53723000D01*
X97893000Y-49642000D02*
X97893000Y-51030000D01*
X97092000Y-49491000D02*
X97092000Y-51030000D01*
X97773000Y-49602000D02*
X97773000Y-51030000D01*
X97973000Y-49672000D02*
X97973000Y-51030000D01*
X98853000Y-53110000D02*
X98853000Y-53896000D01*
X97733000Y-49590000D02*
X97733000Y-51030000D01*
X98453000Y-53110000D02*
X98453000Y-54219000D01*
X97813000Y-49615000D02*
X97813000Y-51030000D01*
X98293000Y-49823000D02*
X98293000Y-51030000D01*
X97933000Y-53110000D02*
X97933000Y-54484000D01*
X99453000Y-51155000D02*
X99453000Y-52985000D01*
X98373000Y-53110000D02*
X98373000Y-54270000D01*
X98933000Y-53110000D02*
X98933000Y-53813000D01*
X97893000Y-53110000D02*
X97893000Y-54498000D01*
X98933000Y-50327000D02*
X98933000Y-51030000D01*
X99173000Y-50627000D02*
X99173000Y-53513000D01*
X97612000Y-53110000D02*
X97612000Y-54581000D01*
X98013000Y-53110000D02*
X98013000Y-54452000D01*
X98533000Y-53110000D02*
X98533000Y-54165000D01*
X98853000Y-50244000D02*
X98853000Y-51030000D01*
X98213000Y-49780000D02*
X98213000Y-51030000D01*
X98213000Y-53110000D02*
X98213000Y-54360000D01*
X97612000Y-49559000D02*
X97612000Y-51030000D01*
X94457225Y-50345000D02*
X94457225Y-50845000D01*
X97052000Y-49490000D02*
X97052000Y-51030000D01*
X98053000Y-49705000D02*
X98053000Y-51030000D01*
X98773000Y-50169000D02*
X98773000Y-51030000D01*
X97773000Y-53110000D02*
X97773000Y-54538000D01*
X97172000Y-53110000D02*
X97172000Y-54646000D01*
X98653000Y-50066000D02*
X98653000Y-51030000D01*
X99632000Y-52070000D02*
G75*
G03*
X99632000Y-52070000I-2620000J0D01*
G01*
X132344224Y-80249500D02*
X131834776Y-80249500D01*
X132344224Y-81294500D02*
X131834776Y-81294500D01*
X151638724Y-75960500D02*
X151129276Y-75960500D01*
X151638724Y-74915500D02*
X151129276Y-74915500D01*
X155179500Y-62125776D02*
X155179500Y-62635224D01*
X156224500Y-62125776D02*
X156224500Y-62635224D01*
X126238724Y-48753500D02*
X125729276Y-48753500D01*
X126238724Y-49798500D02*
X125729276Y-49798500D01*
X154700500Y-45974724D02*
X154700500Y-45465276D01*
X153655500Y-45974724D02*
X153655500Y-45465276D01*
X154987724Y-49769500D02*
X154478276Y-49769500D01*
X154987724Y-50814500D02*
X154478276Y-50814500D01*
X155179500Y-70507776D02*
X155179500Y-71017224D01*
X156224500Y-70507776D02*
X156224500Y-71017224D01*
X88140000Y-28086267D02*
X88140000Y-27793733D01*
X87120000Y-28086267D02*
X87120000Y-27793733D01*
D14*
X139128500Y-62865000D02*
X131635500Y-62865000D01*
X131635500Y-57785000D02*
X131635500Y-56515000D01*
X139128500Y-56515000D02*
X139128500Y-57785000D01*
X131635500Y-57785000D02*
X139128500Y-57785000D01*
X139128500Y-57785000D02*
X139128500Y-62865000D01*
X131635500Y-56515000D02*
X139128500Y-56515000D01*
X131635500Y-57785000D02*
X131635500Y-62865000D01*
D10*
X156224500Y-45465276D02*
X156224500Y-45974724D01*
X155179500Y-45465276D02*
X155179500Y-45974724D01*
D14*
X111252000Y-49784000D02*
X111252000Y-51308000D01*
X123952000Y-51308000D02*
X123952000Y-49784000D01*
X123952000Y-44704000D02*
X123952000Y-49784000D01*
X123952000Y-49784000D02*
X111252000Y-49784000D01*
X111252000Y-44704000D02*
X123952000Y-44704000D01*
X111252000Y-44704000D02*
X111252000Y-49784000D01*
X111252000Y-51308000D02*
X123952000Y-51308000D01*
D10*
X155044224Y-66533500D02*
X154534776Y-66533500D01*
X155044224Y-67578500D02*
X154534776Y-67578500D01*
X120272000Y-62655752D02*
X120272000Y-58248248D01*
X114932000Y-62655752D02*
X114932000Y-58248248D01*
X158496724Y-66533500D02*
X157987276Y-66533500D01*
X158496724Y-67578500D02*
X157987276Y-67578500D01*
X113080748Y-51980000D02*
X114503252Y-51980000D01*
X113080748Y-54700000D02*
X114503252Y-54700000D01*
X158496724Y-69327500D02*
X157987276Y-69327500D01*
X158496724Y-70372500D02*
X157987276Y-70372500D01*
X122667500Y-53188776D02*
X122667500Y-53698224D01*
X123712500Y-53188776D02*
X123712500Y-53698224D01*
X86097500Y-33520500D02*
X74157500Y-33520500D01*
X73827500Y-31400500D02*
X73827500Y-33850500D01*
X74157500Y-33520500D02*
X74157500Y-25670500D01*
X86097500Y-25670500D02*
X86097500Y-33520500D01*
X74157500Y-25670500D02*
X86097500Y-25670500D01*
X73827500Y-33850500D02*
X76157500Y-33850500D01*
X151535224Y-49769500D02*
X151025776Y-49769500D01*
X151535224Y-50814500D02*
X151025776Y-50814500D01*
D14*
X160274000Y-44221400D02*
X160274000Y-69621400D01*
X161798000Y-69621400D02*
X161798000Y-44221400D01*
X166878000Y-69621400D02*
X161798000Y-69621400D01*
X166878000Y-44221400D02*
X166878000Y-69621400D01*
X160274000Y-69621400D02*
X161798000Y-69621400D01*
X161798000Y-44221400D02*
X160274000Y-44221400D01*
X166878000Y-44221400D02*
X161798000Y-44221400D01*
D10*
X158600224Y-47229500D02*
X158090776Y-47229500D01*
X158600224Y-48274500D02*
X158090776Y-48274500D01*
X106931000Y-25778500D02*
X90681000Y-25778500D01*
X106931000Y-25778500D02*
X106931000Y-47328500D01*
X90681000Y-25778500D02*
X90681000Y-47328500D01*
X106931000Y-47328500D02*
X90681000Y-47328500D01*
X158496724Y-58151500D02*
X157987276Y-58151500D01*
X158496724Y-59196500D02*
X157987276Y-59196500D01*
X158496724Y-60945500D02*
X157987276Y-60945500D01*
X158496724Y-61990500D02*
X157987276Y-61990500D01*
X162054000Y-82352000D02*
X162054000Y-81422000D01*
X162054000Y-79192000D02*
X162054000Y-80122000D01*
X162054000Y-79192000D02*
X163514000Y-79192000D01*
X162054000Y-82352000D02*
X165214000Y-82352000D01*
D14*
X101346000Y-55372000D02*
X101346000Y-56896000D01*
X114046000Y-61976000D02*
X114046000Y-56896000D01*
X101346000Y-56896000D02*
X114046000Y-56896000D01*
X114046000Y-55372000D02*
X101346000Y-55372000D01*
X114046000Y-61976000D02*
X101346000Y-61976000D01*
X101346000Y-61976000D02*
X101346000Y-56896000D01*
X114046000Y-56896000D02*
X114046000Y-55372000D01*
D16*
X170942000Y-43688000D02*
X109982000Y-43688000D01*
X109282000Y-38828000D02*
X109282000Y-30768000D01*
X109982000Y-25908000D02*
X170942000Y-25908000D01*
X109982000Y-38828000D02*
X109282000Y-38828000D01*
X109982000Y-30768000D02*
X109282000Y-30768000D01*
X109982000Y-43688000D02*
X109982000Y-38828000D01*
X170942000Y-25908000D02*
X170942000Y-43688000D01*
X109982000Y-25908000D02*
X109982000Y-30768000D01*
D17*
X116432000Y-44298000D02*
G75*
G03*
X116432000Y-44298000I-100000J0D01*
G01*
D10*
X153655500Y-54253224D02*
X153655500Y-53743776D01*
X154700500Y-54253224D02*
X154700500Y-53743776D01*
D14*
X143764000Y-44450000D02*
X133604000Y-44450000D01*
X133604000Y-44450000D02*
X133604000Y-49530000D01*
X143764000Y-51054000D02*
X143764000Y-49530000D01*
X133604000Y-49530000D02*
X143764000Y-49530000D01*
X133604000Y-51054000D02*
X143764000Y-51054000D01*
X133604000Y-49530000D02*
X133604000Y-51054000D01*
X143764000Y-44450000D02*
X143764000Y-49530000D01*
D10*
X160169776Y-30494500D02*
X160679224Y-30494500D01*
X160169776Y-29449500D02*
X160679224Y-29449500D01*
X153774224Y-29449500D02*
X153264776Y-29449500D01*
X153774224Y-30494500D02*
X153264776Y-30494500D01*
X149606000Y-44176000D02*
X151556000Y-44176000D01*
X149606000Y-44176000D02*
X147656000Y-44176000D01*
X149606000Y-49296000D02*
X153056000Y-49296000D01*
X149606000Y-49296000D02*
X147656000Y-49296000D01*
X155044224Y-59196500D02*
X154534776Y-59196500D01*
X155044224Y-58151500D02*
X154534776Y-58151500D01*
X151638724Y-67578500D02*
X151129276Y-67578500D01*
X151638724Y-66533500D02*
X151129276Y-66533500D01*
X151535224Y-59196500D02*
X151025776Y-59196500D01*
X151535224Y-58151500D02*
X151025776Y-58151500D01*
X130287500Y-65278724D02*
X130287500Y-64769276D01*
X131332500Y-65278724D02*
X131332500Y-64769276D01*
X158600224Y-44435500D02*
X158090776Y-44435500D01*
X158600224Y-45480500D02*
X158090776Y-45480500D01*
X102690000Y-73780000D02*
X101190000Y-73780000D01*
X101190000Y-73780000D02*
X101190000Y-73090000D01*
X101190000Y-64070000D02*
X96065000Y-64070000D01*
X102690000Y-63380000D02*
X101190000Y-63380000D01*
X101190000Y-73090000D02*
X100090000Y-73090000D01*
X101190000Y-63380000D02*
X101190000Y-64070000D01*
D14*
X120904000Y-62992000D02*
X131064000Y-62992000D01*
X131064000Y-62992000D02*
X131064000Y-57912000D01*
X131064000Y-57912000D02*
X120904000Y-57912000D01*
X120904000Y-62992000D02*
X120904000Y-57912000D01*
X131064000Y-57912000D02*
X131064000Y-56388000D01*
X120904000Y-56388000D02*
X120904000Y-57912000D01*
X131064000Y-56388000D02*
X120904000Y-56388000D01*
D10*
X165847500Y-80517276D02*
X165847500Y-81026724D01*
X166892500Y-80517276D02*
X166892500Y-81026724D01*
D14*
X74803000Y-50546000D02*
X74803000Y-45466000D01*
X82423000Y-53086000D02*
X77343000Y-53086000D01*
X84963000Y-45466000D02*
X84963000Y-50546000D01*
X77343000Y-42926000D02*
X82423000Y-42926000D01*
X88773000Y-53086000D02*
X72263000Y-53086000D01*
X74803000Y-45466000D02*
X77343000Y-42926000D01*
X72263000Y-42926000D02*
X88773000Y-42926000D01*
X88773000Y-42926000D02*
X88773000Y-53086000D01*
X77343000Y-53086000D02*
X74803000Y-50546000D01*
X82423000Y-42926000D02*
X84963000Y-45466000D01*
X72263000Y-42926000D02*
X72263000Y-53086000D01*
X84963000Y-50546000D02*
X82423000Y-53086000D01*
D10*
X118874000Y-51760000D02*
X120334000Y-51760000D01*
X118874000Y-51760000D02*
X118874000Y-52690000D01*
X118874000Y-54920000D02*
X122034000Y-54920000D01*
X118874000Y-54920000D02*
X118874000Y-53990000D01*
X148082724Y-66533500D02*
X147573276Y-66533500D01*
X148082724Y-67578500D02*
X147573276Y-67578500D01*
X101839500Y-53594724D02*
X101839500Y-53085276D01*
X102884500Y-53594724D02*
X102884500Y-53085276D01*
X154700500Y-71017224D02*
X154700500Y-70507776D01*
X153655500Y-71017224D02*
X153655500Y-70507776D01*
X73465000Y-37060000D02*
X73465000Y-35978000D01*
X73305000Y-40104000D02*
X73305000Y-39140000D01*
X73945000Y-40482000D02*
X73945000Y-39140000D01*
X72945000Y-37060000D02*
X72945000Y-36447000D01*
X72985000Y-37060000D02*
X72985000Y-36401000D01*
X74706000Y-37060000D02*
X74706000Y-35531000D01*
X72945000Y-39753000D02*
X72945000Y-39140000D01*
X73625000Y-37060000D02*
X73625000Y-35876000D01*
X72665000Y-39351000D02*
X72665000Y-36849000D01*
X74266000Y-40591000D02*
X74266000Y-39140000D01*
X73225000Y-40037000D02*
X73225000Y-39140000D01*
X72585000Y-39198000D02*
X72585000Y-37002000D01*
X73185000Y-37060000D02*
X73185000Y-36199000D01*
X73425000Y-37060000D02*
X73425000Y-36005000D01*
X73225000Y-37060000D02*
X73225000Y-36163000D01*
X73385000Y-40165000D02*
X73385000Y-39140000D01*
X74225000Y-40580000D02*
X74225000Y-39140000D01*
X74025000Y-37060000D02*
X74025000Y-35686000D01*
X74866000Y-37060000D02*
X74866000Y-35521000D01*
X74626000Y-37060000D02*
X74626000Y-35539000D01*
X74185000Y-37060000D02*
X74185000Y-35632000D01*
X73985000Y-40498000D02*
X73985000Y-39140000D01*
X73145000Y-39964000D02*
X73145000Y-39140000D01*
X72505000Y-39015000D02*
X72505000Y-37185000D01*
X73025000Y-39843000D02*
X73025000Y-39140000D01*
X77500775Y-39825000D02*
X77500775Y-39325000D01*
X74826000Y-37060000D02*
X74826000Y-35522000D01*
X72745000Y-39483000D02*
X72745000Y-36717000D01*
X74706000Y-40669000D02*
X74706000Y-39140000D01*
X74506000Y-40643000D02*
X74506000Y-39140000D01*
X73545000Y-37060000D02*
X73545000Y-35925000D01*
X74466000Y-37060000D02*
X74466000Y-35564000D01*
X73185000Y-40001000D02*
X73185000Y-39140000D01*
X74225000Y-37060000D02*
X74225000Y-35620000D01*
X74866000Y-40679000D02*
X74866000Y-39140000D01*
X73265000Y-37060000D02*
X73265000Y-36129000D01*
X73865000Y-37060000D02*
X73865000Y-35752000D01*
X74025000Y-40514000D02*
X74025000Y-39140000D01*
X72545000Y-39111000D02*
X72545000Y-37089000D01*
X74666000Y-37060000D02*
X74666000Y-35535000D01*
X74666000Y-40665000D02*
X74666000Y-39140000D01*
X74746000Y-40673000D02*
X74746000Y-39140000D01*
X74266000Y-37060000D02*
X74266000Y-35609000D01*
X73905000Y-40465000D02*
X73905000Y-39140000D01*
X73585000Y-40300000D02*
X73585000Y-39140000D01*
X74586000Y-40656000D02*
X74586000Y-39140000D01*
X73945000Y-37060000D02*
X73945000Y-35718000D01*
X73065000Y-37060000D02*
X73065000Y-36315000D01*
X74786000Y-40676000D02*
X74786000Y-39140000D01*
X74906000Y-40680000D02*
X74906000Y-39140000D01*
X74185000Y-40568000D02*
X74185000Y-39140000D01*
X73505000Y-37060000D02*
X73505000Y-35951000D01*
X72825000Y-39600000D02*
X72825000Y-36600000D01*
X73505000Y-40249000D02*
X73505000Y-39140000D01*
X74826000Y-40678000D02*
X74826000Y-39140000D01*
X74145000Y-37060000D02*
X74145000Y-35645000D01*
X73865000Y-40448000D02*
X73865000Y-39140000D01*
X72985000Y-39799000D02*
X72985000Y-39140000D01*
X74426000Y-37060000D02*
X74426000Y-35572000D01*
X73305000Y-37060000D02*
X73305000Y-36096000D01*
X73705000Y-37060000D02*
X73705000Y-35832000D01*
X74306000Y-37060000D02*
X74306000Y-35599000D01*
X72705000Y-39419000D02*
X72705000Y-36781000D01*
X73345000Y-37060000D02*
X73345000Y-36065000D01*
X74546000Y-40650000D02*
X74546000Y-39140000D01*
X77750775Y-39575000D02*
X77250775Y-39575000D01*
X74946000Y-37060000D02*
X74946000Y-35520000D01*
X73105000Y-39926000D02*
X73105000Y-39140000D01*
X72785000Y-39543000D02*
X72785000Y-36657000D01*
X74946000Y-40680000D02*
X74946000Y-39140000D01*
X74786000Y-37060000D02*
X74786000Y-35524000D01*
X73745000Y-40390000D02*
X73745000Y-39140000D01*
X73425000Y-40195000D02*
X73425000Y-39140000D01*
X73585000Y-37060000D02*
X73585000Y-35900000D01*
X73825000Y-40429000D02*
X73825000Y-39140000D01*
X73825000Y-37060000D02*
X73825000Y-35771000D01*
X74746000Y-37060000D02*
X74746000Y-35527000D01*
X72345000Y-38384000D02*
X72345000Y-37816000D01*
X74506000Y-37060000D02*
X74506000Y-35557000D01*
X73465000Y-40222000D02*
X73465000Y-39140000D01*
X72465000Y-38905000D02*
X72465000Y-37295000D01*
X74065000Y-37060000D02*
X74065000Y-35672000D01*
X72425000Y-38777000D02*
X72425000Y-37423000D01*
X74546000Y-37060000D02*
X74546000Y-35550000D01*
X72865000Y-39654000D02*
X72865000Y-36546000D01*
X74626000Y-40661000D02*
X74626000Y-39140000D01*
X72905000Y-39705000D02*
X72905000Y-36495000D01*
X74386000Y-40620000D02*
X74386000Y-39140000D01*
X74386000Y-37060000D02*
X74386000Y-35580000D01*
X73985000Y-37060000D02*
X73985000Y-35702000D01*
X73705000Y-40368000D02*
X73705000Y-39140000D01*
X73145000Y-37060000D02*
X73145000Y-36236000D01*
X72385000Y-38618000D02*
X72385000Y-37582000D01*
X73065000Y-39885000D02*
X73065000Y-39140000D01*
X74586000Y-37060000D02*
X74586000Y-35544000D01*
X73345000Y-40135000D02*
X73345000Y-39140000D01*
X73545000Y-40275000D02*
X73545000Y-39140000D01*
X74346000Y-40611000D02*
X74346000Y-39140000D01*
X74145000Y-40555000D02*
X74145000Y-39140000D01*
X74346000Y-37060000D02*
X74346000Y-35589000D01*
X72625000Y-39278000D02*
X72625000Y-36922000D01*
X73745000Y-37060000D02*
X73745000Y-35810000D01*
X74906000Y-37060000D02*
X74906000Y-35520000D01*
X73625000Y-40324000D02*
X73625000Y-39140000D01*
X73665000Y-40347000D02*
X73665000Y-39140000D01*
X73385000Y-37060000D02*
X73385000Y-36035000D01*
X74466000Y-40636000D02*
X74466000Y-39140000D01*
X73105000Y-37060000D02*
X73105000Y-36274000D01*
X73265000Y-40071000D02*
X73265000Y-39140000D01*
X73025000Y-37060000D02*
X73025000Y-36357000D01*
X74306000Y-40601000D02*
X74306000Y-39140000D01*
X74105000Y-40542000D02*
X74105000Y-39140000D01*
X73785000Y-37060000D02*
X73785000Y-35790000D01*
X73905000Y-37060000D02*
X73905000Y-35735000D01*
X74065000Y-40528000D02*
X74065000Y-39140000D01*
X74426000Y-40628000D02*
X74426000Y-39140000D01*
X74105000Y-37060000D02*
X74105000Y-35658000D01*
X73665000Y-37060000D02*
X73665000Y-35853000D01*
X73785000Y-40410000D02*
X73785000Y-39140000D01*
X77566000Y-38100000D02*
G75*
G03*
X77566000Y-38100000I-2620000J0D01*
G01*
X131280000Y-90397000D02*
X133740000Y-90397000D01*
X133740000Y-90397000D02*
X133740000Y-88927000D01*
X133740000Y-88927000D02*
X131280000Y-88927000D01*
D14*
X88600283Y-38608000D02*
G75*
G03*
X88600283Y-38608000I-4018283J0D01*
G01*
D10*
X131825276Y-88369000D02*
X132334724Y-88369000D01*
X131825276Y-87324000D02*
X132334724Y-87324000D01*
D14*
X146662000Y-77828000D02*
X159662000Y-77828000D01*
X146662000Y-90828000D02*
X146662000Y-77828000D01*
X146662000Y-90828000D02*
X156162000Y-90828000D01*
X156162000Y-90828000D02*
X159662000Y-87328000D01*
X159662000Y-87328000D02*
X159662000Y-77828000D01*
D10*
X158543724Y-50814500D02*
X158034276Y-50814500D01*
X158543724Y-49769500D02*
X158034276Y-49769500D01*
X158496724Y-64784500D02*
X157987276Y-64784500D01*
X158496724Y-63739500D02*
X157987276Y-63739500D01*
X154700500Y-62635224D02*
X154700500Y-62125776D01*
X153655500Y-62635224D02*
X153655500Y-62125776D01*
X107188000Y-49764000D02*
X109138000Y-49764000D01*
X107188000Y-49764000D02*
X103738000Y-49764000D01*
X107188000Y-54884000D02*
X109138000Y-54884000D01*
X107188000Y-54884000D02*
X105238000Y-54884000D01*
X156717276Y-29449500D02*
X157226724Y-29449500D01*
X156717276Y-30494500D02*
X157226724Y-30494500D01*
D14*
X114196000Y-81814000D02*
X114196000Y-82322000D01*
X128296000Y-88672000D02*
X128804000Y-88672000D01*
X120396000Y-82322000D02*
X128296000Y-82322000D01*
X112496000Y-82322000D02*
X112496000Y-90222000D01*
X120396000Y-82322000D02*
X120396000Y-90222000D01*
X118768000Y-82322000D02*
X118768000Y-81814000D01*
X126645000Y-81814000D02*
X122073000Y-81814000D01*
X112496000Y-88672000D02*
X113004000Y-88672000D01*
X112496000Y-90222000D02*
X120396000Y-90222000D01*
X128804000Y-84100000D02*
X128296000Y-84100000D01*
X128804000Y-88672000D02*
X128804000Y-84100000D01*
X113004000Y-84100000D02*
X112496000Y-84100000D01*
X126645000Y-82322000D02*
X126645000Y-81814000D01*
X128296000Y-82322000D02*
X128296000Y-90222000D01*
X118768000Y-81814000D02*
X114196000Y-81814000D01*
X113004000Y-88672000D02*
X113004000Y-84100000D01*
X120904600Y-84100000D02*
X120396600Y-84100000D01*
X120396600Y-88672000D02*
X120904600Y-88672000D01*
X122073000Y-81814000D02*
X122073000Y-82322000D01*
X120904600Y-88672000D02*
X120904600Y-84100000D01*
X120396000Y-90222000D02*
X128296000Y-90222000D01*
X112496000Y-82322000D02*
X120396000Y-82322000D01*
D10*
X133740000Y-67591000D02*
X131280000Y-67591000D01*
X131280000Y-69061000D02*
X133740000Y-69061000D01*
X133740000Y-69061000D02*
X133740000Y-67591000D01*
X90015000Y-82935000D02*
X88135000Y-82935000D01*
X90015000Y-90220000D02*
X94415000Y-90220000D01*
X90015000Y-87265000D02*
X88135000Y-87265000D01*
X90015000Y-84845000D02*
X88135000Y-84845000D01*
X94415000Y-79980000D02*
X94415000Y-77980000D01*
X103255000Y-82220000D02*
X103255000Y-87980000D01*
X103255000Y-82220000D02*
X105335000Y-82220000D01*
X94415000Y-77980000D02*
X105335000Y-77980000D01*
X90015000Y-79980000D02*
X94415000Y-79980000D01*
X90015000Y-86755000D02*
X88135000Y-86755000D01*
X103255000Y-87980000D02*
X105335000Y-87980000D01*
X90015000Y-83445000D02*
X88135000Y-83445000D01*
X94415000Y-92220000D02*
X105335000Y-92220000D01*
X94415000Y-90220000D02*
X94415000Y-92220000D01*
X90015000Y-90220000D02*
X90015000Y-79980000D01*
X90015000Y-85355000D02*
X88135000Y-85355000D01*
X131825276Y-91962500D02*
X132334724Y-91962500D01*
X131825276Y-90917500D02*
X132334724Y-90917500D01*
X131825276Y-76693500D02*
X132334724Y-76693500D01*
X131825276Y-77738500D02*
X132334724Y-77738500D01*
X131825276Y-84850500D02*
X132334724Y-84850500D01*
X131825276Y-83805500D02*
X132334724Y-83805500D01*
X148082724Y-49769500D02*
X147573276Y-49769500D01*
X148082724Y-50814500D02*
X147573276Y-50814500D01*
X131280000Y-86803500D02*
X133740000Y-86803500D01*
X133740000Y-86803500D02*
X133740000Y-85333500D01*
X133740000Y-85333500D02*
X131280000Y-85333500D01*
X158496724Y-56402500D02*
X157987276Y-56402500D01*
X158496724Y-55357500D02*
X157987276Y-55357500D01*
X158496724Y-74915500D02*
X157987276Y-74915500D01*
X158496724Y-75960500D02*
X157987276Y-75960500D01*
X149606000Y-65933000D02*
X153056000Y-65933000D01*
X149606000Y-60813000D02*
X151556000Y-60813000D01*
X149606000Y-60813000D02*
X147656000Y-60813000D01*
X149606000Y-65933000D02*
X147656000Y-65933000D01*
X149606000Y-57551000D02*
X153056000Y-57551000D01*
X149606000Y-52431000D02*
X147656000Y-52431000D01*
X149606000Y-52431000D02*
X151556000Y-52431000D01*
X149606000Y-57551000D02*
X147656000Y-57551000D01*
X133740000Y-72617000D02*
X133740000Y-71147000D01*
X131280000Y-72617000D02*
X133740000Y-72617000D01*
X133740000Y-71147000D02*
X131280000Y-71147000D01*
D14*
X174117000Y-44221400D02*
X172593000Y-44221400D01*
X167513000Y-69621400D02*
X167513000Y-44221400D01*
X167513000Y-69621400D02*
X172593000Y-69621400D01*
X167513000Y-44221400D02*
X172593000Y-44221400D01*
X174117000Y-69621400D02*
X174117000Y-44221400D01*
X172593000Y-69621400D02*
X174117000Y-69621400D01*
X172593000Y-44221400D02*
X172593000Y-69621400D01*
D10*
X135126000Y-66604000D02*
X133666000Y-66604000D01*
X135126000Y-63444000D02*
X135126000Y-64374000D01*
X135126000Y-63444000D02*
X131966000Y-63444000D01*
X135126000Y-66604000D02*
X135126000Y-65674000D01*
X90531733Y-51056000D02*
X90824267Y-51056000D01*
X90531733Y-50036000D02*
X90824267Y-50036000D01*
X133740000Y-74703000D02*
X131280000Y-74703000D01*
X133740000Y-76173000D02*
X133740000Y-74703000D01*
X131280000Y-76173000D02*
X133740000Y-76173000D01*
X148082724Y-75960500D02*
X147573276Y-75960500D01*
X148082724Y-74915500D02*
X147573276Y-74915500D01*
X158496724Y-52563500D02*
X157987276Y-52563500D01*
X158496724Y-53608500D02*
X157987276Y-53608500D01*
X148082724Y-59196500D02*
X147573276Y-59196500D01*
X148082724Y-58151500D02*
X147573276Y-58151500D01*
X133740000Y-83285000D02*
X133740000Y-81815000D01*
X133740000Y-81815000D02*
X131280000Y-81815000D01*
X131280000Y-83285000D02*
X133740000Y-83285000D01*
X155179500Y-53743776D02*
X155179500Y-54253224D01*
X156224500Y-53743776D02*
X156224500Y-54253224D01*
X131280000Y-79729000D02*
X133740000Y-79729000D01*
X133740000Y-78259000D02*
X131280000Y-78259000D01*
X133740000Y-79729000D02*
X133740000Y-78259000D01*
X88245733Y-32510000D02*
X88538267Y-32510000D01*
X88245733Y-33530000D02*
X88538267Y-33530000D01*
X108819733Y-45976000D02*
X109112267Y-45976000D01*
X108819733Y-44956000D02*
X109112267Y-44956000D01*
X131825276Y-69581500D02*
X132334724Y-69581500D01*
X131825276Y-70626500D02*
X132334724Y-70626500D01*
X131825276Y-74182500D02*
X132334724Y-74182500D01*
X131825276Y-73137500D02*
X132334724Y-73137500D01*
X149571000Y-69195000D02*
X147621000Y-69195000D01*
X149571000Y-69195000D02*
X151521000Y-69195000D01*
X149571000Y-74315000D02*
X147621000Y-74315000D01*
X149571000Y-74315000D02*
X153021000Y-74315000D01*
X125729276Y-46975500D02*
X126238724Y-46975500D01*
X125729276Y-48020500D02*
X126238724Y-48020500D01*
%LPC*%
D18*
X159154500Y-72644000D03*
X157329500Y-72644000D03*
D19*
X89815500Y-52324000D03*
X91540500Y-52324000D03*
D18*
X155702000Y-75438000D03*
X153877000Y-75438000D03*
D20*
X96012000Y-52070000D03*
D21*
X98012000Y-52070000D03*
D18*
X133002000Y-80772000D03*
X131177000Y-80772000D03*
X152296500Y-75438000D03*
X150471500Y-75438000D03*
D22*
X155702000Y-61468000D03*
X155702000Y-63293000D03*
D18*
X126896500Y-49276000D03*
X125071500Y-49276000D03*
D23*
X154178000Y-46632500D03*
X154178000Y-44807500D03*
D18*
X155645500Y-50292000D03*
X153820500Y-50292000D03*
D22*
X155702000Y-69850000D03*
X155702000Y-71675000D03*
D24*
X87630000Y-28802500D03*
X87630000Y-27077500D03*
D25*
X134175500Y-60325000D03*
X136715500Y-60325000D03*
D22*
X155702000Y-44807500D03*
X155702000Y-46632500D03*
D25*
X121412000Y-47244000D03*
X118872000Y-47244000D03*
X116332000Y-47244000D03*
X113792000Y-47244000D03*
X113792000Y-47244000D03*
D18*
X155702000Y-67056000D03*
X153877000Y-67056000D03*
D26*
X117602000Y-63927000D03*
X117602000Y-56977000D03*
D18*
X159154500Y-67056000D03*
X157329500Y-67056000D03*
D27*
X112229500Y-53340000D03*
X115354500Y-53340000D03*
D18*
X159154500Y-69850000D03*
X157329500Y-69850000D03*
D22*
X123190000Y-52531000D03*
X123190000Y-54356000D03*
D28*
X77577500Y-31400500D03*
D29*
X80117500Y-31400500D03*
X82657500Y-31400500D03*
D18*
X152193000Y-50292000D03*
X150368000Y-50292000D03*
D25*
X164338000Y-67081400D03*
X164338000Y-64541400D03*
X164338000Y-62001400D03*
X164338000Y-59461400D03*
X164338000Y-56921400D03*
X164338000Y-54381400D03*
X164338000Y-51841400D03*
X164338000Y-49301400D03*
X164338000Y-46761400D03*
D18*
X159258000Y-47752000D03*
X157433000Y-47752000D03*
D30*
X103251000Y-43128500D03*
X101981000Y-45668500D03*
X100711000Y-43128500D03*
X99441000Y-45668500D03*
X98171000Y-43128500D03*
X96901000Y-45668500D03*
X95631000Y-43128500D03*
X94361000Y-45668500D03*
D31*
X105131000Y-31698500D03*
X102591000Y-33488500D03*
X95021000Y-31698500D03*
X92481000Y-33488500D03*
D32*
X104521000Y-36778500D03*
X93091000Y-36778500D03*
D33*
X90931000Y-39828500D03*
X106681000Y-39828500D03*
D34*
X98806000Y-106172000D03*
D18*
X159154500Y-58674000D03*
X157329500Y-58674000D03*
X159154500Y-61468000D03*
X157329500Y-61468000D03*
D35*
X164314000Y-81722000D03*
X164314000Y-79822000D03*
X161314000Y-80772000D03*
D25*
X103886000Y-59436000D03*
X106426000Y-59436000D03*
X108966000Y-59436000D03*
X111506000Y-59436000D03*
X111506000Y-59436000D03*
D36*
X113792000Y-42418000D03*
X116332000Y-42418000D03*
X118872000Y-42418000D03*
X121412000Y-42418000D03*
X146812000Y-42418000D03*
X116332000Y-27178000D03*
X123952000Y-42418000D03*
X126492000Y-42418000D03*
X129032000Y-42418000D03*
X131572000Y-42418000D03*
X134112000Y-42418000D03*
X136652000Y-42418000D03*
X139192000Y-42418000D03*
X141732000Y-42418000D03*
X144272000Y-42418000D03*
X144272000Y-27178000D03*
X141732000Y-27178000D03*
X139192000Y-27178000D03*
X136652000Y-27178000D03*
X134112000Y-27178000D03*
X131572000Y-27178000D03*
X129032000Y-27178000D03*
X126492000Y-27178000D03*
X123952000Y-27178000D03*
X121412000Y-27178000D03*
X118872000Y-27178000D03*
X149352000Y-42418000D03*
X151892000Y-42418000D03*
X154432000Y-42418000D03*
X156972000Y-42418000D03*
X159512000Y-42418000D03*
X162052000Y-42418000D03*
X164592000Y-42418000D03*
X167132000Y-42418000D03*
X169672000Y-42418000D03*
X169672000Y-27178000D03*
X167132000Y-27178000D03*
X164592000Y-27178000D03*
X162052000Y-27178000D03*
X159512000Y-27178000D03*
X156972000Y-27178000D03*
X154432000Y-27178000D03*
X151892000Y-27178000D03*
X149352000Y-27178000D03*
X111252000Y-42418000D03*
X146812000Y-27178000D03*
X113792000Y-27178000D03*
D37*
X126222000Y-31628000D03*
X124222000Y-31628000D03*
X124222000Y-29628000D03*
X126222000Y-29628000D03*
X126222000Y-33628000D03*
X124222000Y-33628000D03*
D36*
X111252000Y-27178000D03*
D23*
X154178000Y-54911000D03*
X154178000Y-53086000D03*
D25*
X141224000Y-46990000D03*
X138684000Y-46990000D03*
X136144000Y-46990000D03*
D38*
X159512000Y-29972000D03*
X161337000Y-29972000D03*
D18*
X154432000Y-29972000D03*
X152607000Y-29972000D03*
D39*
X152181000Y-48641000D03*
X152181000Y-47371000D03*
X152181000Y-46101000D03*
X152181000Y-44831000D03*
X147031000Y-44831000D03*
X147031000Y-46101000D03*
X147031000Y-47371000D03*
X147031000Y-48641000D03*
D18*
X155702000Y-58674000D03*
X153877000Y-58674000D03*
X152296500Y-67056000D03*
X150471500Y-67056000D03*
X152193000Y-58674000D03*
X150368000Y-58674000D03*
D23*
X130810000Y-65936500D03*
X130810000Y-64111500D03*
D34*
X147701000Y-106172000D03*
D18*
X159258000Y-44958000D03*
X157433000Y-44958000D03*
D40*
X98365000Y-64770000D03*
D41*
X107515000Y-68580000D03*
D40*
X98365000Y-69850000D03*
X98365000Y-66040000D03*
X98365000Y-67310000D03*
X98365000Y-72390000D03*
X98365000Y-71120000D03*
D25*
X123444000Y-60452000D03*
X125984000Y-60452000D03*
X128524000Y-60452000D03*
D22*
X166370000Y-79859500D03*
X166370000Y-81684500D03*
D25*
X87503000Y-45466000D03*
X87503000Y-48006000D03*
X87503000Y-50546000D03*
D35*
X121134000Y-54290000D03*
X121134000Y-52390000D03*
X118134000Y-53340000D03*
D18*
X148740500Y-67056000D03*
X146915500Y-67056000D03*
D23*
X102362000Y-54252500D03*
X102362000Y-52427500D03*
D34*
X82550000Y-67310000D03*
D23*
X154178000Y-71675000D03*
X154178000Y-69850000D03*
D20*
X75946000Y-38100000D03*
D21*
X73946000Y-38100000D03*
D42*
X132955000Y-89662000D03*
X131205000Y-89662000D03*
D43*
X84582000Y-38608000D03*
D38*
X131167500Y-87846500D03*
X132992500Y-87846500D03*
D44*
X146862000Y-84328000D03*
X159462000Y-84328000D03*
D18*
X159201500Y-50292000D03*
X157376500Y-50292000D03*
X159154500Y-64262000D03*
X157329500Y-64262000D03*
D23*
X154178000Y-63293000D03*
X154178000Y-61468000D03*
D45*
X104613000Y-50419000D03*
X104613000Y-51689000D03*
X104613000Y-52959000D03*
X104613000Y-54229000D03*
X109763000Y-54229000D03*
X109763000Y-52959000D03*
X109763000Y-51689000D03*
X109763000Y-50419000D03*
D38*
X156059500Y-29972000D03*
X157884500Y-29972000D03*
D46*
X124346000Y-87122000D03*
X116446000Y-87122000D03*
D42*
X132955000Y-68326000D03*
X131205000Y-68326000D03*
D47*
X87235000Y-83190000D03*
D48*
X87235000Y-85100000D03*
X87235000Y-87010000D03*
D49*
X110685000Y-88100000D03*
X106975000Y-93300000D03*
X110295000Y-93300000D03*
X106585000Y-90770000D03*
D50*
X109265000Y-86150000D03*
D49*
X110685000Y-89430000D03*
D51*
X108635000Y-90100000D03*
D49*
X110685000Y-92100000D03*
X108005000Y-94050000D03*
X110295000Y-86900000D03*
X106585000Y-88100000D03*
X109265000Y-94050000D03*
X106585000Y-92100000D03*
D52*
X108005000Y-86150000D03*
D49*
X106585000Y-89430000D03*
X110685000Y-90770000D03*
X106975000Y-86900000D03*
X110685000Y-78100000D03*
X106585000Y-80770000D03*
X108005000Y-76150000D03*
X106585000Y-79430000D03*
X106585000Y-78100000D03*
X110685000Y-82100000D03*
X106975000Y-76900000D03*
X110295000Y-83300000D03*
D50*
X108005000Y-84050000D03*
D49*
X106975000Y-83300000D03*
D52*
X109265000Y-84050000D03*
D49*
X109265000Y-76150000D03*
X106585000Y-82100000D03*
X110685000Y-80770000D03*
D51*
X108635000Y-80100000D03*
D49*
X110685000Y-79430000D03*
X110295000Y-76900000D03*
D38*
X131167500Y-91440000D03*
X132992500Y-91440000D03*
X131167500Y-77216000D03*
X132992500Y-77216000D03*
X131167500Y-84328000D03*
X132992500Y-84328000D03*
D18*
X148740500Y-50292000D03*
X146915500Y-50292000D03*
D42*
X132955000Y-86068500D03*
X131205000Y-86068500D03*
D18*
X159154500Y-55880000D03*
X157329500Y-55880000D03*
X159154500Y-75438000D03*
X157329500Y-75438000D03*
D39*
X152181000Y-65278000D03*
X152181000Y-64008000D03*
X152181000Y-62738000D03*
X152181000Y-61468000D03*
X147031000Y-61468000D03*
X147031000Y-62738000D03*
X147031000Y-64008000D03*
X147031000Y-65278000D03*
X152181000Y-56896000D03*
X152181000Y-55626000D03*
X152181000Y-54356000D03*
X152181000Y-53086000D03*
X147031000Y-53086000D03*
X147031000Y-54356000D03*
X147031000Y-55626000D03*
X147031000Y-56896000D03*
D42*
X132955000Y-71882000D03*
X131205000Y-71882000D03*
D25*
X170053000Y-46761400D03*
X170053000Y-49301400D03*
X170053000Y-51841400D03*
X170053000Y-54381400D03*
X170053000Y-56921400D03*
X170053000Y-59461400D03*
X170053000Y-62001400D03*
X170053000Y-64541400D03*
X170053000Y-67081400D03*
D35*
X132866000Y-64074000D03*
X132866000Y-65974000D03*
X135866000Y-65024000D03*
D19*
X89815500Y-50546000D03*
X91540500Y-50546000D03*
D42*
X132955000Y-75438000D03*
X131205000Y-75438000D03*
D18*
X148740500Y-75438000D03*
X146915500Y-75438000D03*
X159154500Y-53086000D03*
X157329500Y-53086000D03*
X148740500Y-58674000D03*
X146915500Y-58674000D03*
D42*
X132955000Y-82550000D03*
X131205000Y-82550000D03*
D22*
X155702000Y-53086000D03*
X155702000Y-54911000D03*
D42*
X132955000Y-78994000D03*
X131205000Y-78994000D03*
D19*
X87529500Y-33020000D03*
X89254500Y-33020000D03*
X108103500Y-45466000D03*
X109828500Y-45466000D03*
D38*
X131167500Y-70104000D03*
X132992500Y-70104000D03*
X131167500Y-73660000D03*
X132992500Y-73660000D03*
D39*
X152146000Y-73660000D03*
X152146000Y-72390000D03*
X152146000Y-71120000D03*
X152146000Y-69850000D03*
X146996000Y-69850000D03*
X146996000Y-71120000D03*
X146996000Y-72390000D03*
X146996000Y-73660000D03*
D38*
X125071500Y-47498000D03*
X126896500Y-47498000D03*
M02*
