G04 #@! TF.GenerationSoftware,KiCad,Pcbnew,(6.0.7)*
G04 #@! TF.CreationDate,2022-11-19T14:41:37-06:00*
G04 #@! TF.ProjectId,2023Rev1,32303233-5265-4763-912e-6b696361645f,rev?*
G04 #@! TF.SameCoordinates,Original*
G04 #@! TF.FileFunction,OtherDrawing,Comment*
%FSLAX46Y46*%
G04 Gerber Fmt 4.6, Leading zero omitted, Abs format (unit mm)*
G04 Created by KiCad (PCBNEW (6.0.7)) date 2022-11-19 14:41:37*
%MOMM*%
%LPD*%
G01*
G04 APERTURE LIST*
%ADD10C,0.100000*%
%ADD11C,0.150000*%
G04 APERTURE END LIST*
D10*
X354112102Y-59472102D02*
X74712102Y-59472102D01*
D11*
X308257602Y-88349721D02*
X308305221Y-88302102D01*
X308400459Y-88254482D01*
X308638554Y-88254482D01*
X308733792Y-88302102D01*
X308781411Y-88349721D01*
X308829030Y-88444959D01*
X308829030Y-88540197D01*
X308781411Y-88683054D01*
X308209982Y-89254482D01*
X308829030Y-89254482D01*
X309257602Y-89159244D02*
X309305221Y-89206863D01*
X309257602Y-89254482D01*
X309209982Y-89206863D01*
X309257602Y-89159244D01*
X309257602Y-89254482D01*
X309781411Y-89254482D02*
X309971887Y-89254482D01*
X310067125Y-89206863D01*
X310114744Y-89159244D01*
X310209982Y-89016387D01*
X310257602Y-88825911D01*
X310257602Y-88444959D01*
X310209982Y-88349721D01*
X310162363Y-88302102D01*
X310067125Y-88254482D01*
X309876649Y-88254482D01*
X309781411Y-88302102D01*
X309733792Y-88349721D01*
X309686173Y-88444959D01*
X309686173Y-88683054D01*
X309733792Y-88778292D01*
X309781411Y-88825911D01*
X309876649Y-88873530D01*
X310067125Y-88873530D01*
X310162363Y-88825911D01*
X310209982Y-88778292D01*
X310257602Y-88683054D01*
X311114744Y-88587816D02*
X311114744Y-89254482D01*
X310876649Y-88206863D02*
X310638554Y-88921149D01*
X311257602Y-88921149D01*
X312114744Y-88254482D02*
X311638554Y-88254482D01*
X311590935Y-88730673D01*
X311638554Y-88683054D01*
X311733792Y-88635435D01*
X311971887Y-88635435D01*
X312067125Y-88683054D01*
X312114744Y-88730673D01*
X312162363Y-88825911D01*
X312162363Y-89064006D01*
X312114744Y-89159244D01*
X312067125Y-89206863D01*
X311971887Y-89254482D01*
X311733792Y-89254482D01*
X311638554Y-89206863D01*
X311590935Y-89159244D01*
X312781411Y-88254482D02*
X312876649Y-88254482D01*
X312971887Y-88302102D01*
X313019506Y-88349721D01*
X313067125Y-88444959D01*
X313114744Y-88635435D01*
X313114744Y-88873530D01*
X313067125Y-89064006D01*
X313019506Y-89159244D01*
X312971887Y-89206863D01*
X312876649Y-89254482D01*
X312781411Y-89254482D01*
X312686173Y-89206863D01*
X312638554Y-89159244D01*
X312590935Y-89064006D01*
X312543316Y-88873530D01*
X312543316Y-88635435D01*
X312590935Y-88444959D01*
X312638554Y-88349721D01*
X312686173Y-88302102D01*
X312781411Y-88254482D01*
X314305221Y-89254482D02*
X314305221Y-88587816D01*
X314305221Y-88254482D02*
X314257602Y-88302102D01*
X314305221Y-88349721D01*
X314352840Y-88302102D01*
X314305221Y-88254482D01*
X314305221Y-88349721D01*
X314781411Y-88587816D02*
X314781411Y-89254482D01*
X314781411Y-88683054D02*
X314829030Y-88635435D01*
X314924268Y-88587816D01*
X315067125Y-88587816D01*
X315162363Y-88635435D01*
X315209982Y-88730673D01*
X315209982Y-89254482D01*
D10*
X349159102Y-90452102D02*
X349159102Y-90538522D01*
X274356102Y-90452102D02*
X274356102Y-90538522D01*
X349159102Y-89952102D02*
X274356102Y-89952102D01*
X349159102Y-89952102D02*
X274356102Y-89952102D01*
X349159102Y-89952102D02*
X348032598Y-89365681D01*
X349159102Y-89952102D02*
X348032598Y-90538523D01*
X274356102Y-89952102D02*
X275482606Y-90538523D01*
X274356102Y-89952102D02*
X275482606Y-89365681D01*
D11*
X78427816Y-155205911D02*
X79094482Y-155205911D01*
X78046863Y-155444006D02*
X78761149Y-155682102D01*
X78761149Y-155063054D01*
X78999244Y-154682102D02*
X79046863Y-154634482D01*
X79094482Y-154682102D01*
X79046863Y-154729721D01*
X78999244Y-154682102D01*
X79094482Y-154682102D01*
X79094482Y-154158292D02*
X79094482Y-153967816D01*
X79046863Y-153872578D01*
X78999244Y-153824959D01*
X78856387Y-153729721D01*
X78665911Y-153682102D01*
X78284959Y-153682102D01*
X78189721Y-153729721D01*
X78142102Y-153777340D01*
X78094482Y-153872578D01*
X78094482Y-154063054D01*
X78142102Y-154158292D01*
X78189721Y-154205911D01*
X78284959Y-154253530D01*
X78523054Y-154253530D01*
X78618292Y-154205911D01*
X78665911Y-154158292D01*
X78713530Y-154063054D01*
X78713530Y-153872578D01*
X78665911Y-153777340D01*
X78618292Y-153729721D01*
X78523054Y-153682102D01*
X78094482Y-153063054D02*
X78094482Y-152967816D01*
X78142102Y-152872578D01*
X78189721Y-152824959D01*
X78284959Y-152777340D01*
X78475435Y-152729721D01*
X78713530Y-152729721D01*
X78904006Y-152777340D01*
X78999244Y-152824959D01*
X79046863Y-152872578D01*
X79094482Y-152967816D01*
X79094482Y-153063054D01*
X79046863Y-153158292D01*
X78999244Y-153205911D01*
X78904006Y-153253530D01*
X78713530Y-153301149D01*
X78475435Y-153301149D01*
X78284959Y-153253530D01*
X78189721Y-153205911D01*
X78142102Y-153158292D01*
X78094482Y-153063054D01*
X78094482Y-152110673D02*
X78094482Y-152015435D01*
X78142102Y-151920197D01*
X78189721Y-151872578D01*
X78284959Y-151824959D01*
X78475435Y-151777340D01*
X78713530Y-151777340D01*
X78904006Y-151824959D01*
X78999244Y-151872578D01*
X79046863Y-151920197D01*
X79094482Y-152015435D01*
X79094482Y-152110673D01*
X79046863Y-152205911D01*
X78999244Y-152253530D01*
X78904006Y-152301149D01*
X78713530Y-152348768D01*
X78475435Y-152348768D01*
X78284959Y-152301149D01*
X78189721Y-152253530D01*
X78142102Y-152205911D01*
X78094482Y-152110673D01*
X78094482Y-151158292D02*
X78094482Y-151063054D01*
X78142102Y-150967816D01*
X78189721Y-150920197D01*
X78284959Y-150872578D01*
X78475435Y-150824959D01*
X78713530Y-150824959D01*
X78904006Y-150872578D01*
X78999244Y-150920197D01*
X79046863Y-150967816D01*
X79094482Y-151063054D01*
X79094482Y-151158292D01*
X79046863Y-151253530D01*
X78999244Y-151301149D01*
X78904006Y-151348768D01*
X78713530Y-151396387D01*
X78475435Y-151396387D01*
X78284959Y-151348768D01*
X78189721Y-151301149D01*
X78142102Y-151253530D01*
X78094482Y-151158292D01*
X79094482Y-149634482D02*
X78427816Y-149634482D01*
X78094482Y-149634482D02*
X78142102Y-149682102D01*
X78189721Y-149634482D01*
X78142102Y-149586863D01*
X78094482Y-149634482D01*
X78189721Y-149634482D01*
X78427816Y-149158292D02*
X79094482Y-149158292D01*
X78523054Y-149158292D02*
X78475435Y-149110673D01*
X78427816Y-149015435D01*
X78427816Y-148872578D01*
X78475435Y-148777340D01*
X78570673Y-148729721D01*
X79094482Y-148729721D01*
D10*
X80292102Y-89952102D02*
X80378522Y-89952102D01*
X80292102Y-214412102D02*
X80378522Y-214412102D01*
X79792102Y-89952102D02*
X79792102Y-214412102D01*
X79792102Y-89952102D02*
X79792102Y-214412102D01*
X79792102Y-89952102D02*
X79205681Y-91078606D01*
X79792102Y-89952102D02*
X80378523Y-91078606D01*
X79792102Y-214412102D02*
X80378523Y-213285598D01*
X79792102Y-214412102D02*
X79205681Y-213285598D01*
D11*
X348461482Y-77640673D02*
X348461482Y-78212102D01*
X348461482Y-77926387D02*
X347461482Y-77926387D01*
X347604340Y-78021625D01*
X347699578Y-78116863D01*
X347747197Y-78212102D01*
X348366244Y-77212102D02*
X348413863Y-77164482D01*
X348461482Y-77212102D01*
X348413863Y-77259721D01*
X348366244Y-77212102D01*
X348461482Y-77212102D01*
X347556721Y-76783530D02*
X347509102Y-76735911D01*
X347461482Y-76640673D01*
X347461482Y-76402578D01*
X347509102Y-76307340D01*
X347556721Y-76259721D01*
X347651959Y-76212102D01*
X347747197Y-76212102D01*
X347890054Y-76259721D01*
X348461482Y-76831149D01*
X348461482Y-76212102D01*
X347461482Y-75593054D02*
X347461482Y-75497816D01*
X347509102Y-75402578D01*
X347556721Y-75354959D01*
X347651959Y-75307340D01*
X347842435Y-75259721D01*
X348080530Y-75259721D01*
X348271006Y-75307340D01*
X348366244Y-75354959D01*
X348413863Y-75402578D01*
X348461482Y-75497816D01*
X348461482Y-75593054D01*
X348413863Y-75688292D01*
X348366244Y-75735911D01*
X348271006Y-75783530D01*
X348080530Y-75831149D01*
X347842435Y-75831149D01*
X347651959Y-75783530D01*
X347556721Y-75735911D01*
X347509102Y-75688292D01*
X347461482Y-75593054D01*
X347461482Y-74640673D02*
X347461482Y-74545435D01*
X347509102Y-74450197D01*
X347556721Y-74402578D01*
X347651959Y-74354959D01*
X347842435Y-74307340D01*
X348080530Y-74307340D01*
X348271006Y-74354959D01*
X348366244Y-74402578D01*
X348413863Y-74450197D01*
X348461482Y-74545435D01*
X348461482Y-74640673D01*
X348413863Y-74735911D01*
X348366244Y-74783530D01*
X348271006Y-74831149D01*
X348080530Y-74878768D01*
X347842435Y-74878768D01*
X347651959Y-74831149D01*
X347556721Y-74783530D01*
X347509102Y-74735911D01*
X347461482Y-74640673D01*
X347461482Y-73688292D02*
X347461482Y-73593054D01*
X347509102Y-73497816D01*
X347556721Y-73450197D01*
X347651959Y-73402578D01*
X347842435Y-73354959D01*
X348080530Y-73354959D01*
X348271006Y-73402578D01*
X348366244Y-73450197D01*
X348413863Y-73497816D01*
X348461482Y-73593054D01*
X348461482Y-73688292D01*
X348413863Y-73783530D01*
X348366244Y-73831149D01*
X348271006Y-73878768D01*
X348080530Y-73926387D01*
X347842435Y-73926387D01*
X347651959Y-73878768D01*
X347556721Y-73831149D01*
X347509102Y-73783530D01*
X347461482Y-73688292D01*
X348461482Y-72164482D02*
X347794816Y-72164482D01*
X347461482Y-72164482D02*
X347509102Y-72212102D01*
X347556721Y-72164482D01*
X347509102Y-72116863D01*
X347461482Y-72164482D01*
X347556721Y-72164482D01*
X347794816Y-71688292D02*
X348461482Y-71688292D01*
X347890054Y-71688292D02*
X347842435Y-71640673D01*
X347794816Y-71545435D01*
X347794816Y-71402578D01*
X347842435Y-71307340D01*
X347937673Y-71259721D01*
X348461482Y-71259721D01*
D10*
X348659102Y-89952102D02*
X348572682Y-89952102D01*
X348659102Y-59472102D02*
X348572682Y-59472102D01*
X349159102Y-89952102D02*
X349159102Y-59472102D01*
X349159102Y-89952102D02*
X349159102Y-59472102D01*
X349159102Y-89952102D02*
X349745523Y-88825598D01*
X349159102Y-89952102D02*
X348572681Y-88825598D01*
X349159102Y-59472102D02*
X348572681Y-60598606D01*
X349159102Y-59472102D02*
X349745523Y-60598606D01*
D11*
X211070840Y-89254482D02*
X210499411Y-89254482D01*
X210785125Y-89254482D02*
X210785125Y-88254482D01*
X210689887Y-88397340D01*
X210594649Y-88492578D01*
X210499411Y-88540197D01*
X211689887Y-88254482D02*
X211785125Y-88254482D01*
X211880363Y-88302102D01*
X211927982Y-88349721D01*
X211975602Y-88444959D01*
X212023221Y-88635435D01*
X212023221Y-88873530D01*
X211975602Y-89064006D01*
X211927982Y-89159244D01*
X211880363Y-89206863D01*
X211785125Y-89254482D01*
X211689887Y-89254482D01*
X211594649Y-89206863D01*
X211547030Y-89159244D01*
X211499411Y-89064006D01*
X211451792Y-88873530D01*
X211451792Y-88635435D01*
X211499411Y-88444959D01*
X211547030Y-88349721D01*
X211594649Y-88302102D01*
X211689887Y-88254482D01*
X212451792Y-89159244D02*
X212499411Y-89206863D01*
X212451792Y-89254482D01*
X212404173Y-89206863D01*
X212451792Y-89159244D01*
X212451792Y-89254482D01*
X213356554Y-88254482D02*
X213166078Y-88254482D01*
X213070840Y-88302102D01*
X213023221Y-88349721D01*
X212927982Y-88492578D01*
X212880363Y-88683054D01*
X212880363Y-89064006D01*
X212927982Y-89159244D01*
X212975602Y-89206863D01*
X213070840Y-89254482D01*
X213261316Y-89254482D01*
X213356554Y-89206863D01*
X213404173Y-89159244D01*
X213451792Y-89064006D01*
X213451792Y-88825911D01*
X213404173Y-88730673D01*
X213356554Y-88683054D01*
X213261316Y-88635435D01*
X213070840Y-88635435D01*
X212975602Y-88683054D01*
X212927982Y-88730673D01*
X212880363Y-88825911D01*
X214070840Y-88254482D02*
X214166078Y-88254482D01*
X214261316Y-88302102D01*
X214308935Y-88349721D01*
X214356554Y-88444959D01*
X214404173Y-88635435D01*
X214404173Y-88873530D01*
X214356554Y-89064006D01*
X214308935Y-89159244D01*
X214261316Y-89206863D01*
X214166078Y-89254482D01*
X214070840Y-89254482D01*
X213975602Y-89206863D01*
X213927982Y-89159244D01*
X213880363Y-89064006D01*
X213832744Y-88873530D01*
X213832744Y-88635435D01*
X213880363Y-88444959D01*
X213927982Y-88349721D01*
X213975602Y-88302102D01*
X214070840Y-88254482D01*
X215308935Y-88254482D02*
X214832744Y-88254482D01*
X214785125Y-88730673D01*
X214832744Y-88683054D01*
X214927982Y-88635435D01*
X215166078Y-88635435D01*
X215261316Y-88683054D01*
X215308935Y-88730673D01*
X215356554Y-88825911D01*
X215356554Y-89064006D01*
X215308935Y-89159244D01*
X215261316Y-89206863D01*
X215166078Y-89254482D01*
X214927982Y-89254482D01*
X214832744Y-89206863D01*
X214785125Y-89159244D01*
X215975602Y-88254482D02*
X216070840Y-88254482D01*
X216166078Y-88302102D01*
X216213697Y-88349721D01*
X216261316Y-88444959D01*
X216308935Y-88635435D01*
X216308935Y-88873530D01*
X216261316Y-89064006D01*
X216213697Y-89159244D01*
X216166078Y-89206863D01*
X216070840Y-89254482D01*
X215975602Y-89254482D01*
X215880363Y-89206863D01*
X215832744Y-89159244D01*
X215785125Y-89064006D01*
X215737506Y-88873530D01*
X215737506Y-88635435D01*
X215785125Y-88444959D01*
X215832744Y-88349721D01*
X215880363Y-88302102D01*
X215975602Y-88254482D01*
X217499411Y-89254482D02*
X217499411Y-88587816D01*
X217499411Y-88254482D02*
X217451792Y-88302102D01*
X217499411Y-88349721D01*
X217547030Y-88302102D01*
X217499411Y-88254482D01*
X217499411Y-88349721D01*
X217975602Y-88587816D02*
X217975602Y-89254482D01*
X217975602Y-88683054D02*
X218023221Y-88635435D01*
X218118459Y-88587816D01*
X218261316Y-88587816D01*
X218356554Y-88635435D01*
X218404173Y-88730673D01*
X218404173Y-89254482D01*
D10*
X79792102Y-89452102D02*
X79792102Y-89365682D01*
X349159102Y-89452102D02*
X349159102Y-89365682D01*
X79792102Y-89952102D02*
X349159102Y-89952102D01*
X79792102Y-89952102D02*
X349159102Y-89952102D01*
X79792102Y-89952102D02*
X80918606Y-90538523D01*
X79792102Y-89952102D02*
X80918606Y-89365681D01*
X349159102Y-89952102D02*
X348032598Y-89365681D01*
X349159102Y-89952102D02*
X348032598Y-90538523D01*
D11*
X336904482Y-178224673D02*
X336904482Y-178796102D01*
X336904482Y-178510387D02*
X335904482Y-178510387D01*
X336047340Y-178605625D01*
X336142578Y-178700863D01*
X336190197Y-178796102D01*
X336809244Y-177796102D02*
X336856863Y-177748482D01*
X336904482Y-177796102D01*
X336856863Y-177843721D01*
X336809244Y-177796102D01*
X336904482Y-177796102D01*
X335904482Y-176843721D02*
X335904482Y-177319911D01*
X336380673Y-177367530D01*
X336333054Y-177319911D01*
X336285435Y-177224673D01*
X336285435Y-176986578D01*
X336333054Y-176891340D01*
X336380673Y-176843721D01*
X336475911Y-176796102D01*
X336714006Y-176796102D01*
X336809244Y-176843721D01*
X336856863Y-176891340D01*
X336904482Y-176986578D01*
X336904482Y-177224673D01*
X336856863Y-177319911D01*
X336809244Y-177367530D01*
X335904482Y-176177054D02*
X335904482Y-176081816D01*
X335952102Y-175986578D01*
X335999721Y-175938959D01*
X336094959Y-175891340D01*
X336285435Y-175843721D01*
X336523530Y-175843721D01*
X336714006Y-175891340D01*
X336809244Y-175938959D01*
X336856863Y-175986578D01*
X336904482Y-176081816D01*
X336904482Y-176177054D01*
X336856863Y-176272292D01*
X336809244Y-176319911D01*
X336714006Y-176367530D01*
X336523530Y-176415149D01*
X336285435Y-176415149D01*
X336094959Y-176367530D01*
X335999721Y-176319911D01*
X335952102Y-176272292D01*
X335904482Y-176177054D01*
X335904482Y-175224673D02*
X335904482Y-175129435D01*
X335952102Y-175034197D01*
X335999721Y-174986578D01*
X336094959Y-174938959D01*
X336285435Y-174891340D01*
X336523530Y-174891340D01*
X336714006Y-174938959D01*
X336809244Y-174986578D01*
X336856863Y-175034197D01*
X336904482Y-175129435D01*
X336904482Y-175224673D01*
X336856863Y-175319911D01*
X336809244Y-175367530D01*
X336714006Y-175415149D01*
X336523530Y-175462768D01*
X336285435Y-175462768D01*
X336094959Y-175415149D01*
X335999721Y-175367530D01*
X335952102Y-175319911D01*
X335904482Y-175224673D01*
X335904482Y-174272292D02*
X335904482Y-174177054D01*
X335952102Y-174081816D01*
X335999721Y-174034197D01*
X336094959Y-173986578D01*
X336285435Y-173938959D01*
X336523530Y-173938959D01*
X336714006Y-173986578D01*
X336809244Y-174034197D01*
X336856863Y-174081816D01*
X336904482Y-174177054D01*
X336904482Y-174272292D01*
X336856863Y-174367530D01*
X336809244Y-174415149D01*
X336714006Y-174462768D01*
X336523530Y-174510387D01*
X336285435Y-174510387D01*
X336094959Y-174462768D01*
X335999721Y-174415149D01*
X335952102Y-174367530D01*
X335904482Y-174272292D01*
X336904482Y-172748482D02*
X336237816Y-172748482D01*
X335904482Y-172748482D02*
X335952102Y-172796102D01*
X335999721Y-172748482D01*
X335952102Y-172700863D01*
X335904482Y-172748482D01*
X335999721Y-172748482D01*
X336237816Y-172272292D02*
X336904482Y-172272292D01*
X336333054Y-172272292D02*
X336285435Y-172224673D01*
X336237816Y-172129435D01*
X336237816Y-171986578D01*
X336285435Y-171891340D01*
X336380673Y-171843721D01*
X336904482Y-171843721D01*
D10*
X335816102Y-194346102D02*
X338188522Y-194346102D01*
X335816102Y-156246102D02*
X338188522Y-156246102D01*
X337602102Y-194346102D02*
X337602102Y-156246102D01*
X337602102Y-194346102D02*
X337602102Y-156246102D01*
X337602102Y-194346102D02*
X338188523Y-193219598D01*
X337602102Y-194346102D02*
X337015681Y-193219598D01*
X337602102Y-156246102D02*
X337015681Y-157372606D01*
X337602102Y-156246102D02*
X338188523Y-157372606D01*
D11*
X312893102Y-213952721D02*
X312940721Y-213905102D01*
X313035959Y-213857482D01*
X313274054Y-213857482D01*
X313369292Y-213905102D01*
X313416911Y-213952721D01*
X313464530Y-214047959D01*
X313464530Y-214143197D01*
X313416911Y-214286054D01*
X312845482Y-214857482D01*
X313464530Y-214857482D01*
X313893102Y-214762244D02*
X313940721Y-214809863D01*
X313893102Y-214857482D01*
X313845482Y-214809863D01*
X313893102Y-214762244D01*
X313893102Y-214857482D01*
X314845482Y-213857482D02*
X314369292Y-213857482D01*
X314321673Y-214333673D01*
X314369292Y-214286054D01*
X314464530Y-214238435D01*
X314702625Y-214238435D01*
X314797863Y-214286054D01*
X314845482Y-214333673D01*
X314893102Y-214428911D01*
X314893102Y-214667006D01*
X314845482Y-214762244D01*
X314797863Y-214809863D01*
X314702625Y-214857482D01*
X314464530Y-214857482D01*
X314369292Y-214809863D01*
X314321673Y-214762244D01*
X315226435Y-213857482D02*
X315893102Y-213857482D01*
X315464530Y-214857482D01*
X316464530Y-213857482D02*
X316559768Y-213857482D01*
X316655006Y-213905102D01*
X316702625Y-213952721D01*
X316750244Y-214047959D01*
X316797863Y-214238435D01*
X316797863Y-214476530D01*
X316750244Y-214667006D01*
X316702625Y-214762244D01*
X316655006Y-214809863D01*
X316559768Y-214857482D01*
X316464530Y-214857482D01*
X316369292Y-214809863D01*
X316321673Y-214762244D01*
X316274054Y-214667006D01*
X316226435Y-214476530D01*
X316226435Y-214238435D01*
X316274054Y-214047959D01*
X316321673Y-213952721D01*
X316369292Y-213905102D01*
X316464530Y-213857482D01*
X317416911Y-213857482D02*
X317512149Y-213857482D01*
X317607387Y-213905102D01*
X317655006Y-213952721D01*
X317702625Y-214047959D01*
X317750244Y-214238435D01*
X317750244Y-214476530D01*
X317702625Y-214667006D01*
X317655006Y-214762244D01*
X317607387Y-214809863D01*
X317512149Y-214857482D01*
X317416911Y-214857482D01*
X317321673Y-214809863D01*
X317274054Y-214762244D01*
X317226435Y-214667006D01*
X317178816Y-214476530D01*
X317178816Y-214238435D01*
X317226435Y-214047959D01*
X317274054Y-213952721D01*
X317321673Y-213905102D01*
X317416911Y-213857482D01*
X318940721Y-214857482D02*
X318940721Y-214190816D01*
X318940721Y-213857482D02*
X318893102Y-213905102D01*
X318940721Y-213952721D01*
X318988340Y-213905102D01*
X318940721Y-213857482D01*
X318940721Y-213952721D01*
X319416911Y-214190816D02*
X319416911Y-214857482D01*
X319416911Y-214286054D02*
X319464530Y-214238435D01*
X319559768Y-214190816D01*
X319702625Y-214190816D01*
X319797863Y-214238435D01*
X319845482Y-214333673D01*
X319845482Y-214857482D01*
D10*
X349032102Y-214912102D02*
X349032102Y-216141522D01*
X283754102Y-214912102D02*
X283754102Y-216141522D01*
X349032102Y-215555102D02*
X283754102Y-215555102D01*
X349032102Y-215555102D02*
X283754102Y-215555102D01*
X349032102Y-215555102D02*
X347905598Y-214968681D01*
X349032102Y-215555102D02*
X347905598Y-216141523D01*
X283754102Y-215555102D02*
X284880606Y-216141523D01*
X283754102Y-215555102D02*
X284880606Y-214968681D01*
D11*
X211007340Y-225362380D02*
X210435911Y-225362380D01*
X210721625Y-225362380D02*
X210721625Y-224362380D01*
X210626387Y-224505238D01*
X210531149Y-224600476D01*
X210435911Y-224648095D01*
X211959721Y-225362380D02*
X211388292Y-225362380D01*
X211674006Y-225362380D02*
X211674006Y-224362380D01*
X211578768Y-224505238D01*
X211483530Y-224600476D01*
X211388292Y-224648095D01*
X212388292Y-225267142D02*
X212435911Y-225314761D01*
X212388292Y-225362380D01*
X212340673Y-225314761D01*
X212388292Y-225267142D01*
X212388292Y-225362380D01*
X213054959Y-224362380D02*
X213150197Y-224362380D01*
X213245435Y-224410000D01*
X213293054Y-224457619D01*
X213340673Y-224552857D01*
X213388292Y-224743333D01*
X213388292Y-224981428D01*
X213340673Y-225171904D01*
X213293054Y-225267142D01*
X213245435Y-225314761D01*
X213150197Y-225362380D01*
X213054959Y-225362380D01*
X212959721Y-225314761D01*
X212912102Y-225267142D01*
X212864482Y-225171904D01*
X212816863Y-224981428D01*
X212816863Y-224743333D01*
X212864482Y-224552857D01*
X212912102Y-224457619D01*
X212959721Y-224410000D01*
X213054959Y-224362380D01*
X214007340Y-224362380D02*
X214102578Y-224362380D01*
X214197816Y-224410000D01*
X214245435Y-224457619D01*
X214293054Y-224552857D01*
X214340673Y-224743333D01*
X214340673Y-224981428D01*
X214293054Y-225171904D01*
X214245435Y-225267142D01*
X214197816Y-225314761D01*
X214102578Y-225362380D01*
X214007340Y-225362380D01*
X213912102Y-225314761D01*
X213864482Y-225267142D01*
X213816863Y-225171904D01*
X213769244Y-224981428D01*
X213769244Y-224743333D01*
X213816863Y-224552857D01*
X213864482Y-224457619D01*
X213912102Y-224410000D01*
X214007340Y-224362380D01*
X214959721Y-224362380D02*
X215054959Y-224362380D01*
X215150197Y-224410000D01*
X215197816Y-224457619D01*
X215245435Y-224552857D01*
X215293054Y-224743333D01*
X215293054Y-224981428D01*
X215245435Y-225171904D01*
X215197816Y-225267142D01*
X215150197Y-225314761D01*
X215054959Y-225362380D01*
X214959721Y-225362380D01*
X214864482Y-225314761D01*
X214816863Y-225267142D01*
X214769244Y-225171904D01*
X214721625Y-224981428D01*
X214721625Y-224743333D01*
X214769244Y-224552857D01*
X214816863Y-224457619D01*
X214864482Y-224410000D01*
X214959721Y-224362380D01*
X215912102Y-224362380D02*
X216007340Y-224362380D01*
X216102578Y-224410000D01*
X216150197Y-224457619D01*
X216197816Y-224552857D01*
X216245435Y-224743333D01*
X216245435Y-224981428D01*
X216197816Y-225171904D01*
X216150197Y-225267142D01*
X216102578Y-225314761D01*
X216007340Y-225362380D01*
X215912102Y-225362380D01*
X215816863Y-225314761D01*
X215769244Y-225267142D01*
X215721625Y-225171904D01*
X215674006Y-224981428D01*
X215674006Y-224743333D01*
X215721625Y-224552857D01*
X215769244Y-224457619D01*
X215816863Y-224410000D01*
X215912102Y-224362380D01*
X217435911Y-225362380D02*
X217435911Y-224695714D01*
X217435911Y-224362380D02*
X217388292Y-224410000D01*
X217435911Y-224457619D01*
X217483530Y-224410000D01*
X217435911Y-224362380D01*
X217435911Y-224457619D01*
X217912102Y-224695714D02*
X217912102Y-225362380D01*
X217912102Y-224790952D02*
X217959721Y-224743333D01*
X218054959Y-224695714D01*
X218197816Y-224695714D01*
X218293054Y-224743333D01*
X218340673Y-224838571D01*
X218340673Y-225362380D01*
D10*
X354112102Y-214912102D02*
X354112102Y-226646420D01*
X74712102Y-214912102D02*
X74712102Y-226646420D01*
X354112102Y-226060000D02*
X74712102Y-226060000D01*
X354112102Y-226060000D02*
X74712102Y-226060000D01*
X354112102Y-226060000D02*
X352985598Y-225473579D01*
X354112102Y-226060000D02*
X352985598Y-226646421D01*
X74712102Y-226060000D02*
X75838606Y-226646421D01*
X74712102Y-226060000D02*
X75838606Y-225473579D01*
D11*
X82650483Y-178224673D02*
X82650483Y-178796102D01*
X82650483Y-178510387D02*
X81650483Y-178510387D01*
X81793341Y-178605625D01*
X81888579Y-178700863D01*
X81936198Y-178796102D01*
X82555245Y-177796102D02*
X82602864Y-177748482D01*
X82650483Y-177796102D01*
X82602864Y-177843721D01*
X82555245Y-177796102D01*
X82650483Y-177796102D01*
X81650483Y-176843721D02*
X81650483Y-177319911D01*
X82126674Y-177367530D01*
X82079055Y-177319911D01*
X82031436Y-177224673D01*
X82031436Y-176986578D01*
X82079055Y-176891340D01*
X82126674Y-176843721D01*
X82221912Y-176796102D01*
X82460007Y-176796102D01*
X82555245Y-176843721D01*
X82602864Y-176891340D01*
X82650483Y-176986578D01*
X82650483Y-177224673D01*
X82602864Y-177319911D01*
X82555245Y-177367530D01*
X81650483Y-176177054D02*
X81650483Y-176081816D01*
X81698103Y-175986578D01*
X81745722Y-175938959D01*
X81840960Y-175891340D01*
X82031436Y-175843721D01*
X82269531Y-175843721D01*
X82460007Y-175891340D01*
X82555245Y-175938959D01*
X82602864Y-175986578D01*
X82650483Y-176081816D01*
X82650483Y-176177054D01*
X82602864Y-176272292D01*
X82555245Y-176319911D01*
X82460007Y-176367530D01*
X82269531Y-176415149D01*
X82031436Y-176415149D01*
X81840960Y-176367530D01*
X81745722Y-176319911D01*
X81698103Y-176272292D01*
X81650483Y-176177054D01*
X81650483Y-175224673D02*
X81650483Y-175129435D01*
X81698103Y-175034197D01*
X81745722Y-174986578D01*
X81840960Y-174938959D01*
X82031436Y-174891340D01*
X82269531Y-174891340D01*
X82460007Y-174938959D01*
X82555245Y-174986578D01*
X82602864Y-175034197D01*
X82650483Y-175129435D01*
X82650483Y-175224673D01*
X82602864Y-175319911D01*
X82555245Y-175367530D01*
X82460007Y-175415149D01*
X82269531Y-175462768D01*
X82031436Y-175462768D01*
X81840960Y-175415149D01*
X81745722Y-175367530D01*
X81698103Y-175319911D01*
X81650483Y-175224673D01*
X81650483Y-174272292D02*
X81650483Y-174177054D01*
X81698103Y-174081816D01*
X81745722Y-174034197D01*
X81840960Y-173986578D01*
X82031436Y-173938959D01*
X82269531Y-173938959D01*
X82460007Y-173986578D01*
X82555245Y-174034197D01*
X82602864Y-174081816D01*
X82650483Y-174177054D01*
X82650483Y-174272292D01*
X82602864Y-174367530D01*
X82555245Y-174415149D01*
X82460007Y-174462768D01*
X82269531Y-174510387D01*
X82031436Y-174510387D01*
X81840960Y-174462768D01*
X81745722Y-174415149D01*
X81698103Y-174367530D01*
X81650483Y-174272292D01*
X82650483Y-172748482D02*
X81983817Y-172748482D01*
X81650483Y-172748482D02*
X81698103Y-172796102D01*
X81745722Y-172748482D01*
X81698103Y-172700863D01*
X81650483Y-172748482D01*
X81745722Y-172748482D01*
X81983817Y-172272292D02*
X82650483Y-172272292D01*
X82079055Y-172272292D02*
X82031436Y-172224673D01*
X81983817Y-172129435D01*
X81983817Y-171986578D01*
X82031436Y-171891340D01*
X82126674Y-171843721D01*
X82650483Y-171843721D01*
D10*
X83356102Y-156246102D02*
X82761683Y-156246102D01*
X83356102Y-194346102D02*
X82761683Y-194346102D01*
X83348103Y-156246102D02*
X83348103Y-194346102D01*
X83348103Y-156246102D02*
X83348103Y-194346102D01*
X83348103Y-156246102D02*
X82761682Y-157372606D01*
X83348103Y-156246102D02*
X83934524Y-157372606D01*
X83348103Y-194346102D02*
X83934524Y-193219598D01*
X83348103Y-194346102D02*
X82761682Y-193219598D01*
D11*
X358982380Y-132361721D02*
X358982380Y-131695054D01*
X359982380Y-132123625D01*
X359887142Y-131314102D02*
X359934761Y-131266482D01*
X359982380Y-131314102D01*
X359934761Y-131361721D01*
X359887142Y-131314102D01*
X359982380Y-131314102D01*
X359982380Y-130314102D02*
X359982380Y-130885530D01*
X359982380Y-130599816D02*
X358982380Y-130599816D01*
X359125238Y-130695054D01*
X359220476Y-130790292D01*
X359268095Y-130885530D01*
X359315714Y-129456959D02*
X359982380Y-129456959D01*
X358934761Y-129695054D02*
X359649047Y-129933149D01*
X359649047Y-129314102D01*
X358982380Y-128742673D02*
X358982380Y-128647435D01*
X359030000Y-128552197D01*
X359077619Y-128504578D01*
X359172857Y-128456959D01*
X359363333Y-128409340D01*
X359601428Y-128409340D01*
X359791904Y-128456959D01*
X359887142Y-128504578D01*
X359934761Y-128552197D01*
X359982380Y-128647435D01*
X359982380Y-128742673D01*
X359934761Y-128837911D01*
X359887142Y-128885530D01*
X359791904Y-128933149D01*
X359601428Y-128980768D01*
X359363333Y-128980768D01*
X359172857Y-128933149D01*
X359077619Y-128885530D01*
X359030000Y-128837911D01*
X358982380Y-128742673D01*
X358982380Y-127790292D02*
X358982380Y-127695054D01*
X359030000Y-127599816D01*
X359077619Y-127552197D01*
X359172857Y-127504578D01*
X359363333Y-127456959D01*
X359601428Y-127456959D01*
X359791904Y-127504578D01*
X359887142Y-127552197D01*
X359934761Y-127599816D01*
X359982380Y-127695054D01*
X359982380Y-127790292D01*
X359934761Y-127885530D01*
X359887142Y-127933149D01*
X359791904Y-127980768D01*
X359601428Y-128028387D01*
X359363333Y-128028387D01*
X359172857Y-127980768D01*
X359077619Y-127933149D01*
X359030000Y-127885530D01*
X358982380Y-127790292D01*
X359982380Y-126266482D02*
X359315714Y-126266482D01*
X358982380Y-126266482D02*
X359030000Y-126314102D01*
X359077619Y-126266482D01*
X359030000Y-126218863D01*
X358982380Y-126266482D01*
X359077619Y-126266482D01*
X359315714Y-125790292D02*
X359982380Y-125790292D01*
X359410952Y-125790292D02*
X359363333Y-125742673D01*
X359315714Y-125647435D01*
X359315714Y-125504578D01*
X359363333Y-125409340D01*
X359458571Y-125361721D01*
X359982380Y-125361721D01*
D10*
X349532102Y-38136102D02*
X361266420Y-38136102D01*
X349532102Y-219492102D02*
X361266420Y-219492102D01*
X360680000Y-38136102D02*
X360680000Y-219492102D01*
X360680000Y-38136102D02*
X360680000Y-219492102D01*
X360680000Y-38136102D02*
X360093579Y-39262606D01*
X360680000Y-38136102D02*
X361266421Y-39262606D01*
X360680000Y-219492102D02*
X361266421Y-218365598D01*
X360680000Y-219492102D02*
X360093579Y-218365598D01*
M02*
