M48
; DRILL file {KiCad (6.0.7)} date Mon Mar 20 21:04:40 2023
; FORMAT={-:-/ absolute / metric / decimal}
; #@! TF.CreationDate,2023-03-20T21:04:40-05:00
; #@! TF.GenerationSoftware,Kicad,Pcbnew,(6.0.7)
; #@! TF.FileFunction,Plated,1,2,PTH
FMAT,2
METRIC
; #@! TA.AperFunction,Plated,PTH,ViaDrill
T1C0.254
; #@! TA.AperFunction,Plated,PTH,ViaDrill
T2C0.400
; #@! TA.AperFunction,Plated,PTH,ComponentDrill
T3C0.500
; #@! TA.AperFunction,Plated,PTH,ComponentDrill
T4C0.700
; #@! TA.AperFunction,Plated,PTH,ComponentDrill
T5C0.800
; #@! TA.AperFunction,Plated,PTH,ComponentDrill
T6C0.889
; #@! TA.AperFunction,Plated,PTH,ComponentDrill
T7C0.900
; #@! TA.AperFunction,Plated,PTH,ComponentDrill
T8C1.000
; #@! TA.AperFunction,Plated,PTH,ComponentDrill
T9C1.020
; #@! TA.AperFunction,Plated,PTH,ComponentDrill
T10C1.600
; #@! TA.AperFunction,Plated,PTH,ComponentDrill
T11C2.000
; #@! TA.AperFunction,Plated,PTH,ComponentDrill
T12C3.250
; #@! TA.AperFunction,Plated,PTH,ComponentDrill
T13C9.144
%
G90
G05
T1
X121.158Y-30.666
X121.158Y-32.59
X121.92Y-30.666
X121.92Y-32.59
X130.683Y-36.505
X131.445Y-36.505
T2
X73.66Y-58.42
X73.66Y-63.5
X73.66Y-73.66
X73.66Y-78.74
X75.946Y-34.036
X75.946Y-35.814
X76.2Y-55.88
X76.2Y-76.2
X76.2Y-91.44
X76.2Y-101.6
X76.2Y-111.76
X78.74Y-58.42
X78.74Y-78.74
X79.248Y-34.036
X79.248Y-35.814
X81.28Y-55.88
X81.28Y-86.36
X81.28Y-96.52
X81.28Y-106.68
X81.28Y-116.84
X82.042Y-44.704
X83.82Y-44.704
X83.82Y-78.74
X85.598Y-44.704
X86.36Y-55.88
X86.36Y-76.2
X86.36Y-91.44
X86.36Y-101.6
X86.36Y-111.76
X88.9Y-58.42
X88.9Y-78.74
X89.141Y-42.797
X89.408Y-46.736
X90.424Y-47.752
X91.44Y-55.88
X91.44Y-60.96
X91.44Y-71.12
X91.44Y-76.2
X91.44Y-86.36
X91.44Y-91.44
X91.44Y-96.52
X91.44Y-116.84
X92.964Y-50.8
X92.964Y-52.324
X93.98Y-58.42
X93.98Y-63.5
X93.98Y-68.58
X93.98Y-73.66
X93.98Y-78.74
X93.98Y-88.9
X93.98Y-93.98
X96.52Y-55.88
X96.52Y-60.96
X96.52Y-66.04
X96.52Y-71.12
X96.52Y-76.2
X96.52Y-86.36
X96.52Y-91.44
X96.52Y-96.52
X97.028Y-48.768
X99.06Y-58.42
X99.06Y-63.5
X99.06Y-68.58
X99.06Y-73.66
X99.06Y-78.74
X99.06Y-88.9
X99.06Y-93.98
X100.399Y-52.255
X100.584Y-39.624
X100.584Y-41.148
X101.6Y-86.36
X101.6Y-91.44
X101.6Y-96.52
X101.6Y-116.84
X101.981Y-35.179
X102.362Y-50.546
X103.378Y-39.624
X103.378Y-41.148
X104.14Y-63.5
X104.14Y-68.58
X104.14Y-73.66
X104.14Y-78.74
X104.14Y-83.82
X104.14Y-88.9
X104.14Y-93.98
X106.68Y-30.48
X106.68Y-66.04
X106.68Y-71.12
X106.68Y-96.52
X106.68Y-111.76
X107.95Y-52.832
X107.95Y-60.706
X109.22Y-63.5
X109.22Y-68.58
X109.22Y-73.66
X109.22Y-99.06
X109.22Y-104.14
X109.22Y-109.22
X109.22Y-114.3
X111.76Y-66.04
X111.76Y-71.12
X111.76Y-96.52
X111.76Y-101.6
X111.76Y-106.68
X111.76Y-111.76
X111.76Y-116.84
X112.23Y-53.34
X113.03Y-60.96
X114.3Y-44.704
X114.3Y-63.5
X114.3Y-68.58
X114.3Y-73.66
X114.3Y-78.74
X114.3Y-83.82
X114.3Y-93.98
X114.3Y-99.06
X114.3Y-104.14
X114.3Y-109.22
X114.3Y-114.3
X115.316Y-52.578
X115.316Y-54.102
X116.84Y-30.48
X116.84Y-66.04
X116.84Y-71.12
X116.84Y-76.2
X116.84Y-81.28
X116.84Y-91.44
X116.84Y-96.52
X116.84Y-101.6
X116.84Y-106.68
X116.84Y-111.76
X117.602Y-63.927
X118.134Y-53.34
X119.38Y-63.5
X119.38Y-68.58
X119.38Y-73.66
X119.38Y-78.74
X119.38Y-83.82
X120.65Y-60.96
X121.92Y-66.04
X121.92Y-71.12
X121.92Y-76.2
X121.92Y-81.28
X121.92Y-96.52
X121.92Y-106.68
X121.92Y-116.84
X123.19Y-54.356
X124.206Y-50.292
X124.46Y-63.5
X124.46Y-68.58
X124.46Y-73.66
X124.46Y-78.74
X124.46Y-83.82
X124.466Y-57.156
X126.746Y-47.498
X126.896Y-49.276
X127.0Y-57.947
X127.0Y-66.04
X127.0Y-71.12
X127.0Y-76.2
X127.0Y-81.28
X127.0Y-91.44
X127.0Y-101.6
X127.0Y-111.76
X127.762Y-44.45
X130.048Y-83.058
X131.572Y-62.484
X131.826Y-39.624
X132.08Y-55.88
X132.08Y-96.52
X132.08Y-106.68
X132.08Y-116.84
X132.842Y-36.576
X133.096Y-45.72
X133.096Y-67.183
X133.221Y-32.256
X133.604Y-40.894
X133.858Y-36.576
X134.112Y-32.984
X134.62Y-63.246
X134.62Y-67.183
X134.626Y-44.964
X134.629Y-39.621
X135.866Y-65.024
X136.362Y-70.612
X136.715Y-61.658
X136.906Y-37.465
X136.906Y-38.608
X136.906Y-39.624
X137.16Y-50.8
X137.16Y-101.6
X137.16Y-111.76
X137.922Y-76.2
X138.684Y-31.496
X138.684Y-40.894
X139.954Y-76.2
X140.71Y-65.03
X141.224Y-31.242
X141.224Y-40.894
X141.986Y-76.2
X142.24Y-55.88
X142.24Y-86.36
X142.24Y-96.52
X142.24Y-116.84
X142.488Y-45.218
X142.748Y-66.04
X142.748Y-78.232
X143.764Y-30.226
X143.764Y-41.216
X144.78Y-68.58
X144.78Y-76.962
X145.288Y-60.198
X145.796Y-51.816
X146.304Y-30.226
X146.304Y-40.894
X146.812Y-50.292
X146.812Y-58.674
X146.812Y-67.056
X146.812Y-75.438
X146.862Y-84.328
X147.447Y-37.465
X148.74Y-50.292
X148.74Y-58.674
X148.74Y-67.056
X148.74Y-75.438
X148.844Y-44.958
X148.844Y-53.086
X148.844Y-61.468
X148.844Y-69.85
X149.352Y-38.608
X149.606Y-62.484
X149.606Y-63.754
X149.606Y-65.024
X149.606Y-71.12
X149.606Y-72.39
X149.606Y-73.66
X149.86Y-44.704
X149.86Y-45.72
X149.86Y-46.99
X149.86Y-48.26
X149.86Y-53.086
X149.86Y-54.102
X149.86Y-55.372
X149.86Y-56.642
X149.86Y-69.85
X150.114Y-61.468
X152.4Y-35.56
X152.4Y-96.52
X152.4Y-116.84
X153.82Y-50.292
X153.877Y-58.674
X153.877Y-75.438
X153.924Y-67.056
X154.178Y-44.704
X154.178Y-46.633
X154.178Y-53.086
X154.178Y-54.911
X154.178Y-61.468
X154.178Y-63.293
X154.178Y-69.85
X154.178Y-71.675
X155.645Y-50.292
X155.702Y-44.807
X155.702Y-48.768
X155.702Y-53.086
X155.702Y-57.15
X155.702Y-58.674
X155.702Y-61.468
X155.702Y-65.532
X155.702Y-67.056
X155.702Y-69.85
X155.702Y-73.66
X155.702Y-75.438
X157.329Y-55.88
X157.329Y-64.262
X157.329Y-72.644
X157.433Y-47.752
X157.48Y-101.6
X157.48Y-111.76
X162.56Y-35.56
X162.56Y-76.708
X162.56Y-86.36
X162.56Y-96.52
X162.56Y-106.68
X162.56Y-116.84
X166.878Y-76.708
X167.64Y-30.48
X167.64Y-91.44
X167.64Y-101.6
X167.64Y-111.76
X171.45Y-76.708
X172.72Y-35.56
X172.72Y-86.36
X172.72Y-96.52
X172.72Y-106.68
X172.72Y-116.84
T3
X106.585Y-78.1
X106.585Y-79.43
X106.585Y-80.77
X106.585Y-82.1
X106.585Y-88.1
X106.585Y-89.43
X106.585Y-90.77
X106.585Y-92.1
X106.975Y-76.9
X106.975Y-83.3
X106.975Y-86.9
X106.975Y-93.3
X108.005Y-76.15
X108.005Y-84.05
X108.005Y-86.15
X108.005Y-94.05
X109.265Y-76.15
X109.265Y-84.05
X109.265Y-86.15
X109.265Y-94.05
X110.295Y-76.9
X110.295Y-83.3
X110.295Y-86.9
X110.295Y-93.3
X110.685Y-78.1
X110.685Y-79.43
X110.685Y-80.77
X110.685Y-82.1
X110.685Y-88.1
X110.685Y-89.43
X110.685Y-90.77
X110.685Y-92.1
T4
X124.222Y-29.628
X124.222Y-31.628
X124.222Y-33.628
X126.222Y-29.628
X126.222Y-31.628
X126.222Y-33.628
T5
X73.946Y-38.1
X75.946Y-38.1
X87.235Y-83.19
X87.235Y-85.1
X87.235Y-87.01
X96.012Y-52.07
X98.012Y-52.07
X111.252Y-27.178
X111.252Y-42.418
X113.792Y-27.178
X113.792Y-42.418
X116.332Y-27.178
X116.332Y-42.418
X118.872Y-27.178
X118.872Y-42.418
X121.412Y-27.178
X121.412Y-42.418
X123.952Y-27.178
X123.952Y-42.418
X126.492Y-27.178
X126.492Y-42.418
X129.032Y-27.178
X129.032Y-42.418
X131.572Y-27.178
X131.572Y-42.418
X134.112Y-27.178
X134.112Y-42.418
X136.652Y-27.178
X136.652Y-42.418
X139.192Y-27.178
X139.192Y-42.418
X141.732Y-27.178
X141.732Y-42.418
X144.272Y-27.178
X144.272Y-42.418
X146.812Y-27.178
X146.812Y-42.418
X149.352Y-27.178
X149.352Y-42.418
X151.892Y-27.178
X151.892Y-42.418
X154.432Y-27.178
X154.432Y-42.418
X156.972Y-27.178
X156.972Y-42.418
X159.512Y-27.178
X159.512Y-42.418
X162.052Y-27.178
X162.052Y-42.418
X164.592Y-27.178
X164.592Y-42.418
X167.132Y-27.178
X167.132Y-42.418
X169.672Y-27.178
X169.672Y-42.418
T6
X87.503Y-45.466
X87.503Y-48.006
X87.503Y-50.546
T7
X94.361Y-45.668
X95.631Y-43.128
X96.901Y-45.668
X98.171Y-43.128
X99.441Y-45.668
X100.711Y-43.128
X101.981Y-45.668
X103.251Y-43.128
X103.886Y-59.436
X106.426Y-59.436
X108.966Y-59.436
X111.506Y-59.436
X111.506Y-59.436
X113.792Y-47.244
X113.792Y-47.244
X116.332Y-47.244
X118.872Y-47.244
X121.412Y-47.244
X123.444Y-60.452
X125.984Y-60.452
X128.524Y-60.452
X134.175Y-60.325
X136.144Y-46.99
X136.715Y-60.325
X138.684Y-46.99
X141.224Y-46.99
X164.338Y-46.761
X164.338Y-49.301
X164.338Y-51.841
X164.338Y-54.381
X164.338Y-56.921
X164.338Y-59.461
X164.338Y-62.001
X164.338Y-64.541
X164.338Y-67.081
X170.053Y-46.761
X170.053Y-49.301
X170.053Y-51.841
X170.053Y-54.381
X170.053Y-56.921
X170.053Y-59.461
X170.053Y-62.001
X170.053Y-64.541
X170.053Y-67.081
T8
X77.578Y-31.4
X80.117Y-31.4
X82.657Y-31.4
T9
X92.481Y-33.489
X95.021Y-31.698
X102.591Y-33.489
X105.131Y-31.698
T10
X90.931Y-39.828
X106.681Y-39.828
T12
X93.091Y-36.779
X104.521Y-36.779
T13
X82.55Y-67.31
X98.806Y-106.172
X147.701Y-106.172
T11
X108.635Y-78.1G85X108.635Y-82.1
G05
X108.635Y-88.1G85X108.635Y-92.1
G05
X115.396Y-87.122G85X117.496Y-87.122
G05
X123.296Y-87.122G85X125.396Y-87.122
G05
T0
M30
