G04 #@! TF.GenerationSoftware,KiCad,Pcbnew,(6.0.7)*
G04 #@! TF.CreationDate,2022-11-19T14:41:37-06:00*
G04 #@! TF.ProjectId,2023Rev1,32303233-5265-4763-912e-6b696361645f,rev?*
G04 #@! TF.SameCoordinates,Original*
G04 #@! TF.FileFunction,Paste,Top*
G04 #@! TF.FilePolarity,Positive*
%FSLAX46Y46*%
G04 Gerber Fmt 4.6, Leading zero omitted, Abs format (unit mm)*
G04 Created by KiCad (PCBNEW (6.0.7)) date 2022-11-19 14:41:37*
%MOMM*%
%LPD*%
G01*
G04 APERTURE LIST*
G04 Aperture macros list*
%AMRoundRect*
0 Rectangle with rounded corners*
0 $1 Rounding radius*
0 $2 $3 $4 $5 $6 $7 $8 $9 X,Y pos of 4 corners*
0 Add a 4 corners polygon primitive as box body*
4,1,4,$2,$3,$4,$5,$6,$7,$8,$9,$2,$3,0*
0 Add four circle primitives for the rounded corners*
1,1,$1+$1,$2,$3*
1,1,$1+$1,$4,$5*
1,1,$1+$1,$6,$7*
1,1,$1+$1,$8,$9*
0 Add four rect primitives between the rounded corners*
20,1,$1+$1,$2,$3,$4,$5,0*
20,1,$1+$1,$4,$5,$6,$7,0*
20,1,$1+$1,$6,$7,$8,$9,0*
20,1,$1+$1,$8,$9,$2,$3,0*%
G04 Aperture macros list end*
%ADD10RoundRect,0.237500X-0.250000X-0.237500X0.250000X-0.237500X0.250000X0.237500X-0.250000X0.237500X0*%
%ADD11RoundRect,0.150000X-0.150000X0.587500X-0.150000X-0.587500X0.150000X-0.587500X0.150000X0.587500X0*%
%ADD12RoundRect,0.237500X-0.237500X0.250000X-0.237500X-0.250000X0.237500X-0.250000X0.237500X0.250000X0*%
%ADD13RoundRect,0.250001X2.474999X-0.799999X2.474999X0.799999X-2.474999X0.799999X-2.474999X-0.799999X0*%
%ADD14R,2.500000X6.000000*%
%ADD15RoundRect,0.237500X-0.237500X0.300000X-0.237500X-0.300000X0.237500X-0.300000X0.237500X0.300000X0*%
%ADD16RoundRect,0.237500X-0.287500X-0.237500X0.287500X-0.237500X0.287500X0.237500X-0.287500X0.237500X0*%
%ADD17RoundRect,0.150000X0.725000X0.150000X-0.725000X0.150000X-0.725000X-0.150000X0.725000X-0.150000X0*%
%ADD18R,0.900000X1.200000*%
%ADD19RoundRect,0.237500X0.250000X0.237500X-0.250000X0.237500X-0.250000X-0.237500X0.250000X-0.237500X0*%
%ADD20R,4.600000X0.800000*%
%ADD21R,4.550000X5.250000*%
%ADD22RoundRect,0.237500X0.237500X-0.250000X0.237500X0.250000X-0.237500X0.250000X-0.237500X-0.250000X0*%
%ADD23RoundRect,0.237500X0.237500X-0.300000X0.237500X0.300000X-0.237500X0.300000X-0.237500X-0.300000X0*%
%ADD24RoundRect,0.237500X-0.300000X-0.237500X0.300000X-0.237500X0.300000X0.237500X-0.300000X0.237500X0*%
%ADD25RoundRect,0.150000X-0.150000X0.725000X-0.150000X-0.725000X0.150000X-0.725000X0.150000X0.725000X0*%
%ADD26R,0.800000X1.900000*%
%ADD27R,1.900000X0.800000*%
G04 APERTURE END LIST*
D10*
X228485602Y-78268102D03*
X230310602Y-78268102D03*
D11*
X190724102Y-62598602D03*
X188824102Y-62598602D03*
X189774102Y-64473602D03*
D12*
X215936102Y-80911602D03*
X215936102Y-82736602D03*
D11*
X194280102Y-62598602D03*
X192380102Y-62598602D03*
X193330102Y-64473602D03*
D13*
X271816102Y-159848102D03*
X271816102Y-152898102D03*
D14*
X132600102Y-68920102D03*
X132600102Y-81520102D03*
D12*
X223048102Y-76339602D03*
X223048102Y-78164602D03*
D10*
X89039602Y-67600102D03*
X90864602Y-67600102D03*
D15*
X277912102Y-193483602D03*
X277912102Y-195208602D03*
D12*
X173264102Y-80911602D03*
X173264102Y-82736602D03*
D16*
X85013102Y-74204102D03*
X86763102Y-74204102D03*
D17*
X159457102Y-83729102D03*
X159457102Y-82459102D03*
X159457102Y-81189102D03*
X159457102Y-79919102D03*
X154307102Y-79919102D03*
X154307102Y-81189102D03*
X154307102Y-82459102D03*
X154307102Y-83729102D03*
D18*
X195744102Y-72680102D03*
X199044102Y-72680102D03*
D16*
X85013102Y-67600102D03*
X86763102Y-67600102D03*
D12*
X201354602Y-76085602D03*
X201354602Y-77910602D03*
X195362102Y-76085602D03*
X195362102Y-77910602D03*
D11*
X183612102Y-62598602D03*
X181712102Y-62598602D03*
X182662102Y-64473602D03*
D12*
X206792102Y-80657602D03*
X206792102Y-82482602D03*
D10*
X205879602Y-154468102D03*
X207704602Y-154468102D03*
D17*
X180757102Y-83729102D03*
X180757102Y-82459102D03*
X180757102Y-81189102D03*
X180757102Y-79919102D03*
X175607102Y-79919102D03*
X175607102Y-81189102D03*
X175607102Y-82459102D03*
X175607102Y-83729102D03*
D12*
X160056102Y-76085602D03*
X160056102Y-77910602D03*
X154086102Y-76085602D03*
X154086102Y-77910602D03*
D10*
X262267602Y-150531102D03*
X264092602Y-150531102D03*
D19*
X231834602Y-155230102D03*
X230009602Y-155230102D03*
D18*
X201078102Y-72680102D03*
X204378102Y-72680102D03*
D10*
X89039602Y-71156102D03*
X90864602Y-71156102D03*
D20*
X243362102Y-158024102D03*
D21*
X254937102Y-164609102D03*
X250087102Y-159059102D03*
X250087102Y-164609102D03*
X254937102Y-159059102D03*
D20*
X243362102Y-159294102D03*
X243362102Y-163104102D03*
X243362102Y-164374102D03*
X243362102Y-160564102D03*
X243362102Y-165644102D03*
D12*
X203132602Y-76085602D03*
X203132602Y-77910602D03*
D10*
X143649602Y-83348102D03*
X145474602Y-83348102D03*
D22*
X174985102Y-77910602D03*
X174985102Y-76085602D03*
D12*
X200660000Y-155297500D03*
X200660000Y-157122500D03*
D11*
X179802102Y-62598602D03*
X177902102Y-62598602D03*
X178852102Y-64473602D03*
D12*
X181138102Y-76085602D03*
X181138102Y-77910602D03*
D11*
X197836102Y-62598602D03*
X195936102Y-62598602D03*
X196886102Y-64473602D03*
D22*
X197140102Y-77910602D03*
X197140102Y-76085602D03*
D15*
X260640102Y-89851602D03*
X260640102Y-91576602D03*
D10*
X89039602Y-74204102D03*
X90864602Y-74204102D03*
D12*
X161708102Y-82285102D03*
X161708102Y-84110102D03*
D16*
X85013102Y-71156102D03*
X86763102Y-71156102D03*
D23*
X257592102Y-72526602D03*
X257592102Y-70801602D03*
D10*
X209689602Y-154468102D03*
X211514602Y-154468102D03*
X167779602Y-57186102D03*
X169604602Y-57186102D03*
D12*
X87630000Y-155297500D03*
X87630000Y-157122500D03*
D22*
X152182102Y-77910602D03*
X152182102Y-76085602D03*
D24*
X106495602Y-42708102D03*
X108220602Y-42708102D03*
D19*
X227770602Y-104684102D03*
X225945602Y-104684102D03*
D12*
X179360102Y-76085602D03*
X179360102Y-77910602D03*
D22*
X163612102Y-78014102D03*
X163612102Y-76189102D03*
D11*
X201392102Y-62598602D03*
X199492102Y-62598602D03*
X200442102Y-64473602D03*
D18*
X172630102Y-72680102D03*
X175930102Y-72680102D03*
D12*
X216444102Y-76339602D03*
X216444102Y-78164602D03*
D22*
X184694102Y-77910602D03*
X184694102Y-76085602D03*
D17*
X223337102Y-83729102D03*
X223337102Y-82459102D03*
X223337102Y-81189102D03*
X223337102Y-79919102D03*
X218187102Y-79919102D03*
X218187102Y-81189102D03*
X218187102Y-82459102D03*
X218187102Y-83729102D03*
D18*
X154850102Y-72680102D03*
X158150102Y-72680102D03*
D22*
X206792102Y-77910602D03*
X206792102Y-76085602D03*
X218222102Y-78164602D03*
X218222102Y-76339602D03*
D17*
X202636102Y-83729102D03*
X202636102Y-82459102D03*
X202636102Y-81189102D03*
X202636102Y-79919102D03*
X197486102Y-79919102D03*
X197486102Y-81189102D03*
X197486102Y-82459102D03*
X197486102Y-83729102D03*
D25*
X264831102Y-152528102D03*
X263561102Y-152528102D03*
X262291102Y-152528102D03*
X261021102Y-152528102D03*
X261021102Y-157678102D03*
X262291102Y-157678102D03*
X263561102Y-157678102D03*
X264831102Y-157678102D03*
D18*
X218350102Y-72680102D03*
X221650102Y-72680102D03*
D26*
X227808102Y-98612102D03*
X225908102Y-98612102D03*
X226858102Y-101612102D03*
X167742102Y-54876102D03*
X169642102Y-54876102D03*
X168692102Y-51876102D03*
D12*
X205014102Y-82435602D03*
X205014102Y-84260602D03*
D18*
X224827102Y-72680102D03*
X228127102Y-72680102D03*
D16*
X85013102Y-77252102D03*
X86763102Y-77252102D03*
D12*
X158278102Y-76085602D03*
X158278102Y-77910602D03*
D19*
X232850602Y-82332102D03*
X231025602Y-82332102D03*
D11*
X187168102Y-62598602D03*
X185268102Y-62598602D03*
X186218102Y-64473602D03*
D27*
X144284102Y-81504102D03*
X144284102Y-79604102D03*
X141284102Y-80554102D03*
D12*
X184694102Y-80657602D03*
X184694102Y-82482602D03*
X152056102Y-80911602D03*
X152056102Y-82736602D03*
X225588102Y-82435602D03*
X225588102Y-84260602D03*
X182916102Y-82435602D03*
X182916102Y-84260602D03*
X163612102Y-80403602D03*
X163612102Y-82228602D03*
D18*
X178218102Y-72680102D03*
X181518102Y-72680102D03*
X213016102Y-72680102D03*
X216316102Y-72680102D03*
D12*
X224826102Y-76339602D03*
X224826102Y-78164602D03*
X194600102Y-80911602D03*
X194600102Y-82736602D03*
D15*
X258608102Y-89851602D03*
X258608102Y-91576602D03*
D11*
X204948102Y-62598602D03*
X203048102Y-62598602D03*
X203998102Y-64473602D03*
D12*
X173207102Y-76085602D03*
X173207102Y-77910602D03*
D22*
X234986102Y-157158602D03*
X234986102Y-155333602D03*
M02*
