G75*
%MOIN*%
%OFA0B0*%
%FSLAX24Y24*%
%IPPOS*%
%LPD*%
%AMOC8*
5,1,8,0,0,1.08239X$1,22.5*
%
%ADD10C,0.1955*%
%ADD11C,0.0820*%
%ADD12C,0.0780*%
%ADD13OC8,0.0674*%
D10*
X006737Y001635D03*
X002237Y015635D03*
D11*
X001487Y003135D03*
X001487Y004135D03*
X001487Y005135D03*
X001487Y006135D03*
X001487Y007135D03*
X001487Y008135D03*
X001487Y009135D03*
X001487Y010135D03*
X001487Y011135D03*
X001487Y012135D03*
X001487Y013135D03*
X007487Y013635D03*
X007487Y014635D03*
X007487Y012635D03*
X007487Y011635D03*
X007487Y010635D03*
X007487Y009635D03*
X007487Y008635D03*
X007487Y007635D03*
X007487Y006635D03*
X007487Y005635D03*
X007487Y004635D03*
D12*
X005939Y005135D03*
X005939Y006135D03*
X005939Y007135D03*
X005939Y008135D03*
X005939Y009135D03*
X005939Y010135D03*
X005939Y011135D03*
X005939Y012135D03*
X005939Y013135D03*
X002987Y013135D03*
X002987Y012135D03*
X002987Y011135D03*
X002987Y010135D03*
X002987Y009135D03*
X002987Y008135D03*
X002987Y007135D03*
X002987Y006135D03*
X002987Y005135D03*
X002987Y004135D03*
X005939Y004135D03*
D13*
X004221Y001385D03*
X002252Y001385D03*
M02*
