%
M48
M72
T01C0.0394
T02C0.0400
T03C0.1875
%
T01
X2252Y1385
X2987Y4135
X2987Y5135
X2987Y6135
X2987Y7135
X2987Y8135
X2987Y9135
X2987Y10135
X2987Y11135
X2987Y12135
X2987Y13135
X5939Y13135
X5939Y12135
X5939Y11135
X5939Y10135
X5939Y9135
X5939Y8135
X5939Y7135
X5939Y6135
X5939Y5135
X5939Y4135
X4221Y1385
T02
X1487Y3135
X1487Y4135
X1487Y5135
X1487Y6135
X1487Y7135
X1487Y8135
X1487Y9135
X1487Y10135
X1487Y11135
X1487Y12135
X1487Y13135
X7487Y13635
X7487Y14635
X7487Y12635
X7487Y11635
X7487Y10635
X7487Y9635
X7487Y8635
X7487Y7635
X7487Y6635
X7487Y5635
X7487Y4635
T03
X6737Y1635
X2237Y15635
M30
