G75*
%MOIN*%
%OFA0B0*%
%FSLAX24Y24*%
%IPPOS*%
%LPD*%
%AMOC8*
5,1,8,0,0,1.08239X$1,22.5*
%
%ADD10C,0.0000*%
%ADD11C,0.0740*%
%ADD12C,0.0700*%
%ADD13OC8,0.0594*%
D10*
X000487Y000135D02*
X000487Y017005D01*
X008479Y017005D01*
X008479Y000135D01*
X000487Y000135D01*
X005799Y001635D02*
X005801Y001696D01*
X005807Y001756D01*
X005817Y001816D01*
X005830Y001875D01*
X005848Y001934D01*
X005869Y001990D01*
X005894Y002046D01*
X005922Y002100D01*
X005954Y002151D01*
X005989Y002201D01*
X006027Y002248D01*
X006068Y002293D01*
X006112Y002335D01*
X006159Y002374D01*
X006208Y002410D01*
X006259Y002442D01*
X006313Y002471D01*
X006368Y002497D01*
X006424Y002519D01*
X006482Y002538D01*
X006541Y002552D01*
X006601Y002563D01*
X006661Y002570D01*
X006722Y002573D01*
X006783Y002572D01*
X006843Y002567D01*
X006903Y002558D01*
X006963Y002545D01*
X007021Y002529D01*
X007078Y002509D01*
X007134Y002485D01*
X007188Y002457D01*
X007241Y002426D01*
X007291Y002392D01*
X007339Y002355D01*
X007384Y002314D01*
X007427Y002271D01*
X007466Y002225D01*
X007503Y002176D01*
X007536Y002126D01*
X007566Y002073D01*
X007593Y002018D01*
X007616Y001962D01*
X007635Y001905D01*
X007651Y001846D01*
X007663Y001786D01*
X007671Y001726D01*
X007675Y001665D01*
X007675Y001605D01*
X007671Y001544D01*
X007663Y001484D01*
X007651Y001424D01*
X007635Y001365D01*
X007616Y001308D01*
X007593Y001252D01*
X007566Y001197D01*
X007536Y001144D01*
X007503Y001094D01*
X007466Y001045D01*
X007427Y000999D01*
X007384Y000956D01*
X007339Y000915D01*
X007291Y000878D01*
X007241Y000844D01*
X007188Y000813D01*
X007134Y000785D01*
X007078Y000761D01*
X007021Y000741D01*
X006963Y000725D01*
X006903Y000712D01*
X006843Y000703D01*
X006783Y000698D01*
X006722Y000697D01*
X006661Y000700D01*
X006601Y000707D01*
X006541Y000718D01*
X006482Y000732D01*
X006424Y000751D01*
X006368Y000773D01*
X006313Y000799D01*
X006259Y000828D01*
X006208Y000860D01*
X006159Y000896D01*
X006112Y000935D01*
X006068Y000977D01*
X006027Y001022D01*
X005989Y001069D01*
X005954Y001119D01*
X005922Y001170D01*
X005894Y001224D01*
X005869Y001280D01*
X005848Y001336D01*
X005830Y001395D01*
X005817Y001454D01*
X005807Y001514D01*
X005801Y001574D01*
X005799Y001635D01*
X001299Y015635D02*
X001301Y015696D01*
X001307Y015756D01*
X001317Y015816D01*
X001330Y015875D01*
X001348Y015934D01*
X001369Y015990D01*
X001394Y016046D01*
X001422Y016100D01*
X001454Y016151D01*
X001489Y016201D01*
X001527Y016248D01*
X001568Y016293D01*
X001612Y016335D01*
X001659Y016374D01*
X001708Y016410D01*
X001759Y016442D01*
X001813Y016471D01*
X001868Y016497D01*
X001924Y016519D01*
X001982Y016538D01*
X002041Y016552D01*
X002101Y016563D01*
X002161Y016570D01*
X002222Y016573D01*
X002283Y016572D01*
X002343Y016567D01*
X002403Y016558D01*
X002463Y016545D01*
X002521Y016529D01*
X002578Y016509D01*
X002634Y016485D01*
X002688Y016457D01*
X002741Y016426D01*
X002791Y016392D01*
X002839Y016355D01*
X002884Y016314D01*
X002927Y016271D01*
X002966Y016225D01*
X003003Y016176D01*
X003036Y016126D01*
X003066Y016073D01*
X003093Y016018D01*
X003116Y015962D01*
X003135Y015905D01*
X003151Y015846D01*
X003163Y015786D01*
X003171Y015726D01*
X003175Y015665D01*
X003175Y015605D01*
X003171Y015544D01*
X003163Y015484D01*
X003151Y015424D01*
X003135Y015365D01*
X003116Y015308D01*
X003093Y015252D01*
X003066Y015197D01*
X003036Y015144D01*
X003003Y015094D01*
X002966Y015045D01*
X002927Y014999D01*
X002884Y014956D01*
X002839Y014915D01*
X002791Y014878D01*
X002741Y014844D01*
X002688Y014813D01*
X002634Y014785D01*
X002578Y014761D01*
X002521Y014741D01*
X002463Y014725D01*
X002403Y014712D01*
X002343Y014703D01*
X002283Y014698D01*
X002222Y014697D01*
X002161Y014700D01*
X002101Y014707D01*
X002041Y014718D01*
X001982Y014732D01*
X001924Y014751D01*
X001868Y014773D01*
X001813Y014799D01*
X001759Y014828D01*
X001708Y014860D01*
X001659Y014896D01*
X001612Y014935D01*
X001568Y014977D01*
X001527Y015022D01*
X001489Y015069D01*
X001454Y015119D01*
X001422Y015170D01*
X001394Y015224D01*
X001369Y015280D01*
X001348Y015336D01*
X001330Y015395D01*
X001317Y015454D01*
X001307Y015514D01*
X001301Y015574D01*
X001299Y015635D01*
D11*
X001487Y013135D03*
X001487Y012135D03*
X001487Y011135D03*
X001487Y010135D03*
X001487Y009135D03*
X001487Y008135D03*
X001487Y007135D03*
X001487Y006135D03*
X001487Y005135D03*
X001487Y004135D03*
X001487Y003135D03*
X007487Y004635D03*
X007487Y005635D03*
X007487Y006635D03*
X007487Y007635D03*
X007487Y008635D03*
X007487Y009635D03*
X007487Y010635D03*
X007487Y011635D03*
X007487Y012635D03*
X007487Y013635D03*
X007487Y014635D03*
D12*
X005939Y013135D03*
X005939Y012135D03*
X005939Y011135D03*
X005939Y010135D03*
X005939Y009135D03*
X005939Y008135D03*
X005939Y007135D03*
X005939Y006135D03*
X005939Y005135D03*
X005939Y004135D03*
X002987Y004135D03*
X002987Y005135D03*
X002987Y006135D03*
X002987Y007135D03*
X002987Y008135D03*
X002987Y009135D03*
X002987Y010135D03*
X002987Y011135D03*
X002987Y012135D03*
X002987Y013135D03*
D13*
X002252Y001385D03*
X004221Y001385D03*
M02*
