G75*
%MOIN*%
%OFA0B0*%
%FSLAX24Y24*%
%IPPOS*%
%LPD*%
%AMOC8*
5,1,8,0,0,1.08239X$1,22.5*
%
%ADD10C,0.0050*%
%ADD11C,0.0040*%
D10*
X004350Y045375D02*
X009850Y045375D01*
X009850Y048125D01*
X004350Y048125D01*
X004350Y045375D01*
X004600Y047625D02*
X004602Y047656D01*
X004608Y047687D01*
X004618Y047717D01*
X004631Y047745D01*
X004648Y047772D01*
X004668Y047796D01*
X004691Y047818D01*
X004716Y047836D01*
X004744Y047851D01*
X004773Y047863D01*
X004803Y047871D01*
X004834Y047875D01*
X004866Y047875D01*
X004897Y047871D01*
X004927Y047863D01*
X004956Y047851D01*
X004984Y047836D01*
X005009Y047818D01*
X005032Y047796D01*
X005052Y047772D01*
X005069Y047745D01*
X005082Y047717D01*
X005092Y047687D01*
X005098Y047656D01*
X005100Y047625D01*
X005098Y047594D01*
X005092Y047563D01*
X005082Y047533D01*
X005069Y047505D01*
X005052Y047478D01*
X005032Y047454D01*
X005009Y047432D01*
X004984Y047414D01*
X004956Y047399D01*
X004927Y047387D01*
X004897Y047379D01*
X004866Y047375D01*
X004834Y047375D01*
X004803Y047379D01*
X004773Y047387D01*
X004744Y047399D01*
X004716Y047414D01*
X004691Y047432D01*
X004668Y047454D01*
X004648Y047478D01*
X004631Y047505D01*
X004618Y047533D01*
X004608Y047563D01*
X004602Y047594D01*
X004600Y047625D01*
X069975Y038375D02*
X069977Y038397D01*
X069983Y038418D01*
X069992Y038437D01*
X070004Y038455D01*
X070020Y038471D01*
X070037Y038483D01*
X070057Y038492D01*
X070078Y038498D01*
X070100Y038500D01*
X070122Y038498D01*
X070143Y038492D01*
X070162Y038483D01*
X070180Y038471D01*
X070196Y038455D01*
X070208Y038437D01*
X070217Y038418D01*
X070223Y038397D01*
X070225Y038375D01*
X070223Y038353D01*
X070217Y038332D01*
X070208Y038313D01*
X070196Y038295D01*
X070180Y038279D01*
X070163Y038267D01*
X070143Y038258D01*
X070122Y038252D01*
X070100Y038250D01*
X070078Y038252D01*
X070057Y038258D01*
X070037Y038267D01*
X070020Y038279D01*
X070004Y038295D01*
X069992Y038312D01*
X069983Y038332D01*
X069977Y038353D01*
X069975Y038375D01*
D11*
X002954Y044380D02*
X002647Y044073D01*
X002570Y044150D01*
X002570Y044303D01*
X002647Y044380D01*
X002954Y044380D01*
X003030Y044303D01*
X003030Y044150D01*
X002954Y044073D01*
X002647Y044073D01*
X002647Y044534D02*
X002647Y044610D01*
X002570Y044610D01*
X002570Y044534D01*
X002647Y044534D01*
X002570Y044764D02*
X002570Y045071D01*
X002570Y044917D02*
X003030Y044917D01*
X002877Y044764D01*
X002877Y045224D02*
X002647Y045224D01*
X002570Y045301D01*
X002570Y045531D01*
X002877Y045531D01*
X002800Y045685D02*
X002800Y045838D01*
X002570Y045685D02*
X003030Y045685D01*
X003030Y045992D01*
X001630Y045838D02*
X001170Y045838D01*
X001170Y045685D02*
X001170Y045992D01*
X001477Y045685D02*
X001630Y045838D01*
X001554Y045531D02*
X001630Y045454D01*
X001630Y045301D01*
X001554Y045224D01*
X001554Y045071D02*
X001630Y044994D01*
X001630Y044841D01*
X001554Y044764D01*
X001247Y044764D01*
X001170Y044841D01*
X001170Y044994D01*
X001247Y045071D01*
X001170Y045224D02*
X001477Y045531D01*
X001554Y045531D01*
X001170Y045531D02*
X001170Y045224D01*
X010483Y045645D02*
X010790Y045645D01*
X010483Y045952D01*
X010483Y046029D01*
X010560Y046105D01*
X010714Y046105D01*
X010790Y046029D01*
X010944Y046029D02*
X011021Y046105D01*
X011174Y046105D01*
X011251Y046029D01*
X011251Y045722D01*
X011174Y045645D01*
X011021Y045645D01*
X010944Y045722D01*
X011404Y045645D02*
X011558Y045645D01*
X011481Y045645D02*
X011481Y046105D01*
X011558Y046105D02*
X011404Y046105D01*
X011174Y046645D02*
X011251Y046722D01*
X011251Y047029D01*
X011174Y047105D01*
X011021Y047105D01*
X010944Y047029D01*
X010944Y046722D01*
X011021Y046645D01*
X011174Y046645D01*
X011097Y046798D02*
X010944Y046645D01*
X010790Y046645D02*
X010483Y046645D01*
X010637Y046645D02*
X010637Y047105D01*
X010790Y046952D01*
X011404Y046875D02*
X011711Y046875D01*
X011865Y046952D02*
X011865Y047029D01*
X011941Y047105D01*
X012095Y047105D01*
X012172Y047029D01*
X012479Y047105D02*
X012479Y046645D01*
X012632Y046645D02*
X012325Y046645D01*
X012172Y046645D02*
X011865Y046952D01*
X011865Y046645D02*
X012172Y046645D01*
X012632Y046952D02*
X012479Y047105D01*
X012785Y047029D02*
X012785Y046722D01*
X012862Y046645D01*
X013016Y046645D01*
X013092Y046722D01*
X013246Y046722D02*
X013323Y046645D01*
X013476Y046645D01*
X013553Y046722D01*
X013553Y046875D02*
X013399Y046952D01*
X013323Y046952D01*
X013246Y046875D01*
X013246Y046722D01*
X013092Y046952D02*
X013016Y046875D01*
X012785Y046875D01*
X012785Y047029D02*
X012862Y047105D01*
X013016Y047105D01*
X013092Y047029D01*
X013092Y046952D01*
X013246Y047105D02*
X013553Y047105D01*
X013553Y046875D01*
X013706Y046722D02*
X013783Y046645D01*
X013936Y046645D01*
X014013Y046722D01*
X014013Y047029D01*
X013936Y047105D01*
X013783Y047105D01*
X013706Y047029D01*
X014167Y047105D02*
X014320Y047029D01*
X014474Y046875D01*
X014243Y046875D01*
X014167Y046798D01*
X014167Y046722D01*
X014243Y046645D01*
X014397Y046645D01*
X014474Y046722D01*
X014474Y046875D01*
X014627Y046722D02*
X014704Y046645D01*
X014857Y046645D01*
X014934Y046722D01*
X014934Y047029D01*
X014857Y047105D01*
X014704Y047105D01*
X014627Y047029D01*
X015087Y046645D02*
X015394Y046645D01*
X015394Y047105D01*
X015548Y047105D02*
X015855Y047105D01*
X015701Y047105D02*
X015701Y046645D01*
M02*
