G75*
%MOIN*%
%OFA0B0*%
%FSLAX24Y24*%
%IPPOS*%
%LPD*%
%AMOC8*
5,1,8,0,0,1.08239X$1,22.5*
%
%ADD10C,0.0050*%
D10*
X004350Y045375D02*
X009850Y045375D01*
X009850Y048125D01*
X004350Y048125D01*
X004350Y045375D01*
X004600Y047625D02*
X004602Y047656D01*
X004608Y047687D01*
X004618Y047717D01*
X004631Y047745D01*
X004648Y047772D01*
X004668Y047796D01*
X004691Y047818D01*
X004716Y047836D01*
X004744Y047851D01*
X004773Y047863D01*
X004803Y047871D01*
X004834Y047875D01*
X004866Y047875D01*
X004897Y047871D01*
X004927Y047863D01*
X004956Y047851D01*
X004984Y047836D01*
X005009Y047818D01*
X005032Y047796D01*
X005052Y047772D01*
X005069Y047745D01*
X005082Y047717D01*
X005092Y047687D01*
X005098Y047656D01*
X005100Y047625D01*
X005098Y047594D01*
X005092Y047563D01*
X005082Y047533D01*
X005069Y047505D01*
X005052Y047478D01*
X005032Y047454D01*
X005009Y047432D01*
X004984Y047414D01*
X004956Y047399D01*
X004927Y047387D01*
X004897Y047379D01*
X004866Y047375D01*
X004834Y047375D01*
X004803Y047379D01*
X004773Y047387D01*
X004744Y047399D01*
X004716Y047414D01*
X004691Y047432D01*
X004668Y047454D01*
X004648Y047478D01*
X004631Y047505D01*
X004618Y047533D01*
X004608Y047563D01*
X004602Y047594D01*
X004600Y047625D01*
X069975Y038375D02*
X069977Y038397D01*
X069983Y038418D01*
X069992Y038437D01*
X070004Y038455D01*
X070020Y038471D01*
X070037Y038483D01*
X070057Y038492D01*
X070078Y038498D01*
X070100Y038500D01*
X070122Y038498D01*
X070143Y038492D01*
X070162Y038483D01*
X070180Y038471D01*
X070196Y038455D01*
X070208Y038437D01*
X070217Y038418D01*
X070223Y038397D01*
X070225Y038375D01*
X070223Y038353D01*
X070217Y038332D01*
X070208Y038313D01*
X070196Y038295D01*
X070180Y038279D01*
X070163Y038267D01*
X070143Y038258D01*
X070122Y038252D01*
X070100Y038250D01*
X070078Y038252D01*
X070057Y038258D01*
X070037Y038267D01*
X070020Y038279D01*
X070004Y038295D01*
X069992Y038312D01*
X069983Y038332D01*
X069977Y038353D01*
X069975Y038375D01*
M02*
