G75*
%MOIN*%
%OFA0B0*%
%FSLAX24Y24*%
%IPPOS*%
%LPD*%
%AMOC8*
5,1,8,0,0,1.08239X$1,22.5*
%
%ADD10C,0.0040*%
%ADD11C,0.0100*%
%ADD12C,0.0080*%
%ADD13C,0.0050*%
%ADD14C,0.0060*%
%ADD15C,0.0020*%
%ADD16R,0.0236X0.1260*%
%ADD17R,0.0354X0.0375*%
%ADD18R,0.0354X0.0375*%
%ADD19R,0.0236X0.0768*%
%ADD20R,0.0394X0.2362*%
%ADD21C,0.0030*%
D10*
X068376Y051101D02*
X068376Y053149D01*
X072824Y053149D01*
X072824Y051101D01*
X068376Y051101D01*
X072456Y052853D02*
X072458Y052873D01*
X072463Y052893D01*
X072473Y052911D01*
X072485Y052928D01*
X072500Y052942D01*
X072518Y052952D01*
X072537Y052960D01*
X072557Y052964D01*
X072577Y052964D01*
X072597Y052960D01*
X072616Y052952D01*
X072634Y052942D01*
X072649Y052928D01*
X072661Y052911D01*
X072671Y052893D01*
X072676Y052873D01*
X072678Y052853D01*
X072676Y052833D01*
X072671Y052813D01*
X072661Y052795D01*
X072649Y052778D01*
X072634Y052764D01*
X072616Y052754D01*
X072597Y052746D01*
X072577Y052742D01*
X072557Y052742D01*
X072537Y052746D01*
X072518Y052754D01*
X072500Y052764D01*
X072485Y052778D01*
X072473Y052795D01*
X072463Y052813D01*
X072458Y052833D01*
X072456Y052853D01*
D11*
X054600Y054375D02*
X045600Y054375D01*
X045600Y056125D01*
X054600Y056125D01*
X054600Y054375D01*
X054600Y056125D02*
X054600Y056875D01*
X045600Y056875D01*
X045600Y056125D01*
X045600Y057375D02*
X045600Y059125D01*
X054600Y059125D01*
X054600Y057375D01*
X045600Y057375D01*
X045600Y059125D02*
X045600Y059875D01*
X054600Y059875D01*
X054600Y059125D01*
X070100Y036125D02*
X070850Y036125D01*
X070850Y034125D01*
X070100Y034125D01*
X070100Y036125D01*
X070850Y036125D02*
X072600Y036125D01*
X072600Y034125D01*
X070850Y034125D01*
X070850Y033125D02*
X070100Y033125D01*
X070100Y031125D01*
X070850Y031125D01*
X070850Y033125D01*
X072600Y033125D01*
X072600Y031125D01*
X070850Y031125D01*
X071600Y030125D02*
X069850Y030125D01*
X069850Y027125D01*
X069100Y027125D01*
X069100Y030125D01*
X069850Y030125D01*
X071600Y030125D02*
X071600Y027125D01*
X069850Y027125D01*
X069850Y026625D02*
X069100Y026625D01*
X069100Y023625D01*
X069850Y023625D01*
X069850Y026625D01*
X071600Y026625D01*
X071600Y023625D01*
X069850Y023625D01*
X072350Y023625D02*
X073100Y023625D01*
X073100Y026625D01*
X074850Y026625D01*
X074850Y023625D01*
X073100Y023625D01*
X072350Y023625D02*
X072350Y026625D01*
X073100Y026625D01*
X073100Y027125D02*
X072350Y027125D01*
X072350Y030125D01*
X073100Y030125D01*
X073100Y027125D01*
X074850Y027125D01*
X074850Y030125D01*
X073100Y030125D01*
D12*
X068376Y028058D02*
X068061Y028058D01*
X068376Y028058D02*
X068376Y027940D01*
X068376Y027310D02*
X068376Y027192D01*
X068061Y027192D01*
X068061Y026558D02*
X068376Y026558D01*
X068376Y026440D01*
X068376Y025810D02*
X068376Y025692D01*
X068061Y025692D01*
X068061Y024558D02*
X068376Y024558D01*
X068376Y024440D01*
X068376Y023810D02*
X068376Y023692D01*
X068061Y023692D01*
X068061Y023058D02*
X068376Y023058D01*
X068376Y022940D01*
X068376Y022310D02*
X068376Y022192D01*
X068061Y022192D01*
X062100Y039375D02*
X062100Y039875D01*
X059856Y041271D02*
X059856Y041428D01*
X059344Y041428D01*
X059344Y041979D01*
X059045Y041731D02*
X058494Y041731D01*
X058218Y041849D02*
X058218Y042125D01*
X057982Y041889D01*
X057982Y042361D01*
X058218Y042125D01*
X058218Y042401D01*
X058494Y042519D02*
X059045Y042519D01*
X059045Y041731D01*
X059344Y041428D02*
X059344Y041271D01*
X059856Y041428D02*
X059856Y041979D01*
X060344Y043271D02*
X060344Y043428D01*
X060856Y043428D01*
X060856Y043979D01*
X060344Y043979D02*
X060344Y043428D01*
X060045Y043731D02*
X059494Y043731D01*
X059218Y043849D02*
X059218Y044125D01*
X058982Y043889D01*
X058982Y044361D01*
X059218Y044125D01*
X059218Y044401D01*
X059494Y044519D02*
X060045Y044519D01*
X060045Y043731D01*
X060856Y043428D02*
X060856Y043271D01*
X058706Y043731D02*
X058155Y043731D01*
X058155Y044519D01*
X058706Y044519D01*
X059155Y045731D02*
X059706Y045731D01*
X059982Y045889D02*
X060218Y046125D01*
X059982Y046361D01*
X059982Y045889D01*
X060218Y045849D02*
X060218Y046125D01*
X060218Y046401D01*
X060494Y046519D02*
X061045Y046519D01*
X061045Y045731D01*
X060494Y045731D01*
X061344Y045979D02*
X061344Y045428D01*
X061856Y045428D01*
X061856Y045979D01*
X061856Y045428D02*
X061856Y045271D01*
X061344Y045271D02*
X061344Y045428D01*
X059706Y046519D02*
X059155Y046519D01*
X059155Y045731D01*
X057901Y047336D02*
X057901Y047651D01*
X057665Y047651D01*
X057035Y047651D02*
X056799Y047651D01*
X056799Y047336D01*
X056364Y048739D02*
X051836Y048739D01*
X051836Y050511D01*
X056364Y050511D01*
X056364Y048739D01*
X057799Y049336D02*
X057799Y049651D01*
X058035Y049651D01*
X058665Y049651D02*
X058901Y049651D01*
X058901Y049336D01*
X060155Y048519D02*
X060155Y047731D01*
X060706Y047731D01*
X060982Y047889D02*
X061218Y048125D01*
X060982Y048361D01*
X060982Y047889D01*
X061218Y047849D02*
X061218Y048125D01*
X061218Y048401D01*
X061494Y048519D02*
X062045Y048519D01*
X062045Y047731D01*
X061494Y047731D01*
X062344Y047979D02*
X062344Y047428D01*
X062856Y047428D01*
X062856Y047979D01*
X062856Y047428D02*
X062856Y047271D01*
X062344Y047271D02*
X062344Y047428D01*
X060706Y048519D02*
X060155Y048519D01*
X061155Y049731D02*
X061706Y049731D01*
X061982Y049889D02*
X062218Y050125D01*
X061982Y050361D01*
X061982Y049889D01*
X062218Y049849D02*
X062218Y050125D01*
X062218Y050401D01*
X062494Y050519D02*
X063045Y050519D01*
X063045Y049731D01*
X062494Y049731D01*
X063344Y049979D02*
X063344Y049428D01*
X063856Y049428D01*
X063856Y049979D01*
X063856Y049428D02*
X063856Y049271D01*
X063344Y049271D02*
X063344Y049428D01*
X061706Y050519D02*
X061155Y050519D01*
X061155Y049731D01*
X059901Y051336D02*
X059901Y051651D01*
X059665Y051651D01*
X059035Y051651D02*
X058799Y051651D01*
X058799Y051336D01*
X057364Y050739D02*
X057364Y052511D01*
X052836Y052511D01*
X052836Y050739D01*
X057364Y050739D01*
X055364Y048511D02*
X050836Y048511D01*
X050836Y046739D01*
X055364Y046739D01*
X055364Y048511D01*
X054364Y046511D02*
X049836Y046511D01*
X049836Y044739D01*
X054364Y044739D01*
X054364Y046511D01*
X055799Y045651D02*
X055799Y045336D01*
X055799Y045651D02*
X056035Y045651D01*
X056665Y045651D02*
X056901Y045651D01*
X056901Y045336D01*
X055901Y043651D02*
X055901Y043336D01*
X055901Y043651D02*
X055665Y043651D01*
X055035Y043651D02*
X054799Y043651D01*
X054799Y043336D01*
X053364Y042739D02*
X053364Y044511D01*
X048836Y044511D01*
X048836Y042739D01*
X053364Y042739D01*
X052364Y042511D02*
X047836Y042511D01*
X047836Y040739D01*
X052364Y040739D01*
X052364Y042511D01*
X053799Y041651D02*
X053799Y041336D01*
X053799Y041651D02*
X054035Y041651D01*
X054665Y041651D02*
X054901Y041651D01*
X054901Y041336D01*
X057155Y041731D02*
X057706Y041731D01*
X057155Y041731D02*
X057155Y042519D01*
X057706Y042519D01*
X064344Y051271D02*
X064344Y051428D01*
X064856Y051428D01*
X064856Y051979D01*
X064344Y051979D02*
X064344Y051428D01*
X064045Y051731D02*
X064045Y052519D01*
X063494Y052519D01*
X063218Y052401D02*
X063218Y052125D01*
X062982Y051889D01*
X062982Y052361D01*
X063218Y052125D01*
X063218Y051849D01*
X063494Y051731D02*
X064045Y051731D01*
X064856Y051428D02*
X064856Y051271D01*
X062706Y051731D02*
X062155Y051731D01*
X062155Y052519D01*
X062706Y052519D01*
X063155Y053731D02*
X063706Y053731D01*
X063982Y053889D02*
X064218Y054125D01*
X063982Y054361D01*
X063982Y053889D01*
X064218Y053849D02*
X064218Y054125D01*
X064218Y054401D01*
X064494Y054519D02*
X065045Y054519D01*
X065045Y053731D01*
X064494Y053731D01*
X065344Y053979D02*
X065344Y053428D01*
X065856Y053428D01*
X065856Y053979D01*
X065856Y053428D02*
X065856Y053271D01*
X065344Y053271D02*
X065344Y053428D01*
X063706Y054519D02*
X063155Y054519D01*
X063155Y053731D01*
X062901Y055336D02*
X062901Y055651D01*
X062665Y055651D01*
X062035Y055651D02*
X061799Y055651D01*
X061799Y055336D01*
X060364Y054739D02*
X055836Y054739D01*
X055836Y056511D01*
X060364Y056511D01*
X060364Y054739D01*
X060665Y053651D02*
X060901Y053651D01*
X060901Y053336D01*
X060035Y053651D02*
X059799Y053651D01*
X059799Y053336D01*
X058364Y052739D02*
X053836Y052739D01*
X053836Y054511D01*
X058364Y054511D01*
X058364Y052739D01*
X064417Y057586D02*
X064417Y057901D01*
X064535Y057901D01*
X065165Y057901D02*
X065283Y057901D01*
X065283Y057586D01*
X065667Y057586D02*
X065667Y057901D01*
X065785Y057901D01*
X066415Y057901D02*
X066533Y057901D01*
X066533Y057586D01*
X066494Y056519D02*
X067045Y056519D01*
X067045Y055731D01*
X066494Y055731D01*
X066218Y055849D02*
X066218Y056125D01*
X065982Y055889D01*
X065982Y056361D01*
X066218Y056125D01*
X066218Y056401D01*
X065706Y056519D02*
X065155Y056519D01*
X065155Y055731D01*
X065706Y055731D01*
X067344Y055979D02*
X067344Y055428D01*
X067856Y055428D01*
X067856Y055979D01*
X067856Y055428D02*
X067856Y055271D01*
X067344Y055271D02*
X067344Y055428D01*
X066947Y059254D02*
X066978Y059329D01*
X067012Y059402D01*
X067050Y059474D01*
X067090Y059544D01*
X067134Y059612D01*
X067180Y059679D01*
X067229Y059743D01*
X067281Y059806D01*
X067335Y059866D01*
X067392Y059923D01*
X067451Y059978D01*
X067513Y060031D01*
X067577Y060081D01*
X067576Y060082D02*
X067576Y060987D01*
X069624Y060987D01*
X069624Y060042D01*
X069624Y060043D02*
X069683Y060004D01*
X069740Y059963D01*
X069796Y059920D01*
X069849Y059874D01*
X069900Y059825D01*
X066950Y057975D02*
X066981Y057902D01*
X067016Y057830D01*
X067053Y057760D01*
X067094Y057692D01*
X067138Y057625D01*
X067185Y057560D01*
X067235Y057498D01*
X067287Y057438D01*
X067342Y057380D01*
X067400Y057325D01*
X068099Y056925D02*
X068179Y056903D01*
X068260Y056885D01*
X068342Y056871D01*
X068424Y056860D01*
X068506Y056854D01*
X068589Y056851D01*
X068671Y056852D01*
X068754Y056857D01*
X068836Y056866D01*
X068918Y056879D01*
X068999Y056896D01*
X069079Y056916D01*
X069158Y056941D01*
X069236Y056968D01*
X069313Y057000D01*
X069388Y057035D01*
X069461Y057074D01*
X069532Y057115D01*
X069601Y057161D01*
X069668Y057209D01*
X069733Y057261D01*
X069795Y057315D01*
X069855Y057373D01*
X069912Y057433D01*
X069966Y057495D01*
X070017Y057561D01*
X070065Y057628D01*
X070109Y057698D01*
X070150Y057769D01*
X070188Y057843D01*
X070223Y057918D01*
X070253Y057995D01*
X063124Y060042D02*
X063124Y060987D01*
X061076Y060987D01*
X061076Y060082D01*
X060450Y057975D02*
X060481Y057902D01*
X060516Y057830D01*
X060553Y057760D01*
X060594Y057692D01*
X060638Y057625D01*
X060685Y057560D01*
X060735Y057498D01*
X060787Y057438D01*
X060842Y057380D01*
X060900Y057325D01*
X061599Y056925D02*
X061679Y056903D01*
X061760Y056885D01*
X061842Y056871D01*
X061924Y056860D01*
X062006Y056854D01*
X062089Y056851D01*
X062171Y056852D01*
X062254Y056857D01*
X062336Y056866D01*
X062418Y056879D01*
X062499Y056896D01*
X062579Y056916D01*
X062658Y056941D01*
X062736Y056968D01*
X062813Y057000D01*
X062888Y057035D01*
X062961Y057074D01*
X063032Y057115D01*
X063101Y057161D01*
X063168Y057209D01*
X063233Y057261D01*
X063295Y057315D01*
X063355Y057373D01*
X063412Y057433D01*
X063466Y057495D01*
X063517Y057561D01*
X063565Y057628D01*
X063609Y057698D01*
X063650Y057769D01*
X063688Y057843D01*
X063723Y057918D01*
X063753Y057995D01*
X063400Y059825D02*
X063349Y059874D01*
X063296Y059920D01*
X063240Y059963D01*
X063183Y060004D01*
X063124Y060043D01*
X061077Y060081D02*
X061013Y060031D01*
X060951Y059978D01*
X060892Y059923D01*
X060835Y059866D01*
X060781Y059806D01*
X060729Y059743D01*
X060680Y059679D01*
X060634Y059612D01*
X060590Y059544D01*
X060550Y059474D01*
X060512Y059402D01*
X060478Y059329D01*
X060447Y059254D01*
X057045Y059519D02*
X057045Y058731D01*
X056494Y058731D01*
X056218Y058849D02*
X056218Y059125D01*
X055982Y058889D01*
X055982Y059361D01*
X056218Y059125D01*
X056218Y059401D01*
X056494Y059519D02*
X057045Y059519D01*
X055706Y059519D02*
X055155Y059519D01*
X055155Y058731D01*
X055706Y058731D01*
X069913Y047375D02*
X075031Y047375D01*
X075031Y041375D01*
X069913Y041375D01*
X069913Y047375D01*
X073220Y047613D02*
X074480Y047613D01*
X074480Y048637D02*
X073220Y048637D01*
X073588Y048820D02*
X074297Y048820D01*
X074297Y049430D01*
X073588Y049430D01*
X073588Y049570D02*
X074297Y049570D01*
X074297Y050180D01*
X073588Y050180D01*
X073588Y050320D02*
X074297Y050320D01*
X074297Y050930D01*
X073588Y050930D01*
X074297Y050930D02*
X074612Y050930D01*
X074612Y050320D02*
X074297Y050320D01*
X074297Y050180D02*
X074612Y050180D01*
X074612Y049570D02*
X074297Y049570D01*
X074297Y049430D02*
X074612Y049430D01*
X074612Y048820D02*
X074297Y048820D01*
X046100Y039875D02*
X046100Y039375D01*
X033029Y048290D02*
X029171Y048290D01*
X026029Y048290D02*
X022171Y048290D01*
X020389Y050769D02*
X015811Y050769D01*
X015811Y052481D01*
X020389Y052481D01*
X020389Y050769D01*
X018900Y053375D02*
X018900Y053875D01*
X018300Y053875D02*
X018300Y053375D01*
X014100Y050113D02*
X014100Y049137D01*
X013706Y048625D02*
X012494Y048625D01*
X012100Y049137D02*
X012100Y050125D01*
X012494Y050625D02*
X013706Y050625D01*
X012600Y049625D02*
X012602Y049669D01*
X012608Y049713D01*
X012618Y049756D01*
X012631Y049798D01*
X012648Y049839D01*
X012669Y049878D01*
X012693Y049915D01*
X012720Y049950D01*
X012750Y049982D01*
X012783Y050012D01*
X012819Y050038D01*
X012856Y050062D01*
X012896Y050081D01*
X012937Y050098D01*
X012980Y050110D01*
X013023Y050119D01*
X013067Y050124D01*
X013111Y050125D01*
X013155Y050122D01*
X013199Y050115D01*
X013242Y050104D01*
X013284Y050090D01*
X013324Y050072D01*
X013363Y050050D01*
X013399Y050026D01*
X013433Y049998D01*
X013465Y049967D01*
X013494Y049933D01*
X013520Y049897D01*
X013542Y049859D01*
X013561Y049819D01*
X013576Y049777D01*
X013588Y049735D01*
X013596Y049691D01*
X013600Y049647D01*
X013600Y049603D01*
X013596Y049559D01*
X013588Y049515D01*
X013576Y049473D01*
X013561Y049431D01*
X013542Y049391D01*
X013520Y049353D01*
X013494Y049317D01*
X013465Y049283D01*
X013433Y049252D01*
X013399Y049224D01*
X013363Y049200D01*
X013324Y049178D01*
X013284Y049160D01*
X013242Y049146D01*
X013199Y049135D01*
X013155Y049128D01*
X013111Y049125D01*
X013067Y049126D01*
X013023Y049131D01*
X012980Y049140D01*
X012937Y049152D01*
X012896Y049169D01*
X012856Y049188D01*
X012819Y049212D01*
X012783Y049238D01*
X012750Y049268D01*
X012720Y049300D01*
X012693Y049335D01*
X012669Y049372D01*
X012648Y049411D01*
X012631Y049452D01*
X012618Y049494D01*
X012608Y049537D01*
X012602Y049581D01*
X012600Y049625D01*
X004850Y049875D02*
X004600Y049625D01*
X004100Y049625D01*
X003850Y049875D01*
X003850Y050375D01*
X003600Y050625D01*
X003850Y050875D01*
X003850Y051375D01*
X003600Y051625D01*
X003850Y051875D01*
X003850Y052375D01*
X003600Y052625D01*
X003850Y052875D01*
X003850Y053375D01*
X003600Y053625D01*
X003850Y053875D01*
X003850Y054375D01*
X003600Y054625D01*
X003850Y054875D01*
X003850Y055375D01*
X003600Y055625D01*
X003850Y055875D01*
X003850Y056375D01*
X003600Y056625D01*
X003850Y056875D01*
X003850Y057375D01*
X003600Y057625D01*
X003850Y057875D01*
X003850Y058375D01*
X003600Y058625D01*
X003850Y058875D01*
X003850Y059375D01*
X003600Y059625D01*
X003100Y059625D01*
X002850Y059375D01*
X002850Y058875D01*
X003100Y058625D01*
X002850Y058375D01*
X002850Y057875D01*
X003100Y057625D01*
X002850Y057375D01*
X002850Y056875D01*
X003100Y056625D01*
X002850Y056375D01*
X002850Y055875D01*
X003100Y055625D01*
X002850Y055375D01*
X002850Y054875D01*
X003100Y054625D01*
X002850Y054375D01*
X002850Y053875D01*
X003100Y053625D01*
X002850Y053375D01*
X002850Y052875D01*
X003100Y052625D01*
X002850Y052375D01*
X002850Y051875D01*
X003100Y051625D01*
X002850Y051375D01*
X002850Y050875D01*
X003100Y050625D01*
X002850Y050375D01*
X002850Y049875D01*
X003100Y049625D01*
X003600Y049625D01*
X003850Y049875D01*
X003850Y050375D01*
X004100Y050625D01*
X003850Y050875D01*
X003850Y051375D01*
X004100Y051625D01*
X003850Y051875D01*
X003850Y052375D01*
X004100Y052625D01*
X003850Y052875D01*
X003850Y053375D01*
X004100Y053625D01*
X003850Y053875D01*
X003850Y054375D01*
X004100Y054625D01*
X003850Y054875D01*
X003850Y055375D01*
X004100Y055625D01*
X003850Y055875D01*
X003850Y056375D01*
X004100Y056625D01*
X003850Y056875D01*
X003850Y057375D01*
X004100Y057625D01*
X003850Y057875D01*
X003850Y058375D01*
X004100Y058625D01*
X003850Y058875D01*
X003850Y059375D01*
X004100Y059625D01*
X004600Y059625D01*
X004850Y059375D01*
X004850Y058875D01*
X004600Y058625D01*
X004850Y058375D01*
X004850Y057875D01*
X004600Y057625D01*
X004850Y057375D01*
X004850Y056875D01*
X004600Y056625D01*
X004850Y056375D01*
X004850Y055875D01*
X004600Y055625D01*
X004850Y055375D01*
X004850Y054875D01*
X004600Y054625D01*
X004850Y054375D01*
X004850Y053875D01*
X004600Y053625D01*
X004850Y053375D01*
X004850Y052875D01*
X004600Y052625D01*
X004850Y052375D01*
X004850Y051875D01*
X004600Y051625D01*
X004850Y051375D01*
X004850Y050875D01*
X004600Y050625D01*
X004850Y050375D01*
X004850Y049875D01*
D13*
X001006Y037625D02*
X001006Y021011D01*
X015100Y021011D01*
X015100Y037625D01*
X001006Y037625D01*
X001450Y041625D02*
X001452Y041737D01*
X001458Y041848D01*
X001468Y041960D01*
X001482Y042071D01*
X001499Y042181D01*
X001521Y042291D01*
X001547Y042400D01*
X001576Y042508D01*
X001609Y042614D01*
X001646Y042720D01*
X001687Y042824D01*
X001732Y042927D01*
X001780Y043028D01*
X001831Y043127D01*
X001886Y043224D01*
X001945Y043319D01*
X002006Y043413D01*
X002071Y043504D01*
X002140Y043592D01*
X002211Y043678D01*
X002285Y043762D01*
X002363Y043842D01*
X002443Y043920D01*
X002526Y043996D01*
X002611Y044068D01*
X002699Y044137D01*
X002789Y044203D01*
X002882Y044265D01*
X002977Y044325D01*
X003074Y044381D01*
X003172Y044433D01*
X003273Y044482D01*
X003375Y044527D01*
X003479Y044569D01*
X003584Y044607D01*
X003691Y044641D01*
X003798Y044671D01*
X003907Y044698D01*
X004016Y044720D01*
X004127Y044739D01*
X004237Y044754D01*
X004349Y044765D01*
X004460Y044772D01*
X004572Y044775D01*
X004684Y044774D01*
X004796Y044769D01*
X004907Y044760D01*
X005018Y044747D01*
X005129Y044730D01*
X005239Y044710D01*
X005348Y044685D01*
X005456Y044657D01*
X005563Y044624D01*
X005669Y044588D01*
X005773Y044548D01*
X005876Y044505D01*
X005978Y044458D01*
X006077Y044407D01*
X006175Y044353D01*
X006271Y044295D01*
X006365Y044234D01*
X006456Y044170D01*
X006545Y044103D01*
X006632Y044032D01*
X006716Y043958D01*
X006798Y043882D01*
X006876Y043802D01*
X006952Y043720D01*
X007025Y043635D01*
X007095Y043548D01*
X007161Y043458D01*
X007225Y043366D01*
X007285Y043272D01*
X007342Y043176D01*
X007395Y043077D01*
X007445Y042977D01*
X007491Y042876D01*
X007534Y042772D01*
X007573Y042667D01*
X007608Y042561D01*
X007639Y042454D01*
X007667Y042345D01*
X007690Y042236D01*
X007710Y042126D01*
X007726Y042015D01*
X007738Y041904D01*
X007746Y041793D01*
X007750Y041681D01*
X007750Y041569D01*
X007746Y041457D01*
X007738Y041346D01*
X007726Y041235D01*
X007710Y041124D01*
X007690Y041014D01*
X007667Y040905D01*
X007639Y040796D01*
X007608Y040689D01*
X007573Y040583D01*
X007534Y040478D01*
X007491Y040374D01*
X007445Y040273D01*
X007395Y040173D01*
X007342Y040074D01*
X007285Y039978D01*
X007225Y039884D01*
X007161Y039792D01*
X007095Y039702D01*
X007025Y039615D01*
X006952Y039530D01*
X006876Y039448D01*
X006798Y039368D01*
X006716Y039292D01*
X006632Y039218D01*
X006545Y039147D01*
X006456Y039080D01*
X006365Y039016D01*
X006271Y038955D01*
X006175Y038897D01*
X006077Y038843D01*
X005978Y038792D01*
X005876Y038745D01*
X005773Y038702D01*
X005669Y038662D01*
X005563Y038626D01*
X005456Y038593D01*
X005348Y038565D01*
X005239Y038540D01*
X005129Y038520D01*
X005018Y038503D01*
X004907Y038490D01*
X004796Y038481D01*
X004684Y038476D01*
X004572Y038475D01*
X004460Y038478D01*
X004349Y038485D01*
X004237Y038496D01*
X004127Y038511D01*
X004016Y038530D01*
X003907Y038552D01*
X003798Y038579D01*
X003691Y038609D01*
X003584Y038643D01*
X003479Y038681D01*
X003375Y038723D01*
X003273Y038768D01*
X003172Y038817D01*
X003074Y038869D01*
X002977Y038925D01*
X002882Y038985D01*
X002789Y039047D01*
X002699Y039113D01*
X002611Y039182D01*
X002526Y039254D01*
X002443Y039330D01*
X002363Y039408D01*
X002285Y039488D01*
X002211Y039572D01*
X002140Y039658D01*
X002071Y039746D01*
X002006Y039837D01*
X001945Y039931D01*
X001886Y040026D01*
X001831Y040123D01*
X001780Y040222D01*
X001732Y040323D01*
X001687Y040426D01*
X001646Y040530D01*
X001609Y040636D01*
X001576Y040742D01*
X001547Y040850D01*
X001521Y040959D01*
X001499Y041069D01*
X001482Y041179D01*
X001468Y041290D01*
X001458Y041402D01*
X001452Y041513D01*
X001450Y041625D01*
X005100Y049625D02*
X008850Y049625D01*
X009100Y049875D01*
X009124Y049875D02*
X009124Y059625D01*
X009100Y059625D02*
X005100Y059625D01*
X005124Y059625D02*
X005124Y049625D01*
X011600Y057625D02*
X011600Y060125D01*
X011600Y062125D01*
X012600Y063125D01*
X014600Y063125D01*
X015600Y062125D01*
X015600Y060125D01*
X014600Y059125D01*
X012600Y059125D01*
X011600Y060125D01*
X011600Y062125D02*
X011600Y064125D01*
X015600Y064125D01*
X015600Y062125D01*
X016100Y062125D02*
X016100Y060125D01*
X017100Y059125D01*
X019100Y059125D01*
X020100Y060125D01*
X020100Y062125D01*
X019100Y063125D01*
X017100Y063125D01*
X016100Y062125D01*
X016100Y064125D01*
X020100Y064125D01*
X020100Y062125D01*
X020100Y060125D02*
X020100Y057625D01*
X016100Y057625D01*
X016100Y060125D01*
X015600Y060125D02*
X015600Y057625D01*
X011600Y057625D01*
X014450Y047125D02*
X014452Y047237D01*
X014458Y047348D01*
X014468Y047460D01*
X014482Y047571D01*
X014499Y047681D01*
X014521Y047791D01*
X014547Y047900D01*
X014576Y048008D01*
X014609Y048114D01*
X014646Y048220D01*
X014687Y048324D01*
X014732Y048427D01*
X014780Y048528D01*
X014831Y048627D01*
X014886Y048724D01*
X014945Y048819D01*
X015006Y048913D01*
X015071Y049004D01*
X015140Y049092D01*
X015211Y049178D01*
X015285Y049262D01*
X015363Y049342D01*
X015443Y049420D01*
X015526Y049496D01*
X015611Y049568D01*
X015699Y049637D01*
X015789Y049703D01*
X015882Y049765D01*
X015977Y049825D01*
X016074Y049881D01*
X016172Y049933D01*
X016273Y049982D01*
X016375Y050027D01*
X016479Y050069D01*
X016584Y050107D01*
X016691Y050141D01*
X016798Y050171D01*
X016907Y050198D01*
X017016Y050220D01*
X017127Y050239D01*
X017237Y050254D01*
X017349Y050265D01*
X017460Y050272D01*
X017572Y050275D01*
X017684Y050274D01*
X017796Y050269D01*
X017907Y050260D01*
X018018Y050247D01*
X018129Y050230D01*
X018239Y050210D01*
X018348Y050185D01*
X018456Y050157D01*
X018563Y050124D01*
X018669Y050088D01*
X018773Y050048D01*
X018876Y050005D01*
X018978Y049958D01*
X019077Y049907D01*
X019175Y049853D01*
X019271Y049795D01*
X019365Y049734D01*
X019456Y049670D01*
X019545Y049603D01*
X019632Y049532D01*
X019716Y049458D01*
X019798Y049382D01*
X019876Y049302D01*
X019952Y049220D01*
X020025Y049135D01*
X020095Y049048D01*
X020161Y048958D01*
X020225Y048866D01*
X020285Y048772D01*
X020342Y048676D01*
X020395Y048577D01*
X020445Y048477D01*
X020491Y048376D01*
X020534Y048272D01*
X020573Y048167D01*
X020608Y048061D01*
X020639Y047954D01*
X020667Y047845D01*
X020690Y047736D01*
X020710Y047626D01*
X020726Y047515D01*
X020738Y047404D01*
X020746Y047293D01*
X020750Y047181D01*
X020750Y047069D01*
X020746Y046957D01*
X020738Y046846D01*
X020726Y046735D01*
X020710Y046624D01*
X020690Y046514D01*
X020667Y046405D01*
X020639Y046296D01*
X020608Y046189D01*
X020573Y046083D01*
X020534Y045978D01*
X020491Y045874D01*
X020445Y045773D01*
X020395Y045673D01*
X020342Y045574D01*
X020285Y045478D01*
X020225Y045384D01*
X020161Y045292D01*
X020095Y045202D01*
X020025Y045115D01*
X019952Y045030D01*
X019876Y044948D01*
X019798Y044868D01*
X019716Y044792D01*
X019632Y044718D01*
X019545Y044647D01*
X019456Y044580D01*
X019365Y044516D01*
X019271Y044455D01*
X019175Y044397D01*
X019077Y044343D01*
X018978Y044292D01*
X018876Y044245D01*
X018773Y044202D01*
X018669Y044162D01*
X018563Y044126D01*
X018456Y044093D01*
X018348Y044065D01*
X018239Y044040D01*
X018129Y044020D01*
X018018Y044003D01*
X017907Y043990D01*
X017796Y043981D01*
X017684Y043976D01*
X017572Y043975D01*
X017460Y043978D01*
X017349Y043985D01*
X017237Y043996D01*
X017127Y044011D01*
X017016Y044030D01*
X016907Y044052D01*
X016798Y044079D01*
X016691Y044109D01*
X016584Y044143D01*
X016479Y044181D01*
X016375Y044223D01*
X016273Y044268D01*
X016172Y044317D01*
X016074Y044369D01*
X015977Y044425D01*
X015882Y044485D01*
X015789Y044547D01*
X015699Y044613D01*
X015611Y044682D01*
X015526Y044754D01*
X015443Y044830D01*
X015363Y044908D01*
X015285Y044988D01*
X015211Y045072D01*
X015140Y045158D01*
X015071Y045246D01*
X015006Y045337D01*
X014945Y045431D01*
X014886Y045526D01*
X014831Y045623D01*
X014780Y045722D01*
X014732Y045823D01*
X014687Y045926D01*
X014646Y046030D01*
X014609Y046136D01*
X014576Y046242D01*
X014547Y046350D01*
X014521Y046459D01*
X014499Y046569D01*
X014482Y046679D01*
X014468Y046790D01*
X014458Y046902D01*
X014452Y047013D01*
X014450Y047125D01*
X017344Y042050D02*
X018919Y042050D01*
X018919Y040003D01*
X018131Y040003D01*
X018131Y036617D01*
X017541Y036617D01*
X018131Y036617D01*
X017502Y036617D01*
X017344Y036775D01*
X017344Y042050D01*
X017344Y042047D02*
X018919Y042047D01*
X018919Y041999D02*
X017344Y041999D01*
X017344Y041950D02*
X018919Y041950D01*
X018919Y041902D02*
X017344Y041902D01*
X017344Y041853D02*
X018919Y041853D01*
X018919Y041805D02*
X017344Y041805D01*
X017344Y041756D02*
X018919Y041756D01*
X018919Y041708D02*
X017344Y041708D01*
X017344Y041659D02*
X018919Y041659D01*
X018919Y041611D02*
X017344Y041611D01*
X017344Y041562D02*
X018919Y041562D01*
X018919Y041514D02*
X017344Y041514D01*
X017344Y041465D02*
X018919Y041465D01*
X018919Y041417D02*
X017344Y041417D01*
X017344Y041368D02*
X018919Y041368D01*
X018919Y041320D02*
X017344Y041320D01*
X017344Y041271D02*
X018919Y041271D01*
X018919Y041223D02*
X017344Y041223D01*
X017344Y041174D02*
X018919Y041174D01*
X018919Y041126D02*
X017344Y041126D01*
X017344Y041077D02*
X018919Y041077D01*
X018919Y041029D02*
X017344Y041029D01*
X017344Y040980D02*
X018919Y040980D01*
X018919Y040932D02*
X017344Y040932D01*
X017344Y040883D02*
X018919Y040883D01*
X018919Y040835D02*
X017344Y040835D01*
X017344Y040786D02*
X018919Y040786D01*
X018919Y040738D02*
X017344Y040738D01*
X017344Y040689D02*
X018919Y040689D01*
X018919Y040641D02*
X017344Y040641D01*
X017344Y040592D02*
X018919Y040592D01*
X018919Y040544D02*
X017344Y040544D01*
X017344Y040495D02*
X018919Y040495D01*
X018919Y040447D02*
X017344Y040447D01*
X017344Y040398D02*
X018919Y040398D01*
X018919Y040350D02*
X017344Y040350D01*
X017344Y040301D02*
X018919Y040301D01*
X018919Y040253D02*
X017344Y040253D01*
X017344Y040204D02*
X018919Y040204D01*
X018919Y040156D02*
X017344Y040156D01*
X017344Y040107D02*
X018919Y040107D01*
X018919Y040059D02*
X017344Y040059D01*
X017344Y040010D02*
X018919Y040010D01*
X018131Y040003D02*
X022069Y040003D01*
X022069Y036617D01*
X022659Y036617D01*
X022069Y036617D01*
X022698Y036617D01*
X022856Y036775D01*
X022856Y042050D01*
X021281Y042050D01*
X021281Y040003D01*
X022069Y040003D01*
X022069Y034885D01*
X018131Y034885D01*
X018131Y040003D01*
X018131Y039962D02*
X017344Y039962D01*
X017344Y039913D02*
X018131Y039913D01*
X018131Y039865D02*
X017344Y039865D01*
X017344Y039816D02*
X018131Y039816D01*
X018131Y039768D02*
X017344Y039768D01*
X017344Y039719D02*
X018131Y039719D01*
X018131Y039671D02*
X017344Y039671D01*
X017344Y039622D02*
X018131Y039622D01*
X018131Y039574D02*
X017344Y039574D01*
X017344Y039525D02*
X018131Y039525D01*
X018131Y039477D02*
X017344Y039477D01*
X017344Y039428D02*
X018131Y039428D01*
X018131Y039380D02*
X017344Y039380D01*
X017344Y039331D02*
X018131Y039331D01*
X018131Y039283D02*
X017344Y039283D01*
X017344Y039234D02*
X018131Y039234D01*
X018131Y039186D02*
X017344Y039186D01*
X017344Y039137D02*
X018131Y039137D01*
X018131Y039089D02*
X017344Y039089D01*
X017344Y039040D02*
X018131Y039040D01*
X018131Y038992D02*
X017344Y038992D01*
X017344Y038943D02*
X018131Y038943D01*
X018131Y038895D02*
X017344Y038895D01*
X017344Y038846D02*
X018131Y038846D01*
X018131Y038798D02*
X017344Y038798D01*
X017344Y038749D02*
X018131Y038749D01*
X018131Y038701D02*
X017344Y038701D01*
X017344Y038652D02*
X018131Y038652D01*
X018131Y038604D02*
X017344Y038604D01*
X017344Y038555D02*
X018131Y038555D01*
X018131Y038507D02*
X017344Y038507D01*
X017344Y038458D02*
X018131Y038458D01*
X018131Y038410D02*
X017344Y038410D01*
X017344Y038361D02*
X018131Y038361D01*
X018131Y038313D02*
X017344Y038313D01*
X017344Y038264D02*
X018131Y038264D01*
X018131Y038216D02*
X017344Y038216D01*
X017344Y038167D02*
X018131Y038167D01*
X018131Y038119D02*
X017344Y038119D01*
X017344Y038070D02*
X018131Y038070D01*
X018131Y038022D02*
X017344Y038022D01*
X017344Y037973D02*
X018131Y037973D01*
X018131Y037925D02*
X017344Y037925D01*
X017344Y037876D02*
X018131Y037876D01*
X018131Y037828D02*
X017344Y037828D01*
X017344Y037779D02*
X018131Y037779D01*
X018131Y037731D02*
X017344Y037731D01*
X017344Y037682D02*
X018131Y037682D01*
X018131Y037634D02*
X017344Y037634D01*
X017344Y037585D02*
X018131Y037585D01*
X018131Y037537D02*
X017344Y037537D01*
X017344Y037488D02*
X018131Y037488D01*
X018131Y037440D02*
X017344Y037440D01*
X017344Y037391D02*
X018131Y037391D01*
X018131Y037343D02*
X017344Y037343D01*
X017344Y037294D02*
X018131Y037294D01*
X018131Y037246D02*
X017344Y037246D01*
X017344Y037197D02*
X018131Y037197D01*
X018131Y037149D02*
X017344Y037149D01*
X017344Y037100D02*
X018131Y037100D01*
X018131Y037052D02*
X017344Y037052D01*
X017344Y037003D02*
X018131Y037003D01*
X018131Y036955D02*
X017344Y036955D01*
X017344Y036906D02*
X018131Y036906D01*
X018131Y036858D02*
X017344Y036858D01*
X017344Y036809D02*
X018131Y036809D01*
X018131Y036761D02*
X017358Y036761D01*
X017407Y036712D02*
X018131Y036712D01*
X018131Y036664D02*
X017455Y036664D01*
X018328Y037050D02*
X018722Y037444D01*
X018998Y037405D02*
X018998Y037247D01*
X019116Y037247D01*
X018997Y037248D02*
X019021Y037273D01*
X019048Y037294D01*
X019077Y037313D01*
X019108Y037329D01*
X019140Y037341D01*
X019173Y037349D01*
X019207Y037354D01*
X019242Y037355D01*
X019276Y037352D01*
X019310Y037345D01*
X019343Y037335D01*
X019375Y037321D01*
X019404Y037304D01*
X019432Y037283D01*
X019457Y037260D01*
X019480Y037234D01*
X019500Y037206D01*
X019516Y037175D01*
X019529Y037143D01*
X019538Y037110D01*
X019544Y037076D01*
X019546Y037042D01*
X019544Y037007D01*
X019538Y036973D01*
X019529Y036940D01*
X019516Y036908D01*
X019500Y036878D01*
X019480Y036850D01*
X019457Y036824D01*
X019432Y036800D01*
X019404Y036780D01*
X019374Y036763D01*
X019343Y036749D01*
X019310Y036739D01*
X019276Y036732D01*
X019242Y036729D01*
X019207Y036730D01*
X019173Y036735D01*
X019140Y036743D01*
X019107Y036755D01*
X019077Y036771D01*
X019048Y036790D01*
X019021Y036812D01*
X018997Y036836D01*
X018976Y036864D01*
X018958Y036893D01*
X018722Y036656D02*
X018328Y037050D01*
X019470Y037050D01*
X019628Y037050D02*
X021635Y037050D01*
X022069Y037052D02*
X022856Y037052D01*
X022856Y037100D02*
X022069Y037100D01*
X022069Y037149D02*
X022856Y037149D01*
X022856Y037197D02*
X022069Y037197D01*
X022069Y037246D02*
X022856Y037246D01*
X022856Y037294D02*
X022069Y037294D01*
X022069Y037343D02*
X022856Y037343D01*
X022856Y037391D02*
X022069Y037391D01*
X022069Y037440D02*
X022856Y037440D01*
X022856Y037488D02*
X022069Y037488D01*
X022069Y037537D02*
X022856Y037537D01*
X022856Y037585D02*
X022069Y037585D01*
X022069Y037634D02*
X022856Y037634D01*
X022856Y037682D02*
X022069Y037682D01*
X022069Y037731D02*
X022856Y037731D01*
X022856Y037779D02*
X022069Y037779D01*
X022069Y037828D02*
X022856Y037828D01*
X022856Y037876D02*
X022069Y037876D01*
X022069Y037925D02*
X022856Y037925D01*
X022856Y037973D02*
X022069Y037973D01*
X022069Y038022D02*
X022856Y038022D01*
X022856Y038070D02*
X022069Y038070D01*
X022069Y038119D02*
X022856Y038119D01*
X022856Y038167D02*
X022069Y038167D01*
X022069Y038216D02*
X022856Y038216D01*
X022856Y038264D02*
X022069Y038264D01*
X022069Y038313D02*
X022856Y038313D01*
X022856Y038361D02*
X022069Y038361D01*
X022069Y038410D02*
X022856Y038410D01*
X022856Y038458D02*
X022069Y038458D01*
X022069Y038507D02*
X022856Y038507D01*
X022856Y038555D02*
X022069Y038555D01*
X022069Y038604D02*
X022856Y038604D01*
X022856Y038652D02*
X022069Y038652D01*
X022069Y038701D02*
X022856Y038701D01*
X022856Y038749D02*
X022069Y038749D01*
X022069Y038798D02*
X022856Y038798D01*
X022856Y038846D02*
X022069Y038846D01*
X022069Y038895D02*
X022856Y038895D01*
X022856Y038943D02*
X022069Y038943D01*
X022069Y038992D02*
X022856Y038992D01*
X022856Y039040D02*
X022069Y039040D01*
X022069Y039089D02*
X022856Y039089D01*
X022856Y039137D02*
X022069Y039137D01*
X022069Y039186D02*
X022856Y039186D01*
X022856Y039234D02*
X022069Y039234D01*
X022069Y039283D02*
X022856Y039283D01*
X022856Y039331D02*
X022069Y039331D01*
X022069Y039380D02*
X022856Y039380D01*
X022856Y039428D02*
X022069Y039428D01*
X022069Y039477D02*
X022856Y039477D01*
X022856Y039525D02*
X022069Y039525D01*
X022069Y039574D02*
X022856Y039574D01*
X022856Y039622D02*
X022069Y039622D01*
X022069Y039671D02*
X022856Y039671D01*
X022856Y039719D02*
X022069Y039719D01*
X022069Y039768D02*
X022856Y039768D01*
X022856Y039816D02*
X022069Y039816D01*
X022069Y039865D02*
X022856Y039865D01*
X022856Y039913D02*
X022069Y039913D01*
X022069Y039962D02*
X022856Y039962D01*
X022856Y040010D02*
X021281Y040010D01*
X021281Y040059D02*
X022856Y040059D01*
X022856Y040107D02*
X021281Y040107D01*
X021281Y040156D02*
X022856Y040156D01*
X022856Y040204D02*
X021281Y040204D01*
X021281Y040253D02*
X022856Y040253D01*
X022856Y040301D02*
X021281Y040301D01*
X021281Y040350D02*
X022856Y040350D01*
X022856Y040398D02*
X021281Y040398D01*
X021281Y040447D02*
X022856Y040447D01*
X022856Y040495D02*
X021281Y040495D01*
X021281Y040544D02*
X022856Y040544D01*
X022856Y040592D02*
X021281Y040592D01*
X021281Y040641D02*
X022856Y040641D01*
X022856Y040689D02*
X021281Y040689D01*
X021281Y040738D02*
X022856Y040738D01*
X022856Y040786D02*
X021281Y040786D01*
X021281Y040835D02*
X022856Y040835D01*
X022856Y040883D02*
X021281Y040883D01*
X021281Y040932D02*
X022856Y040932D01*
X022856Y040980D02*
X021281Y040980D01*
X021281Y041029D02*
X022856Y041029D01*
X022856Y041077D02*
X021281Y041077D01*
X021281Y041126D02*
X022856Y041126D01*
X022856Y041174D02*
X021281Y041174D01*
X021281Y041223D02*
X022856Y041223D01*
X022856Y041271D02*
X021281Y041271D01*
X021281Y041320D02*
X022856Y041320D01*
X022856Y041368D02*
X021281Y041368D01*
X021281Y041417D02*
X022856Y041417D01*
X022856Y041465D02*
X021281Y041465D01*
X021281Y041514D02*
X022856Y041514D01*
X022856Y041562D02*
X021281Y041562D01*
X021281Y041611D02*
X022856Y041611D01*
X022856Y041659D02*
X021281Y041659D01*
X021281Y041708D02*
X022856Y041708D01*
X022856Y041756D02*
X021281Y041756D01*
X021281Y041805D02*
X022856Y041805D01*
X022856Y041853D02*
X021281Y041853D01*
X021281Y041902D02*
X022856Y041902D01*
X022856Y041950D02*
X021281Y041950D01*
X021281Y041999D02*
X022856Y041999D01*
X022856Y042047D02*
X021281Y042047D01*
X020061Y037444D02*
X019943Y037444D01*
X019943Y037129D01*
X020061Y037129D01*
X019943Y037129D02*
X019824Y037129D01*
X019824Y037444D02*
X019943Y037444D01*
X022069Y037003D02*
X022856Y037003D01*
X022856Y036955D02*
X022069Y036955D01*
X022069Y036906D02*
X022856Y036906D01*
X022856Y036858D02*
X022069Y036858D01*
X022069Y036809D02*
X022856Y036809D01*
X022842Y036761D02*
X022069Y036761D01*
X022069Y036712D02*
X022793Y036712D01*
X022745Y036664D02*
X022069Y036664D01*
X025759Y032216D02*
X026941Y032216D01*
X026941Y031034D01*
X025759Y031034D01*
X025759Y032216D01*
X026646Y032019D02*
X026648Y032038D01*
X026653Y032057D01*
X026663Y032073D01*
X026675Y032088D01*
X026690Y032100D01*
X026706Y032110D01*
X026725Y032115D01*
X026744Y032117D01*
X026763Y032115D01*
X026782Y032110D01*
X026798Y032100D01*
X026813Y032088D01*
X026825Y032073D01*
X026835Y032057D01*
X026840Y032038D01*
X026842Y032019D01*
X026840Y032000D01*
X026835Y031981D01*
X026825Y031965D01*
X026813Y031950D01*
X026798Y031938D01*
X026782Y031928D01*
X026763Y031923D01*
X026744Y031921D01*
X026725Y031923D01*
X026706Y031928D01*
X026690Y031938D01*
X026675Y031950D01*
X026663Y031965D01*
X026653Y031981D01*
X026648Y032000D01*
X026646Y032019D01*
X027962Y029924D02*
X023238Y029924D01*
X023238Y020869D01*
X027962Y020869D01*
X027962Y029924D01*
X028301Y026365D02*
X036899Y026365D01*
X036899Y018885D01*
X028301Y018885D01*
X028301Y026365D01*
X028450Y030125D02*
X028452Y030237D01*
X028458Y030348D01*
X028468Y030460D01*
X028482Y030571D01*
X028499Y030681D01*
X028521Y030791D01*
X028547Y030900D01*
X028576Y031008D01*
X028609Y031114D01*
X028646Y031220D01*
X028687Y031324D01*
X028732Y031427D01*
X028780Y031528D01*
X028831Y031627D01*
X028886Y031724D01*
X028945Y031819D01*
X029006Y031913D01*
X029071Y032004D01*
X029140Y032092D01*
X029211Y032178D01*
X029285Y032262D01*
X029363Y032342D01*
X029443Y032420D01*
X029526Y032496D01*
X029611Y032568D01*
X029699Y032637D01*
X029789Y032703D01*
X029882Y032765D01*
X029977Y032825D01*
X030074Y032881D01*
X030172Y032933D01*
X030273Y032982D01*
X030375Y033027D01*
X030479Y033069D01*
X030584Y033107D01*
X030691Y033141D01*
X030798Y033171D01*
X030907Y033198D01*
X031016Y033220D01*
X031127Y033239D01*
X031237Y033254D01*
X031349Y033265D01*
X031460Y033272D01*
X031572Y033275D01*
X031684Y033274D01*
X031796Y033269D01*
X031907Y033260D01*
X032018Y033247D01*
X032129Y033230D01*
X032239Y033210D01*
X032348Y033185D01*
X032456Y033157D01*
X032563Y033124D01*
X032669Y033088D01*
X032773Y033048D01*
X032876Y033005D01*
X032978Y032958D01*
X033077Y032907D01*
X033175Y032853D01*
X033271Y032795D01*
X033365Y032734D01*
X033456Y032670D01*
X033545Y032603D01*
X033632Y032532D01*
X033716Y032458D01*
X033798Y032382D01*
X033876Y032302D01*
X033952Y032220D01*
X034025Y032135D01*
X034095Y032048D01*
X034161Y031958D01*
X034225Y031866D01*
X034285Y031772D01*
X034342Y031676D01*
X034395Y031577D01*
X034445Y031477D01*
X034491Y031376D01*
X034534Y031272D01*
X034573Y031167D01*
X034608Y031061D01*
X034639Y030954D01*
X034667Y030845D01*
X034690Y030736D01*
X034710Y030626D01*
X034726Y030515D01*
X034738Y030404D01*
X034746Y030293D01*
X034750Y030181D01*
X034750Y030069D01*
X034746Y029957D01*
X034738Y029846D01*
X034726Y029735D01*
X034710Y029624D01*
X034690Y029514D01*
X034667Y029405D01*
X034639Y029296D01*
X034608Y029189D01*
X034573Y029083D01*
X034534Y028978D01*
X034491Y028874D01*
X034445Y028773D01*
X034395Y028673D01*
X034342Y028574D01*
X034285Y028478D01*
X034225Y028384D01*
X034161Y028292D01*
X034095Y028202D01*
X034025Y028115D01*
X033952Y028030D01*
X033876Y027948D01*
X033798Y027868D01*
X033716Y027792D01*
X033632Y027718D01*
X033545Y027647D01*
X033456Y027580D01*
X033365Y027516D01*
X033271Y027455D01*
X033175Y027397D01*
X033077Y027343D01*
X032978Y027292D01*
X032876Y027245D01*
X032773Y027202D01*
X032669Y027162D01*
X032563Y027126D01*
X032456Y027093D01*
X032348Y027065D01*
X032239Y027040D01*
X032129Y027020D01*
X032018Y027003D01*
X031907Y026990D01*
X031796Y026981D01*
X031684Y026976D01*
X031572Y026975D01*
X031460Y026978D01*
X031349Y026985D01*
X031237Y026996D01*
X031127Y027011D01*
X031016Y027030D01*
X030907Y027052D01*
X030798Y027079D01*
X030691Y027109D01*
X030584Y027143D01*
X030479Y027181D01*
X030375Y027223D01*
X030273Y027268D01*
X030172Y027317D01*
X030074Y027369D01*
X029977Y027425D01*
X029882Y027485D01*
X029789Y027547D01*
X029699Y027613D01*
X029611Y027682D01*
X029526Y027754D01*
X029443Y027830D01*
X029363Y027908D01*
X029285Y027988D01*
X029211Y028072D01*
X029140Y028158D01*
X029071Y028246D01*
X029006Y028337D01*
X028945Y028431D01*
X028886Y028526D01*
X028831Y028623D01*
X028780Y028722D01*
X028732Y028823D01*
X028687Y028926D01*
X028646Y029030D01*
X028609Y029136D01*
X028576Y029242D01*
X028547Y029350D01*
X028521Y029459D01*
X028499Y029569D01*
X028482Y029679D01*
X028468Y029790D01*
X028458Y029902D01*
X028452Y030013D01*
X028450Y030125D01*
X033131Y034885D02*
X037069Y034885D01*
X037069Y040003D01*
X037069Y036617D01*
X037659Y036617D01*
X037069Y036617D01*
X037698Y036617D01*
X037856Y036775D01*
X037856Y042050D01*
X036281Y042050D01*
X036281Y040003D01*
X037069Y040003D01*
X033131Y040003D01*
X033131Y036617D01*
X032541Y036617D01*
X033131Y036617D01*
X032502Y036617D01*
X032344Y036775D01*
X032344Y042050D01*
X033919Y042050D01*
X033919Y040003D01*
X033131Y040003D01*
X033131Y034885D01*
X033131Y036664D02*
X032455Y036664D01*
X032407Y036712D02*
X033131Y036712D01*
X033131Y036761D02*
X032358Y036761D01*
X032344Y036809D02*
X033131Y036809D01*
X033131Y036858D02*
X032344Y036858D01*
X032344Y036906D02*
X033131Y036906D01*
X033131Y036955D02*
X032344Y036955D01*
X032344Y037003D02*
X033131Y037003D01*
X033131Y037052D02*
X032344Y037052D01*
X032344Y037100D02*
X033131Y037100D01*
X033131Y037149D02*
X032344Y037149D01*
X032344Y037197D02*
X033131Y037197D01*
X033131Y037246D02*
X032344Y037246D01*
X032344Y037294D02*
X033131Y037294D01*
X033131Y037343D02*
X032344Y037343D01*
X032344Y037391D02*
X033131Y037391D01*
X033131Y037440D02*
X032344Y037440D01*
X032344Y037488D02*
X033131Y037488D01*
X033131Y037537D02*
X032344Y037537D01*
X032344Y037585D02*
X033131Y037585D01*
X033131Y037634D02*
X032344Y037634D01*
X032344Y037682D02*
X033131Y037682D01*
X033131Y037731D02*
X032344Y037731D01*
X032344Y037779D02*
X033131Y037779D01*
X033131Y037828D02*
X032344Y037828D01*
X032344Y037876D02*
X033131Y037876D01*
X033131Y037925D02*
X032344Y037925D01*
X032344Y037973D02*
X033131Y037973D01*
X033131Y038022D02*
X032344Y038022D01*
X032344Y038070D02*
X033131Y038070D01*
X033131Y038119D02*
X032344Y038119D01*
X032344Y038167D02*
X033131Y038167D01*
X033131Y038216D02*
X032344Y038216D01*
X032344Y038264D02*
X033131Y038264D01*
X033131Y038313D02*
X032344Y038313D01*
X032344Y038361D02*
X033131Y038361D01*
X033131Y038410D02*
X032344Y038410D01*
X032344Y038458D02*
X033131Y038458D01*
X033131Y038507D02*
X032344Y038507D01*
X032344Y038555D02*
X033131Y038555D01*
X033131Y038604D02*
X032344Y038604D01*
X032344Y038652D02*
X033131Y038652D01*
X033131Y038701D02*
X032344Y038701D01*
X032344Y038749D02*
X033131Y038749D01*
X033131Y038798D02*
X032344Y038798D01*
X032344Y038846D02*
X033131Y038846D01*
X033131Y038895D02*
X032344Y038895D01*
X032344Y038943D02*
X033131Y038943D01*
X033131Y038992D02*
X032344Y038992D01*
X032344Y039040D02*
X033131Y039040D01*
X033131Y039089D02*
X032344Y039089D01*
X032344Y039137D02*
X033131Y039137D01*
X033131Y039186D02*
X032344Y039186D01*
X032344Y039234D02*
X033131Y039234D01*
X033131Y039283D02*
X032344Y039283D01*
X032344Y039331D02*
X033131Y039331D01*
X033131Y039380D02*
X032344Y039380D01*
X032344Y039428D02*
X033131Y039428D01*
X033131Y039477D02*
X032344Y039477D01*
X032344Y039525D02*
X033131Y039525D01*
X033131Y039574D02*
X032344Y039574D01*
X032344Y039622D02*
X033131Y039622D01*
X033131Y039671D02*
X032344Y039671D01*
X032344Y039719D02*
X033131Y039719D01*
X033131Y039768D02*
X032344Y039768D01*
X032344Y039816D02*
X033131Y039816D01*
X033131Y039865D02*
X032344Y039865D01*
X032344Y039913D02*
X033131Y039913D01*
X033131Y039962D02*
X032344Y039962D01*
X032344Y040010D02*
X033919Y040010D01*
X033919Y040059D02*
X032344Y040059D01*
X032344Y040107D02*
X033919Y040107D01*
X033919Y040156D02*
X032344Y040156D01*
X032344Y040204D02*
X033919Y040204D01*
X033919Y040253D02*
X032344Y040253D01*
X032344Y040301D02*
X033919Y040301D01*
X033919Y040350D02*
X032344Y040350D01*
X032344Y040398D02*
X033919Y040398D01*
X033919Y040447D02*
X032344Y040447D01*
X032344Y040495D02*
X033919Y040495D01*
X033919Y040544D02*
X032344Y040544D01*
X032344Y040592D02*
X033919Y040592D01*
X033919Y040641D02*
X032344Y040641D01*
X032344Y040689D02*
X033919Y040689D01*
X033919Y040738D02*
X032344Y040738D01*
X032344Y040786D02*
X033919Y040786D01*
X033919Y040835D02*
X032344Y040835D01*
X032344Y040883D02*
X033919Y040883D01*
X033919Y040932D02*
X032344Y040932D01*
X032344Y040980D02*
X033919Y040980D01*
X033919Y041029D02*
X032344Y041029D01*
X032344Y041077D02*
X033919Y041077D01*
X033919Y041126D02*
X032344Y041126D01*
X032344Y041174D02*
X033919Y041174D01*
X033919Y041223D02*
X032344Y041223D01*
X032344Y041271D02*
X033919Y041271D01*
X033919Y041320D02*
X032344Y041320D01*
X032344Y041368D02*
X033919Y041368D01*
X033919Y041417D02*
X032344Y041417D01*
X032344Y041465D02*
X033919Y041465D01*
X033919Y041514D02*
X032344Y041514D01*
X032344Y041562D02*
X033919Y041562D01*
X033919Y041611D02*
X032344Y041611D01*
X032344Y041659D02*
X033919Y041659D01*
X033919Y041708D02*
X032344Y041708D01*
X032344Y041756D02*
X033919Y041756D01*
X033919Y041805D02*
X032344Y041805D01*
X032344Y041853D02*
X033919Y041853D01*
X033919Y041902D02*
X032344Y041902D01*
X032344Y041950D02*
X033919Y041950D01*
X033919Y041999D02*
X032344Y041999D01*
X032344Y042047D02*
X033919Y042047D01*
X036281Y042047D02*
X037856Y042047D01*
X037856Y041999D02*
X036281Y041999D01*
X036281Y041950D02*
X037856Y041950D01*
X037856Y041902D02*
X036281Y041902D01*
X036281Y041853D02*
X037856Y041853D01*
X037856Y041805D02*
X036281Y041805D01*
X036281Y041756D02*
X037856Y041756D01*
X037856Y041708D02*
X036281Y041708D01*
X036281Y041659D02*
X037856Y041659D01*
X037856Y041611D02*
X036281Y041611D01*
X036281Y041562D02*
X037856Y041562D01*
X037856Y041514D02*
X036281Y041514D01*
X036281Y041465D02*
X037856Y041465D01*
X037856Y041417D02*
X036281Y041417D01*
X036281Y041368D02*
X037856Y041368D01*
X037856Y041320D02*
X036281Y041320D01*
X036281Y041271D02*
X037856Y041271D01*
X037856Y041223D02*
X036281Y041223D01*
X036281Y041174D02*
X037856Y041174D01*
X037856Y041126D02*
X036281Y041126D01*
X036281Y041077D02*
X037856Y041077D01*
X037856Y041029D02*
X036281Y041029D01*
X036281Y040980D02*
X037856Y040980D01*
X037856Y040932D02*
X036281Y040932D01*
X036281Y040883D02*
X037856Y040883D01*
X037856Y040835D02*
X036281Y040835D01*
X036281Y040786D02*
X037856Y040786D01*
X037856Y040738D02*
X036281Y040738D01*
X036281Y040689D02*
X037856Y040689D01*
X037856Y040641D02*
X036281Y040641D01*
X036281Y040592D02*
X037856Y040592D01*
X037856Y040544D02*
X036281Y040544D01*
X036281Y040495D02*
X037856Y040495D01*
X037856Y040447D02*
X036281Y040447D01*
X036281Y040398D02*
X037856Y040398D01*
X037856Y040350D02*
X036281Y040350D01*
X036281Y040301D02*
X037856Y040301D01*
X037856Y040253D02*
X036281Y040253D01*
X036281Y040204D02*
X037856Y040204D01*
X037856Y040156D02*
X036281Y040156D01*
X036281Y040107D02*
X037856Y040107D01*
X037856Y040059D02*
X036281Y040059D01*
X036281Y040010D02*
X037856Y040010D01*
X037856Y039962D02*
X037069Y039962D01*
X037069Y039913D02*
X037856Y039913D01*
X037856Y039865D02*
X037069Y039865D01*
X037069Y039816D02*
X037856Y039816D01*
X037856Y039768D02*
X037069Y039768D01*
X037069Y039719D02*
X037856Y039719D01*
X037856Y039671D02*
X037069Y039671D01*
X037069Y039622D02*
X037856Y039622D01*
X037856Y039574D02*
X037069Y039574D01*
X037069Y039525D02*
X037856Y039525D01*
X037856Y039477D02*
X037069Y039477D01*
X037069Y039428D02*
X037856Y039428D01*
X037856Y039380D02*
X037069Y039380D01*
X037069Y039331D02*
X037856Y039331D01*
X037856Y039283D02*
X037069Y039283D01*
X037069Y039234D02*
X037856Y039234D01*
X037856Y039186D02*
X037069Y039186D01*
X037069Y039137D02*
X037856Y039137D01*
X037856Y039089D02*
X037069Y039089D01*
X037069Y039040D02*
X037856Y039040D01*
X037856Y038992D02*
X037069Y038992D01*
X037069Y038943D02*
X037856Y038943D01*
X037856Y038895D02*
X037069Y038895D01*
X037069Y038846D02*
X037856Y038846D01*
X037856Y038798D02*
X037069Y038798D01*
X037069Y038749D02*
X037856Y038749D01*
X037856Y038701D02*
X037069Y038701D01*
X037069Y038652D02*
X037856Y038652D01*
X037856Y038604D02*
X037069Y038604D01*
X037069Y038555D02*
X037856Y038555D01*
X037856Y038507D02*
X037069Y038507D01*
X037069Y038458D02*
X037856Y038458D01*
X037856Y038410D02*
X037069Y038410D01*
X037069Y038361D02*
X037856Y038361D01*
X037856Y038313D02*
X037069Y038313D01*
X037069Y038264D02*
X037856Y038264D01*
X037856Y038216D02*
X037069Y038216D01*
X037069Y038167D02*
X037856Y038167D01*
X037856Y038119D02*
X037069Y038119D01*
X037069Y038070D02*
X037856Y038070D01*
X037856Y038022D02*
X037069Y038022D01*
X037069Y037973D02*
X037856Y037973D01*
X037856Y037925D02*
X037069Y037925D01*
X037069Y037876D02*
X037856Y037876D01*
X037856Y037828D02*
X037069Y037828D01*
X037069Y037779D02*
X037856Y037779D01*
X037856Y037731D02*
X037069Y037731D01*
X037069Y037682D02*
X037856Y037682D01*
X037856Y037634D02*
X037069Y037634D01*
X037069Y037585D02*
X037856Y037585D01*
X037856Y037537D02*
X037069Y037537D01*
X037069Y037488D02*
X037856Y037488D01*
X037856Y037440D02*
X037069Y037440D01*
X037069Y037391D02*
X037856Y037391D01*
X037856Y037343D02*
X037069Y037343D01*
X037069Y037294D02*
X037856Y037294D01*
X037856Y037246D02*
X037069Y037246D01*
X037069Y037197D02*
X037856Y037197D01*
X037856Y037149D02*
X037069Y037149D01*
X037069Y037100D02*
X037856Y037100D01*
X037856Y037052D02*
X037069Y037052D01*
X037069Y037003D02*
X037856Y037003D01*
X037856Y036955D02*
X037069Y036955D01*
X037069Y036906D02*
X037856Y036906D01*
X037856Y036858D02*
X037069Y036858D01*
X037069Y036809D02*
X037856Y036809D01*
X037842Y036761D02*
X037069Y036761D01*
X037069Y036712D02*
X037793Y036712D01*
X037745Y036664D02*
X037069Y036664D01*
X036635Y037050D02*
X034628Y037050D01*
X034470Y037050D02*
X033328Y037050D01*
X033722Y036656D01*
X033328Y037050D02*
X033722Y037444D01*
X033998Y037405D02*
X033998Y037247D01*
X034116Y037247D01*
X033997Y037248D02*
X034021Y037273D01*
X034048Y037294D01*
X034077Y037313D01*
X034108Y037329D01*
X034140Y037341D01*
X034173Y037349D01*
X034207Y037354D01*
X034242Y037355D01*
X034276Y037352D01*
X034310Y037345D01*
X034343Y037335D01*
X034375Y037321D01*
X034404Y037304D01*
X034432Y037283D01*
X034457Y037260D01*
X034480Y037234D01*
X034500Y037206D01*
X034516Y037175D01*
X034529Y037143D01*
X034538Y037110D01*
X034544Y037076D01*
X034546Y037042D01*
X034544Y037007D01*
X034538Y036973D01*
X034529Y036940D01*
X034516Y036908D01*
X034500Y036878D01*
X034480Y036850D01*
X034457Y036824D01*
X034432Y036800D01*
X034404Y036780D01*
X034374Y036763D01*
X034343Y036749D01*
X034310Y036739D01*
X034276Y036732D01*
X034242Y036729D01*
X034207Y036730D01*
X034173Y036735D01*
X034140Y036743D01*
X034107Y036755D01*
X034077Y036771D01*
X034048Y036790D01*
X034021Y036812D01*
X033997Y036836D01*
X033976Y036864D01*
X033958Y036893D01*
X034824Y037129D02*
X034943Y037129D01*
X035061Y037129D01*
X034943Y037129D02*
X034943Y037444D01*
X035061Y037444D01*
X034943Y037444D02*
X034824Y037444D01*
X038600Y036925D02*
X044600Y036925D01*
X044600Y039125D01*
X044100Y039125D01*
X044100Y038625D01*
X039100Y038625D01*
X039100Y039125D01*
X044100Y039125D01*
X045100Y038875D02*
X047100Y038875D01*
X047100Y036625D01*
X066100Y036625D01*
X066100Y038875D01*
X068100Y038875D01*
X068100Y001125D01*
X045100Y001125D01*
X045100Y038875D01*
X047100Y038875D02*
X066100Y038875D01*
X069866Y038088D02*
X071834Y038088D01*
X071834Y039662D01*
X069866Y039662D01*
X069866Y038088D01*
X072900Y037625D02*
X072900Y035625D01*
X075100Y035625D01*
X075100Y036125D01*
X074600Y036125D01*
X074600Y037125D01*
X075100Y037125D01*
X075100Y036125D01*
X075100Y037125D02*
X075100Y037625D01*
X072900Y037625D01*
X072900Y035125D02*
X072900Y033125D01*
X075100Y033125D01*
X075100Y033625D01*
X074600Y033625D01*
X074600Y034625D01*
X075100Y034625D01*
X075100Y033625D01*
X075100Y034625D02*
X075100Y035125D01*
X072900Y035125D01*
X072900Y032625D02*
X072900Y030625D01*
X075100Y030625D01*
X075100Y031125D01*
X074600Y031125D01*
X074600Y032125D01*
X075100Y032125D01*
X075100Y031125D01*
X075100Y032125D02*
X075100Y032625D01*
X072900Y032625D01*
X066100Y031625D02*
X065100Y031625D01*
X065100Y034625D01*
X066100Y034625D01*
X066100Y031625D01*
X066100Y030625D02*
X064100Y030625D01*
X064100Y020625D01*
X066100Y020625D01*
X066100Y030625D01*
X051606Y041480D02*
X051561Y041480D01*
X051561Y041525D01*
X051606Y041525D01*
X051606Y041480D01*
X051381Y041480D02*
X051606Y041750D01*
X051426Y041750D02*
X051426Y041705D01*
X051381Y041705D01*
X051381Y041750D01*
X051426Y041750D01*
X051177Y041750D02*
X051177Y041480D01*
X051087Y041480D02*
X051267Y041480D01*
X051087Y041660D02*
X051177Y041750D01*
X050686Y041525D02*
X050641Y041525D01*
X050641Y041480D01*
X050686Y041480D01*
X050686Y041525D01*
X050686Y041480D02*
X050596Y041390D01*
X050481Y041480D02*
X050481Y041750D01*
X050301Y041750D02*
X050301Y041480D01*
X050391Y041570D01*
X050481Y041480D01*
X050186Y041525D02*
X050141Y041480D01*
X050051Y041480D01*
X050006Y041525D01*
X050096Y041615D02*
X050141Y041615D01*
X050186Y041570D01*
X050186Y041525D01*
X050141Y041615D02*
X050186Y041660D01*
X050186Y041705D01*
X050141Y041750D01*
X050051Y041750D01*
X050006Y041705D01*
X049605Y041525D02*
X049560Y041525D01*
X049560Y041480D01*
X049605Y041480D01*
X049605Y041525D01*
X049605Y041480D02*
X049515Y041390D01*
X049401Y041480D02*
X049311Y041570D01*
X049356Y041570D02*
X049220Y041570D01*
X049220Y041480D02*
X049220Y041750D01*
X049356Y041750D01*
X049401Y041705D01*
X049401Y041615D01*
X049356Y041570D01*
X049106Y041525D02*
X049061Y041480D01*
X048971Y041480D01*
X048926Y041525D01*
X049106Y041705D01*
X049106Y041525D01*
X049106Y041705D02*
X049061Y041750D01*
X048971Y041750D01*
X048926Y041705D01*
X048926Y041525D01*
X048811Y041480D02*
X048631Y041480D01*
X048721Y041480D02*
X048721Y041750D01*
X048631Y041660D01*
X049631Y043480D02*
X049811Y043480D01*
X049721Y043480D02*
X049721Y043750D01*
X049631Y043660D01*
X049926Y043705D02*
X049926Y043525D01*
X050106Y043705D01*
X050106Y043525D01*
X050061Y043480D01*
X049971Y043480D01*
X049926Y043525D01*
X049926Y043705D02*
X049971Y043750D01*
X050061Y043750D01*
X050106Y043705D01*
X050220Y043750D02*
X050356Y043750D01*
X050401Y043705D01*
X050401Y043615D01*
X050356Y043570D01*
X050220Y043570D01*
X050220Y043480D02*
X050220Y043750D01*
X050311Y043570D02*
X050401Y043480D01*
X050515Y043390D02*
X050605Y043480D01*
X050560Y043480D01*
X050560Y043525D01*
X050605Y043525D01*
X050605Y043480D01*
X051006Y043525D02*
X051051Y043480D01*
X051141Y043480D01*
X051186Y043525D01*
X051186Y043570D01*
X051141Y043615D01*
X051096Y043615D01*
X051141Y043615D02*
X051186Y043660D01*
X051186Y043705D01*
X051141Y043750D01*
X051051Y043750D01*
X051006Y043705D01*
X051301Y043750D02*
X051301Y043480D01*
X051391Y043570D01*
X051481Y043480D01*
X051481Y043750D01*
X051641Y043525D02*
X051641Y043480D01*
X051686Y043480D01*
X051686Y043525D01*
X051641Y043525D01*
X051686Y043480D02*
X051596Y043390D01*
X052087Y043480D02*
X052267Y043480D01*
X052177Y043480D02*
X052177Y043750D01*
X052087Y043660D01*
X052381Y043705D02*
X052381Y043750D01*
X052426Y043750D01*
X052426Y043705D01*
X052381Y043705D01*
X052381Y043480D02*
X052606Y043750D01*
X052606Y043525D02*
X052606Y043480D01*
X052561Y043480D01*
X052561Y043525D01*
X052606Y043525D01*
X052596Y045390D02*
X052686Y045480D01*
X052641Y045480D01*
X052641Y045525D01*
X052686Y045525D01*
X052686Y045480D01*
X052481Y045480D02*
X052481Y045750D01*
X052301Y045750D02*
X052301Y045480D01*
X052391Y045570D01*
X052481Y045480D01*
X052186Y045525D02*
X052141Y045480D01*
X052051Y045480D01*
X052006Y045525D01*
X052096Y045615D02*
X052141Y045615D01*
X052186Y045570D01*
X052186Y045525D01*
X052141Y045615D02*
X052186Y045660D01*
X052186Y045705D01*
X052141Y045750D01*
X052051Y045750D01*
X052006Y045705D01*
X051605Y045525D02*
X051560Y045525D01*
X051560Y045480D01*
X051605Y045480D01*
X051605Y045525D01*
X051605Y045480D02*
X051515Y045390D01*
X051401Y045480D02*
X051311Y045570D01*
X051356Y045570D02*
X051220Y045570D01*
X051220Y045480D02*
X051220Y045750D01*
X051356Y045750D01*
X051401Y045705D01*
X051401Y045615D01*
X051356Y045570D01*
X051106Y045525D02*
X051061Y045480D01*
X050971Y045480D01*
X050926Y045525D01*
X051106Y045705D01*
X051106Y045525D01*
X050926Y045525D02*
X050926Y045705D01*
X050971Y045750D01*
X051061Y045750D01*
X051106Y045705D01*
X050811Y045480D02*
X050631Y045480D01*
X050721Y045480D02*
X050721Y045750D01*
X050631Y045660D01*
X051631Y047480D02*
X051811Y047480D01*
X051721Y047480D02*
X051721Y047750D01*
X051631Y047660D01*
X051926Y047705D02*
X051926Y047525D01*
X052106Y047705D01*
X052106Y047525D01*
X052061Y047480D01*
X051971Y047480D01*
X051926Y047525D01*
X051926Y047705D02*
X051971Y047750D01*
X052061Y047750D01*
X052106Y047705D01*
X052220Y047750D02*
X052356Y047750D01*
X052401Y047705D01*
X052401Y047615D01*
X052356Y047570D01*
X052220Y047570D01*
X052220Y047480D02*
X052220Y047750D01*
X052311Y047570D02*
X052401Y047480D01*
X052515Y047390D02*
X052605Y047480D01*
X052560Y047480D01*
X052560Y047525D01*
X052605Y047525D01*
X052605Y047480D01*
X053006Y047525D02*
X053051Y047480D01*
X053141Y047480D01*
X053186Y047525D01*
X053186Y047570D01*
X053141Y047615D01*
X053096Y047615D01*
X053141Y047615D02*
X053186Y047660D01*
X053186Y047705D01*
X053141Y047750D01*
X053051Y047750D01*
X053006Y047705D01*
X053301Y047750D02*
X053301Y047480D01*
X053391Y047570D01*
X053481Y047480D01*
X053481Y047750D01*
X053641Y047525D02*
X053641Y047480D01*
X053686Y047480D01*
X053686Y047525D01*
X053641Y047525D01*
X053686Y047480D02*
X053596Y047390D01*
X054087Y047480D02*
X054267Y047480D01*
X054177Y047480D02*
X054177Y047750D01*
X054087Y047660D01*
X054381Y047705D02*
X054381Y047750D01*
X054426Y047750D01*
X054426Y047705D01*
X054381Y047705D01*
X054381Y047480D02*
X054606Y047750D01*
X054606Y047525D02*
X054606Y047480D01*
X054561Y047480D01*
X054561Y047525D01*
X054606Y047525D01*
X053606Y045750D02*
X053381Y045480D01*
X053267Y045480D02*
X053087Y045480D01*
X053177Y045480D02*
X053177Y045750D01*
X053087Y045660D01*
X053381Y045705D02*
X053381Y045750D01*
X053426Y045750D01*
X053426Y045705D01*
X053381Y045705D01*
X053561Y045525D02*
X053606Y045525D01*
X053606Y045480D01*
X053561Y045480D01*
X053561Y045525D01*
X053515Y049390D02*
X053605Y049480D01*
X053560Y049480D01*
X053560Y049525D01*
X053605Y049525D01*
X053605Y049480D01*
X053401Y049480D02*
X053311Y049570D01*
X053356Y049570D02*
X053220Y049570D01*
X053220Y049480D02*
X053220Y049750D01*
X053356Y049750D01*
X053401Y049705D01*
X053401Y049615D01*
X053356Y049570D01*
X053106Y049525D02*
X053061Y049480D01*
X052971Y049480D01*
X052926Y049525D01*
X053106Y049705D01*
X053106Y049525D01*
X053106Y049705D02*
X053061Y049750D01*
X052971Y049750D01*
X052926Y049705D01*
X052926Y049525D01*
X052811Y049480D02*
X052631Y049480D01*
X052721Y049480D02*
X052721Y049750D01*
X052631Y049660D01*
X054006Y049705D02*
X054051Y049750D01*
X054141Y049750D01*
X054186Y049705D01*
X054186Y049660D01*
X054141Y049615D01*
X054186Y049570D01*
X054186Y049525D01*
X054141Y049480D01*
X054051Y049480D01*
X054006Y049525D01*
X054096Y049615D02*
X054141Y049615D01*
X054301Y049480D02*
X054391Y049570D01*
X054481Y049480D01*
X054481Y049750D01*
X054301Y049750D02*
X054301Y049480D01*
X054596Y049390D02*
X054686Y049480D01*
X054641Y049480D01*
X054641Y049525D01*
X054686Y049525D01*
X054686Y049480D01*
X055087Y049480D02*
X055267Y049480D01*
X055177Y049480D02*
X055177Y049750D01*
X055087Y049660D01*
X055381Y049705D02*
X055381Y049750D01*
X055426Y049750D01*
X055426Y049705D01*
X055381Y049705D01*
X055381Y049480D02*
X055606Y049750D01*
X055606Y049525D02*
X055606Y049480D01*
X055561Y049480D01*
X055561Y049525D01*
X055606Y049525D01*
X055596Y051390D02*
X055686Y051480D01*
X055641Y051480D01*
X055641Y051525D01*
X055686Y051525D01*
X055686Y051480D01*
X055481Y051480D02*
X055481Y051750D01*
X055301Y051750D02*
X055301Y051480D01*
X055391Y051570D01*
X055481Y051480D01*
X055186Y051525D02*
X055141Y051480D01*
X055051Y051480D01*
X055006Y051525D01*
X055096Y051615D02*
X055141Y051615D01*
X055186Y051570D01*
X055186Y051525D01*
X055141Y051615D02*
X055186Y051660D01*
X055186Y051705D01*
X055141Y051750D01*
X055051Y051750D01*
X055006Y051705D01*
X054605Y051525D02*
X054560Y051525D01*
X054560Y051480D01*
X054605Y051480D01*
X054605Y051525D01*
X054605Y051480D02*
X054515Y051390D01*
X054401Y051480D02*
X054311Y051570D01*
X054356Y051570D02*
X054220Y051570D01*
X054220Y051480D02*
X054220Y051750D01*
X054356Y051750D01*
X054401Y051705D01*
X054401Y051615D01*
X054356Y051570D01*
X054106Y051525D02*
X054061Y051480D01*
X053971Y051480D01*
X053926Y051525D01*
X054106Y051705D01*
X054106Y051525D01*
X054106Y051705D02*
X054061Y051750D01*
X053971Y051750D01*
X053926Y051705D01*
X053926Y051525D01*
X053811Y051480D02*
X053631Y051480D01*
X053721Y051480D02*
X053721Y051750D01*
X053631Y051660D01*
X054631Y053480D02*
X054811Y053480D01*
X054721Y053480D02*
X054721Y053750D01*
X054631Y053660D01*
X054926Y053705D02*
X054971Y053750D01*
X055061Y053750D01*
X055106Y053705D01*
X054926Y053525D01*
X054971Y053480D01*
X055061Y053480D01*
X055106Y053525D01*
X055106Y053705D01*
X055220Y053750D02*
X055356Y053750D01*
X055401Y053705D01*
X055401Y053615D01*
X055356Y053570D01*
X055220Y053570D01*
X055220Y053480D02*
X055220Y053750D01*
X055311Y053570D02*
X055401Y053480D01*
X055515Y053390D02*
X055605Y053480D01*
X055560Y053480D01*
X055560Y053525D01*
X055605Y053525D01*
X055605Y053480D01*
X056006Y053525D02*
X056051Y053480D01*
X056141Y053480D01*
X056186Y053525D01*
X056186Y053570D01*
X056141Y053615D01*
X056096Y053615D01*
X056141Y053615D02*
X056186Y053660D01*
X056186Y053705D01*
X056141Y053750D01*
X056051Y053750D01*
X056006Y053705D01*
X056301Y053750D02*
X056301Y053480D01*
X056391Y053570D01*
X056481Y053480D01*
X056481Y053750D01*
X056641Y053525D02*
X056641Y053480D01*
X056686Y053480D01*
X056686Y053525D01*
X056641Y053525D01*
X056686Y053480D02*
X056596Y053390D01*
X057087Y053480D02*
X057267Y053480D01*
X057177Y053480D02*
X057177Y053750D01*
X057087Y053660D01*
X057381Y053705D02*
X057381Y053750D01*
X057426Y053750D01*
X057426Y053705D01*
X057381Y053705D01*
X057381Y053480D02*
X057606Y053750D01*
X057606Y053525D02*
X057606Y053480D01*
X057561Y053480D01*
X057561Y053525D01*
X057606Y053525D01*
X057515Y055390D02*
X057605Y055480D01*
X057560Y055480D01*
X057560Y055525D01*
X057605Y055525D01*
X057605Y055480D01*
X057401Y055480D02*
X057311Y055570D01*
X057356Y055570D02*
X057220Y055570D01*
X057220Y055480D02*
X057220Y055750D01*
X057356Y055750D01*
X057401Y055705D01*
X057401Y055615D01*
X057356Y055570D01*
X057106Y055525D02*
X057061Y055480D01*
X056971Y055480D01*
X056926Y055525D01*
X057106Y055705D01*
X057106Y055525D01*
X057106Y055705D02*
X057061Y055750D01*
X056971Y055750D01*
X056926Y055705D01*
X056926Y055525D01*
X056811Y055480D02*
X056631Y055480D01*
X056721Y055480D02*
X056721Y055750D01*
X056631Y055660D01*
X058006Y055705D02*
X058051Y055750D01*
X058141Y055750D01*
X058186Y055705D01*
X058186Y055660D01*
X058141Y055615D01*
X058186Y055570D01*
X058186Y055525D01*
X058141Y055480D01*
X058051Y055480D01*
X058006Y055525D01*
X058096Y055615D02*
X058141Y055615D01*
X058301Y055480D02*
X058391Y055570D01*
X058481Y055480D01*
X058481Y055750D01*
X058301Y055750D02*
X058301Y055480D01*
X058596Y055390D02*
X058686Y055480D01*
X058641Y055480D01*
X058641Y055525D01*
X058686Y055525D01*
X058686Y055480D01*
X059087Y055480D02*
X059267Y055480D01*
X059177Y055480D02*
X059177Y055750D01*
X059087Y055660D01*
X059381Y055705D02*
X059381Y055750D01*
X059426Y055750D01*
X059426Y055705D01*
X059381Y055705D01*
X059381Y055480D02*
X059606Y055750D01*
X059606Y055525D02*
X059606Y055480D01*
X059561Y055480D01*
X059561Y055525D01*
X059606Y055525D01*
X056606Y051750D02*
X056381Y051480D01*
X056267Y051480D02*
X056087Y051480D01*
X056177Y051480D02*
X056177Y051750D01*
X056087Y051660D01*
X056381Y051705D02*
X056381Y051750D01*
X056426Y051750D01*
X056426Y051705D01*
X056381Y051705D01*
X056561Y051525D02*
X056606Y051525D01*
X056606Y051480D01*
X056561Y051480D01*
X056561Y051525D01*
X054926Y053525D02*
X054926Y053705D01*
X039100Y039125D02*
X038600Y039125D01*
X038600Y036925D01*
X035450Y030875D02*
X035452Y030987D01*
X035458Y031098D01*
X035468Y031210D01*
X035482Y031321D01*
X035499Y031431D01*
X035521Y031541D01*
X035547Y031650D01*
X035576Y031758D01*
X035609Y031864D01*
X035646Y031970D01*
X035687Y032074D01*
X035732Y032177D01*
X035780Y032278D01*
X035831Y032377D01*
X035886Y032474D01*
X035945Y032569D01*
X036006Y032663D01*
X036071Y032754D01*
X036140Y032842D01*
X036211Y032928D01*
X036285Y033012D01*
X036363Y033092D01*
X036443Y033170D01*
X036526Y033246D01*
X036611Y033318D01*
X036699Y033387D01*
X036789Y033453D01*
X036882Y033515D01*
X036977Y033575D01*
X037074Y033631D01*
X037172Y033683D01*
X037273Y033732D01*
X037375Y033777D01*
X037479Y033819D01*
X037584Y033857D01*
X037691Y033891D01*
X037798Y033921D01*
X037907Y033948D01*
X038016Y033970D01*
X038127Y033989D01*
X038237Y034004D01*
X038349Y034015D01*
X038460Y034022D01*
X038572Y034025D01*
X038684Y034024D01*
X038796Y034019D01*
X038907Y034010D01*
X039018Y033997D01*
X039129Y033980D01*
X039239Y033960D01*
X039348Y033935D01*
X039456Y033907D01*
X039563Y033874D01*
X039669Y033838D01*
X039773Y033798D01*
X039876Y033755D01*
X039978Y033708D01*
X040077Y033657D01*
X040175Y033603D01*
X040271Y033545D01*
X040365Y033484D01*
X040456Y033420D01*
X040545Y033353D01*
X040632Y033282D01*
X040716Y033208D01*
X040798Y033132D01*
X040876Y033052D01*
X040952Y032970D01*
X041025Y032885D01*
X041095Y032798D01*
X041161Y032708D01*
X041225Y032616D01*
X041285Y032522D01*
X041342Y032426D01*
X041395Y032327D01*
X041445Y032227D01*
X041491Y032126D01*
X041534Y032022D01*
X041573Y031917D01*
X041608Y031811D01*
X041639Y031704D01*
X041667Y031595D01*
X041690Y031486D01*
X041710Y031376D01*
X041726Y031265D01*
X041738Y031154D01*
X041746Y031043D01*
X041750Y030931D01*
X041750Y030819D01*
X041746Y030707D01*
X041738Y030596D01*
X041726Y030485D01*
X041710Y030374D01*
X041690Y030264D01*
X041667Y030155D01*
X041639Y030046D01*
X041608Y029939D01*
X041573Y029833D01*
X041534Y029728D01*
X041491Y029624D01*
X041445Y029523D01*
X041395Y029423D01*
X041342Y029324D01*
X041285Y029228D01*
X041225Y029134D01*
X041161Y029042D01*
X041095Y028952D01*
X041025Y028865D01*
X040952Y028780D01*
X040876Y028698D01*
X040798Y028618D01*
X040716Y028542D01*
X040632Y028468D01*
X040545Y028397D01*
X040456Y028330D01*
X040365Y028266D01*
X040271Y028205D01*
X040175Y028147D01*
X040077Y028093D01*
X039978Y028042D01*
X039876Y027995D01*
X039773Y027952D01*
X039669Y027912D01*
X039563Y027876D01*
X039456Y027843D01*
X039348Y027815D01*
X039239Y027790D01*
X039129Y027770D01*
X039018Y027753D01*
X038907Y027740D01*
X038796Y027731D01*
X038684Y027726D01*
X038572Y027725D01*
X038460Y027728D01*
X038349Y027735D01*
X038237Y027746D01*
X038127Y027761D01*
X038016Y027780D01*
X037907Y027802D01*
X037798Y027829D01*
X037691Y027859D01*
X037584Y027893D01*
X037479Y027931D01*
X037375Y027973D01*
X037273Y028018D01*
X037172Y028067D01*
X037074Y028119D01*
X036977Y028175D01*
X036882Y028235D01*
X036789Y028297D01*
X036699Y028363D01*
X036611Y028432D01*
X036526Y028504D01*
X036443Y028580D01*
X036363Y028658D01*
X036285Y028738D01*
X036211Y028822D01*
X036140Y028908D01*
X036071Y028996D01*
X036006Y029087D01*
X035945Y029181D01*
X035886Y029276D01*
X035831Y029373D01*
X035780Y029472D01*
X035732Y029573D01*
X035687Y029676D01*
X035646Y029780D01*
X035609Y029886D01*
X035576Y029992D01*
X035547Y030100D01*
X035521Y030209D01*
X035499Y030319D01*
X035482Y030429D01*
X035468Y030540D01*
X035458Y030652D01*
X035452Y030763D01*
X035450Y030875D01*
X047100Y030625D02*
X047100Y020625D01*
X049100Y020625D01*
X049100Y030625D01*
X047100Y030625D01*
X047100Y031625D02*
X048100Y031625D01*
X048100Y034625D01*
X047100Y034625D01*
X047100Y031625D01*
X020350Y028125D02*
X020350Y021444D01*
X017919Y021444D01*
X017919Y028125D01*
X020350Y028125D01*
X008950Y041625D02*
X008952Y041737D01*
X008958Y041848D01*
X008968Y041960D01*
X008982Y042071D01*
X008999Y042181D01*
X009021Y042291D01*
X009047Y042400D01*
X009076Y042508D01*
X009109Y042614D01*
X009146Y042720D01*
X009187Y042824D01*
X009232Y042927D01*
X009280Y043028D01*
X009331Y043127D01*
X009386Y043224D01*
X009445Y043319D01*
X009506Y043413D01*
X009571Y043504D01*
X009640Y043592D01*
X009711Y043678D01*
X009785Y043762D01*
X009863Y043842D01*
X009943Y043920D01*
X010026Y043996D01*
X010111Y044068D01*
X010199Y044137D01*
X010289Y044203D01*
X010382Y044265D01*
X010477Y044325D01*
X010574Y044381D01*
X010672Y044433D01*
X010773Y044482D01*
X010875Y044527D01*
X010979Y044569D01*
X011084Y044607D01*
X011191Y044641D01*
X011298Y044671D01*
X011407Y044698D01*
X011516Y044720D01*
X011627Y044739D01*
X011737Y044754D01*
X011849Y044765D01*
X011960Y044772D01*
X012072Y044775D01*
X012184Y044774D01*
X012296Y044769D01*
X012407Y044760D01*
X012518Y044747D01*
X012629Y044730D01*
X012739Y044710D01*
X012848Y044685D01*
X012956Y044657D01*
X013063Y044624D01*
X013169Y044588D01*
X013273Y044548D01*
X013376Y044505D01*
X013478Y044458D01*
X013577Y044407D01*
X013675Y044353D01*
X013771Y044295D01*
X013865Y044234D01*
X013956Y044170D01*
X014045Y044103D01*
X014132Y044032D01*
X014216Y043958D01*
X014298Y043882D01*
X014376Y043802D01*
X014452Y043720D01*
X014525Y043635D01*
X014595Y043548D01*
X014661Y043458D01*
X014725Y043366D01*
X014785Y043272D01*
X014842Y043176D01*
X014895Y043077D01*
X014945Y042977D01*
X014991Y042876D01*
X015034Y042772D01*
X015073Y042667D01*
X015108Y042561D01*
X015139Y042454D01*
X015167Y042345D01*
X015190Y042236D01*
X015210Y042126D01*
X015226Y042015D01*
X015238Y041904D01*
X015246Y041793D01*
X015250Y041681D01*
X015250Y041569D01*
X015246Y041457D01*
X015238Y041346D01*
X015226Y041235D01*
X015210Y041124D01*
X015190Y041014D01*
X015167Y040905D01*
X015139Y040796D01*
X015108Y040689D01*
X015073Y040583D01*
X015034Y040478D01*
X014991Y040374D01*
X014945Y040273D01*
X014895Y040173D01*
X014842Y040074D01*
X014785Y039978D01*
X014725Y039884D01*
X014661Y039792D01*
X014595Y039702D01*
X014525Y039615D01*
X014452Y039530D01*
X014376Y039448D01*
X014298Y039368D01*
X014216Y039292D01*
X014132Y039218D01*
X014045Y039147D01*
X013956Y039080D01*
X013865Y039016D01*
X013771Y038955D01*
X013675Y038897D01*
X013577Y038843D01*
X013478Y038792D01*
X013376Y038745D01*
X013273Y038702D01*
X013169Y038662D01*
X013063Y038626D01*
X012956Y038593D01*
X012848Y038565D01*
X012739Y038540D01*
X012629Y038520D01*
X012518Y038503D01*
X012407Y038490D01*
X012296Y038481D01*
X012184Y038476D01*
X012072Y038475D01*
X011960Y038478D01*
X011849Y038485D01*
X011737Y038496D01*
X011627Y038511D01*
X011516Y038530D01*
X011407Y038552D01*
X011298Y038579D01*
X011191Y038609D01*
X011084Y038643D01*
X010979Y038681D01*
X010875Y038723D01*
X010773Y038768D01*
X010672Y038817D01*
X010574Y038869D01*
X010477Y038925D01*
X010382Y038985D01*
X010289Y039047D01*
X010199Y039113D01*
X010111Y039182D01*
X010026Y039254D01*
X009943Y039330D01*
X009863Y039408D01*
X009785Y039488D01*
X009711Y039572D01*
X009640Y039658D01*
X009571Y039746D01*
X009506Y039837D01*
X009445Y039931D01*
X009386Y040026D01*
X009331Y040123D01*
X009280Y040222D01*
X009232Y040323D01*
X009187Y040426D01*
X009146Y040530D01*
X009109Y040636D01*
X009076Y040742D01*
X009047Y040850D01*
X009021Y040959D01*
X008999Y041069D01*
X008982Y041179D01*
X008968Y041290D01*
X008958Y041402D01*
X008952Y041513D01*
X008950Y041625D01*
X047600Y003125D02*
X051600Y003125D01*
X051600Y000125D01*
X047600Y000125D01*
X047600Y003125D01*
D14*
X066460Y033113D02*
X066460Y034136D01*
X066462Y034156D01*
X066466Y034176D01*
X066474Y034194D01*
X066484Y034211D01*
X066497Y034227D01*
X066513Y034240D01*
X066530Y034250D01*
X066548Y034258D01*
X066568Y034262D01*
X066588Y034264D01*
X067611Y034264D02*
X067631Y034262D01*
X067651Y034258D01*
X067669Y034250D01*
X067686Y034240D01*
X067702Y034227D01*
X067715Y034211D01*
X067725Y034194D01*
X067733Y034176D01*
X067737Y034156D01*
X067739Y034136D01*
X067739Y033113D01*
X067737Y033093D01*
X067733Y033073D01*
X067725Y033055D01*
X067715Y033038D01*
X067702Y033022D01*
X067686Y033009D01*
X067669Y032999D01*
X067651Y032991D01*
X067631Y032987D01*
X067611Y032985D01*
X066588Y032985D02*
X066568Y032987D01*
X066548Y032991D01*
X066530Y032999D01*
X066513Y033009D01*
X066497Y033022D01*
X066484Y033038D01*
X066474Y033055D01*
X066466Y033073D01*
X066462Y033093D01*
X066460Y033113D01*
X027660Y034565D02*
X027660Y034885D01*
X027440Y034885D01*
X026760Y034885D02*
X026540Y034885D01*
X026540Y034565D01*
D15*
X066531Y033314D02*
X066533Y033341D01*
X066539Y033368D01*
X066548Y033394D01*
X066561Y033418D01*
X066577Y033441D01*
X066596Y033460D01*
X066618Y033477D01*
X066642Y033491D01*
X066667Y033501D01*
X066694Y033508D01*
X066721Y033511D01*
X066749Y033510D01*
X066776Y033505D01*
X066802Y033497D01*
X066826Y033485D01*
X066849Y033469D01*
X066870Y033451D01*
X066887Y033430D01*
X066902Y033406D01*
X066913Y033381D01*
X066921Y033355D01*
X066925Y033328D01*
X066925Y033300D01*
X066921Y033273D01*
X066913Y033247D01*
X066902Y033222D01*
X066887Y033198D01*
X066870Y033177D01*
X066849Y033159D01*
X066827Y033143D01*
X066802Y033131D01*
X066776Y033123D01*
X066749Y033118D01*
X066721Y033117D01*
X066694Y033120D01*
X066667Y033127D01*
X066642Y033137D01*
X066618Y033151D01*
X066596Y033168D01*
X066577Y033187D01*
X066561Y033210D01*
X066548Y033234D01*
X066539Y033260D01*
X066533Y033287D01*
X066531Y033314D01*
X070110Y038885D02*
X070110Y039105D01*
X070183Y039032D01*
X070257Y039105D01*
X070257Y038885D01*
X070331Y038885D02*
X070331Y039032D01*
X070404Y039105D01*
X070478Y039032D01*
X070478Y038885D01*
X070552Y038885D02*
X070699Y039105D01*
X070773Y039068D02*
X070810Y039105D01*
X070883Y039105D01*
X070920Y039068D01*
X070920Y039032D01*
X070883Y038995D01*
X070920Y038958D01*
X070920Y038922D01*
X070883Y038885D01*
X070810Y038885D01*
X070773Y038922D01*
X070699Y038885D02*
X070552Y039105D01*
X070478Y038995D02*
X070331Y038995D01*
X070846Y038995D02*
X070883Y038995D01*
X070994Y038922D02*
X071141Y039068D01*
X071141Y038922D01*
X071104Y038885D01*
X071031Y038885D01*
X070994Y038922D01*
X070994Y039068D01*
X071031Y039105D01*
X071104Y039105D01*
X071141Y039068D01*
X071215Y039105D02*
X071362Y039105D01*
X071362Y039068D01*
X071215Y038922D01*
X071215Y038885D01*
X071436Y038885D02*
X071436Y038922D01*
X071583Y039068D01*
X071583Y039105D01*
X071436Y039105D01*
D16*
X035848Y034255D03*
X035100Y034255D03*
X034352Y034255D03*
X020848Y034255D03*
X020100Y034255D03*
X019352Y034255D03*
D17*
X024100Y048752D03*
X031100Y048752D03*
D18*
X030600Y048752D03*
X030100Y048752D03*
X029600Y048752D03*
X031600Y048752D03*
X032100Y048752D03*
X032600Y048752D03*
X025600Y048752D03*
X025100Y048752D03*
X024600Y048752D03*
X023600Y048752D03*
X023100Y048752D03*
X022600Y048752D03*
D19*
X022600Y048694D03*
X023100Y048694D03*
X023600Y048694D03*
X024100Y048694D03*
X024600Y048694D03*
X025100Y048694D03*
X025600Y048694D03*
X029600Y048694D03*
X030100Y048694D03*
X030600Y048694D03*
X031100Y048694D03*
X031600Y048694D03*
X032100Y048694D03*
X032600Y048694D03*
D20*
X026584Y027562D03*
X025600Y027562D03*
X024616Y027562D03*
D21*
X007023Y050140D02*
X007085Y050202D01*
X007085Y050325D01*
X007023Y050387D01*
X006900Y050387D01*
X006900Y050263D01*
X007023Y050140D02*
X006776Y050140D01*
X006715Y050202D01*
X006715Y050325D01*
X006776Y050387D01*
X006776Y051140D02*
X007023Y051140D01*
X007085Y051202D01*
X007085Y051325D01*
X007023Y051387D01*
X006900Y051387D01*
X006900Y051263D01*
X006776Y051140D02*
X006715Y051202D01*
X006715Y051325D01*
X006776Y051387D01*
X006776Y052140D02*
X007023Y052140D01*
X007085Y052202D01*
X007085Y052325D01*
X007023Y052387D01*
X006900Y052387D01*
X006900Y052263D01*
X006776Y052140D02*
X006715Y052202D01*
X006715Y052325D01*
X006776Y052387D01*
X006776Y053140D02*
X007023Y053140D01*
X007085Y053202D01*
X007085Y053325D01*
X007023Y053387D01*
X006900Y053387D01*
X006900Y053263D01*
X006776Y053140D02*
X006715Y053202D01*
X006715Y053325D01*
X006776Y053387D01*
X006776Y054140D02*
X007023Y054140D01*
X007085Y054202D01*
X007085Y054325D01*
X007023Y054387D01*
X006900Y054387D01*
X006900Y054263D01*
X006776Y054140D02*
X006715Y054202D01*
X006715Y054325D01*
X006776Y054387D01*
X006776Y055140D02*
X007023Y055140D01*
X007085Y055202D01*
X007085Y055325D01*
X007023Y055387D01*
X006900Y055387D01*
X006900Y055263D01*
X006776Y055140D02*
X006715Y055202D01*
X006715Y055325D01*
X006776Y055387D01*
X006776Y056140D02*
X007023Y056140D01*
X007085Y056202D01*
X007085Y056325D01*
X007023Y056387D01*
X006900Y056387D01*
X006900Y056263D01*
X006776Y056140D02*
X006715Y056202D01*
X006715Y056325D01*
X006776Y056387D01*
X006715Y057140D02*
X006715Y057325D01*
X006776Y057387D01*
X006900Y057387D01*
X006962Y057325D01*
X006962Y057140D01*
X007085Y057140D02*
X006715Y057140D01*
X006962Y057263D02*
X007085Y057387D01*
X007085Y058140D02*
X006715Y058140D01*
X006715Y058325D01*
X006776Y058387D01*
X006900Y058387D01*
X006962Y058325D01*
X006962Y058140D01*
X006962Y058263D02*
X007085Y058387D01*
X007085Y059140D02*
X006715Y059140D01*
X006715Y059325D01*
X006776Y059387D01*
X006900Y059387D01*
X006962Y059325D01*
X006962Y059140D01*
X006962Y059263D02*
X007085Y059387D01*
M02*
