%
M48
M72
T01C0.0197
T02C0.0236
T03C0.0315
T04C0.0354
T05C0.0394
T06C0.0400
T07C0.0433
T08C0.0440
T09C0.0472
T10C0.0512
T11C0.0551
T12C0.0630
T13C0.0787
T14C0.1260
T15C0.1752
T16C0.2500
T17C0.3600
%
T01
X27100Y30375
X25600Y33875
X26100Y34375
X26600Y36125
X32100Y36125
X32344Y41263
X31872Y41420
X31596Y41775
X31596Y42326
X31872Y42680
X32344Y42838
X32868Y42838
X33395Y42838
X33919Y42838
X34391Y42680
X34667Y42326
X34667Y41775
X34391Y41420
X33919Y41263
X33395Y41263
X32868Y41263
X35533Y41775
X35809Y41420
X36281Y41263
X36805Y41263
X37332Y41263
X37856Y41263
X38328Y41420
X38604Y41775
X38604Y42326
X38328Y42680
X37856Y42838
X37332Y42838
X36805Y42838
X36281Y42838
X35809Y42680
X35533Y42326
X38350Y36875
X40100Y34875
X39100Y34125
X42600Y33125
X44475Y34125
X46350Y32125
X45100Y27375
X52600Y31125
X54600Y31625
X52600Y34125
X54600Y36375
X49100Y40625
X45850Y39375
X61100Y42375
X64100Y42625
X64600Y42125
X65100Y42625
X65350Y43375
X64850Y44125
X66100Y44625
X66600Y45625
X67100Y46375
X68100Y47375
X68100Y47875
X68100Y48375
X68100Y48875
X68100Y49375
X67600Y49750
X68100Y50125
X69350Y51375
X69600Y51875
X70100Y51625
X70600Y51625
X71100Y51625
X71600Y51625
X72100Y51625
X71100Y49625
X73850Y48125
X67100Y53625
X67100Y54125
X68350Y54375
X69100Y55625
X69100Y56125
X66850Y57125
X66100Y52125
X65100Y50125
X64100Y48125
X63100Y46375
X62100Y44375
X65350Y41375
X65350Y40875
X65850Y40375
X64600Y40375
X62350Y39375
X61350Y35625
X65100Y31625
X66850Y32375
X66475Y33375
X67350Y33625
X67850Y35125
X67100Y35625
X69100Y35625
X69100Y34125
X69100Y32625
X63850Y30125
X61850Y26625
X66100Y26625
X68100Y21625
X54100Y23125
X66850Y37875
X67850Y40375
X69100Y40125
X70100Y38625
X70600Y38625
X71100Y38875
X71600Y38375
X72600Y55375
X57600Y57125
X23604Y42326
X23328Y42680
X22856Y42838
X22332Y42838
X21805Y42838
X21281Y42838
X20809Y42680
X20533Y42326
X20533Y41775
X20809Y41420
X21281Y41263
X21805Y41263
X22332Y41263
X22856Y41263
X23328Y41420
X23604Y41775
X19667Y41775
X19391Y41420
X18919Y41263
X18395Y41263
X17868Y41263
X17344Y41263
X16872Y41420
X16596Y41775
X16596Y42326
X16872Y42680
X17344Y42838
X17868Y42838
X18395Y42838
X18919Y42838
X19391Y42680
X19667Y42326
X5100Y49625
T02
X3600Y49125
X2850Y49125
X2100Y49125
X1350Y49125
X1475Y47500
X7100Y47875
X9850Y49125
X10850Y48875
X22600Y47125
X23100Y46625
X22600Y46125
X23100Y45625
X22600Y45125
X23100Y44625
X22600Y44125
X23100Y43625
X23600Y44125
X24100Y43625
X24600Y44125
X24100Y44625
X23600Y45125
X24100Y45625
X23600Y46125
X24100Y46625
X23600Y47125
X23100Y47625
X24100Y47625
X24600Y47125
X25100Y46625
X24600Y46125
X25100Y45625
X25600Y46125
X25600Y45125
X25100Y44625
X24600Y45125
X25600Y44125
X25100Y43625
X29600Y44125
X30100Y43625
X30600Y44125
X30100Y44625
X29600Y45125
X30100Y45625
X30600Y45125
X31100Y44625
X31600Y44125
X31100Y43625
X32100Y43625
X32600Y44125
X32100Y44625
X31600Y45125
X31100Y45625
X30600Y46125
X30100Y46625
X29600Y46125
X29600Y47125
X30100Y47625
X30600Y47125
X31100Y46625
X31600Y46125
X32100Y46625
X31600Y47125
X31100Y47625
X32100Y47625
X32600Y47125
X32600Y46125
X32100Y45625
X32600Y45125
X28100Y48625
X25600Y47125
X25100Y47625
X28100Y40125
X20600Y37625
X20100Y37125
X19850Y38875
X19100Y38875
X36850Y39125
X38350Y37625
X42600Y36125
X43475Y36000
X44350Y35125
X42850Y34375
X45850Y37125
X47350Y35625
X49600Y35625
X50100Y34625
X50850Y34625
X51600Y34625
X53600Y31625
X53600Y30625
X52350Y30625
X52600Y26625
X46100Y21625
X61850Y36125
X63350Y36375
X69350Y41875
X70850Y36625
X66600Y29125
X72100Y48625
X73100Y55625
X69100Y58125
X59350Y58625
X45600Y57125
X44600Y59125
T03
X61214Y57090
X63635Y59511
X67714Y57090
X70135Y59511
X38600Y32351
X35852Y33625
X35100Y33625
X34348Y33625
X31600Y31601
X31600Y28649
X38600Y29399
X20852Y33625
X20100Y33625
X19348Y33625
X12100Y40149
X12100Y43101
X17600Y45649
X17600Y48601
X13600Y52625
X4600Y43101
X4600Y40149
T04
X600Y43625
X47600Y38125
X47600Y37125
X48600Y37125
X49600Y37125
X50600Y37125
X51600Y37125
X51600Y38125
X50600Y38125
X49600Y38125
X48600Y38125
X52600Y38125
X53600Y38125
X54600Y38125
X54600Y37125
X53600Y37125
X52600Y37125
X55600Y37125
X56600Y37125
X57600Y37125
X58600Y37125
X58600Y38125
X57600Y38125
X56600Y38125
X55600Y38125
X59600Y38125
X60600Y38125
X61600Y38125
X61600Y37125
X60600Y37125
X59600Y37125
X62600Y37125
X63600Y37125
X64600Y37125
X65600Y37125
X65600Y38125
X64600Y38125
X63600Y38125
X62600Y38125
X65600Y34125
X65600Y33125
X65600Y32125
X65600Y30125
X65600Y29125
X64600Y29125
X64600Y30125
X64600Y28125
X64600Y27125
X65600Y27125
X65600Y28125
X65600Y26125
X65600Y25125
X64600Y25125
X64600Y26125
X64600Y24125
X65600Y24125
X65600Y23125
X65600Y22125
X64600Y22125
X64600Y23125
X64600Y21125
X65600Y21125
X48600Y21125
X48600Y22125
X48600Y23125
X48600Y24125
X48600Y25125
X48600Y26125
X48600Y27125
X48600Y28125
X48600Y29125
X48600Y30125
X47600Y30125
X47600Y29125
X47600Y28125
X47600Y27125
X47600Y26125
X47600Y25125
X47600Y24125
X47600Y23125
X47600Y22125
X47600Y21125
X47600Y32125
X47600Y33125
X47600Y34125
T05
X43600Y34625
X41600Y35625
X41600Y33625
X46100Y55625
X47100Y55625
X48100Y55625
X49100Y55625
X50100Y55625
X51100Y55625
X52100Y55625
X53100Y55625
X54100Y55625
X54100Y58625
X53100Y58625
X52100Y58625
X51100Y58625
X50100Y58625
X49100Y58625
X48100Y58625
X47100Y58625
X46100Y58625
X70350Y46125
X70350Y45125
X70350Y44125
X70350Y43125
X71350Y42625
X71350Y43625
X71350Y44625
X71350Y45625
X71350Y35625
X71350Y34625
X71350Y32625
X71350Y31625
X70350Y29625
X70350Y28625
X70350Y27625
X70350Y26125
X70350Y25125
X70350Y24125
X73600Y24125
X73600Y25125
X73600Y26125
X73600Y27625
X73600Y28625
X73600Y29625
X8600Y50125
X8600Y51125
X8600Y52125
X8600Y53125
X8600Y54125
X8600Y55125
X8600Y56125
X8600Y57125
X8600Y58125
X8600Y59125
X5647Y59125
X5647Y58125
X5647Y57125
X5647Y56125
X5647Y55125
X5647Y54125
X5647Y53125
X5647Y52125
X5647Y51125
X5647Y50125
T06
X4350Y50125
X4350Y51125
X3350Y51125
X3350Y50125
X3350Y52125
X3350Y53125
X4350Y53125
X4350Y52125
X4350Y54125
X4350Y55125
X3350Y55125
X3350Y54125
X3350Y56125
X3350Y57125
X4350Y57125
X4350Y56125
X4350Y58125
X3350Y58125
X3350Y59125
X4350Y59125
X12600Y58125
X13600Y58125
X14600Y58125
X17100Y58125
X18100Y58125
X19100Y58125
X19100Y51625
X18100Y51625
X17100Y51625
X39100Y38125
X40100Y38125
X41100Y38125
X42100Y38125
X43100Y38125
X44100Y38125
X74100Y37125
X74100Y36125
X74100Y34625
X74100Y33625
X74100Y32125
X74100Y31125
T07
X45850Y43125
X30850Y35125
X25600Y36625
T08
X46600Y39625
X47600Y39625
X48600Y39625
X49600Y39625
X50600Y39625
X51600Y39625
X52600Y39625
X53600Y39625
X54600Y39625
X55600Y39625
X56600Y39625
X57600Y39625
X58600Y39625
X59600Y39625
X60600Y39625
X61600Y39625
T09
X54100Y43625
X53100Y41625
X48100Y43625
X47100Y41625
X49100Y45625
X50100Y47625
X51100Y49625
X52100Y51625
X53100Y53625
X55100Y55625
X59100Y53625
X58100Y51625
X57100Y49625
X56100Y47625
X55100Y45625
X61100Y55625
T10
X17600Y53625
T11
X24600Y29361
X25600Y29361
X26600Y29361
T12
X30600Y25424
X34600Y25424
X34600Y21424
X30600Y21424
T13
X19100Y22625
X19100Y24771
X19100Y26916
T14
X73850Y42125
X73850Y46625
T15
X11694Y24790
X4411Y33649
T16
X73100Y22125
X73100Y58125
T17
X40100Y54625
X27600Y54625
X40850Y24125
M30
