G75*
%MOIN*%
%OFA0B0*%
%FSLAX24Y24*%
%IPPOS*%
%LPD*%
%AMOC8*
5,1,8,0,0,1.08239X$1,22.5*
%
%ADD10C,0.2580*%
%ADD11R,0.0198X0.0572*%
%ADD12C,0.0674*%
%ADD13R,0.0407X0.0328*%
%ADD14R,0.0789X0.0710*%
%ADD15R,0.0710X0.0790*%
%ADD16R,0.0395X0.0434*%
%ADD17C,0.0820*%
%ADD18R,0.0710X0.0789*%
%ADD19R,0.0552X0.0631*%
%ADD20R,0.0198X0.0552*%
%ADD21R,0.0552X0.0867*%
%ADD22R,0.0434X0.0454*%
%ADD23R,0.0790X0.0710*%
%ADD24C,0.0671*%
%ADD25R,0.3623X0.2442*%
%ADD26C,0.0477*%
%ADD27C,0.7280*%
%ADD28R,0.0395X0.1261*%
%ADD29R,0.4017X0.3623*%
%ADD30R,0.0316X0.0946*%
%ADD31C,0.2620*%
%ADD32R,0.0595X0.0595*%
%ADD33R,0.1580X0.1580*%
%ADD34R,0.0631X0.0474*%
%ADD35R,0.0820X0.0820*%
%ADD36C,0.0680*%
%ADD37C,0.0780*%
%ADD38R,0.0680X0.0380*%
%ADD39R,0.1340X0.1064*%
%ADD40C,0.0395*%
%ADD41R,0.0356X0.0356*%
%ADD42R,0.0634X0.0634*%
%ADD43OC8,0.0634*%
%ADD44C,0.0634*%
%ADD45C,0.0820*%
%ADD46C,0.1340*%
%ADD47R,0.0273X0.0592*%
%ADD48R,0.1025X0.1025*%
%ADD49R,0.0277X0.0474*%
%ADD50R,0.0277X0.0769*%
%ADD51C,0.0050*%
%ADD52R,0.2580X0.1580*%
%ADD53R,0.0254X0.0430*%
%ADD54R,0.1655X0.0741*%
%ADD55R,0.2167X0.0867*%
%ADD56R,0.0631X0.1261*%
%ADD57R,0.1261X0.0631*%
%ADD58C,0.0437*%
%ADD59C,0.0611*%
%ADD60C,0.0730*%
%ADD61C,0.0476*%
%ADD62R,0.0476X0.0476*%
D10*
X073100Y022125D03*
X073100Y058125D03*
D11*
X072667Y053424D03*
X072470Y053424D03*
X072273Y053424D03*
X072076Y053424D03*
X071880Y053424D03*
X071683Y053424D03*
X071486Y053424D03*
X071289Y053424D03*
X071092Y053424D03*
X070895Y053424D03*
X070698Y053424D03*
X070502Y053424D03*
X070305Y053424D03*
X070108Y053424D03*
X069911Y053424D03*
X069714Y053424D03*
X069517Y053424D03*
X069320Y053424D03*
X069124Y053424D03*
X068927Y053424D03*
X068730Y053424D03*
X068533Y053424D03*
X068533Y050826D03*
X068730Y050826D03*
X068927Y050826D03*
X069124Y050826D03*
X069320Y050826D03*
X069517Y050826D03*
X069714Y050826D03*
X069911Y050826D03*
X070108Y050826D03*
X070305Y050826D03*
X070502Y050826D03*
X070698Y050826D03*
X070895Y050826D03*
X071092Y050826D03*
X071289Y050826D03*
X071486Y050826D03*
X071683Y050826D03*
X071880Y050826D03*
X072076Y050826D03*
X072273Y050826D03*
X072470Y050826D03*
X072667Y050826D03*
D12*
X054100Y055328D02*
X054100Y055922D01*
X053100Y055922D02*
X053100Y055328D01*
X052100Y055328D02*
X052100Y055922D01*
X051100Y055922D02*
X051100Y055328D01*
X050100Y055328D02*
X050100Y055922D01*
X049100Y055922D02*
X049100Y055328D01*
X048100Y055328D02*
X048100Y055922D01*
X047100Y055922D02*
X047100Y055328D01*
X046100Y055328D02*
X046100Y055922D01*
X046100Y058328D02*
X046100Y058922D01*
X047100Y058922D02*
X047100Y058328D01*
X048100Y058328D02*
X048100Y058922D01*
X049100Y058922D02*
X049100Y058328D01*
X050100Y058328D02*
X050100Y058922D01*
X051100Y058922D02*
X051100Y058328D01*
X052100Y058328D02*
X052100Y058922D01*
X053100Y058922D02*
X053100Y058328D01*
X054100Y058328D02*
X054100Y058922D01*
X071053Y035625D02*
X071647Y035625D01*
X071647Y034625D02*
X071053Y034625D01*
X071053Y032625D02*
X071647Y032625D01*
X071647Y031625D02*
X071053Y031625D01*
X070647Y029625D02*
X070053Y029625D01*
X070053Y028625D02*
X070647Y028625D01*
X070647Y027625D02*
X070053Y027625D01*
X070053Y026125D02*
X070647Y026125D01*
X070647Y025125D02*
X070053Y025125D01*
X070053Y024125D02*
X070647Y024125D01*
X073303Y024125D02*
X073897Y024125D01*
X073897Y025125D02*
X073303Y025125D01*
X073303Y026125D02*
X073897Y026125D01*
X073897Y027625D02*
X073303Y027625D01*
X073303Y028625D02*
X073897Y028625D01*
X073897Y029625D02*
X073303Y029625D01*
D13*
X059600Y041172D03*
X059600Y042078D03*
X060600Y043172D03*
X060600Y044078D03*
X061600Y045172D03*
X061600Y046078D03*
X062600Y047172D03*
X062600Y048078D03*
X063600Y049172D03*
X063600Y050078D03*
X064600Y051172D03*
X064600Y052078D03*
X065600Y053172D03*
X065600Y054078D03*
X067600Y055172D03*
X067600Y056078D03*
D14*
X068350Y056176D03*
X068350Y055074D03*
X066350Y054176D03*
X066350Y053074D03*
X065350Y052176D03*
X065350Y051074D03*
X064350Y050176D03*
X064350Y049074D03*
X063350Y048176D03*
X063350Y047074D03*
X062350Y046176D03*
X062350Y045074D03*
X061350Y044176D03*
X061350Y043074D03*
X060350Y042176D03*
X060350Y041074D03*
X069100Y039426D03*
X069100Y038324D03*
X066850Y031676D03*
X066850Y030574D03*
X073600Y051574D03*
X073600Y052676D03*
X025600Y038676D03*
X025600Y037574D03*
D15*
X038040Y034875D03*
X039160Y034875D03*
X039290Y035875D03*
X040410Y035875D03*
X051040Y026125D03*
X051040Y025125D03*
X052160Y025125D03*
X052160Y026125D03*
X063040Y031625D03*
X064160Y031625D03*
X068540Y031125D03*
X068540Y032125D03*
X069660Y032125D03*
X069660Y031125D03*
X069660Y034125D03*
X069660Y035125D03*
X068540Y035125D03*
X068540Y034125D03*
X066160Y039625D03*
X065040Y039625D03*
X064160Y039625D03*
X063040Y039625D03*
X062790Y041875D03*
X063910Y041875D03*
X058660Y045125D03*
X057540Y045125D03*
X057660Y043125D03*
X056540Y043125D03*
X056660Y041125D03*
X055540Y041125D03*
X058540Y047125D03*
X059660Y047125D03*
X059540Y049125D03*
X060660Y049125D03*
X060540Y051125D03*
X061660Y051125D03*
X061540Y053125D03*
X062660Y053125D03*
X063540Y055125D03*
X064660Y055125D03*
X058660Y058125D03*
X057540Y058125D03*
X056660Y058125D03*
X055540Y058125D03*
X057540Y059125D03*
X058660Y059125D03*
X010910Y059125D03*
X009790Y059125D03*
X009790Y058125D03*
X010910Y058125D03*
X010910Y057125D03*
X010910Y056125D03*
X009790Y056125D03*
X009790Y057125D03*
X009790Y055125D03*
X009790Y054125D03*
X010910Y054125D03*
X010910Y055125D03*
X010910Y053125D03*
X010910Y052125D03*
X009790Y052125D03*
X009790Y053125D03*
X009790Y051125D03*
X009790Y050125D03*
X010910Y050125D03*
X010910Y051125D03*
X002160Y051125D03*
X002160Y050125D03*
X001040Y050125D03*
X001040Y051125D03*
X001040Y052125D03*
X001040Y053125D03*
X002160Y053125D03*
X002160Y052125D03*
X002160Y054125D03*
X002160Y055125D03*
X001040Y055125D03*
X001040Y054125D03*
X001040Y056125D03*
X001040Y057125D03*
X002160Y057125D03*
X002160Y056125D03*
X002160Y058125D03*
X001040Y058125D03*
X001040Y059125D03*
X002160Y059125D03*
D16*
X053976Y040981D03*
X054724Y040981D03*
X054350Y041808D03*
X054976Y042981D03*
X055724Y042981D03*
X055350Y043808D03*
X055976Y044981D03*
X056724Y044981D03*
X056350Y045808D03*
X056976Y046981D03*
X057724Y046981D03*
X057350Y047808D03*
X057976Y048981D03*
X058724Y048981D03*
X058350Y049808D03*
X058976Y050981D03*
X059724Y050981D03*
X059350Y051808D03*
X059976Y052981D03*
X060724Y052981D03*
X060350Y053808D03*
X061976Y054981D03*
X062724Y054981D03*
X062350Y055808D03*
D17*
X061100Y055625D03*
X059100Y053625D03*
X058100Y051625D03*
X057100Y049625D03*
X056100Y047625D03*
X055100Y045625D03*
X054100Y043625D03*
X053100Y041625D03*
X048100Y043625D03*
X047100Y041625D03*
X043100Y038125D03*
X042100Y038125D03*
X041100Y038125D03*
X040100Y038125D03*
X039100Y038125D03*
X041600Y035625D03*
X043600Y034625D03*
X041600Y033625D03*
X049100Y045625D03*
X050100Y047625D03*
X051100Y049625D03*
X052100Y051625D03*
X053100Y053625D03*
X055100Y055625D03*
X070350Y046125D03*
X070350Y045125D03*
X070350Y044125D03*
X070350Y043125D03*
X071350Y043625D03*
X071350Y044625D03*
X071350Y045625D03*
X074100Y037125D03*
X074100Y034625D03*
X074100Y032125D03*
X019100Y051125D03*
X018100Y051125D03*
X017100Y051125D03*
X004350Y051125D03*
X004350Y050125D03*
X003350Y050125D03*
X003350Y051125D03*
X003350Y052125D03*
X003350Y053125D03*
X004350Y053125D03*
X004350Y052125D03*
X004350Y054125D03*
X004350Y055125D03*
X003350Y055125D03*
X003350Y054125D03*
X003350Y056125D03*
X003350Y057125D03*
X004350Y057125D03*
X004350Y056125D03*
X004350Y058125D03*
X003350Y058125D03*
X003350Y059125D03*
X004350Y059125D03*
D18*
X025049Y032625D03*
X026151Y032625D03*
X027299Y032125D03*
X028401Y032125D03*
X055549Y042125D03*
X056651Y042125D03*
X057549Y041125D03*
X058651Y041125D03*
X058549Y043125D03*
X057651Y044125D03*
X056549Y044125D03*
X057549Y046125D03*
X058651Y046125D03*
X059549Y045125D03*
X060651Y045125D03*
X060549Y047125D03*
X061651Y047125D03*
X059651Y048125D03*
X058549Y048125D03*
X059549Y050125D03*
X060651Y050125D03*
X061549Y049125D03*
X062651Y049125D03*
X062549Y051125D03*
X063651Y051125D03*
X063549Y053125D03*
X064651Y053125D03*
X062651Y054125D03*
X061549Y054125D03*
X061651Y052125D03*
X060549Y052125D03*
X063549Y056125D03*
X064651Y056125D03*
X065549Y055125D03*
X066651Y055125D03*
X059651Y043125D03*
X068549Y036125D03*
X067651Y035625D03*
X066549Y035625D03*
X069651Y036125D03*
X069651Y033125D03*
X068549Y033125D03*
X069299Y040875D03*
X070401Y040875D03*
X071299Y040875D03*
X072401Y040875D03*
D19*
X061691Y048125D03*
X060509Y048125D03*
X060691Y046125D03*
X059509Y046125D03*
X059691Y044125D03*
X058509Y044125D03*
X058691Y042125D03*
X057509Y042125D03*
X061509Y050125D03*
X062691Y050125D03*
X062509Y052125D03*
X063691Y052125D03*
X063509Y054125D03*
X064691Y054125D03*
X065509Y056125D03*
X066691Y056125D03*
X056691Y059125D03*
X055509Y059125D03*
D20*
X066716Y034456D03*
X066972Y034456D03*
X067228Y034456D03*
X067483Y034456D03*
X067483Y032793D03*
X067228Y032793D03*
X066972Y032793D03*
X066716Y032793D03*
D21*
X073220Y048125D03*
X074480Y048125D03*
D22*
X074720Y049125D03*
X074720Y049875D03*
X074720Y050625D03*
X073480Y050625D03*
X073480Y049875D03*
X073480Y049125D03*
D23*
X074600Y051565D03*
X074600Y052685D03*
X062600Y027185D03*
X062600Y026065D03*
X030850Y036315D03*
X030850Y037435D03*
X030850Y038315D03*
X030850Y039435D03*
D24*
X034348Y033625D03*
X035100Y033625D03*
X035852Y033625D03*
X020852Y033625D03*
X020100Y033625D03*
X019348Y033625D03*
D25*
X018131Y042050D03*
X022069Y042050D03*
X033131Y042050D03*
X037069Y042050D03*
D26*
X037332Y041263D03*
X037856Y041263D03*
X038328Y041420D03*
X038604Y041775D03*
X038604Y042326D03*
X038328Y042680D03*
X037856Y042838D03*
X037332Y042838D03*
X036805Y042838D03*
X036281Y042838D03*
X035809Y042680D03*
X035533Y042326D03*
X035533Y041775D03*
X035809Y041420D03*
X036281Y041263D03*
X036805Y041263D03*
X034667Y041775D03*
X034391Y041420D03*
X033919Y041263D03*
X033395Y041263D03*
X032868Y041263D03*
X032344Y041263D03*
X031872Y041420D03*
X031596Y041775D03*
X031596Y042326D03*
X031872Y042680D03*
X032344Y042838D03*
X032868Y042838D03*
X033395Y042838D03*
X033919Y042838D03*
X034391Y042680D03*
X034667Y042326D03*
X023604Y042326D03*
X023328Y042680D03*
X022856Y042838D03*
X022332Y042838D03*
X021805Y042838D03*
X021281Y042838D03*
X020809Y042680D03*
X020533Y042326D03*
X020533Y041775D03*
X020809Y041420D03*
X021281Y041263D03*
X021805Y041263D03*
X022332Y041263D03*
X022856Y041263D03*
X023328Y041420D03*
X023604Y041775D03*
X019667Y041775D03*
X019391Y041420D03*
X018919Y041263D03*
X018395Y041263D03*
X017868Y041263D03*
X017344Y041263D03*
X016872Y041420D03*
X016596Y041775D03*
X016596Y042326D03*
X016872Y042680D03*
X017344Y042838D03*
X017868Y042838D03*
X018395Y042838D03*
X018919Y042838D03*
X019391Y042680D03*
X019667Y042326D03*
D27*
X027600Y054625D03*
X040100Y054625D03*
X040850Y024125D03*
D28*
X032600Y049750D03*
X032100Y049750D03*
X031600Y049750D03*
X030600Y049750D03*
X030100Y049750D03*
X029600Y049750D03*
X025600Y049750D03*
X025100Y049750D03*
X024600Y049750D03*
X023600Y049750D03*
X023100Y049750D03*
X022600Y049750D03*
D29*
X024100Y045773D03*
X031100Y045773D03*
D30*
X027850Y039149D03*
X027350Y039149D03*
X026850Y039149D03*
X026350Y039149D03*
X026350Y037101D03*
X026850Y037101D03*
X027350Y037101D03*
X027850Y037101D03*
D31*
X012964Y024790D02*
X010424Y024790D01*
X005681Y033649D02*
X003141Y033649D01*
D32*
X004600Y040149D03*
X004600Y043101D03*
X012100Y043101D03*
X012100Y040149D03*
X017600Y045649D03*
X017600Y048601D03*
X031600Y031601D03*
X031600Y028649D03*
X038600Y029399D03*
X038600Y032351D03*
D33*
X019100Y022625D03*
X019100Y024771D03*
X019100Y026916D03*
D34*
X027167Y032751D03*
X028033Y033125D03*
X027167Y033499D03*
D35*
X044100Y038125D03*
X071350Y042625D03*
X074100Y036125D03*
X074100Y033625D03*
X074100Y031125D03*
D36*
X019100Y058125D03*
X018100Y058125D03*
X017100Y058125D03*
X014600Y058125D03*
X013600Y058125D03*
X012600Y058125D03*
D37*
X008600Y058125D03*
X008600Y057125D03*
X008600Y056125D03*
X008600Y055125D03*
X008600Y054125D03*
X008600Y053125D03*
X008600Y052125D03*
X008600Y051125D03*
X008600Y050125D03*
X005647Y050125D03*
X005647Y051125D03*
X005647Y052125D03*
X005647Y053125D03*
X005647Y054125D03*
X005647Y055125D03*
X005647Y056125D03*
X005647Y057125D03*
X005647Y058125D03*
X005647Y059125D03*
X008600Y059125D03*
D38*
X012000Y050375D03*
X012000Y048875D03*
X014200Y048875D03*
X014200Y050375D03*
D39*
X060525Y058625D03*
X063675Y058625D03*
X067025Y058625D03*
X070175Y058625D03*
D40*
X070135Y059511D03*
X067714Y057090D03*
X063635Y059511D03*
X061214Y057090D03*
D41*
X064594Y057261D03*
X065106Y057261D03*
X065844Y057261D03*
X066356Y057261D03*
X066100Y057989D03*
X064850Y057989D03*
X067736Y027881D03*
X067736Y027369D03*
X068464Y027625D03*
X067736Y026381D03*
X067736Y025869D03*
X068464Y026125D03*
X067736Y024381D03*
X067736Y023869D03*
X068464Y024125D03*
X067736Y022881D03*
X067736Y022369D03*
X068464Y022625D03*
D42*
X065600Y021125D03*
X064600Y021125D03*
X048600Y021125D03*
X047600Y021125D03*
X047600Y034125D03*
X050600Y037125D03*
X050600Y038125D03*
X055600Y038125D03*
X055600Y037125D03*
X060600Y037125D03*
X060600Y038125D03*
X065600Y038125D03*
X065600Y037125D03*
X065600Y034125D03*
D43*
X064600Y037125D03*
X063600Y037125D03*
X062600Y037125D03*
X062600Y038125D03*
X063600Y038125D03*
X064600Y038125D03*
X061600Y038125D03*
X061600Y037125D03*
X059600Y037125D03*
X059600Y038125D03*
X058600Y038125D03*
X057600Y038125D03*
X056600Y038125D03*
X056600Y037125D03*
X057600Y037125D03*
X058600Y037125D03*
X054600Y037125D03*
X053600Y037125D03*
X052600Y037125D03*
X052600Y038125D03*
X053600Y038125D03*
X054600Y038125D03*
X051600Y038125D03*
X051600Y037125D03*
X049600Y037125D03*
X048600Y037125D03*
X048600Y038125D03*
X049600Y038125D03*
X047600Y038125D03*
X047600Y037125D03*
D44*
X047600Y033125D03*
X047600Y032125D03*
X047600Y030125D03*
X047600Y029125D03*
X047600Y028125D03*
X047600Y027125D03*
X047600Y026125D03*
X047600Y025125D03*
X047600Y024125D03*
X047600Y023125D03*
X047600Y022125D03*
X048600Y022125D03*
X048600Y023125D03*
X048600Y024125D03*
X048600Y025125D03*
X048600Y026125D03*
X048600Y027125D03*
X048600Y028125D03*
X048600Y029125D03*
X048600Y030125D03*
X064600Y030125D03*
X064600Y029125D03*
X065600Y029125D03*
X065600Y030125D03*
X065600Y028125D03*
X065600Y027125D03*
X064600Y027125D03*
X064600Y028125D03*
X064600Y026125D03*
X064600Y025125D03*
X065600Y025125D03*
X065600Y026125D03*
X065600Y024125D03*
X064600Y024125D03*
X064600Y023125D03*
X064600Y022125D03*
X065600Y022125D03*
X065600Y023125D03*
X065600Y032125D03*
X065600Y033125D03*
D45*
X061600Y039255D02*
X061600Y039995D01*
X060600Y039995D02*
X060600Y039255D01*
X059600Y039255D02*
X059600Y039995D01*
X058600Y039995D02*
X058600Y039255D01*
X057600Y039255D02*
X057600Y039995D01*
X056600Y039995D02*
X056600Y039255D01*
X055600Y039255D02*
X055600Y039995D01*
X054600Y039995D02*
X054600Y039255D01*
X053600Y039255D02*
X053600Y039995D01*
X052600Y039995D02*
X052600Y039255D01*
X051600Y039255D02*
X051600Y039995D01*
X050600Y039995D02*
X050600Y039255D01*
X049600Y039255D02*
X049600Y039995D01*
X048600Y039995D02*
X048600Y039255D01*
X047600Y039255D02*
X047600Y039995D01*
X046600Y039995D02*
X046600Y039255D01*
D46*
X073850Y042125D03*
X073850Y046625D03*
D47*
X071600Y040000D03*
X071100Y040000D03*
X070600Y040000D03*
X070100Y040000D03*
X070100Y037750D03*
X070600Y037750D03*
X071100Y037750D03*
X071600Y037750D03*
D48*
X034600Y025424D03*
X030600Y025424D03*
X030600Y021424D03*
X034600Y021424D03*
D49*
X024848Y024690D03*
X024348Y024690D03*
X023848Y024690D03*
X023348Y024690D03*
X023098Y029940D03*
X022598Y029940D03*
X023598Y029940D03*
X024098Y029940D03*
D50*
X024102Y032529D03*
X023602Y032529D03*
X023102Y032529D03*
X022602Y032529D03*
X023352Y027279D03*
X023852Y027279D03*
X024352Y027279D03*
X024852Y027279D03*
D51*
X025344Y026345D02*
X022856Y026345D01*
X022856Y024905D01*
X025344Y024905D01*
X025344Y026345D01*
X025344Y026333D02*
X022856Y026333D01*
X022856Y026285D02*
X025344Y026285D01*
X025344Y026236D02*
X022856Y026236D01*
X022856Y026188D02*
X025344Y026188D01*
X025344Y026139D02*
X022856Y026139D01*
X022856Y026091D02*
X025344Y026091D01*
X025344Y026042D02*
X022856Y026042D01*
X022856Y025994D02*
X025344Y025994D01*
X025344Y025945D02*
X022856Y025945D01*
X022856Y025897D02*
X025344Y025897D01*
X025344Y025848D02*
X022856Y025848D01*
X022856Y025800D02*
X025344Y025800D01*
X025344Y025751D02*
X022856Y025751D01*
X022856Y025703D02*
X025344Y025703D01*
X025344Y025654D02*
X022856Y025654D01*
X022856Y025606D02*
X025344Y025606D01*
X025344Y025557D02*
X022856Y025557D01*
X022856Y025509D02*
X025344Y025509D01*
X025344Y025460D02*
X022856Y025460D01*
X022856Y025412D02*
X025344Y025412D01*
X025344Y025363D02*
X022856Y025363D01*
X022856Y025315D02*
X025344Y025315D01*
X025344Y025266D02*
X022856Y025266D01*
X022856Y025218D02*
X025344Y025218D01*
X025344Y025169D02*
X022856Y025169D01*
X022856Y025121D02*
X025344Y025121D01*
X025344Y025072D02*
X022856Y025072D01*
X022856Y025024D02*
X025344Y025024D01*
X025344Y024975D02*
X022856Y024975D01*
X022856Y024927D02*
X025344Y024927D01*
X024594Y030155D02*
X022106Y030155D01*
X022106Y031595D01*
X024594Y031595D01*
X024594Y030155D01*
X024594Y030165D02*
X022106Y030165D01*
X022106Y030213D02*
X024594Y030213D01*
X024594Y030262D02*
X022106Y030262D01*
X022106Y030310D02*
X024594Y030310D01*
X024594Y030359D02*
X022106Y030359D01*
X022106Y030407D02*
X024594Y030407D01*
X024594Y030456D02*
X022106Y030456D01*
X022106Y030504D02*
X024594Y030504D01*
X024594Y030553D02*
X022106Y030553D01*
X022106Y030601D02*
X024594Y030601D01*
X024594Y030650D02*
X022106Y030650D01*
X022106Y030698D02*
X024594Y030698D01*
X024594Y030747D02*
X022106Y030747D01*
X022106Y030795D02*
X024594Y030795D01*
X024594Y030844D02*
X022106Y030844D01*
X022106Y030892D02*
X024594Y030892D01*
X024594Y030941D02*
X022106Y030941D01*
X022106Y030989D02*
X024594Y030989D01*
X024594Y031038D02*
X022106Y031038D01*
X022106Y031086D02*
X024594Y031086D01*
X024594Y031135D02*
X022106Y031135D01*
X022106Y031183D02*
X024594Y031183D01*
X024594Y031232D02*
X022106Y031232D01*
X022106Y031280D02*
X024594Y031280D01*
X024594Y031329D02*
X022106Y031329D01*
X022106Y031377D02*
X024594Y031377D01*
X024594Y031426D02*
X022106Y031426D01*
X022106Y031474D02*
X024594Y031474D01*
X024594Y031523D02*
X022106Y031523D01*
X022106Y031571D02*
X024594Y031571D01*
D52*
X023350Y030875D03*
X024100Y025625D03*
D53*
X026216Y029296D03*
X026472Y029296D03*
X026728Y029296D03*
X026984Y029296D03*
X026984Y030954D03*
X026728Y030954D03*
X026472Y030954D03*
X026216Y030954D03*
D54*
X026600Y030125D03*
D55*
X019100Y052625D03*
X019100Y055223D03*
D56*
X012850Y054930D03*
X012850Y056820D03*
D57*
X015655Y056125D03*
X017545Y056125D03*
X017295Y053375D03*
X015405Y053375D03*
X014045Y052625D03*
X012155Y052625D03*
D58*
X005100Y049625D03*
X016350Y034625D03*
X016850Y034125D03*
X016350Y033625D03*
X016850Y033125D03*
X016350Y032625D03*
X016850Y032125D03*
X017350Y032625D03*
X017850Y032125D03*
X018350Y032625D03*
X017850Y033125D03*
X017350Y033625D03*
X017850Y034125D03*
X017350Y034625D03*
X018350Y034625D03*
X018350Y033625D03*
X019350Y032625D03*
X020350Y032625D03*
X021350Y032625D03*
X021350Y033125D03*
X021850Y032875D03*
X021850Y033375D03*
X021850Y033875D03*
X021350Y034125D03*
X022350Y034125D03*
X022350Y033625D03*
X022350Y033125D03*
X022850Y033375D03*
X022850Y033875D03*
X023350Y033625D03*
X023350Y033125D03*
X023850Y033375D03*
X023850Y033875D03*
X023350Y034125D03*
X024350Y034125D03*
X024350Y033625D03*
X024350Y033125D03*
X024350Y033125D03*
X025600Y030875D03*
X025600Y030375D03*
X025600Y029875D03*
X027350Y030875D03*
X027100Y031375D03*
X028600Y030625D03*
X028850Y031125D03*
X026100Y035125D03*
X026600Y036125D03*
X021850Y032375D03*
X032100Y036125D03*
X038350Y036875D03*
X040100Y034875D03*
X039100Y034125D03*
X042600Y033125D03*
X044475Y034125D03*
X046350Y032125D03*
X045100Y027375D03*
X052600Y031125D03*
X054600Y031625D03*
X053600Y034125D03*
X052600Y034125D03*
X054600Y036375D03*
X049100Y040625D03*
X045850Y039375D03*
X061100Y042375D03*
X064100Y042625D03*
X064600Y042125D03*
X065100Y042625D03*
X065350Y043375D03*
X064850Y044125D03*
X066100Y044625D03*
X066600Y045625D03*
X067100Y046375D03*
X068100Y047375D03*
X068100Y047875D03*
X068100Y048375D03*
X068100Y048875D03*
X068100Y049375D03*
X067600Y049750D03*
X068100Y050125D03*
X069350Y051375D03*
X069600Y051875D03*
X070100Y051625D03*
X070600Y051625D03*
X071100Y051625D03*
X071600Y051625D03*
X072100Y051625D03*
X071100Y049625D03*
X073850Y048125D03*
X067100Y053625D03*
X067100Y054125D03*
X068350Y054375D03*
X069100Y055625D03*
X069100Y056125D03*
X066850Y057125D03*
X066100Y052125D03*
X065100Y050125D03*
X064100Y048125D03*
X063100Y046375D03*
X062100Y044375D03*
X065350Y041375D03*
X065350Y040875D03*
X065850Y040375D03*
X064600Y040375D03*
X062350Y039375D03*
X061350Y035625D03*
X065100Y031625D03*
X066850Y032375D03*
X066475Y033375D03*
X067350Y033625D03*
X067850Y035125D03*
X067100Y035625D03*
X069100Y035625D03*
X069100Y034125D03*
X069100Y032625D03*
X063850Y030125D03*
X061850Y026625D03*
X066100Y026625D03*
X068100Y021625D03*
X054100Y023125D03*
X066850Y037875D03*
X067850Y040375D03*
X069100Y040125D03*
X070100Y038625D03*
X070600Y038625D03*
X071100Y038875D03*
X071600Y038375D03*
X072600Y055375D03*
X057600Y057125D03*
D59*
X000600Y043625D03*
D60*
X025600Y036625D03*
X030850Y035125D03*
X045850Y043125D03*
D61*
X038350Y037625D03*
X036850Y039125D03*
X042600Y036125D03*
X043475Y036000D03*
X044350Y035125D03*
X042850Y034375D03*
X045850Y037125D03*
X047350Y035625D03*
X049600Y035625D03*
X050100Y034625D03*
X050850Y034625D03*
X051600Y034625D03*
X053600Y031625D03*
X053600Y030625D03*
X052350Y030625D03*
X052600Y026625D03*
X046100Y021625D03*
X063350Y036375D03*
X066600Y029125D03*
X072100Y048625D03*
X073100Y055625D03*
X069100Y058125D03*
X059350Y058625D03*
X045600Y057125D03*
X044600Y059125D03*
X032100Y047625D03*
X031600Y047125D03*
X031100Y046625D03*
X030600Y046125D03*
X031100Y045625D03*
X030600Y045125D03*
X030100Y044625D03*
X029600Y044125D03*
X030100Y043625D03*
X030600Y044125D03*
X031100Y043625D03*
X031600Y044125D03*
X031100Y044625D03*
X031600Y045125D03*
X032100Y044625D03*
X032600Y044125D03*
X032100Y043625D03*
X032600Y045125D03*
X032100Y045625D03*
X032600Y046125D03*
X032100Y046625D03*
X031600Y046125D03*
X030600Y047125D03*
X030100Y046625D03*
X029600Y046125D03*
X030100Y045625D03*
X029600Y045125D03*
X029600Y047125D03*
X030100Y047625D03*
X031100Y047625D03*
X032600Y047125D03*
X028100Y048625D03*
X025600Y047125D03*
X025100Y046625D03*
X024600Y046125D03*
X024100Y046625D03*
X023600Y046125D03*
X024100Y045625D03*
X023600Y045125D03*
X023100Y044625D03*
X022600Y044125D03*
X023100Y043625D03*
X023600Y044125D03*
X024100Y043625D03*
X024600Y044125D03*
X024100Y044625D03*
X024600Y045125D03*
X025100Y044625D03*
X025600Y044125D03*
X025100Y043625D03*
X025600Y045125D03*
X025100Y045625D03*
X025600Y046125D03*
X024600Y047125D03*
X024100Y047625D03*
X023600Y047125D03*
X023100Y046625D03*
X022600Y046125D03*
X023100Y045625D03*
X022600Y045125D03*
X022600Y047125D03*
X023100Y047625D03*
X025100Y047625D03*
X028100Y040125D03*
X020600Y037625D03*
X020100Y037125D03*
X019850Y038875D03*
X019100Y038875D03*
X024850Y029125D03*
X027350Y029125D03*
X007100Y047875D03*
X009850Y049125D03*
X010850Y048875D03*
X003600Y049125D03*
X002850Y049125D03*
X002100Y049125D03*
X001350Y049125D03*
X001475Y047500D03*
D62*
X061850Y036125D03*
X069350Y041875D03*
X070850Y036625D03*
M02*
