G75*
%MOIN*%
%OFA0B0*%
%FSLAX24Y24*%
%IPPOS*%
%LPD*%
%AMOC8*
5,1,8,0,0,1.08239X$1,22.5*
%
%ADD10C,0.0594*%
%ADD11C,0.0740*%
%ADD12C,0.0591*%
%ADD13R,0.3543X0.2362*%
%ADD14C,0.0397*%
%ADD15C,0.7200*%
%ADD16C,0.2540*%
%ADD17R,0.0515X0.0515*%
%ADD18R,0.1500X0.1500*%
%ADD19R,0.0740X0.0740*%
%ADD20C,0.0600*%
%ADD21R,0.0236X0.0787*%
%ADD22C,0.0700*%
%ADD23R,0.0709X0.0630*%
%ADD24R,0.0554X0.0554*%
%ADD25OC8,0.0554*%
%ADD26C,0.0554*%
%ADD27C,0.0740*%
%ADD28R,0.0945X0.0945*%
%ADD29C,0.0357*%
%ADD30C,0.0100*%
%ADD31C,0.0160*%
%ADD32C,0.0240*%
%ADD33C,0.0531*%
%ADD34C,0.0320*%
%ADD35C,0.0120*%
%ADD36C,0.0650*%
%ADD37C,0.0500*%
%ADD38C,0.0396*%
%ADD39R,0.0396X0.0396*%
D10*
X046100Y055328D02*
X046100Y055922D01*
X047100Y055922D02*
X047100Y055328D01*
X048100Y055328D02*
X048100Y055922D01*
X049100Y055922D02*
X049100Y055328D01*
X050100Y055328D02*
X050100Y055922D01*
X051100Y055922D02*
X051100Y055328D01*
X052100Y055328D02*
X052100Y055922D01*
X053100Y055922D02*
X053100Y055328D01*
X054100Y055328D02*
X054100Y055922D01*
X054100Y058328D02*
X054100Y058922D01*
X053100Y058922D02*
X053100Y058328D01*
X052100Y058328D02*
X052100Y058922D01*
X051100Y058922D02*
X051100Y058328D01*
X050100Y058328D02*
X050100Y058922D01*
X049100Y058922D02*
X049100Y058328D01*
X048100Y058328D02*
X048100Y058922D01*
X047100Y058922D02*
X047100Y058328D01*
X046100Y058328D02*
X046100Y058922D01*
X071053Y035625D02*
X071647Y035625D01*
X071647Y034625D02*
X071053Y034625D01*
X071053Y032625D02*
X071647Y032625D01*
X071647Y031625D02*
X071053Y031625D01*
X070647Y029625D02*
X070053Y029625D01*
X070053Y028625D02*
X070647Y028625D01*
X070647Y027625D02*
X070053Y027625D01*
X070053Y026125D02*
X070647Y026125D01*
X070647Y025125D02*
X070053Y025125D01*
X070053Y024125D02*
X070647Y024125D01*
X073303Y024125D02*
X073897Y024125D01*
X073897Y025125D02*
X073303Y025125D01*
X073303Y026125D02*
X073897Y026125D01*
X073897Y027625D02*
X073303Y027625D01*
X073303Y028625D02*
X073897Y028625D01*
X073897Y029625D02*
X073303Y029625D01*
D11*
X074100Y032125D03*
X074100Y034625D03*
X074100Y037125D03*
X071350Y043625D03*
X071350Y044625D03*
X071350Y045625D03*
X070350Y045125D03*
X070350Y046125D03*
X070350Y044125D03*
X070350Y043125D03*
X058100Y051625D03*
X057100Y049625D03*
X056100Y047625D03*
X055100Y045625D03*
X054100Y043625D03*
X053100Y041625D03*
X048100Y043625D03*
X047100Y041625D03*
X043100Y038125D03*
X042100Y038125D03*
X041100Y038125D03*
X040100Y038125D03*
X039100Y038125D03*
X041600Y035625D03*
X043600Y034625D03*
X041600Y033625D03*
X049100Y045625D03*
X050100Y047625D03*
X051100Y049625D03*
X052100Y051625D03*
X053100Y053625D03*
X055100Y055625D03*
X059100Y053625D03*
X061100Y055625D03*
X019100Y051125D03*
X018100Y051125D03*
X017100Y051125D03*
X004350Y051125D03*
X004350Y050125D03*
X003350Y050125D03*
X003350Y051125D03*
X003350Y052125D03*
X003350Y053125D03*
X004350Y053125D03*
X004350Y052125D03*
X004350Y054125D03*
X004350Y055125D03*
X003350Y055125D03*
X003350Y054125D03*
X003350Y056125D03*
X003350Y057125D03*
X004350Y057125D03*
X004350Y056125D03*
X004350Y058125D03*
X003350Y058125D03*
X003350Y059125D03*
X004350Y059125D03*
D12*
X019348Y033625D03*
X020100Y033625D03*
X020852Y033625D03*
X034348Y033625D03*
X035100Y033625D03*
X035852Y033625D03*
D13*
X037069Y042050D03*
X033131Y042050D03*
X022069Y042050D03*
X018131Y042050D03*
D14*
X017868Y041263D03*
X017344Y041263D03*
X016872Y041420D03*
X016596Y041775D03*
X016596Y042326D03*
X016872Y042680D03*
X017344Y042838D03*
X017868Y042838D03*
X018395Y042838D03*
X018919Y042838D03*
X019391Y042680D03*
X019667Y042326D03*
X019667Y041775D03*
X019391Y041420D03*
X018919Y041263D03*
X018395Y041263D03*
X020533Y041775D03*
X020809Y041420D03*
X021281Y041263D03*
X021805Y041263D03*
X022332Y041263D03*
X022856Y041263D03*
X023328Y041420D03*
X023604Y041775D03*
X023604Y042326D03*
X023328Y042680D03*
X022856Y042838D03*
X022332Y042838D03*
X021805Y042838D03*
X021281Y042838D03*
X020809Y042680D03*
X020533Y042326D03*
X031596Y042326D03*
X031872Y042680D03*
X032344Y042838D03*
X032868Y042838D03*
X033395Y042838D03*
X033919Y042838D03*
X034391Y042680D03*
X034667Y042326D03*
X034667Y041775D03*
X034391Y041420D03*
X033919Y041263D03*
X033395Y041263D03*
X032868Y041263D03*
X032344Y041263D03*
X031872Y041420D03*
X031596Y041775D03*
X035533Y041775D03*
X035809Y041420D03*
X036281Y041263D03*
X036805Y041263D03*
X037332Y041263D03*
X037856Y041263D03*
X038328Y041420D03*
X038604Y041775D03*
X038604Y042326D03*
X038328Y042680D03*
X037856Y042838D03*
X037332Y042838D03*
X036805Y042838D03*
X036281Y042838D03*
X035809Y042680D03*
X035533Y042326D03*
D15*
X040100Y054625D03*
X027600Y054625D03*
X040850Y024125D03*
D16*
X012964Y024790D02*
X010424Y024790D01*
X005681Y033649D02*
X003141Y033649D01*
D17*
X004600Y040149D03*
X004600Y043101D03*
X012100Y043101D03*
X012100Y040149D03*
X017600Y045649D03*
X017600Y048601D03*
X031600Y031601D03*
X031600Y028649D03*
X038600Y029399D03*
X038600Y032351D03*
D18*
X019100Y026916D03*
X019100Y024771D03*
X019100Y022625D03*
D19*
X044100Y038125D03*
X071350Y042625D03*
X074100Y036125D03*
X074100Y033625D03*
X074100Y031125D03*
D20*
X019100Y058125D03*
X018100Y058125D03*
X017100Y058125D03*
X014600Y058125D03*
X013600Y058125D03*
X012600Y058125D03*
D21*
X009350Y048625D03*
X008850Y048625D03*
X008350Y048625D03*
X007850Y048625D03*
X007350Y048625D03*
X006850Y048625D03*
X006350Y048625D03*
X005850Y048625D03*
X005350Y048625D03*
X004850Y048625D03*
X004850Y044924D03*
X005350Y044924D03*
X005850Y044924D03*
X006350Y044924D03*
X006850Y044924D03*
X007350Y044924D03*
X007850Y044924D03*
X008350Y044924D03*
X008850Y044924D03*
X009350Y044924D03*
D22*
X008600Y050125D03*
X008600Y051125D03*
X008600Y052125D03*
X008600Y053125D03*
X008600Y054125D03*
X008600Y055125D03*
X008600Y056125D03*
X008600Y057125D03*
X008600Y058125D03*
X008600Y059125D03*
X005647Y059125D03*
X005647Y058125D03*
X005647Y057125D03*
X005647Y056125D03*
X005647Y055125D03*
X005647Y054125D03*
X005647Y053125D03*
X005647Y052125D03*
X005647Y051125D03*
X005647Y050125D03*
D23*
X002100Y046176D03*
X002100Y045074D03*
D24*
X047600Y034125D03*
X050600Y037125D03*
X050600Y038125D03*
X055600Y038125D03*
X055600Y037125D03*
X060600Y037125D03*
X060600Y038125D03*
X065600Y038125D03*
X065600Y037125D03*
X065600Y034125D03*
X065600Y021125D03*
X064600Y021125D03*
X048600Y021125D03*
X047600Y021125D03*
D25*
X047600Y037125D03*
X047600Y038125D03*
X048600Y038125D03*
X049600Y038125D03*
X049600Y037125D03*
X048600Y037125D03*
X051600Y037125D03*
X051600Y038125D03*
X052600Y038125D03*
X053600Y038125D03*
X054600Y038125D03*
X054600Y037125D03*
X053600Y037125D03*
X052600Y037125D03*
X056600Y037125D03*
X057600Y037125D03*
X058600Y037125D03*
X058600Y038125D03*
X057600Y038125D03*
X056600Y038125D03*
X059600Y038125D03*
X059600Y037125D03*
X061600Y037125D03*
X061600Y038125D03*
X062600Y038125D03*
X063600Y038125D03*
X064600Y038125D03*
X064600Y037125D03*
X063600Y037125D03*
X062600Y037125D03*
D26*
X065600Y033125D03*
X065600Y032125D03*
X065600Y030125D03*
X065600Y029125D03*
X064600Y029125D03*
X064600Y030125D03*
X064600Y028125D03*
X064600Y027125D03*
X065600Y027125D03*
X065600Y028125D03*
X065600Y026125D03*
X065600Y025125D03*
X064600Y025125D03*
X064600Y026125D03*
X064600Y024125D03*
X065600Y024125D03*
X065600Y023125D03*
X065600Y022125D03*
X064600Y022125D03*
X064600Y023125D03*
X048600Y023125D03*
X048600Y022125D03*
X047600Y022125D03*
X047600Y023125D03*
X047600Y024125D03*
X047600Y025125D03*
X047600Y026125D03*
X047600Y027125D03*
X047600Y028125D03*
X047600Y029125D03*
X047600Y030125D03*
X048600Y030125D03*
X048600Y029125D03*
X048600Y028125D03*
X048600Y027125D03*
X048600Y026125D03*
X048600Y025125D03*
X048600Y024125D03*
X047600Y032125D03*
X047600Y033125D03*
D27*
X047600Y039255D02*
X047600Y039995D01*
X046600Y039995D02*
X046600Y039255D01*
X048600Y039255D02*
X048600Y039995D01*
X049600Y039995D02*
X049600Y039255D01*
X050600Y039255D02*
X050600Y039995D01*
X051600Y039995D02*
X051600Y039255D01*
X052600Y039255D02*
X052600Y039995D01*
X053600Y039995D02*
X053600Y039255D01*
X054600Y039255D02*
X054600Y039995D01*
X055600Y039995D02*
X055600Y039255D01*
X056600Y039255D02*
X056600Y039995D01*
X057600Y039995D02*
X057600Y039255D01*
X058600Y039255D02*
X058600Y039995D01*
X059600Y039995D02*
X059600Y039255D01*
X060600Y039255D02*
X060600Y039995D01*
X061600Y039995D02*
X061600Y039255D01*
D28*
X034600Y025424D03*
X030600Y025424D03*
X030600Y021424D03*
X034600Y021424D03*
D29*
X045100Y027375D03*
X046350Y032125D03*
X044475Y034125D03*
X042600Y033125D03*
X040100Y034875D03*
X039100Y034125D03*
X038350Y036875D03*
X032100Y036125D03*
X026600Y036125D03*
X026100Y035125D03*
X024350Y034125D03*
X024350Y033625D03*
X024350Y033125D03*
X024350Y033125D03*
X023850Y033375D03*
X023850Y033875D03*
X023350Y034125D03*
X023350Y033625D03*
X023350Y033125D03*
X022850Y033375D03*
X022850Y033875D03*
X022350Y034125D03*
X022350Y033625D03*
X022350Y033125D03*
X021850Y032875D03*
X021850Y033375D03*
X021850Y033875D03*
X021350Y034125D03*
X021350Y033125D03*
X021350Y032625D03*
X021850Y032375D03*
X020350Y032625D03*
X019350Y032625D03*
X018350Y032625D03*
X017850Y033125D03*
X017350Y032625D03*
X017850Y032125D03*
X016850Y032125D03*
X016350Y032625D03*
X016850Y033125D03*
X016350Y033625D03*
X016850Y034125D03*
X017350Y033625D03*
X017850Y034125D03*
X017350Y034625D03*
X018350Y034625D03*
X018350Y033625D03*
X016350Y034625D03*
X025600Y030875D03*
X025600Y030375D03*
X025600Y029875D03*
X027350Y030875D03*
X027100Y031375D03*
X028600Y030625D03*
X028850Y031125D03*
X045850Y039375D03*
X049100Y040625D03*
X054600Y036375D03*
X053600Y034125D03*
X052600Y034125D03*
X054600Y031625D03*
X052600Y031125D03*
X061350Y035625D03*
X062350Y039375D03*
X064600Y040375D03*
X065350Y040875D03*
X065350Y041375D03*
X064600Y042125D03*
X064100Y042625D03*
X065100Y042625D03*
X065350Y043375D03*
X064850Y044125D03*
X066100Y044625D03*
X066600Y045625D03*
X067100Y046375D03*
X068100Y047375D03*
X068100Y047875D03*
X068100Y048375D03*
X068100Y048875D03*
X068100Y049375D03*
X067600Y049750D03*
X068100Y050125D03*
X069350Y051375D03*
X069600Y051875D03*
X070100Y051625D03*
X070600Y051625D03*
X071100Y051625D03*
X071600Y051625D03*
X072100Y051625D03*
X071100Y049625D03*
X073850Y048125D03*
X067100Y053625D03*
X067100Y054125D03*
X068350Y054375D03*
X069100Y055625D03*
X069100Y056125D03*
X066850Y057125D03*
X066100Y052125D03*
X065100Y050125D03*
X064100Y048125D03*
X063100Y046375D03*
X062100Y044375D03*
X061100Y042375D03*
X065850Y040375D03*
X067850Y040375D03*
X069100Y040125D03*
X070100Y038625D03*
X070600Y038625D03*
X071100Y038875D03*
X071600Y038375D03*
X069100Y035625D03*
X067850Y035125D03*
X067100Y035625D03*
X067350Y033625D03*
X066475Y033375D03*
X066850Y032375D03*
X065100Y031625D03*
X063850Y030125D03*
X061850Y026625D03*
X066100Y026625D03*
X068100Y021625D03*
X069100Y032625D03*
X069100Y034125D03*
X066850Y037875D03*
X054100Y023125D03*
X072600Y055375D03*
X057600Y057125D03*
X005100Y049625D03*
D30*
X008850Y048625D02*
X008850Y048125D01*
X010850Y046125D01*
X011100Y046125D01*
X014100Y043125D01*
X014100Y041625D01*
X016850Y038875D01*
X019100Y038875D01*
X019350Y039375D02*
X016850Y039375D01*
X014600Y041625D01*
X014600Y043125D01*
X009850Y047875D01*
X009850Y049125D01*
X009350Y049375D02*
X009350Y048625D01*
X009350Y049375D02*
X009600Y049625D01*
X010100Y049625D01*
X010850Y048875D01*
X010850Y047375D01*
X015100Y043125D01*
X015100Y041625D01*
X017100Y039625D01*
X019600Y039625D01*
X020600Y038625D01*
X036100Y038625D01*
X036600Y039125D01*
X036850Y039125D01*
X036850Y038375D02*
X016850Y038375D01*
X013600Y041625D01*
X013600Y043125D01*
X011100Y045625D01*
X009100Y045625D01*
X008850Y045375D01*
X008850Y044924D01*
X005600Y044125D02*
X005350Y044375D01*
X005350Y044924D01*
X005600Y044125D02*
X012100Y044125D01*
X013100Y043125D01*
X013100Y041625D01*
X016600Y038125D01*
X037100Y038125D01*
X038350Y039375D01*
X045100Y039375D01*
X046850Y037625D01*
X051100Y037625D01*
X051600Y038125D01*
X052100Y038625D02*
X046100Y038625D01*
X045100Y039625D01*
X038100Y039625D01*
X036850Y038375D01*
X037350Y037875D02*
X020850Y037875D01*
X020600Y037625D01*
X021100Y037125D02*
X020100Y037125D01*
X021100Y037125D02*
X021600Y037625D01*
X037600Y037625D01*
X038850Y038875D01*
X045100Y038875D01*
X046350Y037625D01*
X046350Y037125D01*
X047100Y036375D01*
X051850Y036375D01*
X052600Y037125D01*
X052600Y038125D02*
X052100Y038625D01*
X052600Y039625D02*
X053100Y039125D01*
X053100Y029625D01*
X058600Y024125D01*
X064600Y024125D01*
X065100Y024625D02*
X059600Y024625D01*
X054100Y030125D01*
X054100Y039125D01*
X053600Y039625D01*
X054600Y039625D02*
X055100Y039125D01*
X055100Y030625D01*
X060600Y025125D01*
X064600Y025125D01*
X065100Y024625D02*
X065600Y025125D01*
X065100Y025625D02*
X061600Y025625D01*
X056100Y031125D01*
X056100Y039125D01*
X055600Y039625D01*
X056600Y039625D02*
X057100Y039125D01*
X057100Y030625D01*
X061600Y026125D01*
X064600Y026125D01*
X065100Y025625D02*
X065600Y026125D01*
X066100Y026625D02*
X061850Y026625D01*
X063100Y027125D02*
X058100Y032125D01*
X058100Y039125D01*
X057600Y039625D01*
X058600Y039625D02*
X059100Y039125D01*
X059100Y032625D01*
X064100Y027625D01*
X065100Y027625D01*
X065600Y028125D01*
X064600Y028125D02*
X064100Y028125D01*
X060100Y032125D01*
X060100Y039125D01*
X059600Y039625D01*
X062100Y039125D02*
X062350Y039375D01*
X062100Y039125D02*
X062100Y036375D01*
X061850Y036125D01*
X061350Y035625D02*
X063100Y035625D01*
X064100Y036625D01*
X064100Y038625D01*
X065100Y039625D01*
X065100Y040625D01*
X065350Y040875D01*
X065350Y040375D02*
X065350Y038875D01*
X065100Y038625D01*
X065100Y031625D01*
X065100Y029625D01*
X065600Y029125D01*
X065600Y030125D02*
X066100Y030625D01*
X066100Y040625D01*
X065850Y040375D01*
X066100Y040625D02*
X066100Y042625D01*
X065350Y043375D01*
X065600Y042625D02*
X065850Y042375D01*
X065850Y040875D01*
X065350Y040375D01*
X064600Y040375D02*
X064350Y040375D01*
X064100Y040625D01*
X064100Y042625D01*
X064100Y043375D01*
X064850Y044125D01*
X066100Y044625D02*
X066350Y044375D01*
X066350Y034625D01*
X067350Y033625D01*
X068600Y033125D02*
X069100Y032625D01*
X069100Y032125D02*
X067100Y032125D01*
X066850Y032375D01*
X068600Y033125D02*
X068600Y036625D01*
X066600Y038625D01*
X066600Y045625D01*
X067100Y045125D02*
X066850Y044875D01*
X066850Y038875D01*
X069100Y036625D01*
X069100Y035625D01*
X070100Y036125D02*
X070100Y032625D01*
X066600Y029125D01*
X067100Y028625D02*
X064350Y028625D01*
X063850Y029125D01*
X063850Y030125D01*
X064600Y027125D02*
X063100Y027125D01*
X065600Y024125D02*
X068600Y027125D01*
X071100Y027125D01*
X073600Y029625D01*
X074100Y030125D02*
X071600Y030125D01*
X070350Y031375D01*
X070350Y036375D01*
X067350Y039375D01*
X067350Y044375D01*
X072850Y049875D01*
X072850Y054875D01*
X072600Y055125D01*
X072600Y055375D01*
X073100Y055625D02*
X073100Y049625D01*
X072100Y048625D01*
X072600Y050125D02*
X067100Y044625D01*
X067100Y039125D01*
X070100Y036125D01*
X069100Y034125D02*
X069600Y033625D01*
X069600Y032625D01*
X069100Y032125D01*
X068100Y029625D02*
X067100Y028625D01*
X068100Y029625D02*
X070350Y029625D01*
X068850Y026625D02*
X073850Y026625D01*
X074350Y027125D01*
X074350Y029875D01*
X074100Y030125D01*
X073600Y026125D02*
X070100Y022625D01*
X048100Y022625D01*
X047600Y023125D01*
X048600Y024125D02*
X058100Y024125D01*
X058600Y023625D01*
X066100Y023625D01*
X068850Y026625D01*
X068850Y026125D02*
X066100Y023125D01*
X065600Y023125D01*
X068850Y026125D02*
X070350Y026125D01*
X070600Y038625D02*
X069100Y040125D01*
X069100Y040875D02*
X068100Y040875D01*
X067850Y040625D01*
X067850Y040375D01*
X069100Y040875D02*
X071100Y038875D01*
X065350Y041375D02*
X064600Y042125D01*
X065100Y042625D02*
X065600Y042625D01*
X067100Y045125D02*
X067100Y046375D01*
X068100Y047375D02*
X072100Y051375D01*
X072100Y051625D01*
X071600Y051625D02*
X071600Y051375D01*
X068100Y047875D01*
X068100Y048375D02*
X071100Y051375D01*
X071100Y051625D01*
X070600Y051625D02*
X070600Y051375D01*
X068100Y048875D01*
X068100Y049375D02*
X070100Y051375D01*
X070100Y051625D01*
X069600Y051875D02*
X068350Y053125D01*
X068350Y054375D01*
X067600Y054625D02*
X068100Y055125D01*
X068600Y055125D01*
X069100Y055625D01*
X067600Y054625D02*
X067600Y053125D01*
X069350Y051375D01*
X068100Y050125D02*
X067100Y051125D01*
X067100Y053625D01*
X067600Y050125D02*
X067600Y049750D01*
X072600Y050125D02*
X072600Y054625D01*
X069600Y057625D01*
X058100Y057625D01*
X057600Y057125D01*
X071100Y045625D02*
X071350Y045625D01*
X054600Y036375D02*
X054600Y031625D01*
X052600Y031125D02*
X052600Y034125D01*
X051600Y034625D02*
X051600Y033125D01*
X048600Y030125D01*
X047600Y030125D02*
X050850Y033375D01*
X050850Y034625D01*
X050100Y034625D02*
X050100Y033625D01*
X051100Y036625D02*
X047100Y036625D01*
X046600Y037125D01*
X046600Y037625D01*
X045100Y039125D01*
X038600Y039125D01*
X037350Y037875D01*
X038350Y037625D02*
X039100Y036875D01*
X043350Y036875D01*
X045350Y034875D01*
X045350Y027875D01*
X045600Y027625D01*
X045600Y027125D01*
X047100Y025625D01*
X048100Y025625D01*
X048600Y025125D01*
X048100Y026625D02*
X047100Y026625D01*
X045600Y028125D01*
X045600Y035125D01*
X043600Y037125D01*
X040100Y037125D01*
X039100Y038125D01*
X040100Y034875D02*
X040100Y033625D01*
X040850Y032875D01*
X041850Y032875D01*
X042600Y033625D01*
X043100Y033625D01*
X045100Y031625D01*
X045100Y027375D01*
X045850Y028875D02*
X045850Y036375D01*
X044100Y038125D01*
X042600Y036125D02*
X042600Y034625D01*
X042850Y034375D01*
X045850Y028875D02*
X047600Y027125D01*
X048100Y026625D02*
X048600Y027125D01*
X051100Y036625D02*
X051600Y037125D01*
X019850Y038875D02*
X019350Y039375D01*
D31*
X015100Y029625D02*
X015100Y020255D01*
X045100Y020255D01*
X045100Y025813D01*
X043009Y027904D01*
X042879Y028034D01*
X042879Y031534D01*
X042009Y032404D01*
X040633Y032404D01*
X041191Y031846D01*
X041321Y031716D01*
X041321Y030034D01*
X039691Y028404D01*
X038627Y028404D01*
X038539Y028402D01*
X038536Y028404D01*
X038532Y028404D01*
X038470Y028467D01*
X038406Y028527D01*
X038406Y028531D01*
X038403Y028534D01*
X038403Y028622D01*
X038392Y028980D01*
X038276Y028980D01*
X038182Y029075D01*
X038182Y029723D01*
X038276Y029817D01*
X038924Y029817D01*
X039018Y029723D01*
X039018Y029075D01*
X038924Y028980D01*
X038834Y028980D01*
X038838Y028846D01*
X039509Y028846D01*
X040879Y030216D01*
X040879Y031534D01*
X038879Y033534D01*
X038879Y033866D01*
X038812Y033933D01*
X038761Y034058D01*
X038761Y034192D01*
X038812Y034317D01*
X038908Y034413D01*
X039033Y034464D01*
X039167Y034464D01*
X039292Y034413D01*
X039379Y034325D01*
X039379Y034625D01*
X019600Y034625D01*
X010600Y043625D01*
X000600Y043625D01*
X000600Y035625D01*
X006497Y035625D01*
X006473Y035645D01*
X006473Y035647D01*
X006470Y035648D01*
X006454Y035677D01*
X006433Y035703D01*
X006434Y035706D01*
X006431Y035707D01*
X006422Y035739D01*
X006406Y035768D01*
X006407Y035771D01*
X006405Y035773D01*
X006401Y035806D01*
X006392Y035837D01*
X006395Y035844D01*
X006395Y035870D01*
X006391Y035908D01*
X006395Y035913D01*
X006395Y036337D01*
X006391Y036342D01*
X006395Y036380D01*
X006395Y036406D01*
X006392Y036413D01*
X006401Y036444D01*
X006405Y036477D01*
X006407Y036479D01*
X006406Y036482D01*
X006422Y036511D01*
X006431Y036543D01*
X006434Y036544D01*
X006433Y036547D01*
X006454Y036573D01*
X006470Y036602D01*
X006473Y036603D01*
X006473Y036605D01*
X006499Y036626D01*
X006520Y036652D01*
X006522Y036652D01*
X006523Y036655D01*
X006552Y036671D01*
X006578Y036692D01*
X006581Y036691D01*
X006582Y036694D01*
X006614Y036703D01*
X006643Y036719D01*
X006646Y036718D01*
X006648Y036720D01*
X006681Y036724D01*
X006712Y036733D01*
X006719Y036730D01*
X006745Y036730D01*
X006783Y036734D01*
X006788Y036730D01*
X009412Y036730D01*
X009417Y036734D01*
X009455Y036730D01*
X009481Y036730D01*
X009488Y036733D01*
X009519Y036724D01*
X009552Y036720D01*
X009554Y036718D01*
X009557Y036719D01*
X009586Y036703D01*
X009618Y036694D01*
X009619Y036691D01*
X009622Y036692D01*
X009648Y036671D01*
X009677Y036655D01*
X009678Y036652D01*
X009680Y036652D01*
X009701Y036626D01*
X009727Y036605D01*
X009727Y036603D01*
X009730Y036602D01*
X009746Y036573D01*
X009767Y036547D01*
X009766Y036544D01*
X009769Y036543D01*
X009778Y036511D01*
X009794Y036482D01*
X009793Y036479D01*
X009795Y036477D01*
X009799Y036444D01*
X009808Y036413D01*
X009805Y036406D01*
X009805Y036380D01*
X009809Y036342D01*
X009805Y036337D01*
X009805Y035913D01*
X009809Y035908D01*
X009805Y035870D01*
X009805Y035844D01*
X009808Y035837D01*
X009799Y035806D01*
X009795Y035773D01*
X009793Y035771D01*
X009794Y035768D01*
X009778Y035739D01*
X009769Y035707D01*
X009766Y035706D01*
X009767Y035703D01*
X009746Y035677D01*
X009730Y035648D01*
X009727Y035647D01*
X009727Y035645D01*
X009701Y035624D01*
X009680Y035598D01*
X009678Y035598D01*
X009677Y035595D01*
X009648Y035579D01*
X009622Y035558D01*
X009619Y035559D01*
X009618Y035556D01*
X009586Y035547D01*
X009557Y035531D01*
X009554Y035532D01*
X009552Y035530D01*
X009519Y035526D01*
X009488Y035517D01*
X009481Y035520D01*
X009455Y035520D01*
X009417Y035516D01*
X009412Y035520D01*
X008705Y035520D01*
X010100Y034125D01*
X015100Y029625D01*
X015089Y029635D02*
X038182Y029635D01*
X038182Y029477D02*
X027439Y029477D01*
X027421Y029484D02*
X027279Y029484D01*
X027147Y029429D01*
X027083Y029366D01*
X025117Y029366D01*
X025053Y029429D01*
X024921Y029484D01*
X024779Y029484D01*
X024647Y029429D01*
X024546Y029328D01*
X024491Y029196D01*
X024491Y029054D01*
X024546Y028922D01*
X024647Y028821D01*
X024779Y028766D01*
X024921Y028766D01*
X025053Y028821D01*
X025117Y028884D01*
X027083Y028884D01*
X027147Y028821D01*
X027279Y028766D01*
X027421Y028766D01*
X027553Y028821D01*
X027654Y028922D01*
X027709Y029054D01*
X027709Y029196D01*
X027654Y029328D01*
X027553Y029429D01*
X027421Y029484D01*
X027261Y029477D02*
X024939Y029477D01*
X024761Y029477D02*
X015100Y029477D01*
X015100Y029318D02*
X024542Y029318D01*
X024491Y029160D02*
X015100Y029160D01*
X015100Y029001D02*
X024513Y029001D01*
X024625Y028843D02*
X015100Y028843D01*
X015100Y028684D02*
X031182Y028684D01*
X031182Y028526D02*
X015100Y028526D01*
X015100Y028367D02*
X031182Y028367D01*
X031182Y028325D02*
X031276Y028230D01*
X031924Y028230D01*
X032018Y028325D01*
X032018Y028973D01*
X031924Y029067D01*
X031276Y029067D01*
X031182Y028973D01*
X031182Y028325D01*
X031182Y028843D02*
X027575Y028843D01*
X027687Y029001D02*
X031210Y029001D01*
X031990Y029001D02*
X038255Y029001D01*
X038182Y029160D02*
X027709Y029160D01*
X027658Y029318D02*
X038182Y029318D01*
X038253Y029794D02*
X014913Y029794D01*
X014737Y029952D02*
X040615Y029952D01*
X040773Y030111D02*
X014561Y030111D01*
X014384Y030269D02*
X040879Y030269D01*
X040879Y030428D02*
X028882Y030428D01*
X028888Y030433D02*
X028939Y030558D01*
X028939Y030692D01*
X028900Y030786D01*
X028917Y030786D01*
X029042Y030837D01*
X029138Y030933D01*
X029189Y031058D01*
X029189Y031192D01*
X029138Y031317D01*
X029042Y031413D01*
X028917Y031464D01*
X028783Y031464D01*
X028658Y031413D01*
X028591Y031346D01*
X027691Y031346D01*
X027441Y031596D01*
X027359Y031596D01*
X027292Y031663D01*
X027167Y031714D01*
X027033Y031714D01*
X026908Y031663D01*
X026812Y031567D01*
X026761Y031442D01*
X026761Y031308D01*
X026812Y031183D01*
X026908Y031087D01*
X027033Y031036D01*
X027050Y031036D01*
X027011Y030942D01*
X027011Y030808D01*
X027062Y030683D01*
X027158Y030587D01*
X027283Y030536D01*
X027417Y030536D01*
X027542Y030587D01*
X027609Y030654D01*
X028259Y030654D01*
X028261Y030652D01*
X028261Y030558D01*
X028312Y030433D01*
X028408Y030337D01*
X028533Y030286D01*
X028667Y030286D01*
X028792Y030337D01*
X028888Y030433D01*
X028939Y030586D02*
X040879Y030586D01*
X040879Y030745D02*
X028918Y030745D01*
X029108Y030903D02*
X040879Y030903D01*
X040879Y031062D02*
X029189Y031062D01*
X029178Y031220D02*
X040879Y031220D01*
X040879Y031379D02*
X029076Y031379D01*
X028624Y031379D02*
X027659Y031379D01*
X027500Y031537D02*
X040876Y031537D01*
X040717Y031696D02*
X027212Y031696D01*
X026988Y031696D02*
X012799Y031696D01*
X012623Y031854D02*
X040559Y031854D01*
X040400Y032013D02*
X012447Y032013D01*
X012271Y032171D02*
X040242Y032171D01*
X040083Y032330D02*
X012095Y032330D01*
X011919Y032488D02*
X039925Y032488D01*
X039766Y032647D02*
X011743Y032647D01*
X011567Y032805D02*
X039608Y032805D01*
X039449Y032964D02*
X011391Y032964D01*
X011214Y033122D02*
X039291Y033122D01*
X039132Y033281D02*
X036152Y033281D01*
X036110Y033238D02*
X036239Y033367D01*
X036308Y033534D01*
X036308Y033716D01*
X036239Y033883D01*
X036110Y034012D01*
X035943Y034081D01*
X035761Y034081D01*
X035594Y034012D01*
X035465Y033883D01*
X035396Y033716D01*
X035396Y033534D01*
X035465Y033367D01*
X035594Y033238D01*
X035761Y033169D01*
X035943Y033169D01*
X036110Y033238D01*
X036268Y033439D02*
X038974Y033439D01*
X038879Y033598D02*
X036308Y033598D01*
X036291Y033756D02*
X038879Y033756D01*
X038831Y033915D02*
X036207Y033915D01*
X035962Y034073D02*
X038761Y034073D01*
X038777Y034232D02*
X009993Y034232D01*
X009835Y034390D02*
X038885Y034390D01*
X039315Y034390D02*
X039379Y034390D01*
X039379Y034549D02*
X009676Y034549D01*
X009518Y034707D02*
X019518Y034707D01*
X019359Y034866D02*
X009359Y034866D01*
X009201Y035024D02*
X019201Y035024D01*
X019042Y035183D02*
X009042Y035183D01*
X008884Y035341D02*
X018884Y035341D01*
X018725Y035500D02*
X008725Y035500D01*
X009735Y035658D02*
X018567Y035658D01*
X018408Y035817D02*
X009802Y035817D01*
X009805Y035975D02*
X018250Y035975D01*
X018091Y036134D02*
X009805Y036134D01*
X009805Y036292D02*
X017933Y036292D01*
X017774Y036451D02*
X009798Y036451D01*
X009723Y036609D02*
X017616Y036609D01*
X017457Y036768D02*
X000600Y036768D01*
X000600Y036926D02*
X017299Y036926D01*
X017140Y037085D02*
X000600Y037085D01*
X000600Y037243D02*
X016982Y037243D01*
X016823Y037402D02*
X000600Y037402D01*
X000600Y037560D02*
X016665Y037560D01*
X016506Y037719D02*
X000600Y037719D01*
X000600Y037877D02*
X016348Y037877D01*
X016189Y038036D02*
X000600Y038036D01*
X000600Y038194D02*
X016031Y038194D01*
X015872Y038353D02*
X000600Y038353D01*
X000600Y038511D02*
X015714Y038511D01*
X015555Y038670D02*
X000600Y038670D01*
X000600Y038828D02*
X015397Y038828D01*
X015238Y038987D02*
X000600Y038987D01*
X000600Y039145D02*
X015080Y039145D01*
X014921Y039304D02*
X000600Y039304D01*
X000600Y039462D02*
X014763Y039462D01*
X014604Y039621D02*
X000600Y039621D01*
X000600Y039779D02*
X014446Y039779D01*
X014287Y039938D02*
X000600Y039938D01*
X000600Y040096D02*
X014129Y040096D01*
X013970Y040255D02*
X000600Y040255D01*
X000600Y040413D02*
X013812Y040413D01*
X013653Y040572D02*
X000600Y040572D01*
X000600Y040730D02*
X013495Y040730D01*
X013336Y040889D02*
X000600Y040889D01*
X000600Y041047D02*
X013178Y041047D01*
X013019Y041206D02*
X000600Y041206D01*
X000600Y041364D02*
X012861Y041364D01*
X012702Y041523D02*
X000600Y041523D01*
X000600Y041681D02*
X012544Y041681D01*
X012385Y041840D02*
X000600Y041840D01*
X000600Y041998D02*
X012227Y041998D01*
X012068Y042157D02*
X000600Y042157D01*
X000600Y042315D02*
X011910Y042315D01*
X011751Y042474D02*
X000600Y042474D01*
X000600Y042632D02*
X011593Y042632D01*
X011434Y042791D02*
X005018Y042791D01*
X005018Y042777D02*
X004924Y042683D01*
X004276Y042683D01*
X004182Y042777D01*
X004182Y043425D01*
X004276Y043520D01*
X004924Y043520D01*
X005018Y043425D01*
X005018Y042777D01*
X005018Y042949D02*
X011276Y042949D01*
X011117Y043108D02*
X005018Y043108D01*
X005018Y043266D02*
X010959Y043266D01*
X010800Y043425D02*
X005018Y043425D01*
X004182Y043425D02*
X000600Y043425D01*
X000600Y043583D02*
X010642Y043583D01*
X008350Y045875D02*
X007100Y047125D01*
X005100Y047125D01*
X005350Y047375D02*
X007600Y047375D01*
X008350Y048125D01*
X008350Y048625D01*
X007100Y047875D02*
X006850Y047625D01*
X005600Y047625D01*
X005350Y047875D01*
X005350Y048625D01*
X004350Y048375D02*
X004350Y049375D01*
X005100Y050125D01*
X005100Y054625D01*
X004350Y048375D02*
X005350Y047375D01*
X004182Y043266D02*
X000600Y043266D01*
X000600Y043108D02*
X004182Y043108D01*
X004182Y042949D02*
X000600Y042949D01*
X000600Y042791D02*
X004182Y042791D01*
X006477Y036609D02*
X000600Y036609D01*
X000600Y036451D02*
X006402Y036451D01*
X006395Y036292D02*
X000600Y036292D01*
X000600Y036134D02*
X006395Y036134D01*
X006395Y035975D02*
X000600Y035975D01*
X000600Y035817D02*
X006398Y035817D01*
X006465Y035658D02*
X000600Y035658D01*
X010158Y034073D02*
X019238Y034073D01*
X019257Y034081D02*
X019090Y034012D01*
X018961Y033883D01*
X018892Y033716D01*
X018892Y033534D01*
X018961Y033367D01*
X019090Y033238D01*
X019257Y033169D01*
X019439Y033169D01*
X019606Y033238D01*
X019735Y033367D01*
X019804Y033534D01*
X019804Y033716D01*
X019735Y033883D01*
X019606Y034012D01*
X019439Y034081D01*
X019257Y034081D01*
X019458Y034073D02*
X020742Y034073D01*
X020761Y034081D02*
X020594Y034012D01*
X020465Y033883D01*
X020396Y033716D01*
X020396Y033534D01*
X020465Y033367D01*
X020594Y033238D01*
X020761Y033169D01*
X020943Y033169D01*
X021110Y033238D01*
X021239Y033367D01*
X021308Y033534D01*
X021308Y033716D01*
X021239Y033883D01*
X021110Y034012D01*
X020943Y034081D01*
X020761Y034081D01*
X020962Y034073D02*
X034238Y034073D01*
X034257Y034081D02*
X034090Y034012D01*
X033961Y033883D01*
X033892Y033716D01*
X033892Y033534D01*
X033961Y033367D01*
X034090Y033238D01*
X034257Y033169D01*
X034439Y033169D01*
X034606Y033238D01*
X034735Y033367D01*
X034804Y033534D01*
X034804Y033716D01*
X034735Y033883D01*
X034606Y034012D01*
X034439Y034081D01*
X034257Y034081D01*
X034458Y034073D02*
X035742Y034073D01*
X035497Y033915D02*
X034703Y033915D01*
X034787Y033756D02*
X035413Y033756D01*
X035396Y033598D02*
X034804Y033598D01*
X034765Y033439D02*
X035435Y033439D01*
X035552Y033281D02*
X034648Y033281D01*
X034048Y033281D02*
X021152Y033281D01*
X021268Y033439D02*
X033932Y033439D01*
X033892Y033598D02*
X021308Y033598D01*
X021291Y033756D02*
X033909Y033756D01*
X033993Y033915D02*
X021207Y033915D01*
X020497Y033915D02*
X019703Y033915D01*
X019787Y033756D02*
X020413Y033756D01*
X020396Y033598D02*
X019804Y033598D01*
X019765Y033439D02*
X020435Y033439D01*
X020552Y033281D02*
X019648Y033281D01*
X019048Y033281D02*
X011038Y033281D01*
X010862Y033439D02*
X018932Y033439D01*
X018892Y033598D02*
X010686Y033598D01*
X010510Y033756D02*
X018909Y033756D01*
X018993Y033915D02*
X010334Y033915D01*
X012976Y031537D02*
X026800Y031537D01*
X026761Y031379D02*
X013152Y031379D01*
X013328Y031220D02*
X026797Y031220D01*
X026971Y031062D02*
X013504Y031062D01*
X013680Y030903D02*
X027011Y030903D01*
X027037Y030745D02*
X013856Y030745D01*
X014032Y030586D02*
X027161Y030586D01*
X027539Y030586D02*
X028261Y030586D01*
X028318Y030428D02*
X014208Y030428D01*
X015100Y028209D02*
X042879Y028209D01*
X042879Y028367D02*
X032018Y028367D01*
X032018Y028526D02*
X038407Y028526D01*
X038401Y028684D02*
X032018Y028684D01*
X032018Y028843D02*
X038396Y028843D01*
X038945Y029001D02*
X039664Y029001D01*
X039822Y029160D02*
X039018Y029160D01*
X039018Y029318D02*
X039981Y029318D01*
X040139Y029477D02*
X039018Y029477D01*
X039018Y029635D02*
X040298Y029635D01*
X040456Y029794D02*
X038947Y029794D01*
X039971Y028684D02*
X042879Y028684D01*
X042879Y028526D02*
X039813Y028526D01*
X040130Y028843D02*
X042879Y028843D01*
X042879Y029001D02*
X040288Y029001D01*
X040447Y029160D02*
X042879Y029160D01*
X042879Y029318D02*
X040605Y029318D01*
X040764Y029477D02*
X042879Y029477D01*
X042879Y029635D02*
X040922Y029635D01*
X041081Y029794D02*
X042879Y029794D01*
X042879Y029952D02*
X041239Y029952D01*
X041321Y030111D02*
X042879Y030111D01*
X042879Y030269D02*
X041321Y030269D01*
X041321Y030428D02*
X042879Y030428D01*
X042879Y030586D02*
X041321Y030586D01*
X041321Y030745D02*
X042879Y030745D01*
X042879Y030903D02*
X041321Y030903D01*
X041321Y031062D02*
X042879Y031062D01*
X042879Y031220D02*
X041321Y031220D01*
X041321Y031379D02*
X042879Y031379D01*
X042876Y031537D02*
X041321Y031537D01*
X041321Y031696D02*
X042717Y031696D01*
X042559Y031854D02*
X041183Y031854D01*
X041025Y032013D02*
X042400Y032013D01*
X042242Y032171D02*
X040866Y032171D01*
X040708Y032330D02*
X042083Y032330D01*
X044350Y035125D02*
X043475Y036000D01*
X042879Y028050D02*
X015100Y028050D01*
X015100Y027892D02*
X043021Y027892D01*
X043180Y027733D02*
X015100Y027733D01*
X015100Y027575D02*
X043338Y027575D01*
X043497Y027416D02*
X015100Y027416D01*
X015100Y027258D02*
X043655Y027258D01*
X043814Y027099D02*
X015100Y027099D01*
X015100Y026941D02*
X043972Y026941D01*
X044131Y026782D02*
X015100Y026782D01*
X015100Y026624D02*
X044289Y026624D01*
X044448Y026465D02*
X015100Y026465D01*
X015100Y026307D02*
X044606Y026307D01*
X044765Y026148D02*
X015100Y026148D01*
X015100Y025990D02*
X029993Y025990D01*
X029967Y025963D02*
X029967Y024885D01*
X030061Y024791D01*
X031139Y024791D01*
X031233Y024885D01*
X031233Y025963D01*
X031139Y026057D01*
X030061Y026057D01*
X029967Y025963D01*
X029967Y025831D02*
X015100Y025831D01*
X015100Y025673D02*
X018275Y025673D01*
X018283Y025681D02*
X018189Y025587D01*
X018189Y023954D01*
X018283Y023860D01*
X019917Y023860D01*
X020011Y023954D01*
X020011Y025587D01*
X019917Y025681D01*
X018283Y025681D01*
X018189Y025514D02*
X015100Y025514D01*
X015100Y025356D02*
X018189Y025356D01*
X018189Y025197D02*
X015100Y025197D01*
X015100Y025039D02*
X018189Y025039D01*
X018189Y024880D02*
X015100Y024880D01*
X015100Y024722D02*
X018189Y024722D01*
X018189Y024563D02*
X015100Y024563D01*
X015100Y024405D02*
X018189Y024405D01*
X018189Y024246D02*
X015100Y024246D01*
X015100Y024088D02*
X018189Y024088D01*
X018214Y023929D02*
X015100Y023929D01*
X015100Y023771D02*
X045100Y023771D01*
X045100Y023929D02*
X019986Y023929D01*
X020011Y024088D02*
X045100Y024088D01*
X045100Y024246D02*
X020011Y024246D01*
X020011Y024405D02*
X045100Y024405D01*
X045100Y024563D02*
X020011Y024563D01*
X020011Y024722D02*
X045100Y024722D01*
X045100Y024880D02*
X031228Y024880D01*
X031233Y025039D02*
X045100Y025039D01*
X045100Y025197D02*
X031233Y025197D01*
X031233Y025356D02*
X045100Y025356D01*
X045100Y025514D02*
X031233Y025514D01*
X031233Y025673D02*
X045100Y025673D01*
X045082Y025831D02*
X031233Y025831D01*
X031207Y025990D02*
X044923Y025990D01*
X045100Y023612D02*
X015100Y023612D01*
X015100Y023454D02*
X045100Y023454D01*
X045100Y023295D02*
X015100Y023295D01*
X015100Y023137D02*
X045100Y023137D01*
X045100Y022978D02*
X015100Y022978D01*
X015100Y022820D02*
X045100Y022820D01*
X045100Y022661D02*
X015100Y022661D01*
X015100Y022503D02*
X045100Y022503D01*
X045100Y022344D02*
X015100Y022344D01*
X015100Y022186D02*
X045100Y022186D01*
X045100Y022027D02*
X031169Y022027D01*
X031139Y022057D02*
X030061Y022057D01*
X029967Y021963D01*
X029967Y020885D01*
X030061Y020791D01*
X031139Y020791D01*
X031233Y020885D01*
X031233Y021963D01*
X031139Y022057D01*
X031233Y021869D02*
X045100Y021869D01*
X045100Y021710D02*
X031233Y021710D01*
X031233Y021552D02*
X045100Y021552D01*
X045100Y021393D02*
X031233Y021393D01*
X031233Y021235D02*
X045100Y021235D01*
X045100Y021076D02*
X031233Y021076D01*
X031233Y020918D02*
X045100Y020918D01*
X045100Y020759D02*
X015100Y020759D01*
X015100Y020601D02*
X045100Y020601D01*
X045100Y020442D02*
X015100Y020442D01*
X015100Y020284D02*
X045100Y020284D01*
X029967Y020918D02*
X015100Y020918D01*
X015100Y021076D02*
X029967Y021076D01*
X029967Y021235D02*
X015100Y021235D01*
X015100Y021393D02*
X029967Y021393D01*
X029967Y021552D02*
X015100Y021552D01*
X015100Y021710D02*
X029967Y021710D01*
X029967Y021869D02*
X015100Y021869D01*
X015100Y022027D02*
X030031Y022027D01*
X029972Y024880D02*
X020011Y024880D01*
X020011Y025039D02*
X029967Y025039D01*
X029967Y025197D02*
X020011Y025197D01*
X020011Y025356D02*
X029967Y025356D01*
X029967Y025514D02*
X020011Y025514D01*
X019925Y025673D02*
X029967Y025673D01*
X027125Y028843D02*
X025075Y028843D01*
X024850Y029125D02*
X027350Y029125D01*
X026600Y036125D02*
X032100Y036125D01*
X028100Y040125D02*
X028100Y048625D01*
X046100Y058625D02*
X046100Y059125D01*
X046600Y059625D01*
X060100Y059625D01*
X061100Y058625D01*
X071100Y058625D01*
X071100Y057625D01*
X072600Y056125D01*
X074600Y056125D01*
X074600Y048875D01*
X073850Y048125D01*
X072100Y045625D02*
X071350Y045625D01*
X070850Y045625D01*
X070350Y046125D01*
X068100Y046625D02*
X067600Y046625D01*
X068100Y046625D02*
X071100Y049625D01*
X072100Y045625D02*
X072850Y044875D01*
X072850Y036125D01*
X073100Y032625D02*
X071350Y032625D01*
X067850Y033125D02*
X066725Y033125D01*
X066475Y033375D01*
X067850Y033125D02*
X067850Y035125D01*
D32*
X071350Y035625D02*
X071600Y035875D01*
X071850Y036125D01*
X072850Y036125D01*
X074100Y036125D01*
X074850Y036125D01*
X074850Y033625D01*
X074100Y033625D01*
X073100Y032625D01*
X074100Y031125D02*
X074850Y031125D01*
X074850Y033625D01*
X074850Y031125D02*
X074850Y023625D01*
X071600Y023625D01*
X069600Y021625D01*
X068100Y021625D01*
X064600Y022125D02*
X053100Y022125D01*
X051600Y020625D01*
X048100Y020625D01*
X047600Y021125D01*
X043850Y021125D01*
X040850Y024125D01*
X031600Y031601D02*
X031600Y034375D01*
X030850Y035125D01*
X025600Y034125D02*
X025600Y036625D01*
X008350Y044924D02*
X008350Y045875D01*
X007850Y045875D02*
X007100Y046625D01*
X004850Y046625D01*
X002850Y048625D01*
X002850Y049125D01*
X002100Y049125D02*
X002100Y048625D01*
X004350Y046125D01*
X007100Y046125D01*
X007350Y045875D01*
X007350Y044924D01*
X006850Y044924D02*
X006850Y045375D01*
X006600Y045625D01*
X004100Y045625D01*
X001350Y048375D01*
X001350Y049125D01*
X001475Y047500D02*
X002049Y046926D01*
X002049Y046227D01*
X002100Y046176D01*
X002100Y045074D02*
X004850Y045074D01*
X004850Y044924D01*
X004850Y044375D01*
X003600Y043125D01*
X003600Y041149D01*
X004600Y040149D01*
X007850Y044924D02*
X007850Y045875D01*
X007850Y048625D02*
X007850Y051922D01*
X005647Y054125D01*
X005100Y054625D02*
X005600Y055125D01*
X005647Y055125D01*
X005647Y053125D02*
X007350Y051422D01*
X007350Y048625D01*
X006850Y048625D02*
X006850Y050922D01*
X005647Y052125D01*
X005647Y051125D02*
X006350Y050422D01*
X006350Y048625D01*
X005850Y048625D02*
X005850Y049922D01*
X005647Y050125D01*
X003600Y049125D02*
X003600Y048625D01*
X005100Y047125D01*
X017100Y058125D02*
X018600Y059625D01*
X045100Y059625D01*
X045100Y042625D01*
X045350Y042375D01*
X047850Y042375D01*
X049600Y040625D01*
X062600Y040625D01*
X063100Y040125D01*
X063100Y036625D01*
X063350Y036375D01*
X052600Y029125D02*
X052100Y029625D01*
X052100Y030625D01*
X052100Y035125D01*
X050100Y035125D01*
X049600Y035625D01*
X048600Y035625D02*
X048100Y036125D01*
X046600Y036125D01*
X045850Y036875D01*
X045850Y037125D01*
X048600Y035625D02*
X048600Y034125D01*
X047600Y033125D01*
X047600Y032125D01*
X052600Y029125D02*
X052600Y026625D01*
X054600Y057125D02*
X045600Y057125D01*
X054600Y057125D02*
X056100Y058625D01*
X059350Y058625D01*
X059850Y058125D01*
X069100Y058125D01*
D33*
X000600Y043625D03*
D34*
X001124Y043625D01*
X004600Y040149D01*
X045850Y040875D02*
X045850Y039375D01*
X045850Y040875D02*
X046100Y041125D01*
D35*
X045600Y042636D02*
X045600Y056786D01*
X045667Y056786D01*
X045792Y056838D01*
X045818Y056864D01*
X054652Y056864D01*
X054748Y056904D01*
X056208Y058364D01*
X059132Y058364D01*
X059158Y058338D01*
X059283Y058286D01*
X059320Y058286D01*
X059702Y057904D01*
X059798Y057864D01*
X068100Y057864D01*
X068100Y057816D01*
X058021Y057816D01*
X057909Y057704D01*
X057649Y057444D01*
X057537Y057444D01*
X057419Y057396D01*
X057329Y057306D01*
X057281Y057188D01*
X057281Y057062D01*
X057329Y056944D01*
X057419Y056854D01*
X057537Y056806D01*
X057663Y056806D01*
X057781Y056854D01*
X057871Y056944D01*
X057919Y057062D01*
X057919Y057174D01*
X058179Y057434D01*
X068100Y057434D01*
X068100Y055316D01*
X068021Y055316D01*
X067909Y055204D01*
X067409Y054704D01*
X067409Y053712D01*
X067371Y053806D01*
X067281Y053896D01*
X067163Y053944D01*
X067037Y053944D01*
X066919Y053896D01*
X066829Y053806D01*
X066781Y053688D01*
X066781Y053562D01*
X066829Y053444D01*
X066909Y053364D01*
X066909Y051046D01*
X067021Y050934D01*
X067781Y050174D01*
X067781Y050062D01*
X067829Y049944D01*
X067919Y049854D01*
X068037Y049806D01*
X068100Y049806D01*
X068100Y049694D01*
X068037Y049694D01*
X067919Y049646D01*
X067829Y049556D01*
X067781Y049438D01*
X067781Y049312D01*
X067829Y049194D01*
X067899Y049125D01*
X067829Y049056D01*
X067781Y048938D01*
X067781Y048812D01*
X067829Y048694D01*
X067899Y048625D01*
X067829Y048556D01*
X067781Y048438D01*
X067781Y048312D01*
X067829Y048194D01*
X067899Y048125D01*
X067829Y048056D01*
X067781Y047938D01*
X067781Y047812D01*
X067829Y047694D01*
X067899Y047625D01*
X067829Y047556D01*
X067781Y047438D01*
X067781Y047312D01*
X067829Y047194D01*
X067919Y047104D01*
X068037Y047056D01*
X068100Y047056D01*
X068100Y045895D01*
X067291Y045085D01*
X067291Y046114D01*
X067371Y046194D01*
X067419Y046312D01*
X067419Y046438D01*
X067371Y046556D01*
X067281Y046646D01*
X067163Y046694D01*
X067037Y046694D01*
X066919Y046646D01*
X066829Y046556D01*
X066781Y046438D01*
X066781Y046312D01*
X066829Y046194D01*
X066909Y046114D01*
X066909Y045712D01*
X066871Y045806D01*
X066781Y045896D01*
X066663Y045944D01*
X066537Y045944D01*
X066419Y045896D01*
X066329Y045806D01*
X066281Y045688D01*
X066281Y045562D01*
X066329Y045444D01*
X066409Y045364D01*
X066409Y044712D01*
X066371Y044806D01*
X066281Y044896D01*
X066163Y044944D01*
X066037Y044944D01*
X065919Y044896D01*
X065829Y044806D01*
X065781Y044688D01*
X065781Y044562D01*
X065829Y044444D01*
X065919Y044354D01*
X066037Y044306D01*
X066149Y044306D01*
X066159Y044296D01*
X066159Y042835D01*
X065669Y043326D01*
X065669Y043438D01*
X065621Y043556D01*
X065531Y043646D01*
X065413Y043694D01*
X065287Y043694D01*
X065169Y043646D01*
X065079Y043556D01*
X065031Y043438D01*
X065031Y043312D01*
X065079Y043194D01*
X065169Y043104D01*
X065287Y043056D01*
X065399Y043056D01*
X065640Y042816D01*
X065361Y042816D01*
X065281Y042896D01*
X065163Y042944D01*
X065037Y042944D01*
X064919Y042896D01*
X064829Y042806D01*
X064781Y042688D01*
X064781Y042562D01*
X064829Y042444D01*
X064919Y042354D01*
X065037Y042306D01*
X065163Y042306D01*
X065281Y042354D01*
X065361Y042434D01*
X065521Y042434D01*
X065659Y042296D01*
X065659Y041462D01*
X065621Y041556D01*
X065531Y041646D01*
X065413Y041694D01*
X065301Y041694D01*
X064919Y042076D01*
X064919Y042188D01*
X064871Y042306D01*
X064781Y042396D01*
X064663Y042444D01*
X064537Y042444D01*
X064419Y042396D01*
X064329Y042306D01*
X064291Y042212D01*
X064291Y042364D01*
X064371Y042444D01*
X064419Y042562D01*
X064419Y042688D01*
X064371Y042806D01*
X064291Y042886D01*
X064291Y043296D01*
X064801Y043806D01*
X064913Y043806D01*
X065031Y043854D01*
X065121Y043944D01*
X065169Y044062D01*
X066159Y044062D01*
X066159Y043944D02*
X065120Y043944D01*
X065169Y044062D02*
X065169Y044188D01*
X065121Y044306D01*
X065031Y044396D01*
X064913Y044444D01*
X064787Y044444D01*
X064669Y044396D01*
X064579Y044306D01*
X064531Y044188D01*
X064531Y044076D01*
X064021Y043566D01*
X063909Y043454D01*
X063909Y042886D01*
X063829Y042806D01*
X063781Y042688D01*
X063781Y042562D01*
X063829Y042444D01*
X063909Y042364D01*
X063909Y041125D01*
X053227Y041125D01*
X053389Y041192D01*
X053533Y041336D01*
X053611Y041523D01*
X053611Y041727D01*
X053533Y041914D01*
X053389Y042058D01*
X053202Y042136D01*
X052998Y042136D01*
X052811Y042058D01*
X052667Y041914D01*
X052589Y041727D01*
X052589Y041523D01*
X052667Y041336D01*
X052811Y041192D01*
X052973Y041125D01*
X049469Y041125D01*
X047998Y042596D01*
X047902Y042636D01*
X045600Y042636D01*
X045600Y042640D02*
X063781Y042640D01*
X063797Y042522D02*
X048072Y042522D01*
X048191Y042403D02*
X063871Y042403D01*
X063909Y042285D02*
X048309Y042285D01*
X048428Y042166D02*
X063909Y042166D01*
X063909Y042048D02*
X053400Y042048D01*
X053518Y041929D02*
X063909Y041929D01*
X063909Y041811D02*
X053576Y041811D01*
X053611Y041692D02*
X063909Y041692D01*
X063909Y041574D02*
X053611Y041574D01*
X053582Y041455D02*
X063909Y041455D01*
X063909Y041337D02*
X053533Y041337D01*
X053415Y041218D02*
X063909Y041218D01*
X064291Y042285D02*
X064321Y042285D01*
X064329Y042403D02*
X064437Y042403D01*
X064403Y042522D02*
X064797Y042522D01*
X064781Y042640D02*
X064419Y042640D01*
X064390Y042759D02*
X064810Y042759D01*
X064901Y042877D02*
X064299Y042877D01*
X064291Y042996D02*
X065460Y042996D01*
X065578Y042877D02*
X065299Y042877D01*
X065160Y043114D02*
X064291Y043114D01*
X064291Y043233D02*
X065064Y043233D01*
X065031Y043351D02*
X064346Y043351D01*
X064464Y043470D02*
X065044Y043470D01*
X065112Y043588D02*
X064583Y043588D01*
X064701Y043707D02*
X066159Y043707D01*
X066159Y043825D02*
X064960Y043825D01*
X065169Y044181D02*
X066159Y044181D01*
X066156Y044299D02*
X065123Y044299D01*
X064978Y044418D02*
X065856Y044418D01*
X065791Y044536D02*
X045600Y044536D01*
X045600Y044418D02*
X064722Y044418D01*
X064577Y044299D02*
X045600Y044299D01*
X045600Y044181D02*
X064531Y044181D01*
X064517Y044062D02*
X054379Y044062D01*
X054389Y044058D02*
X054202Y044136D01*
X053998Y044136D01*
X053811Y044058D01*
X053667Y043914D01*
X053589Y043727D01*
X053589Y043523D01*
X053667Y043336D01*
X053811Y043192D01*
X053998Y043114D01*
X054202Y043114D01*
X054389Y043192D01*
X054533Y043336D01*
X054611Y043523D01*
X054611Y043727D01*
X054533Y043914D01*
X054389Y044058D01*
X054504Y043944D02*
X064399Y043944D01*
X064280Y043825D02*
X054570Y043825D01*
X054611Y043707D02*
X064162Y043707D01*
X064043Y043588D02*
X054611Y043588D01*
X054588Y043470D02*
X063925Y043470D01*
X063909Y043351D02*
X054539Y043351D01*
X054430Y043233D02*
X063909Y043233D01*
X063909Y043114D02*
X045600Y043114D01*
X045600Y042996D02*
X063909Y042996D01*
X063901Y042877D02*
X045600Y042877D01*
X045600Y042759D02*
X063810Y042759D01*
X064763Y042403D02*
X064871Y042403D01*
X064879Y042285D02*
X065659Y042285D01*
X065659Y042166D02*
X064919Y042166D01*
X064947Y042048D02*
X065659Y042048D01*
X065659Y041929D02*
X065066Y041929D01*
X065184Y041811D02*
X065659Y041811D01*
X065659Y041692D02*
X065419Y041692D01*
X065603Y041574D02*
X065659Y041574D01*
X065552Y042403D02*
X065329Y042403D01*
X065999Y042996D02*
X066159Y042996D01*
X066159Y043114D02*
X065881Y043114D01*
X065762Y043233D02*
X066159Y043233D01*
X066159Y043351D02*
X065669Y043351D01*
X065656Y043470D02*
X066159Y043470D01*
X066159Y043588D02*
X065588Y043588D01*
X066118Y042877D02*
X066159Y042877D01*
X065781Y044655D02*
X045600Y044655D01*
X045600Y044773D02*
X065816Y044773D01*
X065915Y044892D02*
X045600Y044892D01*
X045600Y045010D02*
X066409Y045010D01*
X066409Y044892D02*
X066285Y044892D01*
X066384Y044773D02*
X066409Y044773D01*
X066409Y045129D02*
X055236Y045129D01*
X055202Y045114D02*
X055389Y045192D01*
X055533Y045336D01*
X055611Y045523D01*
X055611Y045727D01*
X055533Y045914D01*
X055389Y046058D01*
X055202Y046136D01*
X054998Y046136D01*
X054811Y046058D01*
X054667Y045914D01*
X054589Y045727D01*
X054589Y045523D01*
X054667Y045336D01*
X054811Y045192D01*
X054998Y045114D01*
X055202Y045114D01*
X054964Y045129D02*
X049236Y045129D01*
X049202Y045114D02*
X049389Y045192D01*
X049533Y045336D01*
X049611Y045523D01*
X049611Y045727D01*
X049533Y045914D01*
X049389Y046058D01*
X049202Y046136D01*
X048998Y046136D01*
X048811Y046058D01*
X048667Y045914D01*
X048589Y045727D01*
X048589Y045523D01*
X048667Y045336D01*
X048811Y045192D01*
X048998Y045114D01*
X049202Y045114D01*
X048964Y045129D02*
X045600Y045129D01*
X045600Y045247D02*
X048756Y045247D01*
X048655Y045366D02*
X045600Y045366D01*
X045600Y045484D02*
X048606Y045484D01*
X048589Y045603D02*
X045600Y045603D01*
X045600Y045721D02*
X048589Y045721D01*
X048636Y045840D02*
X045600Y045840D01*
X045600Y045958D02*
X048711Y045958D01*
X048856Y046077D02*
X045600Y046077D01*
X045600Y046195D02*
X066829Y046195D01*
X066781Y046314D02*
X045600Y046314D01*
X045600Y046432D02*
X066781Y046432D01*
X066827Y046551D02*
X045600Y046551D01*
X045600Y046669D02*
X066976Y046669D01*
X067224Y046669D02*
X068100Y046669D01*
X068100Y046551D02*
X067373Y046551D01*
X067419Y046432D02*
X068100Y046432D01*
X068100Y046314D02*
X067419Y046314D01*
X067371Y046195D02*
X068100Y046195D01*
X068100Y046077D02*
X067291Y046077D01*
X067291Y045958D02*
X068100Y045958D01*
X068045Y045840D02*
X067291Y045840D01*
X067291Y045721D02*
X067926Y045721D01*
X067808Y045603D02*
X067291Y045603D01*
X067291Y045484D02*
X067689Y045484D01*
X067571Y045366D02*
X067291Y045366D01*
X067291Y045247D02*
X067452Y045247D01*
X067334Y045129D02*
X067291Y045129D01*
X066909Y045721D02*
X066906Y045721D01*
X066909Y045840D02*
X066837Y045840D01*
X066909Y045958D02*
X055489Y045958D01*
X055564Y045840D02*
X066363Y045840D01*
X066294Y045721D02*
X055611Y045721D01*
X055611Y045603D02*
X066281Y045603D01*
X066313Y045484D02*
X055594Y045484D01*
X055545Y045366D02*
X066408Y045366D01*
X066409Y045247D02*
X055444Y045247D01*
X054756Y045247D02*
X049444Y045247D01*
X049545Y045366D02*
X054655Y045366D01*
X054606Y045484D02*
X049594Y045484D01*
X049611Y045603D02*
X054589Y045603D01*
X054589Y045721D02*
X049611Y045721D01*
X049564Y045840D02*
X054636Y045840D01*
X054711Y045958D02*
X049489Y045958D01*
X049344Y046077D02*
X054856Y046077D01*
X055344Y046077D02*
X066909Y046077D01*
X068100Y046788D02*
X045600Y046788D01*
X045600Y046906D02*
X068100Y046906D01*
X068100Y047025D02*
X045600Y047025D01*
X045600Y047143D02*
X049929Y047143D01*
X049998Y047114D02*
X050202Y047114D01*
X050389Y047192D01*
X050533Y047336D01*
X050611Y047523D01*
X050611Y047727D01*
X050533Y047914D01*
X050389Y048058D01*
X050202Y048136D01*
X049998Y048136D01*
X049811Y048058D01*
X049667Y047914D01*
X049589Y047727D01*
X049589Y047523D01*
X049667Y047336D01*
X049811Y047192D01*
X049998Y047114D01*
X050271Y047143D02*
X055929Y047143D01*
X055998Y047114D02*
X056202Y047114D01*
X056389Y047192D01*
X056533Y047336D01*
X056611Y047523D01*
X056611Y047727D01*
X056533Y047914D01*
X056389Y048058D01*
X056202Y048136D01*
X055998Y048136D01*
X055811Y048058D01*
X055667Y047914D01*
X055589Y047727D01*
X055589Y047523D01*
X055667Y047336D01*
X055811Y047192D01*
X055998Y047114D01*
X056271Y047143D02*
X067881Y047143D01*
X067802Y047262D02*
X056459Y047262D01*
X056551Y047380D02*
X067781Y047380D01*
X067806Y047499D02*
X056600Y047499D01*
X056611Y047617D02*
X067891Y047617D01*
X067812Y047736D02*
X056607Y047736D01*
X056558Y047854D02*
X067781Y047854D01*
X067795Y047973D02*
X056475Y047973D01*
X056309Y048091D02*
X067865Y048091D01*
X067823Y048210D02*
X045600Y048210D01*
X045600Y048328D02*
X067781Y048328D01*
X067784Y048447D02*
X045600Y048447D01*
X045600Y048565D02*
X067839Y048565D01*
X067840Y048684D02*
X045600Y048684D01*
X045600Y048802D02*
X067785Y048802D01*
X067781Y048921D02*
X045600Y048921D01*
X045600Y049039D02*
X067823Y049039D01*
X067866Y049158D02*
X057306Y049158D01*
X057389Y049192D02*
X057533Y049336D01*
X057611Y049523D01*
X057611Y049727D01*
X057533Y049914D01*
X057389Y050058D01*
X057202Y050136D01*
X056998Y050136D01*
X056811Y050058D01*
X056667Y049914D01*
X056589Y049727D01*
X056589Y049523D01*
X056667Y049336D01*
X056811Y049192D01*
X056998Y049114D01*
X057202Y049114D01*
X057389Y049192D01*
X057473Y049276D02*
X067796Y049276D01*
X067781Y049395D02*
X057557Y049395D01*
X057606Y049513D02*
X067812Y049513D01*
X067905Y049632D02*
X057611Y049632D01*
X057601Y049750D02*
X068100Y049750D01*
X067905Y049869D02*
X057552Y049869D01*
X057460Y049987D02*
X067812Y049987D01*
X067781Y050106D02*
X057274Y050106D01*
X056926Y050106D02*
X051274Y050106D01*
X051202Y050136D02*
X051389Y050058D01*
X051533Y049914D01*
X051611Y049727D01*
X051611Y049523D01*
X051533Y049336D01*
X051389Y049192D01*
X051202Y049114D01*
X050998Y049114D01*
X050811Y049192D01*
X050667Y049336D01*
X050589Y049523D01*
X050589Y049727D01*
X050667Y049914D01*
X050811Y050058D01*
X050998Y050136D01*
X051202Y050136D01*
X050926Y050106D02*
X045600Y050106D01*
X045600Y050224D02*
X067731Y050224D01*
X067613Y050343D02*
X045600Y050343D01*
X045600Y050461D02*
X067494Y050461D01*
X067376Y050580D02*
X045600Y050580D01*
X045600Y050698D02*
X067257Y050698D01*
X067139Y050817D02*
X045600Y050817D01*
X045600Y050935D02*
X067020Y050935D01*
X066909Y051054D02*
X045600Y051054D01*
X045600Y051172D02*
X051859Y051172D01*
X051811Y051192D02*
X051998Y051114D01*
X052202Y051114D01*
X052389Y051192D01*
X052533Y051336D01*
X052611Y051523D01*
X052611Y051727D01*
X052533Y051914D01*
X052389Y052058D01*
X052202Y052136D01*
X051998Y052136D01*
X051811Y052058D01*
X051667Y051914D01*
X051589Y051727D01*
X051589Y051523D01*
X051667Y051336D01*
X051811Y051192D01*
X051712Y051291D02*
X045600Y051291D01*
X045600Y051409D02*
X051637Y051409D01*
X051589Y051528D02*
X045600Y051528D01*
X045600Y051646D02*
X051589Y051646D01*
X051605Y051765D02*
X045600Y051765D01*
X045600Y051883D02*
X051654Y051883D01*
X051754Y052002D02*
X045600Y052002D01*
X045600Y052120D02*
X051961Y052120D01*
X052239Y052120D02*
X057961Y052120D01*
X057998Y052136D02*
X057811Y052058D01*
X057667Y051914D01*
X057589Y051727D01*
X057589Y051523D01*
X057667Y051336D01*
X057811Y051192D01*
X057998Y051114D01*
X058202Y051114D01*
X058389Y051192D01*
X058533Y051336D01*
X058611Y051523D01*
X058611Y051727D01*
X058533Y051914D01*
X058389Y052058D01*
X058202Y052136D01*
X057998Y052136D01*
X058239Y052120D02*
X066909Y052120D01*
X066909Y052002D02*
X058446Y052002D01*
X058546Y051883D02*
X066909Y051883D01*
X066909Y051765D02*
X058595Y051765D01*
X058611Y051646D02*
X066909Y051646D01*
X066909Y051528D02*
X058611Y051528D01*
X058563Y051409D02*
X066909Y051409D01*
X066909Y051291D02*
X058488Y051291D01*
X058341Y051172D02*
X066909Y051172D01*
X066600Y052125D02*
X066100Y052125D01*
X066909Y052239D02*
X045600Y052239D01*
X045600Y052357D02*
X066909Y052357D01*
X066909Y052476D02*
X045600Y052476D01*
X045600Y052594D02*
X066909Y052594D01*
X066909Y052713D02*
X045600Y052713D01*
X045600Y052831D02*
X066909Y052831D01*
X066909Y052950D02*
X045600Y052950D01*
X045600Y053068D02*
X066909Y053068D01*
X066909Y053187D02*
X059376Y053187D01*
X059389Y053192D02*
X059533Y053336D01*
X059611Y053523D01*
X059611Y053727D01*
X059533Y053914D01*
X059389Y054058D01*
X059202Y054136D01*
X058998Y054136D01*
X058811Y054058D01*
X058667Y053914D01*
X058589Y053727D01*
X058589Y053523D01*
X058667Y053336D01*
X058811Y053192D01*
X058998Y053114D01*
X059202Y053114D01*
X059389Y053192D01*
X059502Y053305D02*
X066909Y053305D01*
X066850Y053424D02*
X059569Y053424D01*
X059611Y053542D02*
X066789Y053542D01*
X066781Y053661D02*
X059611Y053661D01*
X059589Y053779D02*
X066818Y053779D01*
X066924Y053898D02*
X059540Y053898D01*
X059431Y054016D02*
X067409Y054016D01*
X067409Y053898D02*
X067276Y053898D01*
X067382Y053779D02*
X067409Y053779D01*
X067409Y054135D02*
X059204Y054135D01*
X058996Y054135D02*
X053204Y054135D01*
X053202Y054136D02*
X052998Y054136D01*
X052811Y054058D01*
X052667Y053914D01*
X052589Y053727D01*
X052589Y053523D01*
X052667Y053336D01*
X052811Y053192D01*
X052998Y053114D01*
X053202Y053114D01*
X053389Y053192D01*
X053533Y053336D01*
X053611Y053523D01*
X053611Y053727D01*
X053533Y053914D01*
X053389Y054058D01*
X053202Y054136D01*
X052996Y054135D02*
X045600Y054135D01*
X045600Y054253D02*
X067409Y054253D01*
X067409Y054372D02*
X045600Y054372D01*
X045600Y054490D02*
X067409Y054490D01*
X067409Y054609D02*
X045600Y054609D01*
X045600Y054727D02*
X067432Y054727D01*
X067551Y054846D02*
X045600Y054846D01*
X045600Y054964D02*
X045845Y054964D01*
X045852Y054957D02*
X046013Y054891D01*
X046187Y054891D01*
X046348Y054957D01*
X046471Y055080D01*
X046538Y055241D01*
X046538Y056009D01*
X046471Y056170D01*
X046348Y056293D01*
X046187Y056359D01*
X046013Y056359D01*
X045852Y056293D01*
X045729Y056170D01*
X045662Y056009D01*
X045662Y055241D01*
X045729Y055080D01*
X045852Y054957D01*
X045728Y055083D02*
X045600Y055083D01*
X045600Y055201D02*
X045679Y055201D01*
X045662Y055320D02*
X045600Y055320D01*
X045600Y055438D02*
X045662Y055438D01*
X045662Y055557D02*
X045600Y055557D01*
X045600Y055675D02*
X045662Y055675D01*
X045662Y055794D02*
X045600Y055794D01*
X045600Y055912D02*
X045662Y055912D01*
X045671Y056031D02*
X045600Y056031D01*
X045600Y056149D02*
X045721Y056149D01*
X045827Y056268D02*
X045600Y056268D01*
X045600Y056386D02*
X068100Y056386D01*
X068100Y056268D02*
X054400Y056268D01*
X054398Y056270D02*
X054339Y056313D01*
X054275Y056345D01*
X054207Y056367D01*
X054138Y056378D01*
X054138Y055663D01*
X054557Y055663D01*
X054557Y055958D01*
X054546Y056029D01*
X054523Y056097D01*
X054491Y056161D01*
X054448Y056219D01*
X054398Y056270D01*
X054497Y056149D02*
X055021Y056149D01*
X055042Y056149D02*
X055158Y056149D01*
X055158Y056152D02*
X055224Y056142D01*
X055303Y056116D01*
X055378Y056078D01*
X055445Y056029D01*
X055504Y055970D01*
X055553Y055903D01*
X055591Y055828D01*
X055617Y055749D01*
X055627Y055683D01*
X055158Y055683D01*
X055158Y055567D01*
X055627Y055567D01*
X055617Y055501D01*
X055591Y055422D01*
X055553Y055347D01*
X055504Y055280D01*
X055445Y055221D01*
X055378Y055172D01*
X055303Y055134D01*
X055224Y055108D01*
X055158Y055098D01*
X055158Y055567D01*
X055042Y055567D01*
X055042Y055098D01*
X054976Y055108D01*
X054897Y055134D01*
X054822Y055172D01*
X054755Y055221D01*
X054696Y055280D01*
X054647Y055347D01*
X054609Y055422D01*
X054583Y055501D01*
X054573Y055567D01*
X055042Y055567D01*
X055042Y055683D01*
X054573Y055683D01*
X054583Y055749D01*
X054609Y055828D01*
X054647Y055903D01*
X054696Y055970D01*
X054755Y056029D01*
X054822Y056078D01*
X054897Y056116D01*
X054976Y056142D01*
X055042Y056152D01*
X055042Y055683D01*
X055158Y055683D01*
X055158Y056152D01*
X055179Y056149D02*
X068100Y056149D01*
X068100Y056031D02*
X061417Y056031D01*
X061389Y056058D02*
X061202Y056136D01*
X060998Y056136D01*
X060811Y056058D01*
X060667Y055914D01*
X060589Y055727D01*
X060589Y055523D01*
X060667Y055336D01*
X060811Y055192D01*
X060998Y055114D01*
X061202Y055114D01*
X061389Y055192D01*
X061533Y055336D01*
X061611Y055523D01*
X061611Y055727D01*
X061533Y055914D01*
X061389Y056058D01*
X061534Y055912D02*
X068100Y055912D01*
X068100Y055794D02*
X061583Y055794D01*
X061611Y055675D02*
X068100Y055675D01*
X068100Y055557D02*
X061611Y055557D01*
X061575Y055438D02*
X068100Y055438D01*
X068100Y055320D02*
X061517Y055320D01*
X061398Y055201D02*
X067906Y055201D01*
X067788Y055083D02*
X054486Y055083D01*
X054491Y055089D02*
X054523Y055153D01*
X054546Y055221D01*
X054557Y055292D01*
X054557Y055587D01*
X054138Y055587D01*
X054138Y055663D01*
X054062Y055663D01*
X054062Y055587D01*
X054138Y055587D01*
X054138Y054872D01*
X054207Y054883D01*
X054275Y054905D01*
X054339Y054937D01*
X054398Y054980D01*
X054448Y055031D01*
X054491Y055089D01*
X054539Y055201D02*
X054782Y055201D01*
X054667Y055320D02*
X054557Y055320D01*
X054557Y055438D02*
X054603Y055438D01*
X054574Y055557D02*
X054557Y055557D01*
X054557Y055675D02*
X055042Y055675D01*
X055158Y055675D02*
X060589Y055675D01*
X060589Y055557D02*
X055626Y055557D01*
X055597Y055438D02*
X060625Y055438D01*
X060683Y055320D02*
X055533Y055320D01*
X055418Y055201D02*
X060802Y055201D01*
X060617Y055794D02*
X055603Y055794D01*
X055547Y055912D02*
X060666Y055912D01*
X060783Y056031D02*
X055443Y056031D01*
X055158Y056031D02*
X055042Y056031D01*
X055042Y055912D02*
X055158Y055912D01*
X055158Y055794D02*
X055042Y055794D01*
X055042Y055557D02*
X055158Y055557D01*
X055158Y055438D02*
X055042Y055438D01*
X055042Y055320D02*
X055158Y055320D01*
X055158Y055201D02*
X055042Y055201D01*
X054376Y054964D02*
X067669Y054964D01*
X067100Y054625D02*
X067100Y054125D01*
X067850Y056125D02*
X069100Y056125D01*
X068100Y056505D02*
X045600Y056505D01*
X045600Y056623D02*
X068100Y056623D01*
X068100Y056742D02*
X045600Y056742D01*
X045814Y056860D02*
X057414Y056860D01*
X057315Y056979D02*
X054822Y056979D01*
X054941Y057097D02*
X057281Y057097D01*
X057292Y057216D02*
X055059Y057216D01*
X055178Y057334D02*
X057358Y057334D01*
X057658Y057453D02*
X055296Y057453D01*
X055415Y057571D02*
X057776Y057571D01*
X057895Y057690D02*
X055533Y057690D01*
X055652Y057808D02*
X058013Y057808D01*
X058079Y057334D02*
X061106Y057334D01*
X061063Y057316D02*
X060987Y057241D01*
X060947Y057143D01*
X060947Y057036D01*
X060987Y056938D01*
X061063Y056863D01*
X061161Y056822D01*
X061267Y056822D01*
X061366Y056863D01*
X061441Y056938D01*
X061482Y057036D01*
X061482Y057143D01*
X061441Y057241D01*
X061366Y057316D01*
X061267Y057357D01*
X061161Y057357D01*
X061063Y057316D01*
X060977Y057216D02*
X057960Y057216D01*
X057919Y057097D02*
X060947Y057097D01*
X060971Y056979D02*
X057885Y056979D01*
X057786Y056860D02*
X061069Y056860D01*
X061359Y056860D02*
X067569Y056860D01*
X067563Y056863D02*
X067661Y056822D01*
X067767Y056822D01*
X067866Y056863D01*
X067941Y056938D01*
X067982Y057036D01*
X067982Y057143D01*
X067941Y057241D01*
X067866Y057316D01*
X067767Y057357D01*
X067661Y057357D01*
X067563Y057316D01*
X067487Y057241D01*
X067447Y057143D01*
X067447Y057036D01*
X067487Y056938D01*
X067563Y056863D01*
X067471Y056979D02*
X061458Y056979D01*
X061482Y057097D02*
X067447Y057097D01*
X067477Y057216D02*
X061451Y057216D01*
X061323Y057334D02*
X067606Y057334D01*
X067823Y057334D02*
X068100Y057334D01*
X068100Y057216D02*
X067951Y057216D01*
X067982Y057097D02*
X068100Y057097D01*
X068100Y056979D02*
X067958Y056979D01*
X067859Y056860D02*
X068100Y056860D01*
X067850Y056125D02*
X066850Y057125D01*
X068100Y058386D02*
X059958Y058386D01*
X059689Y058655D01*
X059689Y058692D01*
X059637Y058817D01*
X059542Y058912D01*
X059417Y058964D01*
X059283Y058964D01*
X059158Y058912D01*
X059132Y058886D01*
X056048Y058886D01*
X055952Y058846D01*
X055879Y058773D01*
X054492Y057386D01*
X045818Y057386D01*
X045792Y057412D01*
X045667Y057464D01*
X045600Y057464D01*
X045600Y059625D01*
X046288Y059625D01*
X046022Y059359D01*
X046013Y059359D01*
X045852Y059293D01*
X045729Y059170D01*
X045662Y059009D01*
X045662Y058241D01*
X045729Y058080D01*
X045852Y057957D01*
X046013Y057891D01*
X046187Y057891D01*
X046348Y057957D01*
X046471Y058080D01*
X046538Y058241D01*
X046538Y059009D01*
X046471Y059170D01*
X046464Y059177D01*
X046691Y059404D01*
X060009Y059404D01*
X061009Y058404D01*
X068100Y058404D01*
X068100Y058386D01*
X068100Y058401D02*
X059943Y058401D01*
X059825Y058519D02*
X060894Y058519D01*
X060775Y058638D02*
X059706Y058638D01*
X059662Y058756D02*
X060657Y058756D01*
X060538Y058875D02*
X059580Y058875D01*
X059324Y058282D02*
X056126Y058282D01*
X056007Y058164D02*
X059443Y058164D01*
X059561Y058045D02*
X055889Y058045D01*
X055770Y057927D02*
X059680Y057927D01*
X060420Y058993D02*
X054551Y058993D01*
X054557Y058958D02*
X054546Y059029D01*
X054523Y059097D01*
X054491Y059161D01*
X054448Y059219D01*
X054398Y059270D01*
X054339Y059313D01*
X054275Y059345D01*
X054207Y059367D01*
X054138Y059378D01*
X054138Y058663D01*
X054557Y058663D01*
X054557Y058958D01*
X054557Y058875D02*
X056021Y058875D01*
X055862Y058756D02*
X054557Y058756D01*
X054557Y058587D02*
X054138Y058587D01*
X054138Y058663D01*
X054062Y058663D01*
X054062Y058587D01*
X054138Y058587D01*
X054138Y057872D01*
X054207Y057883D01*
X054275Y057905D01*
X054339Y057937D01*
X054398Y057980D01*
X054448Y058031D01*
X054491Y058089D01*
X054523Y058153D01*
X054546Y058221D01*
X054557Y058292D01*
X054557Y058587D01*
X054557Y058519D02*
X055625Y058519D01*
X055507Y058401D02*
X054557Y058401D01*
X054555Y058282D02*
X055388Y058282D01*
X055270Y058164D02*
X054527Y058164D01*
X054459Y058045D02*
X055151Y058045D01*
X055033Y057927D02*
X054318Y057927D01*
X054138Y057927D02*
X054062Y057927D01*
X054062Y057872D02*
X054062Y058587D01*
X053643Y058587D01*
X053643Y058292D01*
X053654Y058221D01*
X053677Y058153D01*
X053709Y058089D01*
X053752Y058031D01*
X053802Y057980D01*
X053861Y057937D01*
X053925Y057905D01*
X053993Y057883D01*
X054062Y057872D01*
X054062Y058045D02*
X054138Y058045D01*
X054138Y058164D02*
X054062Y058164D01*
X054062Y058282D02*
X054138Y058282D01*
X054138Y058401D02*
X054062Y058401D01*
X054062Y058519D02*
X054138Y058519D01*
X054138Y058638D02*
X055744Y058638D01*
X054914Y057808D02*
X045600Y057808D01*
X045600Y057690D02*
X054796Y057690D01*
X054677Y057571D02*
X045600Y057571D01*
X045695Y057453D02*
X054559Y057453D01*
X053882Y057927D02*
X053274Y057927D01*
X053348Y057957D02*
X053471Y058080D01*
X053538Y058241D01*
X053538Y059009D01*
X053471Y059170D01*
X053348Y059293D01*
X053187Y059359D01*
X053013Y059359D01*
X052852Y059293D01*
X052729Y059170D01*
X052662Y059009D01*
X052662Y058241D01*
X052729Y058080D01*
X052852Y057957D01*
X053013Y057891D01*
X053187Y057891D01*
X053348Y057957D01*
X053436Y058045D02*
X053741Y058045D01*
X053673Y058164D02*
X053505Y058164D01*
X053538Y058282D02*
X053645Y058282D01*
X053643Y058401D02*
X053538Y058401D01*
X053538Y058519D02*
X053643Y058519D01*
X053643Y058663D02*
X054062Y058663D01*
X054062Y059378D01*
X053993Y059367D01*
X053925Y059345D01*
X053861Y059313D01*
X053802Y059270D01*
X053752Y059219D01*
X053709Y059161D01*
X053677Y059097D01*
X053654Y059029D01*
X053643Y058958D01*
X053643Y058663D01*
X053643Y058756D02*
X053538Y058756D01*
X053538Y058638D02*
X054062Y058638D01*
X054062Y058756D02*
X054138Y058756D01*
X054138Y058875D02*
X054062Y058875D01*
X054062Y058993D02*
X054138Y058993D01*
X054138Y059112D02*
X054062Y059112D01*
X054062Y059230D02*
X054138Y059230D01*
X054138Y059349D02*
X054062Y059349D01*
X053935Y059349D02*
X053213Y059349D01*
X052987Y059349D02*
X052213Y059349D01*
X052187Y059359D02*
X052013Y059359D01*
X051852Y059293D01*
X051729Y059170D01*
X051662Y059009D01*
X051662Y058241D01*
X051729Y058080D01*
X051852Y057957D01*
X052013Y057891D01*
X052187Y057891D01*
X052348Y057957D01*
X052471Y058080D01*
X052538Y058241D01*
X052538Y059009D01*
X052471Y059170D01*
X052348Y059293D01*
X052187Y059359D01*
X051987Y059349D02*
X051213Y059349D01*
X051187Y059359D02*
X051013Y059359D01*
X050852Y059293D01*
X050729Y059170D01*
X050662Y059009D01*
X050662Y058241D01*
X050729Y058080D01*
X050852Y057957D01*
X051013Y057891D01*
X051187Y057891D01*
X051348Y057957D01*
X051471Y058080D01*
X051538Y058241D01*
X051538Y059009D01*
X051471Y059170D01*
X051348Y059293D01*
X051187Y059359D01*
X050987Y059349D02*
X050213Y059349D01*
X050187Y059359D02*
X050013Y059359D01*
X049852Y059293D01*
X049729Y059170D01*
X049662Y059009D01*
X049662Y058241D01*
X049729Y058080D01*
X049852Y057957D01*
X050013Y057891D01*
X050187Y057891D01*
X050348Y057957D01*
X050471Y058080D01*
X050538Y058241D01*
X050538Y059009D01*
X050471Y059170D01*
X050348Y059293D01*
X050187Y059359D01*
X049987Y059349D02*
X049213Y059349D01*
X049187Y059359D02*
X049013Y059359D01*
X048852Y059293D01*
X048729Y059170D01*
X048662Y059009D01*
X048662Y058241D01*
X048729Y058080D01*
X048852Y057957D01*
X049013Y057891D01*
X049187Y057891D01*
X049348Y057957D01*
X049471Y058080D01*
X049538Y058241D01*
X049538Y059009D01*
X049471Y059170D01*
X049348Y059293D01*
X049187Y059359D01*
X048987Y059349D02*
X048213Y059349D01*
X048187Y059359D02*
X048013Y059359D01*
X047852Y059293D01*
X047729Y059170D01*
X047662Y059009D01*
X047662Y058241D01*
X047729Y058080D01*
X047852Y057957D01*
X048013Y057891D01*
X048187Y057891D01*
X048348Y057957D01*
X048471Y058080D01*
X048538Y058241D01*
X048538Y059009D01*
X048471Y059170D01*
X048348Y059293D01*
X048187Y059359D01*
X047987Y059349D02*
X047213Y059349D01*
X047187Y059359D02*
X047013Y059359D01*
X046852Y059293D01*
X046729Y059170D01*
X046662Y059009D01*
X046662Y058241D01*
X046729Y058080D01*
X046852Y057957D01*
X047013Y057891D01*
X047187Y057891D01*
X047348Y057957D01*
X047471Y058080D01*
X047538Y058241D01*
X047538Y059009D01*
X047471Y059170D01*
X047348Y059293D01*
X047187Y059359D01*
X046987Y059349D02*
X046636Y059349D01*
X046517Y059230D02*
X046789Y059230D01*
X046705Y059112D02*
X046495Y059112D01*
X046538Y058993D02*
X046662Y058993D01*
X046662Y058875D02*
X046538Y058875D01*
X046538Y058756D02*
X046662Y058756D01*
X046662Y058638D02*
X046538Y058638D01*
X046538Y058519D02*
X046662Y058519D01*
X046662Y058401D02*
X046538Y058401D01*
X046538Y058282D02*
X046662Y058282D01*
X046695Y058164D02*
X046505Y058164D01*
X046436Y058045D02*
X046764Y058045D01*
X046926Y057927D02*
X046274Y057927D01*
X045926Y057927D02*
X045600Y057927D01*
X045600Y058045D02*
X045764Y058045D01*
X045695Y058164D02*
X045600Y058164D01*
X045600Y058282D02*
X045662Y058282D01*
X045662Y058401D02*
X045600Y058401D01*
X045600Y058519D02*
X045662Y058519D01*
X045662Y058638D02*
X045600Y058638D01*
X045600Y058756D02*
X045662Y058756D01*
X045662Y058875D02*
X045600Y058875D01*
X045600Y058993D02*
X045662Y058993D01*
X045705Y059112D02*
X045600Y059112D01*
X045600Y059230D02*
X045789Y059230D01*
X045600Y059349D02*
X045987Y059349D01*
X046130Y059467D02*
X045600Y059467D01*
X045600Y059586D02*
X046248Y059586D01*
X047411Y059230D02*
X047789Y059230D01*
X047705Y059112D02*
X047495Y059112D01*
X047538Y058993D02*
X047662Y058993D01*
X047662Y058875D02*
X047538Y058875D01*
X047538Y058756D02*
X047662Y058756D01*
X047662Y058638D02*
X047538Y058638D01*
X047538Y058519D02*
X047662Y058519D01*
X047662Y058401D02*
X047538Y058401D01*
X047538Y058282D02*
X047662Y058282D01*
X047695Y058164D02*
X047505Y058164D01*
X047436Y058045D02*
X047764Y058045D01*
X047926Y057927D02*
X047274Y057927D01*
X048274Y057927D02*
X048926Y057927D01*
X048764Y058045D02*
X048436Y058045D01*
X048505Y058164D02*
X048695Y058164D01*
X048662Y058282D02*
X048538Y058282D01*
X048538Y058401D02*
X048662Y058401D01*
X048662Y058519D02*
X048538Y058519D01*
X048538Y058638D02*
X048662Y058638D01*
X048662Y058756D02*
X048538Y058756D01*
X048538Y058875D02*
X048662Y058875D01*
X048662Y058993D02*
X048538Y058993D01*
X048495Y059112D02*
X048705Y059112D01*
X048789Y059230D02*
X048411Y059230D01*
X049411Y059230D02*
X049789Y059230D01*
X049705Y059112D02*
X049495Y059112D01*
X049538Y058993D02*
X049662Y058993D01*
X049662Y058875D02*
X049538Y058875D01*
X049538Y058756D02*
X049662Y058756D01*
X049662Y058638D02*
X049538Y058638D01*
X049538Y058519D02*
X049662Y058519D01*
X049662Y058401D02*
X049538Y058401D01*
X049538Y058282D02*
X049662Y058282D01*
X049695Y058164D02*
X049505Y058164D01*
X049436Y058045D02*
X049764Y058045D01*
X049926Y057927D02*
X049274Y057927D01*
X050274Y057927D02*
X050926Y057927D01*
X050764Y058045D02*
X050436Y058045D01*
X050505Y058164D02*
X050695Y058164D01*
X050662Y058282D02*
X050538Y058282D01*
X050538Y058401D02*
X050662Y058401D01*
X050662Y058519D02*
X050538Y058519D01*
X050538Y058638D02*
X050662Y058638D01*
X050662Y058756D02*
X050538Y058756D01*
X050538Y058875D02*
X050662Y058875D01*
X050662Y058993D02*
X050538Y058993D01*
X050495Y059112D02*
X050705Y059112D01*
X050789Y059230D02*
X050411Y059230D01*
X051411Y059230D02*
X051789Y059230D01*
X051705Y059112D02*
X051495Y059112D01*
X051538Y058993D02*
X051662Y058993D01*
X051662Y058875D02*
X051538Y058875D01*
X051538Y058756D02*
X051662Y058756D01*
X051662Y058638D02*
X051538Y058638D01*
X051538Y058519D02*
X051662Y058519D01*
X051662Y058401D02*
X051538Y058401D01*
X051538Y058282D02*
X051662Y058282D01*
X051695Y058164D02*
X051505Y058164D01*
X051436Y058045D02*
X051764Y058045D01*
X051926Y057927D02*
X051274Y057927D01*
X052274Y057927D02*
X052926Y057927D01*
X052764Y058045D02*
X052436Y058045D01*
X052505Y058164D02*
X052695Y058164D01*
X052662Y058282D02*
X052538Y058282D01*
X052538Y058401D02*
X052662Y058401D01*
X052662Y058519D02*
X052538Y058519D01*
X052538Y058638D02*
X052662Y058638D01*
X052662Y058756D02*
X052538Y058756D01*
X052538Y058875D02*
X052662Y058875D01*
X052662Y058993D02*
X052538Y058993D01*
X052495Y059112D02*
X052705Y059112D01*
X052789Y059230D02*
X052411Y059230D01*
X053411Y059230D02*
X053762Y059230D01*
X053684Y059112D02*
X053495Y059112D01*
X053538Y058993D02*
X053649Y058993D01*
X053643Y058875D02*
X053538Y058875D01*
X054265Y059349D02*
X060064Y059349D01*
X060183Y059230D02*
X054438Y059230D01*
X054516Y059112D02*
X060301Y059112D01*
X058769Y054016D02*
X053431Y054016D01*
X053540Y053898D02*
X058660Y053898D01*
X058611Y053779D02*
X053589Y053779D01*
X053611Y053661D02*
X058589Y053661D01*
X058589Y053542D02*
X053611Y053542D01*
X053569Y053424D02*
X058631Y053424D01*
X058698Y053305D02*
X053502Y053305D01*
X053376Y053187D02*
X058824Y053187D01*
X057754Y052002D02*
X052446Y052002D01*
X052546Y051883D02*
X057654Y051883D01*
X057605Y051765D02*
X052595Y051765D01*
X052611Y051646D02*
X057589Y051646D01*
X057589Y051528D02*
X052611Y051528D01*
X052563Y051409D02*
X057637Y051409D01*
X057712Y051291D02*
X052488Y051291D01*
X052341Y051172D02*
X057859Y051172D01*
X056740Y049987D02*
X051460Y049987D01*
X051552Y049869D02*
X056648Y049869D01*
X056599Y049750D02*
X051601Y049750D01*
X051611Y049632D02*
X056589Y049632D01*
X056594Y049513D02*
X051606Y049513D01*
X051557Y049395D02*
X056643Y049395D01*
X056727Y049276D02*
X051473Y049276D01*
X051306Y049158D02*
X056894Y049158D01*
X055891Y048091D02*
X050309Y048091D01*
X050475Y047973D02*
X055725Y047973D01*
X055642Y047854D02*
X050558Y047854D01*
X050607Y047736D02*
X055593Y047736D01*
X055589Y047617D02*
X050611Y047617D01*
X050600Y047499D02*
X055600Y047499D01*
X055649Y047380D02*
X050551Y047380D01*
X050459Y047262D02*
X055741Y047262D01*
X053821Y044062D02*
X048379Y044062D01*
X048389Y044058D02*
X048202Y044136D01*
X047998Y044136D01*
X047811Y044058D01*
X047667Y043914D01*
X047589Y043727D01*
X047589Y043523D01*
X047667Y043336D01*
X047811Y043192D01*
X047998Y043114D01*
X048202Y043114D01*
X048389Y043192D01*
X048533Y043336D01*
X048611Y043523D01*
X048611Y043727D01*
X048533Y043914D01*
X048389Y044058D01*
X048504Y043944D02*
X053696Y043944D01*
X053630Y043825D02*
X048570Y043825D01*
X048611Y043707D02*
X053589Y043707D01*
X053589Y043588D02*
X048611Y043588D01*
X048588Y043470D02*
X053612Y043470D01*
X053661Y043351D02*
X048539Y043351D01*
X048430Y043233D02*
X053770Y043233D01*
X052800Y042048D02*
X048546Y042048D01*
X048665Y041929D02*
X052682Y041929D01*
X052624Y041811D02*
X048783Y041811D01*
X048902Y041692D02*
X052589Y041692D01*
X052589Y041574D02*
X049020Y041574D01*
X049139Y041455D02*
X052618Y041455D01*
X052667Y041337D02*
X049257Y041337D01*
X049376Y041218D02*
X052785Y041218D01*
X049600Y040625D02*
X049100Y040625D01*
X047770Y043233D02*
X045600Y043233D01*
X045600Y043351D02*
X047661Y043351D01*
X047612Y043470D02*
X045600Y043470D01*
X045600Y043588D02*
X047589Y043588D01*
X047589Y043707D02*
X045600Y043707D01*
X045600Y043825D02*
X047630Y043825D01*
X047696Y043944D02*
X045600Y043944D01*
X045600Y044062D02*
X047821Y044062D01*
X049741Y047262D02*
X045600Y047262D01*
X045600Y047380D02*
X049649Y047380D01*
X049600Y047499D02*
X045600Y047499D01*
X045600Y047617D02*
X049589Y047617D01*
X049593Y047736D02*
X045600Y047736D01*
X045600Y047854D02*
X049642Y047854D01*
X049725Y047973D02*
X045600Y047973D01*
X045600Y048091D02*
X049891Y048091D01*
X050727Y049276D02*
X045600Y049276D01*
X045600Y049158D02*
X050894Y049158D01*
X050643Y049395D02*
X045600Y049395D01*
X045600Y049513D02*
X050594Y049513D01*
X050589Y049632D02*
X045600Y049632D01*
X045600Y049750D02*
X050599Y049750D01*
X050648Y049869D02*
X045600Y049869D01*
X045600Y049987D02*
X050740Y049987D01*
X052824Y053187D02*
X045600Y053187D01*
X045600Y053305D02*
X052698Y053305D01*
X052631Y053424D02*
X045600Y053424D01*
X045600Y053542D02*
X052589Y053542D01*
X052589Y053661D02*
X045600Y053661D01*
X045600Y053779D02*
X052611Y053779D01*
X052660Y053898D02*
X045600Y053898D01*
X045600Y054016D02*
X052769Y054016D01*
X053013Y054891D02*
X053187Y054891D01*
X053348Y054957D01*
X053471Y055080D01*
X053538Y055241D01*
X053538Y056009D01*
X053471Y056170D01*
X053348Y056293D01*
X053187Y056359D01*
X053013Y056359D01*
X052852Y056293D01*
X052729Y056170D01*
X052662Y056009D01*
X052662Y055241D01*
X052729Y055080D01*
X052852Y054957D01*
X053013Y054891D01*
X052845Y054964D02*
X052355Y054964D01*
X052348Y054957D02*
X052471Y055080D01*
X052538Y055241D01*
X052538Y056009D01*
X052471Y056170D01*
X052348Y056293D01*
X052187Y056359D01*
X052013Y056359D01*
X051852Y056293D01*
X051729Y056170D01*
X051662Y056009D01*
X051662Y055241D01*
X051729Y055080D01*
X051852Y054957D01*
X052013Y054891D01*
X052187Y054891D01*
X052348Y054957D01*
X052472Y055083D02*
X052728Y055083D01*
X052679Y055201D02*
X052521Y055201D01*
X052538Y055320D02*
X052662Y055320D01*
X052662Y055438D02*
X052538Y055438D01*
X052538Y055557D02*
X052662Y055557D01*
X052662Y055675D02*
X052538Y055675D01*
X052538Y055794D02*
X052662Y055794D01*
X052662Y055912D02*
X052538Y055912D01*
X052529Y056031D02*
X052671Y056031D01*
X052721Y056149D02*
X052479Y056149D01*
X052373Y056268D02*
X052827Y056268D01*
X053373Y056268D02*
X053800Y056268D01*
X053802Y056270D02*
X053752Y056219D01*
X053709Y056161D01*
X053677Y056097D01*
X053654Y056029D01*
X053643Y055958D01*
X053643Y055663D01*
X054062Y055663D01*
X054062Y056378D01*
X053993Y056367D01*
X053925Y056345D01*
X053861Y056313D01*
X053802Y056270D01*
X053703Y056149D02*
X053479Y056149D01*
X053529Y056031D02*
X053655Y056031D01*
X053643Y055912D02*
X053538Y055912D01*
X053538Y055794D02*
X053643Y055794D01*
X053643Y055675D02*
X053538Y055675D01*
X053538Y055557D02*
X053643Y055557D01*
X053643Y055587D02*
X053643Y055292D01*
X053654Y055221D01*
X053677Y055153D01*
X053709Y055089D01*
X053752Y055031D01*
X053802Y054980D01*
X053861Y054937D01*
X053925Y054905D01*
X053993Y054883D01*
X054062Y054872D01*
X054062Y055587D01*
X053643Y055587D01*
X053643Y055438D02*
X053538Y055438D01*
X053538Y055320D02*
X053643Y055320D01*
X053661Y055201D02*
X053521Y055201D01*
X053472Y055083D02*
X053714Y055083D01*
X053824Y054964D02*
X053355Y054964D01*
X054062Y054964D02*
X054138Y054964D01*
X054138Y055083D02*
X054062Y055083D01*
X054062Y055201D02*
X054138Y055201D01*
X054138Y055320D02*
X054062Y055320D01*
X054062Y055438D02*
X054138Y055438D01*
X054138Y055557D02*
X054062Y055557D01*
X054062Y055675D02*
X054138Y055675D01*
X054138Y055794D02*
X054062Y055794D01*
X054062Y055912D02*
X054138Y055912D01*
X054138Y056031D02*
X054062Y056031D01*
X054062Y056149D02*
X054138Y056149D01*
X054138Y056268D02*
X054062Y056268D01*
X054545Y056031D02*
X054757Y056031D01*
X054653Y055912D02*
X054557Y055912D01*
X054557Y055794D02*
X054597Y055794D01*
X051827Y056268D02*
X051373Y056268D01*
X051348Y056293D02*
X051187Y056359D01*
X051013Y056359D01*
X050852Y056293D01*
X050729Y056170D01*
X050662Y056009D01*
X050662Y055241D01*
X050729Y055080D01*
X050852Y054957D01*
X051013Y054891D01*
X051187Y054891D01*
X051348Y054957D01*
X051471Y055080D01*
X051538Y055241D01*
X051538Y056009D01*
X051471Y056170D01*
X051348Y056293D01*
X051479Y056149D02*
X051721Y056149D01*
X051671Y056031D02*
X051529Y056031D01*
X051538Y055912D02*
X051662Y055912D01*
X051662Y055794D02*
X051538Y055794D01*
X051538Y055675D02*
X051662Y055675D01*
X051662Y055557D02*
X051538Y055557D01*
X051538Y055438D02*
X051662Y055438D01*
X051662Y055320D02*
X051538Y055320D01*
X051521Y055201D02*
X051679Y055201D01*
X051728Y055083D02*
X051472Y055083D01*
X051355Y054964D02*
X051845Y054964D01*
X050845Y054964D02*
X050355Y054964D01*
X050348Y054957D02*
X050471Y055080D01*
X050538Y055241D01*
X050538Y056009D01*
X050471Y056170D01*
X050348Y056293D01*
X050187Y056359D01*
X050013Y056359D01*
X049852Y056293D01*
X049729Y056170D01*
X049662Y056009D01*
X049662Y055241D01*
X049729Y055080D01*
X049852Y054957D01*
X050013Y054891D01*
X050187Y054891D01*
X050348Y054957D01*
X050472Y055083D02*
X050728Y055083D01*
X050679Y055201D02*
X050521Y055201D01*
X050538Y055320D02*
X050662Y055320D01*
X050662Y055438D02*
X050538Y055438D01*
X050538Y055557D02*
X050662Y055557D01*
X050662Y055675D02*
X050538Y055675D01*
X050538Y055794D02*
X050662Y055794D01*
X050662Y055912D02*
X050538Y055912D01*
X050529Y056031D02*
X050671Y056031D01*
X050721Y056149D02*
X050479Y056149D01*
X050373Y056268D02*
X050827Y056268D01*
X049827Y056268D02*
X049373Y056268D01*
X049348Y056293D02*
X049187Y056359D01*
X049013Y056359D01*
X048852Y056293D01*
X048729Y056170D01*
X048662Y056009D01*
X048662Y055241D01*
X048729Y055080D01*
X048852Y054957D01*
X049013Y054891D01*
X049187Y054891D01*
X049348Y054957D01*
X049471Y055080D01*
X049538Y055241D01*
X049538Y056009D01*
X049471Y056170D01*
X049348Y056293D01*
X049479Y056149D02*
X049721Y056149D01*
X049671Y056031D02*
X049529Y056031D01*
X049538Y055912D02*
X049662Y055912D01*
X049662Y055794D02*
X049538Y055794D01*
X049538Y055675D02*
X049662Y055675D01*
X049662Y055557D02*
X049538Y055557D01*
X049538Y055438D02*
X049662Y055438D01*
X049662Y055320D02*
X049538Y055320D01*
X049521Y055201D02*
X049679Y055201D01*
X049728Y055083D02*
X049472Y055083D01*
X049355Y054964D02*
X049845Y054964D01*
X048845Y054964D02*
X048355Y054964D01*
X048348Y054957D02*
X048471Y055080D01*
X048538Y055241D01*
X048538Y056009D01*
X048471Y056170D01*
X048348Y056293D01*
X048187Y056359D01*
X048013Y056359D01*
X047852Y056293D01*
X047729Y056170D01*
X047662Y056009D01*
X047662Y055241D01*
X047729Y055080D01*
X047852Y054957D01*
X048013Y054891D01*
X048187Y054891D01*
X048348Y054957D01*
X048472Y055083D02*
X048728Y055083D01*
X048679Y055201D02*
X048521Y055201D01*
X048538Y055320D02*
X048662Y055320D01*
X048662Y055438D02*
X048538Y055438D01*
X048538Y055557D02*
X048662Y055557D01*
X048662Y055675D02*
X048538Y055675D01*
X048538Y055794D02*
X048662Y055794D01*
X048662Y055912D02*
X048538Y055912D01*
X048529Y056031D02*
X048671Y056031D01*
X048721Y056149D02*
X048479Y056149D01*
X048373Y056268D02*
X048827Y056268D01*
X047827Y056268D02*
X047373Y056268D01*
X047348Y056293D02*
X047187Y056359D01*
X047013Y056359D01*
X046852Y056293D01*
X046729Y056170D01*
X046662Y056009D01*
X046662Y055241D01*
X046729Y055080D01*
X046852Y054957D01*
X047013Y054891D01*
X047187Y054891D01*
X047348Y054957D01*
X047471Y055080D01*
X047538Y055241D01*
X047538Y056009D01*
X047471Y056170D01*
X047348Y056293D01*
X047479Y056149D02*
X047721Y056149D01*
X047671Y056031D02*
X047529Y056031D01*
X047538Y055912D02*
X047662Y055912D01*
X047662Y055794D02*
X047538Y055794D01*
X047538Y055675D02*
X047662Y055675D01*
X047662Y055557D02*
X047538Y055557D01*
X047538Y055438D02*
X047662Y055438D01*
X047662Y055320D02*
X047538Y055320D01*
X047521Y055201D02*
X047679Y055201D01*
X047728Y055083D02*
X047472Y055083D01*
X047355Y054964D02*
X047845Y054964D01*
X046845Y054964D02*
X046355Y054964D01*
X046472Y055083D02*
X046728Y055083D01*
X046679Y055201D02*
X046521Y055201D01*
X046538Y055320D02*
X046662Y055320D01*
X046662Y055438D02*
X046538Y055438D01*
X046538Y055557D02*
X046662Y055557D01*
X046662Y055675D02*
X046538Y055675D01*
X046538Y055794D02*
X046662Y055794D01*
X046662Y055912D02*
X046538Y055912D01*
X046529Y056031D02*
X046671Y056031D01*
X046721Y056149D02*
X046479Y056149D01*
X046373Y056268D02*
X046827Y056268D01*
X062100Y044375D02*
X062350Y044625D01*
X062600Y044625D01*
X063350Y046125D02*
X063600Y046125D01*
X063350Y046125D02*
X063100Y046375D01*
X064100Y048125D02*
X064600Y048125D01*
X065100Y050125D02*
X065600Y050125D01*
X071350Y043625D02*
X071600Y043625D01*
X072350Y042875D01*
X072350Y042375D01*
X071850Y041875D01*
X069350Y041875D01*
X070100Y038625D02*
X070100Y037375D01*
X070850Y036625D01*
X071600Y035875D02*
X071600Y038375D01*
X067100Y037625D02*
X067100Y035625D01*
X067100Y037625D02*
X066850Y037875D01*
X061600Y042125D02*
X061350Y042125D01*
X061100Y042375D01*
X053600Y037125D02*
X053600Y034125D01*
X053600Y031625D02*
X053600Y030625D01*
X052350Y030625D02*
X052100Y030625D01*
X048600Y029125D02*
X048100Y029625D01*
X047100Y029625D01*
X046850Y029875D01*
X046850Y030375D01*
X050100Y033625D01*
X047600Y034125D02*
X047350Y034375D01*
X047350Y035625D01*
X044475Y034125D02*
X044100Y034125D01*
X043850Y033875D01*
X042350Y033875D01*
X040600Y035625D01*
X040100Y035625D01*
X039600Y035125D01*
X039600Y033625D01*
X040600Y032625D01*
X042100Y032625D01*
X043100Y031625D01*
X043100Y028125D01*
X046100Y025125D01*
X046100Y021625D01*
X047100Y023625D02*
X047100Y024625D01*
X044600Y027125D01*
X044600Y031125D01*
X042600Y033125D01*
X041100Y031625D02*
X041100Y030125D01*
X039600Y028625D01*
X038624Y028625D01*
X038600Y029399D01*
X041100Y031625D02*
X039100Y033625D01*
X039100Y034125D01*
X038350Y036875D02*
X037850Y037375D01*
X026600Y037375D01*
X026100Y036875D01*
X026100Y035125D01*
X025600Y034125D02*
X025600Y033875D01*
X027100Y031375D02*
X027350Y031375D01*
X027600Y031125D01*
X028850Y031125D01*
X028350Y030875D02*
X028600Y030625D01*
X028350Y030875D02*
X027350Y030875D01*
X046350Y029875D02*
X047100Y029125D01*
X047600Y029125D01*
X046350Y029875D02*
X046350Y032125D01*
X047100Y023625D02*
X053600Y023625D01*
X054100Y023125D01*
X004850Y048625D02*
X004850Y049375D01*
X005100Y049625D01*
D36*
X025600Y036625D03*
X030850Y035125D03*
X045850Y043125D03*
D37*
X046600Y043625D01*
X046600Y044625D01*
X044019Y044552D02*
X035350Y044552D01*
X035350Y045050D02*
X044019Y045050D01*
X044019Y045549D02*
X035350Y045549D01*
X035350Y046047D02*
X044019Y046047D01*
X044019Y046546D02*
X035350Y046546D01*
X035350Y047044D02*
X044019Y047044D01*
X044019Y047543D02*
X035350Y047543D01*
X035350Y048041D02*
X044019Y048041D01*
X044019Y048540D02*
X035350Y048540D01*
X035350Y049038D02*
X044019Y049038D01*
X044019Y049537D02*
X035350Y049537D01*
X035350Y050035D02*
X044019Y050035D01*
X044019Y050534D02*
X035350Y050534D01*
X035350Y051032D02*
X044019Y051032D01*
X044019Y051531D02*
X035350Y051531D01*
X035350Y052029D02*
X044019Y052029D01*
X044019Y052528D02*
X035350Y052528D01*
X035350Y053026D02*
X044019Y053026D01*
X044019Y053525D02*
X035350Y053525D01*
X035350Y054023D02*
X044019Y054023D01*
X044019Y054522D02*
X035350Y054522D01*
X035350Y055020D02*
X044019Y055020D01*
X044019Y055519D02*
X035350Y055519D01*
X035350Y056017D02*
X044019Y056017D01*
X044019Y056516D02*
X035350Y056516D01*
X035350Y057014D02*
X044019Y057014D01*
X044019Y057513D02*
X035350Y057513D01*
X035350Y058011D02*
X044019Y058011D01*
X044019Y058510D02*
X035350Y058510D01*
X035350Y058544D02*
X044019Y058544D01*
X044019Y042009D01*
X044108Y041796D01*
X045100Y040804D01*
X045100Y040125D01*
X035350Y040125D01*
X035350Y058544D01*
X034600Y058544D02*
X034600Y049125D01*
X028275Y049125D01*
X028205Y049154D01*
X027995Y049154D01*
X027925Y049125D01*
X020600Y049125D01*
X020600Y057815D01*
X020681Y058009D01*
X020681Y058384D01*
X020841Y058544D01*
X034600Y058544D01*
X034600Y058510D02*
X020806Y058510D01*
X020681Y058011D02*
X034600Y058011D01*
X034600Y057513D02*
X020600Y057513D01*
X020600Y057014D02*
X034600Y057014D01*
X034600Y056516D02*
X020600Y056516D01*
X020600Y056017D02*
X034600Y056017D01*
X034600Y055519D02*
X020600Y055519D01*
X020600Y055020D02*
X034600Y055020D01*
X034600Y054522D02*
X020600Y054522D01*
X020600Y054023D02*
X034600Y054023D01*
X034600Y053525D02*
X020600Y053525D01*
X020600Y053026D02*
X034600Y053026D01*
X034600Y052528D02*
X020600Y052528D01*
X020600Y052029D02*
X034600Y052029D01*
X034600Y051531D02*
X020600Y051531D01*
X020600Y051032D02*
X034600Y051032D01*
X034600Y050534D02*
X020600Y050534D01*
X020600Y050035D02*
X034600Y050035D01*
X034600Y049537D02*
X020600Y049537D01*
X020600Y048125D02*
X020600Y040125D01*
X027571Y040125D01*
X027571Y040230D01*
X027652Y040425D01*
X027689Y040462D01*
X027689Y048125D01*
X020600Y048125D01*
X020600Y048041D02*
X027689Y048041D01*
X027689Y047543D02*
X020600Y047543D01*
X020600Y047044D02*
X027689Y047044D01*
X027689Y046546D02*
X020600Y046546D01*
X020600Y046047D02*
X027689Y046047D01*
X027689Y045549D02*
X020600Y045549D01*
X020600Y045050D02*
X027689Y045050D01*
X027689Y044552D02*
X020600Y044552D01*
X020600Y044053D02*
X027689Y044053D01*
X027689Y043555D02*
X020600Y043555D01*
X020600Y043056D02*
X027689Y043056D01*
X027689Y042558D02*
X020600Y042558D01*
X020600Y042059D02*
X027689Y042059D01*
X027689Y041561D02*
X020600Y041561D01*
X020600Y041062D02*
X027689Y041062D01*
X027689Y040564D02*
X020600Y040564D01*
X028511Y040564D02*
X034600Y040564D01*
X034600Y040125D02*
X028629Y040125D01*
X028629Y040230D01*
X028548Y040425D01*
X028511Y040462D01*
X028511Y048125D01*
X034600Y048125D01*
X034600Y040125D01*
X035350Y040564D02*
X045100Y040564D01*
X044842Y041062D02*
X035350Y041062D01*
X035350Y041561D02*
X044343Y041561D01*
X044019Y042059D02*
X035350Y042059D01*
X035350Y042558D02*
X044019Y042558D01*
X044019Y043056D02*
X035350Y043056D01*
X035350Y043555D02*
X044019Y043555D01*
X044019Y044053D02*
X035350Y044053D01*
X034600Y044053D02*
X028511Y044053D01*
X028511Y043555D02*
X034600Y043555D01*
X034600Y043056D02*
X028511Y043056D01*
X028511Y042558D02*
X034600Y042558D01*
X034600Y042059D02*
X028511Y042059D01*
X028511Y041561D02*
X034600Y041561D01*
X034600Y041062D02*
X028511Y041062D01*
X028511Y044552D02*
X034600Y044552D01*
X034600Y045050D02*
X028511Y045050D01*
X028511Y045549D02*
X034600Y045549D01*
X034600Y046047D02*
X028511Y046047D01*
X028511Y046546D02*
X034600Y046546D01*
X034600Y047044D02*
X028511Y047044D01*
X028511Y047543D02*
X034600Y047543D01*
X034600Y048041D02*
X028511Y048041D01*
X019100Y057125D02*
X013600Y057125D01*
X012600Y058125D01*
X019100Y057125D02*
X020100Y058125D01*
X020100Y058625D01*
X020600Y059125D01*
X044600Y059125D01*
X044600Y042125D01*
X045600Y041125D01*
X046100Y041125D01*
X046350Y041125D01*
X046600Y040875D01*
X046850Y040875D01*
X047600Y040125D01*
X047600Y039625D01*
D38*
X045850Y037125D03*
X047350Y035625D03*
X049600Y035625D03*
X050100Y034625D03*
X050850Y034625D03*
X051600Y034625D03*
X053600Y031625D03*
X053600Y030625D03*
X052350Y030625D03*
X052600Y026625D03*
X046100Y021625D03*
X042850Y034375D03*
X044350Y035125D03*
X043475Y036000D03*
X042600Y036125D03*
X038350Y037625D03*
X036850Y039125D03*
X032100Y043625D03*
X031600Y044125D03*
X031100Y043625D03*
X030600Y044125D03*
X030100Y043625D03*
X029600Y044125D03*
X030100Y044625D03*
X029600Y045125D03*
X030100Y045625D03*
X030600Y045125D03*
X031100Y044625D03*
X031600Y045125D03*
X031100Y045625D03*
X030600Y046125D03*
X030100Y046625D03*
X029600Y046125D03*
X029600Y047125D03*
X030100Y047625D03*
X030600Y047125D03*
X031100Y046625D03*
X031600Y046125D03*
X032100Y046625D03*
X031600Y047125D03*
X031100Y047625D03*
X032100Y047625D03*
X032600Y047125D03*
X032600Y046125D03*
X032100Y045625D03*
X032600Y045125D03*
X032100Y044625D03*
X032600Y044125D03*
X028100Y040125D03*
X025100Y043625D03*
X024600Y044125D03*
X024100Y043625D03*
X023600Y044125D03*
X023100Y043625D03*
X022600Y044125D03*
X023100Y044625D03*
X022600Y045125D03*
X023100Y045625D03*
X023600Y045125D03*
X024100Y044625D03*
X024600Y045125D03*
X024100Y045625D03*
X023600Y046125D03*
X023100Y046625D03*
X022600Y046125D03*
X022600Y047125D03*
X023100Y047625D03*
X023600Y047125D03*
X024100Y046625D03*
X024600Y046125D03*
X025100Y046625D03*
X024600Y047125D03*
X024100Y047625D03*
X025100Y047625D03*
X025600Y047125D03*
X025600Y046125D03*
X025100Y045625D03*
X025600Y045125D03*
X025100Y044625D03*
X025600Y044125D03*
X028100Y048625D03*
X019850Y038875D03*
X019100Y038875D03*
X020600Y037625D03*
X020100Y037125D03*
X024850Y029125D03*
X027350Y029125D03*
X007100Y047875D03*
X009850Y049125D03*
X010850Y048875D03*
X003600Y049125D03*
X002850Y049125D03*
X002100Y049125D03*
X001350Y049125D03*
X001475Y047500D03*
X044600Y059125D03*
X045600Y057125D03*
X059350Y058625D03*
X069100Y058125D03*
X073100Y055625D03*
X072100Y048625D03*
X063350Y036375D03*
X066600Y029125D03*
D39*
X061850Y036125D03*
X069350Y041875D03*
X070850Y036625D03*
M02*
