M48
; DRILL file {KiCad (6.0.8)} date Thu Oct 20 17:14:05 2022
; FORMAT={-:-/ absolute / metric / decimal}
; #@! TF.CreationDate,2022-10-20T17:14:05-05:00
; #@! TF.GenerationSoftware,Kicad,Pcbnew,(6.0.8)
; #@! TF.FileFunction,Plated,1,2,PTH
FMAT,2
METRIC
; #@! TA.AperFunction,Plated,PTH,ViaDrill
T1C0.400
; #@! TA.AperFunction,Plated,PTH,ComponentDrill
T2C0.500
; #@! TA.AperFunction,Plated,PTH,ComponentDrill
T3C0.700
; #@! TA.AperFunction,Plated,PTH,ComponentDrill
T4C0.750
; #@! TA.AperFunction,Plated,PTH,ComponentDrill
T5C0.800
; #@! TA.AperFunction,Plated,PTH,ComponentDrill
T6C0.850
; #@! TA.AperFunction,Plated,PTH,ComponentDrill
T7C0.900
; #@! TA.AperFunction,Plated,PTH,ComponentDrill
T8C2.000
; #@! TA.AperFunction,Plated,PTH,ComponentDrill
T9C9.144
%
G90
G05
T1
X143.51Y-133.096
X144.78Y-134.112
X146.05Y-44.45
X146.05Y-57.15
X146.05Y-69.85
X146.05Y-95.25
X146.05Y-120.65
X149.606Y-134.112
X150.368Y-136.652
X150.368Y-137.922
X152.654Y-156.21
X154.301Y-135.599
X155.194Y-146.05
X156.468Y-135.632
X158.75Y-165.1
X161.544Y-134.112
X161.798Y-124.206
X163.83Y-131.064
X166.405Y-126.746
X167.132Y-132.334
X168.656Y-105.664
X170.18Y-108.458
X170.942Y-115.824
X170.942Y-129.54
X170.942Y-132.334
X171.45Y-165.1
X171.958Y-112.014
X172.466Y-128.524
X172.466Y-130.81
X172.72Y-45.72
X172.72Y-66.04
X172.72Y-76.2
X172.72Y-86.36
X172.72Y-96.52
X173.482Y-113.538
X174.752Y-115.824
X175.26Y-110.236
X176.276Y-117.856
X176.784Y-109.22
X177.327Y-126.746
X178.562Y-109.22
X178.816Y-113.284
X179.07Y-126.238
X180.086Y-126.238
X180.848Y-116.078
X181.356Y-113.284
X181.864Y-126.238
X181.864Y-129.286
X182.372Y-122.428
X182.372Y-125.222
X182.372Y-130.048
X182.63Y-132.338
X182.88Y-45.72
X182.88Y-55.88
X182.88Y-66.04
X182.88Y-76.2
X182.88Y-86.36
X182.88Y-96.52
X182.88Y-126.238
X182.88Y-129.286
X183.134Y-116.078
X183.896Y-113.284
X184.15Y-165.1
X185.42Y-112.014
X185.42Y-112.014
X185.42Y-116.078
X185.928Y-131.318
X186.69Y-114.808
X186.944Y-110.49
X186.979Y-126.746
X188.214Y-113.03
X188.468Y-108.966
X188.595Y-52.07
X188.595Y-53.975
X188.595Y-56.515
X188.595Y-59.055
X188.595Y-60.96
X189.738Y-111.506
X190.5Y-52.07
X190.5Y-53.975
X190.5Y-56.515
X190.5Y-59.055
X190.5Y-60.96
X191.516Y-109.728
X191.516Y-129.54
X191.77Y-132.334
X192.405Y-52.07
X192.405Y-53.975
X192.405Y-56.515
X192.405Y-59.055
X192.405Y-60.96
X193.04Y-45.72
X193.04Y-66.04
X193.04Y-76.2
X193.04Y-86.36
X193.04Y-96.52
X193.04Y-128.524
X193.04Y-130.81
X194.056Y-134.366
X194.31Y-52.07
X194.31Y-53.975
X194.31Y-56.515
X194.31Y-59.055
X194.31Y-60.96
X196.215Y-52.07
X196.215Y-53.975
X196.215Y-56.515
X196.215Y-59.055
X196.215Y-60.96
X196.85Y-165.1
X197.901Y-126.746
X199.644Y-126.492
X199.898Y-134.366
X200.152Y-125.73
X200.66Y-126.492
X202.692Y-126.492
X202.692Y-134.874
X203.2Y-45.72
X203.2Y-66.04
X203.2Y-76.2
X203.2Y-86.36
X203.2Y-96.52
X203.2Y-131.064
X203.962Y-126.492
X204.216Y-133.35
X205.232Y-126.492
X206.502Y-131.318
X207.264Y-134.874
X207.553Y-126.746
X208.28Y-132.334
X209.55Y-165.1
X210.312Y-123.19
X210.82Y-122.428
X211.328Y-123.19
X211.328Y-134.874
X212.09Y-129.54
X212.344Y-132.334
X213.36Y-45.72
X213.36Y-55.88
X213.36Y-66.04
X213.36Y-76.2
X213.36Y-86.36
X213.36Y-96.52
X213.614Y-128.524
X213.614Y-130.81
X214.122Y-134.874
X216.662Y-123.698
X217.17Y-134.874
X218.221Y-126.746
X220.218Y-134.874
X220.98Y-126.238
X222.25Y-165.1
X223.52Y-45.72
X223.52Y-55.88
X223.52Y-66.04
X223.52Y-76.2
X223.52Y-86.36
X223.52Y-96.52
X223.774Y-126.492
X223.774Y-131.318
X225.806Y-126.492
X225.806Y-133.604
X227.33Y-131.318
X227.33Y-132.842
X227.33Y-138.938
X228.127Y-126.492
X228.854Y-133.604
X232.664Y-129.54
X232.664Y-131.826
X233.68Y-66.04
X233.68Y-76.2
X233.68Y-96.52
X234.188Y-128.524
X234.188Y-130.81
X234.95Y-165.1
X238.795Y-126.492
X243.84Y-45.72
X243.84Y-76.2
X247.65Y-165.1
X254.0Y-45.72
X254.0Y-55.88
X254.0Y-66.04
X254.0Y-76.2
X254.0Y-86.36
X254.0Y-96.52
X254.0Y-120.65
X254.0Y-133.35
X254.0Y-146.05
T2
X188.926Y-81.235
X188.926Y-82.495
X189.676Y-80.205
X189.676Y-83.525
X190.876Y-79.815
X190.876Y-83.915
X192.206Y-79.815
X192.206Y-83.915
X193.546Y-79.815
X193.546Y-83.915
X194.876Y-79.815
X194.876Y-83.915
X196.076Y-80.205
X196.076Y-83.525
X196.826Y-81.235
X196.826Y-82.495
X198.926Y-81.235
X198.926Y-82.495
X199.676Y-80.205
X199.676Y-83.525
X200.876Y-79.815
X200.876Y-83.915
X202.206Y-79.815
X202.206Y-83.915
X203.546Y-79.815
X203.546Y-83.915
X204.876Y-79.815
X204.876Y-83.915
X206.076Y-80.205
X206.076Y-83.525
X206.826Y-81.235
X206.826Y-82.495
T3
X165.624Y-140.372
X165.624Y-142.372
X165.624Y-144.372
X167.624Y-140.372
X167.624Y-142.372
X167.624Y-144.372
T4
X159.004Y-150.112
X161.544Y-150.112
X164.084Y-150.112
X166.624Y-150.112
X169.164Y-150.112
T5
X152.654Y-137.922
X152.654Y-153.162
X155.194Y-137.922
X155.194Y-140.462
X155.194Y-153.162
X157.734Y-137.922
X157.734Y-153.162
X160.274Y-137.922
X160.274Y-153.162
X160.528Y-105.45
X160.528Y-107.95
X162.814Y-137.922
X162.814Y-153.162
X165.354Y-137.922
X165.354Y-153.162
X167.894Y-137.922
X167.894Y-153.162
X170.434Y-137.922
X170.434Y-153.162
X172.974Y-137.922
X172.974Y-153.162
X174.498Y-105.45
X174.498Y-107.95
X175.514Y-137.922
X175.514Y-153.162
X178.054Y-137.922
X178.054Y-153.162
X180.594Y-137.922
X180.594Y-153.162
X183.134Y-137.922
X183.134Y-153.162
X185.674Y-137.922
X185.674Y-153.162
X188.214Y-137.922
X188.214Y-153.162
X190.754Y-137.922
X190.754Y-153.162
X193.294Y-137.922
X193.294Y-153.162
X195.834Y-137.922
X195.834Y-153.162
X195.966Y-103.265
X197.876Y-103.265
X198.374Y-137.922
X198.374Y-140.462
X198.374Y-143.002
X198.374Y-145.542
X198.374Y-148.082
X198.374Y-150.622
X198.374Y-153.162
X199.786Y-103.265
X200.914Y-137.922
X200.914Y-153.162
X203.454Y-137.922
X203.454Y-153.162
X205.994Y-137.922
X205.994Y-153.162
X208.534Y-137.922
X208.534Y-153.162
X211.074Y-137.922
X211.074Y-153.162
T6
X151.384Y-112.014
X153.924Y-112.014
X156.464Y-112.014
X164.592Y-112.014
X167.132Y-112.014
X169.672Y-112.014
T7
X145.288Y-141.922
X145.288Y-144.463
X145.542Y-126.746
X145.542Y-129.286
X145.542Y-131.826
X166.37Y-63.5
X166.37Y-66.04
X166.37Y-68.58
X166.37Y-71.12
X166.37Y-71.12
X181.102Y-105.41
X181.102Y-107.95
X181.102Y-110.49
X217.678Y-109.982
X217.678Y-116.84
X220.218Y-109.982
X220.218Y-116.84
X222.758Y-109.982
X222.758Y-116.84
X225.298Y-109.982
X225.298Y-116.84
X227.838Y-109.982
X227.838Y-116.84
X230.378Y-109.982
X230.378Y-116.84
X232.918Y-109.982
X232.918Y-116.84
X235.458Y-109.982
X235.458Y-116.84
X237.998Y-109.982
X237.998Y-116.84
T9
X153.924Y-87.376
X242.824Y-56.896
X242.824Y-87.376
T8
X190.876Y-81.865G85X194.876Y-81.865
G05
X200.876Y-81.865G85X204.876Y-81.865
G05
X208.7Y-98.954G85X208.7Y-96.854
G05
X208.7Y-104.754G85X208.7Y-106.854
G05
T0
M30
