G04 #@! TF.GenerationSoftware,KiCad,Pcbnew,(6.0.8)*
G04 #@! TF.CreationDate,2022-10-20T17:13:59-05:00*
G04 #@! TF.ProjectId,2022Rev3,32303232-5265-4763-932e-6b696361645f,rev?*
G04 #@! TF.SameCoordinates,Original*
G04 #@! TF.FileFunction,Soldermask,Top*
G04 #@! TF.FilePolarity,Negative*
%FSLAX46Y46*%
G04 Gerber Fmt 4.6, Leading zero omitted, Abs format (unit mm)*
G04 Created by KiCad (PCBNEW (6.0.8)) date 2022-10-20 17:13:59*
%MOMM*%
%LPD*%
G01*
G04 APERTURE LIST*
G04 Aperture macros list*
%AMRoundRect*
0 Rectangle with rounded corners*
0 $1 Rounding radius*
0 $2 $3 $4 $5 $6 $7 $8 $9 X,Y pos of 4 corners*
0 Add a 4 corners polygon primitive as box body*
4,1,4,$2,$3,$4,$5,$6,$7,$8,$9,$2,$3,0*
0 Add four circle primitives for the rounded corners*
1,1,$1+$1,$2,$3*
1,1,$1+$1,$4,$5*
1,1,$1+$1,$6,$7*
1,1,$1+$1,$8,$9*
0 Add four rect primitives between the rounded corners*
20,1,$1+$1,$2,$3,$4,$5,0*
20,1,$1+$1,$4,$5,$6,$7,0*
20,1,$1+$1,$6,$7,$8,$9,0*
20,1,$1+$1,$8,$9,$2,$3,0*%
%AMHorizOval*
0 Thick line with rounded ends*
0 $1 width*
0 $2 $3 position (X,Y) of the first rounded end (center of the circle)*
0 $4 $5 position (X,Y) of the second rounded end (center of the circle)*
0 Add line between two ends*
20,1,$1,$2,$3,$4,$5,0*
0 Add two circle primitives to create the rounded ends*
1,1,$1,$2,$3*
1,1,$1,$4,$5*%
G04 Aperture macros list end*
%ADD10RoundRect,0.237500X-0.250000X-0.237500X0.250000X-0.237500X0.250000X0.237500X-0.250000X0.237500X0*%
%ADD11R,1.358000X1.358000*%
%ADD12C,1.358000*%
%ADD13R,0.800000X1.900000*%
%ADD14RoundRect,0.237500X-0.237500X0.250000X-0.237500X-0.250000X0.237500X-0.250000X0.237500X0.250000X0*%
%ADD15RoundRect,0.150000X0.725000X0.150000X-0.725000X0.150000X-0.725000X-0.150000X0.725000X-0.150000X0*%
%ADD16RoundRect,0.237500X0.250000X0.237500X-0.250000X0.237500X-0.250000X-0.237500X0.250000X-0.237500X0*%
%ADD17C,1.524000*%
%ADD18C,2.946400*%
%ADD19RoundRect,0.237500X0.237500X-0.287500X0.237500X0.287500X-0.237500X0.287500X-0.237500X-0.287500X0*%
%ADD20R,6.000000X2.500000*%
%ADD21RoundRect,0.237500X0.287500X0.237500X-0.287500X0.237500X-0.287500X-0.237500X0.287500X-0.237500X0*%
%ADD22RoundRect,0.237500X-0.287500X-0.237500X0.287500X-0.237500X0.287500X0.237500X-0.287500X0.237500X0*%
%ADD23RoundRect,0.237500X-0.300000X-0.237500X0.300000X-0.237500X0.300000X0.237500X-0.300000X0.237500X0*%
%ADD24RoundRect,0.237500X0.300000X0.237500X-0.300000X0.237500X-0.300000X-0.237500X0.300000X-0.237500X0*%
%ADD25RoundRect,0.250001X-2.474999X0.799999X-2.474999X-0.799999X2.474999X-0.799999X2.474999X0.799999X0*%
%ADD26C,18.288000*%
%ADD27RoundRect,0.237500X0.237500X-0.250000X0.237500X0.250000X-0.237500X0.250000X-0.237500X-0.250000X0*%
%ADD28R,4.600000X0.800000*%
%ADD29R,9.400000X10.800000*%
%ADD30R,1.600000X1.600000*%
%ADD31C,1.600000*%
%ADD32R,1.000000X0.700000*%
%ADD33O,3.000000X5.100000*%
%ADD34O,2.999999X5.100000*%
%ADD35RoundRect,0.150000X-0.725000X-0.150000X0.725000X-0.150000X0.725000X0.150000X-0.725000X0.150000X0*%
%ADD36R,1.500000X1.500000*%
%ADD37C,1.500000*%
%ADD38C,0.800000*%
%ADD39HorizOval,0.800000X0.000000X0.000000X0.000000X0.000000X0*%
%ADD40HorizOval,0.800000X0.000000X0.000000X0.000000X0.000000X0*%
%ADD41O,9.000000X6.000000*%
%ADD42C,1.308000*%
%ADD43C,1.258000*%
%ADD44C,1.208000*%
G04 APERTURE END LIST*
D10*
X230632000Y-126746000D03*
X232457000Y-126746000D03*
D11*
X169672000Y-112014000D03*
D12*
X167132000Y-112014000D03*
X164592000Y-112014000D03*
D13*
X208026000Y-157734000D03*
X206126000Y-157734000D03*
X207076000Y-160734000D03*
D10*
X213856000Y-126746000D03*
X215681000Y-126746000D03*
D14*
X162941000Y-58119000D03*
X162941000Y-59944000D03*
D10*
X172708000Y-126746000D03*
X174533000Y-126746000D03*
D15*
X236036000Y-132334000D03*
X236036000Y-131064000D03*
X236036000Y-129794000D03*
X236036000Y-128524000D03*
X230886000Y-128524000D03*
X230886000Y-129794000D03*
X230886000Y-131064000D03*
X230886000Y-132334000D03*
D14*
X164719000Y-58119000D03*
X164719000Y-59944000D03*
D10*
X176311000Y-129540000D03*
X178136000Y-129540000D03*
D16*
X208315000Y-129540000D03*
X206490000Y-129540000D03*
D10*
X157433000Y-118872000D03*
X159258000Y-118872000D03*
D17*
X145288000Y-144462500D03*
X145288000Y-141922500D03*
D16*
X198710000Y-128016000D03*
X196885000Y-128016000D03*
X178136000Y-128016000D03*
X176311000Y-128016000D03*
D18*
X234386120Y-42727880D03*
X145288000Y-162052000D03*
X162615880Y-42727880D03*
D15*
X194888000Y-132334000D03*
X194888000Y-131064000D03*
X194888000Y-129794000D03*
X194888000Y-128524000D03*
X189738000Y-128524000D03*
X189738000Y-129794000D03*
X189738000Y-131064000D03*
X189738000Y-132334000D03*
D19*
X227838000Y-104902000D03*
X227838000Y-103152000D03*
D20*
X227330000Y-157734000D03*
X214730000Y-157734000D03*
D21*
X228826000Y-124968000D03*
X227076000Y-124968000D03*
D10*
X193282000Y-126746000D03*
X195107000Y-126746000D03*
D19*
X222758000Y-104902000D03*
X222758000Y-103152000D03*
D10*
X238033000Y-132842000D03*
X239858000Y-132842000D03*
X227064000Y-128016000D03*
X228889000Y-128016000D03*
X217459000Y-132842000D03*
X219284000Y-132842000D03*
X165342000Y-128016000D03*
X167167000Y-128016000D03*
D19*
X235458000Y-104902000D03*
X235458000Y-103152000D03*
D16*
X239858000Y-128016000D03*
X238033000Y-128016000D03*
D22*
X220500000Y-123952000D03*
X222250000Y-123952000D03*
D10*
X206490000Y-128016000D03*
X208315000Y-128016000D03*
X238033000Y-129540000D03*
X239858000Y-129540000D03*
D19*
X230378000Y-104902000D03*
X230378000Y-103152000D03*
D22*
X179352000Y-123952000D03*
X181102000Y-123952000D03*
D10*
X170895000Y-118872000D03*
X172720000Y-118872000D03*
D16*
X217932000Y-139954000D03*
X216107000Y-139954000D03*
D10*
X176311000Y-132842000D03*
X178136000Y-132842000D03*
D19*
X225298000Y-104902000D03*
X225298000Y-103152000D03*
D23*
X161798000Y-118872000D03*
X163523000Y-118872000D03*
X148590000Y-118872000D03*
X150315000Y-118872000D03*
D16*
X162734000Y-72136000D03*
X160909000Y-72136000D03*
D24*
X171577000Y-59563000D03*
X169852000Y-59563000D03*
D25*
X188722000Y-98460000D03*
X188722000Y-105410000D03*
D16*
X207946000Y-155575000D03*
X206121000Y-155575000D03*
D19*
X237998000Y-104902000D03*
X237998000Y-103152000D03*
D16*
X239858000Y-131318000D03*
X238033000Y-131318000D03*
X219284000Y-128016000D03*
X217459000Y-128016000D03*
D26*
X153924000Y-87376000D03*
D10*
X196885000Y-132842000D03*
X198710000Y-132842000D03*
D27*
X147574000Y-137310500D03*
X147574000Y-135485500D03*
D21*
X208252000Y-124968000D03*
X206502000Y-124968000D03*
D17*
X181102000Y-105410000D03*
X181102000Y-107950000D03*
X181102000Y-110490000D03*
D19*
X162941000Y-56233000D03*
X162941000Y-54483000D03*
D17*
X166370000Y-63500000D03*
X166370000Y-66040000D03*
X166370000Y-68580000D03*
X166370000Y-71120000D03*
X166370000Y-71120000D03*
D16*
X228889000Y-129540000D03*
X227064000Y-129540000D03*
D10*
X185916000Y-128016000D03*
X187741000Y-128016000D03*
D28*
X201355000Y-60452000D03*
D29*
X192205000Y-56642000D03*
D28*
X201355000Y-54102000D03*
X201355000Y-57912000D03*
X201355000Y-55372000D03*
X201355000Y-59182000D03*
X201355000Y-52832000D03*
D16*
X178136000Y-131318000D03*
X176311000Y-131318000D03*
D27*
X160909000Y-70358000D03*
X160909000Y-68533000D03*
D30*
X160528000Y-107950000D03*
D31*
X160528000Y-105450000D03*
D10*
X210093000Y-126746000D03*
X211918000Y-126746000D03*
D32*
X145826000Y-137348000D03*
X145826000Y-136398000D03*
X145826000Y-135448000D03*
X143226000Y-135448000D03*
X143226000Y-136398000D03*
X143226000Y-137348000D03*
D15*
X174314000Y-132334000D03*
X174314000Y-131064000D03*
X174314000Y-129794000D03*
X174314000Y-128524000D03*
X169164000Y-128524000D03*
X169164000Y-129794000D03*
X169164000Y-131064000D03*
X169164000Y-132334000D03*
D33*
X208700000Y-105804000D03*
D34*
X208700000Y-97904000D03*
D16*
X187741000Y-129540000D03*
X185916000Y-129540000D03*
D17*
X145542000Y-131826000D03*
X145542000Y-129286000D03*
X145542000Y-126746000D03*
X217678000Y-116840000D03*
X220218000Y-116840000D03*
X222758000Y-116840000D03*
X225298000Y-116840000D03*
X227838000Y-116840000D03*
X230378000Y-116840000D03*
X232918000Y-116840000D03*
X235458000Y-116840000D03*
X237998000Y-116840000D03*
X217678000Y-109982000D03*
X220218000Y-109982000D03*
X222758000Y-109982000D03*
X225298000Y-109982000D03*
X227838000Y-109982000D03*
X230378000Y-109982000D03*
X232918000Y-109982000D03*
X235458000Y-109982000D03*
X237998000Y-109982000D03*
D10*
X217459000Y-129540000D03*
X219284000Y-129540000D03*
D16*
X219284000Y-131318000D03*
X217459000Y-131318000D03*
D35*
X168113000Y-52324000D03*
X168113000Y-53594000D03*
X168113000Y-54864000D03*
X168113000Y-56134000D03*
X173263000Y-56134000D03*
X173263000Y-54864000D03*
X173263000Y-53594000D03*
X173263000Y-52324000D03*
D21*
X221714000Y-139954000D03*
X219964000Y-139954000D03*
D36*
X195966000Y-103265000D03*
D37*
X197876000Y-103265000D03*
X199786000Y-103265000D03*
D38*
X204876000Y-79815000D03*
X206076000Y-83525000D03*
X200876000Y-83915000D03*
X199676000Y-83525000D03*
X202206000Y-79815000D03*
X204876000Y-83915000D03*
X199676000Y-80205000D03*
X202206000Y-83915000D03*
X206826000Y-81235000D03*
X206826000Y-82495000D03*
X203546000Y-83915000D03*
X206076000Y-80205000D03*
D39*
X198926000Y-81235000D03*
D40*
X198926000Y-82495000D03*
D38*
X203546000Y-79815000D03*
X200876000Y-79815000D03*
D41*
X202876000Y-81865000D03*
D38*
X193546000Y-83915000D03*
X189676000Y-80205000D03*
X189676000Y-83525000D03*
X188926000Y-81235000D03*
X190876000Y-79815000D03*
X196076000Y-83525000D03*
D40*
X196826000Y-81235000D03*
D38*
X196076000Y-80205000D03*
X188926000Y-82495000D03*
X194876000Y-83915000D03*
X192206000Y-79815000D03*
D41*
X192876000Y-81865000D03*
D39*
X196826000Y-82495000D03*
D38*
X193546000Y-79815000D03*
X192206000Y-83915000D03*
X194876000Y-79815000D03*
X190876000Y-83915000D03*
D42*
X155194000Y-153162000D03*
X157734000Y-153162000D03*
X160274000Y-153162000D03*
X162814000Y-153162000D03*
X188214000Y-153162000D03*
X157734000Y-137922000D03*
X198374000Y-148082000D03*
X165354000Y-153162000D03*
X167894000Y-153162000D03*
D43*
X159004000Y-150112000D03*
D42*
X170434000Y-153162000D03*
X172974000Y-153162000D03*
X175514000Y-153162000D03*
X178054000Y-153162000D03*
X180594000Y-153162000D03*
X183134000Y-153162000D03*
X185674000Y-153162000D03*
X185674000Y-137922000D03*
X183134000Y-137922000D03*
X180594000Y-137922000D03*
X178054000Y-137922000D03*
X175514000Y-137922000D03*
X172974000Y-137922000D03*
X170434000Y-137922000D03*
X167894000Y-137922000D03*
X165354000Y-137922000D03*
X162814000Y-137922000D03*
X160274000Y-137922000D03*
X190754000Y-153162000D03*
X193294000Y-153162000D03*
X195834000Y-153162000D03*
X198374000Y-153162000D03*
X200914000Y-153162000D03*
X203454000Y-153162000D03*
X205994000Y-153162000D03*
X208534000Y-153162000D03*
X211074000Y-153162000D03*
X211074000Y-137922000D03*
X208534000Y-137922000D03*
X205994000Y-137922000D03*
X203454000Y-137922000D03*
X200914000Y-137922000D03*
X198374000Y-137922000D03*
X195834000Y-137922000D03*
X193294000Y-137922000D03*
X190754000Y-137922000D03*
D43*
X164084000Y-150112000D03*
X161544000Y-150112000D03*
D42*
X152654000Y-153162000D03*
X188214000Y-137922000D03*
X155194000Y-137922000D03*
X198374000Y-145542000D03*
D44*
X167624000Y-142372000D03*
X165624000Y-142372000D03*
D42*
X198374000Y-140462000D03*
X198374000Y-143002000D03*
D44*
X165624000Y-140372000D03*
X167624000Y-140372000D03*
X167624000Y-144372000D03*
X165624000Y-144372000D03*
D43*
X166624000Y-150112000D03*
X169164000Y-150112000D03*
D42*
X198374000Y-150622000D03*
X152654000Y-137922000D03*
X155194000Y-140462000D03*
D21*
X159258000Y-120650000D03*
X157508000Y-120650000D03*
D26*
X242824000Y-87376000D03*
D10*
X189519000Y-126746000D03*
X191344000Y-126746000D03*
D16*
X167167000Y-129540000D03*
X165342000Y-129540000D03*
D18*
X251460000Y-104902000D03*
D11*
X156464000Y-112014000D03*
D12*
X153924000Y-112014000D03*
X151384000Y-112014000D03*
D22*
X239917000Y-124968000D03*
X241667000Y-124968000D03*
D19*
X220218000Y-104902000D03*
X220218000Y-103152000D03*
D10*
X167640000Y-57912000D03*
X169465000Y-57912000D03*
D30*
X174498000Y-107950000D03*
D31*
X174498000Y-105450000D03*
D10*
X196885000Y-129540000D03*
X198710000Y-129540000D03*
D18*
X145288000Y-104902000D03*
D21*
X172720000Y-120650000D03*
X170970000Y-120650000D03*
D19*
X232918000Y-104902000D03*
X232918000Y-103152000D03*
D22*
X199785000Y-123952000D03*
X201535000Y-123952000D03*
D23*
X148590000Y-120650000D03*
X150315000Y-120650000D03*
D16*
X198710000Y-131318000D03*
X196885000Y-131318000D03*
D18*
X251460000Y-162052000D03*
D23*
X161798000Y-120650000D03*
X163523000Y-120650000D03*
D10*
X234395000Y-126746000D03*
X236220000Y-126746000D03*
X168945000Y-126746000D03*
X170770000Y-126746000D03*
X162894000Y-52832000D03*
X164719000Y-52832000D03*
D21*
X167104000Y-124968000D03*
X165354000Y-124968000D03*
X187678000Y-124968000D03*
X185928000Y-124968000D03*
D15*
X215462000Y-132334000D03*
X215462000Y-131064000D03*
X215462000Y-129794000D03*
X215462000Y-128524000D03*
X210312000Y-128524000D03*
X210312000Y-129794000D03*
X210312000Y-131064000D03*
X210312000Y-132334000D03*
D14*
X167489500Y-74676000D03*
X167489500Y-76501000D03*
D26*
X242824000Y-56896000D03*
M02*
