M48
; DRILL file {KiCad 7.0.7} date Wed Nov  1 17:08:49 2023
; FORMAT={-:-/ absolute / inch / decimal}
; #@! TF.CreationDate,2023-11-01T17:08:49-05:00
; #@! TF.GenerationSoftware,Kicad,Pcbnew,7.0.7
; #@! TF.FileFunction,Plated,1,2,PTH
FMAT,2
INCH
; #@! TA.AperFunction,Plated,PTH,ViaDrill
T1C0.0157
; #@! TA.AperFunction,Plated,PTH,ComponentDrill
T2C0.0197
; #@! TA.AperFunction,Plated,PTH,ComponentDrill
T3C0.0276
; #@! TA.AperFunction,Plated,PTH,ComponentDrill
T4C0.0315
; #@! TA.AperFunction,Plated,PTH,ComponentDrill
T5C0.0350
; #@! TA.AperFunction,Plated,PTH,ComponentDrill
T6C0.0354
; #@! TA.AperFunction,Plated,PTH,ComponentDrill
T7C0.0402
; #@! TA.AperFunction,Plated,PTH,ComponentDrill
T8C0.0630
; #@! TA.AperFunction,Plated,PTH,ComponentDrill
T9C0.0787
; #@! TA.AperFunction,Plated,PTH,ComponentDrill
T10C0.1280
; #@! TA.AperFunction,Plated,PTH,ComponentDrill
T11C0.3600
%
G90
G05
T1
X3.8Y-3.8
X3.8Y-4.6
X4.2Y-4.8
X4.4Y-4.8
X4.6Y-3.8
X4.6Y-4.6
X4.6Y-4.8
X4.76Y-2.68
X4.8Y-3.8
X4.8Y-4.0
X4.8Y-4.2
X4.8Y-4.4
X4.8Y-4.6
X4.8Y-4.8
X5.0Y-3.8
X5.0Y-4.0
X5.0Y-4.2
X5.0Y-4.4
X5.0Y-4.6
X5.0Y-4.8
X5.2Y-3.8
X5.2Y-4.0
X5.2Y-4.2
X5.2Y-4.8
X5.6Y-4.0
X5.6Y-4.2
X5.6Y-4.8
X5.8Y-2.45
X5.8Y-4.0
X5.8Y-4.2
X5.8Y-4.8
X5.8456Y-2.72
X5.87Y-2.45
X6.0Y-4.2
X6.0Y-4.4
X6.0Y-4.6
X6.0Y-4.8
X6.04Y-2.67
X6.075Y-2.405
X6.15Y-2.48
X6.2Y-4.2
X6.2Y-4.4
X6.2Y-4.6
X6.2Y-4.8
X6.23Y-2.42
X6.23Y-2.49
X6.2456Y-2.72
X6.28Y-2.42
X6.4Y-2.09
X6.4Y-4.2
X6.4Y-4.4
X6.4Y-4.6
X6.4Y-4.8
X6.4559Y-2.66
X6.5Y-2.41
X6.57Y-2.48
X6.6Y-4.0
X6.6Y-4.2
X6.6Y-4.4
X6.6Y-4.6
X6.6Y-4.8
X6.6456Y-2.72
X6.65Y-2.42
X6.65Y-2.49
X6.6891Y-2.0509
X6.7Y-2.42
X6.76Y-3.62
X6.8Y-4.4
X6.8Y-4.6
X6.8Y-4.8
X6.81Y-3.885
X6.81Y-3.935
X6.81Y-4.035
X6.81Y-4.085
X6.81Y-4.135
X6.84Y-2.07
X6.8559Y-2.66
X6.9Y-2.41
X6.97Y-2.48
X7.03Y-2.42
X7.03Y-2.49
X7.04Y-3.82
X7.04Y-3.93
X7.04Y-4.03
X7.04Y-4.14
X7.06Y-2.72
X7.09Y-2.42
X7.17Y-3.82
X7.17Y-3.93
X7.17Y-4.03
X7.17Y-4.14
X7.2Y-4.4
X7.2Y-4.6
X7.2Y-4.8
X7.2459Y-2.5341
X7.3Y-3.82
X7.3Y-3.93
X7.3Y-4.03
X7.3Y-4.14
X7.3426Y-2.4
X7.4Y-4.4
X7.4Y-4.6
X7.4Y-4.8
X7.58Y-2.34
X7.6Y-3.8
X7.6Y-4.0
X7.6Y-4.2
X7.6Y-4.4
X7.6Y-4.6
X7.6Y-4.8
X7.6534Y-2.45
X7.8Y-3.8
X7.8Y-4.0
X7.8Y-4.2
X7.8Y-4.4
X7.8Y-4.6
X7.8Y-4.8
X7.84Y-3.34
X7.93Y-2.1
X8.0Y-3.8
X8.0Y-4.0
X8.0Y-4.2
X8.0Y-4.4
X8.0Y-4.6
X8.0Y-4.8
X8.16Y-2.29
X8.2Y-3.8
X8.2Y-4.6
X8.2Y-4.8
X8.4Y-4.8
X8.6Y-4.8
X8.7Y-2.6
X9.0Y-3.8
X9.0Y-4.6
T2
X5.0972Y-4.4622
X5.0972Y-4.5118
X5.1268Y-4.4216
X5.1268Y-4.5523
X5.174Y-4.4063
X5.174Y-4.5677
X5.2264Y-4.4063
X5.2264Y-4.5677
X5.2791Y-4.4063
X5.2791Y-4.5677
X5.3315Y-4.4063
X5.3315Y-4.5677
X5.3787Y-4.4216
X5.3787Y-4.5523
X5.4083Y-4.4622
X5.4083Y-4.5118
X5.4909Y-4.4622
X5.4909Y-4.5118
X5.5205Y-4.4216
X5.5205Y-4.5523
X5.5677Y-4.4063
X5.5677Y-4.5677
X5.6201Y-4.4063
X5.6201Y-4.5677
X5.6728Y-4.4063
X5.6728Y-4.5677
X5.7252Y-4.4063
X5.7252Y-4.5677
X5.7724Y-4.4216
X5.7724Y-4.5523
X5.802Y-4.4622
X5.802Y-4.5118
T3
X5.6562Y-2.9665
X5.6562Y-3.0452
X5.6562Y-3.1239
X5.7349Y-2.9665
X5.7349Y-3.0452
X5.7349Y-3.1239
T4
X5.1456Y-2.87
X5.1456Y-3.47
X5.2456Y-2.87
X5.2456Y-3.47
X5.3456Y-2.87
X5.3456Y-3.47
X5.3744Y-3.6444
X5.4456Y-2.87
X5.4456Y-3.47
X5.4496Y-3.6444
X5.5248Y-3.6444
X5.5456Y-2.87
X5.5456Y-3.47
X5.6456Y-2.87
X5.6456Y-3.47
X5.7456Y-2.87
X5.7456Y-3.47
X5.8456Y-2.87
X5.8456Y-3.47
X5.9456Y-2.87
X5.9456Y-3.47
X6.0456Y-2.87
X6.0456Y-3.47
X6.08Y-3.8213
X6.08Y-3.9
X6.1456Y-2.87
X6.1456Y-3.47
X6.2456Y-2.87
X6.2456Y-3.47
X6.3456Y-2.87
X6.3456Y-3.47
X6.4456Y-2.87
X6.4456Y-3.47
X6.45Y-3.8213
X6.45Y-3.9
X6.5456Y-2.87
X6.5456Y-3.47
X6.6456Y-2.87
X6.6456Y-3.47
X6.7456Y-2.87
X6.7456Y-3.47
X6.8456Y-2.87
X6.8456Y-3.47
X6.9456Y-2.87
X6.9456Y-3.47
X7.0456Y-2.87
X7.0456Y-3.47
X7.1456Y-2.87
X7.1456Y-3.47
X7.2456Y-2.87
X7.2456Y-3.47
X7.3456Y-2.87
X7.3456Y-3.47
X7.4456Y-2.87
X7.4456Y-3.47
T5
X8.0089Y-3.21
X8.0089Y-3.31
X8.0089Y-3.41
X8.009Y-2.6056
X8.009Y-2.7056
X8.009Y-2.8056
T6
X4.415Y-2.238
X4.465Y-2.138
X4.515Y-2.238
X4.565Y-2.138
X4.615Y-2.238
X4.665Y-2.138
X4.715Y-2.238
X4.765Y-2.138
X5.13Y-1.9718
X5.23Y-1.9718
X5.33Y-1.9718
X5.43Y-1.9718
X5.53Y-1.9718
X5.63Y-1.9718
X5.73Y-1.9718
X5.83Y-1.9718
X5.93Y-1.9718
X6.03Y-1.9718
X6.31Y-1.9718
X6.41Y-1.9718
X6.51Y-1.9718
X6.61Y-1.9718
X6.71Y-1.9718
X6.81Y-1.9718
X6.91Y-1.9718
X7.01Y-1.9718
X7.11Y-1.9718
X7.3822Y-1.9718
X7.4822Y-1.9718
X7.5822Y-1.9718
X7.6822Y-1.9718
T7
X4.341Y-1.7584
X4.441Y-1.688
X4.739Y-1.7584
X4.839Y-1.688
T8
X4.28Y-2.0081
X4.9Y-2.0081
T10
X4.365Y-1.888
X4.815Y-1.888
T11
X4.24Y-3.09
X4.24Y-4.2
X8.58Y-4.18
T9
G00X5.3315Y-4.487
M15
G01X5.174Y-4.487
M16
G05
G00X5.7252Y-4.487
M15
G01X5.5677Y-4.487
M16
G05
T0
M30
