G04 #@! TF.GenerationSoftware,KiCad,Pcbnew,7.0.7*
G04 #@! TF.CreationDate,2023-11-01T17:08:31-05:00*
G04 #@! TF.ProjectId,2024Rev1,32303234-5265-4763-912e-6b696361645f,rev?*
G04 #@! TF.SameCoordinates,Original*
G04 #@! TF.FileFunction,Paste,Top*
G04 #@! TF.FilePolarity,Positive*
%FSLAX46Y46*%
G04 Gerber Fmt 4.6, Leading zero omitted, Abs format (unit mm)*
G04 Created by KiCad (PCBNEW 7.0.7) date 2023-11-01 17:08:31*
%MOMM*%
%LPD*%
G01*
G04 APERTURE LIST*
G04 Aperture macros list*
%AMRoundRect*
0 Rectangle with rounded corners*
0 $1 Rounding radius*
0 $2 $3 $4 $5 $6 $7 $8 $9 X,Y pos of 4 corners*
0 Add a 4 corners polygon primitive as box body*
4,1,4,$2,$3,$4,$5,$6,$7,$8,$9,$2,$3,0*
0 Add four circle primitives for the rounded corners*
1,1,$1+$1,$2,$3*
1,1,$1+$1,$4,$5*
1,1,$1+$1,$6,$7*
1,1,$1+$1,$8,$9*
0 Add four rect primitives between the rounded corners*
20,1,$1+$1,$2,$3,$4,$5,0*
20,1,$1+$1,$4,$5,$6,$7,0*
20,1,$1+$1,$6,$7,$8,$9,0*
20,1,$1+$1,$8,$9,$2,$3,0*%
G04 Aperture macros list end*
%ADD10RoundRect,0.237500X-0.237500X0.250000X-0.237500X-0.250000X0.237500X-0.250000X0.237500X0.250000X0*%
%ADD11RoundRect,0.150000X-0.150000X0.725000X-0.150000X-0.725000X0.150000X-0.725000X0.150000X0.725000X0*%
%ADD12RoundRect,0.237500X0.250000X0.237500X-0.250000X0.237500X-0.250000X-0.237500X0.250000X-0.237500X0*%
%ADD13RoundRect,0.150000X0.587500X0.150000X-0.587500X0.150000X-0.587500X-0.150000X0.587500X-0.150000X0*%
%ADD14R,6.000000X2.500000*%
%ADD15RoundRect,0.237500X-0.250000X-0.237500X0.250000X-0.237500X0.250000X0.237500X-0.250000X0.237500X0*%
%ADD16RoundRect,0.237500X0.237500X-0.250000X0.237500X0.250000X-0.237500X0.250000X-0.237500X-0.250000X0*%
%ADD17RoundRect,0.237500X0.287500X0.237500X-0.287500X0.237500X-0.287500X-0.237500X0.287500X-0.237500X0*%
%ADD18RoundRect,0.237500X0.237500X-0.300000X0.237500X0.300000X-0.237500X0.300000X-0.237500X-0.300000X0*%
%ADD19RoundRect,0.200000X-2.100000X-0.200000X2.100000X-0.200000X2.100000X0.200000X-2.100000X0.200000X0*%
%ADD20RoundRect,0.250000X-2.025000X-2.375000X2.025000X-2.375000X2.025000X2.375000X-2.025000X2.375000X0*%
%ADD21RoundRect,0.237500X0.237500X-0.287500X0.237500X0.287500X-0.237500X0.287500X-0.237500X-0.287500X0*%
%ADD22RoundRect,0.237500X-0.237500X0.287500X-0.237500X-0.287500X0.237500X-0.287500X0.237500X0.287500X0*%
%ADD23RoundRect,0.150000X0.150000X-0.587500X0.150000X0.587500X-0.150000X0.587500X-0.150000X-0.587500X0*%
%ADD24RoundRect,0.237500X-0.237500X0.300000X-0.237500X-0.300000X0.237500X-0.300000X0.237500X0.300000X0*%
%ADD25RoundRect,0.150000X-0.150000X0.587500X-0.150000X-0.587500X0.150000X-0.587500X0.150000X0.587500X0*%
G04 APERTURE END LIST*
D10*
X173736000Y-56745500D03*
X173736000Y-58570500D03*
D11*
X159408500Y-59875500D03*
X158138500Y-59875500D03*
X156868500Y-59875500D03*
X155598500Y-59875500D03*
X155598500Y-65025500D03*
X156868500Y-65025500D03*
X158138500Y-65025500D03*
X159408500Y-65025500D03*
D10*
X212725000Y-54586500D03*
X212725000Y-56411500D03*
D12*
X174140500Y-68834000D03*
X172315500Y-68834000D03*
D13*
X210440500Y-56449000D03*
X210440500Y-54549000D03*
X208565500Y-55499000D03*
D14*
X216358000Y-43434000D03*
X203758000Y-43434000D03*
D15*
X158623000Y-56388000D03*
X160448000Y-56388000D03*
D11*
X149098000Y-59690000D03*
X147828000Y-59690000D03*
X146558000Y-59690000D03*
X145288000Y-59690000D03*
X145288000Y-64840000D03*
X146558000Y-64840000D03*
X147828000Y-64840000D03*
X149098000Y-64840000D03*
D10*
X142945505Y-61317500D03*
X142945505Y-63142500D03*
D15*
X169164000Y-56388000D03*
X170989000Y-56388000D03*
D16*
X192588495Y-54657000D03*
X192588495Y-52832000D03*
X169164000Y-98956500D03*
X169164000Y-97131500D03*
D17*
X194423000Y-70866000D03*
X192673000Y-70866000D03*
D18*
X206502000Y-77671000D03*
X206502000Y-75946000D03*
D15*
X146153500Y-67564000D03*
X147978500Y-67564000D03*
X192635500Y-72898000D03*
X194460500Y-72898000D03*
D19*
X172974000Y-97390000D03*
X172974000Y-98660000D03*
X172974000Y-99930000D03*
D20*
X179699000Y-98425000D03*
X179699000Y-103975000D03*
X184549000Y-98425000D03*
X184549000Y-103975000D03*
D19*
X172974000Y-102470000D03*
X172974000Y-103740000D03*
X172974000Y-105010000D03*
D12*
X138758995Y-58341500D03*
X136933995Y-58341500D03*
D18*
X203454000Y-62177000D03*
X203454000Y-60452000D03*
D11*
X180213000Y-59805500D03*
X178943000Y-59805500D03*
X177673000Y-59805500D03*
X176403000Y-59805500D03*
X176403000Y-64955500D03*
X177673000Y-64955500D03*
X178943000Y-64955500D03*
X180213000Y-64955500D03*
X170100000Y-59805500D03*
X168830000Y-59805500D03*
X167560000Y-59805500D03*
X166290000Y-59805500D03*
X166290000Y-64955500D03*
X167560000Y-64955500D03*
X168830000Y-64955500D03*
X170100000Y-64955500D03*
D15*
X172315500Y-66294000D03*
X174140500Y-66294000D03*
X204272500Y-56515000D03*
X206097500Y-56515000D03*
D12*
X132738500Y-62484000D03*
X130913500Y-62484000D03*
D21*
X212852000Y-77683500D03*
X212852000Y-75933500D03*
D22*
X130866495Y-52973000D03*
X130866495Y-54723000D03*
D15*
X165354000Y-53340000D03*
X167179000Y-53340000D03*
D21*
X212598000Y-62189500D03*
X212598000Y-60439500D03*
D15*
X162155500Y-66294000D03*
X163980500Y-66294000D03*
D12*
X170989000Y-53340000D03*
X169164000Y-53340000D03*
D15*
X148025505Y-56272500D03*
X149850505Y-56272500D03*
D10*
X209550000Y-75896000D03*
X209550000Y-77721000D03*
D15*
X156591000Y-67564000D03*
X158416000Y-67564000D03*
D12*
X149850505Y-53224500D03*
X148025505Y-53224500D03*
D15*
X144215505Y-56272500D03*
X146040505Y-56272500D03*
D18*
X203452000Y-77671000D03*
X203452000Y-75946000D03*
D23*
X136962495Y-55977000D03*
X138862495Y-55977000D03*
X137912495Y-54102000D03*
D12*
X184046500Y-67564000D03*
X182221500Y-67564000D03*
D15*
X165354000Y-56388000D03*
X167179000Y-56388000D03*
D10*
X190500000Y-52832000D03*
X190500000Y-54657000D03*
D21*
X196850000Y-54596000D03*
X196850000Y-52846000D03*
D16*
X132898495Y-54760500D03*
X132898495Y-52935500D03*
D10*
X209550000Y-60402000D03*
X209550000Y-62227000D03*
D24*
X121158000Y-59843500D03*
X121158000Y-61568500D03*
D25*
X187452000Y-56134000D03*
X185552000Y-56134000D03*
X186502000Y-58009000D03*
D12*
X153312500Y-69088000D03*
X151487500Y-69088000D03*
D15*
X154940000Y-53340000D03*
X156765000Y-53340000D03*
D12*
X163980500Y-68834000D03*
X162155500Y-68834000D03*
D18*
X206502000Y-62177000D03*
X206502000Y-60452000D03*
D10*
X194818000Y-52808500D03*
X194818000Y-54633500D03*
X152654000Y-56896000D03*
X152654000Y-58721000D03*
D15*
X175768000Y-53340000D03*
X177593000Y-53340000D03*
X167132000Y-67564000D03*
X168957000Y-67564000D03*
D16*
X169164000Y-94638500D03*
X169164000Y-92813500D03*
D15*
X144215505Y-53224500D03*
X146040505Y-53224500D03*
X151487500Y-66294000D03*
X153312500Y-66294000D03*
D12*
X187428500Y-53874500D03*
X185603500Y-53874500D03*
D15*
X177546000Y-67564000D03*
X179371000Y-67564000D03*
D10*
X163322000Y-56745500D03*
X163322000Y-58570500D03*
D15*
X154940000Y-56388000D03*
X156765000Y-56388000D03*
D17*
X206060000Y-54483000D03*
X204310000Y-54483000D03*
D12*
X181506500Y-53340000D03*
X179681500Y-53340000D03*
X160575000Y-53340000D03*
X158750000Y-53340000D03*
D15*
X179681500Y-56388000D03*
X181506500Y-56388000D03*
X175768000Y-56388000D03*
X177593000Y-56388000D03*
X141073500Y-66294000D03*
X142898500Y-66294000D03*
D23*
X130876000Y-59103500D03*
X132776000Y-59103500D03*
X131826000Y-57228500D03*
M02*
