G04 #@! TF.GenerationSoftware,KiCad,Pcbnew,7.0.7*
G04 #@! TF.CreationDate,2023-11-01T17:08:31-05:00*
G04 #@! TF.ProjectId,2024Rev1,32303234-5265-4763-912e-6b696361645f,rev?*
G04 #@! TF.SameCoordinates,Original*
G04 #@! TF.FileFunction,Copper,L2,Bot*
G04 #@! TF.FilePolarity,Positive*
%FSLAX46Y46*%
G04 Gerber Fmt 4.6, Leading zero omitted, Abs format (unit mm)*
G04 Created by KiCad (PCBNEW 7.0.7) date 2023-11-01 17:08:31*
%MOMM*%
%LPD*%
G01*
G04 APERTURE LIST*
G04 Aperture macros list*
%AMHorizOval*
0 Thick line with rounded ends*
0 $1 width*
0 $2 $3 position (X,Y) of the first rounded end (center of the circle)*
0 $4 $5 position (X,Y) of the second rounded end (center of the circle)*
0 Add line between two ends*
20,1,$1,$2,$3,$4,$5,0*
0 Add two circle primitives to create the rounded ends*
1,1,$1,$2,$3*
1,1,$1,$4,$5*%
G04 Aperture macros list end*
G04 #@! TA.AperFunction,ComponentPad*
%ADD10R,1.600000X1.600000*%
G04 #@! TD*
G04 #@! TA.AperFunction,ComponentPad*
%ADD11C,1.600000*%
G04 #@! TD*
G04 #@! TA.AperFunction,ComponentPad*
%ADD12C,1.524000*%
G04 #@! TD*
G04 #@! TA.AperFunction,ComponentPad*
%ADD13C,18.288000*%
G04 #@! TD*
G04 #@! TA.AperFunction,ComponentPad*
%ADD14C,1.100000*%
G04 #@! TD*
G04 #@! TA.AperFunction,ComponentPad*
%ADD15C,1.400000*%
G04 #@! TD*
G04 #@! TA.AperFunction,ComponentPad*
%ADD16C,4.000000*%
G04 #@! TD*
G04 #@! TA.AperFunction,ComponentPad*
%ADD17C,2.000000*%
G04 #@! TD*
G04 #@! TA.AperFunction,ComponentPad*
%ADD18R,1.500000X1.500000*%
G04 #@! TD*
G04 #@! TA.AperFunction,ComponentPad*
%ADD19C,1.500000*%
G04 #@! TD*
G04 #@! TA.AperFunction,ComponentPad*
%ADD20HorizOval,0.800000X0.000000X0.000000X0.000000X0.000000X0*%
G04 #@! TD*
G04 #@! TA.AperFunction,ComponentPad*
%ADD21HorizOval,0.800000X0.000000X0.000000X0.000000X0.000000X0*%
G04 #@! TD*
G04 #@! TA.AperFunction,ComponentPad*
%ADD22C,0.800000*%
G04 #@! TD*
G04 #@! TA.AperFunction,ComponentPad*
%ADD23O,9.000000X6.000000*%
G04 #@! TD*
G04 #@! TA.AperFunction,ComponentPad*
%ADD24C,1.308000*%
G04 #@! TD*
G04 #@! TA.AperFunction,ComponentPad*
%ADD25C,1.208000*%
G04 #@! TD*
G04 #@! TA.AperFunction,ViaPad*
%ADD26C,0.800000*%
G04 #@! TD*
G04 #@! TA.AperFunction,Conductor*
%ADD27C,0.254000*%
G04 #@! TD*
G04 APERTURE END LIST*
D10*
X154432000Y-99060000D03*
D11*
X154432000Y-97060000D03*
D12*
X203427500Y-71261500D03*
X203427500Y-68721500D03*
X203427500Y-66181500D03*
D13*
X107696000Y-106680000D03*
D14*
X121031000Y-54304500D03*
X119761000Y-56844500D03*
X118491000Y-54304500D03*
X117221000Y-56844500D03*
X115951000Y-54304500D03*
X114681000Y-56844500D03*
X113411000Y-54304500D03*
X112141000Y-56844500D03*
D15*
X122911000Y-42874500D03*
X120371000Y-44664500D03*
X112801000Y-42874500D03*
X110261000Y-44664500D03*
D16*
X122301000Y-47954500D03*
X110871000Y-47954500D03*
D17*
X124461000Y-51004500D03*
X108711000Y-51004500D03*
D12*
X203425500Y-86614000D03*
X203425500Y-84074000D03*
X203425500Y-81534000D03*
X130302000Y-50084000D03*
X132842000Y-50084000D03*
X135382000Y-50084000D03*
X137922000Y-50084000D03*
X140462000Y-50084000D03*
X143002000Y-50084000D03*
X145542000Y-50084000D03*
X148082000Y-50084000D03*
X150622000Y-50084000D03*
X153162000Y-50084000D03*
D13*
X217932000Y-106172000D03*
D10*
X163830000Y-99060000D03*
D11*
X163830000Y-97060000D03*
D12*
X160274000Y-50084000D03*
X162814000Y-50084000D03*
X165354000Y-50084000D03*
X167894000Y-50084000D03*
X170434000Y-50084000D03*
X172974000Y-50084000D03*
X175514000Y-50084000D03*
X178054000Y-50084000D03*
X180594000Y-50084000D03*
D18*
X140330000Y-92569000D03*
D19*
X138420000Y-92569000D03*
X136510000Y-92569000D03*
D20*
X137370000Y-114599000D03*
D21*
X137370000Y-113339000D03*
D22*
X136620000Y-115629000D03*
X136620000Y-112309000D03*
X135420000Y-116019000D03*
X135420000Y-111919000D03*
X134090000Y-116019000D03*
X134090000Y-111919000D03*
D23*
X133420000Y-113969000D03*
D22*
X132750000Y-116019000D03*
X132750000Y-111919000D03*
X131420000Y-116019000D03*
X131420000Y-111919000D03*
X130220000Y-115629000D03*
X130220000Y-112309000D03*
X129470000Y-114599000D03*
X129470000Y-113339000D03*
X147370000Y-114599000D03*
X147370000Y-113339000D03*
X146620000Y-115629000D03*
X146620000Y-112309000D03*
X145420000Y-116019000D03*
X145420000Y-111919000D03*
X144090000Y-116019000D03*
X144090000Y-111919000D03*
D23*
X143420000Y-113969000D03*
D22*
X142750000Y-116019000D03*
X142750000Y-111919000D03*
X141420000Y-116019000D03*
X141420000Y-111919000D03*
X140220000Y-115629000D03*
X140220000Y-112309000D03*
D21*
X139470000Y-114599000D03*
D20*
X139470000Y-113339000D03*
D12*
X187508495Y-50084000D03*
X190048495Y-50084000D03*
X192588495Y-50084000D03*
X195128495Y-50084000D03*
D13*
X107696000Y-78486000D03*
D24*
X133237000Y-88138000D03*
X135777000Y-88138000D03*
X138317000Y-88138000D03*
X140857000Y-88138000D03*
X166257000Y-88138000D03*
X135777000Y-72898000D03*
X143397000Y-88138000D03*
X145937000Y-88138000D03*
X148477000Y-88138000D03*
X151017000Y-88138000D03*
X153557000Y-88138000D03*
X156097000Y-88138000D03*
X158637000Y-88138000D03*
X161177000Y-88138000D03*
X163717000Y-88138000D03*
X163717000Y-72898000D03*
X161177000Y-72898000D03*
X158637000Y-72898000D03*
X156097000Y-72898000D03*
X153557000Y-72898000D03*
X151017000Y-72898000D03*
X148477000Y-72898000D03*
X145937000Y-72898000D03*
X143397000Y-72898000D03*
X140857000Y-72898000D03*
X138317000Y-72898000D03*
X168797000Y-88138000D03*
X171337000Y-88138000D03*
X173877000Y-88138000D03*
X176417000Y-88138000D03*
X178957000Y-88138000D03*
X181497000Y-88138000D03*
X184037000Y-88138000D03*
X186577000Y-88138000D03*
X189117000Y-88138000D03*
X189117000Y-72898000D03*
X186577000Y-72898000D03*
X184037000Y-72898000D03*
X181497000Y-72898000D03*
X178957000Y-72898000D03*
X176417000Y-72898000D03*
X173877000Y-72898000D03*
X171337000Y-72898000D03*
X168797000Y-72898000D03*
X130697000Y-88138000D03*
X166257000Y-72898000D03*
X133237000Y-72898000D03*
D25*
X145667000Y-77348000D03*
X143667000Y-77348000D03*
X143667000Y-75348000D03*
X145667000Y-75348000D03*
X145667000Y-79348000D03*
X143667000Y-79348000D03*
D24*
X130697000Y-72898000D03*
D26*
X182880000Y-111760000D03*
X182880000Y-116840000D03*
X182880000Y-121920000D03*
X198120000Y-121920000D03*
X193040000Y-121920000D03*
X187960000Y-121920000D03*
X187960000Y-116840000D03*
X167640000Y-101600000D03*
X172720000Y-111760000D03*
X172720000Y-116840000D03*
X172720000Y-121920000D03*
X167640000Y-121920000D03*
X167640000Y-116840000D03*
X167640000Y-111760000D03*
X162560000Y-111760000D03*
X162560000Y-116840000D03*
X162560000Y-121920000D03*
X152400000Y-121920000D03*
X157480000Y-121920000D03*
X157480000Y-116840000D03*
X152400000Y-116840000D03*
X207264000Y-58166000D03*
X220980000Y-66040000D03*
X158242000Y-61468000D03*
X168910000Y-61468000D03*
X178562000Y-63246000D03*
X168910000Y-63246000D03*
X178562000Y-61468000D03*
X147320000Y-62230000D03*
X120904000Y-68072000D03*
X158242000Y-63246000D03*
X201422000Y-53340000D03*
X203200000Y-101600000D03*
X193040000Y-116840000D03*
X193040000Y-111760000D03*
X185420000Y-99822000D03*
X187960000Y-111760000D03*
X203200000Y-111760000D03*
X208280000Y-121920000D03*
X198120000Y-106680000D03*
X228600000Y-116840000D03*
X218440000Y-121920000D03*
X192532000Y-59436000D03*
X182118000Y-97028000D03*
X185420000Y-105156000D03*
X213360000Y-121920000D03*
X182118000Y-99822000D03*
X208280000Y-96520000D03*
X203200000Y-106680000D03*
X193040000Y-101600000D03*
X203200000Y-116840000D03*
X198120000Y-101600000D03*
X198120000Y-96520000D03*
X198120000Y-111760000D03*
X178816000Y-97028000D03*
X185420000Y-102362000D03*
X203200000Y-96520000D03*
X178816000Y-99822000D03*
X182118000Y-105156000D03*
X182118000Y-102362000D03*
X208280000Y-116840000D03*
X193040000Y-96520000D03*
X198120000Y-116840000D03*
X228600000Y-96520000D03*
X203200000Y-121920000D03*
X193040000Y-106680000D03*
X178816000Y-105156000D03*
X185420000Y-97028000D03*
X178816000Y-102362000D03*
X184046500Y-64365500D03*
X173736000Y-52578000D03*
X163980500Y-67564000D03*
X169903000Y-52093000D03*
X162560000Y-53086000D03*
X153416000Y-67818000D03*
X179324000Y-69088000D03*
X180086000Y-61468000D03*
X121920000Y-111760000D03*
X111760000Y-121920000D03*
X96520000Y-96520000D03*
X116840000Y-96520000D03*
X132080000Y-121920000D03*
X132080000Y-101600000D03*
X127000000Y-121920000D03*
X132080000Y-106680000D03*
X116840000Y-121920000D03*
X127000000Y-111760000D03*
X132080000Y-96520000D03*
X127000000Y-116840000D03*
X96520000Y-116840000D03*
X121920000Y-121920000D03*
X106680000Y-121920000D03*
X121920000Y-96520000D03*
X121920000Y-101600000D03*
X127000000Y-96520000D03*
X127000000Y-106680000D03*
X121920000Y-116840000D03*
X127000000Y-101600000D03*
X121920000Y-106680000D03*
X116840000Y-116840000D03*
X168797000Y-69088000D03*
X186502000Y-60960000D03*
X171704000Y-91948000D03*
X170180000Y-61468000D03*
X158637000Y-69088000D03*
X177038000Y-62992000D03*
X175260000Y-61214000D03*
X159512000Y-61468000D03*
X148477000Y-69088000D03*
X165100000Y-61214000D03*
X166878000Y-62992000D03*
X149098000Y-62230000D03*
X154305000Y-61087000D03*
X156210000Y-62992000D03*
X172974000Y-103759000D03*
X152400000Y-106680000D03*
X147320000Y-101600000D03*
X162560000Y-106680000D03*
X142240000Y-106680000D03*
X194396000Y-62230000D03*
X172974000Y-98679000D03*
X172974000Y-105029000D03*
X172974000Y-99949000D03*
X172974000Y-102489000D03*
X152400000Y-111760000D03*
X142240000Y-121920000D03*
X142240000Y-101600000D03*
X167640000Y-106680000D03*
X157480000Y-111760000D03*
X157480000Y-106680000D03*
X147320000Y-121920000D03*
X147320000Y-106680000D03*
X199136000Y-84836000D03*
X174140500Y-67564000D03*
D27*
X216154000Y-58928000D02*
X208026000Y-58928000D01*
X208026000Y-58928000D02*
X207264000Y-58166000D01*
X220980000Y-63754000D02*
X216154000Y-58928000D01*
X130697000Y-72898000D02*
X130302000Y-72503000D01*
X130302000Y-72503000D02*
X130302000Y-50084000D01*
X220980000Y-66040000D02*
X220980000Y-63754000D01*
X201422000Y-64176000D02*
X203427500Y-66181500D01*
X201422000Y-53340000D02*
X201422000Y-64176000D01*
X116496750Y-54304500D02*
X119036750Y-56844500D01*
X115951000Y-54304500D02*
X116496750Y-54304500D01*
X119036750Y-56844500D02*
X119761000Y-56844500D01*
X152146000Y-71487000D02*
X152146000Y-51100000D01*
X153557000Y-72898000D02*
X152146000Y-71487000D01*
X152146000Y-51100000D02*
X153162000Y-50084000D01*
X192532000Y-59436000D02*
X192532000Y-93980000D01*
X192532000Y-93980000D02*
X191516000Y-94996000D01*
X145542000Y-72503000D02*
X145937000Y-72898000D01*
X145542000Y-50084000D02*
X145542000Y-72503000D01*
X179878000Y-48260000D02*
X178054000Y-50084000D01*
X182626000Y-48260000D02*
X179878000Y-48260000D01*
X184046500Y-64365500D02*
X184046500Y-49680500D01*
X184046500Y-49680500D02*
X182626000Y-48260000D01*
X175514000Y-50165000D02*
X175514000Y-50084000D01*
X173736000Y-51943000D02*
X175514000Y-50165000D01*
X173736000Y-52578000D02*
X173736000Y-51943000D01*
X167894000Y-53848000D02*
X167894000Y-50084000D01*
X163980500Y-57761500D02*
X167894000Y-53848000D01*
X169903000Y-52093000D02*
X167894000Y-50084000D01*
X163980500Y-67564000D02*
X163980500Y-57761500D01*
X160274000Y-55372000D02*
X157226000Y-55372000D01*
X162560000Y-50338000D02*
X162814000Y-50084000D01*
X153416000Y-59182000D02*
X153416000Y-67818000D01*
X162560000Y-53086000D02*
X160274000Y-55372000D01*
X162560000Y-53086000D02*
X162560000Y-50338000D01*
X157226000Y-55372000D02*
X153416000Y-59182000D01*
X120371000Y-44664500D02*
X123404500Y-44664500D01*
X126492000Y-47752000D02*
X126492000Y-72898000D01*
X123404500Y-44664500D02*
X126492000Y-47752000D01*
X130942000Y-77348000D02*
X143667000Y-77348000D01*
X126492000Y-72898000D02*
X130942000Y-77348000D01*
X184037000Y-72898000D02*
X190048495Y-66886505D01*
X190048495Y-66886505D02*
X190048495Y-50084000D01*
X179324000Y-69991000D02*
X176417000Y-72898000D01*
X179324000Y-69088000D02*
X179324000Y-69991000D01*
X180086000Y-61468000D02*
X180086000Y-66689000D01*
X180086000Y-66689000D02*
X173877000Y-72898000D01*
X168797000Y-69088000D02*
X168797000Y-72898000D01*
X186436000Y-61026000D02*
X186502000Y-60960000D01*
X186436000Y-68326000D02*
X186436000Y-61026000D01*
X181610000Y-91948000D02*
X182880000Y-90678000D01*
X182880000Y-90678000D02*
X182880000Y-71882000D01*
X171704000Y-91948000D02*
X181610000Y-91948000D01*
X182880000Y-71882000D02*
X186436000Y-68326000D01*
X170180000Y-61468000D02*
X170180000Y-71741000D01*
X170180000Y-71741000D02*
X171337000Y-72898000D01*
X158637000Y-69088000D02*
X158637000Y-72898000D01*
X175260000Y-61214000D02*
X177038000Y-62992000D01*
X159512000Y-71233000D02*
X161177000Y-72898000D01*
X159512000Y-61468000D02*
X159512000Y-71233000D01*
X148477000Y-69088000D02*
X148477000Y-72898000D01*
X165100000Y-61214000D02*
X166878000Y-62992000D01*
X151017000Y-64149000D02*
X149098000Y-62230000D01*
X151017000Y-72898000D02*
X151017000Y-64149000D01*
X156210000Y-62992000D02*
X154305000Y-61087000D01*
X199136000Y-84836000D02*
X199136000Y-76454000D01*
X199136000Y-66970000D02*
X194396000Y-62230000D01*
X203427500Y-71261500D02*
X199136000Y-75553000D01*
X199136000Y-76454000D02*
X199136000Y-66970000D01*
X199136000Y-75553000D02*
X199136000Y-76454000D01*
X172974000Y-50084000D02*
X172974000Y-58928000D01*
X172974000Y-58928000D02*
X174140500Y-60094500D01*
X174140500Y-60094500D02*
X174140500Y-67564000D01*
G04 #@! TA.AperFunction,Conductor*
G36*
X154229787Y-98045606D02*
G01*
X154229805Y-98045427D01*
X154255196Y-98047927D01*
X154432000Y-98065341D01*
X154608803Y-98047927D01*
X154634195Y-98045427D01*
X154634212Y-98045606D01*
X154650522Y-98044000D01*
X163611478Y-98044000D01*
X163627787Y-98045606D01*
X163627805Y-98045427D01*
X163653196Y-98047927D01*
X163830000Y-98065341D01*
X164006803Y-98047927D01*
X164032195Y-98045427D01*
X164032212Y-98045606D01*
X164048522Y-98044000D01*
X175898000Y-98044000D01*
X175965039Y-98063685D01*
X176010794Y-98116489D01*
X176022000Y-98168000D01*
X176022000Y-127373500D01*
X176002315Y-127440539D01*
X175949511Y-127486294D01*
X175898000Y-127497500D01*
X138554000Y-127497500D01*
X138486961Y-127477815D01*
X138441206Y-127425011D01*
X138430000Y-127373500D01*
X138430000Y-98168000D01*
X138449685Y-98100961D01*
X138502489Y-98055206D01*
X138554000Y-98044000D01*
X154213478Y-98044000D01*
X154229787Y-98045606D01*
G37*
G04 #@! TD.AperFunction*
G04 #@! TA.AperFunction,Conductor*
G36*
X138119039Y-93745685D02*
G01*
X138164794Y-93798489D01*
X138176000Y-93850000D01*
X138176000Y-127373500D01*
X138156315Y-127440539D01*
X138103511Y-127486294D01*
X138052000Y-127497500D01*
X100488074Y-127497500D01*
X100421035Y-127477815D01*
X100375280Y-127425011D01*
X100365336Y-127355853D01*
X100394361Y-127292297D01*
X100453139Y-127254523D01*
X100457476Y-127253334D01*
X100459810Y-127252739D01*
X100486726Y-127245886D01*
X100859445Y-127110228D01*
X101216803Y-126938133D01*
X101555251Y-126731312D01*
X101871424Y-126491820D01*
X102162181Y-126222037D01*
X102424631Y-125924645D01*
X102656166Y-125602600D01*
X102854485Y-125259101D01*
X103017617Y-124897563D01*
X103143941Y-124521578D01*
X103232201Y-124134885D01*
X103281521Y-123741325D01*
X103286462Y-123543190D01*
X103291409Y-123344826D01*
X103291409Y-123344810D01*
X103276561Y-123146675D01*
X103261769Y-122949280D01*
X103192893Y-122558668D01*
X103085467Y-122176854D01*
X102940559Y-121807634D01*
X102759609Y-121454677D01*
X102544414Y-121121491D01*
X102297114Y-120811386D01*
X102297111Y-120811383D01*
X102297104Y-120811374D01*
X102020176Y-120527455D01*
X102020173Y-120527452D01*
X102020172Y-120527451D01*
X102020167Y-120527446D01*
X101716324Y-120272492D01*
X101643613Y-120222918D01*
X101388605Y-120049057D01*
X101272494Y-119985826D01*
X101040270Y-119859364D01*
X101040262Y-119859360D01*
X101040259Y-119859359D01*
X100674777Y-119705296D01*
X100674761Y-119705290D01*
X100295764Y-119588385D01*
X100295751Y-119588382D01*
X99907000Y-119509794D01*
X99906979Y-119509791D01*
X99512320Y-119470300D01*
X99512319Y-119470300D01*
X99214899Y-119470300D01*
X99214897Y-119470300D01*
X98917855Y-119485124D01*
X98525647Y-119544241D01*
X98141272Y-119642114D01*
X97768549Y-119777774D01*
X97411191Y-119949869D01*
X97072753Y-120156684D01*
X97072742Y-120156692D01*
X96756575Y-120396180D01*
X96756572Y-120396182D01*
X96465813Y-120665968D01*
X96203365Y-120963359D01*
X95971839Y-121285393D01*
X95971826Y-121285413D01*
X95773516Y-121628896D01*
X95610383Y-121990434D01*
X95502042Y-122312895D01*
X95462031Y-122370174D01*
X95397404Y-122396729D01*
X95328680Y-122384128D01*
X95277678Y-122336373D01*
X95260500Y-122273405D01*
X95260500Y-93849999D01*
X95280185Y-93782961D01*
X95332989Y-93737206D01*
X95384500Y-93726000D01*
X138052000Y-93726000D01*
X138119039Y-93745685D01*
G37*
G04 #@! TD.AperFunction*
G04 #@! TA.AperFunction,Conductor*
G36*
X230310539Y-93491685D02*
G01*
X230356294Y-93544489D01*
X230367500Y-93596000D01*
X230367500Y-122280701D01*
X230347815Y-122347740D01*
X230295011Y-122393495D01*
X230225853Y-122403439D01*
X230162297Y-122374414D01*
X230124523Y-122315636D01*
X230124135Y-122314285D01*
X230085469Y-122176862D01*
X230085465Y-122176848D01*
X229940564Y-121807646D01*
X229940559Y-121807634D01*
X229759613Y-121454685D01*
X229759609Y-121454677D01*
X229544414Y-121121491D01*
X229297114Y-120811386D01*
X229297111Y-120811383D01*
X229297104Y-120811374D01*
X229020176Y-120527455D01*
X229020173Y-120527452D01*
X229020172Y-120527451D01*
X229020167Y-120527446D01*
X228716324Y-120272492D01*
X228643613Y-120222918D01*
X228388605Y-120049057D01*
X228272493Y-119985826D01*
X228040270Y-119859364D01*
X228040262Y-119859360D01*
X228040259Y-119859359D01*
X227674777Y-119705296D01*
X227674761Y-119705290D01*
X227295764Y-119588385D01*
X227295751Y-119588382D01*
X226907000Y-119509794D01*
X226906979Y-119509791D01*
X226512320Y-119470300D01*
X226512319Y-119470300D01*
X226214899Y-119470300D01*
X226214897Y-119470300D01*
X225917855Y-119485124D01*
X225525647Y-119544241D01*
X225141272Y-119642114D01*
X224768549Y-119777774D01*
X224411191Y-119949869D01*
X224072753Y-120156684D01*
X224072742Y-120156692D01*
X223756575Y-120396180D01*
X223756572Y-120396182D01*
X223465813Y-120665968D01*
X223203365Y-120963359D01*
X222971839Y-121285393D01*
X222971826Y-121285413D01*
X222773516Y-121628896D01*
X222610382Y-121990437D01*
X222484059Y-122366419D01*
X222395799Y-122753111D01*
X222346478Y-123146681D01*
X222336590Y-123543173D01*
X222336590Y-123543187D01*
X222366230Y-123938711D01*
X222366231Y-123938724D01*
X222435108Y-124329339D01*
X222542530Y-124711137D01*
X222542534Y-124711151D01*
X222687435Y-125080353D01*
X222687440Y-125080365D01*
X222866066Y-125428788D01*
X222868391Y-125433323D01*
X223083586Y-125766509D01*
X223330886Y-126076614D01*
X223330895Y-126076625D01*
X223576260Y-126328184D01*
X223607833Y-126360554D01*
X223911676Y-126615508D01*
X224239394Y-126838942D01*
X224587730Y-127028636D01*
X224953223Y-127182704D01*
X224953232Y-127182706D01*
X224953238Y-127182709D01*
X225187629Y-127255009D01*
X225245888Y-127293579D01*
X225274045Y-127357524D01*
X225263162Y-127426541D01*
X225216694Y-127478717D01*
X225151079Y-127497500D01*
X176908000Y-127497500D01*
X176840961Y-127477815D01*
X176795206Y-127425011D01*
X176784000Y-127373500D01*
X176784000Y-93596000D01*
X176803685Y-93528961D01*
X176856489Y-93483206D01*
X176908000Y-93472000D01*
X230243500Y-93472000D01*
X230310539Y-93491685D01*
G37*
G04 #@! TD.AperFunction*
G04 #@! TA.AperFunction,Conductor*
G36*
X225206965Y-36860185D02*
G01*
X225252720Y-36912989D01*
X225262664Y-36982147D01*
X225233639Y-37045703D01*
X225174861Y-37083477D01*
X225170524Y-37084666D01*
X225141272Y-37092114D01*
X224768549Y-37227774D01*
X224411191Y-37399869D01*
X224072753Y-37606684D01*
X224072742Y-37606692D01*
X223756575Y-37846180D01*
X223756572Y-37846182D01*
X223465813Y-38115968D01*
X223203365Y-38413359D01*
X222971839Y-38735393D01*
X222971826Y-38735413D01*
X222773516Y-39078896D01*
X222610382Y-39440437D01*
X222484059Y-39816419D01*
X222395799Y-40203111D01*
X222346478Y-40596681D01*
X222336590Y-40993173D01*
X222336590Y-40993187D01*
X222366230Y-41388711D01*
X222366231Y-41388724D01*
X222435108Y-41779339D01*
X222542530Y-42161137D01*
X222542534Y-42161151D01*
X222687435Y-42530353D01*
X222687440Y-42530365D01*
X222868386Y-42883314D01*
X222868391Y-42883323D01*
X223083586Y-43216509D01*
X223330886Y-43526614D01*
X223330895Y-43526625D01*
X223600811Y-43803355D01*
X223607833Y-43810554D01*
X223911676Y-44065508D01*
X224239394Y-44288942D01*
X224587730Y-44478636D01*
X224953223Y-44632704D01*
X224953232Y-44632706D01*
X224953238Y-44632709D01*
X225332235Y-44749614D01*
X225332248Y-44749617D01*
X225720999Y-44828205D01*
X225721014Y-44828208D01*
X226059300Y-44862058D01*
X226115680Y-44867700D01*
X226115681Y-44867700D01*
X226413103Y-44867700D01*
X226611130Y-44857816D01*
X226710145Y-44852875D01*
X227102353Y-44793759D01*
X227486726Y-44695886D01*
X227859445Y-44560228D01*
X228216803Y-44388133D01*
X228555251Y-44181312D01*
X228871424Y-43941820D01*
X229162181Y-43672037D01*
X229424631Y-43374645D01*
X229656166Y-43052600D01*
X229854485Y-42709101D01*
X230017617Y-42347563D01*
X230125956Y-42025105D01*
X230165968Y-41967825D01*
X230230594Y-41941270D01*
X230299318Y-41953871D01*
X230350321Y-42001626D01*
X230367500Y-42064597D01*
X230367500Y-93142500D01*
X230347815Y-93209539D01*
X230295011Y-93255294D01*
X230243500Y-93266500D01*
X192983500Y-93266500D01*
X192916461Y-93246815D01*
X192870706Y-93194011D01*
X192859500Y-93142500D01*
X192859500Y-86613999D01*
X202458343Y-86613999D01*
X202476926Y-86802681D01*
X202476927Y-86802683D01*
X202531963Y-86984115D01*
X202531964Y-86984118D01*
X202531965Y-86984119D01*
X202531966Y-86984122D01*
X202621334Y-87151318D01*
X202621338Y-87151325D01*
X202741616Y-87297883D01*
X202888174Y-87418161D01*
X202888181Y-87418165D01*
X203055377Y-87507533D01*
X203055378Y-87507533D01*
X203055385Y-87507537D01*
X203236817Y-87562573D01*
X203236816Y-87562573D01*
X203253733Y-87564239D01*
X203425500Y-87581157D01*
X203614183Y-87562573D01*
X203795615Y-87507537D01*
X203962824Y-87418162D01*
X204109383Y-87297883D01*
X204229662Y-87151324D01*
X204319037Y-86984115D01*
X204374073Y-86802683D01*
X204392657Y-86614000D01*
X204374073Y-86425317D01*
X204319037Y-86243885D01*
X204229662Y-86076676D01*
X204229661Y-86076674D01*
X204109383Y-85930116D01*
X203962825Y-85809838D01*
X203962818Y-85809834D01*
X203795622Y-85720466D01*
X203795619Y-85720465D01*
X203795618Y-85720464D01*
X203795615Y-85720463D01*
X203614183Y-85665427D01*
X203614181Y-85665426D01*
X203614183Y-85665426D01*
X203425500Y-85646843D01*
X203236818Y-85665426D01*
X203129694Y-85697921D01*
X203055385Y-85720463D01*
X203055382Y-85720464D01*
X203055380Y-85720465D01*
X203055377Y-85720466D01*
X202888181Y-85809834D01*
X202888174Y-85809838D01*
X202741616Y-85930116D01*
X202621338Y-86076674D01*
X202621334Y-86076681D01*
X202531966Y-86243877D01*
X202531965Y-86243880D01*
X202476926Y-86425318D01*
X202458343Y-86613999D01*
X192859500Y-86613999D01*
X192859500Y-76618582D01*
X192859500Y-62230001D01*
X193790318Y-62230001D01*
X193810955Y-62386760D01*
X193810956Y-62386762D01*
X193844383Y-62467463D01*
X193871464Y-62532841D01*
X193967718Y-62658282D01*
X194093159Y-62754536D01*
X194239238Y-62815044D01*
X194270047Y-62819100D01*
X194395999Y-62835682D01*
X194396000Y-62835682D01*
X194461319Y-62827082D01*
X194530354Y-62837847D01*
X194565186Y-62862340D01*
X198772181Y-67069335D01*
X198805666Y-67130658D01*
X198808500Y-67157016D01*
X198808500Y-75493556D01*
X198805152Y-75518979D01*
X198804712Y-75524013D01*
X198808264Y-75564598D01*
X198808500Y-75570005D01*
X198808500Y-84269234D01*
X198788815Y-84336273D01*
X198759988Y-84367608D01*
X198707721Y-84407715D01*
X198707719Y-84407716D01*
X198707718Y-84407718D01*
X198635527Y-84501798D01*
X198611463Y-84533160D01*
X198550956Y-84679237D01*
X198550955Y-84679239D01*
X198530318Y-84835998D01*
X198530318Y-84836001D01*
X198550955Y-84992760D01*
X198550956Y-84992762D01*
X198611464Y-85138841D01*
X198707718Y-85264282D01*
X198833159Y-85360536D01*
X198979238Y-85421044D01*
X199057619Y-85431363D01*
X199135999Y-85441682D01*
X199136000Y-85441682D01*
X199136001Y-85441682D01*
X199188254Y-85434802D01*
X199292762Y-85421044D01*
X199438841Y-85360536D01*
X199564282Y-85264282D01*
X199660536Y-85138841D01*
X199721044Y-84992762D01*
X199741682Y-84836000D01*
X199721044Y-84679238D01*
X199660536Y-84533159D01*
X199564282Y-84407718D01*
X199562216Y-84406132D01*
X199512012Y-84367608D01*
X199470810Y-84311180D01*
X199463500Y-84269234D01*
X199463500Y-81533999D01*
X202458343Y-81533999D01*
X202476926Y-81722681D01*
X202476927Y-81722683D01*
X202531963Y-81904115D01*
X202531964Y-81904118D01*
X202531965Y-81904119D01*
X202531966Y-81904122D01*
X202621334Y-82071318D01*
X202621338Y-82071325D01*
X202741616Y-82217883D01*
X202888174Y-82338161D01*
X202888181Y-82338165D01*
X203055377Y-82427533D01*
X203055378Y-82427533D01*
X203055385Y-82427537D01*
X203236817Y-82482573D01*
X203236816Y-82482573D01*
X203253733Y-82484239D01*
X203425500Y-82501157D01*
X203614183Y-82482573D01*
X203795615Y-82427537D01*
X203962824Y-82338162D01*
X204109383Y-82217883D01*
X204229662Y-82071324D01*
X204319037Y-81904115D01*
X204374073Y-81722683D01*
X204392657Y-81534000D01*
X204374073Y-81345317D01*
X204319037Y-81163885D01*
X204229662Y-80996676D01*
X204229661Y-80996674D01*
X204109383Y-80850116D01*
X203962825Y-80729838D01*
X203962818Y-80729834D01*
X203795622Y-80640466D01*
X203795619Y-80640465D01*
X203795618Y-80640464D01*
X203795615Y-80640463D01*
X203614183Y-80585427D01*
X203614181Y-80585426D01*
X203614183Y-80585426D01*
X203425500Y-80566843D01*
X203236818Y-80585426D01*
X203129694Y-80617921D01*
X203055385Y-80640463D01*
X203055382Y-80640464D01*
X203055380Y-80640465D01*
X203055377Y-80640466D01*
X202888181Y-80729834D01*
X202888174Y-80729838D01*
X202741616Y-80850116D01*
X202621338Y-80996674D01*
X202621334Y-80996681D01*
X202531966Y-81163877D01*
X202531965Y-81163880D01*
X202476926Y-81345318D01*
X202458343Y-81533999D01*
X199463500Y-81533999D01*
X199463500Y-75740015D01*
X199483185Y-75672976D01*
X199499814Y-75652339D01*
X202958592Y-72193561D01*
X203019913Y-72160078D01*
X203082264Y-72162583D01*
X203238814Y-72210072D01*
X203238816Y-72210073D01*
X203255733Y-72211739D01*
X203427500Y-72228657D01*
X203616183Y-72210073D01*
X203797615Y-72155037D01*
X203964824Y-72065662D01*
X204111383Y-71945383D01*
X204231662Y-71798824D01*
X204321037Y-71631615D01*
X204376073Y-71450183D01*
X204394657Y-71261500D01*
X204376073Y-71072817D01*
X204321037Y-70891385D01*
X204231662Y-70724176D01*
X204231661Y-70724174D01*
X204111383Y-70577616D01*
X203964825Y-70457338D01*
X203964818Y-70457334D01*
X203797622Y-70367966D01*
X203797619Y-70367965D01*
X203797618Y-70367964D01*
X203797615Y-70367963D01*
X203616183Y-70312927D01*
X203616181Y-70312926D01*
X203616183Y-70312926D01*
X203427500Y-70294343D01*
X203238818Y-70312926D01*
X203131694Y-70345421D01*
X203057385Y-70367963D01*
X203057382Y-70367964D01*
X203057380Y-70367965D01*
X203057377Y-70367966D01*
X202890181Y-70457334D01*
X202890174Y-70457338D01*
X202743616Y-70577616D01*
X202623338Y-70724174D01*
X202623334Y-70724181D01*
X202533966Y-70891377D01*
X202533965Y-70891380D01*
X202478926Y-71072818D01*
X202460343Y-71261500D01*
X202478926Y-71450181D01*
X202498887Y-71515983D01*
X202526038Y-71605491D01*
X202526415Y-71606732D01*
X202527038Y-71676599D01*
X202495435Y-71730408D01*
X199675181Y-74550663D01*
X199613858Y-74584148D01*
X199544166Y-74579164D01*
X199488233Y-74537292D01*
X199463816Y-74471828D01*
X199463500Y-74462982D01*
X199463500Y-66986995D01*
X199463736Y-66981588D01*
X199467286Y-66941013D01*
X199456741Y-66901662D01*
X199455574Y-66896402D01*
X199448497Y-66856261D01*
X199448495Y-66856257D01*
X199446756Y-66851480D01*
X199439546Y-66834072D01*
X199437393Y-66829455D01*
X199414032Y-66796093D01*
X199411123Y-66791528D01*
X199390750Y-66756240D01*
X199390746Y-66756236D01*
X199359535Y-66730046D01*
X199355546Y-66726391D01*
X195028340Y-62399186D01*
X194994855Y-62337863D01*
X194993082Y-62295319D01*
X195001682Y-62230000D01*
X195001682Y-62229998D01*
X194981044Y-62073239D01*
X194981044Y-62073238D01*
X194920536Y-61927159D01*
X194824282Y-61801718D01*
X194698841Y-61705464D01*
X194673209Y-61694847D01*
X194552762Y-61644956D01*
X194552760Y-61644955D01*
X194396001Y-61624318D01*
X194395999Y-61624318D01*
X194239239Y-61644955D01*
X194239237Y-61644956D01*
X194093160Y-61705463D01*
X193967718Y-61801718D01*
X193871463Y-61927160D01*
X193810956Y-62073237D01*
X193810955Y-62073239D01*
X193790318Y-62229998D01*
X193790318Y-62230001D01*
X192859500Y-62230001D01*
X192859500Y-60002760D01*
X192879184Y-59935725D01*
X192908010Y-59904391D01*
X192960282Y-59864282D01*
X193056536Y-59738841D01*
X193117044Y-59592762D01*
X193137682Y-59436000D01*
X193117044Y-59279238D01*
X193056536Y-59133159D01*
X192960282Y-59007718D01*
X192834841Y-58911464D01*
X192833706Y-58910994D01*
X192688762Y-58850956D01*
X192688760Y-58850955D01*
X192532001Y-58830318D01*
X192531999Y-58830318D01*
X192375239Y-58850955D01*
X192375237Y-58850956D01*
X192229160Y-58911463D01*
X192103718Y-59007718D01*
X192007463Y-59133160D01*
X191946956Y-59279237D01*
X191946955Y-59279239D01*
X191926318Y-59435998D01*
X191926318Y-59436001D01*
X191946955Y-59592760D01*
X191946956Y-59592762D01*
X192007464Y-59738841D01*
X192103718Y-59864282D01*
X192155984Y-59904387D01*
X192155986Y-59904388D01*
X192197189Y-59960816D01*
X192204500Y-60002764D01*
X192204500Y-93142500D01*
X192184815Y-93209539D01*
X192132011Y-93255294D01*
X192080500Y-93266500D01*
X176907992Y-93266500D01*
X176864313Y-93271197D01*
X176812807Y-93282402D01*
X176802629Y-93284889D01*
X176802624Y-93284891D01*
X176721916Y-93327899D01*
X176721913Y-93327901D01*
X176677244Y-93366607D01*
X176669111Y-93373655D01*
X176651159Y-93391243D01*
X176651154Y-93391249D01*
X176606511Y-93471059D01*
X176606509Y-93471064D01*
X176586826Y-93538096D01*
X176586825Y-93538101D01*
X176586825Y-93538102D01*
X176578909Y-93593159D01*
X176578500Y-93596003D01*
X176578500Y-127373500D01*
X176558815Y-127440539D01*
X176506011Y-127486294D01*
X176454500Y-127497500D01*
X176351500Y-127497500D01*
X176284461Y-127477815D01*
X176238706Y-127425011D01*
X176227500Y-127373500D01*
X176227500Y-98168008D01*
X176227499Y-98167992D01*
X176222803Y-98124316D01*
X176218535Y-98104701D01*
X176211598Y-98072807D01*
X176209110Y-98062629D01*
X176209110Y-98062627D01*
X176166100Y-97981915D01*
X176120345Y-97929111D01*
X176102756Y-97911159D01*
X176102750Y-97911154D01*
X176022940Y-97866511D01*
X176022935Y-97866509D01*
X175955903Y-97846826D01*
X175955899Y-97846825D01*
X175955898Y-97846825D01*
X175898000Y-97838500D01*
X164043478Y-97838500D01*
X164039603Y-97838690D01*
X164033396Y-97838995D01*
X164033395Y-97838995D01*
X164030801Y-97839251D01*
X164017118Y-97840597D01*
X164013910Y-97840733D01*
X163842153Y-97857648D01*
X163817847Y-97857648D01*
X163647946Y-97840915D01*
X163646409Y-97840850D01*
X163642982Y-97840608D01*
X163639823Y-97840297D01*
X163626597Y-97838995D01*
X163616522Y-97838500D01*
X154645478Y-97838500D01*
X154641603Y-97838690D01*
X154635396Y-97838995D01*
X154635395Y-97838995D01*
X154632801Y-97839251D01*
X154619118Y-97840597D01*
X154615910Y-97840733D01*
X154444153Y-97857648D01*
X154419847Y-97857648D01*
X154249946Y-97840915D01*
X154248409Y-97840850D01*
X154244982Y-97840608D01*
X154241823Y-97840297D01*
X154228597Y-97838995D01*
X154218522Y-97838500D01*
X138554000Y-97838500D01*
X138518753Y-97842289D01*
X138449995Y-97829884D01*
X138398858Y-97782273D01*
X138381500Y-97719000D01*
X138381500Y-93850008D01*
X138381499Y-93849999D01*
X138376803Y-93806316D01*
X138372535Y-93786701D01*
X138365598Y-93754807D01*
X138363110Y-93744629D01*
X138363110Y-93744627D01*
X138320100Y-93663915D01*
X138274345Y-93611111D01*
X138256756Y-93593159D01*
X138256750Y-93593154D01*
X138176940Y-93548511D01*
X138176935Y-93548509D01*
X138109903Y-93528826D01*
X138109899Y-93528825D01*
X138109898Y-93528825D01*
X138052000Y-93520500D01*
X138051996Y-93520500D01*
X137195433Y-93520500D01*
X137128394Y-93500815D01*
X137082639Y-93448011D01*
X137072695Y-93378853D01*
X137091008Y-93338752D01*
X139379500Y-93338752D01*
X139391131Y-93397229D01*
X139391132Y-93397230D01*
X139435447Y-93463552D01*
X139501769Y-93507867D01*
X139501770Y-93507868D01*
X139560247Y-93519499D01*
X139560250Y-93519500D01*
X139560252Y-93519500D01*
X141099750Y-93519500D01*
X141099751Y-93519499D01*
X141114568Y-93516552D01*
X141158229Y-93507868D01*
X141158229Y-93507867D01*
X141158231Y-93507867D01*
X141224552Y-93463552D01*
X141268867Y-93397231D01*
X141268867Y-93397229D01*
X141268868Y-93397229D01*
X141277552Y-93353568D01*
X141280500Y-93338748D01*
X141280500Y-91948001D01*
X171098318Y-91948001D01*
X171118955Y-92104760D01*
X171118956Y-92104762D01*
X171178864Y-92249394D01*
X171179464Y-92250841D01*
X171275718Y-92376282D01*
X171401159Y-92472536D01*
X171547238Y-92533044D01*
X171625619Y-92543363D01*
X171703999Y-92553682D01*
X171704000Y-92553682D01*
X171704001Y-92553682D01*
X171756254Y-92546802D01*
X171860762Y-92533044D01*
X172006841Y-92472536D01*
X172132282Y-92376282D01*
X172172388Y-92324013D01*
X172228818Y-92282811D01*
X172270765Y-92275500D01*
X181592995Y-92275500D01*
X181598398Y-92275735D01*
X181638984Y-92279287D01*
X181678368Y-92268732D01*
X181683586Y-92267576D01*
X181723739Y-92260497D01*
X181723744Y-92260493D01*
X181728531Y-92258752D01*
X181745919Y-92251549D01*
X181750537Y-92249395D01*
X181750543Y-92249394D01*
X181783937Y-92226009D01*
X181788451Y-92223134D01*
X181823760Y-92202750D01*
X181849966Y-92171517D01*
X181853597Y-92167556D01*
X183099561Y-90921592D01*
X183103523Y-90917961D01*
X183134750Y-90891760D01*
X183155125Y-90856466D01*
X183158026Y-90851913D01*
X183181394Y-90818543D01*
X183181395Y-90818537D01*
X183183550Y-90813917D01*
X183190758Y-90796517D01*
X183192496Y-90791740D01*
X183192497Y-90791739D01*
X183199574Y-90751596D01*
X183200737Y-90746349D01*
X183211286Y-90706984D01*
X183207735Y-90666404D01*
X183207500Y-90661003D01*
X183207500Y-88816808D01*
X183227185Y-88749769D01*
X183279989Y-88704014D01*
X183349147Y-88694070D01*
X183412703Y-88723095D01*
X183423647Y-88733834D01*
X183462078Y-88776515D01*
X183607396Y-88882095D01*
X183771490Y-88955154D01*
X183947188Y-88992500D01*
X184126812Y-88992500D01*
X184302510Y-88955154D01*
X184466604Y-88882095D01*
X184611922Y-88776515D01*
X184732113Y-88643029D01*
X184821925Y-88487471D01*
X184877431Y-88316639D01*
X184896207Y-88138000D01*
X185717793Y-88138000D01*
X185736569Y-88316640D01*
X185747499Y-88350281D01*
X185792075Y-88487471D01*
X185881887Y-88643029D01*
X186002078Y-88776515D01*
X186147396Y-88882095D01*
X186311490Y-88955154D01*
X186487188Y-88992500D01*
X186666812Y-88992500D01*
X186842510Y-88955154D01*
X187006604Y-88882095D01*
X187151922Y-88776515D01*
X187272113Y-88643029D01*
X187361925Y-88487471D01*
X187417431Y-88316639D01*
X187436207Y-88138000D01*
X187436207Y-88137999D01*
X188257793Y-88137999D01*
X188276569Y-88316640D01*
X188287499Y-88350281D01*
X188332075Y-88487471D01*
X188421887Y-88643029D01*
X188542078Y-88776515D01*
X188687396Y-88882095D01*
X188851490Y-88955154D01*
X189027188Y-88992500D01*
X189206812Y-88992500D01*
X189382510Y-88955154D01*
X189546604Y-88882095D01*
X189691922Y-88776515D01*
X189812113Y-88643029D01*
X189901925Y-88487471D01*
X189957431Y-88316639D01*
X189976207Y-88138000D01*
X189957431Y-87959361D01*
X189901925Y-87788529D01*
X189812113Y-87632971D01*
X189691922Y-87499485D01*
X189546604Y-87393905D01*
X189382510Y-87320846D01*
X189382508Y-87320845D01*
X189206812Y-87283500D01*
X189027188Y-87283500D01*
X188851490Y-87320845D01*
X188851485Y-87320847D01*
X188687397Y-87393905D01*
X188687392Y-87393907D01*
X188542079Y-87499483D01*
X188542072Y-87499489D01*
X188421886Y-87632972D01*
X188332074Y-87788530D01*
X188276569Y-87959359D01*
X188257793Y-88137999D01*
X187436207Y-88137999D01*
X187417431Y-87959361D01*
X187361925Y-87788529D01*
X187272113Y-87632971D01*
X187151922Y-87499485D01*
X187006604Y-87393905D01*
X186842510Y-87320846D01*
X186842508Y-87320845D01*
X186666812Y-87283500D01*
X186487188Y-87283500D01*
X186311490Y-87320845D01*
X186311485Y-87320847D01*
X186147397Y-87393905D01*
X186147392Y-87393907D01*
X186002079Y-87499483D01*
X186002072Y-87499489D01*
X185881886Y-87632972D01*
X185792074Y-87788530D01*
X185736569Y-87959359D01*
X185717793Y-88138000D01*
X184896207Y-88138000D01*
X184877431Y-87959361D01*
X184821925Y-87788529D01*
X184732113Y-87632971D01*
X184611922Y-87499485D01*
X184466604Y-87393905D01*
X184302510Y-87320846D01*
X184302508Y-87320845D01*
X184126812Y-87283500D01*
X183947188Y-87283500D01*
X183771490Y-87320845D01*
X183771485Y-87320847D01*
X183607397Y-87393905D01*
X183607392Y-87393907D01*
X183462079Y-87499483D01*
X183462072Y-87499489D01*
X183423650Y-87542163D01*
X183364164Y-87578812D01*
X183294307Y-87577482D01*
X183236258Y-87538595D01*
X183208448Y-87474499D01*
X183207500Y-87459191D01*
X183207500Y-73576808D01*
X183227185Y-73509769D01*
X183279989Y-73464014D01*
X183349147Y-73454070D01*
X183412703Y-73483095D01*
X183423647Y-73493834D01*
X183462078Y-73536515D01*
X183607396Y-73642095D01*
X183771490Y-73715154D01*
X183947188Y-73752500D01*
X184126812Y-73752500D01*
X184302510Y-73715154D01*
X184466604Y-73642095D01*
X184611922Y-73536515D01*
X184732113Y-73403029D01*
X184821925Y-73247471D01*
X184877431Y-73076639D01*
X184896207Y-72898000D01*
X185717793Y-72898000D01*
X185736569Y-73076640D01*
X185747980Y-73111761D01*
X185792075Y-73247471D01*
X185881887Y-73403029D01*
X186002078Y-73536515D01*
X186147396Y-73642095D01*
X186311490Y-73715154D01*
X186487188Y-73752500D01*
X186666812Y-73752500D01*
X186842510Y-73715154D01*
X187006604Y-73642095D01*
X187151922Y-73536515D01*
X187272113Y-73403029D01*
X187361925Y-73247471D01*
X187417431Y-73076639D01*
X187436207Y-72898000D01*
X188257793Y-72898000D01*
X188276569Y-73076640D01*
X188287980Y-73111761D01*
X188332075Y-73247471D01*
X188421887Y-73403029D01*
X188542078Y-73536515D01*
X188687396Y-73642095D01*
X188851490Y-73715154D01*
X189027188Y-73752500D01*
X189206812Y-73752500D01*
X189382510Y-73715154D01*
X189546604Y-73642095D01*
X189691922Y-73536515D01*
X189812113Y-73403029D01*
X189901925Y-73247471D01*
X189957431Y-73076639D01*
X189976207Y-72898000D01*
X189957431Y-72719361D01*
X189901925Y-72548529D01*
X189812113Y-72392971D01*
X189691922Y-72259485D01*
X189546604Y-72153905D01*
X189382510Y-72080846D01*
X189382508Y-72080845D01*
X189206812Y-72043500D01*
X189027188Y-72043500D01*
X188851490Y-72080845D01*
X188851485Y-72080847D01*
X188687397Y-72153905D01*
X188687392Y-72153907D01*
X188542079Y-72259483D01*
X188542072Y-72259489D01*
X188421886Y-72392972D01*
X188332074Y-72548530D01*
X188276569Y-72719359D01*
X188257793Y-72898000D01*
X187436207Y-72898000D01*
X187417431Y-72719361D01*
X187361925Y-72548529D01*
X187272113Y-72392971D01*
X187151922Y-72259485D01*
X187006604Y-72153905D01*
X186842510Y-72080846D01*
X186842508Y-72080845D01*
X186666812Y-72043500D01*
X186487188Y-72043500D01*
X186311490Y-72080845D01*
X186311485Y-72080847D01*
X186147397Y-72153905D01*
X186147392Y-72153907D01*
X186002079Y-72259483D01*
X186002072Y-72259489D01*
X185881886Y-72392972D01*
X185792074Y-72548530D01*
X185736569Y-72719359D01*
X185717793Y-72898000D01*
X184896207Y-72898000D01*
X184877431Y-72719361D01*
X184852197Y-72641700D01*
X184850203Y-72571863D01*
X184882446Y-72515707D01*
X190268056Y-67130097D01*
X190272017Y-67126467D01*
X190303245Y-67100265D01*
X190323614Y-67064982D01*
X190326522Y-67060419D01*
X190349890Y-67027048D01*
X190352040Y-67022436D01*
X190359249Y-67005033D01*
X190360991Y-67000246D01*
X190360991Y-67000245D01*
X190360992Y-67000244D01*
X190368068Y-66960107D01*
X190369230Y-66954865D01*
X190379782Y-66915489D01*
X190376230Y-66874902D01*
X190375995Y-66869499D01*
X190375995Y-53340001D01*
X200816318Y-53340001D01*
X200836955Y-53496760D01*
X200836956Y-53496762D01*
X200897464Y-53642841D01*
X200962825Y-53728021D01*
X200993719Y-53768283D01*
X201045986Y-53808388D01*
X201087189Y-53864816D01*
X201094500Y-53906764D01*
X201094500Y-64158994D01*
X201094264Y-64164401D01*
X201090712Y-64204983D01*
X201101257Y-64244335D01*
X201102428Y-64249618D01*
X201109503Y-64289740D01*
X201111232Y-64294491D01*
X201118468Y-64311959D01*
X201120606Y-64316544D01*
X201143972Y-64349914D01*
X201146879Y-64354478D01*
X201167247Y-64389757D01*
X201167251Y-64389761D01*
X201198463Y-64415951D01*
X201202442Y-64419596D01*
X202256079Y-65473234D01*
X202495435Y-65712590D01*
X202528920Y-65773913D01*
X202526415Y-65836265D01*
X202478926Y-65992817D01*
X202460343Y-66181500D01*
X202478926Y-66370181D01*
X202478927Y-66370183D01*
X202533963Y-66551615D01*
X202533964Y-66551618D01*
X202533965Y-66551619D01*
X202533966Y-66551622D01*
X202623334Y-66718818D01*
X202623338Y-66718825D01*
X202743616Y-66865383D01*
X202890174Y-66985661D01*
X202890181Y-66985665D01*
X203057377Y-67075033D01*
X203057378Y-67075033D01*
X203057385Y-67075037D01*
X203238817Y-67130073D01*
X203238816Y-67130073D01*
X203244756Y-67130658D01*
X203427500Y-67148657D01*
X203616183Y-67130073D01*
X203797615Y-67075037D01*
X203964824Y-66985662D01*
X204111383Y-66865383D01*
X204231662Y-66718824D01*
X204321037Y-66551615D01*
X204376073Y-66370183D01*
X204394657Y-66181500D01*
X204376073Y-65992817D01*
X204321037Y-65811385D01*
X204281363Y-65737160D01*
X204231665Y-65644181D01*
X204231661Y-65644174D01*
X204111383Y-65497616D01*
X203964825Y-65377338D01*
X203964818Y-65377334D01*
X203797622Y-65287966D01*
X203797619Y-65287965D01*
X203797618Y-65287964D01*
X203797615Y-65287963D01*
X203616183Y-65232927D01*
X203616181Y-65232926D01*
X203616183Y-65232926D01*
X203427500Y-65214343D01*
X203238817Y-65232926D01*
X203082265Y-65280415D01*
X203012398Y-65281038D01*
X202958590Y-65249435D01*
X201785819Y-64076664D01*
X201752334Y-64015341D01*
X201749500Y-63988983D01*
X201749500Y-58166001D01*
X206658318Y-58166001D01*
X206678955Y-58322760D01*
X206678956Y-58322762D01*
X206739464Y-58468841D01*
X206835718Y-58594282D01*
X206961159Y-58690536D01*
X207107238Y-58751044D01*
X207138047Y-58755100D01*
X207263999Y-58771682D01*
X207264000Y-58771682D01*
X207329319Y-58763082D01*
X207398354Y-58773847D01*
X207433185Y-58798339D01*
X207631180Y-58996335D01*
X207782391Y-59147546D01*
X207786046Y-59151535D01*
X207812240Y-59182750D01*
X207847516Y-59203116D01*
X207852082Y-59206025D01*
X207885455Y-59229394D01*
X207890058Y-59231540D01*
X207907482Y-59238757D01*
X207912254Y-59240493D01*
X207912261Y-59240497D01*
X207952401Y-59247574D01*
X207957655Y-59248739D01*
X207997016Y-59259287D01*
X208037601Y-59255735D01*
X208043005Y-59255500D01*
X215966984Y-59255500D01*
X216034023Y-59275185D01*
X216054665Y-59291818D01*
X220616182Y-63853336D01*
X220649666Y-63914657D01*
X220652500Y-63941015D01*
X220652499Y-65473234D01*
X220632814Y-65540274D01*
X220603988Y-65571608D01*
X220551719Y-65611716D01*
X220455463Y-65737160D01*
X220394956Y-65883237D01*
X220394955Y-65883239D01*
X220374318Y-66039998D01*
X220374318Y-66040001D01*
X220394955Y-66196760D01*
X220394956Y-66196762D01*
X220455464Y-66342841D01*
X220551718Y-66468282D01*
X220677159Y-66564536D01*
X220823238Y-66625044D01*
X220901619Y-66635363D01*
X220979999Y-66645682D01*
X220980000Y-66645682D01*
X220980001Y-66645682D01*
X221032254Y-66638802D01*
X221136762Y-66625044D01*
X221282841Y-66564536D01*
X221408282Y-66468282D01*
X221504536Y-66342841D01*
X221565044Y-66196762D01*
X221585682Y-66040000D01*
X221579470Y-65992818D01*
X221565044Y-65883239D01*
X221565044Y-65883238D01*
X221504536Y-65737159D01*
X221408282Y-65611718D01*
X221406216Y-65610132D01*
X221356012Y-65571608D01*
X221314810Y-65515180D01*
X221307500Y-65473234D01*
X221307500Y-63771004D01*
X221307736Y-63765597D01*
X221311287Y-63725014D01*
X221306618Y-63707592D01*
X221300739Y-63685655D01*
X221299574Y-63680401D01*
X221292497Y-63640261D01*
X221292493Y-63640254D01*
X221290757Y-63635482D01*
X221283540Y-63618058D01*
X221281394Y-63613455D01*
X221258025Y-63580082D01*
X221255116Y-63575516D01*
X221234750Y-63540240D01*
X221234750Y-63540239D01*
X221203535Y-63514046D01*
X221199546Y-63510391D01*
X220027018Y-62337863D01*
X216397596Y-58708442D01*
X216393951Y-58704463D01*
X216367761Y-58673251D01*
X216367757Y-58673247D01*
X216332478Y-58652879D01*
X216327914Y-58649972D01*
X216294544Y-58626606D01*
X216289959Y-58624468D01*
X216272491Y-58617232D01*
X216267740Y-58615503D01*
X216227618Y-58608428D01*
X216222335Y-58607257D01*
X216182981Y-58596712D01*
X216146891Y-58599871D01*
X216142398Y-58600264D01*
X216136995Y-58600500D01*
X208213017Y-58600500D01*
X208145978Y-58580815D01*
X208125336Y-58564181D01*
X207896340Y-58335186D01*
X207862855Y-58273863D01*
X207861082Y-58231319D01*
X207869682Y-58166000D01*
X207869682Y-58165998D01*
X207849044Y-58009239D01*
X207849044Y-58009238D01*
X207788536Y-57863159D01*
X207692282Y-57737718D01*
X207566841Y-57641464D01*
X207420762Y-57580956D01*
X207420760Y-57580955D01*
X207264001Y-57560318D01*
X207263999Y-57560318D01*
X207107239Y-57580955D01*
X207107237Y-57580956D01*
X206961160Y-57641463D01*
X206835718Y-57737718D01*
X206739463Y-57863160D01*
X206678956Y-58009237D01*
X206678955Y-58009239D01*
X206658318Y-58165998D01*
X206658318Y-58166001D01*
X201749500Y-58166001D01*
X201749500Y-53906764D01*
X201769185Y-53839725D01*
X201798014Y-53808388D01*
X201850282Y-53768282D01*
X201946536Y-53642841D01*
X202007044Y-53496762D01*
X202027682Y-53340000D01*
X202007044Y-53183238D01*
X201946536Y-53037159D01*
X201850282Y-52911718D01*
X201724841Y-52815464D01*
X201646852Y-52783160D01*
X201578762Y-52754956D01*
X201578760Y-52754955D01*
X201422001Y-52734318D01*
X201421999Y-52734318D01*
X201265239Y-52754955D01*
X201265237Y-52754956D01*
X201119160Y-52815463D01*
X200993718Y-52911718D01*
X200897463Y-53037160D01*
X200836956Y-53183237D01*
X200836955Y-53183239D01*
X200816318Y-53339998D01*
X200816318Y-53340001D01*
X190375995Y-53340001D01*
X190375995Y-51074637D01*
X190395680Y-51007598D01*
X190441540Y-50965280D01*
X190585819Y-50888162D01*
X190732378Y-50767883D01*
X190852657Y-50621324D01*
X190942032Y-50454115D01*
X190997068Y-50272683D01*
X191015652Y-50084000D01*
X191621338Y-50084000D01*
X191639921Y-50272681D01*
X191658267Y-50333160D01*
X191694958Y-50454115D01*
X191694959Y-50454117D01*
X191694960Y-50454119D01*
X191694961Y-50454122D01*
X191784329Y-50621318D01*
X191784333Y-50621325D01*
X191904611Y-50767883D01*
X192051169Y-50888161D01*
X192051176Y-50888165D01*
X192218372Y-50977533D01*
X192218373Y-50977533D01*
X192218380Y-50977537D01*
X192399812Y-51032573D01*
X192399811Y-51032573D01*
X192416728Y-51034239D01*
X192588495Y-51051157D01*
X192777178Y-51032573D01*
X192958610Y-50977537D01*
X193125819Y-50888162D01*
X193272378Y-50767883D01*
X193392657Y-50621324D01*
X193482032Y-50454115D01*
X193537068Y-50272683D01*
X193555652Y-50084000D01*
X193537068Y-49895317D01*
X193482032Y-49713885D01*
X193476759Y-49704020D01*
X193392660Y-49546681D01*
X193392656Y-49546674D01*
X193272378Y-49400116D01*
X193125820Y-49279838D01*
X193125813Y-49279834D01*
X192958617Y-49190466D01*
X192958614Y-49190465D01*
X192958613Y-49190464D01*
X192958610Y-49190463D01*
X192777178Y-49135427D01*
X192777176Y-49135426D01*
X192777178Y-49135426D01*
X192588495Y-49116843D01*
X192399813Y-49135426D01*
X192292689Y-49167921D01*
X192218380Y-49190463D01*
X192218377Y-49190464D01*
X192218375Y-49190465D01*
X192218372Y-49190466D01*
X192051176Y-49279834D01*
X192051169Y-49279838D01*
X191904611Y-49400116D01*
X191784333Y-49546674D01*
X191784329Y-49546681D01*
X191694961Y-49713877D01*
X191694960Y-49713880D01*
X191694959Y-49713882D01*
X191694958Y-49713885D01*
X191674953Y-49779835D01*
X191639921Y-49895318D01*
X191621338Y-50084000D01*
X191015652Y-50084000D01*
X190997068Y-49895317D01*
X190942032Y-49713885D01*
X190936759Y-49704020D01*
X190852660Y-49546681D01*
X190852656Y-49546674D01*
X190732378Y-49400116D01*
X190585820Y-49279838D01*
X190585813Y-49279834D01*
X190418617Y-49190466D01*
X190418614Y-49190465D01*
X190418613Y-49190464D01*
X190418610Y-49190463D01*
X190237178Y-49135427D01*
X190237176Y-49135426D01*
X190237178Y-49135426D01*
X190048495Y-49116843D01*
X189859813Y-49135426D01*
X189752689Y-49167921D01*
X189678380Y-49190463D01*
X189678377Y-49190464D01*
X189678375Y-49190465D01*
X189678372Y-49190466D01*
X189511176Y-49279834D01*
X189511169Y-49279838D01*
X189364611Y-49400116D01*
X189244333Y-49546674D01*
X189244329Y-49546681D01*
X189154961Y-49713877D01*
X189154960Y-49713880D01*
X189154959Y-49713882D01*
X189154958Y-49713885D01*
X189134953Y-49779835D01*
X189099921Y-49895318D01*
X189081338Y-50084000D01*
X189099921Y-50272681D01*
X189118267Y-50333160D01*
X189154958Y-50454115D01*
X189154959Y-50454117D01*
X189154960Y-50454119D01*
X189154961Y-50454122D01*
X189244329Y-50621318D01*
X189244333Y-50621325D01*
X189364611Y-50767883D01*
X189511169Y-50888161D01*
X189511172Y-50888163D01*
X189555021Y-50911600D01*
X189655449Y-50965280D01*
X189705292Y-51014240D01*
X189720995Y-51074637D01*
X189720995Y-66699487D01*
X189701310Y-66766526D01*
X189684676Y-66787168D01*
X184423029Y-72048815D01*
X184361706Y-72082300D01*
X184309394Y-72079709D01*
X184308866Y-72082197D01*
X184126812Y-72043500D01*
X183947188Y-72043500D01*
X183771490Y-72080845D01*
X183771485Y-72080847D01*
X183607397Y-72153905D01*
X183607392Y-72153907D01*
X183462079Y-72259483D01*
X183462072Y-72259489D01*
X183423650Y-72302163D01*
X183364164Y-72338812D01*
X183294307Y-72337482D01*
X183236258Y-72298595D01*
X183208448Y-72234499D01*
X183207500Y-72219191D01*
X183207500Y-72069016D01*
X183227185Y-72001977D01*
X183243819Y-71981335D01*
X184930811Y-70294343D01*
X186655561Y-68569592D01*
X186659523Y-68565961D01*
X186690750Y-68539760D01*
X186711125Y-68504466D01*
X186714026Y-68499913D01*
X186737394Y-68466543D01*
X186737395Y-68466537D01*
X186739549Y-68461919D01*
X186746755Y-68444524D01*
X186748495Y-68439742D01*
X186748494Y-68439742D01*
X186748497Y-68439739D01*
X186755577Y-68399578D01*
X186756733Y-68394365D01*
X186767286Y-68354985D01*
X186763735Y-68314406D01*
X186763500Y-68309003D01*
X186763500Y-61577408D01*
X186783185Y-61510369D01*
X186812014Y-61479032D01*
X186895500Y-61414971D01*
X186930282Y-61388282D01*
X187026536Y-61262841D01*
X187087044Y-61116762D01*
X187107682Y-60960000D01*
X187087044Y-60803238D01*
X187026536Y-60657159D01*
X186930282Y-60531718D01*
X186804841Y-60435464D01*
X186658762Y-60374956D01*
X186658760Y-60374955D01*
X186502001Y-60354318D01*
X186501999Y-60354318D01*
X186345239Y-60374955D01*
X186345237Y-60374956D01*
X186199160Y-60435463D01*
X186073718Y-60531718D01*
X185977463Y-60657160D01*
X185916956Y-60803237D01*
X185916955Y-60803239D01*
X185896318Y-60959998D01*
X185896318Y-60960001D01*
X185916955Y-61116760D01*
X185916956Y-61116762D01*
X185957232Y-61213998D01*
X185977464Y-61262841D01*
X186073718Y-61388282D01*
X186073720Y-61388283D01*
X186078666Y-61394729D01*
X186077168Y-61395878D01*
X186105666Y-61448068D01*
X186108500Y-61474426D01*
X186108500Y-68138983D01*
X186088815Y-68206022D01*
X186072181Y-68226664D01*
X182660451Y-71638393D01*
X182656462Y-71642049D01*
X182625250Y-71668239D01*
X182625248Y-71668241D01*
X182604876Y-71703526D01*
X182601971Y-71708087D01*
X182578604Y-71741459D01*
X182576473Y-71746028D01*
X182569225Y-71763528D01*
X182567502Y-71768264D01*
X182560427Y-71808383D01*
X182559256Y-71813662D01*
X182548712Y-71853016D01*
X182552264Y-71893598D01*
X182552500Y-71899005D01*
X182552500Y-72598369D01*
X182532815Y-72665408D01*
X182480011Y-72711163D01*
X182410853Y-72721107D01*
X182347297Y-72692082D01*
X182310569Y-72636687D01*
X182291185Y-72577028D01*
X182281925Y-72548529D01*
X182192113Y-72392971D01*
X182071922Y-72259485D01*
X181926604Y-72153905D01*
X181762510Y-72080846D01*
X181762508Y-72080845D01*
X181586812Y-72043500D01*
X181407188Y-72043500D01*
X181231490Y-72080845D01*
X181231485Y-72080847D01*
X181067397Y-72153905D01*
X181067392Y-72153907D01*
X180922079Y-72259483D01*
X180922072Y-72259489D01*
X180801886Y-72392972D01*
X180712074Y-72548530D01*
X180656569Y-72719359D01*
X180637793Y-72897999D01*
X180656569Y-73076640D01*
X180667980Y-73111761D01*
X180712075Y-73247471D01*
X180801887Y-73403029D01*
X180922078Y-73536515D01*
X181067396Y-73642095D01*
X181231490Y-73715154D01*
X181407188Y-73752500D01*
X181586812Y-73752500D01*
X181762510Y-73715154D01*
X181926604Y-73642095D01*
X182071922Y-73536515D01*
X182192113Y-73403029D01*
X182281925Y-73247471D01*
X182310568Y-73159313D01*
X182350006Y-73101637D01*
X182414364Y-73074438D01*
X182483211Y-73086352D01*
X182534687Y-73133596D01*
X182552500Y-73197630D01*
X182552500Y-87838369D01*
X182532815Y-87905408D01*
X182480011Y-87951163D01*
X182410853Y-87961107D01*
X182347297Y-87932082D01*
X182310569Y-87876687D01*
X182281925Y-87788530D01*
X182281925Y-87788529D01*
X182192113Y-87632971D01*
X182071922Y-87499485D01*
X181926604Y-87393905D01*
X181762510Y-87320846D01*
X181762508Y-87320845D01*
X181586812Y-87283500D01*
X181407188Y-87283500D01*
X181231490Y-87320845D01*
X181231485Y-87320847D01*
X181067397Y-87393905D01*
X181067392Y-87393907D01*
X180922079Y-87499483D01*
X180922072Y-87499489D01*
X180801886Y-87632972D01*
X180712074Y-87788530D01*
X180656569Y-87959359D01*
X180637793Y-88137999D01*
X180656569Y-88316640D01*
X180667499Y-88350281D01*
X180712075Y-88487471D01*
X180801887Y-88643029D01*
X180922078Y-88776515D01*
X181067396Y-88882095D01*
X181231490Y-88955154D01*
X181407188Y-88992500D01*
X181586812Y-88992500D01*
X181762510Y-88955154D01*
X181926604Y-88882095D01*
X182071922Y-88776515D01*
X182192113Y-88643029D01*
X182281925Y-88487471D01*
X182310568Y-88399313D01*
X182350006Y-88341637D01*
X182414364Y-88314438D01*
X182483211Y-88326352D01*
X182534687Y-88373596D01*
X182552500Y-88437630D01*
X182552500Y-90490983D01*
X182532815Y-90558022D01*
X182516181Y-90578664D01*
X181510665Y-91584181D01*
X181449342Y-91617666D01*
X181422984Y-91620500D01*
X172270765Y-91620500D01*
X172203726Y-91600815D01*
X172172390Y-91571987D01*
X172153945Y-91547950D01*
X172132282Y-91519718D01*
X172006841Y-91423464D01*
X171860762Y-91362956D01*
X171860760Y-91362955D01*
X171704001Y-91342318D01*
X171703999Y-91342318D01*
X171547239Y-91362955D01*
X171547237Y-91362956D01*
X171401160Y-91423463D01*
X171275718Y-91519718D01*
X171179463Y-91645160D01*
X171118956Y-91791237D01*
X171118955Y-91791239D01*
X171098318Y-91947998D01*
X171098318Y-91948001D01*
X141280500Y-91948001D01*
X141280500Y-91799252D01*
X141280500Y-91799251D01*
X141280500Y-91799249D01*
X141280499Y-91799247D01*
X141268868Y-91740770D01*
X141268867Y-91740769D01*
X141224552Y-91674447D01*
X141158230Y-91630132D01*
X141158229Y-91630131D01*
X141099752Y-91618500D01*
X141099748Y-91618500D01*
X139560252Y-91618500D01*
X139560247Y-91618500D01*
X139501770Y-91630131D01*
X139501769Y-91630132D01*
X139435447Y-91674447D01*
X139391132Y-91740769D01*
X139391131Y-91740770D01*
X139379500Y-91799247D01*
X139379500Y-93338752D01*
X137091008Y-93338752D01*
X137101720Y-93315297D01*
X137116768Y-93300647D01*
X137185357Y-93244357D01*
X137185356Y-93244357D01*
X137304136Y-93099625D01*
X137392396Y-92934501D01*
X137446747Y-92755331D01*
X137465099Y-92569000D01*
X137446747Y-92382669D01*
X137392396Y-92203499D01*
X137391995Y-92202749D01*
X137304137Y-92038376D01*
X137304135Y-92038373D01*
X137185357Y-91893642D01*
X137040626Y-91774864D01*
X137040623Y-91774862D01*
X136875502Y-91686604D01*
X136696333Y-91632253D01*
X136696331Y-91632252D01*
X136510000Y-91613901D01*
X136323668Y-91632252D01*
X136323666Y-91632253D01*
X136144497Y-91686604D01*
X135979376Y-91774862D01*
X135979373Y-91774864D01*
X135834642Y-91893642D01*
X135715864Y-92038373D01*
X135715862Y-92038376D01*
X135627604Y-92203497D01*
X135573253Y-92382666D01*
X135573252Y-92382668D01*
X135554901Y-92568999D01*
X135573252Y-92755331D01*
X135573253Y-92755333D01*
X135627604Y-92934502D01*
X135715862Y-93099623D01*
X135715864Y-93099626D01*
X135834642Y-93244357D01*
X135903232Y-93300647D01*
X135942566Y-93358392D01*
X135944437Y-93428237D01*
X135908250Y-93488005D01*
X135845494Y-93518721D01*
X135824567Y-93520500D01*
X95384500Y-93520500D01*
X95317461Y-93500815D01*
X95271706Y-93448011D01*
X95260500Y-93396500D01*
X95260500Y-88138000D01*
X132377793Y-88138000D01*
X132396569Y-88316640D01*
X132407499Y-88350281D01*
X132452075Y-88487471D01*
X132541887Y-88643029D01*
X132662078Y-88776515D01*
X132807396Y-88882095D01*
X132971490Y-88955154D01*
X133147188Y-88992500D01*
X133326812Y-88992500D01*
X133502510Y-88955154D01*
X133666604Y-88882095D01*
X133811922Y-88776515D01*
X133932113Y-88643029D01*
X134021925Y-88487471D01*
X134077431Y-88316639D01*
X134096207Y-88138000D01*
X134096207Y-88137999D01*
X134917793Y-88137999D01*
X134936569Y-88316640D01*
X134947499Y-88350281D01*
X134992075Y-88487471D01*
X135081887Y-88643029D01*
X135202078Y-88776515D01*
X135347396Y-88882095D01*
X135511490Y-88955154D01*
X135687188Y-88992500D01*
X135866812Y-88992500D01*
X136042510Y-88955154D01*
X136206604Y-88882095D01*
X136351922Y-88776515D01*
X136472113Y-88643029D01*
X136561925Y-88487471D01*
X136617431Y-88316639D01*
X136636207Y-88138000D01*
X137457793Y-88138000D01*
X137476569Y-88316640D01*
X137487499Y-88350281D01*
X137532075Y-88487471D01*
X137621887Y-88643029D01*
X137742078Y-88776515D01*
X137887396Y-88882095D01*
X138051490Y-88955154D01*
X138227188Y-88992500D01*
X138406812Y-88992500D01*
X138582510Y-88955154D01*
X138746604Y-88882095D01*
X138891922Y-88776515D01*
X139012113Y-88643029D01*
X139101925Y-88487471D01*
X139157431Y-88316639D01*
X139176207Y-88138000D01*
X139997793Y-88138000D01*
X140016569Y-88316640D01*
X140027499Y-88350281D01*
X140072075Y-88487471D01*
X140161887Y-88643029D01*
X140282078Y-88776515D01*
X140427396Y-88882095D01*
X140591490Y-88955154D01*
X140767188Y-88992500D01*
X140946812Y-88992500D01*
X141122510Y-88955154D01*
X141286604Y-88882095D01*
X141431922Y-88776515D01*
X141552113Y-88643029D01*
X141641925Y-88487471D01*
X141697431Y-88316639D01*
X141716207Y-88138000D01*
X141716207Y-88137999D01*
X142537793Y-88137999D01*
X142556569Y-88316640D01*
X142567499Y-88350281D01*
X142612075Y-88487471D01*
X142701887Y-88643029D01*
X142822078Y-88776515D01*
X142967396Y-88882095D01*
X143131490Y-88955154D01*
X143307188Y-88992500D01*
X143486812Y-88992500D01*
X143662510Y-88955154D01*
X143826604Y-88882095D01*
X143971922Y-88776515D01*
X144092113Y-88643029D01*
X144181925Y-88487471D01*
X144237431Y-88316639D01*
X144256207Y-88138000D01*
X144256207Y-88137999D01*
X145077793Y-88137999D01*
X145096569Y-88316640D01*
X145107499Y-88350281D01*
X145152075Y-88487471D01*
X145241887Y-88643029D01*
X145362078Y-88776515D01*
X145507396Y-88882095D01*
X145671490Y-88955154D01*
X145847188Y-88992500D01*
X146026812Y-88992500D01*
X146202510Y-88955154D01*
X146366604Y-88882095D01*
X146511922Y-88776515D01*
X146632113Y-88643029D01*
X146721925Y-88487471D01*
X146777431Y-88316639D01*
X146796207Y-88138000D01*
X146796207Y-88137999D01*
X147617793Y-88137999D01*
X147636569Y-88316640D01*
X147647499Y-88350281D01*
X147692075Y-88487471D01*
X147781887Y-88643029D01*
X147902078Y-88776515D01*
X148047396Y-88882095D01*
X148211490Y-88955154D01*
X148387188Y-88992500D01*
X148566812Y-88992500D01*
X148742510Y-88955154D01*
X148906604Y-88882095D01*
X149051922Y-88776515D01*
X149172113Y-88643029D01*
X149261925Y-88487471D01*
X149317431Y-88316639D01*
X149336207Y-88138000D01*
X150157793Y-88138000D01*
X150176569Y-88316640D01*
X150187499Y-88350281D01*
X150232075Y-88487471D01*
X150321887Y-88643029D01*
X150442078Y-88776515D01*
X150587396Y-88882095D01*
X150751490Y-88955154D01*
X150927188Y-88992500D01*
X151106812Y-88992500D01*
X151282510Y-88955154D01*
X151446604Y-88882095D01*
X151591922Y-88776515D01*
X151712113Y-88643029D01*
X151801925Y-88487471D01*
X151857431Y-88316639D01*
X151876207Y-88138000D01*
X152697793Y-88138000D01*
X152716569Y-88316640D01*
X152727499Y-88350281D01*
X152772075Y-88487471D01*
X152861887Y-88643029D01*
X152982078Y-88776515D01*
X153127396Y-88882095D01*
X153291490Y-88955154D01*
X153467188Y-88992500D01*
X153646812Y-88992500D01*
X153822510Y-88955154D01*
X153986604Y-88882095D01*
X154131922Y-88776515D01*
X154252113Y-88643029D01*
X154341925Y-88487471D01*
X154397431Y-88316639D01*
X154416207Y-88138000D01*
X154416207Y-88137999D01*
X155237793Y-88137999D01*
X155256569Y-88316640D01*
X155267499Y-88350281D01*
X155312075Y-88487471D01*
X155401887Y-88643029D01*
X155522078Y-88776515D01*
X155667396Y-88882095D01*
X155831490Y-88955154D01*
X156007188Y-88992500D01*
X156186812Y-88992500D01*
X156362510Y-88955154D01*
X156526604Y-88882095D01*
X156671922Y-88776515D01*
X156792113Y-88643029D01*
X156881925Y-88487471D01*
X156937431Y-88316639D01*
X156956207Y-88138000D01*
X156956207Y-88137999D01*
X157777793Y-88137999D01*
X157796569Y-88316640D01*
X157807499Y-88350281D01*
X157852075Y-88487471D01*
X157941887Y-88643029D01*
X158062078Y-88776515D01*
X158207396Y-88882095D01*
X158371490Y-88955154D01*
X158547188Y-88992500D01*
X158726812Y-88992500D01*
X158902510Y-88955154D01*
X159066604Y-88882095D01*
X159211922Y-88776515D01*
X159332113Y-88643029D01*
X159421925Y-88487471D01*
X159477431Y-88316639D01*
X159496207Y-88138000D01*
X159496207Y-88137999D01*
X160317793Y-88137999D01*
X160336569Y-88316640D01*
X160347499Y-88350281D01*
X160392075Y-88487471D01*
X160481887Y-88643029D01*
X160602078Y-88776515D01*
X160747396Y-88882095D01*
X160911490Y-88955154D01*
X161087188Y-88992500D01*
X161266812Y-88992500D01*
X161442510Y-88955154D01*
X161606604Y-88882095D01*
X161751922Y-88776515D01*
X161872113Y-88643029D01*
X161961925Y-88487471D01*
X162017431Y-88316639D01*
X162036207Y-88138000D01*
X162857793Y-88138000D01*
X162876569Y-88316640D01*
X162887499Y-88350281D01*
X162932075Y-88487471D01*
X163021887Y-88643029D01*
X163142078Y-88776515D01*
X163287396Y-88882095D01*
X163451490Y-88955154D01*
X163627188Y-88992500D01*
X163806812Y-88992500D01*
X163982510Y-88955154D01*
X164146604Y-88882095D01*
X164291922Y-88776515D01*
X164412113Y-88643029D01*
X164501925Y-88487471D01*
X164557431Y-88316639D01*
X164576207Y-88138000D01*
X164576207Y-88137999D01*
X165397793Y-88137999D01*
X165416569Y-88316640D01*
X165427499Y-88350281D01*
X165472075Y-88487471D01*
X165561887Y-88643029D01*
X165682078Y-88776515D01*
X165827396Y-88882095D01*
X165991490Y-88955154D01*
X166167188Y-88992500D01*
X166346812Y-88992500D01*
X166522510Y-88955154D01*
X166686604Y-88882095D01*
X166831922Y-88776515D01*
X166952113Y-88643029D01*
X167041925Y-88487471D01*
X167097431Y-88316639D01*
X167116207Y-88138000D01*
X167116207Y-88137999D01*
X167937793Y-88137999D01*
X167956569Y-88316640D01*
X167967499Y-88350281D01*
X168012075Y-88487471D01*
X168101887Y-88643029D01*
X168222078Y-88776515D01*
X168367396Y-88882095D01*
X168531490Y-88955154D01*
X168707188Y-88992500D01*
X168886812Y-88992500D01*
X169062510Y-88955154D01*
X169226604Y-88882095D01*
X169371922Y-88776515D01*
X169492113Y-88643029D01*
X169581925Y-88487471D01*
X169637431Y-88316639D01*
X169656207Y-88138000D01*
X169656207Y-88137999D01*
X170477793Y-88137999D01*
X170496569Y-88316640D01*
X170507499Y-88350281D01*
X170552075Y-88487471D01*
X170641887Y-88643029D01*
X170762078Y-88776515D01*
X170907396Y-88882095D01*
X171071490Y-88955154D01*
X171247188Y-88992500D01*
X171426812Y-88992500D01*
X171602510Y-88955154D01*
X171766604Y-88882095D01*
X171911922Y-88776515D01*
X172032113Y-88643029D01*
X172121925Y-88487471D01*
X172177431Y-88316639D01*
X172196207Y-88138000D01*
X173017793Y-88138000D01*
X173036569Y-88316640D01*
X173047499Y-88350281D01*
X173092075Y-88487471D01*
X173181887Y-88643029D01*
X173302078Y-88776515D01*
X173447396Y-88882095D01*
X173611490Y-88955154D01*
X173787188Y-88992500D01*
X173966812Y-88992500D01*
X174142510Y-88955154D01*
X174306604Y-88882095D01*
X174451922Y-88776515D01*
X174572113Y-88643029D01*
X174661925Y-88487471D01*
X174717431Y-88316639D01*
X174736207Y-88138000D01*
X175557793Y-88138000D01*
X175576569Y-88316640D01*
X175587499Y-88350281D01*
X175632075Y-88487471D01*
X175721887Y-88643029D01*
X175842078Y-88776515D01*
X175987396Y-88882095D01*
X176151490Y-88955154D01*
X176327188Y-88992500D01*
X176506812Y-88992500D01*
X176682510Y-88955154D01*
X176846604Y-88882095D01*
X176991922Y-88776515D01*
X177112113Y-88643029D01*
X177201925Y-88487471D01*
X177257431Y-88316639D01*
X177276207Y-88138000D01*
X177276207Y-88137999D01*
X178097793Y-88137999D01*
X178116569Y-88316640D01*
X178127499Y-88350281D01*
X178172075Y-88487471D01*
X178261887Y-88643029D01*
X178382078Y-88776515D01*
X178527396Y-88882095D01*
X178691490Y-88955154D01*
X178867188Y-88992500D01*
X179046812Y-88992500D01*
X179222510Y-88955154D01*
X179386604Y-88882095D01*
X179531922Y-88776515D01*
X179652113Y-88643029D01*
X179741925Y-88487471D01*
X179797431Y-88316639D01*
X179816207Y-88138000D01*
X179797431Y-87959361D01*
X179741925Y-87788529D01*
X179652113Y-87632971D01*
X179531922Y-87499485D01*
X179386604Y-87393905D01*
X179222510Y-87320846D01*
X179222508Y-87320845D01*
X179046812Y-87283500D01*
X178867188Y-87283500D01*
X178691490Y-87320845D01*
X178691485Y-87320847D01*
X178527397Y-87393905D01*
X178527392Y-87393907D01*
X178382079Y-87499483D01*
X178382072Y-87499489D01*
X178261886Y-87632972D01*
X178172074Y-87788530D01*
X178116569Y-87959359D01*
X178097793Y-88137999D01*
X177276207Y-88137999D01*
X177257431Y-87959361D01*
X177201925Y-87788529D01*
X177112113Y-87632971D01*
X176991922Y-87499485D01*
X176846604Y-87393905D01*
X176682510Y-87320846D01*
X176682508Y-87320845D01*
X176506812Y-87283500D01*
X176327188Y-87283500D01*
X176151490Y-87320845D01*
X176151485Y-87320847D01*
X175987397Y-87393905D01*
X175987392Y-87393907D01*
X175842079Y-87499483D01*
X175842072Y-87499489D01*
X175721886Y-87632972D01*
X175632074Y-87788530D01*
X175576569Y-87959359D01*
X175557793Y-88138000D01*
X174736207Y-88138000D01*
X174717431Y-87959361D01*
X174661925Y-87788529D01*
X174572113Y-87632971D01*
X174451922Y-87499485D01*
X174306604Y-87393905D01*
X174142510Y-87320846D01*
X174142508Y-87320845D01*
X173966812Y-87283500D01*
X173787188Y-87283500D01*
X173611490Y-87320845D01*
X173611485Y-87320847D01*
X173447397Y-87393905D01*
X173447392Y-87393907D01*
X173302079Y-87499483D01*
X173302072Y-87499489D01*
X173181886Y-87632972D01*
X173092074Y-87788530D01*
X173036569Y-87959359D01*
X173017793Y-88138000D01*
X172196207Y-88138000D01*
X172177431Y-87959361D01*
X172121925Y-87788529D01*
X172032113Y-87632971D01*
X171911922Y-87499485D01*
X171766604Y-87393905D01*
X171602510Y-87320846D01*
X171602508Y-87320845D01*
X171426812Y-87283500D01*
X171247188Y-87283500D01*
X171071490Y-87320845D01*
X171071485Y-87320847D01*
X170907397Y-87393905D01*
X170907392Y-87393907D01*
X170762079Y-87499483D01*
X170762072Y-87499489D01*
X170641886Y-87632972D01*
X170552074Y-87788530D01*
X170496569Y-87959359D01*
X170477793Y-88137999D01*
X169656207Y-88137999D01*
X169637431Y-87959361D01*
X169581925Y-87788529D01*
X169492113Y-87632971D01*
X169371922Y-87499485D01*
X169226604Y-87393905D01*
X169062510Y-87320846D01*
X169062508Y-87320845D01*
X168886812Y-87283500D01*
X168707188Y-87283500D01*
X168531490Y-87320845D01*
X168531485Y-87320847D01*
X168367397Y-87393905D01*
X168367392Y-87393907D01*
X168222079Y-87499483D01*
X168222072Y-87499489D01*
X168101886Y-87632972D01*
X168012074Y-87788530D01*
X167956569Y-87959359D01*
X167937793Y-88137999D01*
X167116207Y-88137999D01*
X167097431Y-87959361D01*
X167041925Y-87788529D01*
X166952113Y-87632971D01*
X166831922Y-87499485D01*
X166686604Y-87393905D01*
X166522510Y-87320846D01*
X166522508Y-87320845D01*
X166346812Y-87283500D01*
X166167188Y-87283500D01*
X165991490Y-87320845D01*
X165991485Y-87320847D01*
X165827397Y-87393905D01*
X165827392Y-87393907D01*
X165682079Y-87499483D01*
X165682072Y-87499489D01*
X165561886Y-87632972D01*
X165472074Y-87788530D01*
X165416569Y-87959359D01*
X165397793Y-88137999D01*
X164576207Y-88137999D01*
X164557431Y-87959361D01*
X164501925Y-87788529D01*
X164412113Y-87632971D01*
X164291922Y-87499485D01*
X164146604Y-87393905D01*
X163982510Y-87320846D01*
X163982508Y-87320845D01*
X163806812Y-87283500D01*
X163627188Y-87283500D01*
X163451490Y-87320845D01*
X163451485Y-87320847D01*
X163287397Y-87393905D01*
X163287392Y-87393907D01*
X163142079Y-87499483D01*
X163142072Y-87499489D01*
X163021886Y-87632972D01*
X162932074Y-87788530D01*
X162876569Y-87959359D01*
X162857793Y-88138000D01*
X162036207Y-88138000D01*
X162017431Y-87959361D01*
X161961925Y-87788529D01*
X161872113Y-87632971D01*
X161751922Y-87499485D01*
X161606604Y-87393905D01*
X161442510Y-87320846D01*
X161442508Y-87320845D01*
X161266812Y-87283500D01*
X161087188Y-87283500D01*
X160911490Y-87320845D01*
X160911485Y-87320847D01*
X160747397Y-87393905D01*
X160747392Y-87393907D01*
X160602079Y-87499483D01*
X160602072Y-87499489D01*
X160481886Y-87632972D01*
X160392074Y-87788530D01*
X160336569Y-87959359D01*
X160317793Y-88137999D01*
X159496207Y-88137999D01*
X159477431Y-87959361D01*
X159421925Y-87788529D01*
X159332113Y-87632971D01*
X159211922Y-87499485D01*
X159066604Y-87393905D01*
X158902510Y-87320846D01*
X158902508Y-87320845D01*
X158726812Y-87283500D01*
X158547188Y-87283500D01*
X158371490Y-87320845D01*
X158371485Y-87320847D01*
X158207397Y-87393905D01*
X158207392Y-87393907D01*
X158062079Y-87499483D01*
X158062072Y-87499489D01*
X157941886Y-87632972D01*
X157852074Y-87788530D01*
X157796569Y-87959359D01*
X157777793Y-88137999D01*
X156956207Y-88137999D01*
X156937431Y-87959361D01*
X156881925Y-87788529D01*
X156792113Y-87632971D01*
X156671922Y-87499485D01*
X156526604Y-87393905D01*
X156362510Y-87320846D01*
X156362508Y-87320845D01*
X156186812Y-87283500D01*
X156007188Y-87283500D01*
X155831490Y-87320845D01*
X155831485Y-87320847D01*
X155667397Y-87393905D01*
X155667392Y-87393907D01*
X155522079Y-87499483D01*
X155522072Y-87499489D01*
X155401886Y-87632972D01*
X155312074Y-87788530D01*
X155256569Y-87959359D01*
X155237793Y-88137999D01*
X154416207Y-88137999D01*
X154397431Y-87959361D01*
X154341925Y-87788529D01*
X154252113Y-87632971D01*
X154131922Y-87499485D01*
X153986604Y-87393905D01*
X153822510Y-87320846D01*
X153822508Y-87320845D01*
X153646812Y-87283500D01*
X153467188Y-87283500D01*
X153291490Y-87320845D01*
X153291485Y-87320847D01*
X153127397Y-87393905D01*
X153127392Y-87393907D01*
X152982079Y-87499483D01*
X152982072Y-87499489D01*
X152861886Y-87632972D01*
X152772074Y-87788530D01*
X152716569Y-87959359D01*
X152697793Y-88138000D01*
X151876207Y-88138000D01*
X151857431Y-87959361D01*
X151801925Y-87788529D01*
X151712113Y-87632971D01*
X151591922Y-87499485D01*
X151446604Y-87393905D01*
X151282510Y-87320846D01*
X151282508Y-87320845D01*
X151106812Y-87283500D01*
X150927188Y-87283500D01*
X150751490Y-87320845D01*
X150751485Y-87320847D01*
X150587397Y-87393905D01*
X150587392Y-87393907D01*
X150442079Y-87499483D01*
X150442072Y-87499489D01*
X150321886Y-87632972D01*
X150232074Y-87788530D01*
X150176569Y-87959359D01*
X150157793Y-88138000D01*
X149336207Y-88138000D01*
X149317431Y-87959361D01*
X149261925Y-87788529D01*
X149172113Y-87632971D01*
X149051922Y-87499485D01*
X148906604Y-87393905D01*
X148742510Y-87320846D01*
X148742508Y-87320845D01*
X148566812Y-87283500D01*
X148387188Y-87283500D01*
X148211490Y-87320845D01*
X148211485Y-87320847D01*
X148047397Y-87393905D01*
X148047392Y-87393907D01*
X147902079Y-87499483D01*
X147902072Y-87499489D01*
X147781886Y-87632972D01*
X147692074Y-87788530D01*
X147636569Y-87959359D01*
X147617793Y-88137999D01*
X146796207Y-88137999D01*
X146777431Y-87959361D01*
X146721925Y-87788529D01*
X146632113Y-87632971D01*
X146511922Y-87499485D01*
X146366604Y-87393905D01*
X146202510Y-87320846D01*
X146202508Y-87320845D01*
X146026812Y-87283500D01*
X145847188Y-87283500D01*
X145671490Y-87320845D01*
X145671485Y-87320847D01*
X145507397Y-87393905D01*
X145507392Y-87393907D01*
X145362079Y-87499483D01*
X145362072Y-87499489D01*
X145241886Y-87632972D01*
X145152074Y-87788530D01*
X145096569Y-87959359D01*
X145077793Y-88137999D01*
X144256207Y-88137999D01*
X144237431Y-87959361D01*
X144181925Y-87788529D01*
X144092113Y-87632971D01*
X143971922Y-87499485D01*
X143826604Y-87393905D01*
X143662510Y-87320846D01*
X143662508Y-87320845D01*
X143486812Y-87283500D01*
X143307188Y-87283500D01*
X143131490Y-87320845D01*
X143131485Y-87320847D01*
X142967397Y-87393905D01*
X142967392Y-87393907D01*
X142822079Y-87499483D01*
X142822072Y-87499489D01*
X142701886Y-87632972D01*
X142612074Y-87788530D01*
X142556569Y-87959359D01*
X142537793Y-88137999D01*
X141716207Y-88137999D01*
X141697431Y-87959361D01*
X141641925Y-87788529D01*
X141552113Y-87632971D01*
X141431922Y-87499485D01*
X141286604Y-87393905D01*
X141122510Y-87320846D01*
X141122508Y-87320845D01*
X140946812Y-87283500D01*
X140767188Y-87283500D01*
X140591490Y-87320845D01*
X140591485Y-87320847D01*
X140427397Y-87393905D01*
X140427392Y-87393907D01*
X140282079Y-87499483D01*
X140282072Y-87499489D01*
X140161886Y-87632972D01*
X140072074Y-87788530D01*
X140016569Y-87959359D01*
X139997793Y-88138000D01*
X139176207Y-88138000D01*
X139157431Y-87959361D01*
X139101925Y-87788529D01*
X139012113Y-87632971D01*
X138891922Y-87499485D01*
X138746604Y-87393905D01*
X138582510Y-87320846D01*
X138582508Y-87320845D01*
X138406812Y-87283500D01*
X138227188Y-87283500D01*
X138051490Y-87320845D01*
X138051485Y-87320847D01*
X137887397Y-87393905D01*
X137887392Y-87393907D01*
X137742079Y-87499483D01*
X137742072Y-87499489D01*
X137621886Y-87632972D01*
X137532074Y-87788530D01*
X137476569Y-87959359D01*
X137457793Y-88138000D01*
X136636207Y-88138000D01*
X136617431Y-87959361D01*
X136561925Y-87788529D01*
X136472113Y-87632971D01*
X136351922Y-87499485D01*
X136206604Y-87393905D01*
X136042510Y-87320846D01*
X136042508Y-87320845D01*
X135866812Y-87283500D01*
X135687188Y-87283500D01*
X135511490Y-87320845D01*
X135511485Y-87320847D01*
X135347397Y-87393905D01*
X135347392Y-87393907D01*
X135202079Y-87499483D01*
X135202072Y-87499489D01*
X135081886Y-87632972D01*
X134992074Y-87788530D01*
X134936569Y-87959359D01*
X134917793Y-88137999D01*
X134096207Y-88137999D01*
X134077431Y-87959361D01*
X134021925Y-87788529D01*
X133932113Y-87632971D01*
X133811922Y-87499485D01*
X133666604Y-87393905D01*
X133502510Y-87320846D01*
X133502508Y-87320845D01*
X133326812Y-87283500D01*
X133147188Y-87283500D01*
X132971490Y-87320845D01*
X132971485Y-87320847D01*
X132807397Y-87393905D01*
X132807392Y-87393907D01*
X132662079Y-87499483D01*
X132662072Y-87499489D01*
X132541886Y-87632972D01*
X132452074Y-87788530D01*
X132396569Y-87959359D01*
X132377793Y-88138000D01*
X95260500Y-88138000D01*
X95260500Y-79348003D01*
X142857409Y-79348003D01*
X142877705Y-79528145D01*
X142937582Y-79699264D01*
X142937583Y-79699267D01*
X142937584Y-79699268D01*
X143034036Y-79852772D01*
X143162228Y-79980964D01*
X143315732Y-80077416D01*
X143486849Y-80137293D01*
X143486852Y-80137293D01*
X143486854Y-80137294D01*
X143666996Y-80157591D01*
X143667000Y-80157591D01*
X143667004Y-80157591D01*
X143847145Y-80137294D01*
X143847146Y-80137293D01*
X143847151Y-80137293D01*
X144018268Y-80077416D01*
X144171772Y-79980964D01*
X144299964Y-79852772D01*
X144396416Y-79699268D01*
X144456293Y-79528151D01*
X144476591Y-79348003D01*
X144857409Y-79348003D01*
X144877705Y-79528145D01*
X144937582Y-79699264D01*
X144937583Y-79699267D01*
X144937584Y-79699268D01*
X145034036Y-79852772D01*
X145162228Y-79980964D01*
X145315732Y-80077416D01*
X145486849Y-80137293D01*
X145486852Y-80137293D01*
X145486854Y-80137294D01*
X145666996Y-80157591D01*
X145667000Y-80157591D01*
X145667004Y-80157591D01*
X145847145Y-80137294D01*
X145847146Y-80137293D01*
X145847151Y-80137293D01*
X146018268Y-80077416D01*
X146171772Y-79980964D01*
X146299964Y-79852772D01*
X146396416Y-79699268D01*
X146456293Y-79528151D01*
X146476591Y-79348000D01*
X146456293Y-79167849D01*
X146396416Y-78996732D01*
X146299964Y-78843228D01*
X146171772Y-78715036D01*
X146171771Y-78715035D01*
X146018267Y-78618583D01*
X146018264Y-78618582D01*
X145847145Y-78558705D01*
X145667004Y-78538409D01*
X145666996Y-78538409D01*
X145486854Y-78558705D01*
X145315735Y-78618582D01*
X145315732Y-78618583D01*
X145162227Y-78715036D01*
X145034036Y-78843227D01*
X144937583Y-78996732D01*
X144937582Y-78996735D01*
X144877705Y-79167854D01*
X144857409Y-79347996D01*
X144857409Y-79348003D01*
X144476591Y-79348003D01*
X144476591Y-79348000D01*
X144456293Y-79167849D01*
X144396416Y-78996732D01*
X144299964Y-78843228D01*
X144171772Y-78715036D01*
X144171771Y-78715035D01*
X144018267Y-78618583D01*
X144018264Y-78618582D01*
X143847145Y-78558705D01*
X143667004Y-78538409D01*
X143666996Y-78538409D01*
X143486854Y-78558705D01*
X143315735Y-78618582D01*
X143315732Y-78618583D01*
X143162227Y-78715036D01*
X143034036Y-78843227D01*
X142937583Y-78996732D01*
X142937582Y-78996735D01*
X142877705Y-79167854D01*
X142857409Y-79347996D01*
X142857409Y-79348003D01*
X95260500Y-79348003D01*
X95260500Y-56844502D01*
X113925751Y-56844502D01*
X113944685Y-57012556D01*
X114000545Y-57172194D01*
X114000547Y-57172197D01*
X114090518Y-57315384D01*
X114090523Y-57315390D01*
X114210109Y-57434976D01*
X114210115Y-57434981D01*
X114353302Y-57524952D01*
X114353305Y-57524954D01*
X114353309Y-57524955D01*
X114353310Y-57524956D01*
X114418423Y-57547740D01*
X114512943Y-57580814D01*
X114680997Y-57599749D01*
X114681000Y-57599749D01*
X114681003Y-57599749D01*
X114849056Y-57580814D01*
X114849059Y-57580813D01*
X115008690Y-57524956D01*
X115008692Y-57524954D01*
X115008694Y-57524954D01*
X115008697Y-57524952D01*
X115151884Y-57434981D01*
X115151885Y-57434980D01*
X115151890Y-57434977D01*
X115271477Y-57315390D01*
X115358602Y-57176732D01*
X115361452Y-57172197D01*
X115361454Y-57172194D01*
X115361454Y-57172192D01*
X115361456Y-57172190D01*
X115417313Y-57012559D01*
X115417313Y-57012558D01*
X115417314Y-57012556D01*
X115436249Y-56844502D01*
X115436249Y-56844497D01*
X115417314Y-56676443D01*
X115361454Y-56516805D01*
X115361452Y-56516802D01*
X115271481Y-56373615D01*
X115271476Y-56373609D01*
X115151890Y-56254023D01*
X115151884Y-56254018D01*
X115008697Y-56164047D01*
X115008694Y-56164045D01*
X114849056Y-56108185D01*
X114681003Y-56089251D01*
X114680997Y-56089251D01*
X114512943Y-56108185D01*
X114353305Y-56164045D01*
X114353302Y-56164047D01*
X114210115Y-56254018D01*
X114210109Y-56254023D01*
X114090523Y-56373609D01*
X114090518Y-56373615D01*
X114000547Y-56516802D01*
X114000545Y-56516805D01*
X113944685Y-56676443D01*
X113925751Y-56844497D01*
X113925751Y-56844502D01*
X95260500Y-56844502D01*
X95260500Y-54304502D01*
X112655751Y-54304502D01*
X112674685Y-54472556D01*
X112730545Y-54632194D01*
X112730547Y-54632197D01*
X112820518Y-54775384D01*
X112820523Y-54775390D01*
X112940109Y-54894976D01*
X112940115Y-54894981D01*
X113083302Y-54984952D01*
X113083305Y-54984954D01*
X113083309Y-54984955D01*
X113083310Y-54984956D01*
X113149684Y-55008181D01*
X113242943Y-55040814D01*
X113410997Y-55059749D01*
X113411000Y-55059749D01*
X113411003Y-55059749D01*
X113579056Y-55040814D01*
X113579345Y-55040713D01*
X113738690Y-54984956D01*
X113738692Y-54984954D01*
X113738694Y-54984954D01*
X113738697Y-54984952D01*
X113881884Y-54894981D01*
X113881885Y-54894980D01*
X113881890Y-54894977D01*
X114001477Y-54775390D01*
X114091452Y-54632197D01*
X114091454Y-54632194D01*
X114091454Y-54632192D01*
X114091456Y-54632190D01*
X114147313Y-54472559D01*
X114147313Y-54472558D01*
X114147314Y-54472556D01*
X114166249Y-54304502D01*
X115195751Y-54304502D01*
X115214685Y-54472556D01*
X115270545Y-54632194D01*
X115270547Y-54632197D01*
X115360518Y-54775384D01*
X115360523Y-54775390D01*
X115480109Y-54894976D01*
X115480115Y-54894981D01*
X115623302Y-54984952D01*
X115623305Y-54984954D01*
X115623309Y-54984955D01*
X115623310Y-54984956D01*
X115689684Y-55008181D01*
X115782943Y-55040814D01*
X115950997Y-55059749D01*
X115951000Y-55059749D01*
X115951003Y-55059749D01*
X116119056Y-55040814D01*
X116119345Y-55040713D01*
X116278690Y-54984956D01*
X116421890Y-54894977D01*
X116435296Y-54881569D01*
X116496616Y-54848082D01*
X116566308Y-54853063D01*
X116610662Y-54881566D01*
X117697287Y-55968192D01*
X117730772Y-56029515D01*
X117725788Y-56099207D01*
X117683916Y-56155140D01*
X117618452Y-56179557D01*
X117555541Y-56165871D01*
X117554966Y-56167066D01*
X117548694Y-56164045D01*
X117389056Y-56108185D01*
X117221003Y-56089251D01*
X117220997Y-56089251D01*
X117052943Y-56108185D01*
X116893305Y-56164045D01*
X116893302Y-56164047D01*
X116750115Y-56254018D01*
X116750109Y-56254023D01*
X116630523Y-56373609D01*
X116630518Y-56373615D01*
X116540547Y-56516802D01*
X116540545Y-56516805D01*
X116484685Y-56676443D01*
X116465751Y-56844497D01*
X116465751Y-56844502D01*
X116484685Y-57012556D01*
X116540545Y-57172194D01*
X116540547Y-57172197D01*
X116630518Y-57315384D01*
X116630523Y-57315390D01*
X116750109Y-57434976D01*
X116750115Y-57434981D01*
X116893302Y-57524952D01*
X116893305Y-57524954D01*
X116893309Y-57524955D01*
X116893310Y-57524956D01*
X116958423Y-57547740D01*
X117052943Y-57580814D01*
X117220997Y-57599749D01*
X117221000Y-57599749D01*
X117221003Y-57599749D01*
X117389056Y-57580814D01*
X117389059Y-57580813D01*
X117548690Y-57524956D01*
X117548692Y-57524954D01*
X117548694Y-57524954D01*
X117548697Y-57524952D01*
X117691884Y-57434981D01*
X117691885Y-57434980D01*
X117691890Y-57434977D01*
X117811477Y-57315390D01*
X117898602Y-57176732D01*
X117901452Y-57172197D01*
X117901454Y-57172194D01*
X117901454Y-57172192D01*
X117901456Y-57172190D01*
X117957313Y-57012559D01*
X117957313Y-57012558D01*
X117957314Y-57012556D01*
X117976249Y-56844502D01*
X117976249Y-56844497D01*
X117957314Y-56676443D01*
X117901454Y-56516805D01*
X117898434Y-56510534D01*
X117901081Y-56509259D01*
X117885632Y-56454688D01*
X117905967Y-56387843D01*
X117959213Y-56342603D01*
X118028465Y-56333332D01*
X118091736Y-56362974D01*
X118097307Y-56368212D01*
X118793141Y-57064046D01*
X118796796Y-57068035D01*
X118822986Y-57099246D01*
X118822990Y-57099250D01*
X118858278Y-57119623D01*
X118862843Y-57122532D01*
X118896205Y-57145893D01*
X118900822Y-57148046D01*
X118918230Y-57155256D01*
X118923007Y-57156995D01*
X118923011Y-57156997D01*
X118963152Y-57164074D01*
X118968412Y-57165241D01*
X119007764Y-57175786D01*
X119018572Y-57176732D01*
X119018358Y-57179174D01*
X119071893Y-57189927D01*
X119119208Y-57233723D01*
X119170523Y-57315390D01*
X119290109Y-57434976D01*
X119290115Y-57434981D01*
X119433302Y-57524952D01*
X119433305Y-57524954D01*
X119433309Y-57524955D01*
X119433310Y-57524956D01*
X119498423Y-57547740D01*
X119592943Y-57580814D01*
X119760997Y-57599749D01*
X119761000Y-57599749D01*
X119761003Y-57599749D01*
X119929056Y-57580814D01*
X119929059Y-57580813D01*
X120088690Y-57524956D01*
X120088692Y-57524954D01*
X120088694Y-57524954D01*
X120088697Y-57524952D01*
X120231884Y-57434981D01*
X120231885Y-57434980D01*
X120231890Y-57434977D01*
X120351477Y-57315390D01*
X120438602Y-57176732D01*
X120441452Y-57172197D01*
X120441454Y-57172194D01*
X120441454Y-57172192D01*
X120441456Y-57172190D01*
X120497313Y-57012559D01*
X120497313Y-57012558D01*
X120497314Y-57012556D01*
X120516249Y-56844502D01*
X120516249Y-56844497D01*
X120497314Y-56676443D01*
X120441454Y-56516805D01*
X120441452Y-56516802D01*
X120351481Y-56373615D01*
X120351476Y-56373609D01*
X120231890Y-56254023D01*
X120231884Y-56254018D01*
X120088697Y-56164047D01*
X120088694Y-56164045D01*
X119929056Y-56108185D01*
X119761003Y-56089251D01*
X119760997Y-56089251D01*
X119592943Y-56108185D01*
X119433305Y-56164045D01*
X119433302Y-56164047D01*
X119290115Y-56254018D01*
X119187449Y-56356684D01*
X119126126Y-56390168D01*
X119056434Y-56385184D01*
X119012087Y-56356683D01*
X118246948Y-55591544D01*
X116959906Y-54304502D01*
X117735751Y-54304502D01*
X117754685Y-54472556D01*
X117810545Y-54632194D01*
X117810547Y-54632197D01*
X117900518Y-54775384D01*
X117900523Y-54775390D01*
X118020109Y-54894976D01*
X118020115Y-54894981D01*
X118163302Y-54984952D01*
X118163305Y-54984954D01*
X118163309Y-54984955D01*
X118163310Y-54984956D01*
X118229684Y-55008181D01*
X118322943Y-55040814D01*
X118490997Y-55059749D01*
X118491000Y-55059749D01*
X118491003Y-55059749D01*
X118659056Y-55040814D01*
X118659345Y-55040713D01*
X118818690Y-54984956D01*
X118818692Y-54984954D01*
X118818694Y-54984954D01*
X118818697Y-54984952D01*
X118961884Y-54894981D01*
X118961885Y-54894980D01*
X118961890Y-54894977D01*
X119081477Y-54775390D01*
X119171452Y-54632197D01*
X119171454Y-54632194D01*
X119171454Y-54632192D01*
X119171456Y-54632190D01*
X119227313Y-54472559D01*
X119227313Y-54472558D01*
X119227314Y-54472556D01*
X119246249Y-54304502D01*
X120275751Y-54304502D01*
X120294685Y-54472556D01*
X120350545Y-54632194D01*
X120350547Y-54632197D01*
X120440518Y-54775384D01*
X120440523Y-54775390D01*
X120560109Y-54894976D01*
X120560115Y-54894981D01*
X120703302Y-54984952D01*
X120703305Y-54984954D01*
X120703309Y-54984955D01*
X120703310Y-54984956D01*
X120769684Y-55008181D01*
X120862943Y-55040814D01*
X121030997Y-55059749D01*
X121031000Y-55059749D01*
X121031003Y-55059749D01*
X121199056Y-55040814D01*
X121199345Y-55040713D01*
X121358690Y-54984956D01*
X121358692Y-54984954D01*
X121358694Y-54984954D01*
X121358697Y-54984952D01*
X121501884Y-54894981D01*
X121501885Y-54894980D01*
X121501890Y-54894977D01*
X121621477Y-54775390D01*
X121711452Y-54632197D01*
X121711454Y-54632194D01*
X121711454Y-54632192D01*
X121711456Y-54632190D01*
X121767313Y-54472559D01*
X121767313Y-54472558D01*
X121767314Y-54472556D01*
X121786249Y-54304502D01*
X121786249Y-54304497D01*
X121767314Y-54136443D01*
X121729376Y-54028023D01*
X121711456Y-53976810D01*
X121711455Y-53976809D01*
X121711454Y-53976805D01*
X121711452Y-53976802D01*
X121621481Y-53833615D01*
X121621476Y-53833609D01*
X121501890Y-53714023D01*
X121501884Y-53714018D01*
X121358697Y-53624047D01*
X121358694Y-53624045D01*
X121199056Y-53568185D01*
X121031003Y-53549251D01*
X121030997Y-53549251D01*
X120862943Y-53568185D01*
X120703305Y-53624045D01*
X120703302Y-53624047D01*
X120560115Y-53714018D01*
X120560109Y-53714023D01*
X120440523Y-53833609D01*
X120440518Y-53833615D01*
X120350547Y-53976802D01*
X120350545Y-53976805D01*
X120294685Y-54136443D01*
X120275751Y-54304497D01*
X120275751Y-54304502D01*
X119246249Y-54304502D01*
X119246249Y-54304497D01*
X119227314Y-54136443D01*
X119189376Y-54028023D01*
X119171456Y-53976810D01*
X119171455Y-53976809D01*
X119171454Y-53976805D01*
X119171452Y-53976802D01*
X119081481Y-53833615D01*
X119081476Y-53833609D01*
X118961890Y-53714023D01*
X118961884Y-53714018D01*
X118818697Y-53624047D01*
X118818694Y-53624045D01*
X118659056Y-53568185D01*
X118491003Y-53549251D01*
X118490997Y-53549251D01*
X118322943Y-53568185D01*
X118163305Y-53624045D01*
X118163302Y-53624047D01*
X118020115Y-53714018D01*
X118020109Y-53714023D01*
X117900523Y-53833609D01*
X117900518Y-53833615D01*
X117810547Y-53976802D01*
X117810545Y-53976805D01*
X117754685Y-54136443D01*
X117735751Y-54304497D01*
X117735751Y-54304502D01*
X116959906Y-54304502D01*
X116740346Y-54084942D01*
X116736701Y-54080963D01*
X116710511Y-54049751D01*
X116710509Y-54049749D01*
X116682790Y-54033746D01*
X116634574Y-53983179D01*
X116633066Y-53980153D01*
X116631453Y-53976803D01*
X116541481Y-53833615D01*
X116541476Y-53833609D01*
X116421890Y-53714023D01*
X116421884Y-53714018D01*
X116278697Y-53624047D01*
X116278694Y-53624045D01*
X116119056Y-53568185D01*
X115951003Y-53549251D01*
X115950997Y-53549251D01*
X115782943Y-53568185D01*
X115623305Y-53624045D01*
X115623302Y-53624047D01*
X115480115Y-53714018D01*
X115480109Y-53714023D01*
X115360523Y-53833609D01*
X115360518Y-53833615D01*
X115270547Y-53976802D01*
X115270545Y-53976805D01*
X115214685Y-54136443D01*
X115195751Y-54304497D01*
X115195751Y-54304502D01*
X114166249Y-54304502D01*
X114166249Y-54304497D01*
X114147314Y-54136443D01*
X114109376Y-54028023D01*
X114091456Y-53976810D01*
X114091455Y-53976809D01*
X114091454Y-53976805D01*
X114091452Y-53976802D01*
X114001481Y-53833615D01*
X114001476Y-53833609D01*
X113881890Y-53714023D01*
X113881884Y-53714018D01*
X113738697Y-53624047D01*
X113738694Y-53624045D01*
X113579056Y-53568185D01*
X113411003Y-53549251D01*
X113410997Y-53549251D01*
X113242943Y-53568185D01*
X113083305Y-53624045D01*
X113083302Y-53624047D01*
X112940115Y-53714018D01*
X112940109Y-53714023D01*
X112820523Y-53833609D01*
X112820518Y-53833615D01*
X112730547Y-53976802D01*
X112730545Y-53976805D01*
X112674685Y-54136443D01*
X112655751Y-54304497D01*
X112655751Y-54304502D01*
X95260500Y-54304502D01*
X95260500Y-47954500D01*
X108665778Y-47954500D01*
X108684644Y-48242337D01*
X108684646Y-48242349D01*
X108740917Y-48525245D01*
X108740921Y-48525260D01*
X108833642Y-48798405D01*
X108961219Y-49057106D01*
X108961223Y-49057113D01*
X109121478Y-49296952D01*
X109311672Y-49513827D01*
X109528547Y-49704021D01*
X109642011Y-49779835D01*
X109768389Y-49864278D01*
X110027098Y-49991859D01*
X110300247Y-50084581D01*
X110583161Y-50140856D01*
X110871000Y-50159722D01*
X111158839Y-50140856D01*
X111441753Y-50084581D01*
X111714902Y-49991859D01*
X111973611Y-49864278D01*
X112213454Y-49704020D01*
X112430327Y-49513827D01*
X112620520Y-49296954D01*
X112780778Y-49057111D01*
X112908359Y-48798402D01*
X113001081Y-48525253D01*
X113057356Y-48242339D01*
X113076222Y-47954500D01*
X120095778Y-47954500D01*
X120114644Y-48242337D01*
X120114646Y-48242349D01*
X120170917Y-48525245D01*
X120170921Y-48525260D01*
X120263642Y-48798405D01*
X120391219Y-49057106D01*
X120391223Y-49057113D01*
X120551478Y-49296952D01*
X120741672Y-49513827D01*
X120958547Y-49704021D01*
X121072011Y-49779835D01*
X121198389Y-49864278D01*
X121457098Y-49991859D01*
X121730247Y-50084581D01*
X122013161Y-50140856D01*
X122301000Y-50159722D01*
X122588839Y-50140856D01*
X122871753Y-50084581D01*
X123144902Y-49991859D01*
X123403611Y-49864278D01*
X123643454Y-49704020D01*
X123860327Y-49513827D01*
X124050520Y-49296954D01*
X124210778Y-49057111D01*
X124338359Y-48798402D01*
X124431081Y-48525253D01*
X124487356Y-48242339D01*
X124506222Y-47954500D01*
X124487356Y-47666661D01*
X124431081Y-47383747D01*
X124338359Y-47110598D01*
X124210778Y-46851889D01*
X124050520Y-46612046D01*
X123860327Y-46395172D01*
X123643452Y-46204978D01*
X123403613Y-46044723D01*
X123403606Y-46044719D01*
X123144905Y-45917142D01*
X122871760Y-45824421D01*
X122871754Y-45824419D01*
X122871753Y-45824419D01*
X122871751Y-45824418D01*
X122871745Y-45824417D01*
X122588849Y-45768146D01*
X122588839Y-45768144D01*
X122301000Y-45749278D01*
X122013161Y-45768144D01*
X122013155Y-45768145D01*
X122013150Y-45768146D01*
X121730254Y-45824417D01*
X121730239Y-45824421D01*
X121457094Y-45917142D01*
X121198393Y-46044719D01*
X121198386Y-46044723D01*
X120958547Y-46204978D01*
X120741672Y-46395172D01*
X120551478Y-46612047D01*
X120391223Y-46851886D01*
X120391219Y-46851893D01*
X120263642Y-47110594D01*
X120170921Y-47383739D01*
X120170917Y-47383754D01*
X120114646Y-47666650D01*
X120114644Y-47666662D01*
X120095778Y-47954500D01*
X113076222Y-47954500D01*
X113057356Y-47666661D01*
X113001081Y-47383747D01*
X112908359Y-47110598D01*
X112780778Y-46851889D01*
X112620520Y-46612046D01*
X112430327Y-46395172D01*
X112213452Y-46204978D01*
X111973613Y-46044723D01*
X111973606Y-46044719D01*
X111714905Y-45917142D01*
X111441760Y-45824421D01*
X111441754Y-45824419D01*
X111441753Y-45824419D01*
X111441751Y-45824418D01*
X111441745Y-45824417D01*
X111158849Y-45768146D01*
X111158839Y-45768144D01*
X110871000Y-45749278D01*
X110870999Y-45749278D01*
X110817907Y-45752757D01*
X110585041Y-45768020D01*
X110516859Y-45752763D01*
X110467748Y-45703064D01*
X110467490Y-45701846D01*
X110468181Y-45706647D01*
X110439156Y-45770203D01*
X110380378Y-45807977D01*
X110369634Y-45810617D01*
X110300254Y-45824417D01*
X110300239Y-45824421D01*
X110027094Y-45917142D01*
X109768393Y-46044719D01*
X109768386Y-46044723D01*
X109528547Y-46204978D01*
X109311672Y-46395172D01*
X109121478Y-46612047D01*
X108961223Y-46851886D01*
X108961219Y-46851893D01*
X108833642Y-47110594D01*
X108740921Y-47383739D01*
X108740917Y-47383754D01*
X108684646Y-47666650D01*
X108684644Y-47666662D01*
X108665778Y-47954500D01*
X95260500Y-47954500D01*
X95260500Y-42057298D01*
X95280185Y-41990259D01*
X95332989Y-41944504D01*
X95402147Y-41934560D01*
X95465703Y-41963585D01*
X95503477Y-42022363D01*
X95503865Y-42023714D01*
X95542530Y-42161137D01*
X95542534Y-42161151D01*
X95687435Y-42530353D01*
X95687440Y-42530365D01*
X95868386Y-42883314D01*
X95868391Y-42883323D01*
X96083586Y-43216509D01*
X96330886Y-43526614D01*
X96330895Y-43526625D01*
X96600811Y-43803355D01*
X96607833Y-43810554D01*
X96911676Y-44065508D01*
X97239394Y-44288942D01*
X97587730Y-44478636D01*
X97953223Y-44632704D01*
X97953232Y-44632706D01*
X97953238Y-44632709D01*
X98332235Y-44749614D01*
X98332248Y-44749617D01*
X98720999Y-44828205D01*
X98721014Y-44828208D01*
X99059299Y-44862058D01*
X99115680Y-44867700D01*
X99115681Y-44867700D01*
X99413103Y-44867700D01*
X99611130Y-44857816D01*
X99710145Y-44852875D01*
X100102353Y-44793759D01*
X100486726Y-44695886D01*
X100572959Y-44664500D01*
X109355540Y-44664500D01*
X109375326Y-44852756D01*
X109375327Y-44852759D01*
X109433818Y-45032777D01*
X109433821Y-45032784D01*
X109528467Y-45196716D01*
X109655128Y-45337387D01*
X109655129Y-45337388D01*
X109808265Y-45448648D01*
X109808270Y-45448651D01*
X109981192Y-45525642D01*
X109981197Y-45525644D01*
X110166354Y-45565000D01*
X110166355Y-45565000D01*
X110345443Y-45565000D01*
X110412482Y-45584685D01*
X110454071Y-45632681D01*
X110478109Y-45569386D01*
X110534291Y-45527848D01*
X110538621Y-45526353D01*
X110540793Y-45525645D01*
X110540803Y-45525644D01*
X110713730Y-45448651D01*
X110866871Y-45337388D01*
X110993533Y-45196716D01*
X111088179Y-45032784D01*
X111146674Y-44852756D01*
X111166460Y-44664500D01*
X119465540Y-44664500D01*
X119485326Y-44852756D01*
X119485327Y-44852759D01*
X119543818Y-45032777D01*
X119543821Y-45032784D01*
X119638467Y-45196716D01*
X119765129Y-45337387D01*
X119765129Y-45337388D01*
X119918265Y-45448648D01*
X119918270Y-45448651D01*
X120091192Y-45525642D01*
X120091197Y-45525644D01*
X120276354Y-45565000D01*
X120276355Y-45565000D01*
X120465644Y-45565000D01*
X120465646Y-45565000D01*
X120650803Y-45525644D01*
X120823730Y-45448651D01*
X120976871Y-45337388D01*
X121103533Y-45196716D01*
X121185929Y-45054000D01*
X121236497Y-45005785D01*
X121293317Y-44992000D01*
X123217484Y-44992000D01*
X123284523Y-45011685D01*
X123305165Y-45028319D01*
X126128181Y-47851335D01*
X126161666Y-47912658D01*
X126164500Y-47939016D01*
X126164500Y-72880994D01*
X126164264Y-72886401D01*
X126160712Y-72926983D01*
X126171257Y-72966335D01*
X126172428Y-72971618D01*
X126179503Y-73011740D01*
X126181232Y-73016491D01*
X126188468Y-73033959D01*
X126190606Y-73038544D01*
X126213972Y-73071914D01*
X126216879Y-73076478D01*
X126237247Y-73111757D01*
X126237251Y-73111761D01*
X126268463Y-73137951D01*
X126272442Y-73141596D01*
X129669254Y-76538409D01*
X130698391Y-77567546D01*
X130702046Y-77571535D01*
X130728236Y-77602746D01*
X130728240Y-77602750D01*
X130763528Y-77623123D01*
X130768093Y-77626032D01*
X130801455Y-77649393D01*
X130806072Y-77651546D01*
X130823480Y-77658756D01*
X130828257Y-77660495D01*
X130828261Y-77660497D01*
X130868402Y-77667574D01*
X130873659Y-77668740D01*
X130913015Y-77679286D01*
X130953594Y-77675735D01*
X130958996Y-77675500D01*
X142854117Y-77675500D01*
X142921156Y-77695185D01*
X142959110Y-77733527D01*
X143034036Y-77852772D01*
X143162228Y-77980964D01*
X143315732Y-78077416D01*
X143486849Y-78137293D01*
X143486852Y-78137293D01*
X143486854Y-78137294D01*
X143666996Y-78157591D01*
X143667000Y-78157591D01*
X143667004Y-78157591D01*
X143847145Y-78137294D01*
X143847146Y-78137293D01*
X143847151Y-78137293D01*
X144018268Y-78077416D01*
X144171772Y-77980964D01*
X144299964Y-77852772D01*
X144396416Y-77699268D01*
X144456293Y-77528151D01*
X144476591Y-77348000D01*
X144456293Y-77167849D01*
X144396416Y-76996732D01*
X144299964Y-76843228D01*
X144171772Y-76715036D01*
X144171771Y-76715035D01*
X144018267Y-76618583D01*
X144018264Y-76618582D01*
X143847145Y-76558705D01*
X143667004Y-76538409D01*
X143666996Y-76538409D01*
X143486854Y-76558705D01*
X143315735Y-76618582D01*
X143315732Y-76618583D01*
X143162227Y-76715036D01*
X143034036Y-76843227D01*
X142959111Y-76962472D01*
X142906777Y-77008763D01*
X142854117Y-77020500D01*
X131129017Y-77020500D01*
X131061978Y-77000815D01*
X131041336Y-76984181D01*
X129405158Y-75348003D01*
X142857409Y-75348003D01*
X142877705Y-75528145D01*
X142937582Y-75699264D01*
X142937583Y-75699267D01*
X142937584Y-75699268D01*
X143034036Y-75852772D01*
X143162228Y-75980964D01*
X143315732Y-76077416D01*
X143486849Y-76137293D01*
X143486852Y-76137293D01*
X143486854Y-76137294D01*
X143666996Y-76157591D01*
X143667000Y-76157591D01*
X143667004Y-76157591D01*
X143847145Y-76137294D01*
X143847146Y-76137293D01*
X143847151Y-76137293D01*
X144018268Y-76077416D01*
X144171772Y-75980964D01*
X144299964Y-75852772D01*
X144396416Y-75699268D01*
X144456293Y-75528151D01*
X144456759Y-75524016D01*
X144476591Y-75348003D01*
X144857409Y-75348003D01*
X144877705Y-75528145D01*
X144937582Y-75699264D01*
X144937583Y-75699267D01*
X144937584Y-75699268D01*
X145034036Y-75852772D01*
X145162228Y-75980964D01*
X145315732Y-76077416D01*
X145486849Y-76137293D01*
X145486852Y-76137293D01*
X145486854Y-76137294D01*
X145666996Y-76157591D01*
X145667000Y-76157591D01*
X145667004Y-76157591D01*
X145847145Y-76137294D01*
X145847146Y-76137293D01*
X145847151Y-76137293D01*
X146018268Y-76077416D01*
X146171772Y-75980964D01*
X146299964Y-75852772D01*
X146396416Y-75699268D01*
X146456293Y-75528151D01*
X146456759Y-75524016D01*
X146476591Y-75348003D01*
X146476591Y-75347996D01*
X146456294Y-75167854D01*
X146456293Y-75167852D01*
X146456293Y-75167849D01*
X146396416Y-74996732D01*
X146299964Y-74843228D01*
X146171772Y-74715036D01*
X146171771Y-74715035D01*
X146018267Y-74618583D01*
X146018264Y-74618582D01*
X145847145Y-74558705D01*
X145667004Y-74538409D01*
X145666996Y-74538409D01*
X145486854Y-74558705D01*
X145315735Y-74618582D01*
X145315732Y-74618583D01*
X145162227Y-74715036D01*
X145034036Y-74843227D01*
X144937583Y-74996732D01*
X144937582Y-74996735D01*
X144877705Y-75167854D01*
X144857409Y-75347996D01*
X144857409Y-75348003D01*
X144476591Y-75348003D01*
X144476591Y-75347996D01*
X144456294Y-75167854D01*
X144456293Y-75167852D01*
X144456293Y-75167849D01*
X144396416Y-74996732D01*
X144299964Y-74843228D01*
X144171772Y-74715036D01*
X144171771Y-74715035D01*
X144018267Y-74618583D01*
X144018264Y-74618582D01*
X143847145Y-74558705D01*
X143667004Y-74538409D01*
X143666996Y-74538409D01*
X143486854Y-74558705D01*
X143315735Y-74618582D01*
X143315732Y-74618583D01*
X143162227Y-74715036D01*
X143034036Y-74843227D01*
X142937583Y-74996732D01*
X142937582Y-74996735D01*
X142877705Y-75167854D01*
X142857409Y-75347996D01*
X142857409Y-75348003D01*
X129405158Y-75348003D01*
X126855818Y-72798663D01*
X126822333Y-72737340D01*
X126819499Y-72710982D01*
X126819499Y-60281516D01*
X126819499Y-50084000D01*
X129334843Y-50084000D01*
X129353426Y-50272681D01*
X129371772Y-50333160D01*
X129408463Y-50454115D01*
X129408464Y-50454117D01*
X129408465Y-50454119D01*
X129408466Y-50454122D01*
X129497834Y-50621318D01*
X129497838Y-50621325D01*
X129618116Y-50767883D01*
X129675163Y-50814700D01*
X129764676Y-50888162D01*
X129908954Y-50965280D01*
X129958796Y-51014241D01*
X129974499Y-51074637D01*
X129974499Y-72407180D01*
X129957887Y-72469179D01*
X129912074Y-72548531D01*
X129856569Y-72719359D01*
X129837793Y-72898000D01*
X129856569Y-73076640D01*
X129867980Y-73111761D01*
X129912075Y-73247471D01*
X130001887Y-73403029D01*
X130122078Y-73536515D01*
X130267396Y-73642095D01*
X130431490Y-73715154D01*
X130607188Y-73752500D01*
X130786812Y-73752500D01*
X130962510Y-73715154D01*
X131126604Y-73642095D01*
X131271922Y-73536515D01*
X131392113Y-73403029D01*
X131481925Y-73247471D01*
X131537431Y-73076639D01*
X131556207Y-72898000D01*
X131556207Y-72897999D01*
X134917793Y-72897999D01*
X134936569Y-73076640D01*
X134947980Y-73111761D01*
X134992075Y-73247471D01*
X135081887Y-73403029D01*
X135202078Y-73536515D01*
X135347396Y-73642095D01*
X135511490Y-73715154D01*
X135687188Y-73752500D01*
X135866812Y-73752500D01*
X136042510Y-73715154D01*
X136206604Y-73642095D01*
X136351922Y-73536515D01*
X136472113Y-73403029D01*
X136561925Y-73247471D01*
X136617431Y-73076639D01*
X136636207Y-72898000D01*
X137457793Y-72898000D01*
X137476569Y-73076640D01*
X137487980Y-73111761D01*
X137532075Y-73247471D01*
X137621887Y-73403029D01*
X137742078Y-73536515D01*
X137887396Y-73642095D01*
X138051490Y-73715154D01*
X138227188Y-73752500D01*
X138406812Y-73752500D01*
X138582510Y-73715154D01*
X138746604Y-73642095D01*
X138891922Y-73536515D01*
X139012113Y-73403029D01*
X139101925Y-73247471D01*
X139157431Y-73076639D01*
X139176207Y-72898000D01*
X139997793Y-72898000D01*
X140016569Y-73076640D01*
X140027980Y-73111761D01*
X140072075Y-73247471D01*
X140161887Y-73403029D01*
X140282078Y-73536515D01*
X140427396Y-73642095D01*
X140591490Y-73715154D01*
X140767188Y-73752500D01*
X140946812Y-73752500D01*
X141122510Y-73715154D01*
X141286604Y-73642095D01*
X141431922Y-73536515D01*
X141552113Y-73403029D01*
X141641925Y-73247471D01*
X141697431Y-73076639D01*
X141716207Y-72898000D01*
X141716207Y-72897999D01*
X142537793Y-72897999D01*
X142556569Y-73076640D01*
X142567980Y-73111761D01*
X142612075Y-73247471D01*
X142701887Y-73403029D01*
X142822078Y-73536515D01*
X142967396Y-73642095D01*
X143131490Y-73715154D01*
X143307188Y-73752500D01*
X143486812Y-73752500D01*
X143662510Y-73715154D01*
X143826604Y-73642095D01*
X143971922Y-73536515D01*
X144092113Y-73403029D01*
X144181925Y-73247471D01*
X144237431Y-73076639D01*
X144256207Y-72898000D01*
X144237431Y-72719361D01*
X144181925Y-72548529D01*
X144092113Y-72392971D01*
X143971922Y-72259485D01*
X143826604Y-72153905D01*
X143662510Y-72080846D01*
X143662508Y-72080845D01*
X143486812Y-72043500D01*
X143307188Y-72043500D01*
X143131490Y-72080845D01*
X143131485Y-72080847D01*
X142967397Y-72153905D01*
X142967392Y-72153907D01*
X142822079Y-72259483D01*
X142822072Y-72259489D01*
X142701886Y-72392972D01*
X142612074Y-72548530D01*
X142556569Y-72719359D01*
X142537793Y-72897999D01*
X141716207Y-72897999D01*
X141697431Y-72719361D01*
X141641925Y-72548529D01*
X141552113Y-72392971D01*
X141431922Y-72259485D01*
X141286604Y-72153905D01*
X141122510Y-72080846D01*
X141122508Y-72080845D01*
X140946812Y-72043500D01*
X140767188Y-72043500D01*
X140591490Y-72080845D01*
X140591485Y-72080847D01*
X140427397Y-72153905D01*
X140427392Y-72153907D01*
X140282079Y-72259483D01*
X140282072Y-72259489D01*
X140161886Y-72392972D01*
X140072074Y-72548530D01*
X140016569Y-72719359D01*
X139997793Y-72898000D01*
X139176207Y-72898000D01*
X139157431Y-72719361D01*
X139101925Y-72548529D01*
X139012113Y-72392971D01*
X138891922Y-72259485D01*
X138746604Y-72153905D01*
X138582510Y-72080846D01*
X138582508Y-72080845D01*
X138406812Y-72043500D01*
X138227188Y-72043500D01*
X138051490Y-72080845D01*
X138051485Y-72080847D01*
X137887397Y-72153905D01*
X137887392Y-72153907D01*
X137742079Y-72259483D01*
X137742072Y-72259489D01*
X137621886Y-72392972D01*
X137532074Y-72548530D01*
X137476569Y-72719359D01*
X137457793Y-72898000D01*
X136636207Y-72898000D01*
X136617431Y-72719361D01*
X136561925Y-72548529D01*
X136472113Y-72392971D01*
X136351922Y-72259485D01*
X136206604Y-72153905D01*
X136042510Y-72080846D01*
X136042508Y-72080845D01*
X135866812Y-72043500D01*
X135687188Y-72043500D01*
X135511490Y-72080845D01*
X135511485Y-72080847D01*
X135347397Y-72153905D01*
X135347392Y-72153907D01*
X135202079Y-72259483D01*
X135202072Y-72259489D01*
X135081886Y-72392972D01*
X134992074Y-72548530D01*
X134936569Y-72719359D01*
X134917793Y-72897999D01*
X131556207Y-72897999D01*
X131537431Y-72719361D01*
X131481925Y-72548529D01*
X131392113Y-72392971D01*
X131271922Y-72259485D01*
X131126604Y-72153905D01*
X130962510Y-72080846D01*
X130962508Y-72080845D01*
X130786812Y-72043500D01*
X130753500Y-72043500D01*
X130686461Y-72023815D01*
X130640706Y-71971011D01*
X130629500Y-71919500D01*
X130629500Y-51074637D01*
X130649185Y-51007598D01*
X130695045Y-50965280D01*
X130839324Y-50888162D01*
X130985883Y-50767883D01*
X131106162Y-50621324D01*
X131195537Y-50454115D01*
X131250573Y-50272683D01*
X131269157Y-50084000D01*
X131874843Y-50084000D01*
X131893426Y-50272681D01*
X131911772Y-50333160D01*
X131948463Y-50454115D01*
X131948464Y-50454117D01*
X131948465Y-50454119D01*
X131948466Y-50454122D01*
X132037834Y-50621318D01*
X132037838Y-50621325D01*
X132158116Y-50767883D01*
X132304674Y-50888161D01*
X132304681Y-50888165D01*
X132471877Y-50977533D01*
X132471878Y-50977533D01*
X132471885Y-50977537D01*
X132653317Y-51032573D01*
X132653316Y-51032573D01*
X132670233Y-51034239D01*
X132842000Y-51051157D01*
X133030683Y-51032573D01*
X133212115Y-50977537D01*
X133379324Y-50888162D01*
X133525883Y-50767883D01*
X133646162Y-50621324D01*
X133735537Y-50454115D01*
X133790573Y-50272683D01*
X133809157Y-50084000D01*
X134414843Y-50084000D01*
X134433426Y-50272681D01*
X134451772Y-50333160D01*
X134488463Y-50454115D01*
X134488464Y-50454117D01*
X134488465Y-50454119D01*
X134488466Y-50454122D01*
X134577834Y-50621318D01*
X134577838Y-50621325D01*
X134698116Y-50767883D01*
X134844674Y-50888161D01*
X134844681Y-50888165D01*
X135011877Y-50977533D01*
X135011878Y-50977533D01*
X135011885Y-50977537D01*
X135193317Y-51032573D01*
X135193316Y-51032573D01*
X135210233Y-51034239D01*
X135382000Y-51051157D01*
X135570683Y-51032573D01*
X135752115Y-50977537D01*
X135919324Y-50888162D01*
X136065883Y-50767883D01*
X136186162Y-50621324D01*
X136275537Y-50454115D01*
X136330573Y-50272683D01*
X136349157Y-50084000D01*
X136954843Y-50084000D01*
X136973426Y-50272681D01*
X136991772Y-50333160D01*
X137028463Y-50454115D01*
X137028464Y-50454117D01*
X137028465Y-50454119D01*
X137028466Y-50454122D01*
X137117834Y-50621318D01*
X137117838Y-50621325D01*
X137238116Y-50767883D01*
X137384674Y-50888161D01*
X137384681Y-50888165D01*
X137551877Y-50977533D01*
X137551878Y-50977533D01*
X137551885Y-50977537D01*
X137733317Y-51032573D01*
X137733316Y-51032573D01*
X137750233Y-51034239D01*
X137922000Y-51051157D01*
X138110683Y-51032573D01*
X138292115Y-50977537D01*
X138459324Y-50888162D01*
X138605883Y-50767883D01*
X138726162Y-50621324D01*
X138815537Y-50454115D01*
X138870573Y-50272683D01*
X138889157Y-50084000D01*
X139494843Y-50084000D01*
X139513426Y-50272681D01*
X139531772Y-50333160D01*
X139568463Y-50454115D01*
X139568464Y-50454117D01*
X139568465Y-50454119D01*
X139568466Y-50454122D01*
X139657834Y-50621318D01*
X139657838Y-50621325D01*
X139778116Y-50767883D01*
X139924674Y-50888161D01*
X139924681Y-50888165D01*
X140091877Y-50977533D01*
X140091878Y-50977533D01*
X140091885Y-50977537D01*
X140273317Y-51032573D01*
X140273316Y-51032573D01*
X140290233Y-51034239D01*
X140462000Y-51051157D01*
X140650683Y-51032573D01*
X140832115Y-50977537D01*
X140999324Y-50888162D01*
X141145883Y-50767883D01*
X141266162Y-50621324D01*
X141355537Y-50454115D01*
X141410573Y-50272683D01*
X141429157Y-50084000D01*
X144574843Y-50084000D01*
X144593426Y-50272681D01*
X144611772Y-50333160D01*
X144648463Y-50454115D01*
X144648464Y-50454117D01*
X144648465Y-50454119D01*
X144648466Y-50454122D01*
X144737834Y-50621318D01*
X144737838Y-50621325D01*
X144858116Y-50767883D01*
X145004674Y-50888161D01*
X145004677Y-50888163D01*
X145048526Y-50911600D01*
X145148954Y-50965280D01*
X145198797Y-51014240D01*
X145214500Y-51074637D01*
X145214500Y-72407180D01*
X145197887Y-72469180D01*
X145152074Y-72548530D01*
X145096569Y-72719359D01*
X145077793Y-72897999D01*
X145096569Y-73076640D01*
X145107980Y-73111761D01*
X145152075Y-73247471D01*
X145241887Y-73403029D01*
X145362078Y-73536515D01*
X145507396Y-73642095D01*
X145671490Y-73715154D01*
X145847188Y-73752500D01*
X146026812Y-73752500D01*
X146202510Y-73715154D01*
X146366604Y-73642095D01*
X146511922Y-73536515D01*
X146632113Y-73403029D01*
X146721925Y-73247471D01*
X146777431Y-73076639D01*
X146796207Y-72898000D01*
X146796207Y-72897999D01*
X147617793Y-72897999D01*
X147636569Y-73076640D01*
X147647980Y-73111761D01*
X147692075Y-73247471D01*
X147781887Y-73403029D01*
X147902078Y-73536515D01*
X148047396Y-73642095D01*
X148211490Y-73715154D01*
X148387188Y-73752500D01*
X148566812Y-73752500D01*
X148742510Y-73715154D01*
X148906604Y-73642095D01*
X149051922Y-73536515D01*
X149172113Y-73403029D01*
X149261925Y-73247471D01*
X149317431Y-73076639D01*
X149336207Y-72898000D01*
X149317431Y-72719361D01*
X149261925Y-72548529D01*
X149172113Y-72392971D01*
X149051922Y-72259485D01*
X148918550Y-72162584D01*
X148906603Y-72153904D01*
X148878064Y-72141198D01*
X148824827Y-72095948D01*
X148804506Y-72029099D01*
X148804500Y-72027919D01*
X148804500Y-69654764D01*
X148824185Y-69587725D01*
X148853014Y-69556388D01*
X148905282Y-69516282D01*
X149001536Y-69390841D01*
X149062044Y-69244762D01*
X149082682Y-69088000D01*
X149062044Y-68931238D01*
X149001536Y-68785159D01*
X148905282Y-68659718D01*
X148779841Y-68563464D01*
X148722607Y-68539757D01*
X148633762Y-68502956D01*
X148633760Y-68502955D01*
X148477001Y-68482318D01*
X148476999Y-68482318D01*
X148320239Y-68502955D01*
X148320237Y-68502956D01*
X148174160Y-68563463D01*
X148048718Y-68659718D01*
X147952463Y-68785160D01*
X147891956Y-68931237D01*
X147891955Y-68931239D01*
X147871318Y-69087998D01*
X147871318Y-69088001D01*
X147891955Y-69244760D01*
X147891956Y-69244762D01*
X147952464Y-69390841D01*
X148048718Y-69516282D01*
X148048719Y-69516283D01*
X148100986Y-69556388D01*
X148142189Y-69612816D01*
X148149500Y-69654764D01*
X148149500Y-72027919D01*
X148129815Y-72094958D01*
X148077011Y-72140713D01*
X148075936Y-72141198D01*
X148047396Y-72153904D01*
X147902079Y-72259483D01*
X147902072Y-72259489D01*
X147781886Y-72392972D01*
X147692074Y-72548530D01*
X147636569Y-72719359D01*
X147617793Y-72897999D01*
X146796207Y-72897999D01*
X146777431Y-72719361D01*
X146721925Y-72548529D01*
X146632113Y-72392971D01*
X146511922Y-72259485D01*
X146366604Y-72153905D01*
X146202510Y-72080846D01*
X146202508Y-72080845D01*
X146026812Y-72043500D01*
X145993500Y-72043500D01*
X145926461Y-72023815D01*
X145880706Y-71971011D01*
X145869500Y-71919500D01*
X145869500Y-62230001D01*
X148492318Y-62230001D01*
X148512955Y-62386760D01*
X148512956Y-62386762D01*
X148546383Y-62467463D01*
X148573464Y-62532841D01*
X148669718Y-62658282D01*
X148795159Y-62754536D01*
X148941238Y-62815044D01*
X148972047Y-62819100D01*
X149097999Y-62835682D01*
X149098000Y-62835682D01*
X149163319Y-62827082D01*
X149232354Y-62837847D01*
X149267186Y-62862340D01*
X150653182Y-64248336D01*
X150686666Y-64309657D01*
X150689500Y-64336015D01*
X150689500Y-72027919D01*
X150669815Y-72094958D01*
X150617011Y-72140713D01*
X150615936Y-72141198D01*
X150587396Y-72153904D01*
X150442079Y-72259483D01*
X150442072Y-72259489D01*
X150321886Y-72392972D01*
X150232074Y-72548530D01*
X150176569Y-72719359D01*
X150157793Y-72898000D01*
X150176569Y-73076640D01*
X150187980Y-73111761D01*
X150232075Y-73247471D01*
X150321887Y-73403029D01*
X150442078Y-73536515D01*
X150587396Y-73642095D01*
X150751490Y-73715154D01*
X150927188Y-73752500D01*
X151106812Y-73752500D01*
X151282510Y-73715154D01*
X151446604Y-73642095D01*
X151591922Y-73536515D01*
X151712113Y-73403029D01*
X151801925Y-73247471D01*
X151857431Y-73076639D01*
X151876207Y-72898000D01*
X151857431Y-72719361D01*
X151801925Y-72548529D01*
X151712113Y-72392971D01*
X151591922Y-72259485D01*
X151458550Y-72162584D01*
X151446603Y-72153904D01*
X151418064Y-72141198D01*
X151364827Y-72095948D01*
X151344506Y-72029099D01*
X151344500Y-72027919D01*
X151344500Y-71515983D01*
X151814712Y-71515983D01*
X151825257Y-71555335D01*
X151826428Y-71560618D01*
X151833503Y-71600740D01*
X151835232Y-71605491D01*
X151842468Y-71622959D01*
X151844606Y-71627544D01*
X151867972Y-71660914D01*
X151870879Y-71665478D01*
X151891247Y-71700757D01*
X151891251Y-71700761D01*
X151922463Y-71726951D01*
X151926442Y-71730596D01*
X152533327Y-72337482D01*
X152711550Y-72515705D01*
X152745035Y-72577028D01*
X152741801Y-72641702D01*
X152716569Y-72719359D01*
X152697793Y-72898000D01*
X152716569Y-73076640D01*
X152727980Y-73111761D01*
X152772075Y-73247471D01*
X152861887Y-73403029D01*
X152982078Y-73536515D01*
X153127396Y-73642095D01*
X153291490Y-73715154D01*
X153467188Y-73752500D01*
X153646812Y-73752500D01*
X153822510Y-73715154D01*
X153986604Y-73642095D01*
X154131922Y-73536515D01*
X154252113Y-73403029D01*
X154341925Y-73247471D01*
X154397431Y-73076639D01*
X154416207Y-72898000D01*
X154416207Y-72897999D01*
X155237793Y-72897999D01*
X155256569Y-73076640D01*
X155267980Y-73111761D01*
X155312075Y-73247471D01*
X155401887Y-73403029D01*
X155522078Y-73536515D01*
X155667396Y-73642095D01*
X155831490Y-73715154D01*
X156007188Y-73752500D01*
X156186812Y-73752500D01*
X156362510Y-73715154D01*
X156526604Y-73642095D01*
X156671922Y-73536515D01*
X156792113Y-73403029D01*
X156881925Y-73247471D01*
X156937431Y-73076639D01*
X156956207Y-72898000D01*
X156956207Y-72897999D01*
X157777793Y-72897999D01*
X157796569Y-73076640D01*
X157807980Y-73111761D01*
X157852075Y-73247471D01*
X157941887Y-73403029D01*
X158062078Y-73536515D01*
X158207396Y-73642095D01*
X158371490Y-73715154D01*
X158547188Y-73752500D01*
X158726812Y-73752500D01*
X158902510Y-73715154D01*
X159066604Y-73642095D01*
X159211922Y-73536515D01*
X159332113Y-73403029D01*
X159421925Y-73247471D01*
X159477431Y-73076639D01*
X159496207Y-72898000D01*
X159477431Y-72719361D01*
X159421925Y-72548529D01*
X159332113Y-72392971D01*
X159211922Y-72259485D01*
X159078550Y-72162584D01*
X159066603Y-72153904D01*
X159038064Y-72141198D01*
X158984827Y-72095948D01*
X158964506Y-72029099D01*
X158964500Y-72027919D01*
X158964500Y-71402476D01*
X158984185Y-71335437D01*
X159036989Y-71289682D01*
X159106147Y-71279738D01*
X159169703Y-71308763D01*
X159195888Y-71340478D01*
X159198658Y-71345276D01*
X159208468Y-71368959D01*
X159210606Y-71373544D01*
X159233972Y-71406914D01*
X159236879Y-71411478D01*
X159257247Y-71446757D01*
X159257251Y-71446761D01*
X159288463Y-71472951D01*
X159292442Y-71476596D01*
X160075328Y-72259483D01*
X160331550Y-72515705D01*
X160365035Y-72577028D01*
X160361801Y-72641702D01*
X160336569Y-72719359D01*
X160317793Y-72898000D01*
X160336569Y-73076640D01*
X160347980Y-73111761D01*
X160392075Y-73247471D01*
X160481887Y-73403029D01*
X160602078Y-73536515D01*
X160747396Y-73642095D01*
X160911490Y-73715154D01*
X161087188Y-73752500D01*
X161266812Y-73752500D01*
X161442510Y-73715154D01*
X161606604Y-73642095D01*
X161751922Y-73536515D01*
X161872113Y-73403029D01*
X161961925Y-73247471D01*
X162017431Y-73076639D01*
X162036207Y-72898000D01*
X162857793Y-72898000D01*
X162876569Y-73076640D01*
X162887980Y-73111761D01*
X162932075Y-73247471D01*
X163021887Y-73403029D01*
X163142078Y-73536515D01*
X163287396Y-73642095D01*
X163451490Y-73715154D01*
X163627188Y-73752500D01*
X163806812Y-73752500D01*
X163982510Y-73715154D01*
X164146604Y-73642095D01*
X164291922Y-73536515D01*
X164412113Y-73403029D01*
X164501925Y-73247471D01*
X164557431Y-73076639D01*
X164576207Y-72898000D01*
X164576207Y-72897999D01*
X167937793Y-72897999D01*
X167956569Y-73076640D01*
X167967980Y-73111761D01*
X168012075Y-73247471D01*
X168101887Y-73403029D01*
X168222078Y-73536515D01*
X168367396Y-73642095D01*
X168531490Y-73715154D01*
X168707188Y-73752500D01*
X168886812Y-73752500D01*
X169062510Y-73715154D01*
X169226604Y-73642095D01*
X169371922Y-73536515D01*
X169492113Y-73403029D01*
X169581925Y-73247471D01*
X169637431Y-73076639D01*
X169656207Y-72898000D01*
X169637431Y-72719361D01*
X169581925Y-72548529D01*
X169492113Y-72392971D01*
X169371922Y-72259485D01*
X169238550Y-72162584D01*
X169226603Y-72153904D01*
X169198064Y-72141198D01*
X169144827Y-72095948D01*
X169124506Y-72029099D01*
X169124500Y-72027919D01*
X169124500Y-69654764D01*
X169144185Y-69587725D01*
X169173014Y-69556388D01*
X169225282Y-69516282D01*
X169321536Y-69390841D01*
X169382044Y-69244762D01*
X169402682Y-69088000D01*
X169382044Y-68931238D01*
X169321536Y-68785159D01*
X169225282Y-68659718D01*
X169099841Y-68563464D01*
X169042607Y-68539757D01*
X168953762Y-68502956D01*
X168953760Y-68502955D01*
X168797001Y-68482318D01*
X168796999Y-68482318D01*
X168640239Y-68502955D01*
X168640237Y-68502956D01*
X168494160Y-68563463D01*
X168368718Y-68659718D01*
X168272463Y-68785160D01*
X168211956Y-68931237D01*
X168211955Y-68931239D01*
X168191318Y-69087998D01*
X168191318Y-69088001D01*
X168211955Y-69244760D01*
X168211956Y-69244762D01*
X168272464Y-69390841D01*
X168368718Y-69516282D01*
X168368719Y-69516283D01*
X168420986Y-69556388D01*
X168462189Y-69612816D01*
X168469500Y-69654764D01*
X168469500Y-72027919D01*
X168449815Y-72094958D01*
X168397011Y-72140713D01*
X168395936Y-72141198D01*
X168367396Y-72153904D01*
X168222079Y-72259483D01*
X168222072Y-72259489D01*
X168101886Y-72392972D01*
X168012074Y-72548530D01*
X167956569Y-72719359D01*
X167937793Y-72897999D01*
X164576207Y-72897999D01*
X164557431Y-72719361D01*
X164501925Y-72548529D01*
X164412113Y-72392971D01*
X164291922Y-72259485D01*
X164146604Y-72153905D01*
X163982510Y-72080846D01*
X163982508Y-72080845D01*
X163806812Y-72043500D01*
X163627188Y-72043500D01*
X163451490Y-72080845D01*
X163451485Y-72080847D01*
X163287397Y-72153905D01*
X163287392Y-72153907D01*
X163142079Y-72259483D01*
X163142072Y-72259489D01*
X163021886Y-72392972D01*
X162932074Y-72548530D01*
X162876569Y-72719359D01*
X162857793Y-72898000D01*
X162036207Y-72898000D01*
X162017431Y-72719361D01*
X161961925Y-72548529D01*
X161872113Y-72392971D01*
X161751922Y-72259485D01*
X161606604Y-72153905D01*
X161442510Y-72080846D01*
X161442508Y-72080845D01*
X161266812Y-72043500D01*
X161087188Y-72043500D01*
X160905134Y-72082197D01*
X160904550Y-72079451D01*
X160846959Y-72081016D01*
X160790970Y-72048815D01*
X159875819Y-71133664D01*
X159842334Y-71072341D01*
X159839500Y-71045983D01*
X159839500Y-67564001D01*
X163374818Y-67564001D01*
X163395455Y-67720760D01*
X163395456Y-67720762D01*
X163435732Y-67817998D01*
X163455964Y-67866841D01*
X163552218Y-67992282D01*
X163677659Y-68088536D01*
X163823738Y-68149044D01*
X163902118Y-68159362D01*
X163980499Y-68169682D01*
X163980500Y-68169682D01*
X163980501Y-68169682D01*
X164032754Y-68162802D01*
X164137262Y-68149044D01*
X164283341Y-68088536D01*
X164408782Y-67992282D01*
X164505036Y-67866841D01*
X164565544Y-67720762D01*
X164586182Y-67564000D01*
X164565544Y-67407238D01*
X164505036Y-67261159D01*
X164408782Y-67135718D01*
X164401471Y-67130108D01*
X164356512Y-67095608D01*
X164315310Y-67039180D01*
X164308000Y-66997234D01*
X164308000Y-61494515D01*
X164327685Y-61427476D01*
X164380489Y-61381721D01*
X164449647Y-61371777D01*
X164513203Y-61400802D01*
X164546561Y-61447063D01*
X164575462Y-61516838D01*
X164575463Y-61516840D01*
X164575464Y-61516841D01*
X164671718Y-61642282D01*
X164797159Y-61738536D01*
X164943238Y-61799044D01*
X164974047Y-61803100D01*
X165099999Y-61819682D01*
X165100000Y-61819682D01*
X165165319Y-61811082D01*
X165234354Y-61821847D01*
X165269186Y-61846340D01*
X166245659Y-62822813D01*
X166279144Y-62884136D01*
X166280917Y-62926678D01*
X166272318Y-62991997D01*
X166272318Y-62992001D01*
X166292955Y-63148760D01*
X166292956Y-63148762D01*
X166353464Y-63294841D01*
X166449718Y-63420282D01*
X166575159Y-63516536D01*
X166721238Y-63577044D01*
X166799619Y-63587363D01*
X166877999Y-63597682D01*
X166878000Y-63597682D01*
X166878001Y-63597682D01*
X166930254Y-63590802D01*
X167034762Y-63577044D01*
X167180841Y-63516536D01*
X167306282Y-63420282D01*
X167402536Y-63294841D01*
X167463044Y-63148762D01*
X167483682Y-62992000D01*
X167463044Y-62835238D01*
X167402536Y-62689159D01*
X167306282Y-62563718D01*
X167180841Y-62467464D01*
X167034762Y-62406956D01*
X167034760Y-62406955D01*
X166878001Y-62386318D01*
X166877997Y-62386318D01*
X166812678Y-62394917D01*
X166743643Y-62384151D01*
X166708813Y-62359659D01*
X165817155Y-61468001D01*
X169574318Y-61468001D01*
X169594955Y-61624760D01*
X169594956Y-61624762D01*
X169634131Y-61719340D01*
X169655464Y-61770841D01*
X169751718Y-61896282D01*
X169803984Y-61936387D01*
X169803986Y-61936388D01*
X169845189Y-61992816D01*
X169852500Y-62034764D01*
X169852500Y-71723994D01*
X169852264Y-71729401D01*
X169848712Y-71769983D01*
X169859257Y-71809335D01*
X169860428Y-71814618D01*
X169867503Y-71854740D01*
X169869232Y-71859491D01*
X169876468Y-71876959D01*
X169878606Y-71881544D01*
X169901972Y-71914914D01*
X169904879Y-71919478D01*
X169925247Y-71954757D01*
X169925251Y-71954761D01*
X169956463Y-71980951D01*
X169960442Y-71984596D01*
X170368816Y-72392971D01*
X170491550Y-72515705D01*
X170525035Y-72577028D01*
X170521801Y-72641702D01*
X170496569Y-72719359D01*
X170477793Y-72898000D01*
X170496569Y-73076640D01*
X170507980Y-73111761D01*
X170552075Y-73247471D01*
X170641887Y-73403029D01*
X170762078Y-73536515D01*
X170907396Y-73642095D01*
X171071490Y-73715154D01*
X171247188Y-73752500D01*
X171426812Y-73752500D01*
X171602510Y-73715154D01*
X171766604Y-73642095D01*
X171911922Y-73536515D01*
X172032113Y-73403029D01*
X172121925Y-73247471D01*
X172177431Y-73076639D01*
X172196207Y-72898000D01*
X173017793Y-72898000D01*
X173036569Y-73076640D01*
X173047980Y-73111761D01*
X173092075Y-73247471D01*
X173181887Y-73403029D01*
X173302078Y-73536515D01*
X173447396Y-73642095D01*
X173611490Y-73715154D01*
X173787188Y-73752500D01*
X173966812Y-73752500D01*
X174142510Y-73715154D01*
X174306604Y-73642095D01*
X174451922Y-73536515D01*
X174572113Y-73403029D01*
X174661925Y-73247471D01*
X174717431Y-73076639D01*
X174736207Y-72898000D01*
X174717431Y-72719361D01*
X174692197Y-72641700D01*
X174690203Y-72571862D01*
X174722446Y-72515706D01*
X178606748Y-68631404D01*
X178668069Y-68597921D01*
X178737761Y-68602905D01*
X178793694Y-68644777D01*
X178818111Y-68710241D01*
X178803259Y-68778514D01*
X178801818Y-68781080D01*
X178799466Y-68785154D01*
X178738956Y-68931237D01*
X178738955Y-68931239D01*
X178718318Y-69087998D01*
X178718318Y-69088001D01*
X178738955Y-69244760D01*
X178738956Y-69244762D01*
X178799464Y-69390841D01*
X178895718Y-69516282D01*
X178895719Y-69516283D01*
X178947986Y-69556388D01*
X178989189Y-69612816D01*
X178996500Y-69654764D01*
X178996500Y-69803983D01*
X178976815Y-69871022D01*
X178960181Y-69891664D01*
X176803029Y-72048815D01*
X176741706Y-72082300D01*
X176689394Y-72079709D01*
X176688866Y-72082197D01*
X176506812Y-72043500D01*
X176327188Y-72043500D01*
X176151490Y-72080845D01*
X176151485Y-72080847D01*
X175987397Y-72153905D01*
X175987392Y-72153907D01*
X175842079Y-72259483D01*
X175842072Y-72259489D01*
X175721886Y-72392972D01*
X175632074Y-72548530D01*
X175576569Y-72719359D01*
X175557793Y-72898000D01*
X175576569Y-73076640D01*
X175587980Y-73111761D01*
X175632075Y-73247471D01*
X175721887Y-73403029D01*
X175842078Y-73536515D01*
X175987396Y-73642095D01*
X176151490Y-73715154D01*
X176327188Y-73752500D01*
X176506812Y-73752500D01*
X176682510Y-73715154D01*
X176846604Y-73642095D01*
X176991922Y-73536515D01*
X177112113Y-73403029D01*
X177201925Y-73247471D01*
X177257431Y-73076639D01*
X177276207Y-72898000D01*
X177276207Y-72897999D01*
X178097793Y-72897999D01*
X178116569Y-73076640D01*
X178127980Y-73111761D01*
X178172075Y-73247471D01*
X178261887Y-73403029D01*
X178382078Y-73536515D01*
X178527396Y-73642095D01*
X178691490Y-73715154D01*
X178867188Y-73752500D01*
X179046812Y-73752500D01*
X179222510Y-73715154D01*
X179386604Y-73642095D01*
X179531922Y-73536515D01*
X179652113Y-73403029D01*
X179741925Y-73247471D01*
X179797431Y-73076639D01*
X179816207Y-72898000D01*
X179797431Y-72719361D01*
X179741925Y-72548529D01*
X179652113Y-72392971D01*
X179531922Y-72259485D01*
X179386604Y-72153905D01*
X179222510Y-72080846D01*
X179222508Y-72080845D01*
X179046812Y-72043500D01*
X178867188Y-72043500D01*
X178691490Y-72080845D01*
X178691485Y-72080847D01*
X178527397Y-72153905D01*
X178527392Y-72153907D01*
X178382079Y-72259483D01*
X178382072Y-72259489D01*
X178261886Y-72392972D01*
X178172074Y-72548530D01*
X178116569Y-72719359D01*
X178097793Y-72897999D01*
X177276207Y-72897999D01*
X177257431Y-72719361D01*
X177232197Y-72641700D01*
X177230203Y-72571863D01*
X177262446Y-72515707D01*
X179543561Y-70234592D01*
X179547523Y-70230961D01*
X179578750Y-70204760D01*
X179599133Y-70169454D01*
X179602018Y-70164926D01*
X179625394Y-70131543D01*
X179625394Y-70131540D01*
X179627548Y-70126920D01*
X179634752Y-70109531D01*
X179636493Y-70104744D01*
X179636497Y-70104739D01*
X179643576Y-70064586D01*
X179644732Y-70059368D01*
X179655287Y-70019984D01*
X179651735Y-69979397D01*
X179651500Y-69973994D01*
X179651500Y-69654764D01*
X179671185Y-69587725D01*
X179700014Y-69556388D01*
X179752282Y-69516282D01*
X179848536Y-69390841D01*
X179909044Y-69244762D01*
X179929682Y-69088000D01*
X179909044Y-68931238D01*
X179848536Y-68785159D01*
X179752282Y-68659718D01*
X179626841Y-68563464D01*
X179569607Y-68539757D01*
X179480762Y-68502956D01*
X179480760Y-68502955D01*
X179324001Y-68482318D01*
X179323999Y-68482318D01*
X179167239Y-68502955D01*
X179167237Y-68502956D01*
X179021154Y-68563466D01*
X179017080Y-68565818D01*
X178949179Y-68582286D01*
X178883154Y-68559430D01*
X178839966Y-68504506D01*
X178833329Y-68434952D01*
X178865349Y-68372852D01*
X178867364Y-68370788D01*
X180305555Y-66932597D01*
X180309517Y-66928966D01*
X180340750Y-66902760D01*
X180361134Y-66867451D01*
X180364009Y-66862937D01*
X180387394Y-66829543D01*
X180387395Y-66829537D01*
X180389549Y-66824919D01*
X180396752Y-66807531D01*
X180398495Y-66802742D01*
X180398494Y-66802742D01*
X180398497Y-66802739D01*
X180405576Y-66762586D01*
X180406737Y-66757352D01*
X180417287Y-66717984D01*
X180413734Y-66677398D01*
X180413499Y-66671992D01*
X180413499Y-64336015D01*
X180413499Y-62034760D01*
X180433184Y-61967725D01*
X180462010Y-61936391D01*
X180514282Y-61896282D01*
X180610536Y-61770841D01*
X180671044Y-61624762D01*
X180691682Y-61468000D01*
X180671044Y-61311238D01*
X180610536Y-61165159D01*
X180514282Y-61039718D01*
X180388841Y-60943464D01*
X180364747Y-60933484D01*
X180242762Y-60882956D01*
X180242760Y-60882955D01*
X180086001Y-60862318D01*
X180085999Y-60862318D01*
X179929239Y-60882955D01*
X179929237Y-60882956D01*
X179783160Y-60943463D01*
X179657718Y-61039718D01*
X179561463Y-61165160D01*
X179500956Y-61311237D01*
X179500955Y-61311239D01*
X179480318Y-61467998D01*
X179480318Y-61468001D01*
X179500955Y-61624760D01*
X179500956Y-61624762D01*
X179540131Y-61719340D01*
X179561464Y-61770841D01*
X179657718Y-61896282D01*
X179709984Y-61936387D01*
X179709986Y-61936388D01*
X179751189Y-61992816D01*
X179758500Y-62034764D01*
X179758500Y-66501983D01*
X179738815Y-66569022D01*
X179722181Y-66589664D01*
X174263029Y-72048815D01*
X174201706Y-72082300D01*
X174149394Y-72079709D01*
X174148866Y-72082197D01*
X173966812Y-72043500D01*
X173787188Y-72043500D01*
X173611490Y-72080845D01*
X173611485Y-72080847D01*
X173447397Y-72153905D01*
X173447392Y-72153907D01*
X173302079Y-72259483D01*
X173302072Y-72259489D01*
X173181886Y-72392972D01*
X173092074Y-72548530D01*
X173036569Y-72719359D01*
X173017793Y-72898000D01*
X172196207Y-72898000D01*
X172177431Y-72719361D01*
X172121925Y-72548529D01*
X172032113Y-72392971D01*
X171911922Y-72259485D01*
X171766604Y-72153905D01*
X171602510Y-72080846D01*
X171602508Y-72080845D01*
X171426812Y-72043500D01*
X171247188Y-72043500D01*
X171065134Y-72082197D01*
X171064550Y-72079451D01*
X171006959Y-72081016D01*
X170950970Y-72048815D01*
X170543819Y-71641664D01*
X170510334Y-71580341D01*
X170507500Y-71553983D01*
X170507500Y-62034764D01*
X170527185Y-61967725D01*
X170556014Y-61936388D01*
X170608282Y-61896282D01*
X170704536Y-61770841D01*
X170765044Y-61624762D01*
X170785682Y-61468000D01*
X170765044Y-61311238D01*
X170704536Y-61165159D01*
X170608282Y-61039718D01*
X170482841Y-60943464D01*
X170458747Y-60933484D01*
X170336762Y-60882956D01*
X170336760Y-60882955D01*
X170180001Y-60862318D01*
X170179999Y-60862318D01*
X170023239Y-60882955D01*
X170023237Y-60882956D01*
X169877160Y-60943463D01*
X169751718Y-61039718D01*
X169655463Y-61165160D01*
X169594956Y-61311237D01*
X169594955Y-61311239D01*
X169574318Y-61467998D01*
X169574318Y-61468001D01*
X165817155Y-61468001D01*
X165732340Y-61383186D01*
X165698855Y-61321863D01*
X165697082Y-61279319D01*
X165705682Y-61214000D01*
X165705682Y-61213998D01*
X165685044Y-61057239D01*
X165685044Y-61057238D01*
X165624536Y-60911159D01*
X165528282Y-60785718D01*
X165402841Y-60689464D01*
X165324852Y-60657160D01*
X165256762Y-60628956D01*
X165256760Y-60628955D01*
X165100001Y-60608318D01*
X165099999Y-60608318D01*
X164943239Y-60628955D01*
X164943237Y-60628956D01*
X164797160Y-60689463D01*
X164671718Y-60785718D01*
X164575463Y-60911160D01*
X164546561Y-60980937D01*
X164502720Y-61035340D01*
X164436426Y-61057405D01*
X164368726Y-61040126D01*
X164321116Y-60988988D01*
X164308000Y-60933484D01*
X164308000Y-57948516D01*
X164327685Y-57881477D01*
X164344319Y-57860835D01*
X166175639Y-56029515D01*
X168113561Y-54091592D01*
X168117522Y-54087962D01*
X168148750Y-54061760D01*
X168169119Y-54026477D01*
X168172027Y-54021914D01*
X168195395Y-53988543D01*
X168197545Y-53983931D01*
X168204754Y-53966528D01*
X168206496Y-53961741D01*
X168206496Y-53961740D01*
X168206497Y-53961739D01*
X168213573Y-53921602D01*
X168214735Y-53916360D01*
X168225287Y-53876984D01*
X168221735Y-53836397D01*
X168221500Y-53830994D01*
X168221500Y-51174015D01*
X168241185Y-51106976D01*
X168293989Y-51061221D01*
X168363147Y-51051277D01*
X168426703Y-51080302D01*
X168433166Y-51086320D01*
X168854801Y-51507955D01*
X169270659Y-51923813D01*
X169304144Y-51985136D01*
X169305917Y-52027678D01*
X169297318Y-52092997D01*
X169297318Y-52093001D01*
X169317955Y-52249760D01*
X169317956Y-52249762D01*
X169378464Y-52395841D01*
X169474718Y-52521282D01*
X169600159Y-52617536D01*
X169746238Y-52678044D01*
X169824618Y-52688363D01*
X169902999Y-52698682D01*
X169903000Y-52698682D01*
X169903001Y-52698682D01*
X169955254Y-52691802D01*
X170059762Y-52678044D01*
X170205841Y-52617536D01*
X170331282Y-52521282D01*
X170427536Y-52395841D01*
X170488044Y-52249762D01*
X170508682Y-52093000D01*
X170506326Y-52075107D01*
X170488044Y-51936239D01*
X170488044Y-51936238D01*
X170427536Y-51790159D01*
X170331282Y-51664718D01*
X170205841Y-51568464D01*
X170059762Y-51507956D01*
X170059760Y-51507955D01*
X169903001Y-51487318D01*
X169902997Y-51487318D01*
X169837678Y-51495917D01*
X169768643Y-51485151D01*
X169733813Y-51460659D01*
X168826063Y-50552909D01*
X168792578Y-50491586D01*
X168795083Y-50429236D01*
X168842573Y-50272683D01*
X168861157Y-50084000D01*
X169466843Y-50084000D01*
X169485426Y-50272681D01*
X169503772Y-50333160D01*
X169540463Y-50454115D01*
X169540464Y-50454117D01*
X169540465Y-50454119D01*
X169540466Y-50454122D01*
X169629834Y-50621318D01*
X169629838Y-50621325D01*
X169750116Y-50767883D01*
X169896674Y-50888161D01*
X169896681Y-50888165D01*
X170063877Y-50977533D01*
X170063878Y-50977533D01*
X170063885Y-50977537D01*
X170245317Y-51032573D01*
X170245316Y-51032573D01*
X170262233Y-51034239D01*
X170434000Y-51051157D01*
X170622683Y-51032573D01*
X170804115Y-50977537D01*
X170971324Y-50888162D01*
X171117883Y-50767883D01*
X171238162Y-50621324D01*
X171327537Y-50454115D01*
X171382573Y-50272683D01*
X171401157Y-50084000D01*
X172006843Y-50084000D01*
X172025426Y-50272681D01*
X172043772Y-50333160D01*
X172080463Y-50454115D01*
X172080464Y-50454117D01*
X172080465Y-50454119D01*
X172080466Y-50454122D01*
X172169834Y-50621318D01*
X172169838Y-50621325D01*
X172290116Y-50767883D01*
X172436674Y-50888161D01*
X172436677Y-50888163D01*
X172480526Y-50911600D01*
X172580954Y-50965280D01*
X172630797Y-51014240D01*
X172646500Y-51074637D01*
X172646500Y-58910994D01*
X172646264Y-58916401D01*
X172642712Y-58956983D01*
X172653257Y-58996335D01*
X172654428Y-59001618D01*
X172661503Y-59041740D01*
X172663232Y-59046491D01*
X172670468Y-59063959D01*
X172672606Y-59068544D01*
X172695972Y-59101914D01*
X172698879Y-59106478D01*
X172719247Y-59141757D01*
X172719251Y-59141761D01*
X172750463Y-59167951D01*
X172754442Y-59171596D01*
X173321685Y-59738839D01*
X173776681Y-60193835D01*
X173810166Y-60255158D01*
X173813000Y-60281516D01*
X173813000Y-66997234D01*
X173793315Y-67064273D01*
X173764488Y-67095608D01*
X173712221Y-67135715D01*
X173712219Y-67135716D01*
X173712218Y-67135718D01*
X173702290Y-67148657D01*
X173615963Y-67261160D01*
X173555456Y-67407237D01*
X173555455Y-67407239D01*
X173534818Y-67563998D01*
X173534818Y-67564001D01*
X173555455Y-67720760D01*
X173555456Y-67720762D01*
X173595732Y-67817998D01*
X173615964Y-67866841D01*
X173712218Y-67992282D01*
X173837659Y-68088536D01*
X173983738Y-68149044D01*
X174062118Y-68159362D01*
X174140499Y-68169682D01*
X174140500Y-68169682D01*
X174140501Y-68169682D01*
X174192754Y-68162802D01*
X174297262Y-68149044D01*
X174443341Y-68088536D01*
X174568782Y-67992282D01*
X174665036Y-67866841D01*
X174725544Y-67720762D01*
X174746182Y-67564000D01*
X174725544Y-67407238D01*
X174665036Y-67261159D01*
X174568782Y-67135718D01*
X174561471Y-67130108D01*
X174516512Y-67095608D01*
X174475310Y-67039180D01*
X174468000Y-66997234D01*
X174468000Y-61494515D01*
X174487685Y-61427476D01*
X174540489Y-61381721D01*
X174609647Y-61371777D01*
X174673203Y-61400802D01*
X174706561Y-61447063D01*
X174735462Y-61516838D01*
X174735463Y-61516840D01*
X174735464Y-61516841D01*
X174831718Y-61642282D01*
X174957159Y-61738536D01*
X175103238Y-61799044D01*
X175134047Y-61803100D01*
X175259999Y-61819682D01*
X175260000Y-61819682D01*
X175325319Y-61811082D01*
X175394354Y-61821847D01*
X175429186Y-61846340D01*
X176405659Y-62822813D01*
X176439144Y-62884136D01*
X176440917Y-62926678D01*
X176432318Y-62991997D01*
X176432318Y-62992001D01*
X176452955Y-63148760D01*
X176452956Y-63148762D01*
X176513464Y-63294841D01*
X176609718Y-63420282D01*
X176735159Y-63516536D01*
X176881238Y-63577044D01*
X176959619Y-63587363D01*
X177037999Y-63597682D01*
X177038000Y-63597682D01*
X177038001Y-63597682D01*
X177090254Y-63590802D01*
X177194762Y-63577044D01*
X177340841Y-63516536D01*
X177466282Y-63420282D01*
X177562536Y-63294841D01*
X177623044Y-63148762D01*
X177643682Y-62992000D01*
X177623044Y-62835238D01*
X177562536Y-62689159D01*
X177466282Y-62563718D01*
X177340841Y-62467464D01*
X177194762Y-62406956D01*
X177194760Y-62406955D01*
X177038001Y-62386318D01*
X177037997Y-62386318D01*
X176972678Y-62394917D01*
X176903643Y-62384151D01*
X176868813Y-62359659D01*
X175892340Y-61383186D01*
X175858855Y-61321863D01*
X175857082Y-61279319D01*
X175865682Y-61214000D01*
X175865682Y-61213998D01*
X175845044Y-61057239D01*
X175845044Y-61057238D01*
X175784536Y-60911159D01*
X175688282Y-60785718D01*
X175562841Y-60689464D01*
X175484852Y-60657160D01*
X175416762Y-60628956D01*
X175416760Y-60628955D01*
X175260001Y-60608318D01*
X175259999Y-60608318D01*
X175103239Y-60628955D01*
X175103237Y-60628956D01*
X174957160Y-60689463D01*
X174831718Y-60785718D01*
X174735463Y-60911160D01*
X174706561Y-60980937D01*
X174662720Y-61035340D01*
X174596426Y-61057405D01*
X174528726Y-61040126D01*
X174481116Y-60988988D01*
X174468000Y-60933484D01*
X174468000Y-60111505D01*
X174468236Y-60106098D01*
X174471787Y-60065514D01*
X174466510Y-60045825D01*
X174461239Y-60026154D01*
X174460075Y-60020905D01*
X174452997Y-59980761D01*
X174452996Y-59980759D01*
X174451259Y-59975989D01*
X174444046Y-59958572D01*
X174441893Y-59953955D01*
X174418532Y-59920593D01*
X174415623Y-59916028D01*
X174395250Y-59880740D01*
X174395246Y-59880736D01*
X174364035Y-59854546D01*
X174360046Y-59850891D01*
X173337819Y-58828664D01*
X173304334Y-58767341D01*
X173301500Y-58740983D01*
X173301500Y-53233580D01*
X173321185Y-53166541D01*
X173373989Y-53120786D01*
X173443147Y-53110842D01*
X173472951Y-53119018D01*
X173579238Y-53163044D01*
X173657619Y-53173363D01*
X173735999Y-53183682D01*
X173736000Y-53183682D01*
X173736001Y-53183682D01*
X173788253Y-53176802D01*
X173892762Y-53163044D01*
X174038841Y-53102536D01*
X174164282Y-53006282D01*
X174260536Y-52880841D01*
X174321044Y-52734762D01*
X174341682Y-52578000D01*
X174321044Y-52421238D01*
X174260536Y-52275159D01*
X174164282Y-52149718D01*
X174164279Y-52149716D01*
X174159334Y-52143271D01*
X174160902Y-52142067D01*
X174132554Y-52090152D01*
X174137538Y-52020460D01*
X174166037Y-51976116D01*
X175107239Y-51034914D01*
X175168560Y-51001431D01*
X175230912Y-51003935D01*
X175325317Y-51032573D01*
X175325316Y-51032573D01*
X175342233Y-51034239D01*
X175514000Y-51051157D01*
X175702683Y-51032573D01*
X175884115Y-50977537D01*
X176051324Y-50888162D01*
X176197883Y-50767883D01*
X176318162Y-50621324D01*
X176407537Y-50454115D01*
X176462573Y-50272683D01*
X176481157Y-50084000D01*
X177086843Y-50084000D01*
X177105426Y-50272681D01*
X177123772Y-50333160D01*
X177160463Y-50454115D01*
X177160464Y-50454117D01*
X177160465Y-50454119D01*
X177160466Y-50454122D01*
X177249834Y-50621318D01*
X177249838Y-50621325D01*
X177370116Y-50767883D01*
X177516674Y-50888161D01*
X177516681Y-50888165D01*
X177683877Y-50977533D01*
X177683878Y-50977533D01*
X177683885Y-50977537D01*
X177865317Y-51032573D01*
X177865316Y-51032573D01*
X177882233Y-51034239D01*
X178054000Y-51051157D01*
X178242683Y-51032573D01*
X178424115Y-50977537D01*
X178591324Y-50888162D01*
X178737883Y-50767883D01*
X178858162Y-50621324D01*
X178947537Y-50454115D01*
X179002573Y-50272683D01*
X179021157Y-50084000D01*
X179002573Y-49895317D01*
X178955083Y-49738764D01*
X178954460Y-49668900D01*
X178986061Y-49615092D01*
X179977335Y-48623819D01*
X180038659Y-48590334D01*
X180065017Y-48587500D01*
X182438984Y-48587500D01*
X182506023Y-48607185D01*
X182526665Y-48623819D01*
X183682681Y-49779835D01*
X183716166Y-49841158D01*
X183719000Y-49867516D01*
X183719000Y-63798734D01*
X183699315Y-63865773D01*
X183670488Y-63897108D01*
X183618221Y-63937215D01*
X183618219Y-63937216D01*
X183618218Y-63937218D01*
X183546649Y-64030489D01*
X183521963Y-64062660D01*
X183461456Y-64208737D01*
X183461455Y-64208739D01*
X183440818Y-64365498D01*
X183440818Y-64365501D01*
X183461455Y-64522260D01*
X183461456Y-64522262D01*
X183521964Y-64668341D01*
X183618218Y-64793782D01*
X183743659Y-64890036D01*
X183889738Y-64950544D01*
X183968119Y-64960863D01*
X184046499Y-64971182D01*
X184046500Y-64971182D01*
X184046501Y-64971182D01*
X184098753Y-64964302D01*
X184203262Y-64950544D01*
X184349341Y-64890036D01*
X184474782Y-64793782D01*
X184571036Y-64668341D01*
X184631544Y-64522262D01*
X184652182Y-64365500D01*
X184641538Y-64284654D01*
X184631544Y-64208739D01*
X184631544Y-64208738D01*
X184571036Y-64062659D01*
X184474782Y-63937218D01*
X184472199Y-63935236D01*
X184422512Y-63897108D01*
X184381310Y-63840680D01*
X184374000Y-63798734D01*
X184374000Y-50084000D01*
X186541338Y-50084000D01*
X186559921Y-50272681D01*
X186578267Y-50333160D01*
X186614958Y-50454115D01*
X186614959Y-50454117D01*
X186614960Y-50454119D01*
X186614961Y-50454122D01*
X186704329Y-50621318D01*
X186704333Y-50621325D01*
X186824611Y-50767883D01*
X186971169Y-50888161D01*
X186971176Y-50888165D01*
X187138372Y-50977533D01*
X187138373Y-50977533D01*
X187138380Y-50977537D01*
X187319812Y-51032573D01*
X187319811Y-51032573D01*
X187336728Y-51034239D01*
X187508495Y-51051157D01*
X187697178Y-51032573D01*
X187878610Y-50977537D01*
X188045819Y-50888162D01*
X188192378Y-50767883D01*
X188312657Y-50621324D01*
X188402032Y-50454115D01*
X188457068Y-50272683D01*
X188475652Y-50084000D01*
X188457068Y-49895317D01*
X188402032Y-49713885D01*
X188396759Y-49704020D01*
X188312660Y-49546681D01*
X188312656Y-49546674D01*
X188192378Y-49400116D01*
X188045820Y-49279838D01*
X188045813Y-49279834D01*
X187878617Y-49190466D01*
X187878614Y-49190465D01*
X187878613Y-49190464D01*
X187878610Y-49190463D01*
X187697178Y-49135427D01*
X187697176Y-49135426D01*
X187697178Y-49135426D01*
X187508495Y-49116843D01*
X187319813Y-49135426D01*
X187212689Y-49167921D01*
X187138380Y-49190463D01*
X187138377Y-49190464D01*
X187138375Y-49190465D01*
X187138372Y-49190466D01*
X186971176Y-49279834D01*
X186971169Y-49279838D01*
X186824611Y-49400116D01*
X186704333Y-49546674D01*
X186704329Y-49546681D01*
X186614961Y-49713877D01*
X186614960Y-49713880D01*
X186614959Y-49713882D01*
X186614958Y-49713885D01*
X186594953Y-49779835D01*
X186559921Y-49895318D01*
X186541338Y-50084000D01*
X184374000Y-50084000D01*
X184374000Y-49697495D01*
X184374236Y-49692088D01*
X184377786Y-49651513D01*
X184367241Y-49612162D01*
X184366074Y-49606902D01*
X184358997Y-49566761D01*
X184358995Y-49566757D01*
X184357256Y-49561980D01*
X184350046Y-49544572D01*
X184347893Y-49539955D01*
X184324532Y-49506593D01*
X184321623Y-49502028D01*
X184301250Y-49466740D01*
X184301246Y-49466736D01*
X184270035Y-49440546D01*
X184266046Y-49436891D01*
X183945998Y-49116843D01*
X182869596Y-48040442D01*
X182865951Y-48036463D01*
X182839761Y-48005251D01*
X182839757Y-48005247D01*
X182804478Y-47984879D01*
X182799914Y-47981972D01*
X182766544Y-47958606D01*
X182761959Y-47956468D01*
X182744491Y-47949232D01*
X182739740Y-47947503D01*
X182699618Y-47940428D01*
X182694335Y-47939257D01*
X182654981Y-47928712D01*
X182618891Y-47931871D01*
X182614398Y-47932264D01*
X182608995Y-47932500D01*
X179895009Y-47932500D01*
X179889606Y-47932264D01*
X179881797Y-47931580D01*
X179849015Y-47928712D01*
X179809658Y-47939258D01*
X179804375Y-47940429D01*
X179764263Y-47947501D01*
X179759535Y-47949222D01*
X179741996Y-47956487D01*
X179737456Y-47958604D01*
X179704086Y-47981971D01*
X179699523Y-47984878D01*
X179664240Y-48005249D01*
X179664239Y-48005250D01*
X179638053Y-48036457D01*
X179634398Y-48040446D01*
X178522908Y-49151935D01*
X178461585Y-49185420D01*
X178399232Y-49182915D01*
X178297103Y-49151935D01*
X178242683Y-49135427D01*
X178242681Y-49135426D01*
X178242683Y-49135426D01*
X178054000Y-49116843D01*
X177865318Y-49135426D01*
X177758194Y-49167921D01*
X177683885Y-49190463D01*
X177683882Y-49190464D01*
X177683880Y-49190465D01*
X177683877Y-49190466D01*
X177516681Y-49279834D01*
X177516674Y-49279838D01*
X177370116Y-49400116D01*
X177249838Y-49546674D01*
X177249834Y-49546681D01*
X177160466Y-49713877D01*
X177160465Y-49713880D01*
X177160464Y-49713882D01*
X177160463Y-49713885D01*
X177140458Y-49779835D01*
X177105426Y-49895318D01*
X177086843Y-50084000D01*
X176481157Y-50084000D01*
X176462573Y-49895317D01*
X176407537Y-49713885D01*
X176402264Y-49704020D01*
X176318165Y-49546681D01*
X176318161Y-49546674D01*
X176197883Y-49400116D01*
X176051325Y-49279838D01*
X176051318Y-49279834D01*
X175884122Y-49190466D01*
X175884119Y-49190465D01*
X175884118Y-49190464D01*
X175884115Y-49190463D01*
X175702683Y-49135427D01*
X175702681Y-49135426D01*
X175702683Y-49135426D01*
X175514000Y-49116843D01*
X175325318Y-49135426D01*
X175218194Y-49167921D01*
X175143885Y-49190463D01*
X175143882Y-49190464D01*
X175143880Y-49190465D01*
X175143877Y-49190466D01*
X174976681Y-49279834D01*
X174976674Y-49279838D01*
X174830116Y-49400116D01*
X174709838Y-49546674D01*
X174709834Y-49546681D01*
X174620466Y-49713877D01*
X174620465Y-49713880D01*
X174620464Y-49713882D01*
X174620463Y-49713885D01*
X174600458Y-49779835D01*
X174565426Y-49895318D01*
X174546843Y-50084000D01*
X174565426Y-50272681D01*
X174592944Y-50363398D01*
X174620463Y-50454115D01*
X174626317Y-50465067D01*
X174640560Y-50533468D01*
X174615562Y-50598713D01*
X174604641Y-50611203D01*
X173516451Y-51699394D01*
X173512461Y-51703050D01*
X173505205Y-51709138D01*
X173441197Y-51737150D01*
X173372205Y-51726111D01*
X173320134Y-51679523D01*
X173301500Y-51614148D01*
X173301500Y-51074637D01*
X173321185Y-51007598D01*
X173367045Y-50965280D01*
X173511324Y-50888162D01*
X173657883Y-50767883D01*
X173778162Y-50621324D01*
X173867537Y-50454115D01*
X173922573Y-50272683D01*
X173941157Y-50084000D01*
X173922573Y-49895317D01*
X173867537Y-49713885D01*
X173862264Y-49704020D01*
X173778165Y-49546681D01*
X173778161Y-49546674D01*
X173657883Y-49400116D01*
X173511325Y-49279838D01*
X173511318Y-49279834D01*
X173344122Y-49190466D01*
X173344119Y-49190465D01*
X173344118Y-49190464D01*
X173344115Y-49190463D01*
X173162683Y-49135427D01*
X173162681Y-49135426D01*
X173162683Y-49135426D01*
X172974000Y-49116843D01*
X172785318Y-49135426D01*
X172678194Y-49167921D01*
X172603885Y-49190463D01*
X172603882Y-49190464D01*
X172603880Y-49190465D01*
X172603877Y-49190466D01*
X172436681Y-49279834D01*
X172436674Y-49279838D01*
X172290116Y-49400116D01*
X172169838Y-49546674D01*
X172169834Y-49546681D01*
X172080466Y-49713877D01*
X172080465Y-49713880D01*
X172080464Y-49713882D01*
X172080463Y-49713885D01*
X172060458Y-49779835D01*
X172025426Y-49895318D01*
X172006843Y-50084000D01*
X171401157Y-50084000D01*
X171382573Y-49895317D01*
X171327537Y-49713885D01*
X171322264Y-49704020D01*
X171238165Y-49546681D01*
X171238161Y-49546674D01*
X171117883Y-49400116D01*
X170971325Y-49279838D01*
X170971318Y-49279834D01*
X170804122Y-49190466D01*
X170804119Y-49190465D01*
X170804118Y-49190464D01*
X170804115Y-49190463D01*
X170622683Y-49135427D01*
X170622681Y-49135426D01*
X170622683Y-49135426D01*
X170434000Y-49116843D01*
X170245318Y-49135426D01*
X170138194Y-49167921D01*
X170063885Y-49190463D01*
X170063882Y-49190464D01*
X170063880Y-49190465D01*
X170063877Y-49190466D01*
X169896681Y-49279834D01*
X169896674Y-49279838D01*
X169750116Y-49400116D01*
X169629838Y-49546674D01*
X169629834Y-49546681D01*
X169540466Y-49713877D01*
X169540465Y-49713880D01*
X169540464Y-49713882D01*
X169540463Y-49713885D01*
X169520458Y-49779835D01*
X169485426Y-49895318D01*
X169466843Y-50084000D01*
X168861157Y-50084000D01*
X168842573Y-49895317D01*
X168787537Y-49713885D01*
X168782264Y-49704020D01*
X168698165Y-49546681D01*
X168698161Y-49546674D01*
X168577883Y-49400116D01*
X168431325Y-49279838D01*
X168431318Y-49279834D01*
X168264122Y-49190466D01*
X168264119Y-49190465D01*
X168264118Y-49190464D01*
X168264115Y-49190463D01*
X168082683Y-49135427D01*
X168082681Y-49135426D01*
X168082683Y-49135426D01*
X167894000Y-49116843D01*
X167705318Y-49135426D01*
X167598194Y-49167921D01*
X167523885Y-49190463D01*
X167523882Y-49190464D01*
X167523880Y-49190465D01*
X167523877Y-49190466D01*
X167356681Y-49279834D01*
X167356674Y-49279838D01*
X167210116Y-49400116D01*
X167089838Y-49546674D01*
X167089834Y-49546681D01*
X167000466Y-49713877D01*
X167000465Y-49713880D01*
X167000464Y-49713882D01*
X167000463Y-49713885D01*
X166980458Y-49779835D01*
X166945426Y-49895318D01*
X166926843Y-50084000D01*
X166945426Y-50272681D01*
X166963772Y-50333160D01*
X167000463Y-50454115D01*
X167000464Y-50454117D01*
X167000465Y-50454119D01*
X167000466Y-50454122D01*
X167089834Y-50621318D01*
X167089838Y-50621325D01*
X167210116Y-50767883D01*
X167267163Y-50814700D01*
X167356676Y-50888162D01*
X167500954Y-50965280D01*
X167550796Y-51014241D01*
X167566499Y-51074637D01*
X167566499Y-53660982D01*
X167546814Y-53728021D01*
X167530180Y-53748663D01*
X163760951Y-57517893D01*
X163756962Y-57521549D01*
X163725750Y-57547739D01*
X163725748Y-57547741D01*
X163705376Y-57583026D01*
X163702471Y-57587587D01*
X163679104Y-57620959D01*
X163676973Y-57625528D01*
X163669725Y-57643028D01*
X163668002Y-57647764D01*
X163660927Y-57687883D01*
X163659756Y-57693162D01*
X163649212Y-57732516D01*
X163652764Y-57773098D01*
X163653000Y-57778505D01*
X163653000Y-66997234D01*
X163633315Y-67064273D01*
X163604488Y-67095608D01*
X163552221Y-67135715D01*
X163552219Y-67135716D01*
X163552218Y-67135718D01*
X163542290Y-67148657D01*
X163455963Y-67261160D01*
X163395456Y-67407237D01*
X163395455Y-67407239D01*
X163374818Y-67563998D01*
X163374818Y-67564001D01*
X159839500Y-67564001D01*
X159839500Y-62034764D01*
X159859185Y-61967725D01*
X159888014Y-61936388D01*
X159940282Y-61896282D01*
X160036536Y-61770841D01*
X160097044Y-61624762D01*
X160117682Y-61468000D01*
X160097044Y-61311238D01*
X160036536Y-61165159D01*
X159940282Y-61039718D01*
X159814841Y-60943464D01*
X159790747Y-60933484D01*
X159668762Y-60882956D01*
X159668760Y-60882955D01*
X159512001Y-60862318D01*
X159511999Y-60862318D01*
X159355239Y-60882955D01*
X159355237Y-60882956D01*
X159209160Y-60943463D01*
X159083718Y-61039718D01*
X158987463Y-61165160D01*
X158926956Y-61311237D01*
X158926955Y-61311239D01*
X158906318Y-61467998D01*
X158906318Y-61468001D01*
X158926955Y-61624760D01*
X158926956Y-61624762D01*
X158966131Y-61719340D01*
X158987464Y-61770841D01*
X159083718Y-61896282D01*
X159135984Y-61936387D01*
X159135986Y-61936388D01*
X159177189Y-61992816D01*
X159184500Y-62034764D01*
X159184500Y-68499750D01*
X159164815Y-68566789D01*
X159112011Y-68612544D01*
X159042853Y-68622488D01*
X158985014Y-68598126D01*
X158939842Y-68563464D01*
X158793762Y-68502956D01*
X158793760Y-68502955D01*
X158637001Y-68482318D01*
X158636999Y-68482318D01*
X158480239Y-68502955D01*
X158480237Y-68502956D01*
X158334160Y-68563463D01*
X158208718Y-68659718D01*
X158112463Y-68785160D01*
X158051956Y-68931237D01*
X158051955Y-68931239D01*
X158031318Y-69087998D01*
X158031318Y-69088001D01*
X158051955Y-69244760D01*
X158051956Y-69244762D01*
X158112464Y-69390841D01*
X158208718Y-69516282D01*
X158208719Y-69516283D01*
X158260986Y-69556388D01*
X158302189Y-69612816D01*
X158309500Y-69654764D01*
X158309500Y-72027919D01*
X158289815Y-72094958D01*
X158237011Y-72140713D01*
X158235936Y-72141198D01*
X158207396Y-72153904D01*
X158062079Y-72259483D01*
X158062072Y-72259489D01*
X157941886Y-72392972D01*
X157852074Y-72548530D01*
X157796569Y-72719359D01*
X157777793Y-72897999D01*
X156956207Y-72897999D01*
X156937431Y-72719361D01*
X156881925Y-72548529D01*
X156792113Y-72392971D01*
X156671922Y-72259485D01*
X156526604Y-72153905D01*
X156362510Y-72080846D01*
X156362508Y-72080845D01*
X156186812Y-72043500D01*
X156007188Y-72043500D01*
X155831490Y-72080845D01*
X155831485Y-72080847D01*
X155667397Y-72153905D01*
X155667392Y-72153907D01*
X155522079Y-72259483D01*
X155522072Y-72259489D01*
X155401886Y-72392972D01*
X155312074Y-72548530D01*
X155256569Y-72719359D01*
X155237793Y-72897999D01*
X154416207Y-72897999D01*
X154397431Y-72719361D01*
X154341925Y-72548529D01*
X154252113Y-72392971D01*
X154131922Y-72259485D01*
X153986604Y-72153905D01*
X153822510Y-72080846D01*
X153822508Y-72080845D01*
X153646812Y-72043500D01*
X153467188Y-72043500D01*
X153285134Y-72082197D01*
X153284550Y-72079451D01*
X153226959Y-72081016D01*
X153170970Y-72048815D01*
X152509819Y-71387664D01*
X152476334Y-71326341D01*
X152473500Y-71299983D01*
X152473500Y-67818001D01*
X152810318Y-67818001D01*
X152830955Y-67974760D01*
X152830956Y-67974762D01*
X152891464Y-68120841D01*
X152987718Y-68246282D01*
X153113159Y-68342536D01*
X153259238Y-68403044D01*
X153337619Y-68413363D01*
X153415999Y-68423682D01*
X153416000Y-68423682D01*
X153416001Y-68423682D01*
X153468253Y-68416802D01*
X153572762Y-68403044D01*
X153718841Y-68342536D01*
X153844282Y-68246282D01*
X153940536Y-68120841D01*
X154001044Y-67974762D01*
X154021682Y-67818000D01*
X154001044Y-67661238D01*
X153940536Y-67515159D01*
X153844282Y-67389718D01*
X153842216Y-67388132D01*
X153792012Y-67349608D01*
X153750810Y-67293180D01*
X153743500Y-67251234D01*
X153743500Y-61664507D01*
X153763185Y-61597468D01*
X153815989Y-61551713D01*
X153885147Y-61541769D01*
X153942984Y-61566129D01*
X154002159Y-61611536D01*
X154148238Y-61672044D01*
X154179047Y-61676100D01*
X154304999Y-61692682D01*
X154305000Y-61692682D01*
X154370319Y-61684082D01*
X154439354Y-61694847D01*
X154474186Y-61719340D01*
X155577659Y-62822813D01*
X155611144Y-62884136D01*
X155612917Y-62926678D01*
X155604318Y-62991997D01*
X155604318Y-62992001D01*
X155624955Y-63148760D01*
X155624956Y-63148762D01*
X155685464Y-63294841D01*
X155781718Y-63420282D01*
X155907159Y-63516536D01*
X156053238Y-63577044D01*
X156131619Y-63587363D01*
X156209999Y-63597682D01*
X156210000Y-63597682D01*
X156210001Y-63597682D01*
X156262254Y-63590802D01*
X156366762Y-63577044D01*
X156512841Y-63516536D01*
X156638282Y-63420282D01*
X156734536Y-63294841D01*
X156795044Y-63148762D01*
X156815682Y-62992000D01*
X156795044Y-62835238D01*
X156734536Y-62689159D01*
X156638282Y-62563718D01*
X156512841Y-62467464D01*
X156366762Y-62406956D01*
X156366760Y-62406955D01*
X156210001Y-62386318D01*
X156209997Y-62386318D01*
X156144678Y-62394917D01*
X156075643Y-62384151D01*
X156040813Y-62359659D01*
X154937340Y-61256186D01*
X154903855Y-61194863D01*
X154902082Y-61152319D01*
X154906764Y-61116762D01*
X154910682Y-61087000D01*
X154890044Y-60930238D01*
X154829536Y-60784159D01*
X154733282Y-60658718D01*
X154607841Y-60562464D01*
X154461762Y-60501956D01*
X154461760Y-60501955D01*
X154305001Y-60481318D01*
X154304999Y-60481318D01*
X154148239Y-60501955D01*
X154148237Y-60501956D01*
X154002157Y-60562464D01*
X153942985Y-60607869D01*
X153877816Y-60633063D01*
X153809371Y-60619024D01*
X153759381Y-60570210D01*
X153743499Y-60509495D01*
X153743499Y-59369014D01*
X153763184Y-59301976D01*
X153779813Y-59281339D01*
X157325335Y-55735819D01*
X157386659Y-55702334D01*
X157413017Y-55699500D01*
X160256995Y-55699500D01*
X160262398Y-55699735D01*
X160302984Y-55703287D01*
X160342368Y-55692732D01*
X160347586Y-55691576D01*
X160387739Y-55684497D01*
X160387744Y-55684493D01*
X160392531Y-55682752D01*
X160409919Y-55675549D01*
X160414537Y-55673395D01*
X160414543Y-55673394D01*
X160447937Y-55650009D01*
X160452451Y-55647134D01*
X160487760Y-55626750D01*
X160513966Y-55595517D01*
X160517597Y-55591555D01*
X162390814Y-53718338D01*
X162452135Y-53684855D01*
X162494679Y-53683082D01*
X162559999Y-53691682D01*
X162560000Y-53691682D01*
X162560001Y-53691682D01*
X162625324Y-53683082D01*
X162716762Y-53671044D01*
X162862841Y-53610536D01*
X162988282Y-53514282D01*
X163084536Y-53388841D01*
X163145044Y-53242762D01*
X163165682Y-53086000D01*
X163145044Y-52929238D01*
X163084536Y-52783159D01*
X162988282Y-52657718D01*
X162986216Y-52656132D01*
X162936012Y-52617608D01*
X162894810Y-52561180D01*
X162887500Y-52519234D01*
X162887500Y-51156304D01*
X162907185Y-51089265D01*
X162959989Y-51043510D01*
X162999350Y-51032901D01*
X163002683Y-51032573D01*
X163184115Y-50977537D01*
X163351324Y-50888162D01*
X163497883Y-50767883D01*
X163618162Y-50621324D01*
X163707537Y-50454115D01*
X163762573Y-50272683D01*
X163781157Y-50084000D01*
X164386843Y-50084000D01*
X164405426Y-50272681D01*
X164423772Y-50333160D01*
X164460463Y-50454115D01*
X164460464Y-50454117D01*
X164460465Y-50454119D01*
X164460466Y-50454122D01*
X164549834Y-50621318D01*
X164549838Y-50621325D01*
X164670116Y-50767883D01*
X164816674Y-50888161D01*
X164816681Y-50888165D01*
X164983877Y-50977533D01*
X164983878Y-50977533D01*
X164983885Y-50977537D01*
X165165317Y-51032573D01*
X165165316Y-51032573D01*
X165182233Y-51034239D01*
X165354000Y-51051157D01*
X165542683Y-51032573D01*
X165724115Y-50977537D01*
X165891324Y-50888162D01*
X166037883Y-50767883D01*
X166158162Y-50621324D01*
X166247537Y-50454115D01*
X166302573Y-50272683D01*
X166321157Y-50084000D01*
X166302573Y-49895317D01*
X166247537Y-49713885D01*
X166242264Y-49704020D01*
X166158165Y-49546681D01*
X166158161Y-49546674D01*
X166037883Y-49400116D01*
X165891325Y-49279838D01*
X165891318Y-49279834D01*
X165724122Y-49190466D01*
X165724119Y-49190465D01*
X165724118Y-49190464D01*
X165724115Y-49190463D01*
X165542683Y-49135427D01*
X165542681Y-49135426D01*
X165542683Y-49135426D01*
X165354000Y-49116843D01*
X165165318Y-49135426D01*
X165058194Y-49167921D01*
X164983885Y-49190463D01*
X164983882Y-49190464D01*
X164983880Y-49190465D01*
X164983877Y-49190466D01*
X164816681Y-49279834D01*
X164816674Y-49279838D01*
X164670116Y-49400116D01*
X164549838Y-49546674D01*
X164549834Y-49546681D01*
X164460466Y-49713877D01*
X164460465Y-49713880D01*
X164460464Y-49713882D01*
X164460463Y-49713885D01*
X164440458Y-49779835D01*
X164405426Y-49895318D01*
X164386843Y-50084000D01*
X163781157Y-50084000D01*
X163762573Y-49895317D01*
X163707537Y-49713885D01*
X163702264Y-49704020D01*
X163618165Y-49546681D01*
X163618161Y-49546674D01*
X163497883Y-49400116D01*
X163351325Y-49279838D01*
X163351318Y-49279834D01*
X163184122Y-49190466D01*
X163184119Y-49190465D01*
X163184118Y-49190464D01*
X163184115Y-49190463D01*
X163002683Y-49135427D01*
X163002681Y-49135426D01*
X163002683Y-49135426D01*
X162814000Y-49116843D01*
X162625318Y-49135426D01*
X162518194Y-49167921D01*
X162443885Y-49190463D01*
X162443882Y-49190464D01*
X162443880Y-49190465D01*
X162443877Y-49190466D01*
X162276681Y-49279834D01*
X162276674Y-49279838D01*
X162130116Y-49400116D01*
X162009838Y-49546674D01*
X162009834Y-49546681D01*
X161920466Y-49713877D01*
X161920465Y-49713880D01*
X161920464Y-49713882D01*
X161920463Y-49713885D01*
X161900458Y-49779835D01*
X161865426Y-49895318D01*
X161846843Y-50084000D01*
X161865426Y-50272681D01*
X161883772Y-50333160D01*
X161920463Y-50454115D01*
X161920464Y-50454117D01*
X161920465Y-50454119D01*
X161920466Y-50454122D01*
X162009834Y-50621318D01*
X162009838Y-50621325D01*
X162108550Y-50741604D01*
X162130117Y-50767883D01*
X162187164Y-50814701D01*
X162226499Y-50872446D01*
X162232500Y-50910554D01*
X162232500Y-52519234D01*
X162212815Y-52586273D01*
X162183988Y-52617608D01*
X162131721Y-52657715D01*
X162131719Y-52657716D01*
X162131718Y-52657718D01*
X162072941Y-52734318D01*
X162035463Y-52783160D01*
X161974956Y-52929237D01*
X161974955Y-52929239D01*
X161954318Y-53085998D01*
X161954318Y-53086001D01*
X161962917Y-53151319D01*
X161952151Y-53220354D01*
X161927659Y-53255185D01*
X160174665Y-55008181D01*
X160113342Y-55041666D01*
X160086984Y-55044500D01*
X157243005Y-55044500D01*
X157237601Y-55044264D01*
X157231639Y-55043742D01*
X157197015Y-55040712D01*
X157157658Y-55051258D01*
X157152375Y-55052429D01*
X157112263Y-55059501D01*
X157107535Y-55061222D01*
X157089996Y-55068487D01*
X157085456Y-55070604D01*
X157052086Y-55093971D01*
X157047523Y-55096878D01*
X157012240Y-55117249D01*
X157012239Y-55117250D01*
X156986053Y-55148457D01*
X156982398Y-55152446D01*
X153196451Y-58938393D01*
X153192462Y-58942049D01*
X153161250Y-58968239D01*
X153161248Y-58968241D01*
X153140876Y-59003526D01*
X153137971Y-59008087D01*
X153114604Y-59041459D01*
X153112473Y-59046028D01*
X153105225Y-59063528D01*
X153103502Y-59068264D01*
X153096427Y-59108383D01*
X153095256Y-59113662D01*
X153084712Y-59153016D01*
X153088264Y-59193598D01*
X153088500Y-59199005D01*
X153088500Y-67251234D01*
X153068815Y-67318273D01*
X153039988Y-67349608D01*
X152987721Y-67389715D01*
X152987719Y-67389716D01*
X152987718Y-67389718D01*
X152974274Y-67407239D01*
X152891463Y-67515160D01*
X152830956Y-67661237D01*
X152830955Y-67661239D01*
X152810318Y-67817998D01*
X152810318Y-67818001D01*
X152473500Y-67818001D01*
X152473500Y-51287016D01*
X152493185Y-51219977D01*
X152509819Y-51199335D01*
X152597556Y-51111598D01*
X152693092Y-51016061D01*
X152754413Y-50982578D01*
X152816764Y-50985083D01*
X152970314Y-51031662D01*
X152973314Y-51032572D01*
X152973316Y-51032573D01*
X152990233Y-51034239D01*
X153162000Y-51051157D01*
X153350683Y-51032573D01*
X153532115Y-50977537D01*
X153699324Y-50888162D01*
X153845883Y-50767883D01*
X153966162Y-50621324D01*
X154055537Y-50454115D01*
X154110573Y-50272683D01*
X154129157Y-50084000D01*
X159306843Y-50084000D01*
X159325426Y-50272681D01*
X159343772Y-50333160D01*
X159380463Y-50454115D01*
X159380464Y-50454117D01*
X159380465Y-50454119D01*
X159380466Y-50454122D01*
X159469834Y-50621318D01*
X159469838Y-50621325D01*
X159590116Y-50767883D01*
X159736674Y-50888161D01*
X159736681Y-50888165D01*
X159903877Y-50977533D01*
X159903878Y-50977533D01*
X159903885Y-50977537D01*
X160085317Y-51032573D01*
X160085316Y-51032573D01*
X160102233Y-51034239D01*
X160274000Y-51051157D01*
X160462683Y-51032573D01*
X160644115Y-50977537D01*
X160811324Y-50888162D01*
X160957883Y-50767883D01*
X161078162Y-50621324D01*
X161167537Y-50454115D01*
X161222573Y-50272683D01*
X161241157Y-50084000D01*
X161222573Y-49895317D01*
X161167537Y-49713885D01*
X161162264Y-49704020D01*
X161078165Y-49546681D01*
X161078161Y-49546674D01*
X160957883Y-49400116D01*
X160811325Y-49279838D01*
X160811318Y-49279834D01*
X160644122Y-49190466D01*
X160644119Y-49190465D01*
X160644118Y-49190464D01*
X160644115Y-49190463D01*
X160462683Y-49135427D01*
X160462681Y-49135426D01*
X160462683Y-49135426D01*
X160274000Y-49116843D01*
X160085318Y-49135426D01*
X159978194Y-49167921D01*
X159903885Y-49190463D01*
X159903882Y-49190464D01*
X159903880Y-49190465D01*
X159903877Y-49190466D01*
X159736681Y-49279834D01*
X159736674Y-49279838D01*
X159590116Y-49400116D01*
X159469838Y-49546674D01*
X159469834Y-49546681D01*
X159380466Y-49713877D01*
X159380465Y-49713880D01*
X159380464Y-49713882D01*
X159380463Y-49713885D01*
X159360458Y-49779835D01*
X159325426Y-49895318D01*
X159306843Y-50084000D01*
X154129157Y-50084000D01*
X154110573Y-49895317D01*
X154055537Y-49713885D01*
X154050264Y-49704020D01*
X153966165Y-49546681D01*
X153966161Y-49546674D01*
X153845883Y-49400116D01*
X153699325Y-49279838D01*
X153699318Y-49279834D01*
X153532122Y-49190466D01*
X153532119Y-49190465D01*
X153532118Y-49190464D01*
X153532115Y-49190463D01*
X153350683Y-49135427D01*
X153350681Y-49135426D01*
X153350683Y-49135426D01*
X153162000Y-49116843D01*
X152973318Y-49135426D01*
X152866194Y-49167921D01*
X152791885Y-49190463D01*
X152791882Y-49190464D01*
X152791880Y-49190465D01*
X152791877Y-49190466D01*
X152624681Y-49279834D01*
X152624674Y-49279838D01*
X152478116Y-49400116D01*
X152357838Y-49546674D01*
X152357834Y-49546681D01*
X152268466Y-49713877D01*
X152268465Y-49713880D01*
X152268464Y-49713882D01*
X152268463Y-49713885D01*
X152248458Y-49779835D01*
X152213426Y-49895318D01*
X152194843Y-50084000D01*
X152213426Y-50272681D01*
X152260915Y-50429232D01*
X152261538Y-50499099D01*
X152229935Y-50552908D01*
X151926451Y-50856393D01*
X151922462Y-50860049D01*
X151891250Y-50886239D01*
X151891248Y-50886241D01*
X151870876Y-50921526D01*
X151867971Y-50926087D01*
X151844604Y-50959459D01*
X151842473Y-50964028D01*
X151835225Y-50981528D01*
X151833502Y-50986264D01*
X151826427Y-51026383D01*
X151825256Y-51031662D01*
X151814712Y-51071016D01*
X151818264Y-51111598D01*
X151818500Y-51117005D01*
X151818500Y-71469994D01*
X151818264Y-71475401D01*
X151814712Y-71515983D01*
X151344500Y-71515983D01*
X151344500Y-64166004D01*
X151344736Y-64160597D01*
X151348287Y-64120016D01*
X151337734Y-64080637D01*
X151336575Y-64075405D01*
X151329497Y-64035261D01*
X151329496Y-64035259D01*
X151327759Y-64030489D01*
X151320546Y-64013073D01*
X151318393Y-64008455D01*
X151295027Y-63975085D01*
X151292120Y-63970521D01*
X151271752Y-63935243D01*
X151271751Y-63935242D01*
X151271750Y-63935240D01*
X151271747Y-63935238D01*
X151271746Y-63935236D01*
X151240535Y-63909046D01*
X151236546Y-63905391D01*
X150625994Y-63294839D01*
X149730339Y-62399185D01*
X149696855Y-62337863D01*
X149695082Y-62295319D01*
X149703682Y-62230000D01*
X149703682Y-62229998D01*
X149683044Y-62073239D01*
X149683044Y-62073238D01*
X149622536Y-61927159D01*
X149526282Y-61801718D01*
X149400841Y-61705464D01*
X149375209Y-61694847D01*
X149254762Y-61644956D01*
X149254760Y-61644955D01*
X149098001Y-61624318D01*
X149097999Y-61624318D01*
X148941239Y-61644955D01*
X148941237Y-61644956D01*
X148795160Y-61705463D01*
X148669718Y-61801718D01*
X148573463Y-61927160D01*
X148512956Y-62073237D01*
X148512955Y-62073239D01*
X148492318Y-62229998D01*
X148492318Y-62230001D01*
X145869500Y-62230001D01*
X145869500Y-51074637D01*
X145889185Y-51007598D01*
X145935045Y-50965280D01*
X146079324Y-50888162D01*
X146225883Y-50767883D01*
X146346162Y-50621324D01*
X146435537Y-50454115D01*
X146490573Y-50272683D01*
X146509157Y-50084000D01*
X147114843Y-50084000D01*
X147133426Y-50272681D01*
X147151772Y-50333160D01*
X147188463Y-50454115D01*
X147188464Y-50454117D01*
X147188465Y-50454119D01*
X147188466Y-50454122D01*
X147277834Y-50621318D01*
X147277838Y-50621325D01*
X147398116Y-50767883D01*
X147544674Y-50888161D01*
X147544681Y-50888165D01*
X147711877Y-50977533D01*
X147711878Y-50977533D01*
X147711885Y-50977537D01*
X147893317Y-51032573D01*
X147893316Y-51032573D01*
X147910233Y-51034239D01*
X148082000Y-51051157D01*
X148270683Y-51032573D01*
X148452115Y-50977537D01*
X148619324Y-50888162D01*
X148765883Y-50767883D01*
X148886162Y-50621324D01*
X148975537Y-50454115D01*
X149030573Y-50272683D01*
X149049157Y-50084000D01*
X149030573Y-49895317D01*
X148975537Y-49713885D01*
X148970264Y-49704020D01*
X148886165Y-49546681D01*
X148886161Y-49546674D01*
X148765883Y-49400116D01*
X148619325Y-49279838D01*
X148619318Y-49279834D01*
X148452122Y-49190466D01*
X148452119Y-49190465D01*
X148452118Y-49190464D01*
X148452115Y-49190463D01*
X148270683Y-49135427D01*
X148270681Y-49135426D01*
X148270683Y-49135426D01*
X148082000Y-49116843D01*
X147893318Y-49135426D01*
X147786194Y-49167921D01*
X147711885Y-49190463D01*
X147711882Y-49190464D01*
X147711880Y-49190465D01*
X147711877Y-49190466D01*
X147544681Y-49279834D01*
X147544674Y-49279838D01*
X147398116Y-49400116D01*
X147277838Y-49546674D01*
X147277834Y-49546681D01*
X147188466Y-49713877D01*
X147188465Y-49713880D01*
X147188464Y-49713882D01*
X147188463Y-49713885D01*
X147168458Y-49779835D01*
X147133426Y-49895318D01*
X147114843Y-50084000D01*
X146509157Y-50084000D01*
X146490573Y-49895317D01*
X146435537Y-49713885D01*
X146430264Y-49704020D01*
X146346165Y-49546681D01*
X146346161Y-49546674D01*
X146225883Y-49400116D01*
X146079325Y-49279838D01*
X146079318Y-49279834D01*
X145912122Y-49190466D01*
X145912119Y-49190465D01*
X145912118Y-49190464D01*
X145912115Y-49190463D01*
X145730683Y-49135427D01*
X145730681Y-49135426D01*
X145730683Y-49135426D01*
X145542000Y-49116843D01*
X145353318Y-49135426D01*
X145246194Y-49167921D01*
X145171885Y-49190463D01*
X145171882Y-49190464D01*
X145171880Y-49190465D01*
X145171877Y-49190466D01*
X145004681Y-49279834D01*
X145004674Y-49279838D01*
X144858116Y-49400116D01*
X144737838Y-49546674D01*
X144737834Y-49546681D01*
X144648466Y-49713877D01*
X144648465Y-49713880D01*
X144648464Y-49713882D01*
X144648463Y-49713885D01*
X144628458Y-49779835D01*
X144593426Y-49895318D01*
X144574843Y-50084000D01*
X141429157Y-50084000D01*
X141410573Y-49895317D01*
X141355537Y-49713885D01*
X141350264Y-49704020D01*
X141266165Y-49546681D01*
X141266161Y-49546674D01*
X141145883Y-49400116D01*
X140999325Y-49279838D01*
X140999318Y-49279834D01*
X140832122Y-49190466D01*
X140832119Y-49190465D01*
X140832118Y-49190464D01*
X140832115Y-49190463D01*
X140650683Y-49135427D01*
X140650681Y-49135426D01*
X140650683Y-49135426D01*
X140462000Y-49116843D01*
X140273318Y-49135426D01*
X140166194Y-49167921D01*
X140091885Y-49190463D01*
X140091882Y-49190464D01*
X140091880Y-49190465D01*
X140091877Y-49190466D01*
X139924681Y-49279834D01*
X139924674Y-49279838D01*
X139778116Y-49400116D01*
X139657838Y-49546674D01*
X139657834Y-49546681D01*
X139568466Y-49713877D01*
X139568465Y-49713880D01*
X139568464Y-49713882D01*
X139568463Y-49713885D01*
X139548458Y-49779835D01*
X139513426Y-49895318D01*
X139494843Y-50084000D01*
X138889157Y-50084000D01*
X138870573Y-49895317D01*
X138815537Y-49713885D01*
X138810264Y-49704020D01*
X138726165Y-49546681D01*
X138726161Y-49546674D01*
X138605883Y-49400116D01*
X138459325Y-49279838D01*
X138459318Y-49279834D01*
X138292122Y-49190466D01*
X138292119Y-49190465D01*
X138292118Y-49190464D01*
X138292115Y-49190463D01*
X138110683Y-49135427D01*
X138110681Y-49135426D01*
X138110683Y-49135426D01*
X137922000Y-49116843D01*
X137733318Y-49135426D01*
X137626194Y-49167921D01*
X137551885Y-49190463D01*
X137551882Y-49190464D01*
X137551880Y-49190465D01*
X137551877Y-49190466D01*
X137384681Y-49279834D01*
X137384674Y-49279838D01*
X137238116Y-49400116D01*
X137117838Y-49546674D01*
X137117834Y-49546681D01*
X137028466Y-49713877D01*
X137028465Y-49713880D01*
X137028464Y-49713882D01*
X137028463Y-49713885D01*
X137008458Y-49779835D01*
X136973426Y-49895318D01*
X136954843Y-50084000D01*
X136349157Y-50084000D01*
X136330573Y-49895317D01*
X136275537Y-49713885D01*
X136270264Y-49704020D01*
X136186165Y-49546681D01*
X136186161Y-49546674D01*
X136065883Y-49400116D01*
X135919325Y-49279838D01*
X135919318Y-49279834D01*
X135752122Y-49190466D01*
X135752119Y-49190465D01*
X135752118Y-49190464D01*
X135752115Y-49190463D01*
X135570683Y-49135427D01*
X135570681Y-49135426D01*
X135570683Y-49135426D01*
X135382000Y-49116843D01*
X135193318Y-49135426D01*
X135086194Y-49167921D01*
X135011885Y-49190463D01*
X135011882Y-49190464D01*
X135011880Y-49190465D01*
X135011877Y-49190466D01*
X134844681Y-49279834D01*
X134844674Y-49279838D01*
X134698116Y-49400116D01*
X134577838Y-49546674D01*
X134577834Y-49546681D01*
X134488466Y-49713877D01*
X134488465Y-49713880D01*
X134488464Y-49713882D01*
X134488463Y-49713885D01*
X134468458Y-49779835D01*
X134433426Y-49895318D01*
X134414843Y-50084000D01*
X133809157Y-50084000D01*
X133790573Y-49895317D01*
X133735537Y-49713885D01*
X133730264Y-49704020D01*
X133646165Y-49546681D01*
X133646161Y-49546674D01*
X133525883Y-49400116D01*
X133379325Y-49279838D01*
X133379318Y-49279834D01*
X133212122Y-49190466D01*
X133212119Y-49190465D01*
X133212118Y-49190464D01*
X133212115Y-49190463D01*
X133030683Y-49135427D01*
X133030681Y-49135426D01*
X133030683Y-49135426D01*
X132842000Y-49116843D01*
X132653318Y-49135426D01*
X132546194Y-49167921D01*
X132471885Y-49190463D01*
X132471882Y-49190464D01*
X132471880Y-49190465D01*
X132471877Y-49190466D01*
X132304681Y-49279834D01*
X132304674Y-49279838D01*
X132158116Y-49400116D01*
X132037838Y-49546674D01*
X132037834Y-49546681D01*
X131948466Y-49713877D01*
X131948465Y-49713880D01*
X131948464Y-49713882D01*
X131948463Y-49713885D01*
X131928458Y-49779835D01*
X131893426Y-49895318D01*
X131874843Y-50084000D01*
X131269157Y-50084000D01*
X131250573Y-49895317D01*
X131195537Y-49713885D01*
X131190264Y-49704020D01*
X131106165Y-49546681D01*
X131106161Y-49546674D01*
X130985883Y-49400116D01*
X130839325Y-49279838D01*
X130839318Y-49279834D01*
X130672122Y-49190466D01*
X130672119Y-49190465D01*
X130672118Y-49190464D01*
X130672115Y-49190463D01*
X130490683Y-49135427D01*
X130490681Y-49135426D01*
X130490683Y-49135426D01*
X130302000Y-49116843D01*
X130113318Y-49135426D01*
X130006194Y-49167921D01*
X129931885Y-49190463D01*
X129931882Y-49190464D01*
X129931880Y-49190465D01*
X129931877Y-49190466D01*
X129764681Y-49279834D01*
X129764674Y-49279838D01*
X129618116Y-49400116D01*
X129497838Y-49546674D01*
X129497834Y-49546681D01*
X129408466Y-49713877D01*
X129408465Y-49713880D01*
X129408464Y-49713882D01*
X129408463Y-49713885D01*
X129388458Y-49779835D01*
X129353426Y-49895318D01*
X129334843Y-50084000D01*
X126819499Y-50084000D01*
X126819499Y-47768971D01*
X126819733Y-47763619D01*
X126823286Y-47723015D01*
X126823285Y-47723014D01*
X126823286Y-47723012D01*
X126812741Y-47683662D01*
X126811574Y-47678402D01*
X126804497Y-47638261D01*
X126804495Y-47638257D01*
X126802756Y-47633480D01*
X126795546Y-47616072D01*
X126793393Y-47611455D01*
X126770032Y-47578093D01*
X126767123Y-47573528D01*
X126746750Y-47538240D01*
X126746746Y-47538236D01*
X126715535Y-47512046D01*
X126711546Y-47508391D01*
X126055041Y-46851886D01*
X123648096Y-44444942D01*
X123644451Y-44440963D01*
X123618261Y-44409751D01*
X123618257Y-44409747D01*
X123582978Y-44389379D01*
X123578414Y-44386472D01*
X123545044Y-44363106D01*
X123540459Y-44360968D01*
X123522991Y-44353732D01*
X123518240Y-44352003D01*
X123478118Y-44344928D01*
X123472835Y-44343757D01*
X123433481Y-44333212D01*
X123397391Y-44336371D01*
X123392898Y-44336764D01*
X123387495Y-44337000D01*
X121293317Y-44337000D01*
X121226278Y-44317315D01*
X121185930Y-44275000D01*
X121131836Y-44181307D01*
X121103533Y-44132284D01*
X120976871Y-43991612D01*
X120976870Y-43991611D01*
X120823734Y-43880351D01*
X120823729Y-43880348D01*
X120650807Y-43803357D01*
X120650802Y-43803355D01*
X120505001Y-43772365D01*
X120465646Y-43764000D01*
X120276354Y-43764000D01*
X120243897Y-43770898D01*
X120091197Y-43803355D01*
X120091192Y-43803357D01*
X119918270Y-43880348D01*
X119918265Y-43880351D01*
X119765129Y-43991611D01*
X119638466Y-44132285D01*
X119543821Y-44296215D01*
X119543818Y-44296222D01*
X119485327Y-44476240D01*
X119485326Y-44476244D01*
X119465540Y-44664500D01*
X111166460Y-44664500D01*
X111146674Y-44476244D01*
X111088179Y-44296216D01*
X110993533Y-44132284D01*
X110866871Y-43991612D01*
X110866870Y-43991611D01*
X110713734Y-43880351D01*
X110713729Y-43880348D01*
X110540807Y-43803357D01*
X110540802Y-43803355D01*
X110395000Y-43772365D01*
X110355646Y-43764000D01*
X110166354Y-43764000D01*
X110133897Y-43770898D01*
X109981197Y-43803355D01*
X109981192Y-43803357D01*
X109808270Y-43880348D01*
X109808265Y-43880351D01*
X109655129Y-43991611D01*
X109528466Y-44132285D01*
X109433821Y-44296215D01*
X109433818Y-44296222D01*
X109375327Y-44476240D01*
X109375326Y-44476244D01*
X109355540Y-44664500D01*
X100572959Y-44664500D01*
X100859445Y-44560228D01*
X101216803Y-44388133D01*
X101555251Y-44181312D01*
X101871424Y-43941820D01*
X102162181Y-43672037D01*
X102424631Y-43374645D01*
X102656166Y-43052600D01*
X102758992Y-42874500D01*
X111895540Y-42874500D01*
X111915326Y-43062756D01*
X111915327Y-43062759D01*
X111973818Y-43242777D01*
X111973821Y-43242784D01*
X112068467Y-43406716D01*
X112176424Y-43526614D01*
X112195129Y-43547388D01*
X112348265Y-43658648D01*
X112348270Y-43658651D01*
X112521192Y-43735642D01*
X112521197Y-43735644D01*
X112706354Y-43775000D01*
X112706355Y-43775000D01*
X112895644Y-43775000D01*
X112895646Y-43775000D01*
X113080803Y-43735644D01*
X113253730Y-43658651D01*
X113406871Y-43547388D01*
X113533533Y-43406716D01*
X113628179Y-43242784D01*
X113686674Y-43062756D01*
X113706460Y-42874500D01*
X113686674Y-42686244D01*
X113628179Y-42506216D01*
X113533533Y-42342284D01*
X113406871Y-42201612D01*
X113406870Y-42201611D01*
X113253734Y-42090351D01*
X113253729Y-42090348D01*
X113080807Y-42013357D01*
X113080802Y-42013355D01*
X112935001Y-41982365D01*
X112895646Y-41974000D01*
X112706354Y-41974000D01*
X112673897Y-41980898D01*
X112521197Y-42013355D01*
X112521192Y-42013357D01*
X112348270Y-42090348D01*
X112348265Y-42090351D01*
X112195129Y-42201611D01*
X112068466Y-42342285D01*
X111973821Y-42506215D01*
X111973818Y-42506222D01*
X111915327Y-42686240D01*
X111915326Y-42686244D01*
X111895540Y-42874500D01*
X102758992Y-42874500D01*
X102854485Y-42709101D01*
X103017617Y-42347563D01*
X103143941Y-41971578D01*
X103232201Y-41584885D01*
X103249355Y-41448001D01*
X127051454Y-41448001D01*
X127071613Y-41729866D01*
X127131678Y-42005977D01*
X127131680Y-42005984D01*
X127163147Y-42090351D01*
X127230432Y-42270750D01*
X127230434Y-42270754D01*
X127365855Y-42518758D01*
X127365860Y-42518766D01*
X127535196Y-42744974D01*
X127535212Y-42744992D01*
X127735007Y-42944787D01*
X127735025Y-42944803D01*
X127961233Y-43114139D01*
X127961241Y-43114144D01*
X128209245Y-43249565D01*
X128209249Y-43249567D01*
X128209251Y-43249568D01*
X128474016Y-43348320D01*
X128595007Y-43374640D01*
X128750133Y-43408386D01*
X128750135Y-43408386D01*
X128750139Y-43408387D01*
X128961447Y-43423500D01*
X129102553Y-43423500D01*
X129313861Y-43408387D01*
X129321543Y-43406716D01*
X129353527Y-43399758D01*
X129589984Y-43348320D01*
X129854749Y-43249568D01*
X130102764Y-43114141D01*
X130328982Y-42944797D01*
X130528797Y-42744982D01*
X130698141Y-42518764D01*
X130833568Y-42270749D01*
X130932320Y-42005984D01*
X130992387Y-41729861D01*
X131012546Y-41448001D01*
X152451454Y-41448001D01*
X152471613Y-41729866D01*
X152531678Y-42005977D01*
X152531680Y-42005984D01*
X152563147Y-42090351D01*
X152630432Y-42270750D01*
X152630434Y-42270754D01*
X152765855Y-42518758D01*
X152765860Y-42518766D01*
X152935196Y-42744974D01*
X152935212Y-42744992D01*
X153135007Y-42944787D01*
X153135025Y-42944803D01*
X153361233Y-43114139D01*
X153361241Y-43114144D01*
X153609245Y-43249565D01*
X153609249Y-43249567D01*
X153609251Y-43249568D01*
X153874016Y-43348320D01*
X153995007Y-43374640D01*
X154150133Y-43408386D01*
X154150135Y-43408386D01*
X154150139Y-43408387D01*
X154361447Y-43423500D01*
X154502553Y-43423500D01*
X154713861Y-43408387D01*
X154721543Y-43406716D01*
X154753527Y-43399758D01*
X154989984Y-43348320D01*
X155254749Y-43249568D01*
X155502764Y-43114141D01*
X155728982Y-42944797D01*
X155928797Y-42744982D01*
X156098141Y-42518764D01*
X156233568Y-42270749D01*
X156332320Y-42005984D01*
X156392387Y-41729861D01*
X156412546Y-41448001D01*
X157023454Y-41448001D01*
X157043613Y-41729866D01*
X157103678Y-42005977D01*
X157103680Y-42005984D01*
X157135147Y-42090351D01*
X157202432Y-42270750D01*
X157202434Y-42270754D01*
X157337855Y-42518758D01*
X157337860Y-42518766D01*
X157507196Y-42744974D01*
X157507212Y-42744992D01*
X157707007Y-42944787D01*
X157707025Y-42944803D01*
X157933233Y-43114139D01*
X157933241Y-43114144D01*
X158181245Y-43249565D01*
X158181249Y-43249567D01*
X158181251Y-43249568D01*
X158446016Y-43348320D01*
X158567007Y-43374640D01*
X158722133Y-43408386D01*
X158722135Y-43408386D01*
X158722139Y-43408387D01*
X158933447Y-43423500D01*
X159074553Y-43423500D01*
X159285861Y-43408387D01*
X159293543Y-43406716D01*
X159325527Y-43399758D01*
X159561984Y-43348320D01*
X159826749Y-43249568D01*
X160074764Y-43114141D01*
X160300982Y-42944797D01*
X160500797Y-42744982D01*
X160670141Y-42518764D01*
X160805568Y-42270749D01*
X160904320Y-42005984D01*
X160964387Y-41729861D01*
X160984546Y-41448001D01*
X179883454Y-41448001D01*
X179903613Y-41729866D01*
X179963678Y-42005977D01*
X179963680Y-42005984D01*
X179995147Y-42090351D01*
X180062432Y-42270750D01*
X180062434Y-42270754D01*
X180197855Y-42518758D01*
X180197860Y-42518766D01*
X180367196Y-42744974D01*
X180367212Y-42744992D01*
X180567007Y-42944787D01*
X180567025Y-42944803D01*
X180793233Y-43114139D01*
X180793241Y-43114144D01*
X181041245Y-43249565D01*
X181041249Y-43249567D01*
X181041251Y-43249568D01*
X181306016Y-43348320D01*
X181427007Y-43374640D01*
X181582133Y-43408386D01*
X181582135Y-43408386D01*
X181582139Y-43408387D01*
X181793447Y-43423500D01*
X181934553Y-43423500D01*
X182145861Y-43408387D01*
X182153543Y-43406716D01*
X182185527Y-43399758D01*
X182421984Y-43348320D01*
X182686749Y-43249568D01*
X182934764Y-43114141D01*
X183160982Y-42944797D01*
X183360797Y-42744982D01*
X183530141Y-42518764D01*
X183665568Y-42270749D01*
X183764320Y-42005984D01*
X183824387Y-41729861D01*
X183844546Y-41448001D01*
X184257949Y-41448001D01*
X184278108Y-41729866D01*
X184338173Y-42005977D01*
X184338175Y-42005984D01*
X184369642Y-42090351D01*
X184436927Y-42270750D01*
X184436929Y-42270754D01*
X184572350Y-42518758D01*
X184572355Y-42518766D01*
X184741691Y-42744974D01*
X184741707Y-42744992D01*
X184941502Y-42944787D01*
X184941520Y-42944803D01*
X185167728Y-43114139D01*
X185167736Y-43114144D01*
X185415740Y-43249565D01*
X185415744Y-43249567D01*
X185415746Y-43249568D01*
X185680511Y-43348320D01*
X185801502Y-43374640D01*
X185956628Y-43408386D01*
X185956630Y-43408386D01*
X185956634Y-43408387D01*
X186167942Y-43423500D01*
X186309048Y-43423500D01*
X186520356Y-43408387D01*
X186528038Y-43406716D01*
X186560022Y-43399758D01*
X186796479Y-43348320D01*
X187061244Y-43249568D01*
X187309259Y-43114141D01*
X187535477Y-42944797D01*
X187735292Y-42744982D01*
X187904636Y-42518764D01*
X188040063Y-42270749D01*
X188138815Y-42005984D01*
X188198882Y-41729861D01*
X188219041Y-41448001D01*
X194417949Y-41448001D01*
X194438108Y-41729866D01*
X194498173Y-42005977D01*
X194498175Y-42005984D01*
X194529642Y-42090351D01*
X194596927Y-42270750D01*
X194596929Y-42270754D01*
X194732350Y-42518758D01*
X194732355Y-42518766D01*
X194901691Y-42744974D01*
X194901707Y-42744992D01*
X195101502Y-42944787D01*
X195101520Y-42944803D01*
X195327728Y-43114139D01*
X195327736Y-43114144D01*
X195575740Y-43249565D01*
X195575744Y-43249567D01*
X195575746Y-43249568D01*
X195840511Y-43348320D01*
X195961502Y-43374640D01*
X196116628Y-43408386D01*
X196116630Y-43408386D01*
X196116634Y-43408387D01*
X196327942Y-43423500D01*
X196469048Y-43423500D01*
X196680356Y-43408387D01*
X196688038Y-43406716D01*
X196720022Y-43399758D01*
X196956479Y-43348320D01*
X197221244Y-43249568D01*
X197469259Y-43114141D01*
X197695477Y-42944797D01*
X197895292Y-42744982D01*
X198064636Y-42518764D01*
X198200063Y-42270749D01*
X198298815Y-42005984D01*
X198358882Y-41729861D01*
X198379041Y-41448000D01*
X198358882Y-41166139D01*
X198298815Y-40890016D01*
X198200063Y-40625251D01*
X198184459Y-40596675D01*
X198064639Y-40377241D01*
X198064634Y-40377233D01*
X197895298Y-40151025D01*
X197895282Y-40151007D01*
X197695487Y-39951212D01*
X197695469Y-39951196D01*
X197469261Y-39781860D01*
X197469253Y-39781855D01*
X197221249Y-39646434D01*
X197221245Y-39646432D01*
X197090792Y-39597776D01*
X196956479Y-39547680D01*
X196956475Y-39547679D01*
X196956472Y-39547678D01*
X196680361Y-39487613D01*
X196469048Y-39472500D01*
X196327942Y-39472500D01*
X196116628Y-39487613D01*
X195840517Y-39547678D01*
X195840512Y-39547679D01*
X195840511Y-39547680D01*
X195776498Y-39571555D01*
X195575744Y-39646432D01*
X195575740Y-39646434D01*
X195327736Y-39781855D01*
X195327728Y-39781860D01*
X195101520Y-39951196D01*
X195101502Y-39951212D01*
X194901707Y-40151007D01*
X194901691Y-40151025D01*
X194732355Y-40377233D01*
X194732350Y-40377241D01*
X194596929Y-40625245D01*
X194596927Y-40625249D01*
X194498173Y-40890022D01*
X194438108Y-41166133D01*
X194417949Y-41447998D01*
X194417949Y-41448001D01*
X188219041Y-41448001D01*
X188219041Y-41448000D01*
X188198882Y-41166139D01*
X188138815Y-40890016D01*
X188040063Y-40625251D01*
X188024459Y-40596675D01*
X187904639Y-40377241D01*
X187904634Y-40377233D01*
X187735298Y-40151025D01*
X187735282Y-40151007D01*
X187535487Y-39951212D01*
X187535469Y-39951196D01*
X187309261Y-39781860D01*
X187309253Y-39781855D01*
X187061249Y-39646434D01*
X187061245Y-39646432D01*
X186930792Y-39597776D01*
X186796479Y-39547680D01*
X186796475Y-39547679D01*
X186796472Y-39547678D01*
X186520361Y-39487613D01*
X186309048Y-39472500D01*
X186167942Y-39472500D01*
X185956628Y-39487613D01*
X185680517Y-39547678D01*
X185680512Y-39547679D01*
X185680511Y-39547680D01*
X185616498Y-39571555D01*
X185415744Y-39646432D01*
X185415740Y-39646434D01*
X185167736Y-39781855D01*
X185167728Y-39781860D01*
X184941520Y-39951196D01*
X184941502Y-39951212D01*
X184741707Y-40151007D01*
X184741691Y-40151025D01*
X184572355Y-40377233D01*
X184572350Y-40377241D01*
X184436929Y-40625245D01*
X184436927Y-40625249D01*
X184338173Y-40890022D01*
X184278108Y-41166133D01*
X184257949Y-41447998D01*
X184257949Y-41448001D01*
X183844546Y-41448001D01*
X183844546Y-41448000D01*
X183824387Y-41166139D01*
X183764320Y-40890016D01*
X183665568Y-40625251D01*
X183649964Y-40596675D01*
X183530144Y-40377241D01*
X183530139Y-40377233D01*
X183360803Y-40151025D01*
X183360787Y-40151007D01*
X183160992Y-39951212D01*
X183160974Y-39951196D01*
X182934766Y-39781860D01*
X182934758Y-39781855D01*
X182686754Y-39646434D01*
X182686750Y-39646432D01*
X182556297Y-39597776D01*
X182421984Y-39547680D01*
X182421980Y-39547679D01*
X182421977Y-39547678D01*
X182145866Y-39487613D01*
X181934553Y-39472500D01*
X181793447Y-39472500D01*
X181582133Y-39487613D01*
X181306022Y-39547678D01*
X181306017Y-39547679D01*
X181306016Y-39547680D01*
X181242003Y-39571555D01*
X181041249Y-39646432D01*
X181041245Y-39646434D01*
X180793241Y-39781855D01*
X180793233Y-39781860D01*
X180567025Y-39951196D01*
X180567007Y-39951212D01*
X180367212Y-40151007D01*
X180367196Y-40151025D01*
X180197860Y-40377233D01*
X180197855Y-40377241D01*
X180062434Y-40625245D01*
X180062432Y-40625249D01*
X179963678Y-40890022D01*
X179903613Y-41166133D01*
X179883454Y-41447998D01*
X179883454Y-41448001D01*
X160984546Y-41448001D01*
X160984546Y-41448000D01*
X160964387Y-41166139D01*
X160904320Y-40890016D01*
X160805568Y-40625251D01*
X160789964Y-40596675D01*
X160670144Y-40377241D01*
X160670139Y-40377233D01*
X160500803Y-40151025D01*
X160500787Y-40151007D01*
X160300992Y-39951212D01*
X160300974Y-39951196D01*
X160074766Y-39781860D01*
X160074758Y-39781855D01*
X159826754Y-39646434D01*
X159826750Y-39646432D01*
X159696297Y-39597776D01*
X159561984Y-39547680D01*
X159561980Y-39547679D01*
X159561977Y-39547678D01*
X159285866Y-39487613D01*
X159074553Y-39472500D01*
X158933447Y-39472500D01*
X158722133Y-39487613D01*
X158446022Y-39547678D01*
X158446017Y-39547679D01*
X158446016Y-39547680D01*
X158382003Y-39571555D01*
X158181249Y-39646432D01*
X158181245Y-39646434D01*
X157933241Y-39781855D01*
X157933233Y-39781860D01*
X157707025Y-39951196D01*
X157707007Y-39951212D01*
X157507212Y-40151007D01*
X157507196Y-40151025D01*
X157337860Y-40377233D01*
X157337855Y-40377241D01*
X157202434Y-40625245D01*
X157202432Y-40625249D01*
X157103678Y-40890022D01*
X157043613Y-41166133D01*
X157023454Y-41447998D01*
X157023454Y-41448001D01*
X156412546Y-41448001D01*
X156412546Y-41448000D01*
X156392387Y-41166139D01*
X156332320Y-40890016D01*
X156233568Y-40625251D01*
X156217964Y-40596675D01*
X156098144Y-40377241D01*
X156098139Y-40377233D01*
X155928803Y-40151025D01*
X155928787Y-40151007D01*
X155728992Y-39951212D01*
X155728974Y-39951196D01*
X155502766Y-39781860D01*
X155502758Y-39781855D01*
X155254754Y-39646434D01*
X155254750Y-39646432D01*
X155124297Y-39597776D01*
X154989984Y-39547680D01*
X154989980Y-39547679D01*
X154989977Y-39547678D01*
X154713866Y-39487613D01*
X154502553Y-39472500D01*
X154361447Y-39472500D01*
X154150133Y-39487613D01*
X153874022Y-39547678D01*
X153874017Y-39547679D01*
X153874016Y-39547680D01*
X153810003Y-39571555D01*
X153609249Y-39646432D01*
X153609245Y-39646434D01*
X153361241Y-39781855D01*
X153361233Y-39781860D01*
X153135025Y-39951196D01*
X153135007Y-39951212D01*
X152935212Y-40151007D01*
X152935196Y-40151025D01*
X152765860Y-40377233D01*
X152765855Y-40377241D01*
X152630434Y-40625245D01*
X152630432Y-40625249D01*
X152531678Y-40890022D01*
X152471613Y-41166133D01*
X152451454Y-41447998D01*
X152451454Y-41448001D01*
X131012546Y-41448001D01*
X131012546Y-41448000D01*
X130992387Y-41166139D01*
X130932320Y-40890016D01*
X130833568Y-40625251D01*
X130817964Y-40596675D01*
X130698144Y-40377241D01*
X130698139Y-40377233D01*
X130528803Y-40151025D01*
X130528787Y-40151007D01*
X130328992Y-39951212D01*
X130328974Y-39951196D01*
X130102766Y-39781860D01*
X130102758Y-39781855D01*
X129854754Y-39646434D01*
X129854750Y-39646432D01*
X129724297Y-39597776D01*
X129589984Y-39547680D01*
X129589980Y-39547679D01*
X129589977Y-39547678D01*
X129313866Y-39487613D01*
X129102553Y-39472500D01*
X128961447Y-39472500D01*
X128750133Y-39487613D01*
X128474022Y-39547678D01*
X128474017Y-39547679D01*
X128474016Y-39547680D01*
X128410003Y-39571555D01*
X128209249Y-39646432D01*
X128209245Y-39646434D01*
X127961241Y-39781855D01*
X127961233Y-39781860D01*
X127735025Y-39951196D01*
X127735007Y-39951212D01*
X127535212Y-40151007D01*
X127535196Y-40151025D01*
X127365860Y-40377233D01*
X127365855Y-40377241D01*
X127230434Y-40625245D01*
X127230432Y-40625249D01*
X127131678Y-40890022D01*
X127071613Y-41166133D01*
X127051454Y-41447998D01*
X127051454Y-41448001D01*
X103249355Y-41448001D01*
X103281521Y-41191325D01*
X103286462Y-40993173D01*
X103291409Y-40794826D01*
X103291409Y-40794810D01*
X103284726Y-40705625D01*
X103261769Y-40399280D01*
X103192893Y-40008668D01*
X103176727Y-39951212D01*
X103085469Y-39626862D01*
X103085465Y-39626848D01*
X102940564Y-39257646D01*
X102940559Y-39257634D01*
X102759613Y-38904685D01*
X102759609Y-38904677D01*
X102544414Y-38571491D01*
X102297114Y-38261386D01*
X102297111Y-38261383D01*
X102297104Y-38261374D01*
X102020176Y-37977455D01*
X102020173Y-37977452D01*
X102020172Y-37977451D01*
X102020167Y-37977446D01*
X101716324Y-37722492D01*
X101623546Y-37659237D01*
X101388605Y-37499057D01*
X101272494Y-37435826D01*
X101040270Y-37309364D01*
X101040262Y-37309360D01*
X101040259Y-37309359D01*
X100674777Y-37155296D01*
X100674761Y-37155290D01*
X100440371Y-37082991D01*
X100382112Y-37044421D01*
X100353955Y-36980476D01*
X100364838Y-36911459D01*
X100411306Y-36859283D01*
X100476921Y-36840500D01*
X225139926Y-36840500D01*
X225206965Y-36860185D01*
G37*
G04 #@! TD.AperFunction*
M02*
